G04 start of page 12 for group -3984 idx -3984 *
G04 Title: (unknown), fab *
G04 Creator: pcb 20140316 *
G04 CreationDate: Mon 06 Apr 2015 04:31:32 PM GMT UTC *
G04 For: fosse *
G04 Format: Gerber/RS-274X *
G04 PCB-Dimensions (mil): 5250.00 3480.00 *
G04 PCB-Coordinate-Origin: lower left *
%MOIN*%
%FSLAX25Y25*%
%LNFAB*%
%ADD104C,0.0100*%
%ADD103C,0.0075*%
%ADD102C,0.0060*%
%ADD101R,0.0080X0.0080*%
G54D101*X22950Y159700D02*G75*G03X24550Y159700I800J0D01*G01*
G75*G03X22950Y159700I-800J0D01*G01*
X21350D02*G75*G03X26150Y159700I2400J0D01*G01*
G75*G03X21350Y159700I-2400J0D01*G01*
X212450D02*G75*G03X214050Y159700I800J0D01*G01*
G75*G03X212450Y159700I-800J0D01*G01*
X210850D02*G75*G03X215650Y159700I2400J0D01*G01*
G75*G03X210850Y159700I-2400J0D01*G01*
X212450Y298300D02*G75*G03X214050Y298300I800J0D01*G01*
G75*G03X212450Y298300I-800J0D01*G01*
X210850D02*G75*G03X215650Y298300I2400J0D01*G01*
G75*G03X210850Y298300I-2400J0D01*G01*
X22950D02*G75*G03X24550Y298300I800J0D01*G01*
G75*G03X22950Y298300I-800J0D01*G01*
X21350D02*G75*G03X26150Y298300I2400J0D01*G01*
G75*G03X21350Y298300I-2400J0D01*G01*
X14200Y359250D02*G75*G03X15800Y359250I800J0D01*G01*
G75*G03X14200Y359250I-800J0D01*G01*
X12600D02*G75*G03X17400Y359250I2400J0D01*G01*
G75*G03X12600Y359250I-2400J0D01*G01*
G54D102*X135000Y361500D02*X136500Y358500D01*
X138000Y361500D01*
X136500Y358500D02*Y355500D01*
X139800Y358800D02*X142050D01*
X139800Y355500D02*X142800D01*
X139800Y361500D02*Y355500D01*
Y361500D02*X142800D01*
X147600D02*X148350Y360750D01*
X145350Y361500D02*X147600D01*
X144600Y360750D02*X145350Y361500D01*
X144600Y360750D02*Y359250D01*
X145350Y358500D01*
X147600D01*
X148350Y357750D01*
Y356250D01*
X147600Y355500D02*X148350Y356250D01*
X145350Y355500D02*X147600D01*
X144600Y356250D02*X145350Y355500D01*
X98000Y357750D02*X101000Y361500D01*
X98000Y357750D02*X101750D01*
X101000Y361500D02*Y355500D01*
X45000Y356250D02*X45750Y355500D01*
X45000Y360750D02*Y356250D01*
Y360750D02*X45750Y361500D01*
X47250D01*
X48000Y360750D01*
Y356250D01*
X47250Y355500D02*X48000Y356250D01*
X45750Y355500D02*X47250D01*
X45000Y357000D02*X48000Y360000D01*
X49800Y355500D02*X50550D01*
X52350Y360300D02*X53550Y361500D01*
Y355500D01*
X52350D02*X54600D01*
X58650Y361500D02*X59400Y360750D01*
X57150Y361500D02*X58650D01*
X56400Y360750D02*X57150Y361500D01*
X56400Y360750D02*Y356250D01*
X57150Y355500D01*
X58650Y358800D02*X59400Y358050D01*
X56400Y358800D02*X58650D01*
X57150Y355500D02*X58650D01*
X59400Y356250D01*
Y358050D02*Y356250D01*
X61200Y361500D02*X64200D01*
X61200D02*Y358500D01*
X61950Y359250D01*
X63450D01*
X64200Y358500D01*
Y356250D01*
X63450Y355500D02*X64200Y356250D01*
X61950Y355500D02*X63450D01*
X61200Y356250D02*X61950Y355500D01*
X128100Y119400D02*X132900Y114600D01*
X128100D02*X132900Y119400D01*
X128900Y118600D02*X132100D01*
X128900D02*Y115400D01*
X132100D01*
Y118600D02*Y115400D01*
X185600Y173400D02*X190400Y168600D01*
X185600D02*X190400Y173400D01*
X186400Y172600D02*X189600D01*
X186400D02*Y169400D01*
X189600D01*
Y172600D02*Y169400D01*
X135600Y173400D02*X140400Y168600D01*
X135600D02*X140400Y173400D01*
X136400Y172600D02*X139600D01*
X136400D02*Y169400D01*
X139600D01*
Y172600D02*Y169400D01*
X94600Y244400D02*X99400Y239600D01*
X94600D02*X99400Y244400D01*
X95400Y243600D02*X98600D01*
X95400D02*Y240400D01*
X98600D01*
Y243600D02*Y240400D01*
X185600Y289400D02*X190400Y284600D01*
X185600D02*X190400Y289400D01*
X186400Y288600D02*X189600D01*
X186400D02*Y285400D01*
X189600D01*
Y288600D02*Y285400D01*
X46600Y289400D02*X51400Y284600D01*
X46600D02*X51400Y289400D01*
X47400Y288600D02*X50600D01*
X47400D02*Y285400D01*
X50600D01*
Y288600D02*Y285400D01*
X12600Y376650D02*X17400Y371850D01*
X12600D02*X17400Y376650D01*
X13400Y375850D02*X16600D01*
X13400D02*Y372650D01*
X16600D01*
Y375850D02*Y372650D01*
X135000Y376500D02*X136500Y373500D01*
X138000Y376500D01*
X136500Y373500D02*Y370500D01*
X139800Y373800D02*X142050D01*
X139800Y370500D02*X142800D01*
X139800Y376500D02*Y370500D01*
Y376500D02*X142800D01*
X147600D02*X148350Y375750D01*
X145350Y376500D02*X147600D01*
X144600Y375750D02*X145350Y376500D01*
X144600Y375750D02*Y374250D01*
X145350Y373500D01*
X147600D01*
X148350Y372750D01*
Y371250D01*
X147600Y370500D02*X148350Y371250D01*
X145350Y370500D02*X147600D01*
X144600Y371250D02*X145350Y370500D01*
X100250Y376500D02*X101000Y375750D01*
X98750Y376500D02*X100250D01*
X98000Y375750D02*X98750Y376500D01*
X98000Y375750D02*Y371250D01*
X98750Y370500D01*
X100250Y373800D02*X101000Y373050D01*
X98000Y373800D02*X100250D01*
X98750Y370500D02*X100250D01*
X101000Y371250D01*
Y373050D02*Y371250D01*
X45000D02*X45750Y370500D01*
X45000Y375750D02*Y371250D01*
Y375750D02*X45750Y376500D01*
X47250D01*
X48000Y375750D01*
Y371250D01*
X47250Y370500D02*X48000Y371250D01*
X45750Y370500D02*X47250D01*
X45000Y372000D02*X48000Y375000D01*
X49800Y370500D02*X50550D01*
X52350Y375300D02*X53550Y376500D01*
Y370500D01*
X52350D02*X54600D01*
X56400Y375750D02*X57150Y376500D01*
X58650D01*
X59400Y375750D01*
X58650Y370500D02*X59400Y371250D01*
X57150Y370500D02*X58650D01*
X56400Y371250D02*X57150Y370500D01*
Y373800D02*X58650D01*
X59400Y375750D02*Y374550D01*
Y373050D02*Y371250D01*
Y373050D02*X58650Y373800D01*
X59400Y374550D02*X58650Y373800D01*
X61200Y371250D02*X61950Y370500D01*
X61200Y375750D02*Y371250D01*
Y375750D02*X61950Y376500D01*
X63450D01*
X64200Y375750D01*
Y371250D01*
X63450Y370500D02*X64200Y371250D01*
X61950Y370500D02*X63450D01*
X61200Y372000D02*X64200Y375000D01*
X118500Y232200D02*Y225800D01*
X115300Y229000D02*X121700D01*
X116900Y230600D02*X120100D01*
X116900D02*Y227400D01*
X120100D01*
Y230600D02*Y227400D01*
X15000Y392450D02*Y386050D01*
X11800Y389250D02*X18200D01*
X13400Y390850D02*X16600D01*
X13400D02*Y387650D01*
X16600D01*
Y390850D02*Y387650D01*
X135000Y391500D02*X136500Y388500D01*
X138000Y391500D01*
X136500Y388500D02*Y385500D01*
X139800Y388800D02*X142050D01*
X139800Y385500D02*X142800D01*
X139800Y391500D02*Y385500D01*
Y391500D02*X142800D01*
X147600D02*X148350Y390750D01*
X145350Y391500D02*X147600D01*
X144600Y390750D02*X145350Y391500D01*
X144600Y390750D02*Y389250D01*
X145350Y388500D01*
X147600D01*
X148350Y387750D01*
Y386250D01*
X147600Y385500D02*X148350Y386250D01*
X145350Y385500D02*X147600D01*
X144600Y386250D02*X145350Y385500D01*
X98000Y390300D02*X99200Y391500D01*
Y385500D01*
X98000D02*X100250D01*
X45000Y386250D02*X45750Y385500D01*
X45000Y390750D02*Y386250D01*
Y390750D02*X45750Y391500D01*
X47250D01*
X48000Y390750D01*
Y386250D01*
X47250Y385500D02*X48000Y386250D01*
X45750Y385500D02*X47250D01*
X45000Y387000D02*X48000Y390000D01*
X49800Y385500D02*X50550D01*
X52350Y390300D02*X53550Y391500D01*
Y385500D01*
X52350D02*X54600D01*
X56400Y390750D02*X57150Y391500D01*
X59400D01*
X60150Y390750D01*
Y389250D01*
X56400Y385500D02*X60150Y389250D01*
X56400Y385500D02*X60150D01*
X61950Y391500D02*X64950D01*
X61950D02*Y388500D01*
X62700Y389250D01*
X64200D01*
X64950Y388500D01*
Y386250D01*
X64200Y385500D02*X64950Y386250D01*
X62700Y385500D02*X64200D01*
X61950Y386250D02*X62700Y385500D01*
X58756Y163173D02*Y159973D01*
Y163173D02*X61529Y164773D01*
X58756Y163173D02*X55983Y164773D01*
X57156Y163173D02*G75*G03X60356Y163173I1600J0D01*G01*
G75*G03X57156Y163173I-1600J0D01*G01*
X58756Y180890D02*Y177690D01*
Y180890D02*X61529Y182490D01*
X58756Y180890D02*X55983Y182490D01*
X57156Y180890D02*G75*G03X60356Y180890I1600J0D01*G01*
G75*G03X57156Y180890I-1600J0D01*G01*
X15000Y404250D02*Y401050D01*
Y404250D02*X17773Y405850D01*
X15000Y404250D02*X12227Y405850D01*
X13400Y404250D02*G75*G03X16600Y404250I1600J0D01*G01*
G75*G03X13400Y404250I-1600J0D01*G01*
X135000Y406500D02*X136500Y403500D01*
X138000Y406500D01*
X136500Y403500D02*Y400500D01*
X139800Y403800D02*X142050D01*
X139800Y400500D02*X142800D01*
X139800Y406500D02*Y400500D01*
Y406500D02*X142800D01*
X147600D02*X148350Y405750D01*
X145350Y406500D02*X147600D01*
X144600Y405750D02*X145350Y406500D01*
X144600Y405750D02*Y404250D01*
X145350Y403500D01*
X147600D01*
X148350Y402750D01*
Y401250D01*
X147600Y400500D02*X148350Y401250D01*
X145350Y400500D02*X147600D01*
X144600Y401250D02*X145350Y400500D01*
X98000Y405750D02*X98750Y406500D01*
X101000D01*
X101750Y405750D01*
Y404250D01*
X98000Y400500D02*X101750Y404250D01*
X98000Y400500D02*X101750D01*
X45000Y401250D02*X45750Y400500D01*
X45000Y405750D02*Y401250D01*
Y405750D02*X45750Y406500D01*
X47250D01*
X48000Y405750D01*
Y401250D01*
X47250Y400500D02*X48000Y401250D01*
X45750Y400500D02*X47250D01*
X45000Y402000D02*X48000Y405000D01*
X49800Y400500D02*X50550D01*
X52350Y401250D02*X53100Y400500D01*
X52350Y405750D02*Y401250D01*
Y405750D02*X53100Y406500D01*
X54600D01*
X55350Y405750D01*
Y401250D01*
X54600Y400500D02*X55350Y401250D01*
X53100Y400500D02*X54600D01*
X52350Y402000D02*X55350Y405000D01*
X57150Y402750D02*X60150Y406500D01*
X57150Y402750D02*X60900D01*
X60150Y406500D02*Y400500D01*
X62700Y405750D02*X63450Y406500D01*
X64950D01*
X65700Y405750D01*
X64950Y400500D02*X65700Y401250D01*
X63450Y400500D02*X64950D01*
X62700Y401250D02*X63450Y400500D01*
Y403800D02*X64950D01*
X65700Y405750D02*Y404550D01*
Y403050D02*Y401250D01*
Y403050D02*X64950Y403800D01*
X65700Y404550D02*X64950Y403800D01*
X102900Y191100D02*X106100D01*
X102900D02*Y187900D01*
X106100D01*
Y191100D02*Y187900D01*
X95900Y200600D02*X99100D01*
X95900D02*Y197400D01*
X99100D01*
Y200600D02*Y197400D01*
X82900Y191100D02*X86100D01*
X82900D02*Y187900D01*
X86100D01*
Y191100D02*Y187900D01*
X13400Y420850D02*X16600D01*
X13400D02*Y417650D01*
X16600D01*
Y420850D02*Y417650D01*
X135000Y421500D02*X136500Y418500D01*
X138000Y421500D01*
X136500Y418500D02*Y415500D01*
X139800Y418800D02*X142050D01*
X139800Y415500D02*X142800D01*
X139800Y421500D02*Y415500D01*
Y421500D02*X142800D01*
X147600D02*X148350Y420750D01*
X145350Y421500D02*X147600D01*
X144600Y420750D02*X145350Y421500D01*
X144600Y420750D02*Y419250D01*
X145350Y418500D01*
X147600D01*
X148350Y417750D01*
Y416250D01*
X147600Y415500D02*X148350Y416250D01*
X145350Y415500D02*X147600D01*
X144600Y416250D02*X145350Y415500D01*
X98000Y420750D02*X98750Y421500D01*
X100250D01*
X101000Y420750D01*
X100250Y415500D02*X101000Y416250D01*
X98750Y415500D02*X100250D01*
X98000Y416250D02*X98750Y415500D01*
Y418800D02*X100250D01*
X101000Y420750D02*Y419550D01*
Y418050D02*Y416250D01*
Y418050D02*X100250Y418800D01*
X101000Y419550D02*X100250Y418800D01*
X45000Y416250D02*X45750Y415500D01*
X45000Y420750D02*Y416250D01*
Y420750D02*X45750Y421500D01*
X47250D01*
X48000Y420750D01*
Y416250D01*
X47250Y415500D02*X48000Y416250D01*
X45750Y415500D02*X47250D01*
X45000Y417000D02*X48000Y420000D01*
X49800Y415500D02*X50550D01*
X52350Y416250D02*X53100Y415500D01*
X52350Y420750D02*Y416250D01*
Y420750D02*X53100Y421500D01*
X54600D01*
X55350Y420750D01*
Y416250D01*
X54600Y415500D02*X55350Y416250D01*
X53100Y415500D02*X54600D01*
X52350Y417000D02*X55350Y420000D01*
X57150Y420750D02*X57900Y421500D01*
X59400D01*
X60150Y420750D01*
X59400Y415500D02*X60150Y416250D01*
X57900Y415500D02*X59400D01*
X57150Y416250D02*X57900Y415500D01*
Y418800D02*X59400D01*
X60150Y420750D02*Y419550D01*
Y418050D02*Y416250D01*
Y418050D02*X59400Y418800D01*
X60150Y419550D02*X59400Y418800D01*
X61950Y421500D02*X64950D01*
X61950D02*Y418500D01*
X62700Y419250D01*
X64200D01*
X64950Y418500D01*
Y416250D01*
X64200Y415500D02*X64950Y416250D01*
X62700Y415500D02*X64200D01*
X61950Y416250D02*X62700Y415500D01*
X121700Y193500D02*G75*G03X123300Y193500I800J0D01*G01*
G75*G03X121700Y193500I-800J0D01*G01*
Y205300D02*G75*G03X123300Y205300I800J0D01*G01*
G75*G03X121700Y205300I-800J0D01*G01*
X14200Y434250D02*G75*G03X15800Y434250I800J0D01*G01*
G75*G03X14200Y434250I-800J0D01*G01*
X135000Y436500D02*X136500Y433500D01*
X138000Y436500D01*
X136500Y433500D02*Y430500D01*
X139800Y433800D02*X142050D01*
X139800Y430500D02*X142800D01*
X139800Y436500D02*Y430500D01*
Y436500D02*X142800D01*
X147600D02*X148350Y435750D01*
X145350Y436500D02*X147600D01*
X144600Y435750D02*X145350Y436500D01*
X144600Y435750D02*Y434250D01*
X145350Y433500D01*
X147600D01*
X148350Y432750D01*
Y431250D01*
X147600Y430500D02*X148350Y431250D01*
X145350Y430500D02*X147600D01*
X144600Y431250D02*X145350Y430500D01*
X98000Y435750D02*X98750Y436500D01*
X101000D01*
X101750Y435750D01*
Y434250D01*
X98000Y430500D02*X101750Y434250D01*
X98000Y430500D02*X101750D01*
X45000Y431250D02*X45750Y430500D01*
X45000Y435750D02*Y431250D01*
Y435750D02*X45750Y436500D01*
X47250D01*
X48000Y435750D01*
Y431250D01*
X47250Y430500D02*X48000Y431250D01*
X45750Y430500D02*X47250D01*
X45000Y432000D02*X48000Y435000D01*
X49800Y430500D02*X50550D01*
X52350Y431250D02*X53100Y430500D01*
X52350Y435750D02*Y431250D01*
Y435750D02*X53100Y436500D01*
X54600D01*
X55350Y435750D01*
Y431250D01*
X54600Y430500D02*X55350Y431250D01*
X53100Y430500D02*X54600D01*
X52350Y432000D02*X55350Y435000D01*
X57150Y435750D02*X57900Y436500D01*
X59400D01*
X60150Y435750D01*
X59400Y430500D02*X60150Y431250D01*
X57900Y430500D02*X59400D01*
X57150Y431250D02*X57900Y430500D01*
Y433800D02*X59400D01*
X60150Y435750D02*Y434550D01*
Y433050D02*Y431250D01*
Y433050D02*X59400Y433800D01*
X60150Y434550D02*X59400Y433800D01*
X61950Y432750D02*X64950Y436500D01*
X61950Y432750D02*X65700D01*
X64950Y436500D02*Y430500D01*
X109957Y270200D02*X112357Y267800D01*
X109957D02*X112357Y270200D01*
X114879Y278074D02*X117279Y275674D01*
X114879D02*X117279Y278074D01*
X119800Y270200D02*X122200Y267800D01*
X119800D02*X122200Y270200D01*
X124721Y278074D02*X127121Y275674D01*
X124721D02*X127121Y278074D01*
X13800Y450450D02*X16200Y448050D01*
X13800D02*X16200Y450450D01*
X135000Y451500D02*X136500Y448500D01*
X138000Y451500D01*
X136500Y448500D02*Y445500D01*
X139800Y448800D02*X142050D01*
X139800Y445500D02*X142800D01*
X139800Y451500D02*Y445500D01*
Y451500D02*X142800D01*
X147600D02*X148350Y450750D01*
X145350Y451500D02*X147600D01*
X144600Y450750D02*X145350Y451500D01*
X144600Y450750D02*Y449250D01*
X145350Y448500D01*
X147600D01*
X148350Y447750D01*
Y446250D01*
X147600Y445500D02*X148350Y446250D01*
X145350Y445500D02*X147600D01*
X144600Y446250D02*X145350Y445500D01*
X98000Y447750D02*X101000Y451500D01*
X98000Y447750D02*X101750D01*
X101000Y451500D02*Y445500D01*
X45000Y446250D02*X45750Y445500D01*
X45000Y450750D02*Y446250D01*
Y450750D02*X45750Y451500D01*
X47250D01*
X48000Y450750D01*
Y446250D01*
X47250Y445500D02*X48000Y446250D01*
X45750Y445500D02*X47250D01*
X45000Y447000D02*X48000Y450000D01*
X49800Y445500D02*X50550D01*
X52350Y446250D02*X53100Y445500D01*
X52350Y450750D02*Y446250D01*
Y450750D02*X53100Y451500D01*
X54600D01*
X55350Y450750D01*
Y446250D01*
X54600Y445500D02*X55350Y446250D01*
X53100Y445500D02*X54600D01*
X52350Y447000D02*X55350Y450000D01*
X57150Y450750D02*X57900Y451500D01*
X59400D01*
X60150Y450750D01*
X59400Y445500D02*X60150Y446250D01*
X57900Y445500D02*X59400D01*
X57150Y446250D02*X57900Y445500D01*
Y448800D02*X59400D01*
X60150Y450750D02*Y449550D01*
Y448050D02*Y446250D01*
Y448050D02*X59400Y448800D01*
X60150Y449550D02*X59400Y448800D01*
X61950Y450750D02*X62700Y451500D01*
X64950D01*
X65700Y450750D01*
Y449250D01*
X61950Y445500D02*X65700Y449250D01*
X61950Y445500D02*X65700D01*
X102500Y169600D02*Y166400D01*
X100900Y168000D02*X104100D01*
X102500Y179600D02*Y176400D01*
X100900Y178000D02*X104100D01*
X15000Y465850D02*Y462650D01*
X13400Y464250D02*X16600D01*
X135000Y466500D02*X136500Y463500D01*
X138000Y466500D01*
X136500Y463500D02*Y460500D01*
X139800Y463800D02*X142050D01*
X139800Y460500D02*X142800D01*
X139800Y466500D02*Y460500D01*
Y466500D02*X142800D01*
X147600D02*X148350Y465750D01*
X145350Y466500D02*X147600D01*
X144600Y465750D02*X145350Y466500D01*
X144600Y465750D02*Y464250D01*
X145350Y463500D01*
X147600D01*
X148350Y462750D01*
Y461250D01*
X147600Y460500D02*X148350Y461250D01*
X145350Y460500D02*X147600D01*
X144600Y461250D02*X145350Y460500D01*
X98000Y465750D02*X98750Y466500D01*
X101000D01*
X101750Y465750D01*
Y464250D01*
X98000Y460500D02*X101750Y464250D01*
X98000Y460500D02*X101750D01*
X45000Y461250D02*X45750Y460500D01*
X45000Y465750D02*Y461250D01*
Y465750D02*X45750Y466500D01*
X47250D01*
X48000Y465750D01*
Y461250D01*
X47250Y460500D02*X48000Y461250D01*
X45750Y460500D02*X47250D01*
X45000Y462000D02*X48000Y465000D01*
X49800Y460500D02*X50550D01*
X52350Y461250D02*X53100Y460500D01*
X52350Y465750D02*Y461250D01*
Y465750D02*X53100Y466500D01*
X54600D01*
X55350Y465750D01*
Y461250D01*
X54600Y460500D02*X55350Y461250D01*
X53100Y460500D02*X54600D01*
X52350Y462000D02*X55350Y465000D01*
X57150Y465750D02*X57900Y466500D01*
X59400D01*
X60150Y465750D01*
X59400Y460500D02*X60150Y461250D01*
X57900Y460500D02*X59400D01*
X57150Y461250D02*X57900Y460500D01*
Y463800D02*X59400D01*
X60150Y465750D02*Y464550D01*
Y463050D02*Y461250D01*
Y463050D02*X59400Y463800D01*
X60150Y464550D02*X59400Y463800D01*
X61950Y461250D02*X62700Y460500D01*
X61950Y465750D02*Y461250D01*
Y465750D02*X62700Y466500D01*
X64200D01*
X64950Y465750D01*
Y461250D01*
X64200Y460500D02*X64950Y461250D01*
X62700Y460500D02*X64200D01*
X61950Y462000D02*X64950Y465000D01*
X59500Y237000D02*Y235400D01*
Y237000D02*X60887Y237800D01*
X59500Y237000D02*X58113Y237800D01*
X59500Y230500D02*Y228900D01*
Y230500D02*X60887Y231300D01*
X59500Y230500D02*X58113Y231300D01*
X33000Y178500D02*Y176900D01*
Y178500D02*X34387Y179300D01*
X33000Y178500D02*X31613Y179300D01*
X77000Y267000D02*Y265400D01*
Y267000D02*X78387Y267800D01*
X77000Y267000D02*X75613Y267800D01*
X69000Y270000D02*Y268400D01*
Y270000D02*X70387Y270800D01*
X69000Y270000D02*X67613Y270800D01*
X31000Y237000D02*Y235400D01*
Y237000D02*X32387Y237800D01*
X31000Y237000D02*X29613Y237800D01*
X31000Y230000D02*Y228400D01*
Y230000D02*X32387Y230800D01*
X31000Y230000D02*X29613Y230800D01*
X62000Y201000D02*Y199400D01*
Y201000D02*X63387Y201800D01*
X62000Y201000D02*X60613Y201800D01*
X15000Y479250D02*Y477650D01*
Y479250D02*X16387Y480050D01*
X15000Y479250D02*X13613Y480050D01*
X135000Y481500D02*X136500Y478500D01*
X138000Y481500D01*
X136500Y478500D02*Y475500D01*
X139800Y478800D02*X142050D01*
X139800Y475500D02*X142800D01*
X139800Y481500D02*Y475500D01*
Y481500D02*X142800D01*
X147600D02*X148350Y480750D01*
X145350Y481500D02*X147600D01*
X144600Y480750D02*X145350Y481500D01*
X144600Y480750D02*Y479250D01*
X145350Y478500D01*
X147600D01*
X148350Y477750D01*
Y476250D01*
X147600Y475500D02*X148350Y476250D01*
X145350Y475500D02*X147600D01*
X144600Y476250D02*X145350Y475500D01*
X98000Y476250D02*X98750Y475500D01*
X98000Y477450D02*Y476250D01*
Y477450D02*X99050Y478500D01*
X99950D01*
X101000Y477450D01*
Y476250D01*
X100250Y475500D02*X101000Y476250D01*
X98750Y475500D02*X100250D01*
X98000Y479550D02*X99050Y478500D01*
X98000Y480750D02*Y479550D01*
Y480750D02*X98750Y481500D01*
X100250D01*
X101000Y480750D01*
Y479550D01*
X99950Y478500D02*X101000Y479550D01*
X45000Y476250D02*X45750Y475500D01*
X45000Y480750D02*Y476250D01*
Y480750D02*X45750Y481500D01*
X47250D01*
X48000Y480750D01*
Y476250D01*
X47250Y475500D02*X48000Y476250D01*
X45750Y475500D02*X47250D01*
X45000Y477000D02*X48000Y480000D01*
X49800Y475500D02*X50550D01*
X52350Y476250D02*X53100Y475500D01*
X52350Y480750D02*Y476250D01*
Y480750D02*X53100Y481500D01*
X54600D01*
X55350Y480750D01*
Y476250D01*
X54600Y475500D02*X55350Y476250D01*
X53100Y475500D02*X54600D01*
X52350Y477000D02*X55350Y480000D01*
X57150Y480750D02*X57900Y481500D01*
X60150D01*
X60900Y480750D01*
Y479250D01*
X57150Y475500D02*X60900Y479250D01*
X57150Y475500D02*X60900D01*
X62700Y476250D02*X63450Y475500D01*
X62700Y480750D02*Y476250D01*
Y480750D02*X63450Y481500D01*
X64950D01*
X65700Y480750D01*
Y476250D01*
X64950Y475500D02*X65700Y476250D01*
X63450Y475500D02*X64950D01*
X62700Y477000D02*X65700Y480000D01*
X3000Y496500D02*X3750Y495750D01*
X750Y496500D02*X3000D01*
X0Y495750D02*X750Y496500D01*
X0Y495750D02*Y494250D01*
X750Y493500D01*
X3000D01*
X3750Y492750D01*
Y491250D01*
X3000Y490500D02*X3750Y491250D01*
X750Y490500D02*X3000D01*
X0Y491250D02*X750Y490500D01*
X5550Y493500D02*Y491250D01*
X6300Y490500D01*
X8550Y493500D02*Y489000D01*
X7800Y488250D02*X8550Y489000D01*
X6300Y488250D02*X7800D01*
X5550Y489000D02*X6300Y488250D01*
Y490500D02*X7800D01*
X8550Y491250D01*
X11100Y492750D02*Y490500D01*
Y492750D02*X11850Y493500D01*
X12600D01*
X13350Y492750D01*
Y490500D01*
Y492750D02*X14100Y493500D01*
X14850D01*
X15600Y492750D01*
Y490500D01*
X10350Y493500D02*X11100Y492750D01*
X17400Y496500D02*Y490500D01*
Y491250D02*X18150Y490500D01*
X19650D01*
X20400Y491250D01*
Y492750D02*Y491250D01*
X19650Y493500D02*X20400Y492750D01*
X18150Y493500D02*X19650D01*
X17400Y492750D02*X18150Y493500D01*
X22200Y492750D02*Y491250D01*
Y492750D02*X22950Y493500D01*
X24450D01*
X25200Y492750D01*
Y491250D01*
X24450Y490500D02*X25200Y491250D01*
X22950Y490500D02*X24450D01*
X22200Y491250D02*X22950Y490500D01*
X27000Y496500D02*Y491250D01*
X27750Y490500D01*
X0Y487250D02*X29250D01*
X41750Y496500D02*Y490500D01*
X43700Y496500D02*X44750Y495450D01*
Y491550D01*
X43700Y490500D02*X44750Y491550D01*
X41000Y490500D02*X43700D01*
X41000Y496500D02*X43700D01*
G54D103*X46550Y495000D02*Y494850D01*
G54D102*Y492750D02*Y490500D01*
X50300Y493500D02*X51050Y492750D01*
X48800Y493500D02*X50300D01*
X48050Y492750D02*X48800Y493500D01*
X48050Y492750D02*Y491250D01*
X48800Y490500D01*
X51050Y493500D02*Y491250D01*
X51800Y490500D01*
X48800D02*X50300D01*
X51050Y491250D01*
X54350Y492750D02*Y490500D01*
Y492750D02*X55100Y493500D01*
X55850D01*
X56600Y492750D01*
Y490500D01*
Y492750D02*X57350Y493500D01*
X58100D01*
X58850Y492750D01*
Y490500D01*
X53600Y493500D02*X54350Y492750D01*
X60650Y490500D02*X61400D01*
X65900Y491250D02*X66650Y490500D01*
X65900Y495750D02*X66650Y496500D01*
X65900Y495750D02*Y491250D01*
X68450Y496500D02*X69950D01*
X69200D02*Y490500D01*
X68450D02*X69950D01*
X72500Y492750D02*Y490500D01*
Y492750D02*X73250Y493500D01*
X74000D01*
X74750Y492750D01*
Y490500D01*
X71750Y493500D02*X72500Y492750D01*
X77300Y493500D02*X79550D01*
X76550Y492750D02*X77300Y493500D01*
X76550Y492750D02*Y491250D01*
X77300Y490500D01*
X79550D01*
X81350Y496500D02*Y490500D01*
Y492750D02*X82100Y493500D01*
X83600D01*
X84350Y492750D01*
Y490500D01*
X86150Y496500D02*X86900Y495750D01*
Y491250D01*
X86150Y490500D02*X86900Y491250D01*
X41000Y487250D02*X88700D01*
X96050Y490500D02*X98000D01*
X95000Y491550D02*X96050Y490500D01*
X95000Y495450D02*Y491550D01*
Y495450D02*X96050Y496500D01*
X98000D01*
X99800Y492750D02*Y491250D01*
Y492750D02*X100550Y493500D01*
X102050D01*
X102800Y492750D01*
Y491250D01*
X102050Y490500D02*X102800Y491250D01*
X100550Y490500D02*X102050D01*
X99800Y491250D02*X100550Y490500D01*
X104600Y493500D02*Y491250D01*
X105350Y490500D01*
X106850D01*
X107600Y491250D01*
Y493500D02*Y491250D01*
X110150Y492750D02*Y490500D01*
Y492750D02*X110900Y493500D01*
X111650D01*
X112400Y492750D01*
Y490500D01*
X109400Y493500D02*X110150Y492750D01*
X114950Y496500D02*Y491250D01*
X115700Y490500D01*
X114200Y494250D02*X115700D01*
X95000Y487250D02*X117200D01*
X130750Y496500D02*Y490500D01*
X130000Y496500D02*X133000D01*
X133750Y495750D01*
Y494250D01*
X133000Y493500D02*X133750Y494250D01*
X130750Y493500D02*X133000D01*
X135550Y496500D02*Y491250D01*
X136300Y490500D01*
X140050Y493500D02*X140800Y492750D01*
X138550Y493500D02*X140050D01*
X137800Y492750D02*X138550Y493500D01*
X137800Y492750D02*Y491250D01*
X138550Y490500D01*
X140800Y493500D02*Y491250D01*
X141550Y490500D01*
X138550D02*X140050D01*
X140800Y491250D01*
X144100Y496500D02*Y491250D01*
X144850Y490500D01*
X143350Y494250D02*X144850D01*
X147100Y490500D02*X149350D01*
X146350Y491250D02*X147100Y490500D01*
X146350Y492750D02*Y491250D01*
Y492750D02*X147100Y493500D01*
X148600D01*
X149350Y492750D01*
X146350Y492000D02*X149350D01*
Y492750D02*Y492000D01*
X154150Y496500D02*Y490500D01*
X153400D02*X154150Y491250D01*
X151900Y490500D02*X153400D01*
X151150Y491250D02*X151900Y490500D01*
X151150Y492750D02*Y491250D01*
Y492750D02*X151900Y493500D01*
X153400D01*
X154150Y492750D01*
X157450Y493500D02*Y492750D01*
Y491250D02*Y490500D01*
X155950Y495750D02*Y495000D01*
Y495750D02*X156700Y496500D01*
X158200D01*
X158950Y495750D01*
Y495000D01*
X157450Y493500D02*X158950Y495000D01*
X130000Y487250D02*X160750D01*
X0Y511500D02*X3000D01*
X1500D02*Y505500D01*
X4800Y511500D02*Y505500D01*
Y507750D02*X5550Y508500D01*
X7050D01*
X7800Y507750D01*
Y505500D01*
X10350D02*X12600D01*
X9600Y506250D02*X10350Y505500D01*
X9600Y507750D02*Y506250D01*
Y507750D02*X10350Y508500D01*
X11850D01*
X12600Y507750D01*
X9600Y507000D02*X12600D01*
Y507750D02*Y507000D01*
X15150Y507750D02*Y505500D01*
Y507750D02*X15900Y508500D01*
X17400D01*
X14400D02*X15150Y507750D01*
X19950Y505500D02*X22200D01*
X19200Y506250D02*X19950Y505500D01*
X19200Y507750D02*Y506250D01*
Y507750D02*X19950Y508500D01*
X21450D01*
X22200Y507750D01*
X19200Y507000D02*X22200D01*
Y507750D02*Y507000D01*
X28950Y508500D02*X29700Y507750D01*
X27450Y508500D02*X28950D01*
X26700Y507750D02*X27450Y508500D01*
X26700Y507750D02*Y506250D01*
X27450Y505500D01*
X29700Y508500D02*Y506250D01*
X30450Y505500D01*
X27450D02*X28950D01*
X29700Y506250D01*
X33000Y507750D02*Y505500D01*
Y507750D02*X33750Y508500D01*
X35250D01*
X32250D02*X33000Y507750D01*
X37800Y505500D02*X40050D01*
X37050Y506250D02*X37800Y505500D01*
X37050Y507750D02*Y506250D01*
Y507750D02*X37800Y508500D01*
X39300D01*
X40050Y507750D01*
X37050Y507000D02*X40050D01*
Y507750D02*Y507000D01*
X45300Y505500D02*X47550Y508500D01*
Y510750D02*Y508500D01*
X46800Y511500D02*X47550Y510750D01*
X45300Y511500D02*X46800D01*
X44550Y510750D02*X45300Y511500D01*
X44550Y510750D02*Y509250D01*
X45300Y508500D01*
X47550D01*
X55050Y511500D02*Y505500D01*
X54300D02*X55050Y506250D01*
X52800Y505500D02*X54300D01*
X52050Y506250D02*X52800Y505500D01*
X52050Y507750D02*Y506250D01*
Y507750D02*X52800Y508500D01*
X54300D01*
X55050Y507750D01*
G54D103*X56850Y510000D02*Y509850D01*
G54D102*Y507750D02*Y505500D01*
X59100Y510750D02*Y505500D01*
Y510750D02*X59850Y511500D01*
X60600D01*
X58350Y508500D02*X59850D01*
X62850Y510750D02*Y505500D01*
Y510750D02*X63600Y511500D01*
X64350D01*
X62100Y508500D02*X63600D01*
X66600Y505500D02*X68850D01*
X65850Y506250D02*X66600Y505500D01*
X65850Y507750D02*Y506250D01*
Y507750D02*X66600Y508500D01*
X68100D01*
X68850Y507750D01*
X65850Y507000D02*X68850D01*
Y507750D02*Y507000D01*
X71400Y507750D02*Y505500D01*
Y507750D02*X72150Y508500D01*
X73650D01*
X70650D02*X71400Y507750D01*
X76200Y505500D02*X78450D01*
X75450Y506250D02*X76200Y505500D01*
X75450Y507750D02*Y506250D01*
Y507750D02*X76200Y508500D01*
X77700D01*
X78450Y507750D01*
X75450Y507000D02*X78450D01*
Y507750D02*Y507000D01*
X81000Y507750D02*Y505500D01*
Y507750D02*X81750Y508500D01*
X82500D01*
X83250Y507750D01*
Y505500D01*
X80250Y508500D02*X81000Y507750D01*
X85800Y511500D02*Y506250D01*
X86550Y505500D01*
X85050Y509250D02*X86550D01*
X93750Y511500D02*Y505500D01*
X93000D02*X93750Y506250D01*
X91500Y505500D02*X93000D01*
X90750Y506250D02*X91500Y505500D01*
X90750Y507750D02*Y506250D01*
Y507750D02*X91500Y508500D01*
X93000D01*
X93750Y507750D01*
X96300D02*Y505500D01*
Y507750D02*X97050Y508500D01*
X98550D01*
X95550D02*X96300Y507750D01*
G54D103*X100350Y510000D02*Y509850D01*
G54D102*Y507750D02*Y505500D01*
X101850Y511500D02*Y506250D01*
X102600Y505500D01*
X104100Y511500D02*Y506250D01*
X104850Y505500D01*
X109800D02*X112050D01*
X112800Y506250D01*
X112050Y507000D02*X112800Y506250D01*
X109800Y507000D02*X112050D01*
X109050Y507750D02*X109800Y507000D01*
X109050Y507750D02*X109800Y508500D01*
X112050D01*
X112800Y507750D01*
X109050Y506250D02*X109800Y505500D01*
G54D103*X114600Y510000D02*Y509850D01*
G54D102*Y507750D02*Y505500D01*
X116100Y508500D02*X119100D01*
X116100Y505500D02*X119100Y508500D01*
X116100Y505500D02*X119100D01*
X121650D02*X123900D01*
X120900Y506250D02*X121650Y505500D01*
X120900Y507750D02*Y506250D01*
Y507750D02*X121650Y508500D01*
X123150D01*
X123900Y507750D01*
X120900Y507000D02*X123900D01*
Y507750D02*Y507000D01*
X126450Y505500D02*X128700D01*
X129450Y506250D01*
X128700Y507000D02*X129450Y506250D01*
X126450Y507000D02*X128700D01*
X125700Y507750D02*X126450Y507000D01*
X125700Y507750D02*X126450Y508500D01*
X128700D01*
X129450Y507750D01*
X125700Y506250D02*X126450Y505500D01*
X133950Y508500D02*Y506250D01*
X134700Y505500D01*
X136200D01*
X136950Y506250D01*
Y508500D02*Y506250D01*
X139500Y505500D02*X141750D01*
X142500Y506250D01*
X141750Y507000D02*X142500Y506250D01*
X139500Y507000D02*X141750D01*
X138750Y507750D02*X139500Y507000D01*
X138750Y507750D02*X139500Y508500D01*
X141750D01*
X142500Y507750D01*
X138750Y506250D02*X139500Y505500D01*
X145050D02*X147300D01*
X144300Y506250D02*X145050Y505500D01*
X144300Y507750D02*Y506250D01*
Y507750D02*X145050Y508500D01*
X146550D01*
X147300Y507750D01*
X144300Y507000D02*X147300D01*
Y507750D02*Y507000D01*
X152100Y511500D02*Y505500D01*
X151350D02*X152100Y506250D01*
X149850Y505500D02*X151350D01*
X149100Y506250D02*X149850Y505500D01*
X149100Y507750D02*Y506250D01*
Y507750D02*X149850Y508500D01*
X151350D01*
X152100Y507750D01*
G54D103*X156600Y510000D02*Y509850D01*
G54D102*Y507750D02*Y505500D01*
X158850Y507750D02*Y505500D01*
Y507750D02*X159600Y508500D01*
X160350D01*
X161100Y507750D01*
Y505500D01*
X158100Y508500D02*X158850Y507750D01*
X166350Y511500D02*Y506250D01*
X167100Y505500D01*
X165600Y509250D02*X167100D01*
X168600Y511500D02*Y505500D01*
Y507750D02*X169350Y508500D01*
X170850D01*
X171600Y507750D01*
Y505500D01*
G54D103*X173400Y510000D02*Y509850D01*
G54D102*Y507750D02*Y505500D01*
X175650D02*X177900D01*
X178650Y506250D01*
X177900Y507000D02*X178650Y506250D01*
X175650Y507000D02*X177900D01*
X174900Y507750D02*X175650Y507000D01*
X174900Y507750D02*X175650Y508500D01*
X177900D01*
X178650Y507750D01*
X174900Y506250D02*X175650Y505500D01*
X183150Y511500D02*Y506250D01*
X183900Y505500D01*
X187650Y508500D02*X188400Y507750D01*
X186150Y508500D02*X187650D01*
X185400Y507750D02*X186150Y508500D01*
X185400Y507750D02*Y506250D01*
X186150Y505500D01*
X188400Y508500D02*Y506250D01*
X189150Y505500D01*
X186150D02*X187650D01*
X188400Y506250D01*
X190950Y508500D02*Y506250D01*
X191700Y505500D01*
X193950Y508500D02*Y504000D01*
X193200Y503250D02*X193950Y504000D01*
X191700Y503250D02*X193200D01*
X190950Y504000D02*X191700Y503250D01*
Y505500D02*X193200D01*
X193950Y506250D01*
X195750Y507750D02*Y506250D01*
Y507750D02*X196500Y508500D01*
X198000D01*
X198750Y507750D01*
Y506250D01*
X198000Y505500D02*X198750Y506250D01*
X196500Y505500D02*X198000D01*
X195750Y506250D02*X196500Y505500D01*
X200550Y508500D02*Y506250D01*
X201300Y505500D01*
X202800D01*
X203550Y506250D01*
Y508500D02*Y506250D01*
X206100Y511500D02*Y506250D01*
X206850Y505500D01*
X205350Y509250D02*X206850D01*
X208350Y504000D02*X209850Y505500D01*
X214350Y510750D02*X215100Y511500D01*
X216600D01*
X217350Y510750D01*
X216600Y505500D02*X217350Y506250D01*
X215100Y505500D02*X216600D01*
X214350Y506250D02*X215100Y505500D01*
Y508800D02*X216600D01*
X217350Y510750D02*Y509550D01*
Y508050D02*Y506250D01*
Y508050D02*X216600Y508800D01*
X217350Y509550D02*X216600Y508800D01*
X219150Y510750D02*X219900Y511500D01*
X222150D01*
X222900Y510750D01*
Y509250D01*
X219150Y505500D02*X222900Y509250D01*
X219150Y505500D02*X222900D01*
X227400Y511500D02*Y505500D01*
Y507750D02*X228150Y508500D01*
X229650D01*
X230400Y507750D01*
Y505500D01*
X232200Y507750D02*Y506250D01*
Y507750D02*X232950Y508500D01*
X234450D01*
X235200Y507750D01*
Y506250D01*
X234450Y505500D02*X235200Y506250D01*
X232950Y505500D02*X234450D01*
X232200Y506250D02*X232950Y505500D01*
X237000Y511500D02*Y506250D01*
X237750Y505500D01*
X240000D02*X242250D01*
X239250Y506250D02*X240000Y505500D01*
X239250Y507750D02*Y506250D01*
Y507750D02*X240000Y508500D01*
X241500D01*
X242250Y507750D01*
X239250Y507000D02*X242250D01*
Y507750D02*Y507000D01*
X244800Y505500D02*X247050D01*
X247800Y506250D01*
X247050Y507000D02*X247800Y506250D01*
X244800Y507000D02*X247050D01*
X244050Y507750D02*X244800Y507000D01*
X244050Y507750D02*X244800Y508500D01*
X247050D01*
X247800Y507750D01*
X244050Y506250D02*X244800Y505500D01*
X253050Y511500D02*Y506250D01*
X253800Y505500D01*
X252300Y509250D02*X253800D01*
X255300Y507750D02*Y506250D01*
Y507750D02*X256050Y508500D01*
X257550D01*
X258300Y507750D01*
Y506250D01*
X257550Y505500D02*X258300Y506250D01*
X256050Y505500D02*X257550D01*
X255300Y506250D02*X256050Y505500D01*
X260850Y511500D02*Y506250D01*
X261600Y505500D01*
X260100Y509250D02*X261600D01*
X265350Y508500D02*X266100Y507750D01*
X263850Y508500D02*X265350D01*
X263100Y507750D02*X263850Y508500D01*
X263100Y507750D02*Y506250D01*
X263850Y505500D01*
X266100Y508500D02*Y506250D01*
X266850Y505500D01*
X263850D02*X265350D01*
X266100Y506250D01*
X268650Y511500D02*Y506250D01*
X269400Y505500D01*
G54D104*X23990Y147490D02*X213010D01*
X11850Y159580D02*Y298520D01*
X225150Y159630D02*Y298470D01*
X213040Y310500D02*X23910D01*
X11850Y159640D02*G75*G03X24000Y147490I12150J0D01*G01*
X225150Y298350D02*G75*G03X213000Y310500I-12150J0D01*G01*
X24000D02*G75*G03X11850Y298350I0J-12150D01*G01*
X213000Y147490D02*G75*G03X225150Y159640I0J12150D01*G01*
G54D102*X176175Y-9500D02*X179175D01*
X179925Y-8750D01*
Y-6950D02*Y-8750D01*
X179175Y-6200D02*X179925Y-6950D01*
X176925Y-6200D02*X179175D01*
X176925Y-3500D02*Y-9500D01*
X176175Y-3500D02*X179175D01*
X179925Y-4250D01*
Y-5450D01*
X179175Y-6200D02*X179925Y-5450D01*
X181725Y-7250D02*Y-8750D01*
Y-7250D02*X182475Y-6500D01*
X183975D01*
X184725Y-7250D01*
Y-8750D01*
X183975Y-9500D02*X184725Y-8750D01*
X182475Y-9500D02*X183975D01*
X181725Y-8750D02*X182475Y-9500D01*
X188775Y-6500D02*X189525Y-7250D01*
X187275Y-6500D02*X188775D01*
X186525Y-7250D02*X187275Y-6500D01*
X186525Y-7250D02*Y-8750D01*
X187275Y-9500D01*
X189525Y-6500D02*Y-8750D01*
X190275Y-9500D01*
X187275D02*X188775D01*
X189525Y-8750D01*
X192825Y-7250D02*Y-9500D01*
Y-7250D02*X193575Y-6500D01*
X195075D01*
X192075D02*X192825Y-7250D01*
X199875Y-3500D02*Y-9500D01*
X199125D02*X199875Y-8750D01*
X197625Y-9500D02*X199125D01*
X196875Y-8750D02*X197625Y-9500D01*
X196875Y-7250D02*Y-8750D01*
Y-7250D02*X197625Y-6500D01*
X199125D01*
X199875Y-7250D01*
X204375D02*Y-8750D01*
Y-7250D02*X205125Y-6500D01*
X206625D01*
X207375Y-7250D01*
Y-8750D01*
X206625Y-9500D02*X207375Y-8750D01*
X205125Y-9500D02*X206625D01*
X204375Y-8750D02*X205125Y-9500D01*
X209175Y-6500D02*Y-8750D01*
X209925Y-9500D01*
X211425D01*
X212175Y-8750D01*
Y-6500D02*Y-8750D01*
X214725Y-3500D02*Y-8750D01*
X215475Y-9500D01*
X213975Y-5750D02*X215475D01*
X216975Y-3500D02*Y-8750D01*
X217725Y-9500D01*
G54D103*X219225Y-5000D02*Y-5150D01*
G54D102*Y-7250D02*Y-9500D01*
X221475Y-7250D02*Y-9500D01*
Y-7250D02*X222225Y-6500D01*
X222975D01*
X223725Y-7250D01*
Y-9500D01*
X220725Y-6500D02*X221475Y-7250D01*
X226275Y-9500D02*X228525D01*
X225525Y-8750D02*X226275Y-9500D01*
X225525Y-7250D02*Y-8750D01*
Y-7250D02*X226275Y-6500D01*
X227775D01*
X228525Y-7250D01*
X225525Y-8000D02*X228525D01*
Y-7250D02*Y-8000D01*
G54D103*X233025Y-5000D02*Y-5150D01*
G54D102*Y-7250D02*Y-9500D01*
X235275D02*X237525D01*
X238275Y-8750D01*
X237525Y-8000D02*X238275Y-8750D01*
X235275Y-8000D02*X237525D01*
X234525Y-7250D02*X235275Y-8000D01*
X234525Y-7250D02*X235275Y-6500D01*
X237525D01*
X238275Y-7250D01*
X234525Y-8750D02*X235275Y-9500D01*
X243525Y-3500D02*Y-8750D01*
X244275Y-9500D01*
X242775Y-5750D02*X244275D01*
X245775Y-3500D02*Y-9500D01*
Y-7250D02*X246525Y-6500D01*
X248025D01*
X248775Y-7250D01*
Y-9500D01*
X251325D02*X253575D01*
X250575Y-8750D02*X251325Y-9500D01*
X250575Y-7250D02*Y-8750D01*
Y-7250D02*X251325Y-6500D01*
X252825D01*
X253575Y-7250D01*
X250575Y-8000D02*X253575D01*
Y-7250D02*Y-8000D01*
X258825Y-6500D02*X261075D01*
X258075Y-7250D02*X258825Y-6500D01*
X258075Y-7250D02*Y-8750D01*
X258825Y-9500D01*
X261075D01*
X263625D02*X265875D01*
X262875Y-8750D02*X263625Y-9500D01*
X262875Y-7250D02*Y-8750D01*
Y-7250D02*X263625Y-6500D01*
X265125D01*
X265875Y-7250D01*
X262875Y-8000D02*X265875D01*
Y-7250D02*Y-8000D01*
X268425Y-7250D02*Y-9500D01*
Y-7250D02*X269175Y-6500D01*
X269925D01*
X270675Y-7250D01*
Y-9500D01*
X267675Y-6500D02*X268425Y-7250D01*
X273225Y-3500D02*Y-8750D01*
X273975Y-9500D01*
X272475Y-5750D02*X273975D01*
X276225Y-9500D02*X278475D01*
X275475Y-8750D02*X276225Y-9500D01*
X275475Y-7250D02*Y-8750D01*
Y-7250D02*X276225Y-6500D01*
X277725D01*
X278475Y-7250D01*
X275475Y-8000D02*X278475D01*
Y-7250D02*Y-8000D01*
X281025Y-7250D02*Y-9500D01*
Y-7250D02*X281775Y-6500D01*
X283275D01*
X280275D02*X281025Y-7250D01*
X285075Y-3500D02*Y-8750D01*
X285825Y-9500D01*
G54D103*X287325Y-5000D02*Y-5150D01*
G54D102*Y-7250D02*Y-9500D01*
X289575Y-7250D02*Y-9500D01*
Y-7250D02*X290325Y-6500D01*
X291075D01*
X291825Y-7250D01*
Y-9500D01*
X288825Y-6500D02*X289575Y-7250D01*
X294375Y-9500D02*X296625D01*
X293625Y-8750D02*X294375Y-9500D01*
X293625Y-7250D02*Y-8750D01*
Y-7250D02*X294375Y-6500D01*
X295875D01*
X296625Y-7250D01*
X293625Y-8000D02*X296625D01*
Y-7250D02*Y-8000D01*
X301125Y-7250D02*Y-8750D01*
Y-7250D02*X301875Y-6500D01*
X303375D01*
X304125Y-7250D01*
Y-8750D01*
X303375Y-9500D02*X304125Y-8750D01*
X301875Y-9500D02*X303375D01*
X301125Y-8750D02*X301875Y-9500D01*
X306675Y-4250D02*Y-9500D01*
Y-4250D02*X307425Y-3500D01*
X308175D01*
X305925Y-6500D02*X307425D01*
X313125Y-3500D02*Y-8750D01*
X313875Y-9500D01*
X312375Y-5750D02*X313875D01*
X315375Y-3500D02*Y-9500D01*
Y-7250D02*X316125Y-6500D01*
X317625D01*
X318375Y-7250D01*
Y-9500D01*
G54D103*X320175Y-5000D02*Y-5150D01*
G54D102*Y-7250D02*Y-9500D01*
X322425D02*X324675D01*
X325425Y-8750D01*
X324675Y-8000D02*X325425Y-8750D01*
X322425Y-8000D02*X324675D01*
X321675Y-7250D02*X322425Y-8000D01*
X321675Y-7250D02*X322425Y-6500D01*
X324675D01*
X325425Y-7250D01*
X321675Y-8750D02*X322425Y-9500D01*
X330675Y-7250D02*Y-11750D01*
X329925Y-6500D02*X330675Y-7250D01*
X331425Y-6500D01*
X332925D01*
X333675Y-7250D01*
Y-8750D01*
X332925Y-9500D02*X333675Y-8750D01*
X331425Y-9500D02*X332925D01*
X330675Y-8750D02*X331425Y-9500D01*
X337725Y-6500D02*X338475Y-7250D01*
X336225Y-6500D02*X337725D01*
X335475Y-7250D02*X336225Y-6500D01*
X335475Y-7250D02*Y-8750D01*
X336225Y-9500D01*
X338475Y-6500D02*Y-8750D01*
X339225Y-9500D01*
X336225D02*X337725D01*
X338475Y-8750D01*
X341775Y-3500D02*Y-8750D01*
X342525Y-9500D01*
X341025Y-5750D02*X342525D01*
X344025Y-3500D02*Y-9500D01*
Y-7250D02*X344775Y-6500D01*
X346275D01*
X347025Y-7250D01*
Y-9500D01*
X200750Y376500D02*Y370500D01*
X202700Y376500D02*X203750Y375450D01*
Y371550D01*
X202700Y370500D02*X203750Y371550D01*
X200000Y370500D02*X202700D01*
X200000Y376500D02*X202700D01*
X207800Y373500D02*X208550Y372750D01*
X206300Y373500D02*X207800D01*
X205550Y372750D02*X206300Y373500D01*
X205550Y372750D02*Y371250D01*
X206300Y370500D01*
X208550Y373500D02*Y371250D01*
X209300Y370500D01*
X206300D02*X207800D01*
X208550Y371250D01*
X211850Y376500D02*Y371250D01*
X212600Y370500D01*
X211100Y374250D02*X212600D01*
X214850Y370500D02*X217100D01*
X214100Y371250D02*X214850Y370500D01*
X214100Y372750D02*Y371250D01*
Y372750D02*X214850Y373500D01*
X216350D01*
X217100Y372750D01*
X214100Y372000D02*X217100D01*
Y372750D02*Y372000D01*
X218900Y374250D02*X219650D01*
X218900Y372750D02*X219650D01*
X224150Y376500D02*Y370500D01*
Y376500D02*X226400Y373500D01*
X228650Y376500D01*
Y370500D01*
X230450Y372750D02*Y371250D01*
Y372750D02*X231200Y373500D01*
X232700D01*
X233450Y372750D01*
Y371250D01*
X232700Y370500D02*X233450Y371250D01*
X231200Y370500D02*X232700D01*
X230450Y371250D02*X231200Y370500D01*
X236000Y372750D02*Y370500D01*
Y372750D02*X236750Y373500D01*
X237500D01*
X238250Y372750D01*
Y370500D01*
X235250Y373500D02*X236000Y372750D01*
X242750Y371250D02*X243500Y370500D01*
X242750Y375750D02*Y371250D01*
Y375750D02*X243500Y376500D01*
X245000D01*
X245750Y375750D01*
Y371250D01*
X245000Y370500D02*X245750Y371250D01*
X243500Y370500D02*X245000D01*
X242750Y372000D02*X245750Y375000D01*
X249800Y376500D02*X250550Y375750D01*
X248300Y376500D02*X249800D01*
X247550Y375750D02*X248300Y376500D01*
X247550Y375750D02*Y371250D01*
X248300Y370500D01*
X249800Y373800D02*X250550Y373050D01*
X247550Y373800D02*X249800D01*
X248300Y370500D02*X249800D01*
X250550Y371250D01*
Y373050D02*Y371250D01*
X255050Y375000D02*Y370500D01*
Y375000D02*X256100Y376500D01*
X257750D01*
X258800Y375000D01*
Y370500D01*
X255050Y373500D02*X258800D01*
X261350Y372750D02*Y368250D01*
X260600Y373500D02*X261350Y372750D01*
X262100Y373500D01*
X263600D01*
X264350Y372750D01*
Y371250D01*
X263600Y370500D02*X264350Y371250D01*
X262100Y370500D02*X263600D01*
X261350Y371250D02*X262100Y370500D01*
X266900Y372750D02*Y370500D01*
Y372750D02*X267650Y373500D01*
X269150D01*
X266150D02*X266900Y372750D01*
X273650Y375750D02*X274400Y376500D01*
X276650D01*
X277400Y375750D01*
Y374250D01*
X273650Y370500D02*X277400Y374250D01*
X273650Y370500D02*X277400D01*
X279200Y371250D02*X279950Y370500D01*
X279200Y375750D02*Y371250D01*
Y375750D02*X279950Y376500D01*
X281450D01*
X282200Y375750D01*
Y371250D01*
X281450Y370500D02*X282200Y371250D01*
X279950Y370500D02*X281450D01*
X279200Y372000D02*X282200Y375000D01*
X284000Y375300D02*X285200Y376500D01*
Y370500D01*
X284000D02*X286250D01*
X288050Y376500D02*X291050D01*
X288050D02*Y373500D01*
X288800Y374250D01*
X290300D01*
X291050Y373500D01*
Y371250D01*
X290300Y370500D02*X291050Y371250D01*
X288800Y370500D02*X290300D01*
X288050Y371250D02*X288800Y370500D01*
X295550Y371250D02*X296300Y370500D01*
X295550Y375750D02*Y371250D01*
Y375750D02*X296300Y376500D01*
X297800D01*
X298550Y375750D01*
Y371250D01*
X297800Y370500D02*X298550Y371250D01*
X296300Y370500D02*X297800D01*
X295550Y372000D02*X298550Y375000D01*
X300350Y372750D02*X303350Y376500D01*
X300350Y372750D02*X304100D01*
X303350Y376500D02*Y370500D01*
X305900Y374250D02*X306650D01*
X305900Y372750D02*X306650D01*
X308450Y375750D02*X309200Y376500D01*
X310700D01*
X311450Y375750D01*
X310700Y370500D02*X311450Y371250D01*
X309200Y370500D02*X310700D01*
X308450Y371250D02*X309200Y370500D01*
Y373800D02*X310700D01*
X311450Y375750D02*Y374550D01*
Y373050D02*Y371250D01*
Y373050D02*X310700Y373800D01*
X311450Y374550D02*X310700Y373800D01*
X313250Y375300D02*X314450Y376500D01*
Y370500D01*
X313250D02*X315500D01*
X317300Y374250D02*X318050D01*
X317300Y372750D02*X318050D01*
X319850Y375750D02*X320600Y376500D01*
X322100D01*
X322850Y375750D01*
X322100Y370500D02*X322850Y371250D01*
X320600Y370500D02*X322100D01*
X319850Y371250D02*X320600Y370500D01*
Y373800D02*X322100D01*
X322850Y375750D02*Y374550D01*
Y373050D02*Y371250D01*
Y373050D02*X322100Y373800D01*
X322850Y374550D02*X322100Y373800D01*
X324650Y375750D02*X325400Y376500D01*
X327650D01*
X328400Y375750D01*
Y374250D01*
X324650Y370500D02*X328400Y374250D01*
X324650Y370500D02*X328400D01*
X333650Y376500D02*Y370500D01*
X332900Y376500D02*X335900D01*
X336650Y375750D01*
Y374250D01*
X335900Y373500D02*X336650Y374250D01*
X333650Y373500D02*X335900D01*
X338450Y376500D02*Y370500D01*
Y376500D02*X340700Y373500D01*
X342950Y376500D01*
Y370500D01*
X350450Y376500D02*X351200Y375750D01*
X348200Y376500D02*X350450D01*
X347450Y375750D02*X348200Y376500D01*
X347450Y375750D02*Y371250D01*
X348200Y370500D01*
X350450D01*
X351200Y371250D01*
Y372750D02*Y371250D01*
X350450Y373500D02*X351200Y372750D01*
X348950Y373500D02*X350450D01*
X353000Y376500D02*Y370500D01*
Y376500D02*X355250Y373500D01*
X357500Y376500D01*
Y370500D01*
X359300Y376500D02*X362300D01*
X360800D02*Y370500D01*
X366800Y376500D02*Y371250D01*
X367550Y370500D01*
X369050D01*
X369800Y371250D01*
Y376500D02*Y371250D01*
X371600Y376500D02*X374600D01*
X373100D02*Y370500D01*
X377450D02*X379400D01*
X376400Y371550D02*X377450Y370500D01*
X376400Y375450D02*Y371550D01*
Y375450D02*X377450Y376500D01*
X379400D01*
X200000Y390000D02*Y385500D01*
Y390000D02*X201050Y391500D01*
X202700D01*
X203750Y390000D01*
Y385500D01*
X200000Y388500D02*X203750D01*
X205550D02*Y386250D01*
X206300Y385500D01*
X207800D01*
X208550Y386250D01*
Y388500D02*Y386250D01*
X211100Y391500D02*Y386250D01*
X211850Y385500D01*
X210350Y389250D02*X211850D01*
X213350Y391500D02*Y385500D01*
Y387750D02*X214100Y388500D01*
X215600D01*
X216350Y387750D01*
Y385500D01*
X218150Y387750D02*Y386250D01*
Y387750D02*X218900Y388500D01*
X220400D01*
X221150Y387750D01*
Y386250D01*
X220400Y385500D02*X221150Y386250D01*
X218900Y385500D02*X220400D01*
X218150Y386250D02*X218900Y385500D01*
X223700Y387750D02*Y385500D01*
Y387750D02*X224450Y388500D01*
X225950D01*
X222950D02*X223700Y387750D01*
X227750Y389250D02*X228500D01*
X227750Y387750D02*X228500D01*
X200000Y406500D02*X203000D01*
X201500D02*Y400500D01*
G54D103*X204800Y405000D02*Y404850D01*
G54D102*Y402750D02*Y400500D01*
X207050Y406500D02*Y401250D01*
X207800Y400500D01*
X206300Y404250D02*X207800D01*
X209300Y406500D02*Y401250D01*
X210050Y400500D01*
X212300D02*X214550D01*
X211550Y401250D02*X212300Y400500D01*
X211550Y402750D02*Y401250D01*
Y402750D02*X212300Y403500D01*
X213800D01*
X214550Y402750D01*
X211550Y402000D02*X214550D01*
Y402750D02*Y402000D01*
X216350Y404250D02*X217100D01*
X216350Y402750D02*X217100D01*
X221600Y401250D02*X222350Y400500D01*
X221600Y405750D02*X222350Y406500D01*
X221600Y405750D02*Y401250D01*
X224150Y403500D02*Y401250D01*
X224900Y400500D01*
X226400D01*
X227150Y401250D01*
Y403500D02*Y401250D01*
X229700Y402750D02*Y400500D01*
Y402750D02*X230450Y403500D01*
X231200D01*
X231950Y402750D01*
Y400500D01*
X228950Y403500D02*X229700Y402750D01*
X233750Y406500D02*Y400500D01*
Y402750D02*X236000Y400500D01*
X233750Y402750D02*X235250Y404250D01*
X238550Y402750D02*Y400500D01*
Y402750D02*X239300Y403500D01*
X240050D01*
X240800Y402750D01*
Y400500D01*
X237800Y403500D02*X238550Y402750D01*
X242600D02*Y401250D01*
Y402750D02*X243350Y403500D01*
X244850D01*
X245600Y402750D01*
Y401250D01*
X244850Y400500D02*X245600Y401250D01*
X243350Y400500D02*X244850D01*
X242600Y401250D02*X243350Y400500D01*
X247400Y403500D02*Y401250D01*
X248150Y400500D01*
X248900D01*
X249650Y401250D01*
Y403500D02*Y401250D01*
X250400Y400500D01*
X251150D01*
X251900Y401250D01*
Y403500D02*Y401250D01*
X254450Y402750D02*Y400500D01*
Y402750D02*X255200Y403500D01*
X255950D01*
X256700Y402750D01*
Y400500D01*
X253700Y403500D02*X254450Y402750D01*
X258500Y406500D02*X259250Y405750D01*
Y401250D01*
X258500Y400500D02*X259250Y401250D01*
X263750Y403500D02*X266750D01*
X271250Y406500D02*Y400500D01*
Y406500D02*X274250D01*
X271250Y403800D02*X273500D01*
X278300Y403500D02*X279050Y402750D01*
X276800Y403500D02*X278300D01*
X276050Y402750D02*X276800Y403500D01*
X276050Y402750D02*Y401250D01*
X276800Y400500D01*
X279050Y403500D02*Y401250D01*
X279800Y400500D01*
X276800D02*X278300D01*
X279050Y401250D01*
X281600Y406500D02*Y400500D01*
Y401250D02*X282350Y400500D01*
X283850D01*
X284600Y401250D01*
Y402750D02*Y401250D01*
X283850Y403500D02*X284600Y402750D01*
X282350Y403500D02*X283850D01*
X281600Y402750D02*X282350Y403500D01*
X287150Y402750D02*Y400500D01*
Y402750D02*X287900Y403500D01*
X289400D01*
X286400D02*X287150Y402750D01*
G54D103*X291200Y405000D02*Y404850D01*
G54D102*Y402750D02*Y400500D01*
X293450Y403500D02*X295700D01*
X292700Y402750D02*X293450Y403500D01*
X292700Y402750D02*Y401250D01*
X293450Y400500D01*
X295700D01*
X299750Y403500D02*X300500Y402750D01*
X298250Y403500D02*X299750D01*
X297500Y402750D02*X298250Y403500D01*
X297500Y402750D02*Y401250D01*
X298250Y400500D01*
X300500Y403500D02*Y401250D01*
X301250Y400500D01*
X298250D02*X299750D01*
X300500Y401250D01*
X303800Y406500D02*Y401250D01*
X304550Y400500D01*
X303050Y404250D02*X304550D01*
G54D103*X306050Y405000D02*Y404850D01*
G54D102*Y402750D02*Y400500D01*
X307550Y402750D02*Y401250D01*
Y402750D02*X308300Y403500D01*
X309800D01*
X310550Y402750D01*
Y401250D01*
X309800Y400500D02*X310550Y401250D01*
X308300Y400500D02*X309800D01*
X307550Y401250D02*X308300Y400500D01*
X313100Y402750D02*Y400500D01*
Y402750D02*X313850Y403500D01*
X314600D01*
X315350Y402750D01*
Y400500D01*
X312350Y403500D02*X313100Y402750D01*
X320600Y406500D02*Y400500D01*
X322550Y406500D02*X323600Y405450D01*
Y401550D01*
X322550Y400500D02*X323600Y401550D01*
X319850Y400500D02*X322550D01*
X319850Y406500D02*X322550D01*
X326150Y402750D02*Y400500D01*
Y402750D02*X326900Y403500D01*
X328400D01*
X325400D02*X326150Y402750D01*
X332450Y403500D02*X333200Y402750D01*
X330950Y403500D02*X332450D01*
X330200Y402750D02*X330950Y403500D01*
X330200Y402750D02*Y401250D01*
X330950Y400500D01*
X333200Y403500D02*Y401250D01*
X333950Y400500D01*
X330950D02*X332450D01*
X333200Y401250D01*
X335750Y403500D02*Y401250D01*
X336500Y400500D01*
X337250D01*
X338000Y401250D01*
Y403500D02*Y401250D01*
X338750Y400500D01*
X339500D01*
X340250Y401250D01*
Y403500D02*Y401250D01*
G54D103*X342050Y405000D02*Y404850D01*
G54D102*Y402750D02*Y400500D01*
X344300Y402750D02*Y400500D01*
Y402750D02*X345050Y403500D01*
X345800D01*
X346550Y402750D01*
Y400500D01*
X343550Y403500D02*X344300Y402750D01*
X350600Y403500D02*X351350Y402750D01*
X349100Y403500D02*X350600D01*
X348350Y402750D02*X349100Y403500D01*
X348350Y402750D02*Y401250D01*
X349100Y400500D01*
X350600D01*
X351350Y401250D01*
X348350Y399000D02*X349100Y398250D01*
X350600D01*
X351350Y399000D01*
Y403500D02*Y399000D01*
M02*
