M48
INCH
T53C0.020
T52C0.035
T51C0.034
T50C0.030
T49C0.032
T48C0.028
%
T53
X005900Y014100
X007700Y013850
X010800Y010900
X014050Y009800
X017250Y010850
X015550Y011850
X015600Y012950
X016750Y011050
T48
X003700Y012650
X003700Y011650
X003700Y010650
X003700Y009650
X003700Y008650
X003700Y007650
X003700Y006650
X006700Y006650
X006700Y007650
X006700Y008650
X006700Y009650
X006700Y010650
X006700Y011650
X006700Y012650
X015850Y008350
X015850Y007350
X015850Y006350
X015850Y005350
X018850Y005350
X018850Y006350
X018850Y007350
X018850Y008350
T50
X014600Y002809
X009600Y002809
T49
X004416Y003800
X004908Y003013
X005400Y003800
X005892Y003013
T51
X012034Y010178
X013214Y010178
T52
X001250Y010650
X010000Y007800
X010650Y009650
X012600Y008050
X018850Y010100
X015250Y010700
M30
