G04 start of page 9 for group -4078 idx -4078 *
G04 Title: (unknown), bottomsilk *
G04 Creator: pcb 20110918 *
G04 CreationDate: Tue 03 Feb 2015 07:51:17 PM GMT UTC *
G04 For: fosse *
G04 Format: Gerber/RS-274X *
G04 PCB-Dimensions: 200000 148000 *
G04 PCB-Coordinate-Origin: lower left *
%MOIN*%
%FSLAX25Y25*%
%LNBOTTOMSILK*%
%ADD87C,0.0080*%
%ADD86C,0.0100*%
G54D86*X30000Y12300D02*X31500D01*
X30000Y14500D02*X32000D01*
X30000Y10500D02*Y14500D01*
Y10500D02*X32000D01*
X34700Y12500D02*X35200Y13000D01*
X33700Y12500D02*X34700D01*
X33200Y13000D02*X33700Y12500D01*
X33200Y13000D02*Y14000D01*
X33700Y14500D01*
X35200Y12500D02*Y14000D01*
X35700Y14500D01*
X33700D02*X34700D01*
X35200Y14000D01*
X37400Y10500D02*Y14000D01*
X37900Y14500D01*
X36900Y12000D02*X37900D01*
X38900Y13000D02*Y14000D01*
Y13000D02*X39400Y12500D01*
X40400D01*
X40900Y13000D01*
Y14000D01*
X40400Y14500D02*X40900Y14000D01*
X39400Y14500D02*X40400D01*
X38900Y14000D02*X39400Y14500D01*
X42600Y13000D02*Y14500D01*
Y13000D02*X43100Y12500D01*
X43600D01*
X44100Y13000D01*
Y14500D01*
X42100Y12500D02*X42600Y13000D01*
X47600Y10500D02*Y14500D01*
X47100Y10500D02*X49100D01*
X49600Y11000D01*
Y12000D01*
X49100Y12500D02*X49600Y12000D01*
X47600Y12500D02*X49100D01*
X51300Y14500D02*X52800D01*
X50800Y14000D02*X51300Y14500D01*
X50800Y13000D02*Y14000D01*
Y13000D02*X51300Y12500D01*
X52300D01*
X52800Y13000D01*
X50800Y13500D02*X52800D01*
Y13000D02*Y13500D01*
X55500Y12500D02*X56000Y13000D01*
X54500Y12500D02*X55500D01*
X54000Y13000D02*X54500Y12500D01*
X54000Y13000D02*Y14000D01*
X54500Y14500D01*
X56000Y12500D02*Y14000D01*
X56500Y14500D01*
X54500D02*X55500D01*
X56000Y14000D01*
X57700Y10500D02*Y14500D01*
Y14000D02*X58200Y14500D01*
X59200D01*
X59700Y14000D01*
Y13000D02*Y14000D01*
X59200Y12500D02*X59700Y13000D01*
X58200Y12500D02*X59200D01*
X57700Y13000D02*X58200Y12500D01*
X60900Y13000D02*Y14000D01*
Y13000D02*X61400Y12500D01*
X62400D01*
X62900Y13000D01*
Y14000D01*
X62400Y14500D02*X62900Y14000D01*
X61400Y14500D02*X62400D01*
X60900Y14000D02*X61400Y14500D01*
X66100Y10500D02*Y14500D01*
X65600D02*X66100Y14000D01*
X64600Y14500D02*X65600D01*
X64100Y14000D02*X64600Y14500D01*
X64100Y13000D02*Y14000D01*
Y13000D02*X64600Y12500D01*
X65600D01*
X66100Y13000D01*
X67300Y12500D02*Y14000D01*
X67800Y14500D01*
X69300Y12500D02*Y15500D01*
X68800Y16000D02*X69300Y15500D01*
X67800Y16000D02*X68800D01*
X67300Y15500D02*X67800Y16000D01*
Y14500D02*X68800D01*
X69300Y14000D01*
X72300Y10500D02*Y14500D01*
X74300D01*
X77000Y12500D02*X77500Y13000D01*
X76000Y12500D02*X77000D01*
X75500Y13000D02*X76000Y12500D01*
X75500Y13000D02*Y14000D01*
X76000Y14500D01*
X77500Y12500D02*Y14000D01*
X78000Y14500D01*
X76000D02*X77000D01*
X77500Y14000D01*
X79200Y10500D02*Y14500D01*
Y14000D02*X79700Y14500D01*
X80700D01*
X81200Y14000D01*
Y13000D02*Y14000D01*
X80700Y12500D02*X81200Y13000D01*
X79700Y12500D02*X80700D01*
X79200Y13000D02*X79700Y12500D01*
X30000Y31500D02*X30500Y31000D01*
X32000D01*
X32500Y31500D01*
Y32500D01*
X30000Y35000D02*X32500Y32500D01*
X30000Y35000D02*X32500D01*
X33700Y34500D02*X34200Y35000D01*
X33700Y31500D02*Y34500D01*
Y31500D02*X34200Y31000D01*
X35200D01*
X35700Y31500D01*
Y34500D01*
X35200Y35000D02*X35700Y34500D01*
X34200Y35000D02*X35200D01*
X33700Y34000D02*X35700Y32000D01*
X36900Y31800D02*X37700Y31000D01*
Y35000D01*
X36900D02*X38400D01*
X39600Y31500D02*X40100Y31000D01*
X41100D01*
X41600Y31500D01*
X41100Y35000D02*X41600Y34500D01*
X40100Y35000D02*X41100D01*
X39600Y34500D02*X40100Y35000D01*
Y32800D02*X41100D01*
X41600Y31500D02*Y32300D01*
Y33300D02*Y34500D01*
Y33300D02*X41100Y32800D01*
X41600Y32300D02*X41100Y32800D01*
X42800Y35000D02*X43300D01*
X44500Y34500D02*X45000Y35000D01*
X44500Y31500D02*Y34500D01*
Y31500D02*X45000Y31000D01*
X46000D01*
X46500Y31500D01*
Y34500D01*
X46000Y35000D02*X46500Y34500D01*
X45000Y35000D02*X46000D01*
X44500Y34000D02*X46500Y32000D01*
X49200Y31000D02*X49700Y31500D01*
X48200Y31000D02*X49200D01*
X47700Y31500D02*X48200Y31000D01*
X47700Y31500D02*Y34500D01*
X48200Y35000D01*
X49200Y32800D02*X49700Y33300D01*
X47700Y32800D02*X49200D01*
X48200Y35000D02*X49200D01*
X49700Y34500D01*
Y33300D02*Y34500D01*
X50900Y35000D02*X51400D01*
X52600Y34500D02*X53100Y35000D01*
X52600Y31500D02*Y34500D01*
Y31500D02*X53100Y31000D01*
X54100D01*
X54600Y31500D01*
Y34500D01*
X54100Y35000D02*X54600Y34500D01*
X53100Y35000D02*X54100D01*
X52600Y34000D02*X54600Y32000D01*
X57300Y31000D02*X57800Y31500D01*
X56300Y31000D02*X57300D01*
X55800Y31500D02*X56300Y31000D01*
X55800Y31500D02*Y34500D01*
X56300Y35000D01*
X57300Y32800D02*X57800Y33300D01*
X55800Y32800D02*X57300D01*
X56300Y35000D02*X57300D01*
X57800Y34500D01*
Y33300D02*Y34500D01*
X30112Y26209D02*X31612D01*
X30112Y28409D02*X32112D01*
X30112Y24409D02*Y28409D01*
Y24409D02*X32112D01*
X33312Y26409D02*X34312Y28409D01*
X35312Y26409D02*X34312Y28409D01*
X38012Y26409D02*X38512Y26909D01*
X37012Y26409D02*X38012D01*
X36512Y26909D02*X37012Y26409D01*
X36512Y26909D02*Y27909D01*
X37012Y28409D01*
X38512Y26409D02*Y27909D01*
X39012Y28409D01*
X37012D02*X38012D01*
X38512Y27909D01*
X40712Y26909D02*Y28409D01*
Y26909D02*X41212Y26409D01*
X41712D01*
X42212Y26909D01*
Y28409D01*
X40212Y26409D02*X40712Y26909D01*
X45212Y26209D02*X46712D01*
X45212Y28409D02*X47212D01*
X45212Y24409D02*Y28409D01*
Y24409D02*X47212D01*
X48412Y28409D02*X48912D01*
X50112Y24409D02*Y28409D01*
Y24409D02*X52112D01*
X50112Y26209D02*X51612D01*
X53312Y28409D02*X53812D01*
X56812Y27909D02*X57312Y28409D01*
X56812Y24909D02*Y25909D01*
Y24909D02*X57312Y24409D01*
X56812Y26909D02*X58312Y25409D01*
X57312Y28409D02*X57812D01*
X58812Y27409D01*
X56812Y25909D02*X59312Y28409D01*
X57312Y24409D02*X57812D01*
X58312Y24909D01*
Y25409D01*
X56812Y26909D02*Y27909D01*
X62312Y24409D02*X63312D01*
X62812D02*Y28409D01*
X62312D02*X63312D01*
X65012D02*X66512D01*
X67012Y27909D01*
X66512Y27409D02*X67012Y27909D01*
X65012Y27409D02*X66512D01*
X64512Y26909D02*X65012Y27409D01*
X64512Y26909D02*X65012Y26409D01*
X66512D01*
X67012Y26909D01*
X64512Y27909D02*X65012Y28409D01*
X68212Y24409D02*Y28409D01*
Y26909D02*X68712Y26409D01*
X69712D01*
X70212Y26909D01*
Y28409D01*
X71912Y26909D02*Y28409D01*
Y26909D02*X72412Y26409D01*
X72912D01*
X73412Y26909D01*
Y28409D01*
Y26909D02*X73912Y26409D01*
X74412D01*
X74912Y26909D01*
Y28409D01*
X71412Y26409D02*X71912Y26909D01*
X77612Y26409D02*X78112Y26909D01*
X76612Y26409D02*X77612D01*
X76112Y26909D02*X76612Y26409D01*
X76112Y26909D02*Y27909D01*
X76612Y28409D01*
X78112Y26409D02*Y27909D01*
X78612Y28409D01*
X76612D02*X77612D01*
X78112Y27909D01*
X80312Y28409D02*X81812D01*
X79812Y27909D02*X80312Y28409D01*
X79812Y26909D02*Y27909D01*
Y26909D02*X80312Y26409D01*
X81312D01*
X81812Y26909D01*
X79812Y27409D02*X81812D01*
Y26909D02*Y27409D01*
X83012Y24409D02*Y27909D01*
X83512Y28409D01*
X88312Y24409D02*X88812Y24909D01*
X86812Y24409D02*X88312D01*
X86312Y24909D02*X86812Y24409D01*
X86312Y24909D02*Y25909D01*
X86812Y26409D01*
X88312D01*
X88812Y26909D01*
Y27909D01*
X88312Y28409D02*X88812Y27909D01*
X86812Y28409D02*X88312D01*
X86312Y27909D02*X86812Y28409D01*
X90012D02*X90512D01*
X91712Y24409D02*Y26409D01*
X92212Y28409D01*
X93212Y26409D01*
X94212Y28409D01*
X94712Y26409D01*
Y24409D02*Y26409D01*
X95912Y28409D02*X96412D01*
X30000Y17500D02*Y21500D01*
Y17500D02*X31500Y19500D01*
X33000Y17500D01*
Y21500D01*
X34200Y18500D02*Y18600D01*
Y20000D02*Y21500D01*
X35700Y19500D02*X37200D01*
X35200Y20000D02*X35700Y19500D01*
X35200Y20000D02*Y21000D01*
X35700Y21500D01*
X37200D01*
X38900Y20000D02*Y21500D01*
Y20000D02*X39400Y19500D01*
X40400D01*
X38400D02*X38900Y20000D01*
X41600D02*Y21000D01*
Y20000D02*X42100Y19500D01*
X43100D01*
X43600Y20000D01*
Y21000D01*
X43100Y21500D02*X43600Y21000D01*
X42100Y21500D02*X43100D01*
X41600Y21000D02*X42100Y21500D01*
X45300Y18000D02*Y21500D01*
Y18000D02*X45800Y17500D01*
X46300D01*
X44800Y19500D02*X45800D01*
X47300Y17500D02*Y21000D01*
X47800Y21500D01*
X48800Y19500D02*Y21000D01*
X49300Y21500D01*
X50300D01*
X50800Y21000D01*
Y19500D02*Y21000D01*
X52000Y18500D02*Y18600D01*
Y20000D02*Y21500D01*
X55000Y17500D02*Y21500D01*
X54500D02*X55000Y21000D01*
X53500Y21500D02*X54500D01*
X53000Y21000D02*X53500Y21500D01*
X53000Y20000D02*Y21000D01*
Y20000D02*X53500Y19500D01*
X54500D01*
X55000Y20000D01*
X56200Y18500D02*Y18600D01*
Y20000D02*Y21500D01*
X57700Y19500D02*X59200D01*
X57200Y20000D02*X57700Y19500D01*
X57200Y20000D02*Y21000D01*
X57700Y21500D01*
X59200D01*
X62700Y17500D02*Y21500D01*
X62200Y17500D02*X64200D01*
X64700Y18000D01*
Y19000D01*
X64200Y19500D02*X64700Y19000D01*
X62700Y19500D02*X64200D01*
X65900D02*Y21000D01*
X66400Y21500D01*
X67400D01*
X67900Y21000D01*
Y19500D02*Y21000D01*
X69600Y20000D02*Y21500D01*
Y20000D02*X70100Y19500D01*
X70600D01*
X71100Y20000D01*
Y21500D01*
Y20000D02*X71600Y19500D01*
X72100D01*
X72600Y20000D01*
Y21500D01*
X69100Y19500D02*X69600Y20000D01*
X74300D02*Y23000D01*
X73800Y19500D02*X74300Y20000D01*
X74800Y19500D01*
X75800D01*
X76300Y20000D01*
Y21000D01*
X75800Y21500D02*X76300Y21000D01*
X74800Y21500D02*X75800D01*
X74300Y21000D02*X74800Y21500D01*
X79800Y17500D02*Y21500D01*
X81100Y17500D02*X81800Y18200D01*
Y20800D01*
X81100Y21500D02*X81800Y20800D01*
X79300Y21500D02*X81100D01*
X79300Y17500D02*X81100D01*
X83500Y20000D02*Y21500D01*
Y20000D02*X84000Y19500D01*
X85000D01*
X83000D02*X83500Y20000D01*
X86200Y18500D02*Y18600D01*
Y20000D02*Y21500D01*
X87200Y19500D02*X88200Y21500D01*
X89200Y19500D02*X88200Y21500D01*
X90900D02*X92400D01*
X90400Y21000D02*X90900Y21500D01*
X90400Y20000D02*Y21000D01*
Y20000D02*X90900Y19500D01*
X91900D01*
X92400Y20000D01*
X90400Y20500D02*X92400D01*
Y20000D02*Y20500D01*
X94100Y20000D02*Y21500D01*
Y20000D02*X94600Y19500D01*
X95600D01*
X93600D02*X94100Y20000D01*
G54D87*X114064Y53251D02*X114850D01*
X114064Y58761D02*X114850D01*
X110638Y32260D02*X115362D01*
X110638Y39740D02*X115362D01*
G54D86*X128500Y21000D02*Y91000D01*
X168500D02*X128500D01*
X168500Y21000D02*Y91000D01*
X143500Y21000D02*X128500D01*
X168500D02*X153500D01*
G75*G03X143500Y21000I-5000J0D01*G01*
X88157Y69657D02*Y89342D01*
X107843D02*Y69657D01*
X88157D02*X93079D01*
X107843D02*X102921D01*
X88157Y89342D02*X89929D01*
X97016D02*X98984D01*
X107843D02*X106071D01*
X94850Y76350D02*X101150Y82650D01*
Y76350D02*X94850Y82650D01*
X98000Y74972D02*G75*G03X102528Y79500I0J4528D01*G01*
X93472D02*G75*G03X98000Y74972I4528J0D01*G01*
Y84028D02*G75*G03X93472Y79500I0J-4528D01*G01*
X102528D02*G75*G03X98000Y84028I-4528J0D01*G01*
X127362Y129491D02*Y109806D01*
X169685D01*
X127362Y129491D02*X169685D01*
Y109806D02*Y129491D01*
X14500Y83500D02*Y123500D01*
X54500D02*X14500D01*
X54500Y83500D02*Y123500D01*
X29500Y83500D02*X14500D01*
X54500D02*X39500D01*
G75*G03X29500Y83500I-5000J0D01*G01*
X65500Y134000D02*X78000D01*
X103000D02*X115500D01*
X78000Y129900D02*X103000D01*
Y138100D01*
X78000D01*
Y129900D01*
X65500Y126300D02*Y130300D01*
X63500Y128300D02*X67500D01*
X113500D02*X117500D01*
G54D87*X73569Y113039D02*X78293D01*
X73569Y120519D02*X78293D01*
X97664Y113086D02*X102388D01*
X97664Y120566D02*X102388D01*
G54D86*X110850Y47856D02*X112850D01*
X113350Y48356D01*
Y49356D01*
X112850Y49856D02*X113350Y49356D01*
X111350Y49856D02*X112850D01*
X111350Y47856D02*Y51856D01*
X112150Y49856D02*X113350Y51856D01*
X114550Y48356D02*X115050Y47856D01*
X116550D01*
X117050Y48356D01*
Y49356D01*
X114550Y51856D02*X117050Y49356D01*
X114550Y51856D02*X117050D01*
X111550Y30850D02*X112850D01*
X110850Y30150D02*X111550Y30850D01*
X110850Y27550D02*Y30150D01*
Y27550D02*X111550Y26850D01*
X112850D01*
X114050Y27650D02*X114850Y26850D01*
Y30850D01*
X114050D02*X115550D01*
X142500Y15000D02*Y19000D01*
Y15000D02*X144000Y17000D01*
X145500Y15000D01*
Y19000D01*
X146700Y15500D02*Y18500D01*
Y15500D02*X147200Y15000D01*
X148200D01*
X148700Y15500D01*
Y18500D01*
X148200Y19000D02*X148700Y18500D01*
X147200Y19000D02*X148200D01*
X146700Y18500D02*X147200Y19000D01*
X150400Y15000D02*Y19000D01*
X151700Y15000D02*X152400Y15700D01*
Y18300D01*
X151700Y19000D02*X152400Y18300D01*
X149900Y19000D02*X151700D01*
X149900Y15000D02*X151700D01*
X153600Y15800D02*X154400Y15000D01*
Y19000D01*
X153600D02*X155100D01*
X95244Y61996D02*X97244D01*
X97744Y62496D01*
Y63496D01*
X97244Y63996D02*X97744Y63496D01*
X95744Y63996D02*X97244D01*
X95744Y61996D02*Y65996D01*
X96544Y63996D02*X97744Y65996D01*
X98944Y62496D02*X99444Y61996D01*
X100444D01*
X100944Y62496D01*
X100444Y65996D02*X100944Y65496D01*
X99444Y65996D02*X100444D01*
X98944Y65496D02*X99444Y65996D01*
Y63796D02*X100444D01*
X100944Y62496D02*Y63296D01*
Y64296D02*Y65496D01*
Y64296D02*X100444Y63796D01*
X100944Y63296D02*X100444Y63796D01*
X141645Y107720D02*X142945D01*
X140945Y107020D02*X141645Y107720D01*
X140945Y104420D02*Y107020D01*
Y104420D02*X141645Y103720D01*
X142945D01*
X144145Y104220D02*Y107220D01*
Y104220D02*X144645Y103720D01*
X145645D01*
X146145Y104220D01*
Y107220D01*
X145645Y107720D02*X146145Y107220D01*
X144645Y107720D02*X145645D01*
X144145Y107220D02*X144645Y107720D01*
X147345Y103720D02*Y107720D01*
Y103720D02*X149845Y107720D01*
Y103720D02*Y107720D01*
X151045Y103720D02*Y107720D01*
Y103720D02*X153545Y107720D01*
Y103720D02*Y107720D01*
X154745Y104520D02*X155545Y103720D01*
Y107720D01*
X154745D02*X156245D01*
X32500Y76500D02*Y80000D01*
X33000Y80500D01*
X34000D01*
X34500Y80000D01*
Y76500D02*Y80000D01*
X35700Y77300D02*X36500Y76500D01*
Y80500D01*
X35700D02*X37200D01*
X83200Y127900D02*X84500D01*
X82500Y127200D02*X83200Y127900D01*
X82500Y124600D02*Y127200D01*
Y124600D02*X83200Y123900D01*
X84500D01*
X85700Y124400D02*Y127400D01*
Y124400D02*X86200Y123900D01*
X87200D01*
X87700Y124400D01*
Y127400D01*
X87200Y127900D02*X87700Y127400D01*
X86200Y127900D02*X87200D01*
X85700Y127400D02*X86200Y127900D01*
X88900Y123900D02*Y127900D01*
Y123900D02*X91400Y127900D01*
Y123900D02*Y127900D01*
X92600Y123900D02*Y127900D01*
Y123900D02*X95100Y127900D01*
Y123900D02*Y127900D01*
X96300Y124400D02*X96800Y123900D01*
X98300D01*
X98800Y124400D01*
Y125400D01*
X96300Y127900D02*X98800Y125400D01*
X96300Y127900D02*X98800D01*
X73781Y107629D02*Y111629D01*
Y107629D02*X75781D01*
X73781Y109429D02*X75281D01*
X76981Y108429D02*X77781Y107629D01*
Y111629D01*
X76981D02*X78481D01*
X97576Y111676D02*X98876D01*
X96876Y110976D02*X97576Y111676D01*
X96876Y108376D02*Y110976D01*
Y108376D02*X97576Y107676D01*
X98876D01*
X100076Y108176D02*X100576Y107676D01*
X102076D01*
X102576Y108176D01*
Y109176D01*
X100076Y111676D02*X102576Y109176D01*
X100076Y111676D02*X102576D01*
M02*
