G04 start of page 9 for group -4078 idx -4078 *
G04 Title: (unknown), bottomsilk *
G04 Creator: pcb 20110918 *
G04 CreationDate: Fri May 31 17:36:31 2013 UTC *
G04 For: fosse *
G04 Format: Gerber/RS-274X *
G04 PCB-Dimensions: 210000 160000 *
G04 PCB-Coordinate-Origin: lower left *
%MOIN*%
%FSLAX25Y25*%
%LNBOTTOMSILK*%
%ADD78C,0.0100*%
%ADD77C,0.0110*%
%ADD76C,0.0060*%
%ADD75C,0.0080*%
G54D75*X160607Y105245D02*X161393D01*
X160607Y110755D02*X161393D01*
G54D76*X86357Y117213D02*X106042D01*
Y134929D01*
X86357D01*
Y117213D01*
G54D77*X100137Y130008D02*X92263Y122134D01*
G54D76*X103483Y128826D02*Y128827D01*
X104073Y129417D02*Y129811D01*
X103483Y128827D02*X104073Y129417D01*
X89310Y130992D02*Y128826D01*
X90294Y130992D02*X88326D01*
X89310Y128826D02*X88719Y129417D01*
X104073Y130993D02*X102105D01*
X104073Y129811D02*X102105Y130993D01*
Y129417D02*Y129416D01*
X102695Y128826D01*
X103482D01*
X90884Y120559D02*X91672D01*
Y118394D02*X90884D01*
X90294Y118984D01*
Y119969D01*
X90884Y120559D01*
X92262Y118984D02*X91672Y118394D01*
Y120559D02*X92262Y119969D01*
X96199Y120165D02*G75*G03X102105Y126071I0J5906D01*G01*
X90294Y126070D02*G75*G03X96199Y120165I5905J0D01*G01*
X96200Y131976D02*G75*G03X90294Y126070I0J-5906D01*G01*
X102105Y126071D02*G75*G03X96200Y131976I-5905J0D01*G01*
G54D78*X54299Y108315D02*X41701D01*
Y97685D02*X54299D01*
Y102803D02*Y103197D01*
X41701Y102803D02*Y103197D01*
X53189Y138811D02*X76811D01*
X53189D02*Y115189D01*
X76811D01*
Y138811D02*Y115189D01*
X65000Y132906D02*G75*G03X59094Y127000I0J-5906D01*G01*
G75*G03X65000Y121094I5906J0D01*G01*
G75*G03X70906Y127000I0J5906D01*G01*
G75*G03X65000Y132906I-5906J0D01*G01*
X94150Y96000D02*X65850D01*
Y107800D01*
X94150D01*
Y96000D01*
X74100Y107800D02*Y111700D01*
X85900D01*
Y107800D01*
X80000D02*Y111700D01*
X158393Y99850D02*X160393D01*
X160893Y100350D01*
Y101350D01*
X160393Y101850D02*X160893Y101350D01*
X158893Y101850D02*X160393D01*
X158893Y99850D02*Y103850D01*
X159693Y101850D02*X160893Y103850D01*
X162093Y100650D02*X162893Y99850D01*
Y103850D01*
X162093D02*X163593D01*
X101940Y111323D02*X102440Y111823D01*
X100440Y111323D02*X101940D01*
X99940Y111823D02*X100440Y111323D01*
X99940Y111823D02*Y112823D01*
X100440Y113323D01*
X101940D01*
X102440Y113823D01*
Y114823D01*
X101940Y115323D02*X102440Y114823D01*
X100440Y115323D02*X101940D01*
X99940Y114823D02*X100440Y115323D01*
X103640Y111823D02*X104140Y111323D01*
X105140D01*
X105640Y111823D01*
X105140Y115323D02*X105640Y114823D01*
X104140Y115323D02*X105140D01*
X103640Y114823D02*X104140Y115323D01*
Y113123D02*X105140D01*
X105640Y111823D02*Y112623D01*
Y113623D02*Y114823D01*
Y113623D02*X105140Y113123D01*
X105640Y112623D02*X105140Y113123D01*
X79000Y83900D02*X79500Y84400D01*
X77500Y83900D02*X79000D01*
X77000Y84400D02*X77500Y83900D01*
X77000Y84400D02*Y85400D01*
X77500Y85900D01*
X79000D01*
X79500Y86400D01*
Y87400D01*
X79000Y87900D02*X79500Y87400D01*
X77500Y87900D02*X79000D01*
X77000Y87400D02*X77500Y87900D01*
X80700Y84700D02*X81500Y83900D01*
Y87900D01*
X80700D02*X82200D01*
X42291Y91598D02*Y95598D01*
X44291D01*
X45491Y93398D02*X46991D01*
X45491Y95598D02*X47491D01*
X45491Y91598D02*Y95598D01*
Y91598D02*X47491D01*
X49191D02*Y95598D01*
X50491Y91598D02*X51191Y92298D01*
Y94898D01*
X50491Y95598D02*X51191Y94898D01*
X48691Y95598D02*X50491D01*
X48691Y91598D02*X50491D01*
X52391Y92398D02*X53191Y91598D01*
Y95598D01*
X52391D02*X53891D01*
X65953Y144701D02*X65453Y144201D01*
X65953Y144701D02*X67453D01*
X67953Y144201D02*X67453Y144701D01*
X67953Y143201D02*Y144201D01*
Y143201D02*X67453Y142701D01*
X65953D02*X67453D01*
X65953D02*X65453Y142201D01*
Y141201D02*Y142201D01*
X65953Y140701D02*X65453Y141201D01*
X65953Y140701D02*X67453D01*
X67953Y141201D02*X67453Y140701D01*
X64253Y144201D02*X63753Y144701D01*
X62253D02*X63753D01*
X62253D02*X61753Y144201D01*
Y143201D02*Y144201D01*
X64253Y140701D02*X61753Y143201D01*
Y140701D02*X64253D01*
M02*
