M48
INCH
T41C0.030
T40C0.034
T39C0.032
T38C0.028
%
T38
X003700Y006699
X015850Y006476
X018850Y006476
X015850Y007476
X018850Y007476
X015850Y008476
X015850Y009476
X018850Y009476
X018850Y008476
X003700Y007699
X003700Y008699
X003700Y009699
X003700Y010699
X003700Y011699
X003700Y012699
X006700Y012699
X006700Y011699
X006700Y010699
X006700Y009699
X006700Y008699
X006700Y007699
X006700Y006699
T41
X015574Y002714
X020574Y002714
T39
X004416Y004676
X004908Y005464
X005400Y004676
X005892Y005464
T40
X011796Y006680
X012976Y006680
M30
