M48
INCH
T59C0.035
T58C0.020
T57C0.032
T56C0.090
T55C0.030
T54C0.028
T53C0.034
%
T58
X003750Y008100
X004300Y006950
X003000Y009600
X002000Y007700
X009800Y009900
X001400Y007600
X003700Y004000
T54
X001950Y008850
X001950Y009850
X001950Y010850
X001950Y011850
X004950Y011850
X004950Y010850
X004950Y009850
X004950Y008850
X013350Y007600
X013350Y008600
X016350Y008600
X013350Y002600
X013350Y003600
X013350Y004600
X013350Y005600
X013350Y006600
X016350Y007600
X016350Y006600
X016350Y005600
X016350Y004600
X016350Y003600
X016350Y002600
T55
X006550Y013400
X011550Y013400
T57
X014016Y011827
X014508Y012614
X015000Y011827
X015492Y012614
T53
X006050Y006500
X007230Y006500
T59
X006650Y008250
X008050Y003950
X008600Y008050
X001600Y004000
T56
X000950Y013650
X018890Y001210
M30
