G04 start of page 7 for group -4062 idx -4062 *
G04 Title: (unknown), soldermask *
G04 Creator: pcb 20140316 *
G04 CreationDate: Wed 08 Apr 2015 09:08:40 AM GMT UTC *
G04 For: fosse *
G04 Format: Gerber/RS-274X *
G04 PCB-Dimensions (mil): 2290.00 2790.00 *
G04 PCB-Coordinate-Origin: lower left *
%MOIN*%
%FSLAX25Y25*%
%LNBOTTOMMASK*%
%ADD85R,0.0848X0.0848*%
%ADD84R,0.0927X0.0927*%
%ADD83R,0.0572X0.0572*%
%ADD82C,0.0800*%
%ADD81C,0.0660*%
%ADD80C,0.0001*%
%ADD79C,0.0810*%
%ADD78C,0.0651*%
G54D78*X55506Y123373D03*
Y141090D03*
G54D79*X119250Y157000D03*
G54D80*G36*
X115700Y138000D02*Y131400D01*
X122300D01*
Y138000D01*
X115700D01*
G37*
G54D81*X119000Y124700D03*
G54D80*G36*
X104654Y232453D02*Y225947D01*
X111160D01*
Y232453D01*
X104654D01*
G37*
G54D78*X112829Y237074D03*
X117750Y229200D03*
X122671Y237074D03*
G54D79*X119250Y168800D03*
G54D82*X42750Y209200D03*
X72750Y179200D03*
G54D83*X77155Y167881D02*Y165519D01*
X103069Y159295D02*X105431D01*
X103069Y171105D02*X105431D01*
G54D82*X72750Y209200D03*
Y199200D03*
Y189200D03*
G54D83*X27357Y175657D02*X28143D01*
X34707Y166093D02*Y165307D01*
X41793Y166093D02*Y165307D01*
X27357Y182743D02*X28143D01*
X27357Y204157D02*X28143D01*
X27357Y211243D02*X28143D01*
G54D82*X42750Y179200D03*
Y189200D03*
Y199200D03*
G54D83*X82069Y128295D02*X84431D01*
X82069Y140105D02*X84431D01*
X65345Y167881D02*Y165519D01*
G54D84*X65939Y151129D02*Y150735D01*
G54D85*X68301Y130657D02*Y127901D01*
G54D84*X49010Y152704D02*Y152310D01*
G54D85*X37199Y130657D02*Y127901D01*
G54D84*X40348Y142074D02*Y141680D01*
G54D83*X151940Y134881D02*Y132519D01*
X163750Y134881D02*Y132519D01*
G54D82*X158845Y150200D03*
Y160200D03*
G54D83*X141964Y143895D02*X144326D01*
X141964Y155705D02*X144326D01*
X143252Y183507D02*X144038D01*
X143252Y190593D02*X144038D01*
G54D82*X158845Y170200D03*
Y180200D03*
Y190200D03*
Y200200D03*
Y210200D03*
X188845D03*
Y200200D03*
Y190200D03*
Y180200D03*
Y170200D03*
Y160200D03*
Y150200D03*
G54D83*X143252Y166757D02*X144038D01*
X143252Y173843D02*X144038D01*
M02*
