G04 start of page 9 for group -4078 idx -4078 *
G04 Title: (unknown), bottomsilk *
G04 Creator: pcb 20110918 *
G04 CreationDate: Fri May 31 20:11:58 2013 UTC *
G04 For: fosse *
G04 Format: Gerber/RS-274X *
G04 PCB-Dimensions: 210000 160000 *
G04 PCB-Coordinate-Origin: lower left *
%MOIN*%
%FSLAX25Y25*%
%LNBOTTOMSILK*%
%ADD78C,0.0110*%
%ADD77C,0.0060*%
%ADD76C,0.0100*%
%ADD75C,0.0080*%
G54D75*X51607Y93745D02*X52393D01*
X51607Y99255D02*X52393D01*
G54D76*X140389Y95875D02*X112089D01*
Y107675D01*
X140389D01*
Y95875D01*
X120339Y107675D02*Y111575D01*
X132139D01*
Y107675D01*
X126239D02*Y111575D01*
X2500Y150600D02*Y29000D01*
X20000Y11500D02*X195100D01*
X201500Y139500D02*Y18000D01*
X8900Y157000D02*X184000D01*
X100000Y124700D02*Y120300D01*
X148000Y124600D02*Y120400D01*
X112500Y108000D02*X135500D01*
X112500Y137000D02*X135500D01*
X8900Y157000D02*G75*G03X2500Y150600I0J-6400D01*G01*
X20000Y11500D02*G75*G03X2500Y29000I-17500J0D01*G01*
X195100Y11500D02*G75*G03X201500Y17900I0J6400D01*G01*
X184000Y157000D02*G75*G03X201500Y139500I17500J0D01*G01*
X112500Y137000D02*G75*G03X100000Y124500I0J-12500D01*G01*
X148000D02*G75*G03X135500Y137000I-12500J0D01*G01*
Y108000D02*G75*G03X148000Y120500I0J12500D01*G01*
X100000D02*G75*G03X112500Y108000I12500J0D01*G01*
G54D77*X130158Y116713D02*X149842D01*
Y134429D01*
X130158D01*
Y116713D01*
G54D78*X143938Y129508D02*X136064Y121634D01*
G54D77*X147284Y128326D02*Y128327D01*
X147874Y128917D02*Y129311D01*
X147284Y128327D02*X147874Y128917D01*
X133110Y130492D02*Y128326D01*
X134094Y130492D02*X132126D01*
X133110Y128326D02*X132520Y128917D01*
X147874Y130493D02*X145906D01*
X147874Y129311D02*X145906Y130493D01*
Y128917D02*Y128916D01*
X146496Y128326D01*
X147282D01*
X134684Y120059D02*X135472D01*
Y117894D02*X134684D01*
X134094Y118484D01*
Y119469D01*
X134684Y120059D01*
X136062Y118484D02*X135472Y117894D01*
Y120059D02*X136062Y119469D01*
X140000Y119665D02*G75*G03X145906Y125571I0J5906D01*G01*
X134094Y125570D02*G75*G03X140000Y119665I5905J0D01*G01*
X140000Y131476D02*G75*G03X134094Y125570I0J-5906D01*G01*
X145906Y125571D02*G75*G03X140000Y131476I-5905J0D01*G01*
G54D76*X96990Y138311D02*X120612D01*
X96990D02*Y114689D01*
X120612D01*
Y138311D02*Y114689D01*
X108801Y132406D02*G75*G03X102894Y126500I0J-5906D01*G01*
G75*G03X108801Y120594I5906J0D01*G01*
G75*G03X114706Y126500I0J5906D01*G01*
G75*G03X108801Y132406I-5906J0D01*G01*
G54D75*X171138Y79760D02*X175862D01*
X171138Y87240D02*X175862D01*
G54D76*X176689Y126559D02*X164091D01*
Y115929D02*X176689D01*
Y121047D02*Y121441D01*
X164091Y121047D02*Y121441D01*
X5000Y32000D02*Y34000D01*
X5500Y34500D01*
X6700D01*
X7200Y34000D02*X6700Y34500D01*
X7200Y32500D02*Y34000D01*
X5000Y32500D02*X9000D01*
Y32000D02*Y34000D01*
X8500Y34500D01*
X7700D02*X8500D01*
X7200Y34000D02*X7700Y34500D01*
X5500Y35700D02*X8500D01*
X9000Y36200D01*
Y37200D01*
X8500Y37700D01*
X5500D02*X8500D01*
X5000Y37200D02*X5500Y37700D01*
X5000Y36200D02*Y37200D01*
X5500Y35700D02*X5000Y36200D01*
Y38900D02*X9000Y41400D01*
Y38900D02*X5000Y41400D01*
X8200Y42600D02*X9000Y43400D01*
X5000D02*X9000D01*
X5000Y42600D02*Y44100D01*
X171050Y78350D02*X172350D01*
X170350Y77650D02*X171050Y78350D01*
X170350Y75050D02*Y77650D01*
Y75050D02*X171050Y74350D01*
X172350D01*
X173550Y74850D02*X174050Y74350D01*
X175050D01*
X175550Y74850D01*
X175050Y78350D02*X175550Y77850D01*
X174050Y78350D02*X175050D01*
X173550Y77850D02*X174050Y78350D01*
Y76150D02*X175050D01*
X175550Y74850D02*Y75650D01*
Y76650D02*Y77850D01*
Y76650D02*X175050Y76150D01*
X175550Y75650D02*X175050Y76150D01*
X164681Y109842D02*Y113842D01*
X166681D01*
X167881Y111642D02*X169381D01*
X167881Y113842D02*X169881D01*
X167881Y109842D02*Y113842D01*
Y109842D02*X169881D01*
X171581D02*Y113842D01*
X172881Y109842D02*X173581Y110542D01*
Y113142D01*
X172881Y113842D02*X173581Y113142D01*
X171081Y113842D02*X172881D01*
X171081Y109842D02*X172881D01*
X174781Y110642D02*X175581Y109842D01*
Y113842D01*
X174781D02*X176281D01*
X109754Y144201D02*X109254Y143701D01*
X109754Y144201D02*X111254D01*
X111754Y143701D02*X111254Y144201D01*
X111754Y142701D02*Y143701D01*
Y142701D02*X111254Y142201D01*
X109754D02*X111254D01*
X109754D02*X109254Y141701D01*
Y140701D02*Y141701D01*
X109754Y140201D02*X109254Y140701D01*
X109754Y140201D02*X111254D01*
X111754Y140701D02*X111254Y140201D01*
X108053Y143701D02*X107553Y144201D01*
X106053D02*X107553D01*
X106053D02*X105553Y143701D01*
Y142701D02*Y143701D01*
X108053Y140201D02*X105553Y142701D01*
Y140201D02*X108053D01*
X49393Y88350D02*X51393D01*
X51893Y88850D01*
Y89850D01*
X51393Y90350D02*X51893Y89850D01*
X49893Y90350D02*X51393D01*
X49893Y88350D02*Y92350D01*
X50693Y90350D02*X51893Y92350D01*
X53093Y89150D02*X53893Y88350D01*
Y92350D01*
X53093D02*X54593D01*
X125239Y83775D02*X125739Y84275D01*
X123739Y83775D02*X125239D01*
X123239Y84275D02*X123739Y83775D01*
X123239Y84275D02*Y85275D01*
X123739Y85775D01*
X125239D01*
X125739Y86275D01*
Y87275D01*
X125239Y87775D02*X125739Y87275D01*
X123739Y87775D02*X125239D01*
X123239Y87275D02*X123739Y87775D01*
X126939Y84575D02*X127739Y83775D01*
Y87775D01*
X126939D02*X128439D01*
X145740Y110823D02*X146240Y111323D01*
X144240Y110823D02*X145740D01*
X143740Y111323D02*X144240Y110823D01*
X143740Y111323D02*Y112323D01*
X144240Y112823D01*
X145740D01*
X146240Y113323D01*
Y114323D01*
X145740Y114823D02*X146240Y114323D01*
X144240Y114823D02*X145740D01*
X143740Y114323D02*X144240Y114823D01*
X147441Y111323D02*X147941Y110823D01*
X148941D01*
X149441Y111323D01*
X148941Y114823D02*X149441Y114323D01*
X147941Y114823D02*X148941D01*
X147441Y114323D02*X147941Y114823D01*
Y112623D02*X148941D01*
X149441Y111323D02*Y112123D01*
Y113123D02*Y114323D01*
Y113123D02*X148941Y112623D01*
X149441Y112123D02*X148941Y112623D01*
M02*
