G04 start of page 3 for group 1 idx 1 *
G04 Title: (unknown), bottom *
G04 Creator: pcb 20140316 *
G04 CreationDate: Mon 06 Apr 2015 04:31:32 PM GMT UTC *
G04 For: fosse *
G04 Format: Gerber/RS-274X *
G04 PCB-Dimensions (mil): 5250.00 3480.00 *
G04 PCB-Coordinate-Origin: lower left *
%MOIN*%
%FSLAX25Y25*%
%LNBOTTOM*%
%ADD58C,0.0433*%
%ADD57C,0.0315*%
%ADD56C,0.0300*%
%ADD55C,0.0340*%
%ADD54C,0.1300*%
%ADD53C,0.1250*%
%ADD52C,0.0350*%
%ADD51C,0.1650*%
%ADD50C,0.1700*%
%ADD49C,0.1500*%
%ADD48C,0.1900*%
%ADD47C,0.0360*%
%ADD46R,0.0748X0.0748*%
%ADD45R,0.0827X0.0827*%
%ADD44R,0.0512X0.0512*%
%ADD43C,0.0600*%
%ADD42C,0.0591*%
%ADD41C,0.0550*%
%ADD40C,0.0750*%
%ADD39C,0.0200*%
%ADD38C,0.0250*%
%ADD37C,0.0400*%
%ADD36C,0.0001*%
G54D36*G36*
X79000Y206500D02*X76500Y204000D01*
Y209000D01*
X79000Y206500D01*
G37*
G36*
X82000D02*X84500Y209000D01*
Y204000D01*
X82000Y206500D01*
G37*
G36*
X31000Y252500D02*X28500Y255000D01*
X33500D01*
X31000Y252500D01*
G37*
G36*
Y214000D02*X33500Y211500D01*
X28500D01*
X31000Y214000D01*
G37*
G36*
X192089Y298910D02*X203167D01*
X203119Y298300D01*
X203244Y296715D01*
X203615Y295169D01*
X204223Y293701D01*
X205054Y292345D01*
X206086Y291136D01*
X207295Y290104D01*
X208651Y289273D01*
X210119Y288665D01*
X211665Y288294D01*
X213250Y288169D01*
X214000Y288228D01*
Y169772D01*
X213250Y169831D01*
X211665Y169706D01*
X210119Y169335D01*
X208651Y168727D01*
X207295Y167896D01*
X206086Y166864D01*
X205054Y165655D01*
X204223Y164299D01*
X203615Y162831D01*
X203244Y161285D01*
X203119Y159700D01*
X203194Y158750D01*
X192089D01*
Y162844D01*
X192144Y162867D01*
X193365Y163615D01*
X194455Y164545D01*
X195385Y165635D01*
X196133Y166856D01*
X196681Y168179D01*
X197016Y169572D01*
X197100Y171000D01*
X197016Y172428D01*
X196681Y173821D01*
X196133Y175144D01*
X195385Y176365D01*
X194455Y177455D01*
X193365Y178385D01*
X192144Y179133D01*
X192089Y179156D01*
Y185988D01*
X192095Y185988D01*
X192723Y186037D01*
X193335Y186184D01*
X193917Y186425D01*
X194453Y186754D01*
X194932Y187163D01*
X195341Y187642D01*
X195670Y188178D01*
X195911Y188760D01*
X196058Y189372D01*
X196095Y190000D01*
X196058Y190628D01*
X195911Y191240D01*
X195670Y191822D01*
X195341Y192358D01*
X194932Y192837D01*
X194453Y193246D01*
X193917Y193575D01*
X193335Y193816D01*
X192723Y193963D01*
X192095Y194012D01*
X192089Y194012D01*
Y195988D01*
X192095Y195988D01*
X192723Y196037D01*
X193335Y196184D01*
X193917Y196425D01*
X194453Y196754D01*
X194932Y197163D01*
X195341Y197642D01*
X195670Y198178D01*
X195911Y198760D01*
X196058Y199372D01*
X196095Y200000D01*
X196058Y200628D01*
X195911Y201240D01*
X195670Y201822D01*
X195341Y202358D01*
X194932Y202837D01*
X194453Y203246D01*
X193917Y203575D01*
X193335Y203816D01*
X192723Y203963D01*
X192095Y204012D01*
X192089Y204012D01*
Y205988D01*
X192095Y205988D01*
X192723Y206037D01*
X193335Y206184D01*
X193917Y206425D01*
X194453Y206754D01*
X194932Y207163D01*
X195341Y207642D01*
X195670Y208178D01*
X195911Y208760D01*
X196058Y209372D01*
X196095Y210000D01*
X196058Y210628D01*
X195911Y211240D01*
X195670Y211822D01*
X195341Y212358D01*
X194932Y212837D01*
X194453Y213246D01*
X194345Y213312D01*
Y216688D01*
X194453Y216754D01*
X194932Y217163D01*
X195341Y217642D01*
X195670Y218178D01*
X195911Y218760D01*
X196058Y219372D01*
X196095Y220000D01*
X196058Y220628D01*
X195911Y221240D01*
X195670Y221822D01*
X195341Y222358D01*
X194932Y222837D01*
X194453Y223246D01*
X193917Y223575D01*
X193335Y223816D01*
X192723Y223963D01*
X192095Y224012D01*
X192089Y224012D01*
Y225988D01*
X192095Y225988D01*
X192723Y226037D01*
X193335Y226184D01*
X193917Y226425D01*
X194453Y226754D01*
X194932Y227163D01*
X195341Y227642D01*
X195670Y228178D01*
X195911Y228760D01*
X196058Y229372D01*
X196095Y230000D01*
X196058Y230628D01*
X195911Y231240D01*
X195670Y231822D01*
X195341Y232358D01*
X194932Y232837D01*
X194453Y233246D01*
X193917Y233575D01*
X193335Y233816D01*
X192723Y233963D01*
X192095Y234012D01*
X192089Y234012D01*
Y235988D01*
X192095Y235988D01*
X192723Y236037D01*
X193335Y236184D01*
X193917Y236425D01*
X194453Y236754D01*
X194932Y237163D01*
X195341Y237642D01*
X195670Y238178D01*
X195911Y238760D01*
X196058Y239372D01*
X196095Y240000D01*
X196058Y240628D01*
X195911Y241240D01*
X195670Y241822D01*
X195341Y242358D01*
X194932Y242837D01*
X194453Y243246D01*
X193917Y243575D01*
X193335Y243816D01*
X192723Y243963D01*
X192095Y244012D01*
X192089Y244012D01*
Y245988D01*
X192095Y245988D01*
X192723Y246037D01*
X193335Y246184D01*
X193917Y246425D01*
X194453Y246754D01*
X194932Y247163D01*
X195341Y247642D01*
X195670Y248178D01*
X195911Y248760D01*
X196058Y249372D01*
X196095Y250000D01*
X196058Y250628D01*
X195911Y251240D01*
X195670Y251822D01*
X195341Y252358D01*
X194932Y252837D01*
X194453Y253246D01*
X193917Y253575D01*
X193335Y253816D01*
X192723Y253963D01*
X192345Y253993D01*
X192089Y254249D01*
Y278844D01*
X192144Y278867D01*
X193365Y279615D01*
X194455Y280545D01*
X195385Y281635D01*
X196133Y282856D01*
X196681Y284179D01*
X197016Y285572D01*
X197100Y287000D01*
X197016Y288428D01*
X196681Y289821D01*
X196133Y291144D01*
X195385Y292365D01*
X194455Y293455D01*
X193365Y294385D01*
X192144Y295133D01*
X192089Y295156D01*
Y298910D01*
G37*
G36*
Y254249D02*X187986Y258352D01*
Y277873D01*
X188000Y277872D01*
X189428Y277984D01*
X190821Y278319D01*
X192089Y278844D01*
Y254249D01*
G37*
G36*
Y244012D02*X191467Y243963D01*
X190855Y243816D01*
X190273Y243575D01*
X189737Y243246D01*
X189449Y243000D01*
X187986D01*
Y249866D01*
X188102Y249750D01*
X188132Y249372D01*
X188279Y248760D01*
X188520Y248178D01*
X188849Y247642D01*
X189258Y247163D01*
X189737Y246754D01*
X190273Y246425D01*
X190855Y246184D01*
X191467Y246037D01*
X192089Y245988D01*
Y244012D01*
G37*
G36*
Y204012D02*X191467Y203963D01*
X191263Y203914D01*
X188648Y206529D01*
X188591Y206596D01*
X188322Y206826D01*
X188020Y207011D01*
X187986Y207025D01*
Y237000D01*
X189449D01*
X189737Y236754D01*
X190273Y236425D01*
X190855Y236184D01*
X191467Y236037D01*
X192089Y235988D01*
Y234012D01*
X191467Y233963D01*
X190855Y233816D01*
X190273Y233575D01*
X189737Y233246D01*
X189258Y232837D01*
X188849Y232358D01*
X188520Y231822D01*
X188279Y231240D01*
X188132Y230628D01*
X188083Y230000D01*
X188132Y229372D01*
X188279Y228760D01*
X188520Y228178D01*
X188849Y227642D01*
X189258Y227163D01*
X189737Y226754D01*
X190273Y226425D01*
X190855Y226184D01*
X191467Y226037D01*
X192089Y225988D01*
Y224012D01*
X191467Y223963D01*
X190855Y223816D01*
X190273Y223575D01*
X189737Y223246D01*
X189258Y222837D01*
X188849Y222358D01*
X188520Y221822D01*
X188279Y221240D01*
X188132Y220628D01*
X188083Y220000D01*
X188132Y219372D01*
X188279Y218760D01*
X188520Y218178D01*
X188849Y217642D01*
X189258Y217163D01*
X189737Y216754D01*
X189845Y216688D01*
Y213312D01*
X189737Y213246D01*
X189258Y212837D01*
X188849Y212358D01*
X188520Y211822D01*
X188279Y211240D01*
X188132Y210628D01*
X188083Y210000D01*
X188132Y209372D01*
X188279Y208760D01*
X188520Y208178D01*
X188849Y207642D01*
X189258Y207163D01*
X189737Y206754D01*
X190273Y206425D01*
X190855Y206184D01*
X191467Y206037D01*
X192089Y205988D01*
Y204012D01*
G37*
G36*
Y194012D02*X191467Y193963D01*
X190855Y193816D01*
X190273Y193575D01*
X189737Y193246D01*
X189449Y193000D01*
X187986D01*
Y200827D01*
X188142Y200671D01*
X188132Y200628D01*
X188083Y200000D01*
X188132Y199372D01*
X188279Y198760D01*
X188520Y198178D01*
X188849Y197642D01*
X189258Y197163D01*
X189737Y196754D01*
X190273Y196425D01*
X190855Y196184D01*
X191467Y196037D01*
X192089Y195988D01*
Y194012D01*
G37*
G36*
Y179156D02*X190821Y179681D01*
X189428Y180016D01*
X188000Y180128D01*
X187986Y180127D01*
Y187000D01*
X189449D01*
X189737Y186754D01*
X190273Y186425D01*
X190855Y186184D01*
X191467Y186037D01*
X192089Y185988D01*
Y179156D01*
G37*
G36*
Y158750D02*X187986D01*
Y161873D01*
X188000Y161872D01*
X189428Y161984D01*
X190821Y162319D01*
X192089Y162844D01*
Y158750D01*
G37*
G36*
X187986Y298910D02*X192089D01*
Y295156D01*
X190821Y295681D01*
X189428Y296016D01*
X188000Y296128D01*
X187986Y296127D01*
Y298910D01*
G37*
G36*
Y243000D02*X185743D01*
X157704Y271038D01*
X157628Y271128D01*
X157269Y271435D01*
X156866Y271681D01*
X156430Y271862D01*
X155971Y271972D01*
X155971Y271972D01*
X155500Y272009D01*
X155382Y272000D01*
X134041D01*
Y273874D01*
X163978D01*
X187986Y249866D01*
Y243000D01*
G37*
G36*
Y207025D02*X187692Y207146D01*
X187348Y207229D01*
X187348Y207229D01*
X186995Y207257D01*
X186907Y207250D01*
X165007D01*
X165341Y207642D01*
X165670Y208178D01*
X165911Y208760D01*
X166058Y209372D01*
X166095Y210000D01*
X166058Y210628D01*
X165911Y211240D01*
X165670Y211822D01*
X165341Y212358D01*
X164932Y212837D01*
X164453Y213246D01*
X163917Y213575D01*
X163335Y213816D01*
X162723Y213963D01*
X162095Y214012D01*
X162089Y214012D01*
Y215988D01*
X162095Y215988D01*
X162723Y216037D01*
X163335Y216184D01*
X163917Y216425D01*
X164453Y216754D01*
X164932Y217163D01*
X165341Y217642D01*
X165670Y218178D01*
X165911Y218760D01*
X166058Y219372D01*
X166095Y220000D01*
X166058Y220628D01*
X165911Y221240D01*
X165670Y221822D01*
X165341Y222358D01*
X164932Y222837D01*
X164453Y223246D01*
X163917Y223575D01*
X163335Y223816D01*
X162723Y223963D01*
X162095Y224012D01*
X162089Y224012D01*
Y225988D01*
X162095Y225988D01*
X162723Y226037D01*
X163335Y226184D01*
X163917Y226425D01*
X164453Y226754D01*
X164932Y227163D01*
X165341Y227642D01*
X165670Y228178D01*
X165911Y228760D01*
X166058Y229372D01*
X166095Y230000D01*
X166058Y230628D01*
X165911Y231240D01*
X165670Y231822D01*
X165341Y232358D01*
X164932Y232837D01*
X164453Y233246D01*
X163917Y233575D01*
X163335Y233816D01*
X162723Y233963D01*
X162095Y234012D01*
X162089Y234012D01*
Y235988D01*
X162095Y235988D01*
X162723Y236037D01*
X163335Y236184D01*
X163917Y236425D01*
X164453Y236754D01*
X164731Y236991D01*
X164932Y237163D01*
X165104Y237364D01*
X165341Y237642D01*
X165670Y238178D01*
X165911Y238760D01*
X166058Y239372D01*
X166095Y240000D01*
X166058Y240628D01*
X165911Y241240D01*
X165670Y241822D01*
X165341Y242358D01*
X165104Y242636D01*
X164932Y242837D01*
X164731Y243009D01*
X164453Y243246D01*
X163917Y243575D01*
X163335Y243816D01*
X162723Y243963D01*
X162095Y244012D01*
X162089Y244012D01*
Y245988D01*
X162095Y245988D01*
X162723Y246037D01*
X163335Y246184D01*
X163917Y246425D01*
X164453Y246754D01*
X164731Y246991D01*
X164932Y247163D01*
X165009Y247253D01*
Y247253D01*
X165064Y247317D01*
X165341Y247642D01*
X165670Y248178D01*
X165911Y248760D01*
X166058Y249372D01*
X166095Y250000D01*
X166058Y250628D01*
X165911Y251240D01*
X165670Y251822D01*
X165341Y252358D01*
X165064Y252683D01*
X165009Y252747D01*
Y252747D01*
X164932Y252837D01*
X164731Y253009D01*
X164453Y253246D01*
X163917Y253575D01*
X163335Y253816D01*
X162723Y253963D01*
X162242Y254001D01*
X162089Y254154D01*
Y258169D01*
X182296Y237962D01*
X182372Y237872D01*
X182731Y237566D01*
X182731Y237565D01*
X183134Y237319D01*
X183570Y237138D01*
X184005Y237034D01*
X184029Y237028D01*
X184029D01*
X184500Y236991D01*
X184618Y237000D01*
X187986D01*
Y207025D01*
G37*
G36*
X162089Y254154D02*X154204Y262038D01*
X154128Y262128D01*
X153769Y262435D01*
X153366Y262681D01*
X152930Y262862D01*
X152471Y262972D01*
X152471Y262972D01*
X152000Y263009D01*
X151882Y263000D01*
X134041D01*
Y266000D01*
X154257D01*
X162089Y258169D01*
Y254154D01*
G37*
G36*
Y244012D02*X161467Y243963D01*
X160855Y243816D01*
X160509Y243673D01*
X160273Y243575D01*
X159737Y243246D01*
X159607Y243135D01*
X148704Y254038D01*
X148628Y254128D01*
X148269Y254435D01*
X147866Y254681D01*
X147430Y254862D01*
X146971Y254972D01*
X146500Y255009D01*
X146382Y255000D01*
X134041D01*
Y257000D01*
X150757D01*
X158110Y249647D01*
X158132Y249372D01*
X158279Y248760D01*
X158520Y248178D01*
X158849Y247642D01*
X159258Y247163D01*
X159737Y246754D01*
X160273Y246425D01*
X160509Y246327D01*
X160855Y246184D01*
X161467Y246037D01*
X162089Y245988D01*
Y244012D01*
G37*
G36*
Y224012D02*X161467Y223963D01*
X161303Y223924D01*
X160348Y224879D01*
X160291Y224946D01*
X160022Y225176D01*
X160022Y225176D01*
X159907Y225246D01*
X159720Y225361D01*
X159488Y225457D01*
X159392Y225496D01*
X159048Y225579D01*
X158695Y225607D01*
X158607Y225600D01*
X150838D01*
X150838Y226023D01*
X150801Y226176D01*
X150741Y226321D01*
X150659Y226456D01*
X150556Y226575D01*
X150437Y226678D01*
X150302Y226760D01*
X150157Y226820D01*
X150032Y226850D01*
X150157Y226880D01*
X150302Y226940D01*
X150437Y227022D01*
X150556Y227125D01*
X150659Y227244D01*
X150741Y227379D01*
X150801Y227524D01*
X150838Y227677D01*
X150847Y227834D01*
X150838Y233109D01*
X150801Y233262D01*
X150741Y233407D01*
X150659Y233542D01*
X150556Y233661D01*
X150437Y233764D01*
X150302Y233846D01*
X150157Y233906D01*
X150004Y233943D01*
X149847Y233952D01*
X143786Y233943D01*
X143633Y233906D01*
X143488Y233846D01*
X143353Y233764D01*
X143234Y233661D01*
X143131Y233542D01*
X143049Y233407D01*
X142989Y233262D01*
X142952Y233109D01*
X142943Y232952D01*
X142952Y227677D01*
X142989Y227524D01*
X143049Y227379D01*
X143131Y227244D01*
X143234Y227125D01*
X143353Y227022D01*
X143488Y226940D01*
X143633Y226880D01*
X143758Y226850D01*
X143633Y226820D01*
X143488Y226760D01*
X143353Y226678D01*
X143234Y226575D01*
X143131Y226456D01*
X143049Y226321D01*
X142989Y226176D01*
X142952Y226023D01*
X142943Y225866D01*
X142952Y220591D01*
X142989Y220438D01*
X143049Y220293D01*
X143131Y220158D01*
X143234Y220039D01*
X143353Y219936D01*
X143488Y219854D01*
X143633Y219794D01*
X143786Y219757D01*
X143943Y219748D01*
X144645Y219749D01*
Y217194D01*
X143786Y217193D01*
X143633Y217156D01*
X143488Y217096D01*
X143353Y217014D01*
X143234Y216911D01*
X143131Y216792D01*
X143049Y216657D01*
X142989Y216512D01*
X142952Y216359D01*
X142943Y216202D01*
X142952Y210927D01*
X142989Y210774D01*
X143049Y210629D01*
X143131Y210494D01*
X143234Y210375D01*
X143353Y210272D01*
X143488Y210190D01*
X143633Y210130D01*
X143758Y210100D01*
X143633Y210070D01*
X143488Y210010D01*
X143353Y209928D01*
X143234Y209825D01*
X143131Y209706D01*
X143049Y209571D01*
X142989Y209426D01*
X142952Y209273D01*
X142943Y209116D01*
X142944Y208750D01*
X141432D01*
X134041Y216141D01*
Y249000D01*
X145257D01*
X156296Y237962D01*
X156372Y237872D01*
X156731Y237566D01*
X156731Y237565D01*
X157134Y237319D01*
X157570Y237138D01*
X158029Y237028D01*
X158500Y236991D01*
X158618Y237000D01*
X159449D01*
X159459Y236991D01*
X159737Y236754D01*
X160273Y236425D01*
X160855Y236184D01*
X161467Y236037D01*
X162089Y235988D01*
Y234012D01*
X161467Y233963D01*
X160855Y233816D01*
X160273Y233575D01*
X159737Y233246D01*
X159258Y232837D01*
X158849Y232358D01*
X158520Y231822D01*
X158279Y231240D01*
X158132Y230628D01*
X158083Y230000D01*
X158132Y229372D01*
X158279Y228760D01*
X158520Y228178D01*
X158849Y227642D01*
X159258Y227163D01*
X159737Y226754D01*
X160273Y226425D01*
X160855Y226184D01*
X161467Y226037D01*
X162089Y225988D01*
Y224012D01*
G37*
G36*
Y214012D02*X161467Y213963D01*
X160855Y213816D01*
X160273Y213575D01*
X159737Y213246D01*
X159258Y212837D01*
X158849Y212358D01*
X158520Y211822D01*
X158279Y211240D01*
X158132Y210628D01*
X158083Y210000D01*
X158132Y209372D01*
X158279Y208760D01*
X158520Y208178D01*
X158849Y207642D01*
X159183Y207250D01*
X155727D01*
X155048Y207929D01*
X154991Y207996D01*
X154722Y208226D01*
X154420Y208411D01*
X154092Y208546D01*
X153748Y208629D01*
X153748Y208629D01*
X153395Y208657D01*
X153307Y208650D01*
X150839D01*
X150838Y209273D01*
X150801Y209426D01*
X150741Y209571D01*
X150659Y209706D01*
X150556Y209825D01*
X150437Y209928D01*
X150302Y210010D01*
X150157Y210070D01*
X150032Y210100D01*
X150157Y210130D01*
X150302Y210190D01*
X150437Y210272D01*
X150556Y210375D01*
X150659Y210494D01*
X150741Y210629D01*
X150801Y210774D01*
X150838Y210927D01*
X150847Y211084D01*
X150838Y216359D01*
X150801Y216512D01*
X150741Y216657D01*
X150659Y216792D01*
X150556Y216911D01*
X150437Y217014D01*
X150302Y217096D01*
X150157Y217156D01*
X150004Y217193D01*
X149847Y217202D01*
X149145Y217201D01*
Y219756D01*
X150004Y219757D01*
X150157Y219794D01*
X150302Y219854D01*
X150437Y219936D01*
X150556Y220039D01*
X150659Y220158D01*
X150741Y220293D01*
X150801Y220438D01*
X150838Y220591D01*
X150847Y220748D01*
X150846Y221100D01*
X157763D01*
X158152Y220711D01*
X158132Y220628D01*
X158083Y220000D01*
X158132Y219372D01*
X158279Y218760D01*
X158520Y218178D01*
X158849Y217642D01*
X159258Y217163D01*
X159737Y216754D01*
X160273Y216425D01*
X160855Y216184D01*
X161467Y216037D01*
X162089Y215988D01*
Y214012D01*
G37*
G36*
X153875Y202946D02*X154098Y202854D01*
X154442Y202771D01*
X154442D01*
X154795Y202743D01*
X154883Y202750D01*
X159183D01*
X158849Y202358D01*
X158520Y201822D01*
X158279Y201240D01*
X158132Y200628D01*
X158083Y200000D01*
X158132Y199372D01*
X158162Y199249D01*
X156668Y197755D01*
X153875D01*
Y202946D01*
G37*
G36*
X187986Y193000D02*X183618D01*
X183500Y193009D01*
X183029Y192972D01*
X182570Y192862D01*
X182134Y192681D01*
X181731Y192435D01*
X181731Y192434D01*
X181372Y192128D01*
X181296Y192038D01*
X167494Y178236D01*
X164284Y178231D01*
X164131Y178194D01*
X163986Y178134D01*
X163851Y178052D01*
X163732Y177949D01*
X163629Y177830D01*
X163547Y177695D01*
X163487Y177550D01*
X163450Y177397D01*
X163441Y177240D01*
X163450Y169603D01*
X163487Y169450D01*
X163547Y169305D01*
X163629Y169170D01*
X163732Y169051D01*
X163851Y168948D01*
X163986Y168866D01*
X164000Y168860D01*
Y162743D01*
X161257Y160000D01*
X153875D01*
Y168762D01*
X157906Y168769D01*
X158059Y168806D01*
X158204Y168866D01*
X158339Y168948D01*
X158458Y169051D01*
X158561Y169170D01*
X158643Y169305D01*
X158703Y169450D01*
X158740Y169603D01*
X158749Y169760D01*
X158740Y177397D01*
X158703Y177550D01*
X158643Y177695D01*
X158561Y177830D01*
X158458Y177949D01*
X158339Y178052D01*
X158204Y178134D01*
X158059Y178194D01*
X157906Y178231D01*
X157749Y178240D01*
X153875Y178233D01*
Y181445D01*
X155702D01*
X155790Y181438D01*
X156143Y181466D01*
X156143Y181466D01*
X156487Y181548D01*
X156815Y181684D01*
X157116Y181869D01*
X157386Y182099D01*
X157443Y182166D01*
X161344Y186067D01*
X161467Y186037D01*
X162095Y185988D01*
X162723Y186037D01*
X163335Y186184D01*
X163917Y186425D01*
X164453Y186754D01*
X164932Y187163D01*
X165341Y187642D01*
X165670Y188178D01*
X165911Y188760D01*
X166058Y189372D01*
X166095Y190000D01*
X166058Y190628D01*
X165911Y191240D01*
X165670Y191822D01*
X165341Y192358D01*
X164932Y192837D01*
X164453Y193246D01*
X163917Y193575D01*
X163335Y193816D01*
X162723Y193963D01*
X162095Y194012D01*
X161467Y193963D01*
X160855Y193816D01*
X160273Y193575D01*
X159737Y193246D01*
X159258Y192837D01*
X158849Y192358D01*
X158520Y191822D01*
X158279Y191240D01*
X158132Y190628D01*
X158083Y190000D01*
X158132Y189372D01*
X158162Y189249D01*
X154858Y185945D01*
X153875D01*
Y193255D01*
X157512D01*
X157600Y193248D01*
X157953Y193276D01*
X157953Y193276D01*
X158298Y193359D01*
X158625Y193494D01*
X158927Y193679D01*
X159196Y193909D01*
X159253Y193977D01*
X161344Y196067D01*
X161467Y196037D01*
X162095Y195988D01*
X162723Y196037D01*
X163335Y196184D01*
X163917Y196425D01*
X164453Y196754D01*
X164932Y197163D01*
X165341Y197642D01*
X165670Y198178D01*
X165911Y198760D01*
X166058Y199372D01*
X166095Y200000D01*
X166058Y200628D01*
X165911Y201240D01*
X165670Y201822D01*
X165341Y202358D01*
X165007Y202750D01*
X186063D01*
X187986Y200827D01*
Y193000D01*
G37*
G36*
X153875Y160000D02*X134041D01*
Y162790D01*
X135179Y162319D01*
X136572Y161984D01*
X138000Y161872D01*
X139428Y161984D01*
X140821Y162319D01*
X142144Y162867D01*
X143365Y163615D01*
X144455Y164545D01*
X145385Y165635D01*
X146133Y166856D01*
X146681Y168179D01*
X147016Y169572D01*
X147100Y171000D01*
X147016Y172428D01*
X146681Y173821D01*
X146133Y175144D01*
X145385Y176365D01*
X144455Y177455D01*
X143365Y178385D01*
X142144Y179133D01*
X140821Y179681D01*
X139428Y180016D01*
X138000Y180128D01*
X136572Y180016D01*
X135179Y179681D01*
X134041Y179210D01*
Y209777D01*
X138847Y204971D01*
X138904Y204904D01*
X139173Y204674D01*
X139173Y204674D01*
X139361Y204559D01*
X139475Y204489D01*
X139803Y204354D01*
X140147Y204271D01*
X140147D01*
X140500Y204243D01*
X140588Y204250D01*
X142952D01*
X142952Y203841D01*
X142989Y203688D01*
X143049Y203543D01*
X143131Y203408D01*
X143234Y203289D01*
X143353Y203186D01*
X143488Y203104D01*
X143633Y203044D01*
X143786Y203007D01*
X143943Y202998D01*
X150004Y203007D01*
X150157Y203044D01*
X150302Y203104D01*
X150437Y203186D01*
X150556Y203289D01*
X150659Y203408D01*
X150741Y203543D01*
X150801Y203688D01*
X150838Y203841D01*
X150847Y203998D01*
X150847Y204150D01*
X152463D01*
X153142Y203471D01*
X153199Y203404D01*
X153468Y203174D01*
X153468Y203174D01*
X153656Y203059D01*
X153770Y202989D01*
X153875Y202946D01*
Y197755D01*
X151127D01*
X151126Y198221D01*
X151089Y198374D01*
X151029Y198519D01*
X150947Y198654D01*
X150844Y198773D01*
X150725Y198876D01*
X150590Y198958D01*
X150445Y199018D01*
X150292Y199055D01*
X150135Y199064D01*
X142498Y199055D01*
X142345Y199018D01*
X142200Y198958D01*
X142065Y198876D01*
X141946Y198773D01*
X141843Y198654D01*
X141761Y198519D01*
X141701Y198374D01*
X141664Y198221D01*
X141655Y198064D01*
X141664Y192789D01*
X141701Y192636D01*
X141761Y192491D01*
X141843Y192356D01*
X141946Y192237D01*
X142065Y192134D01*
X142200Y192052D01*
X142345Y191992D01*
X142498Y191955D01*
X142655Y191946D01*
X150292Y191955D01*
X150445Y191992D01*
X150590Y192052D01*
X150725Y192134D01*
X150844Y192237D01*
X150947Y192356D01*
X151029Y192491D01*
X151089Y192636D01*
X151126Y192789D01*
X151135Y192946D01*
X151134Y193255D01*
X153875D01*
Y185945D01*
X151127D01*
X151126Y186411D01*
X151089Y186564D01*
X151029Y186709D01*
X150947Y186844D01*
X150844Y186963D01*
X150725Y187066D01*
X150590Y187148D01*
X150445Y187208D01*
X150292Y187245D01*
X150135Y187254D01*
X142498Y187245D01*
X142345Y187208D01*
X142200Y187148D01*
X142065Y187066D01*
X141946Y186963D01*
X141843Y186844D01*
X141761Y186709D01*
X141701Y186564D01*
X141664Y186411D01*
X141655Y186254D01*
X141664Y180979D01*
X141701Y180826D01*
X141761Y180681D01*
X141843Y180546D01*
X141946Y180427D01*
X142065Y180324D01*
X142200Y180242D01*
X142345Y180182D01*
X142498Y180145D01*
X142655Y180136D01*
X150292Y180145D01*
X150445Y180182D01*
X150590Y180242D01*
X150725Y180324D01*
X150844Y180427D01*
X150947Y180546D01*
X151029Y180681D01*
X151089Y180826D01*
X151126Y180979D01*
X151135Y181136D01*
X151134Y181445D01*
X153875D01*
Y178233D01*
X152474Y178231D01*
X152321Y178194D01*
X152176Y178134D01*
X152041Y178052D01*
X151922Y177949D01*
X151819Y177830D01*
X151737Y177695D01*
X151677Y177550D01*
X151640Y177397D01*
X151631Y177240D01*
X151640Y169603D01*
X151677Y169450D01*
X151737Y169305D01*
X151819Y169170D01*
X151922Y169051D01*
X152041Y168948D01*
X152176Y168866D01*
X152321Y168806D01*
X152474Y168769D01*
X152631Y168760D01*
X153875Y168762D01*
Y160000D01*
G37*
G36*
X187986Y158750D02*X168493D01*
X169038Y159296D01*
X169128Y159372D01*
X169434Y159731D01*
X169435Y159731D01*
X169681Y160134D01*
X169862Y160570D01*
X169972Y161029D01*
X170009Y161500D01*
X170000Y161618D01*
Y168860D01*
X170014Y168866D01*
X170149Y168948D01*
X170268Y169051D01*
X170371Y169170D01*
X170453Y169305D01*
X170513Y169450D01*
X170550Y169603D01*
X170559Y169760D01*
X170555Y172813D01*
X184743Y187000D01*
X187986D01*
Y180127D01*
X186572Y180016D01*
X185179Y179681D01*
X183856Y179133D01*
X182635Y178385D01*
X181545Y177455D01*
X180615Y176365D01*
X179867Y175144D01*
X179319Y173821D01*
X178984Y172428D01*
X178872Y171000D01*
X178984Y169572D01*
X179319Y168179D01*
X179867Y166856D01*
X180615Y165635D01*
X181545Y164545D01*
X182635Y163615D01*
X183856Y162867D01*
X185179Y162319D01*
X186572Y161984D01*
X187986Y161873D01*
Y158750D01*
G37*
G36*
X134041Y298910D02*X187986D01*
Y296127D01*
X186572Y296016D01*
X185179Y295681D01*
X183856Y295133D01*
X182635Y294385D01*
X181545Y293455D01*
X180615Y292365D01*
X179867Y291144D01*
X179319Y289821D01*
X178984Y288428D01*
X178872Y287000D01*
X178984Y285572D01*
X179319Y284179D01*
X179867Y282856D01*
X180615Y281635D01*
X181545Y280545D01*
X182635Y279615D01*
X183856Y278867D01*
X185179Y278319D01*
X186572Y277984D01*
X187986Y277873D01*
Y258352D01*
X167425Y278912D01*
X167349Y279002D01*
X166990Y279309D01*
X166587Y279555D01*
X166151Y279736D01*
X165692Y279846D01*
X165221Y279883D01*
X165103Y279874D01*
X134041D01*
Y298910D01*
G37*
G36*
Y263000D02*X121400D01*
X118246Y266154D01*
X118669Y265792D01*
X119200Y265467D01*
X119775Y265229D01*
X120380Y265084D01*
X121000Y265035D01*
X121620Y265084D01*
X122225Y265229D01*
X122800Y265467D01*
X123331Y265792D01*
X123574Y266000D01*
X134041D01*
Y263000D01*
G37*
G36*
X118488Y249000D02*X134041D01*
Y216141D01*
X131153Y219029D01*
X131096Y219096D01*
X130827Y219326D01*
X130525Y219511D01*
X130197Y219646D01*
X129853Y219729D01*
X129853Y219729D01*
X129500Y219757D01*
X129412Y219750D01*
X118488D01*
Y220876D01*
X118500Y220875D01*
X119771Y220975D01*
X121011Y221273D01*
X122189Y221761D01*
X123276Y222427D01*
X124245Y223255D01*
X125073Y224224D01*
X125739Y225311D01*
X126227Y226489D01*
X126525Y227729D01*
X126600Y229000D01*
X126525Y230271D01*
X126227Y231511D01*
X125739Y232689D01*
X125073Y233776D01*
X124245Y234745D01*
X123276Y235573D01*
X122189Y236239D01*
X121011Y236727D01*
X119771Y237025D01*
X118500Y237125D01*
X118488Y237124D01*
Y249000D01*
G37*
G36*
Y257505D02*X118791Y257319D01*
X119227Y257138D01*
X119597Y257049D01*
X119686Y257028D01*
X119686D01*
X120157Y256991D01*
X120275Y257000D01*
X134041D01*
Y255000D01*
X118488D01*
Y257505D01*
G37*
G36*
Y298910D02*X134041D01*
Y279874D01*
X128495D01*
X128252Y280082D01*
X127721Y280407D01*
X127146Y280645D01*
X126541Y280790D01*
X125921Y280839D01*
X125301Y280790D01*
X124696Y280645D01*
X124121Y280407D01*
X123590Y280082D01*
X123117Y279678D01*
X122713Y279205D01*
X122388Y278674D01*
X122150Y278099D01*
X122005Y277494D01*
X121956Y276874D01*
X122005Y276254D01*
X122150Y275649D01*
X122388Y275074D01*
X122713Y274543D01*
X123117Y274070D01*
X123590Y273666D01*
X124121Y273341D01*
X124696Y273103D01*
X125301Y272958D01*
X125921Y272909D01*
X126541Y272958D01*
X127146Y273103D01*
X127721Y273341D01*
X128252Y273666D01*
X128495Y273874D01*
X134041D01*
Y272000D01*
X123574D01*
X123331Y272208D01*
X122800Y272533D01*
X122225Y272771D01*
X121620Y272916D01*
X121000Y272965D01*
X120380Y272916D01*
X119775Y272771D01*
X119200Y272533D01*
X118669Y272208D01*
X118488Y272053D01*
Y273733D01*
X118883Y274070D01*
X119287Y274543D01*
X119612Y275074D01*
X119850Y275649D01*
X119995Y276254D01*
X120032Y276874D01*
X119995Y277494D01*
X119850Y278099D01*
X119612Y278674D01*
X119287Y279205D01*
X118883Y279678D01*
X118488Y280015D01*
Y298910D01*
G37*
G36*
Y272053D02*X118196Y271804D01*
X117792Y271331D01*
X117467Y270800D01*
X117229Y270225D01*
X117084Y269620D01*
X117035Y269000D01*
X117084Y268380D01*
X117229Y267775D01*
X117467Y267200D01*
X117792Y266669D01*
X118154Y266246D01*
X115105Y269295D01*
X115101Y272110D01*
X115064Y272263D01*
X115004Y272408D01*
X114922Y272543D01*
X114819Y272662D01*
X114700Y272765D01*
X114565Y272847D01*
X114420Y272907D01*
X114267Y272944D01*
X114110Y272953D01*
X108047Y272944D01*
X107894Y272907D01*
X107749Y272847D01*
X107614Y272765D01*
X107495Y272662D01*
X107392Y272543D01*
X107310Y272408D01*
X107250Y272263D01*
X107213Y272110D01*
X107204Y271953D01*
X107213Y265890D01*
X107250Y265737D01*
X107310Y265592D01*
X107392Y265457D01*
X107495Y265338D01*
X107614Y265235D01*
X107749Y265153D01*
X107894Y265093D01*
X108047Y265056D01*
X108204Y265047D01*
X110863Y265051D01*
X117953Y257962D01*
X118029Y257872D01*
X118388Y257565D01*
X118388Y257565D01*
X118488Y257505D01*
Y255000D01*
X115743D01*
X106000Y264743D01*
Y273257D01*
X106743Y274000D01*
X113357D01*
X113748Y273666D01*
X114279Y273341D01*
X114854Y273103D01*
X115459Y272958D01*
X116079Y272909D01*
X116699Y272958D01*
X117304Y273103D01*
X117879Y273341D01*
X118410Y273666D01*
X118488Y273733D01*
Y272053D01*
G37*
G36*
X96986Y298910D02*X118488D01*
Y280015D01*
X118410Y280082D01*
X117879Y280407D01*
X117304Y280645D01*
X116699Y280790D01*
X116079Y280839D01*
X115459Y280790D01*
X114854Y280645D01*
X114279Y280407D01*
X113748Y280082D01*
X113652Y280000D01*
X105618D01*
X105500Y280009D01*
X105029Y279972D01*
X104570Y279862D01*
X104134Y279681D01*
X103731Y279435D01*
X103731Y279434D01*
X103372Y279128D01*
X103296Y279038D01*
X100962Y276704D01*
X100872Y276628D01*
X100565Y276269D01*
X100319Y275866D01*
X100138Y275430D01*
X100028Y274971D01*
X100028Y274970D01*
X99991Y274500D01*
X100000Y274382D01*
Y263618D01*
X99991Y263500D01*
X100028Y263029D01*
Y263029D01*
X100034Y263005D01*
X100138Y262570D01*
X100319Y262134D01*
X100565Y261731D01*
X100566Y261731D01*
X100872Y261372D01*
X100962Y261296D01*
X112296Y249962D01*
X112372Y249872D01*
X112731Y249566D01*
X112731Y249565D01*
X113134Y249319D01*
X113570Y249138D01*
X114029Y249028D01*
X114500Y248991D01*
X114618Y249000D01*
X118488D01*
Y237124D01*
X117229Y237025D01*
X115989Y236727D01*
X114811Y236239D01*
X113724Y235573D01*
X112755Y234745D01*
X111927Y233776D01*
X111261Y232689D01*
X110773Y231511D01*
X110475Y230271D01*
X110375Y229000D01*
X110475Y227729D01*
X110773Y226489D01*
X111261Y225311D01*
X111927Y224224D01*
X112755Y223255D01*
X113724Y222427D01*
X114811Y221761D01*
X115989Y221273D01*
X117229Y220975D01*
X118488Y220876D01*
Y219750D01*
X96986D01*
Y232873D01*
X97000Y232872D01*
X98428Y232984D01*
X99821Y233319D01*
X101144Y233867D01*
X102365Y234615D01*
X103455Y235545D01*
X104385Y236635D01*
X105133Y237856D01*
X105681Y239179D01*
X106016Y240572D01*
X106100Y242000D01*
X106016Y243428D01*
X105681Y244821D01*
X105133Y246144D01*
X104385Y247365D01*
X103455Y248455D01*
X102365Y249385D01*
X101144Y250133D01*
X99821Y250681D01*
X98428Y251016D01*
X97000Y251128D01*
X96986Y251127D01*
Y298910D01*
G37*
G36*
X122493Y215250D02*X128568D01*
X134041Y209777D01*
Y179210D01*
X133856Y179133D01*
X132635Y178385D01*
X131545Y177455D01*
X130615Y176365D01*
X129867Y175144D01*
X129319Y173821D01*
X128984Y172428D01*
X128872Y171000D01*
X128984Y169572D01*
X129319Y168179D01*
X129867Y166856D01*
X130615Y165635D01*
X131545Y164545D01*
X132635Y163615D01*
X133856Y162867D01*
X134041Y162790D01*
Y160000D01*
X122493D01*
Y188736D01*
X122500Y188735D01*
X123245Y188794D01*
X123972Y188969D01*
X124663Y189255D01*
X125301Y189645D01*
X125869Y190131D01*
X126355Y190699D01*
X126745Y191337D01*
X127031Y192028D01*
X127206Y192755D01*
X127250Y193500D01*
X127206Y194245D01*
X127031Y194972D01*
X126745Y195663D01*
X126355Y196301D01*
X125869Y196869D01*
X125301Y197355D01*
X124663Y197745D01*
X123972Y198031D01*
X123245Y198206D01*
X122500Y198265D01*
X122493Y198264D01*
Y200536D01*
X122500Y200535D01*
X123245Y200594D01*
X123743Y200713D01*
X123972Y200769D01*
X124663Y201055D01*
X125301Y201445D01*
X125869Y201931D01*
X126355Y202499D01*
X126745Y203137D01*
X127031Y203828D01*
X127206Y204555D01*
X127250Y205300D01*
X127206Y206045D01*
X127031Y206772D01*
X126745Y207463D01*
X126355Y208101D01*
X125869Y208669D01*
X125301Y209155D01*
X124663Y209545D01*
X123972Y209831D01*
X123743Y209887D01*
X123245Y210006D01*
X122500Y210065D01*
X122493Y210064D01*
Y215250D01*
G37*
G36*
X107500Y165882D02*X107528Y165529D01*
Y165529D01*
X107549Y165440D01*
X107638Y165070D01*
X107819Y164634D01*
X108065Y164231D01*
X108065Y164231D01*
X108372Y163872D01*
X108462Y163796D01*
X113507Y158750D01*
X107500D01*
Y165882D01*
G37*
G36*
X111733Y186509D02*X108485Y189758D01*
X108463Y190128D01*
X108316Y190740D01*
X108075Y191322D01*
X107746Y191858D01*
X107500Y192146D01*
Y195541D01*
X111397Y195545D01*
X111550Y195582D01*
X111695Y195642D01*
X111830Y195724D01*
X111949Y195827D01*
X112052Y195946D01*
X112134Y196081D01*
X112194Y196226D01*
X112231Y196379D01*
X112240Y196536D01*
X112231Y201811D01*
X112194Y201964D01*
X112134Y202109D01*
X112052Y202244D01*
X111949Y202363D01*
X111830Y202466D01*
X111695Y202548D01*
X111550Y202608D01*
X111397Y202645D01*
X111240Y202654D01*
X107500Y202649D01*
Y207351D01*
X111397Y207355D01*
X111550Y207392D01*
X111695Y207452D01*
X111830Y207534D01*
X111949Y207637D01*
X112052Y207756D01*
X112134Y207891D01*
X112194Y208036D01*
X112231Y208189D01*
X112240Y208346D01*
X112231Y213621D01*
X112194Y213774D01*
X112134Y213919D01*
X112052Y214054D01*
X111949Y214173D01*
X111830Y214276D01*
X111695Y214358D01*
X111550Y214418D01*
X111397Y214455D01*
X111240Y214464D01*
X107500Y214459D01*
Y215250D01*
X122493D01*
Y210064D01*
X121755Y210006D01*
X121028Y209831D01*
X120337Y209545D01*
X119699Y209155D01*
X119131Y208669D01*
X118645Y208101D01*
X118255Y207463D01*
X117969Y206772D01*
X117794Y206045D01*
X117735Y205300D01*
X117794Y204555D01*
X117969Y203828D01*
X118255Y203137D01*
X118645Y202499D01*
X119131Y201931D01*
X119699Y201445D01*
X120337Y201055D01*
X121028Y200769D01*
X121755Y200594D01*
X122493Y200536D01*
Y198264D01*
X121755Y198206D01*
X121028Y198031D01*
X120337Y197745D01*
X119699Y197355D01*
X119131Y196869D01*
X118645Y196301D01*
X118255Y195663D01*
X117969Y194972D01*
X117794Y194245D01*
X117735Y193500D01*
X117794Y192755D01*
X117969Y192028D01*
X118255Y191337D01*
X118645Y190699D01*
X119131Y190131D01*
X119699Y189645D01*
X120337Y189255D01*
X121028Y188969D01*
X121755Y188794D01*
X122493Y188736D01*
Y160000D01*
X120743D01*
X113500Y167243D01*
Y183382D01*
X113509Y183500D01*
X113472Y183971D01*
X113472Y183971D01*
X113362Y184430D01*
X113181Y184866D01*
X112935Y185269D01*
X112628Y185628D01*
X112538Y185704D01*
X111733Y186509D01*
G37*
G36*
X107500Y202649D02*X103603Y202645D01*
X103450Y202608D01*
X103305Y202548D01*
X103170Y202466D01*
X103051Y202363D01*
X102948Y202244D01*
X102866Y202109D01*
X102860Y202095D01*
X100035D01*
X99858Y202246D01*
X99322Y202575D01*
X98740Y202816D01*
X98128Y202963D01*
X97500Y203012D01*
X96986Y202972D01*
Y215250D01*
X107500D01*
Y214459D01*
X103603Y214455D01*
X103450Y214418D01*
X103305Y214358D01*
X103170Y214276D01*
X103051Y214173D01*
X102948Y214054D01*
X102866Y213919D01*
X102806Y213774D01*
X102769Y213621D01*
X102760Y213464D01*
X102769Y208189D01*
X102806Y208036D01*
X102866Y207891D01*
X102948Y207756D01*
X103051Y207637D01*
X103170Y207534D01*
X103305Y207452D01*
X103450Y207392D01*
X103603Y207355D01*
X103760Y207346D01*
X107500Y207351D01*
Y202649D01*
G37*
G36*
X105890Y183868D02*X107500Y182257D01*
Y166118D01*
X107491Y166000D01*
X107500Y165882D01*
Y158750D01*
X105890D01*
Y163891D01*
X105933Y163909D01*
X106134Y164033D01*
X106314Y164186D01*
X106467Y164366D01*
X106591Y164567D01*
X106681Y164785D01*
X106736Y165015D01*
X106750Y165250D01*
X106736Y170985D01*
X106681Y171215D01*
X106591Y171433D01*
X106467Y171634D01*
X106314Y171814D01*
X106134Y171967D01*
X105933Y172091D01*
X105890Y172109D01*
Y176035D01*
X105981Y176053D01*
X106092Y176093D01*
X106195Y176151D01*
X106288Y176223D01*
X106369Y176310D01*
X106435Y176408D01*
X106482Y176515D01*
X106603Y176875D01*
X106687Y177245D01*
X106737Y177621D01*
X106754Y178000D01*
X106737Y178379D01*
X106687Y178755D01*
X106603Y179125D01*
X106486Y179486D01*
X106437Y179594D01*
X106371Y179692D01*
X106290Y179779D01*
X106197Y179852D01*
X106093Y179909D01*
X105982Y179950D01*
X105890Y179968D01*
Y183868D01*
G37*
G36*
Y158750D02*X102501D01*
Y163757D01*
X105485Y163764D01*
X105715Y163819D01*
X105890Y163891D01*
Y158750D01*
G37*
G36*
X102501Y186033D02*X102678Y185925D01*
X103260Y185684D01*
X103872Y185537D01*
X104250Y185507D01*
X105890Y183868D01*
Y179968D01*
X105866Y179973D01*
X105747Y179977D01*
X105630Y179963D01*
X105516Y179930D01*
X105408Y179880D01*
X105310Y179814D01*
X105223Y179733D01*
X105150Y179640D01*
X105093Y179536D01*
X105052Y179425D01*
X105029Y179309D01*
X105025Y179190D01*
X105039Y179073D01*
X105074Y178960D01*
X105152Y178727D01*
X105206Y178488D01*
X105239Y178245D01*
X105250Y178000D01*
X105239Y177755D01*
X105206Y177512D01*
X105152Y177273D01*
X105077Y177039D01*
X105042Y176927D01*
X105028Y176810D01*
X105032Y176692D01*
X105055Y176576D01*
X105095Y176465D01*
X105153Y176362D01*
X105225Y176269D01*
X105312Y176188D01*
X105410Y176122D01*
X105517Y176073D01*
X105630Y176040D01*
X105747Y176026D01*
X105865Y176030D01*
X105890Y176035D01*
Y172109D01*
X105715Y172181D01*
X105485Y172236D01*
X105250Y172250D01*
X102501Y172243D01*
Y173746D01*
X102879Y173763D01*
X103255Y173813D01*
X103625Y173897D01*
X103986Y174014D01*
X104094Y174063D01*
X104192Y174129D01*
X104279Y174210D01*
X104352Y174303D01*
X104409Y174407D01*
X104450Y174518D01*
X104473Y174634D01*
X104477Y174753D01*
X104463Y174870D01*
X104430Y174984D01*
X104380Y175092D01*
X104314Y175190D01*
X104233Y175277D01*
X104140Y175350D01*
X104036Y175407D01*
X103925Y175448D01*
X103809Y175471D01*
X103690Y175475D01*
X103573Y175461D01*
X103460Y175426D01*
X103227Y175348D01*
X102988Y175294D01*
X102745Y175261D01*
X102501Y175250D01*
Y180750D01*
X102745Y180739D01*
X102988Y180706D01*
X103227Y180652D01*
X103461Y180577D01*
X103573Y180542D01*
X103690Y180528D01*
X103808Y180532D01*
X103924Y180555D01*
X104035Y180595D01*
X104138Y180653D01*
X104231Y180725D01*
X104312Y180812D01*
X104378Y180910D01*
X104427Y181017D01*
X104460Y181130D01*
X104474Y181247D01*
X104470Y181365D01*
X104447Y181481D01*
X104407Y181592D01*
X104349Y181695D01*
X104277Y181788D01*
X104190Y181869D01*
X104092Y181935D01*
X103985Y181982D01*
X103625Y182103D01*
X103255Y182187D01*
X102879Y182237D01*
X102501Y182254D01*
Y186033D01*
G37*
G36*
X107500Y192146D02*X107337Y192337D01*
X106858Y192746D01*
X106322Y193075D01*
X105740Y193316D01*
X105128Y193463D01*
X104500Y193512D01*
X103872Y193463D01*
X103260Y193316D01*
X102678Y193075D01*
X102501Y192967D01*
Y196095D01*
X102860D01*
X102866Y196081D01*
X102948Y195946D01*
X103051Y195827D01*
X103170Y195724D01*
X103305Y195642D01*
X103450Y195582D01*
X103603Y195545D01*
X103760Y195536D01*
X107500Y195541D01*
Y192146D01*
G37*
G36*
X102501Y158750D02*X96986D01*
Y165095D01*
X98264D01*
X98264Y165015D01*
X98319Y164785D01*
X98409Y164567D01*
X98533Y164366D01*
X98686Y164186D01*
X98866Y164033D01*
X99067Y163909D01*
X99285Y163819D01*
X99515Y163764D01*
X99750Y163750D01*
X102501Y163757D01*
Y158750D01*
G37*
G36*
Y192967D02*X102142Y192746D01*
X101663Y192337D01*
X101254Y191858D01*
X100925Y191322D01*
X100684Y190740D01*
X100537Y190128D01*
X100488Y189500D01*
X100537Y188872D01*
X100684Y188260D01*
X100925Y187678D01*
X101254Y187142D01*
X101663Y186663D01*
X102142Y186254D01*
X102501Y186033D01*
Y182254D01*
X102500Y182254D01*
X102121Y182237D01*
X101745Y182187D01*
X101375Y182103D01*
X101014Y181986D01*
X100906Y181937D01*
X100808Y181871D01*
X100721Y181790D01*
X100648Y181697D01*
X100591Y181593D01*
X100550Y181482D01*
X100527Y181366D01*
X100523Y181247D01*
X100537Y181130D01*
X100570Y181016D01*
X100620Y180908D01*
X100686Y180810D01*
X100767Y180723D01*
X100860Y180650D01*
X100964Y180593D01*
X101075Y180552D01*
X101191Y180529D01*
X101310Y180525D01*
X101427Y180539D01*
X101540Y180574D01*
X101773Y180652D01*
X102012Y180706D01*
X102255Y180739D01*
X102500Y180750D01*
X102501Y180750D01*
Y175250D01*
X102500Y175250D01*
X102255Y175261D01*
X102012Y175294D01*
X101773Y175348D01*
X101539Y175423D01*
X101427Y175458D01*
X101310Y175472D01*
X101192Y175468D01*
X101076Y175445D01*
X100965Y175405D01*
X100862Y175347D01*
X100769Y175275D01*
X100688Y175188D01*
X100622Y175090D01*
X100573Y174983D01*
X100540Y174870D01*
X100526Y174753D01*
X100530Y174635D01*
X100553Y174519D01*
X100593Y174408D01*
X100650Y174305D01*
X100723Y174212D01*
X100810Y174131D01*
X100908Y174065D01*
X101015Y174018D01*
X101375Y173897D01*
X101745Y173813D01*
X102121Y173763D01*
X102500Y173746D01*
X102501Y173746D01*
Y172243D01*
X99515Y172236D01*
X99285Y172181D01*
X99110Y172109D01*
Y176032D01*
X99134Y176027D01*
X99253Y176023D01*
X99370Y176037D01*
X99484Y176070D01*
X99592Y176120D01*
X99690Y176186D01*
X99777Y176267D01*
X99850Y176360D01*
X99907Y176464D01*
X99948Y176575D01*
X99971Y176691D01*
X99975Y176810D01*
X99961Y176927D01*
X99926Y177040D01*
X99848Y177273D01*
X99794Y177512D01*
X99761Y177755D01*
X99750Y178000D01*
X99761Y178245D01*
X99794Y178488D01*
X99848Y178727D01*
X99923Y178961D01*
X99958Y179073D01*
X99972Y179190D01*
X99968Y179308D01*
X99945Y179424D01*
X99905Y179535D01*
X99847Y179638D01*
X99775Y179731D01*
X99688Y179812D01*
X99590Y179878D01*
X99483Y179927D01*
X99370Y179960D01*
X99253Y179974D01*
X99135Y179970D01*
X99110Y179965D01*
Y188273D01*
X99538Y188701D01*
X99628Y188777D01*
X99934Y189136D01*
X99935Y189136D01*
X100181Y189539D01*
X100362Y189975D01*
X100472Y190434D01*
X100509Y190905D01*
X100500Y191023D01*
Y196095D01*
X102501D01*
Y192967D01*
G37*
G36*
X99110Y172109D02*X99067Y172091D01*
X98866Y171967D01*
X98686Y171814D01*
X98533Y171634D01*
X98409Y171433D01*
X98319Y171215D01*
X98290Y171095D01*
X96986D01*
Y186148D01*
X99110Y188273D01*
Y179965D01*
X99019Y179947D01*
X98908Y179907D01*
X98805Y179850D01*
X98712Y179777D01*
X98631Y179690D01*
X98565Y179592D01*
X98518Y179485D01*
X98397Y179125D01*
X98313Y178755D01*
X98263Y178379D01*
X98246Y178000D01*
X98263Y177621D01*
X98313Y177245D01*
X98397Y176875D01*
X98514Y176514D01*
X98563Y176406D01*
X98629Y176308D01*
X98710Y176221D01*
X98803Y176148D01*
X98907Y176091D01*
X99018Y176050D01*
X99110Y176032D01*
Y172109D01*
G37*
G36*
X64230Y185834D02*X64243Y185811D01*
X64346Y185692D01*
X64465Y185589D01*
X64600Y185507D01*
X64745Y185447D01*
X64898Y185410D01*
X65055Y185401D01*
X73480Y185410D01*
X73633Y185447D01*
X73778Y185507D01*
X73913Y185589D01*
X74032Y185692D01*
X74135Y185811D01*
X74217Y185946D01*
X74277Y186091D01*
X74314Y186244D01*
X74323Y186401D01*
X74315Y194443D01*
X80816Y187941D01*
X80925Y187678D01*
X80958Y187625D01*
X80866Y187681D01*
X80430Y187862D01*
X79971Y187972D01*
X79500Y188009D01*
X79029Y187972D01*
X78570Y187862D01*
X78134Y187681D01*
X77731Y187435D01*
X77379Y187121D01*
X73757Y183500D01*
X68618D01*
X68500Y183509D01*
X68029Y183472D01*
X67570Y183362D01*
X67134Y183181D01*
X66731Y182935D01*
X66731Y182934D01*
X66372Y182628D01*
X66296Y182538D01*
X64230Y180473D01*
Y185834D01*
G37*
G36*
Y206622D02*X65041Y205811D01*
X65045Y202603D01*
X65082Y202450D01*
X65142Y202305D01*
X65224Y202170D01*
X65327Y202051D01*
X65446Y201948D01*
X65500Y201916D01*
Y200618D01*
X65491Y200500D01*
X65528Y200029D01*
Y200029D01*
X65549Y199940D01*
X65638Y199570D01*
X65819Y199134D01*
X66065Y198731D01*
X66065Y198731D01*
X66372Y198372D01*
X66462Y198296D01*
X67796Y196962D01*
X67872Y196872D01*
X68231Y196566D01*
X68231Y196565D01*
X68634Y196319D01*
X69070Y196138D01*
X69401Y196059D01*
X64898Y196054D01*
X64745Y196017D01*
X64600Y195957D01*
X64465Y195875D01*
X64346Y195772D01*
X64243Y195653D01*
X64230Y195630D01*
Y199714D01*
X64298Y199728D01*
X64371Y199755D01*
X64440Y199794D01*
X64502Y199843D01*
X64555Y199901D01*
X64598Y199966D01*
X64630Y200038D01*
X64706Y200271D01*
X64760Y200511D01*
X64792Y200755D01*
X64803Y201000D01*
X64792Y201245D01*
X64760Y201489D01*
X64706Y201729D01*
X64632Y201963D01*
X64600Y202035D01*
X64556Y202100D01*
X64503Y202159D01*
X64441Y202208D01*
X64372Y202246D01*
X64298Y202274D01*
X64230Y202288D01*
Y206622D01*
G37*
G36*
X62001Y208851D02*X64230Y206622D01*
Y202288D01*
X64221Y202290D01*
X64142Y202293D01*
X64063Y202284D01*
X63987Y202263D01*
X63915Y202230D01*
X63850Y202186D01*
X63791Y202133D01*
X63742Y202071D01*
X63704Y202002D01*
X63676Y201928D01*
X63660Y201851D01*
X63657Y201772D01*
X63666Y201693D01*
X63689Y201618D01*
X63738Y201468D01*
X63772Y201314D01*
X63793Y201158D01*
X63800Y201000D01*
X63793Y200842D01*
X63772Y200686D01*
X63738Y200532D01*
X63690Y200382D01*
X63668Y200306D01*
X63659Y200228D01*
X63662Y200150D01*
X63678Y200073D01*
X63705Y199999D01*
X63744Y199930D01*
X63793Y199869D01*
X63851Y199815D01*
X63916Y199772D01*
X63988Y199739D01*
X64064Y199718D01*
X64142Y199709D01*
X64220Y199712D01*
X64230Y199714D01*
Y195630D01*
X64161Y195518D01*
X64101Y195373D01*
X64064Y195220D01*
X64055Y195063D01*
X64064Y186244D01*
X64101Y186091D01*
X64161Y185946D01*
X64230Y185834D01*
Y180473D01*
X62001Y178244D01*
Y178620D01*
X62289Y179090D01*
X62527Y179665D01*
X62672Y180270D01*
X62709Y180890D01*
X62672Y181510D01*
X62527Y182115D01*
X62289Y182690D01*
X62001Y183160D01*
Y198197D01*
X62245Y198208D01*
X62489Y198240D01*
X62729Y198294D01*
X62963Y198368D01*
X63035Y198400D01*
X63100Y198444D01*
X63159Y198497D01*
X63208Y198559D01*
X63246Y198628D01*
X63274Y198702D01*
X63290Y198779D01*
X63293Y198858D01*
X63284Y198937D01*
X63263Y199013D01*
X63230Y199085D01*
X63186Y199150D01*
X63133Y199209D01*
X63071Y199258D01*
X63002Y199296D01*
X62928Y199324D01*
X62851Y199340D01*
X62772Y199343D01*
X62693Y199334D01*
X62618Y199311D01*
X62468Y199262D01*
X62314Y199228D01*
X62158Y199207D01*
X62001Y199200D01*
Y202800D01*
X62158Y202793D01*
X62314Y202772D01*
X62468Y202738D01*
X62618Y202690D01*
X62694Y202668D01*
X62772Y202659D01*
X62850Y202662D01*
X62927Y202678D01*
X63001Y202705D01*
X63070Y202744D01*
X63131Y202793D01*
X63185Y202851D01*
X63228Y202916D01*
X63261Y202988D01*
X63282Y203064D01*
X63291Y203142D01*
X63288Y203220D01*
X63272Y203298D01*
X63245Y203371D01*
X63206Y203440D01*
X63157Y203502D01*
X63099Y203555D01*
X63034Y203598D01*
X62962Y203630D01*
X62729Y203706D01*
X62489Y203760D01*
X62245Y203792D01*
X62001Y203803D01*
Y208851D01*
G37*
G36*
Y178244D02*X61757Y178000D01*
X61459D01*
X61560Y178086D01*
X61964Y178559D01*
X62001Y178620D01*
Y178244D01*
G37*
G36*
X59770Y211082D02*X62001Y208851D01*
Y203803D01*
X62000Y203803D01*
X61755Y203792D01*
X61511Y203760D01*
X61271Y203706D01*
X61037Y203632D01*
X60965Y203600D01*
X60900Y203556D01*
X60841Y203503D01*
X60792Y203441D01*
X60754Y203372D01*
X60726Y203298D01*
X60710Y203221D01*
X60707Y203142D01*
X60716Y203063D01*
X60737Y202987D01*
X60770Y202915D01*
X60814Y202850D01*
X60867Y202791D01*
X60929Y202742D01*
X60998Y202704D01*
X61072Y202676D01*
X61149Y202660D01*
X61228Y202657D01*
X61307Y202666D01*
X61382Y202689D01*
X61532Y202738D01*
X61686Y202772D01*
X61842Y202793D01*
X62000Y202800D01*
X62001Y202800D01*
Y199200D01*
X62000Y199200D01*
X61842Y199207D01*
X61686Y199228D01*
X61532Y199262D01*
X61382Y199310D01*
X61306Y199332D01*
X61228Y199341D01*
X61150Y199338D01*
X61073Y199322D01*
X60999Y199295D01*
X60930Y199256D01*
X60869Y199207D01*
X60815Y199149D01*
X60772Y199084D01*
X60739Y199012D01*
X60718Y198936D01*
X60709Y198858D01*
X60712Y198780D01*
X60728Y198702D01*
X60755Y198629D01*
X60794Y198560D01*
X60843Y198498D01*
X60901Y198445D01*
X60966Y198402D01*
X61038Y198370D01*
X61271Y198294D01*
X61511Y198240D01*
X61755Y198208D01*
X62000Y198197D01*
X62001Y198197D01*
Y183160D01*
X61964Y183221D01*
X61560Y183694D01*
X61087Y184098D01*
X60556Y184423D01*
X59981Y184661D01*
X59770Y184712D01*
Y199712D01*
X59779Y199710D01*
X59858Y199707D01*
X59937Y199716D01*
X60013Y199737D01*
X60085Y199770D01*
X60150Y199814D01*
X60209Y199867D01*
X60258Y199929D01*
X60296Y199998D01*
X60324Y200072D01*
X60340Y200149D01*
X60343Y200228D01*
X60334Y200307D01*
X60311Y200382D01*
X60262Y200532D01*
X60228Y200686D01*
X60207Y200842D01*
X60200Y201000D01*
X60207Y201158D01*
X60228Y201314D01*
X60262Y201468D01*
X60310Y201618D01*
X60332Y201694D01*
X60341Y201772D01*
X60338Y201850D01*
X60322Y201927D01*
X60295Y202001D01*
X60256Y202070D01*
X60207Y202131D01*
X60149Y202185D01*
X60084Y202228D01*
X60012Y202261D01*
X59936Y202282D01*
X59858Y202291D01*
X59780Y202288D01*
X59770Y202286D01*
Y211082D01*
G37*
G36*
X48986Y216000D02*X54852D01*
X59770Y211082D01*
Y202286D01*
X59702Y202272D01*
X59629Y202245D01*
X59560Y202206D01*
X59498Y202157D01*
X59445Y202099D01*
X59402Y202034D01*
X59370Y201962D01*
X59294Y201729D01*
X59240Y201489D01*
X59208Y201245D01*
X59197Y201000D01*
X59208Y200755D01*
X59240Y200511D01*
X59294Y200271D01*
X59368Y200037D01*
X59400Y199965D01*
X59444Y199900D01*
X59497Y199841D01*
X59559Y199792D01*
X59628Y199754D01*
X59702Y199726D01*
X59770Y199712D01*
Y184712D01*
X59376Y184806D01*
X58756Y184855D01*
X58136Y184806D01*
X57531Y184661D01*
X56956Y184423D01*
X56425Y184098D01*
X55952Y183694D01*
X55548Y183221D01*
X55260Y182751D01*
Y186984D01*
X56551Y186985D01*
X56704Y187022D01*
X56849Y187082D01*
X56984Y187164D01*
X57103Y187267D01*
X57206Y187386D01*
X57288Y187521D01*
X57348Y187666D01*
X57385Y187819D01*
X57394Y187976D01*
X57385Y196795D01*
X57348Y196948D01*
X57288Y197093D01*
X57206Y197228D01*
X57103Y197347D01*
X56984Y197450D01*
X56849Y197532D01*
X56704Y197592D01*
X56551Y197629D01*
X56394Y197638D01*
X48986Y197630D01*
Y216000D01*
G37*
G36*
X73096Y226241D02*X73163Y226163D01*
X73642Y225754D01*
X74178Y225425D01*
X74760Y225184D01*
X75372Y225037D01*
X76000Y224988D01*
X76628Y225037D01*
X76751Y225067D01*
X85847Y215971D01*
X85904Y215904D01*
X86173Y215674D01*
X86173Y215674D01*
X86361Y215559D01*
X86475Y215489D01*
X86803Y215354D01*
X87147Y215271D01*
X87147D01*
X87500Y215243D01*
X87588Y215250D01*
X96986D01*
Y202972D01*
X96872Y202963D01*
X96260Y202816D01*
X95678Y202575D01*
X95142Y202246D01*
X94663Y201837D01*
X94254Y201358D01*
X93925Y200822D01*
X93684Y200240D01*
X93537Y199628D01*
X93488Y199000D01*
X93537Y198372D01*
X93684Y197760D01*
X93925Y197178D01*
X94254Y196642D01*
X94500Y196354D01*
Y192148D01*
X85811Y183459D01*
X82603Y183455D01*
X82450Y183418D01*
X82305Y183358D01*
X82170Y183276D01*
X82051Y183173D01*
X81948Y183054D01*
X81866Y182919D01*
X81806Y182774D01*
X81769Y182621D01*
X81763Y182509D01*
X81762Y182500D01*
X81243D01*
X81621Y182879D01*
X81935Y183231D01*
X82181Y183634D01*
X82362Y184070D01*
X82472Y184529D01*
X82509Y185000D01*
X82472Y185471D01*
X82362Y185930D01*
X82257Y186183D01*
X82678Y185925D01*
X83260Y185684D01*
X83872Y185537D01*
X84500Y185488D01*
X85128Y185537D01*
X85740Y185684D01*
X86322Y185925D01*
X86858Y186254D01*
X87337Y186663D01*
X87746Y187142D01*
X88075Y187678D01*
X88316Y188260D01*
X88463Y188872D01*
X88500Y189500D01*
X88463Y190128D01*
X88316Y190740D01*
X88075Y191322D01*
X87746Y191858D01*
X87337Y192337D01*
X86858Y192746D01*
X86322Y193075D01*
X85740Y193316D01*
X85128Y193463D01*
X84500Y193512D01*
X83872Y193463D01*
X83798Y193445D01*
X76204Y201038D01*
X76128Y201128D01*
X75769Y201435D01*
X75366Y201681D01*
X74930Y201862D01*
X74471Y201972D01*
X74000Y202009D01*
X73882Y202000D01*
X73096D01*
Y216241D01*
X73163Y216163D01*
X73642Y215754D01*
X74178Y215425D01*
X74760Y215184D01*
X75372Y215037D01*
X75750Y215007D01*
X77405Y213352D01*
Y211140D01*
X77391Y211134D01*
X77256Y211052D01*
X77137Y210949D01*
X77034Y210830D01*
X76952Y210695D01*
X76892Y210550D01*
X76855Y210397D01*
X76846Y210240D01*
X76855Y202603D01*
X76892Y202450D01*
X76952Y202305D01*
X77034Y202170D01*
X77137Y202051D01*
X77256Y201948D01*
X77391Y201866D01*
X77536Y201806D01*
X77689Y201769D01*
X77846Y201760D01*
X83121Y201769D01*
X83274Y201806D01*
X83419Y201866D01*
X83554Y201948D01*
X83673Y202051D01*
X83776Y202170D01*
X83858Y202305D01*
X83918Y202450D01*
X83955Y202603D01*
X83964Y202760D01*
X83955Y210397D01*
X83918Y210550D01*
X83858Y210695D01*
X83776Y210830D01*
X83673Y210949D01*
X83554Y211052D01*
X83419Y211134D01*
X83405Y211140D01*
Y214477D01*
X83414Y214595D01*
X83377Y215066D01*
X83377Y215066D01*
Y215066D01*
X83306Y215361D01*
X83267Y215525D01*
X83267Y215525D01*
X83267Y215525D01*
X83183Y215727D01*
X83086Y215961D01*
X83086Y215961D01*
X83086Y215961D01*
X82986Y216125D01*
X82840Y216364D01*
X82840Y216364D01*
X82840Y216364D01*
X82533Y216723D01*
X82443Y216799D01*
X79985Y219258D01*
X79963Y219628D01*
X79816Y220240D01*
X79575Y220822D01*
X79246Y221358D01*
X78837Y221837D01*
X78358Y222246D01*
X77822Y222575D01*
X77240Y222816D01*
X76628Y222963D01*
X76000Y223012D01*
X75372Y222963D01*
X74760Y222816D01*
X74178Y222575D01*
X73642Y222246D01*
X73163Y221837D01*
X73096Y221759D01*
Y226241D01*
G37*
G36*
X79230Y298910D02*X96986D01*
Y251127D01*
X95572Y251016D01*
X94179Y250681D01*
X92856Y250133D01*
X91635Y249385D01*
X90545Y248455D01*
X89615Y247365D01*
X88867Y246144D01*
X88319Y244821D01*
X87984Y243428D01*
X87872Y242000D01*
X87984Y240572D01*
X88319Y239179D01*
X88867Y237856D01*
X89615Y236635D01*
X90545Y235545D01*
X91635Y234615D01*
X92856Y233867D01*
X94179Y233319D01*
X95572Y232984D01*
X96986Y232873D01*
Y219750D01*
X88432D01*
X79933Y228249D01*
X79963Y228372D01*
X80000Y229000D01*
X79963Y229628D01*
X79816Y230240D01*
X79575Y230822D01*
X79246Y231358D01*
X79230Y231377D01*
Y236623D01*
X79246Y236642D01*
X79575Y237178D01*
X79816Y237760D01*
X79963Y238372D01*
X80000Y239000D01*
X79963Y239628D01*
X79816Y240240D01*
X79575Y240822D01*
X79246Y241358D01*
X79230Y241377D01*
Y246623D01*
X79246Y246642D01*
X79575Y247178D01*
X79816Y247760D01*
X79963Y248372D01*
X80000Y249000D01*
X79963Y249628D01*
X79816Y250240D01*
X79575Y250822D01*
X79246Y251358D01*
X79230Y251377D01*
Y265714D01*
X79298Y265728D01*
X79371Y265755D01*
X79440Y265794D01*
X79502Y265843D01*
X79555Y265901D01*
X79598Y265966D01*
X79630Y266038D01*
X79706Y266271D01*
X79760Y266511D01*
X79792Y266755D01*
X79803Y267000D01*
X79792Y267245D01*
X79760Y267489D01*
X79706Y267729D01*
X79632Y267963D01*
X79600Y268035D01*
X79556Y268100D01*
X79503Y268159D01*
X79441Y268208D01*
X79372Y268246D01*
X79298Y268274D01*
X79230Y268288D01*
Y298910D01*
G37*
G36*
Y241377D02*X78837Y241837D01*
X78358Y242246D01*
X77822Y242575D01*
X77240Y242816D01*
X77001Y242873D01*
Y245127D01*
X77240Y245184D01*
X77822Y245425D01*
X78358Y245754D01*
X78837Y246163D01*
X79230Y246623D01*
Y241377D01*
G37*
G36*
Y231377D02*X78837Y231837D01*
X78358Y232246D01*
X77822Y232575D01*
X77240Y232816D01*
X77001Y232873D01*
Y235127D01*
X77240Y235184D01*
X77822Y235425D01*
X78358Y235754D01*
X78837Y236163D01*
X79230Y236623D01*
Y231377D01*
G37*
G36*
X77001Y298910D02*X79230D01*
Y268288D01*
X79221Y268290D01*
X79142Y268293D01*
X79063Y268284D01*
X78987Y268263D01*
X78915Y268230D01*
X78850Y268186D01*
X78791Y268133D01*
X78742Y268071D01*
X78704Y268002D01*
X78676Y267928D01*
X78660Y267851D01*
X78657Y267772D01*
X78666Y267693D01*
X78689Y267618D01*
X78738Y267468D01*
X78772Y267314D01*
X78793Y267158D01*
X78800Y267000D01*
X78793Y266842D01*
X78772Y266686D01*
X78738Y266532D01*
X78690Y266382D01*
X78668Y266306D01*
X78659Y266228D01*
X78662Y266150D01*
X78678Y266073D01*
X78705Y265999D01*
X78744Y265930D01*
X78793Y265869D01*
X78851Y265815D01*
X78916Y265772D01*
X78988Y265739D01*
X79064Y265718D01*
X79142Y265709D01*
X79220Y265712D01*
X79230Y265714D01*
Y251377D01*
X78837Y251837D01*
X78358Y252246D01*
X77822Y252575D01*
X77240Y252816D01*
X77001Y252873D01*
Y264197D01*
X77245Y264208D01*
X77489Y264240D01*
X77729Y264294D01*
X77963Y264368D01*
X78035Y264400D01*
X78100Y264444D01*
X78159Y264497D01*
X78208Y264559D01*
X78246Y264628D01*
X78274Y264702D01*
X78290Y264779D01*
X78293Y264858D01*
X78284Y264937D01*
X78263Y265013D01*
X78230Y265085D01*
X78186Y265150D01*
X78133Y265209D01*
X78071Y265258D01*
X78002Y265296D01*
X77928Y265324D01*
X77851Y265340D01*
X77772Y265343D01*
X77693Y265334D01*
X77618Y265311D01*
X77468Y265262D01*
X77314Y265228D01*
X77158Y265207D01*
X77001Y265200D01*
Y268800D01*
X77158Y268793D01*
X77314Y268772D01*
X77468Y268738D01*
X77618Y268690D01*
X77694Y268668D01*
X77772Y268659D01*
X77850Y268662D01*
X77927Y268678D01*
X78001Y268705D01*
X78070Y268744D01*
X78131Y268793D01*
X78185Y268851D01*
X78228Y268916D01*
X78261Y268988D01*
X78282Y269064D01*
X78291Y269142D01*
X78288Y269220D01*
X78272Y269298D01*
X78245Y269371D01*
X78206Y269440D01*
X78157Y269502D01*
X78099Y269555D01*
X78034Y269598D01*
X77962Y269630D01*
X77729Y269706D01*
X77489Y269760D01*
X77245Y269792D01*
X77001Y269803D01*
Y298910D01*
G37*
G36*
Y242873D02*X76628Y242963D01*
X76000Y243012D01*
X75372Y242963D01*
X74760Y242816D01*
X74178Y242575D01*
X73642Y242246D01*
X73531Y242151D01*
X73096Y242586D01*
Y246241D01*
X73163Y246163D01*
X73642Y245754D01*
X74178Y245425D01*
X74760Y245184D01*
X75372Y245037D01*
X76000Y244988D01*
X76628Y245037D01*
X77001Y245127D01*
Y242873D01*
G37*
G36*
Y232873D02*X76628Y232963D01*
X76000Y233012D01*
X75372Y232963D01*
X74760Y232816D01*
X74178Y232575D01*
X73642Y232246D01*
X73163Y231837D01*
X73096Y231759D01*
Y236241D01*
X73163Y236163D01*
X73642Y235754D01*
X74178Y235425D01*
X74760Y235184D01*
X75372Y235037D01*
X76000Y234988D01*
X76628Y235037D01*
X77001Y235127D01*
Y232873D01*
G37*
G36*
X74770Y298910D02*X77001D01*
Y269803D01*
X77000Y269803D01*
X76755Y269792D01*
X76511Y269760D01*
X76271Y269706D01*
X76037Y269632D01*
X75965Y269600D01*
X75900Y269556D01*
X75841Y269503D01*
X75792Y269441D01*
X75754Y269372D01*
X75726Y269298D01*
X75710Y269221D01*
X75707Y269142D01*
X75716Y269063D01*
X75737Y268987D01*
X75770Y268915D01*
X75814Y268850D01*
X75867Y268791D01*
X75929Y268742D01*
X75998Y268704D01*
X76072Y268676D01*
X76149Y268660D01*
X76228Y268657D01*
X76307Y268666D01*
X76382Y268689D01*
X76532Y268738D01*
X76686Y268772D01*
X76842Y268793D01*
X77000Y268800D01*
X77001Y268800D01*
Y265200D01*
X77000Y265200D01*
X76842Y265207D01*
X76686Y265228D01*
X76532Y265262D01*
X76382Y265310D01*
X76306Y265332D01*
X76228Y265341D01*
X76150Y265338D01*
X76073Y265322D01*
X75999Y265295D01*
X75930Y265256D01*
X75869Y265207D01*
X75815Y265149D01*
X75772Y265084D01*
X75739Y265012D01*
X75718Y264936D01*
X75709Y264858D01*
X75712Y264780D01*
X75728Y264702D01*
X75755Y264629D01*
X75794Y264560D01*
X75843Y264498D01*
X75901Y264445D01*
X75966Y264402D01*
X76038Y264370D01*
X76271Y264294D01*
X76511Y264240D01*
X76755Y264208D01*
X77000Y264197D01*
X77001Y264197D01*
Y252873D01*
X76628Y252963D01*
X76000Y253012D01*
X75372Y252963D01*
X74770Y252818D01*
Y265712D01*
X74779Y265710D01*
X74858Y265707D01*
X74937Y265716D01*
X75013Y265737D01*
X75085Y265770D01*
X75150Y265814D01*
X75209Y265867D01*
X75258Y265929D01*
X75296Y265998D01*
X75324Y266072D01*
X75340Y266149D01*
X75343Y266228D01*
X75334Y266307D01*
X75311Y266382D01*
X75262Y266532D01*
X75228Y266686D01*
X75207Y266842D01*
X75200Y267000D01*
X75207Y267158D01*
X75228Y267314D01*
X75262Y267468D01*
X75310Y267618D01*
X75332Y267694D01*
X75341Y267772D01*
X75338Y267850D01*
X75322Y267927D01*
X75295Y268001D01*
X75256Y268070D01*
X75207Y268131D01*
X75149Y268185D01*
X75084Y268228D01*
X75012Y268261D01*
X74936Y268282D01*
X74858Y268291D01*
X74780Y268288D01*
X74770Y268286D01*
Y298910D01*
G37*
G36*
X73096D02*X74770D01*
Y268286D01*
X74702Y268272D01*
X74629Y268245D01*
X74560Y268206D01*
X74498Y268157D01*
X74445Y268099D01*
X74402Y268034D01*
X74370Y267962D01*
X74294Y267729D01*
X74240Y267489D01*
X74208Y267245D01*
X74197Y267000D01*
X74208Y266755D01*
X74240Y266511D01*
X74294Y266271D01*
X74368Y266037D01*
X74400Y265965D01*
X74444Y265900D01*
X74497Y265841D01*
X74559Y265792D01*
X74628Y265754D01*
X74702Y265726D01*
X74770Y265712D01*
Y252818D01*
X74760Y252816D01*
X74178Y252575D01*
X73642Y252246D01*
X73163Y251837D01*
X73096Y251759D01*
Y298910D01*
G37*
G36*
X48986D02*X73096D01*
Y251759D01*
X72754Y251358D01*
X72425Y250822D01*
X72184Y250240D01*
X72037Y249628D01*
X71988Y249000D01*
X72037Y248372D01*
X72184Y247760D01*
X72425Y247178D01*
X72754Y246642D01*
X73096Y246241D01*
Y242586D01*
X71250Y244432D01*
Y268323D01*
X71272Y268349D01*
X71503Y268725D01*
X71671Y269132D01*
X71774Y269561D01*
X71800Y270000D01*
X71774Y270439D01*
X71671Y270868D01*
X71503Y271275D01*
X71272Y271651D01*
X70986Y271986D01*
X70651Y272272D01*
X70275Y272503D01*
X69868Y272671D01*
X69439Y272774D01*
X69000Y272809D01*
X68561Y272774D01*
X68132Y272671D01*
X67725Y272503D01*
X67349Y272272D01*
X67014Y271986D01*
X66728Y271651D01*
X66497Y271275D01*
X66329Y270868D01*
X66226Y270439D01*
X66191Y270000D01*
X66226Y269561D01*
X66329Y269132D01*
X66497Y268725D01*
X66728Y268349D01*
X66750Y268323D01*
Y243588D01*
X66743Y243500D01*
X66771Y243147D01*
Y243147D01*
X66854Y242803D01*
X66989Y242475D01*
X67059Y242361D01*
X67174Y242173D01*
X67174Y242173D01*
X67404Y241904D01*
X67471Y241847D01*
X71847Y237471D01*
X71904Y237404D01*
X72173Y237174D01*
X72173Y237174D01*
X72361Y237059D01*
X72475Y236989D01*
X72563Y236953D01*
X72754Y236642D01*
X73096Y236241D01*
Y231759D01*
X72754Y231358D01*
X72425Y230822D01*
X72184Y230240D01*
X72037Y229628D01*
X71988Y229000D01*
X72037Y228372D01*
X72184Y227760D01*
X72425Y227178D01*
X72754Y226642D01*
X73096Y226241D01*
Y221759D01*
X72754Y221358D01*
X72425Y220822D01*
X72184Y220240D01*
X72037Y219628D01*
X71988Y219000D01*
X72037Y218372D01*
X72184Y217760D01*
X72425Y217178D01*
X72754Y216642D01*
X73096Y216241D01*
Y202000D01*
X71804D01*
X71863Y202051D01*
X71966Y202170D01*
X72048Y202305D01*
X72108Y202450D01*
X72145Y202603D01*
X72154Y202760D01*
X72145Y210397D01*
X72108Y210550D01*
X72048Y210695D01*
X71966Y210830D01*
X71863Y210949D01*
X71744Y211052D01*
X71609Y211134D01*
X71464Y211194D01*
X71311Y211231D01*
X71154Y211240D01*
X68103Y211235D01*
X58299Y221038D01*
X58223Y221128D01*
X57864Y221435D01*
X57461Y221681D01*
X57025Y221862D01*
X56566Y221972D01*
X56095Y222009D01*
X55977Y222000D01*
X48986D01*
Y226337D01*
X49246Y226642D01*
X49466Y227000D01*
X57922D01*
X58000Y226994D01*
X58314Y227019D01*
X58314Y227019D01*
X58620Y227092D01*
X58911Y227212D01*
X59179Y227377D01*
X59419Y227581D01*
X59470Y227641D01*
X59521Y227693D01*
X59939Y227726D01*
X60368Y227829D01*
X60775Y227997D01*
X61151Y228228D01*
X61486Y228514D01*
X61772Y228849D01*
X62003Y229225D01*
X62171Y229632D01*
X62274Y230061D01*
X62300Y230500D01*
X62274Y230939D01*
X62171Y231368D01*
X62003Y231775D01*
X61772Y232151D01*
X61486Y232486D01*
X61151Y232772D01*
X60775Y233003D01*
X60368Y233171D01*
X59939Y233274D01*
X59500Y233309D01*
X59061Y233274D01*
X58632Y233171D01*
X58225Y233003D01*
X57849Y232772D01*
X57514Y232486D01*
X57228Y232151D01*
X56997Y231775D01*
X56829Y231368D01*
X56741Y231000D01*
X49466D01*
X49246Y231358D01*
X48986Y231663D01*
Y236337D01*
X49246Y236642D01*
X49466Y237000D01*
X56672D01*
X56693Y236979D01*
X56726Y236561D01*
X56829Y236132D01*
X56997Y235725D01*
X57228Y235349D01*
X57514Y235014D01*
X57849Y234728D01*
X58225Y234497D01*
X58632Y234329D01*
X59061Y234226D01*
X59500Y234191D01*
X59939Y234226D01*
X60368Y234329D01*
X60775Y234497D01*
X61151Y234728D01*
X61486Y235014D01*
X61772Y235349D01*
X62003Y235725D01*
X62171Y236132D01*
X62274Y236561D01*
X62300Y237000D01*
X62274Y237439D01*
X62171Y237868D01*
X62003Y238275D01*
X61772Y238651D01*
X61486Y238986D01*
X61151Y239272D01*
X60775Y239503D01*
X60368Y239671D01*
X59939Y239774D01*
X59521Y239807D01*
X58970Y240359D01*
X58919Y240419D01*
X58679Y240623D01*
X58411Y240788D01*
X58120Y240908D01*
X57814Y240981D01*
X57814Y240981D01*
X57500Y241006D01*
X57422Y241000D01*
X49466D01*
X49246Y241358D01*
X48986Y241663D01*
Y246337D01*
X49246Y246642D01*
X49575Y247178D01*
X49816Y247760D01*
X49963Y248372D01*
X50000Y249000D01*
X49963Y249628D01*
X49816Y250240D01*
X49575Y250822D01*
X49246Y251358D01*
X48986Y251663D01*
Y277873D01*
X49000Y277872D01*
X50428Y277984D01*
X51821Y278319D01*
X53144Y278867D01*
X54365Y279615D01*
X55455Y280545D01*
X56385Y281635D01*
X57133Y282856D01*
X57681Y284179D01*
X58016Y285572D01*
X58100Y287000D01*
X58016Y288428D01*
X57681Y289821D01*
X57133Y291144D01*
X56385Y292365D01*
X55455Y293455D01*
X54365Y294385D01*
X53144Y295133D01*
X51821Y295681D01*
X50428Y296016D01*
X49000Y296128D01*
X48986Y296127D01*
Y298910D01*
G37*
G36*
X96986Y158750D02*X58750D01*
Y159208D01*
X58756Y159208D01*
X59376Y159257D01*
X59981Y159402D01*
X60556Y159640D01*
X61087Y159965D01*
X61560Y160369D01*
X61964Y160842D01*
X62289Y161373D01*
X62527Y161948D01*
X62672Y162553D01*
X62709Y163173D01*
X62672Y163793D01*
X62527Y164398D01*
X62289Y164973D01*
X61964Y165504D01*
X61560Y165977D01*
X61087Y166381D01*
X60556Y166706D01*
X59981Y166944D01*
X59376Y167089D01*
X58756Y167138D01*
X58750Y167138D01*
Y172000D01*
X62882D01*
X63000Y171991D01*
X63471Y172028D01*
X63471Y172028D01*
X63930Y172138D01*
X64366Y172319D01*
X64769Y172565D01*
X65128Y172872D01*
X65204Y172962D01*
X66952Y174710D01*
X66917Y174652D01*
X66857Y174507D01*
X66820Y174354D01*
X66811Y174197D01*
X66820Y163804D01*
X66857Y163651D01*
X66917Y163506D01*
X66999Y163371D01*
X67102Y163252D01*
X67221Y163149D01*
X67356Y163067D01*
X67501Y163007D01*
X67654Y162970D01*
X67811Y162961D01*
X75448Y162970D01*
X75601Y163007D01*
X75746Y163067D01*
X75881Y163149D01*
X76000Y163252D01*
X76103Y163371D01*
X76185Y163506D01*
X76245Y163651D01*
X76282Y163804D01*
X76291Y163961D01*
X76282Y174354D01*
X76245Y174507D01*
X76185Y174652D01*
X76103Y174787D01*
X76000Y174906D01*
X75881Y175009D01*
X75746Y175091D01*
X75601Y175151D01*
X75448Y175188D01*
X75291Y175197D01*
X67654Y175188D01*
X67501Y175151D01*
X67356Y175091D01*
X67298Y175056D01*
X69743Y177500D01*
X74882D01*
X75000Y177491D01*
X75471Y177528D01*
X75471Y177528D01*
X75930Y177638D01*
X76366Y177819D01*
X76769Y178065D01*
X76829Y178117D01*
X77065Y177731D01*
X77372Y177372D01*
X77731Y177065D01*
X78134Y176819D01*
X78570Y176638D01*
X79029Y176528D01*
X79500Y176500D01*
X82227D01*
X82305Y176452D01*
X82450Y176392D01*
X82603Y176355D01*
X82760Y176346D01*
X90397Y176355D01*
X90550Y176392D01*
X90695Y176452D01*
X90830Y176534D01*
X90949Y176637D01*
X91052Y176756D01*
X91134Y176891D01*
X91194Y177036D01*
X91231Y177189D01*
X91240Y177346D01*
X91235Y180397D01*
X96986Y186148D01*
Y171095D01*
X91140D01*
X91134Y171109D01*
X91052Y171244D01*
X90949Y171363D01*
X90830Y171466D01*
X90695Y171548D01*
X90550Y171608D01*
X90397Y171645D01*
X90240Y171654D01*
X82603Y171645D01*
X82450Y171608D01*
X82305Y171548D01*
X82170Y171466D01*
X82051Y171363D01*
X81948Y171244D01*
X81866Y171109D01*
X81806Y170964D01*
X81769Y170811D01*
X81760Y170654D01*
X81769Y165379D01*
X81806Y165226D01*
X81866Y165081D01*
X81948Y164946D01*
X82051Y164827D01*
X82170Y164724D01*
X82305Y164642D01*
X82450Y164582D01*
X82603Y164545D01*
X82760Y164536D01*
X90397Y164545D01*
X90550Y164582D01*
X90695Y164642D01*
X90830Y164724D01*
X90949Y164827D01*
X91052Y164946D01*
X91134Y165081D01*
X91140Y165095D01*
X96986D01*
Y158750D01*
G37*
G36*
X58750D02*X48986D01*
Y186977D01*
X49260Y186977D01*
Y177858D01*
X49251Y177740D01*
X49288Y177269D01*
X49288Y177269D01*
X49334Y177076D01*
X49398Y176810D01*
X49579Y176374D01*
X49825Y175971D01*
X49825Y175971D01*
X50132Y175612D01*
X50222Y175536D01*
X52796Y172962D01*
X52872Y172872D01*
X53231Y172566D01*
X53231Y172565D01*
X53634Y172319D01*
X54070Y172138D01*
X54529Y172028D01*
X55000Y171991D01*
X55118Y172000D01*
X58750D01*
Y167138D01*
X58136Y167089D01*
X57531Y166944D01*
X56956Y166706D01*
X56425Y166381D01*
X55952Y165977D01*
X55548Y165504D01*
X55223Y164973D01*
X54985Y164398D01*
X54840Y163793D01*
X54791Y163173D01*
X54840Y162553D01*
X54985Y161948D01*
X55223Y161373D01*
X55548Y160842D01*
X55952Y160369D01*
X56425Y159965D01*
X56956Y159640D01*
X57531Y159402D01*
X58136Y159257D01*
X58750Y159208D01*
Y158750D01*
G37*
G36*
X48986Y222000D02*X48646D01*
X48358Y222246D01*
X47822Y222575D01*
X47240Y222816D01*
X46628Y222963D01*
X46000Y223012D01*
X45372Y222963D01*
X44760Y222816D01*
X44178Y222575D01*
X43642Y222246D01*
X43163Y221837D01*
X42754Y221358D01*
X42425Y220822D01*
X42184Y220240D01*
X42037Y219628D01*
X41988Y219000D01*
X42037Y218372D01*
X42184Y217760D01*
X42425Y217178D01*
X42754Y216642D01*
X43163Y216163D01*
X43642Y215754D01*
X43750Y215688D01*
Y209445D01*
X42327Y209443D01*
X42174Y209406D01*
X42029Y209346D01*
X41894Y209264D01*
X41775Y209161D01*
X41672Y209042D01*
X41590Y208907D01*
X41530Y208762D01*
X41500Y208637D01*
X41470Y208762D01*
X41410Y208907D01*
X41328Y209042D01*
X41225Y209161D01*
X41106Y209264D01*
X40971Y209346D01*
X40826Y209406D01*
X40673Y209443D01*
X40516Y209452D01*
X40250Y209452D01*
Y241568D01*
X44134Y245452D01*
X44178Y245425D01*
X44760Y245184D01*
X45372Y245037D01*
X46000Y244988D01*
X46628Y245037D01*
X47240Y245184D01*
X47822Y245425D01*
X48358Y245754D01*
X48837Y246163D01*
X48986Y246337D01*
Y241663D01*
X48837Y241837D01*
X48358Y242246D01*
X47822Y242575D01*
X47240Y242816D01*
X46628Y242963D01*
X46000Y243012D01*
X45372Y242963D01*
X44760Y242816D01*
X44178Y242575D01*
X43642Y242246D01*
X43163Y241837D01*
X42754Y241358D01*
X42425Y240822D01*
X42184Y240240D01*
X42037Y239628D01*
X41988Y239000D01*
X42037Y238372D01*
X42184Y237760D01*
X42425Y237178D01*
X42754Y236642D01*
X43163Y236163D01*
X43642Y235754D01*
X44178Y235425D01*
X44760Y235184D01*
X45372Y235037D01*
X46000Y234988D01*
X46628Y235037D01*
X47240Y235184D01*
X47822Y235425D01*
X48358Y235754D01*
X48837Y236163D01*
X48986Y236337D01*
Y231663D01*
X48837Y231837D01*
X48358Y232246D01*
X47822Y232575D01*
X47240Y232816D01*
X46628Y232963D01*
X46000Y233012D01*
X45372Y232963D01*
X44760Y232816D01*
X44178Y232575D01*
X43642Y232246D01*
X43163Y231837D01*
X42754Y231358D01*
X42425Y230822D01*
X42184Y230240D01*
X42037Y229628D01*
X41988Y229000D01*
X42037Y228372D01*
X42184Y227760D01*
X42425Y227178D01*
X42754Y226642D01*
X43163Y226163D01*
X43642Y225754D01*
X44178Y225425D01*
X44760Y225184D01*
X45372Y225037D01*
X46000Y224988D01*
X46628Y225037D01*
X47240Y225184D01*
X47822Y225425D01*
X48358Y225754D01*
X48837Y226163D01*
X48986Y226337D01*
Y222000D01*
G37*
G36*
X43598Y279647D02*X43635Y279615D01*
X44856Y278867D01*
X46179Y278319D01*
X47572Y277984D01*
X48986Y277873D01*
Y251663D01*
X48837Y251837D01*
X48358Y252246D01*
X47822Y252575D01*
X47240Y252816D01*
X46628Y252963D01*
X46000Y253012D01*
X45372Y252963D01*
X44760Y252816D01*
X44178Y252575D01*
X43642Y252246D01*
X43598Y252209D01*
Y279647D01*
G37*
G36*
Y298910D02*X48986D01*
Y296127D01*
X47572Y296016D01*
X46179Y295681D01*
X44856Y295133D01*
X43635Y294385D01*
X43598Y294353D01*
Y298910D01*
G37*
G36*
X48986Y158750D02*X43598D01*
Y162969D01*
X44346Y162970D01*
X44499Y163007D01*
X44644Y163067D01*
X44779Y163149D01*
X44898Y163252D01*
X45001Y163371D01*
X45083Y163506D01*
X45143Y163651D01*
X45180Y163804D01*
X45189Y163961D01*
X45180Y174354D01*
X45143Y174507D01*
X45083Y174652D01*
X45001Y174787D01*
X44898Y174906D01*
X44779Y175009D01*
X44644Y175091D01*
X44499Y175151D01*
X44346Y175188D01*
X44189Y175197D01*
X43598Y175196D01*
Y176351D01*
X47889Y176355D01*
X48042Y176392D01*
X48187Y176452D01*
X48322Y176534D01*
X48441Y176637D01*
X48544Y176756D01*
X48626Y176891D01*
X48686Y177036D01*
X48723Y177189D01*
X48732Y177346D01*
X48723Y186165D01*
X48686Y186318D01*
X48626Y186463D01*
X48544Y186598D01*
X48441Y186717D01*
X48322Y186820D01*
X48187Y186902D01*
X48042Y186962D01*
X47889Y186999D01*
X47732Y187008D01*
X43598Y187003D01*
Y201550D01*
X47759Y201557D01*
X47912Y201594D01*
X48057Y201654D01*
X48192Y201736D01*
X48311Y201839D01*
X48414Y201958D01*
X48496Y202093D01*
X48556Y202238D01*
X48593Y202391D01*
X48602Y202548D01*
X48593Y208609D01*
X48556Y208762D01*
X48496Y208907D01*
X48414Y209042D01*
X48311Y209161D01*
X48250Y209214D01*
Y215688D01*
X48358Y215754D01*
X48646Y216000D01*
X48986D01*
Y197630D01*
X47969Y197629D01*
X47816Y197592D01*
X47671Y197532D01*
X47536Y197450D01*
X47417Y197347D01*
X47314Y197228D01*
X47232Y197093D01*
X47172Y196948D01*
X47135Y196795D01*
X47126Y196638D01*
X47129Y193691D01*
X47135Y187819D01*
X47172Y187666D01*
X47232Y187521D01*
X47314Y187386D01*
X47417Y187267D01*
X47536Y187164D01*
X47671Y187082D01*
X47816Y187022D01*
X47969Y186985D01*
X48126Y186976D01*
X48986Y186977D01*
Y158750D01*
G37*
G36*
X31000Y291237D02*X31946Y292345D01*
X32777Y293701D01*
X33385Y295169D01*
X33756Y296715D01*
X33850Y298300D01*
X33814Y298910D01*
X43598D01*
Y294353D01*
X42545Y293455D01*
X41615Y292365D01*
X40867Y291144D01*
X40319Y289821D01*
X39984Y288428D01*
X39872Y287000D01*
X39984Y285572D01*
X40319Y284179D01*
X40867Y282856D01*
X41615Y281635D01*
X42545Y280545D01*
X43598Y279647D01*
Y252209D01*
X43163Y251837D01*
X42754Y251358D01*
X42425Y250822D01*
X42184Y250240D01*
X42066Y249748D01*
X36471Y244153D01*
X36404Y244096D01*
X36174Y243827D01*
X35989Y243525D01*
X35854Y243197D01*
X35771Y242853D01*
X35771Y242853D01*
X35743Y242500D01*
X35750Y242412D01*
Y209444D01*
X35241Y209443D01*
X35088Y209406D01*
X34943Y209346D01*
X34808Y209264D01*
X34689Y209161D01*
X34586Y209042D01*
X34504Y208907D01*
X34444Y208762D01*
X34407Y208609D01*
X34398Y208452D01*
X34405Y204087D01*
X31471Y201153D01*
X31404Y201096D01*
X31174Y200827D01*
X31000Y200543D01*
Y211903D01*
X34109Y211907D01*
X34262Y211944D01*
X34407Y212004D01*
X34542Y212086D01*
X34661Y212189D01*
X34764Y212308D01*
X34846Y212443D01*
X34906Y212588D01*
X34943Y212741D01*
X34952Y212898D01*
X34943Y218173D01*
X34906Y218326D01*
X34846Y218471D01*
X34764Y218606D01*
X34661Y218725D01*
X34542Y218828D01*
X34407Y218910D01*
X34262Y218970D01*
X34137Y219000D01*
X34262Y219030D01*
X34407Y219090D01*
X34542Y219172D01*
X34661Y219275D01*
X34764Y219394D01*
X34846Y219529D01*
X34906Y219674D01*
X34943Y219827D01*
X34952Y219984D01*
X34943Y225259D01*
X34906Y225412D01*
X34846Y225557D01*
X34764Y225692D01*
X34661Y225811D01*
X34542Y225914D01*
X34407Y225996D01*
X34262Y226056D01*
X34109Y226093D01*
X33952Y226102D01*
X33250Y226101D01*
Y228323D01*
X33272Y228349D01*
X33503Y228725D01*
X33671Y229132D01*
X33774Y229561D01*
X33800Y230000D01*
X33774Y230439D01*
X33671Y230868D01*
X33503Y231275D01*
X33272Y231651D01*
X32986Y231986D01*
X32651Y232272D01*
X32275Y232503D01*
X31868Y232671D01*
X31439Y232774D01*
X31000Y232809D01*
Y234191D01*
X31439Y234226D01*
X31868Y234329D01*
X32275Y234497D01*
X32651Y234728D01*
X32986Y235014D01*
X33272Y235349D01*
X33503Y235725D01*
X33671Y236132D01*
X33774Y236561D01*
X33800Y237000D01*
X33774Y237439D01*
X33671Y237868D01*
X33503Y238275D01*
X33272Y238651D01*
X33250Y238677D01*
Y240406D01*
X34109Y240407D01*
X34262Y240444D01*
X34407Y240504D01*
X34542Y240586D01*
X34661Y240689D01*
X34764Y240808D01*
X34846Y240943D01*
X34906Y241088D01*
X34943Y241241D01*
X34952Y241398D01*
X34943Y246673D01*
X34906Y246826D01*
X34846Y246971D01*
X34764Y247106D01*
X34661Y247225D01*
X34542Y247328D01*
X34407Y247410D01*
X34262Y247470D01*
X34137Y247500D01*
X34262Y247530D01*
X34407Y247590D01*
X34542Y247672D01*
X34661Y247775D01*
X34764Y247894D01*
X34846Y248029D01*
X34906Y248174D01*
X34943Y248327D01*
X34952Y248484D01*
X34943Y253759D01*
X34906Y253912D01*
X34846Y254057D01*
X34764Y254192D01*
X34661Y254311D01*
X34542Y254414D01*
X34407Y254496D01*
X34262Y254556D01*
X34109Y254593D01*
X33952Y254602D01*
X31000Y254597D01*
Y291237D01*
G37*
G36*
X43598Y158750D02*X33794D01*
X33850Y159700D01*
X33756Y161285D01*
X33385Y162831D01*
X32777Y164299D01*
X31946Y165655D01*
X31000Y166763D01*
Y176530D01*
X31014Y176514D01*
X31349Y176228D01*
X31725Y175997D01*
X32132Y175829D01*
X32561Y175726D01*
X33000Y175691D01*
X33439Y175726D01*
X33868Y175829D01*
X34275Y175997D01*
X34651Y176228D01*
X34986Y176514D01*
X35272Y176849D01*
X35503Y177225D01*
X35671Y177632D01*
X35774Y178061D01*
X35800Y178500D01*
X35774Y178939D01*
X35671Y179368D01*
X35503Y179775D01*
X35272Y180151D01*
X35250Y180177D01*
Y198568D01*
X38235Y201553D01*
X40673Y201557D01*
X40826Y201594D01*
X40971Y201654D01*
X41106Y201736D01*
X41225Y201839D01*
X41328Y201958D01*
X41410Y202093D01*
X41470Y202238D01*
X41500Y202363D01*
X41530Y202238D01*
X41590Y202093D01*
X41672Y201958D01*
X41775Y201839D01*
X41894Y201736D01*
X42029Y201654D01*
X42174Y201594D01*
X42327Y201557D01*
X42484Y201548D01*
X43598Y201550D01*
Y187003D01*
X39307Y186999D01*
X39154Y186962D01*
X39009Y186902D01*
X38874Y186820D01*
X38755Y186717D01*
X38652Y186598D01*
X38570Y186463D01*
X38510Y186318D01*
X38473Y186165D01*
X38464Y186008D01*
X38473Y177189D01*
X38510Y177036D01*
X38570Y176891D01*
X38652Y176756D01*
X38755Y176637D01*
X38874Y176534D01*
X39009Y176452D01*
X39154Y176392D01*
X39307Y176355D01*
X39464Y176346D01*
X43598Y176351D01*
Y175196D01*
X36552Y175188D01*
X36399Y175151D01*
X36254Y175091D01*
X36119Y175009D01*
X36000Y174906D01*
X35897Y174787D01*
X35815Y174652D01*
X35755Y174507D01*
X35718Y174354D01*
X35709Y174197D01*
X35718Y163804D01*
X35755Y163651D01*
X35815Y163506D01*
X35897Y163371D01*
X36000Y163252D01*
X36119Y163149D01*
X36254Y163067D01*
X36399Y163007D01*
X36552Y162970D01*
X36709Y162961D01*
X43598Y162969D01*
Y158750D01*
G37*
G36*
X31000Y166763D02*X30914Y166864D01*
X29705Y167896D01*
X28349Y168727D01*
X26881Y169335D01*
X25335Y169706D01*
X23750Y169831D01*
X23600Y169819D01*
Y288181D01*
X23750Y288169D01*
X25335Y288294D01*
X26881Y288665D01*
X28349Y289273D01*
X29705Y290104D01*
X30914Y291136D01*
X31000Y291237D01*
Y254597D01*
X27891Y254593D01*
X27738Y254556D01*
X27593Y254496D01*
X27458Y254414D01*
X27339Y254311D01*
X27236Y254192D01*
X27154Y254057D01*
X27094Y253912D01*
X27057Y253759D01*
X27048Y253602D01*
X27057Y248327D01*
X27094Y248174D01*
X27154Y248029D01*
X27236Y247894D01*
X27339Y247775D01*
X27458Y247672D01*
X27593Y247590D01*
X27738Y247530D01*
X27863Y247500D01*
X27738Y247470D01*
X27593Y247410D01*
X27458Y247328D01*
X27339Y247225D01*
X27236Y247106D01*
X27154Y246971D01*
X27094Y246826D01*
X27057Y246673D01*
X27048Y246516D01*
X27057Y241241D01*
X27094Y241088D01*
X27154Y240943D01*
X27236Y240808D01*
X27339Y240689D01*
X27458Y240586D01*
X27593Y240504D01*
X27738Y240444D01*
X27891Y240407D01*
X28048Y240398D01*
X28750Y240399D01*
Y238677D01*
X28728Y238651D01*
X28497Y238275D01*
X28329Y237868D01*
X28226Y237439D01*
X28191Y237000D01*
X28226Y236561D01*
X28329Y236132D01*
X28497Y235725D01*
X28728Y235349D01*
X29014Y235014D01*
X29349Y234728D01*
X29725Y234497D01*
X30132Y234329D01*
X30561Y234226D01*
X31000Y234191D01*
Y232809D01*
X30561Y232774D01*
X30132Y232671D01*
X29725Y232503D01*
X29349Y232272D01*
X29014Y231986D01*
X28728Y231651D01*
X28497Y231275D01*
X28329Y230868D01*
X28226Y230439D01*
X28191Y230000D01*
X28226Y229561D01*
X28329Y229132D01*
X28497Y228725D01*
X28728Y228349D01*
X28750Y228323D01*
Y226094D01*
X27891Y226093D01*
X27738Y226056D01*
X27593Y225996D01*
X27458Y225914D01*
X27339Y225811D01*
X27236Y225692D01*
X27154Y225557D01*
X27094Y225412D01*
X27057Y225259D01*
X27048Y225102D01*
X27057Y219827D01*
X27094Y219674D01*
X27154Y219529D01*
X27236Y219394D01*
X27339Y219275D01*
X27458Y219172D01*
X27593Y219090D01*
X27738Y219030D01*
X27863Y219000D01*
X27738Y218970D01*
X27593Y218910D01*
X27458Y218828D01*
X27339Y218725D01*
X27236Y218606D01*
X27154Y218471D01*
X27094Y218326D01*
X27057Y218173D01*
X27048Y218016D01*
X27057Y212741D01*
X27094Y212588D01*
X27154Y212443D01*
X27236Y212308D01*
X27339Y212189D01*
X27458Y212086D01*
X27593Y212004D01*
X27738Y211944D01*
X27891Y211907D01*
X28048Y211898D01*
X31000Y211903D01*
Y200543D01*
X30989Y200525D01*
X30854Y200197D01*
X30771Y199853D01*
X30771Y199853D01*
X30743Y199500D01*
X30750Y199412D01*
Y180177D01*
X30728Y180151D01*
X30497Y179775D01*
X30329Y179368D01*
X30226Y178939D01*
X30191Y178500D01*
X30226Y178061D01*
X30329Y177632D01*
X30497Y177225D01*
X30728Y176849D01*
X31000Y176530D01*
Y166763D01*
G37*
G36*
X107500Y209500D02*X110000Y207000D01*
X105000D01*
X107500Y209500D01*
G37*
G36*
X37500Y169500D02*X35000Y167000D01*
Y172000D01*
X37500Y169500D01*
G37*
G36*
X40500Y181500D02*X38000Y179000D01*
Y184000D01*
X40500Y181500D01*
G37*
G36*
X66000Y191000D02*X63500Y188500D01*
Y193500D01*
X66000Y191000D01*
G37*
G36*
X68500Y169500D02*X66000Y167000D01*
Y172000D01*
X68500Y169500D01*
G37*
G36*
X74500D02*X77000Y172000D01*
Y167000D01*
X74500Y169500D01*
G37*
G36*
X43500D02*X46000Y172000D01*
Y167000D01*
X43500Y169500D01*
G37*
G36*
X72500Y191000D02*X75000Y193500D01*
Y188500D01*
X72500Y191000D01*
G37*
G36*
X153300Y173550D02*X150800Y171050D01*
Y176050D01*
X153300Y173550D01*
G37*
G36*
X155200Y176550D02*X152700Y179050D01*
X157700D01*
X155200Y176550D01*
G37*
G36*
X157100Y173550D02*X159600Y176050D01*
Y171050D01*
X157100Y173550D01*
G37*
G36*
X146895Y230393D02*X149395Y232893D01*
X151295D01*
Y227893D01*
X149395D01*
X146895Y230393D01*
G37*
G36*
X150744Y233399D02*X151195Y233850D01*
Y228850D01*
X150845Y229200D01*
X150838Y233109D01*
X150801Y233262D01*
X150744Y233399D01*
G37*
G36*
X197095Y227000D02*X195095D01*
X192095Y230000D01*
X194595Y232500D01*
X197095D01*
Y227000D01*
G37*
G36*
X167095Y187000D02*X165095D01*
X162095Y190000D01*
X164595Y192500D01*
X167095D01*
Y187000D01*
G37*
G36*
Y227000D02*X165095D01*
X162095Y230000D01*
X164595Y232500D01*
X167095D01*
Y227000D01*
G37*
G54D37*X46000Y219000D02*X56095D01*
X68595Y206500D01*
X80405D02*Y214595D01*
G54D38*X46000Y219000D02*Y206000D01*
G54D37*X80405Y214595D02*X76000Y219000D01*
G54D38*Y229000D02*X87500Y217500D01*
X31000Y237000D02*Y243957D01*
X46000Y249000D02*X44500D01*
X38000Y242500D01*
G54D39*X46000Y229000D02*X58000D01*
X59500Y230500D01*
X46000Y239000D02*X57500D01*
X59500Y237000D01*
G54D38*X76000Y239000D02*X73500D01*
X69000Y243500D01*
Y270000D01*
X38000Y242500D02*Y204500D01*
X33000Y199500D01*
X31000Y230000D02*Y222543D01*
X33000Y199500D02*Y178500D01*
G54D37*X79500Y179500D02*X86095D01*
X86297Y179703D01*
X75000Y180500D02*X79500Y185000D01*
X52260Y192307D02*Y177740D01*
X55000Y175000D01*
X63000D01*
X68500Y180500D01*
X75000D01*
X97500Y199000D02*Y190905D01*
X86500Y179905D01*
Y168095D02*X102405D01*
X102500Y168000D01*
X107500Y199095D02*X97595D01*
X97500Y199000D01*
X110500Y183500D02*X104500Y189500D01*
X84500D02*X83500D01*
X74000Y199000D01*
X70000D01*
X68500Y200500D01*
Y206405D01*
X68595Y206500D01*
G54D38*X87500Y217500D02*X129500D01*
X147052Y206400D02*X146452Y207000D01*
X153395Y206400D02*X147052D01*
X154795Y205000D02*X153395Y206400D01*
X146995Y223350D02*X146895Y223250D01*
Y213643D02*Y223307D01*
X158695Y223350D02*X146995D01*
X162045Y220000D02*X158695Y223350D01*
X155790Y183695D02*X162095Y190000D01*
X146395Y183695D02*X155790D01*
X157600Y195505D02*X162095Y200000D01*
X146395Y195505D02*X157600D01*
X162095Y220000D02*X162045D01*
X192095D02*Y210000D01*
X129500Y217500D02*X140500Y206500D01*
X146000D01*
X146476Y206976D01*
X186995Y205000D02*X154795D01*
X191995Y200000D02*X186995Y205000D01*
X192095Y200000D02*X191995D01*
G54D37*X192095Y190000D02*X183500D01*
X167000Y173500D01*
Y161500D01*
X162500Y157000D01*
X119500D01*
X110500Y166000D01*
Y183500D01*
X162095Y250000D02*X162000D01*
X162095Y240000D02*X158500D01*
X146500Y252000D01*
X152000Y260000D02*X120157D01*
X146500Y252000D02*X114500D01*
X120157Y260000D02*X111157Y269000D01*
X114500Y252000D02*X103000Y263500D01*
Y274500D01*
X105500Y277000D01*
X115953D01*
X116079Y276874D01*
X121000Y269000D02*X155500D01*
X125921Y276874D02*X165221D01*
X155500Y269000D02*X184500Y240000D01*
X165221Y276874D02*X192095Y250000D01*
X162000D02*X152000Y260000D01*
X184500Y240000D02*X192095D01*
G54D40*X122500Y193500D03*
Y205300D03*
G54D36*G36*
X99750Y170750D02*Y165250D01*
X105250D01*
Y170750D01*
X99750D01*
G37*
G54D41*X102500Y178000D03*
G54D36*G36*
X108204Y271953D02*Y266047D01*
X114110D01*
Y271953D01*
X108204D01*
G37*
G54D42*X116079Y276874D03*
X121000Y269000D03*
X125921Y276874D03*
X58756Y163173D03*
Y180890D03*
G54D43*X46000Y219000D03*
Y229000D03*
Y239000D03*
Y249000D03*
X76000D03*
Y239000D03*
Y229000D03*
Y219000D03*
G54D44*X30607Y243957D02*X31393D01*
X30607Y251043D02*X31393D01*
X30607Y215457D02*X31393D01*
X30607Y222543D02*X31393D01*
X106319Y199095D02*X108681D01*
X106319Y210905D02*X108681D01*
G54D45*X52260Y192504D02*Y192110D01*
G54D46*X40449Y170457D02*Y167701D01*
G54D45*X43598Y181874D02*Y181480D01*
G54D44*X37957Y205893D02*Y205107D01*
X45043Y205893D02*Y205107D01*
G54D45*X69189Y190929D02*Y190535D01*
G54D44*X85319Y168095D02*X87681D01*
X85319Y179905D02*X87681D01*
X68595Y207681D02*Y205319D01*
X80405Y207681D02*Y205319D01*
G54D46*X71551Y170457D02*Y167701D01*
G54D44*X155190Y174681D02*Y172319D01*
X167000Y174681D02*Y172319D01*
X145214Y183695D02*X147576D01*
X145214Y195505D02*X147576D01*
X146502Y223307D02*X147288D01*
G54D43*X192095Y220000D03*
Y210000D03*
G54D44*X146502Y206557D02*X147288D01*
X146502Y213643D02*X147288D01*
X146502Y230393D02*X147288D01*
G54D43*X192095Y250000D03*
Y240000D03*
Y230000D03*
X162095Y190000D03*
X192095D03*
X162095Y200000D03*
X192095D03*
X162095Y210000D03*
Y220000D03*
Y230000D03*
Y240000D03*
Y250000D03*
G54D47*X59500Y237000D03*
Y230500D03*
X31000Y237000D03*
Y230000D03*
X33000Y178500D03*
G54D48*X23750Y159700D03*
Y298300D03*
G54D47*X77000Y267000D03*
X69000Y270000D03*
X62000Y201000D03*
G54D43*X104500Y189500D03*
X97500Y199000D03*
X84500Y189500D03*
G54D49*X118500Y229000D03*
G54D50*X97000Y242000D03*
X49000Y287000D03*
X130500Y117000D03*
X138000Y171000D03*
G54D48*X213250Y298300D03*
Y159700D03*
G54D50*X188000Y171000D03*
Y287000D03*
G54D39*G54D51*G54D39*G54D52*G54D53*G54D54*G54D51*G54D54*G54D55*G54D56*G54D57*G54D58*M02*
