G04 start of page 3 for group 1 idx 1 *
G04 Title: (unknown), bottom *
G04 Creator: pcb 20110918 *
G04 CreationDate: Fri May 31 21:55:40 2013 UTC *
G04 For: fosse *
G04 Format: Gerber/RS-274X *
G04 PCB-Dimensions: 210000 160000 *
G04 PCB-Coordinate-Origin: lower left *
%MOIN*%
%FSLAX25Y25*%
%LNBOTTOM*%
%ADD36C,0.0300*%
%ADD35C,0.0340*%
%ADD34C,0.0315*%
%ADD33C,0.0280*%
%ADD32R,0.0512X0.0512*%
%ADD31R,0.0512X0.0512*%
%ADD30C,0.0550*%
%ADD29C,0.0600*%
%ADD28C,0.0750*%
%ADD27C,0.0591*%
%ADD26C,0.0001*%
G54D26*G36*
X34000Y69994D02*Y63994D01*
X40000D01*
Y69994D01*
X34000D01*
G37*
G36*
X41204Y49718D02*Y43812D01*
X47110D01*
Y49718D01*
X41204D01*
G37*
G54D27*X49079Y54639D03*
X54000Y46765D03*
X58921Y54639D03*
G54D28*X117958Y66798D03*
X129758D03*
G54D26*G36*
X155500Y67756D02*Y61756D01*
X161500D01*
Y67756D01*
X155500D01*
G37*
G54D29*X188500Y64756D03*
X158500Y74756D03*
X188500D03*
X158500Y84756D03*
Y94756D03*
X188500D03*
Y84756D03*
G54D26*G36*
X152987Y29894D02*Y24394D01*
X158487D01*
Y29894D01*
X152987D01*
G37*
G54D30*X205737Y27144D03*
G54D29*X37000Y76994D03*
Y86994D03*
Y96994D03*
Y106994D03*
Y116994D03*
Y126994D03*
X67000D03*
Y116994D03*
Y106994D03*
Y96994D03*
Y86994D03*
Y76994D03*
Y66994D03*
G54D31*X17414Y97394D02*Y98180D01*
X24500Y97394D02*Y98180D01*
X12690Y113114D02*Y115476D01*
X24500Y113114D02*Y115476D01*
G54D26*G36*
X91563Y94184D02*Y86310D01*
X99437D01*
Y94184D01*
X91563D01*
G37*
G54D31*X100028Y104617D02*Y107373D01*
G54D32*X90973Y104618D02*Y107373D01*
G54D31*X155737Y38892D02*Y36530D01*
X167547Y38892D02*Y36530D01*
X179832Y37939D02*Y35577D01*
X191642Y37939D02*Y35577D01*
X142475Y131253D02*Y132039D01*
X149561Y131253D02*Y132039D01*
X142475Y121531D02*Y122317D01*
X149561Y121531D02*Y122317D01*
G54D33*G54D34*G54D35*G54D33*G54D36*G54D33*M02*
