G04 start of page 3 for group 1 idx 1 *
G04 Title: (unknown), bottom *
G04 Creator: pcb 20110918 *
G04 CreationDate: Fri May 31 17:36:31 2013 UTC *
G04 For: fosse *
G04 Format: Gerber/RS-274X *
G04 PCB-Dimensions: 210000 160000 *
G04 PCB-Coordinate-Origin: lower left *
%MOIN*%
%FSLAX25Y25*%
%LNBOTTOM*%
%ADD46C,0.0340*%
%ADD45C,0.0280*%
%ADD44C,0.0300*%
%ADD43C,0.0315*%
%ADD42C,0.0350*%
%ADD41C,0.0360*%
%ADD40R,0.0394X0.0394*%
%ADD39R,0.0551X0.0551*%
%ADD38R,0.0390X0.0390*%
%ADD37R,0.0433X0.0433*%
%ADD36R,0.0433X0.0433*%
%ADD35R,0.0512X0.0512*%
%ADD34C,0.0750*%
%ADD33C,0.0600*%
%ADD32C,0.0550*%
%ADD31C,0.0591*%
%ADD30C,0.0200*%
%ADD29C,0.0250*%
%ADD28C,0.0400*%
%ADD27C,0.0001*%
G54D27*G36*
X43000Y123000D02*Y131000D01*
X45000D01*
X49000Y127000D01*
X45000Y123000D01*
X43000D01*
G37*
G36*
X179613Y155000D02*X195000D01*
X199000Y151000D01*
Y31000D01*
X194000D01*
X182000Y19000D01*
Y13000D01*
X179613D01*
Y28613D01*
X185000Y34000D01*
Y89000D01*
X181000Y93000D01*
X179613D01*
Y95853D01*
X179656Y95860D01*
X179768Y95897D01*
X179873Y95952D01*
X179968Y96022D01*
X180051Y96106D01*
X180119Y96202D01*
X180170Y96308D01*
X180318Y96716D01*
X180422Y97137D01*
X180484Y97567D01*
X180505Y98000D01*
X180484Y98433D01*
X180422Y98863D01*
X180318Y99284D01*
X180175Y99694D01*
X180122Y99800D01*
X180053Y99896D01*
X179970Y99981D01*
X179875Y100051D01*
X179769Y100106D01*
X179657Y100143D01*
X179613Y100151D01*
Y105302D01*
X179652Y105347D01*
X180022Y105951D01*
X180293Y106605D01*
X180458Y107294D01*
X180500Y108000D01*
X180458Y108706D01*
X180293Y109395D01*
X180022Y110049D01*
X179652Y110653D01*
X179613Y110698D01*
Y115302D01*
X179652Y115347D01*
X180022Y115951D01*
X180293Y116605D01*
X180458Y117294D01*
X180500Y118000D01*
X180458Y118706D01*
X180293Y119395D01*
X180022Y120049D01*
X179652Y120653D01*
X179613Y120698D01*
Y125302D01*
X179652Y125347D01*
X180022Y125951D01*
X180293Y126605D01*
X180458Y127294D01*
X180500Y128000D01*
X180458Y128706D01*
X180293Y129395D01*
X180022Y130049D01*
X179652Y130653D01*
X179613Y130698D01*
Y135302D01*
X179652Y135347D01*
X180022Y135951D01*
X180293Y136605D01*
X180458Y137294D01*
X180500Y138000D01*
X180458Y138706D01*
X180293Y139395D01*
X180022Y140049D01*
X179652Y140653D01*
X179613Y140698D01*
Y155000D01*
G37*
G36*
Y130698D02*X179192Y131192D01*
X178653Y131652D01*
X178049Y132022D01*
X177395Y132293D01*
X176706Y132458D01*
X176000Y132514D01*
X175993Y132513D01*
Y133487D01*
X176000Y133486D01*
X176706Y133542D01*
X177395Y133707D01*
X178049Y133978D01*
X178653Y134348D01*
X179192Y134808D01*
X179613Y135302D01*
Y130698D01*
G37*
G36*
Y120698D02*X179192Y121192D01*
X178653Y121652D01*
X178049Y122022D01*
X177395Y122293D01*
X176706Y122458D01*
X176000Y122514D01*
X175993Y122513D01*
Y123487D01*
X176000Y123486D01*
X176706Y123542D01*
X177395Y123707D01*
X178049Y123978D01*
X178653Y124348D01*
X179192Y124808D01*
X179613Y125302D01*
Y120698D01*
G37*
G36*
Y110698D02*X179192Y111192D01*
X179000Y111356D01*
Y114644D01*
X179192Y114808D01*
X179613Y115302D01*
Y110698D01*
G37*
G36*
Y93000D02*X175993D01*
Y93495D01*
X176000Y93495D01*
X176433Y93516D01*
X176863Y93578D01*
X177284Y93682D01*
X177694Y93825D01*
X177800Y93878D01*
X177896Y93947D01*
X177981Y94030D01*
X178051Y94125D01*
X178106Y94231D01*
X178143Y94343D01*
X178163Y94460D01*
X178164Y94579D01*
X178146Y94696D01*
X178110Y94809D01*
X178057Y94915D01*
X177988Y95012D01*
X177905Y95096D01*
X177809Y95167D01*
X177704Y95221D01*
X177592Y95259D01*
X177475Y95278D01*
X177356Y95279D01*
X177239Y95261D01*
X177126Y95223D01*
X176855Y95124D01*
X176575Y95056D01*
X176289Y95014D01*
X176000Y95000D01*
X175993Y95000D01*
Y101000D01*
X176000Y101000D01*
X176289Y100986D01*
X176575Y100944D01*
X176855Y100876D01*
X177128Y100780D01*
X177239Y100742D01*
X177356Y100725D01*
X177474Y100725D01*
X177591Y100745D01*
X177703Y100782D01*
X177807Y100836D01*
X177902Y100906D01*
X177985Y100991D01*
X178054Y101087D01*
X178107Y101192D01*
X178143Y101305D01*
X178160Y101421D01*
X178159Y101539D01*
X178140Y101656D01*
X178103Y101768D01*
X178048Y101873D01*
X177978Y101968D01*
X177894Y102051D01*
X177798Y102119D01*
X177692Y102170D01*
X177284Y102318D01*
X176863Y102422D01*
X176433Y102484D01*
X176000Y102505D01*
X175993Y102505D01*
Y103487D01*
X176000Y103486D01*
X176706Y103542D01*
X177395Y103707D01*
X178049Y103978D01*
X178653Y104348D01*
X179192Y104808D01*
X179613Y105302D01*
Y100151D01*
X179540Y100163D01*
X179421Y100164D01*
X179304Y100146D01*
X179191Y100110D01*
X179085Y100057D01*
X178988Y99988D01*
X178904Y99905D01*
X178833Y99809D01*
X178779Y99704D01*
X178741Y99592D01*
X178722Y99475D01*
X178721Y99356D01*
X178739Y99239D01*
X178777Y99126D01*
X178876Y98855D01*
X178944Y98575D01*
X178986Y98289D01*
X179000Y98000D01*
X178986Y97711D01*
X178944Y97425D01*
X178876Y97145D01*
X178780Y96872D01*
X178742Y96761D01*
X178725Y96644D01*
X178725Y96526D01*
X178745Y96409D01*
X178782Y96297D01*
X178836Y96193D01*
X178906Y96098D01*
X178991Y96015D01*
X179087Y95946D01*
X179192Y95893D01*
X179305Y95857D01*
X179421Y95840D01*
X179539Y95841D01*
X179613Y95853D01*
Y93000D01*
G37*
G36*
Y13000D02*X175993D01*
Y27000D01*
X178000D01*
X179613Y28613D01*
Y13000D01*
G37*
G36*
X178972Y149471D02*X178972Y149471D01*
X178862Y149930D01*
X178681Y150366D01*
X178435Y150769D01*
X178128Y151128D01*
X178038Y151204D01*
X175993Y153250D01*
Y154993D01*
X176000Y155000D01*
X179613D01*
Y140698D01*
X179192Y141192D01*
X179000Y141356D01*
Y148882D01*
X179009Y149000D01*
X178972Y149471D01*
G37*
G36*
X175993Y132513D02*X175294Y132458D01*
X174605Y132293D01*
X173951Y132022D01*
X173347Y131652D01*
X172808Y131192D01*
X172348Y130653D01*
X172101Y130250D01*
X171088D01*
X171000Y130257D01*
X170647Y130229D01*
X170303Y130146D01*
X169975Y130011D01*
X169673Y129826D01*
X169673Y129826D01*
X169404Y129596D01*
X169347Y129529D01*
X163471Y123653D01*
X163404Y123596D01*
X163174Y123327D01*
X162989Y123025D01*
X162854Y122697D01*
X162771Y122353D01*
X162771Y122353D01*
X162743Y122000D01*
X162750Y121912D01*
Y111944D01*
X161827Y111943D01*
X161674Y111906D01*
X161529Y111846D01*
X161394Y111764D01*
X161275Y111661D01*
X161172Y111542D01*
X161090Y111407D01*
X161030Y111262D01*
X161000Y111137D01*
X160970Y111262D01*
X160910Y111407D01*
X160828Y111542D01*
X160725Y111661D01*
X160606Y111764D01*
X160471Y111846D01*
X160326Y111906D01*
X160173Y111943D01*
X160016Y111952D01*
X158000Y111948D01*
Y149000D01*
X171757D01*
X173000Y147757D01*
Y141356D01*
X172808Y141192D01*
X172348Y140653D01*
X171978Y140049D01*
X171707Y139395D01*
X171542Y138706D01*
X171486Y138000D01*
X171542Y137294D01*
X171707Y136605D01*
X171978Y135951D01*
X172348Y135347D01*
X172808Y134808D01*
X173347Y134348D01*
X173951Y133978D01*
X174605Y133707D01*
X175294Y133542D01*
X175993Y133487D01*
Y132513D01*
G37*
G36*
X172387Y115302D02*X172808Y114808D01*
X173000Y114644D01*
Y111356D01*
X172808Y111192D01*
X172387Y110698D01*
Y115302D01*
G37*
G36*
Y125302D02*X172808Y124808D01*
X173347Y124348D01*
X173951Y123978D01*
X174605Y123707D01*
X175294Y123542D01*
X175993Y123487D01*
Y122513D01*
X175294Y122458D01*
X174605Y122293D01*
X173951Y122022D01*
X173347Y121652D01*
X172808Y121192D01*
X172387Y120698D01*
Y125302D01*
G37*
G36*
X175993Y93000D02*X172387D01*
Y95849D01*
X172460Y95837D01*
X172579Y95836D01*
X172696Y95854D01*
X172809Y95890D01*
X172915Y95943D01*
X173012Y96012D01*
X173096Y96095D01*
X173167Y96191D01*
X173221Y96296D01*
X173259Y96408D01*
X173278Y96525D01*
X173279Y96644D01*
X173261Y96761D01*
X173223Y96874D01*
X173124Y97145D01*
X173056Y97425D01*
X173014Y97711D01*
X173000Y98000D01*
X173014Y98289D01*
X173056Y98575D01*
X173124Y98855D01*
X173220Y99128D01*
X173258Y99239D01*
X173275Y99356D01*
X173275Y99474D01*
X173255Y99591D01*
X173218Y99703D01*
X173164Y99807D01*
X173094Y99902D01*
X173009Y99985D01*
X172913Y100054D01*
X172808Y100107D01*
X172695Y100143D01*
X172579Y100160D01*
X172461Y100159D01*
X172387Y100147D01*
Y105302D01*
X172808Y104808D01*
X173347Y104348D01*
X173951Y103978D01*
X174605Y103707D01*
X175294Y103542D01*
X175993Y103487D01*
Y102505D01*
X175567Y102484D01*
X175137Y102422D01*
X174716Y102318D01*
X174306Y102175D01*
X174200Y102122D01*
X174104Y102053D01*
X174019Y101970D01*
X173949Y101875D01*
X173894Y101769D01*
X173857Y101657D01*
X173837Y101540D01*
X173836Y101421D01*
X173854Y101304D01*
X173890Y101191D01*
X173943Y101085D01*
X174012Y100988D01*
X174095Y100904D01*
X174191Y100833D01*
X174296Y100779D01*
X174408Y100741D01*
X174525Y100722D01*
X174644Y100721D01*
X174761Y100739D01*
X174874Y100777D01*
X175145Y100876D01*
X175425Y100944D01*
X175711Y100986D01*
X175993Y101000D01*
Y95000D01*
X175711Y95014D01*
X175425Y95056D01*
X175145Y95124D01*
X174872Y95220D01*
X174761Y95258D01*
X174644Y95275D01*
X174526Y95275D01*
X174409Y95255D01*
X174297Y95218D01*
X174193Y95164D01*
X174098Y95094D01*
X174015Y95009D01*
X173946Y94913D01*
X173893Y94808D01*
X173857Y94695D01*
X173840Y94579D01*
X173841Y94461D01*
X173860Y94344D01*
X173897Y94232D01*
X173952Y94127D01*
X174022Y94032D01*
X174106Y93949D01*
X174202Y93881D01*
X174308Y93830D01*
X174716Y93682D01*
X175137Y93578D01*
X175567Y93516D01*
X175993Y93495D01*
Y93000D01*
G37*
G36*
X172387D02*X158000D01*
Y104053D01*
X160173Y104057D01*
X160326Y104094D01*
X160471Y104154D01*
X160606Y104236D01*
X160725Y104339D01*
X160828Y104458D01*
X160910Y104593D01*
X160970Y104738D01*
X161000Y104863D01*
X161030Y104738D01*
X161090Y104593D01*
X161172Y104458D01*
X161275Y104339D01*
X161394Y104236D01*
X161529Y104154D01*
X161674Y104094D01*
X161827Y104057D01*
X161984Y104048D01*
X167259Y104057D01*
X167412Y104094D01*
X167557Y104154D01*
X167692Y104236D01*
X167811Y104339D01*
X167914Y104458D01*
X167996Y104593D01*
X168056Y104738D01*
X168093Y104891D01*
X168102Y105048D01*
X168093Y111109D01*
X168056Y111262D01*
X167996Y111407D01*
X167914Y111542D01*
X167811Y111661D01*
X167692Y111764D01*
X167557Y111846D01*
X167412Y111906D01*
X167259Y111943D01*
X167250Y111943D01*
Y121068D01*
X171932Y125750D01*
X172101D01*
X172348Y125347D01*
X172387Y125302D01*
Y120698D01*
X172348Y120653D01*
X171978Y120049D01*
X171707Y119395D01*
X171542Y118706D01*
X171486Y118000D01*
X171542Y117294D01*
X171707Y116605D01*
X171978Y115951D01*
X172348Y115347D01*
X172387Y115302D01*
Y110698D01*
X172348Y110653D01*
X171978Y110049D01*
X171707Y109395D01*
X171542Y108706D01*
X171486Y108000D01*
X171542Y107294D01*
X171707Y106605D01*
X171978Y105951D01*
X172348Y105347D01*
X172387Y105302D01*
Y100147D01*
X172344Y100140D01*
X172232Y100103D01*
X172127Y100048D01*
X172032Y99978D01*
X171949Y99894D01*
X171881Y99798D01*
X171830Y99692D01*
X171682Y99284D01*
X171578Y98863D01*
X171516Y98433D01*
X171495Y98000D01*
X171516Y97567D01*
X171578Y97137D01*
X171682Y96716D01*
X171825Y96306D01*
X171878Y96200D01*
X171947Y96104D01*
X172030Y96019D01*
X172125Y95949D01*
X172231Y95894D01*
X172343Y95857D01*
X172387Y95849D01*
Y93000D01*
G37*
G36*
X175993Y13000D02*X158000D01*
Y27000D01*
X175993D01*
Y13000D01*
G37*
G36*
Y153250D02*X175204Y154038D01*
X175128Y154128D01*
X175993Y154993D01*
Y153250D01*
G37*
G36*
X149613Y105302D02*X149652Y105347D01*
X149899Y105750D01*
X153906D01*
X153907Y104891D01*
X153944Y104738D01*
X154004Y104593D01*
X154086Y104458D01*
X154189Y104339D01*
X154308Y104236D01*
X154443Y104154D01*
X154588Y104094D01*
X154741Y104057D01*
X154898Y104048D01*
X158000Y104053D01*
Y93000D01*
X149613D01*
Y95853D01*
X149656Y95860D01*
X149768Y95897D01*
X149873Y95952D01*
X149968Y96022D01*
X150051Y96106D01*
X150119Y96202D01*
X150170Y96308D01*
X150318Y96716D01*
X150422Y97137D01*
X150484Y97567D01*
X150505Y98000D01*
X150484Y98433D01*
X150422Y98863D01*
X150318Y99284D01*
X150175Y99694D01*
X150122Y99800D01*
X150053Y99896D01*
X149970Y99981D01*
X149875Y100051D01*
X149769Y100106D01*
X149657Y100143D01*
X149613Y100151D01*
Y105302D01*
G37*
G36*
X146000Y103486D02*X146706Y103542D01*
X147395Y103707D01*
X148049Y103978D01*
X148653Y104348D01*
X149192Y104808D01*
X149613Y105302D01*
Y100151D01*
X149540Y100163D01*
X149421Y100164D01*
X149304Y100146D01*
X149191Y100110D01*
X149085Y100057D01*
X148988Y99988D01*
X148904Y99905D01*
X148833Y99809D01*
X148779Y99704D01*
X148741Y99592D01*
X148722Y99475D01*
X148721Y99356D01*
X148739Y99239D01*
X148777Y99126D01*
X148876Y98855D01*
X148944Y98575D01*
X148986Y98289D01*
X149000Y98000D01*
X148986Y97711D01*
X148944Y97425D01*
X148876Y97145D01*
X148780Y96872D01*
X148742Y96761D01*
X148725Y96644D01*
X148725Y96526D01*
X148745Y96409D01*
X148782Y96297D01*
X148836Y96193D01*
X148906Y96098D01*
X148991Y96015D01*
X149087Y95946D01*
X149192Y95893D01*
X149305Y95857D01*
X149421Y95840D01*
X149539Y95841D01*
X149613Y95853D01*
Y93000D01*
X146000D01*
Y93495D01*
X146433Y93516D01*
X146863Y93578D01*
X147284Y93682D01*
X147694Y93825D01*
X147800Y93878D01*
X147896Y93947D01*
X147981Y94030D01*
X148051Y94125D01*
X148106Y94231D01*
X148143Y94343D01*
X148163Y94460D01*
X148164Y94579D01*
X148146Y94696D01*
X148110Y94809D01*
X148057Y94915D01*
X147988Y95012D01*
X147905Y95096D01*
X147809Y95167D01*
X147704Y95221D01*
X147592Y95259D01*
X147475Y95278D01*
X147356Y95279D01*
X147239Y95261D01*
X147126Y95223D01*
X146855Y95124D01*
X146575Y95056D01*
X146289Y95014D01*
X146000Y95000D01*
Y101000D01*
X146289Y100986D01*
X146575Y100944D01*
X146855Y100876D01*
X147128Y100780D01*
X147239Y100742D01*
X147356Y100725D01*
X147474Y100725D01*
X147591Y100745D01*
X147703Y100782D01*
X147807Y100836D01*
X147902Y100906D01*
X147985Y100991D01*
X148054Y101087D01*
X148107Y101192D01*
X148143Y101305D01*
X148160Y101421D01*
X148159Y101539D01*
X148140Y101656D01*
X148103Y101768D01*
X148048Y101873D01*
X147978Y101968D01*
X147894Y102051D01*
X147798Y102119D01*
X147692Y102170D01*
X147284Y102318D01*
X146863Y102422D01*
X146433Y102484D01*
X146000Y102505D01*
Y103486D01*
G37*
G36*
X149750Y149000D02*X158000D01*
Y111948D01*
X154741Y111943D01*
X154588Y111906D01*
X154443Y111846D01*
X154308Y111764D01*
X154189Y111661D01*
X154086Y111542D01*
X154004Y111407D01*
X153944Y111262D01*
X153907Y111109D01*
X153898Y110952D01*
X153899Y110250D01*
X149899D01*
X149750Y110493D01*
Y115507D01*
X150022Y115951D01*
X150293Y116605D01*
X150458Y117294D01*
X150500Y118000D01*
X150458Y118706D01*
X150293Y119395D01*
X150022Y120049D01*
X149750Y120493D01*
Y125507D01*
X150022Y125951D01*
X150293Y126605D01*
X150458Y127294D01*
X150500Y128000D01*
X150458Y128706D01*
X150293Y129395D01*
X150022Y130049D01*
X149750Y130493D01*
Y135748D01*
X149868Y135757D01*
X149982Y135785D01*
X150092Y135830D01*
X150192Y135891D01*
X150282Y135968D01*
X150359Y136058D01*
X150420Y136158D01*
X150465Y136268D01*
X150493Y136382D01*
X150500Y136500D01*
Y139500D01*
X150493Y139618D01*
X150465Y139732D01*
X150420Y139842D01*
X150359Y139942D01*
X150282Y140032D01*
X150192Y140109D01*
X150092Y140170D01*
X149982Y140215D01*
X149868Y140243D01*
X149750Y140252D01*
Y149000D01*
G37*
G36*
Y120493D02*X149652Y120653D01*
X149192Y121192D01*
X148653Y121652D01*
X148049Y122022D01*
X147395Y122293D01*
X146706Y122458D01*
X146000Y122514D01*
Y123486D01*
X146706Y123542D01*
X147395Y123707D01*
X148049Y123978D01*
X148653Y124348D01*
X149192Y124808D01*
X149652Y125347D01*
X149750Y125507D01*
Y120493D01*
G37*
G36*
Y110493D02*X149652Y110653D01*
X149192Y111192D01*
X148653Y111652D01*
X148049Y112022D01*
X147395Y112293D01*
X146706Y112458D01*
X146000Y112514D01*
Y113486D01*
X146706Y113542D01*
X147395Y113707D01*
X148049Y113978D01*
X148653Y114348D01*
X149192Y114808D01*
X149652Y115347D01*
X149750Y115507D01*
Y110493D01*
G37*
G36*
X146000Y149000D02*X149750D01*
Y140252D01*
X149632Y140243D01*
X149518Y140215D01*
X149408Y140170D01*
X149308Y140109D01*
X149218Y140032D01*
X149141Y139942D01*
X149080Y139842D01*
X149035Y139732D01*
X149007Y139618D01*
X149000Y139500D01*
Y136500D01*
X149007Y136382D01*
X149035Y136268D01*
X149080Y136158D01*
X149141Y136058D01*
X149218Y135968D01*
X149308Y135891D01*
X149408Y135830D01*
X149518Y135785D01*
X149632Y135757D01*
X149750Y135748D01*
Y130493D01*
X149652Y130653D01*
X149192Y131192D01*
X148653Y131652D01*
X148049Y132022D01*
X147395Y132293D01*
X146706Y132458D01*
X146000Y132514D01*
Y133500D01*
X147500D01*
X147618Y133507D01*
X147732Y133535D01*
X147842Y133580D01*
X147942Y133641D01*
X148032Y133718D01*
X148109Y133808D01*
X148170Y133908D01*
X148215Y134018D01*
X148243Y134132D01*
X148252Y134250D01*
X148243Y134368D01*
X148215Y134482D01*
X148170Y134592D01*
X148109Y134692D01*
X148032Y134782D01*
X147942Y134859D01*
X147842Y134920D01*
X147732Y134965D01*
X147618Y134993D01*
X147500Y135000D01*
X146000D01*
Y141000D01*
X147500D01*
X147618Y141007D01*
X147732Y141035D01*
X147842Y141080D01*
X147942Y141141D01*
X148032Y141218D01*
X148109Y141308D01*
X148170Y141408D01*
X148215Y141518D01*
X148243Y141632D01*
X148252Y141750D01*
X148243Y141868D01*
X148215Y141982D01*
X148170Y142092D01*
X148109Y142192D01*
X148032Y142282D01*
X147942Y142359D01*
X147842Y142420D01*
X147732Y142465D01*
X147618Y142493D01*
X147500Y142500D01*
X146000D01*
Y149000D01*
G37*
G36*
X142250Y105507D02*X142348Y105347D01*
X142808Y104808D01*
X143347Y104348D01*
X143951Y103978D01*
X144605Y103707D01*
X145294Y103542D01*
X146000Y103486D01*
X146000D01*
Y102505D01*
X146000D01*
X145567Y102484D01*
X145137Y102422D01*
X144716Y102318D01*
X144306Y102175D01*
X144200Y102122D01*
X144104Y102053D01*
X144019Y101970D01*
X143949Y101875D01*
X143894Y101769D01*
X143857Y101657D01*
X143837Y101540D01*
X143836Y101421D01*
X143854Y101304D01*
X143890Y101191D01*
X143943Y101085D01*
X144012Y100988D01*
X144095Y100904D01*
X144191Y100833D01*
X144296Y100779D01*
X144408Y100741D01*
X144525Y100722D01*
X144644Y100721D01*
X144761Y100739D01*
X144874Y100777D01*
X145145Y100876D01*
X145425Y100944D01*
X145711Y100986D01*
X146000Y101000D01*
X146000D01*
Y95000D01*
X146000D01*
X145711Y95014D01*
X145425Y95056D01*
X145145Y95124D01*
X144872Y95220D01*
X144761Y95258D01*
X144644Y95275D01*
X144526Y95275D01*
X144409Y95255D01*
X144297Y95218D01*
X144193Y95164D01*
X144098Y95094D01*
X144015Y95009D01*
X143946Y94913D01*
X143893Y94808D01*
X143857Y94695D01*
X143840Y94579D01*
X143841Y94461D01*
X143860Y94344D01*
X143897Y94232D01*
X143952Y94127D01*
X144022Y94032D01*
X144106Y93949D01*
X144202Y93881D01*
X144308Y93830D01*
X144716Y93682D01*
X145137Y93578D01*
X145567Y93516D01*
X146000Y93495D01*
X146000D01*
Y93000D01*
X142250D01*
Y95888D01*
X142343Y95857D01*
X142460Y95837D01*
X142579Y95836D01*
X142696Y95854D01*
X142809Y95890D01*
X142915Y95943D01*
X143012Y96012D01*
X143096Y96095D01*
X143167Y96191D01*
X143221Y96296D01*
X143259Y96408D01*
X143278Y96525D01*
X143279Y96644D01*
X143261Y96761D01*
X143223Y96874D01*
X143124Y97145D01*
X143056Y97425D01*
X143014Y97711D01*
X143000Y98000D01*
X143014Y98289D01*
X143056Y98575D01*
X143124Y98855D01*
X143220Y99128D01*
X143258Y99239D01*
X143275Y99356D01*
X143275Y99474D01*
X143255Y99591D01*
X143218Y99703D01*
X143164Y99807D01*
X143094Y99902D01*
X143009Y99985D01*
X142913Y100054D01*
X142808Y100107D01*
X142695Y100143D01*
X142579Y100160D01*
X142461Y100159D01*
X142344Y100140D01*
X142250Y100109D01*
Y105507D01*
G37*
G36*
Y115507D02*X142348Y115347D01*
X142808Y114808D01*
X143347Y114348D01*
X143951Y113978D01*
X144605Y113707D01*
X145294Y113542D01*
X146000Y113486D01*
X146000D01*
Y112514D01*
X146000D01*
X145294Y112458D01*
X144605Y112293D01*
X143951Y112022D01*
X143347Y111652D01*
X142808Y111192D01*
X142348Y110653D01*
X142250Y110493D01*
Y115507D01*
G37*
G36*
Y125507D02*X142348Y125347D01*
X142808Y124808D01*
X143347Y124348D01*
X143951Y123978D01*
X144605Y123707D01*
X145294Y123542D01*
X146000Y123486D01*
X146000D01*
Y122514D01*
X146000D01*
X145294Y122458D01*
X144605Y122293D01*
X143951Y122022D01*
X143347Y121652D01*
X142808Y121192D01*
X142348Y120653D01*
X142250Y120493D01*
Y125507D01*
G37*
G36*
Y149000D02*X146000D01*
Y142500D01*
X144500D01*
X144382Y142493D01*
X144268Y142465D01*
X144158Y142420D01*
X144058Y142359D01*
X143968Y142282D01*
X143891Y142192D01*
X143830Y142092D01*
X143785Y141982D01*
X143757Y141868D01*
X143748Y141750D01*
X143757Y141632D01*
X143785Y141518D01*
X143830Y141408D01*
X143891Y141308D01*
X143968Y141218D01*
X144058Y141141D01*
X144158Y141080D01*
X144268Y141035D01*
X144382Y141007D01*
X144500Y141000D01*
X146000D01*
Y135000D01*
X144500D01*
X144382Y134993D01*
X144268Y134965D01*
X144158Y134920D01*
X144058Y134859D01*
X143968Y134782D01*
X143891Y134692D01*
X143830Y134592D01*
X143785Y134482D01*
X143757Y134368D01*
X143748Y134250D01*
X143757Y134132D01*
X143785Y134018D01*
X143830Y133908D01*
X143891Y133808D01*
X143968Y133718D01*
X144058Y133641D01*
X144158Y133580D01*
X144268Y133535D01*
X144382Y133507D01*
X144500Y133500D01*
X146000D01*
Y132514D01*
X146000D01*
X145294Y132458D01*
X144605Y132293D01*
X143951Y132022D01*
X143347Y131652D01*
X142808Y131192D01*
X142348Y130653D01*
X142250Y130493D01*
Y135748D01*
X142368Y135757D01*
X142482Y135785D01*
X142592Y135830D01*
X142692Y135891D01*
X142782Y135968D01*
X142859Y136058D01*
X142920Y136158D01*
X142965Y136268D01*
X142993Y136382D01*
X143000Y136500D01*
Y139500D01*
X142993Y139618D01*
X142965Y139732D01*
X142920Y139842D01*
X142859Y139942D01*
X142782Y140032D01*
X142692Y140109D01*
X142592Y140170D01*
X142482Y140215D01*
X142368Y140243D01*
X142250Y140252D01*
Y149000D01*
G37*
G36*
X131001D02*X142250D01*
Y140252D01*
X142132Y140243D01*
X142018Y140215D01*
X141908Y140170D01*
X141808Y140109D01*
X141718Y140032D01*
X141641Y139942D01*
X141580Y139842D01*
X141535Y139732D01*
X141507Y139618D01*
X141500Y139500D01*
Y136500D01*
X141507Y136382D01*
X141535Y136268D01*
X141580Y136158D01*
X141641Y136058D01*
X141718Y135968D01*
X141808Y135891D01*
X141908Y135830D01*
X142018Y135785D01*
X142132Y135757D01*
X142250Y135748D01*
Y130493D01*
X141978Y130049D01*
X141707Y129395D01*
X141542Y128706D01*
X141486Y128000D01*
X141542Y127294D01*
X141707Y126605D01*
X141978Y125951D01*
X142250Y125507D01*
Y120493D01*
X141978Y120049D01*
X141707Y119395D01*
X141542Y118706D01*
X141486Y118000D01*
X141542Y117294D01*
X141707Y116605D01*
X141978Y115951D01*
X142250Y115507D01*
Y110493D01*
X141978Y110049D01*
X141707Y109395D01*
X141542Y108706D01*
X141486Y108000D01*
X141542Y107294D01*
X141707Y106605D01*
X141978Y105951D01*
X142250Y105507D01*
Y100109D01*
X142232Y100103D01*
X142127Y100048D01*
X142032Y99978D01*
X141949Y99894D01*
X141881Y99798D01*
X141830Y99692D01*
X141682Y99284D01*
X141578Y98863D01*
X141516Y98433D01*
X141495Y98000D01*
X141516Y97567D01*
X141578Y97137D01*
X141682Y96716D01*
X141825Y96306D01*
X141878Y96200D01*
X141947Y96104D01*
X142030Y96019D01*
X142125Y95949D01*
X142231Y95894D01*
X142250Y95888D01*
Y93000D01*
X135000D01*
X131001Y89001D01*
Y149000D01*
G37*
G36*
X158000Y13000D02*X134390D01*
Y18035D01*
X134481Y18053D01*
X134592Y18093D01*
X134695Y18151D01*
X134788Y18223D01*
X134869Y18310D01*
X134935Y18408D01*
X134982Y18515D01*
X135103Y18875D01*
X135187Y19245D01*
X135237Y19621D01*
X135254Y20000D01*
X135237Y20379D01*
X135187Y20755D01*
X135103Y21125D01*
X134986Y21486D01*
X134937Y21594D01*
X134871Y21692D01*
X134790Y21779D01*
X134697Y21852D01*
X134593Y21909D01*
X134482Y21950D01*
X134390Y21968D01*
Y34610D01*
X142000Y27000D01*
X158000D01*
Y13000D01*
G37*
G36*
X134390D02*X131001D01*
Y15746D01*
X131379Y15763D01*
X131755Y15813D01*
X132125Y15897D01*
X132486Y16014D01*
X132594Y16063D01*
X132692Y16129D01*
X132779Y16210D01*
X132852Y16303D01*
X132909Y16407D01*
X132950Y16518D01*
X132973Y16634D01*
X132977Y16753D01*
X132963Y16870D01*
X132930Y16984D01*
X132880Y17092D01*
X132814Y17190D01*
X132733Y17277D01*
X132640Y17350D01*
X132536Y17407D01*
X132425Y17448D01*
X132309Y17471D01*
X132190Y17475D01*
X132073Y17461D01*
X131960Y17426D01*
X131727Y17348D01*
X131488Y17294D01*
X131245Y17261D01*
X131001Y17250D01*
Y22750D01*
X131245Y22739D01*
X131488Y22706D01*
X131727Y22652D01*
X131961Y22577D01*
X132073Y22542D01*
X132190Y22528D01*
X132308Y22532D01*
X132424Y22555D01*
X132535Y22595D01*
X132638Y22653D01*
X132731Y22725D01*
X132812Y22812D01*
X132878Y22910D01*
X132927Y23017D01*
X132960Y23130D01*
X132974Y23247D01*
X132970Y23365D01*
X132947Y23481D01*
X132907Y23592D01*
X132849Y23695D01*
X132777Y23788D01*
X132690Y23869D01*
X132592Y23935D01*
X132485Y23982D01*
X132125Y24103D01*
X131755Y24187D01*
X131379Y24237D01*
X131001Y24254D01*
Y37999D01*
X134390Y34610D01*
Y21968D01*
X134366Y21973D01*
X134247Y21977D01*
X134130Y21963D01*
X134016Y21930D01*
X133908Y21880D01*
X133810Y21814D01*
X133723Y21733D01*
X133650Y21640D01*
X133593Y21536D01*
X133552Y21425D01*
X133529Y21309D01*
X133525Y21190D01*
X133539Y21073D01*
X133574Y20960D01*
X133652Y20727D01*
X133706Y20488D01*
X133739Y20245D01*
X133750Y20000D01*
X133739Y19755D01*
X133706Y19512D01*
X133652Y19273D01*
X133577Y19039D01*
X133542Y18927D01*
X133528Y18810D01*
X133532Y18692D01*
X133555Y18576D01*
X133595Y18465D01*
X133653Y18362D01*
X133725Y18269D01*
X133812Y18188D01*
X133910Y18122D01*
X134017Y18073D01*
X134130Y18040D01*
X134247Y18026D01*
X134365Y18030D01*
X134390Y18035D01*
Y13000D01*
G37*
G36*
X131001D02*X127610D01*
Y18032D01*
X127634Y18027D01*
X127753Y18023D01*
X127870Y18037D01*
X127984Y18070D01*
X128092Y18120D01*
X128190Y18186D01*
X128277Y18267D01*
X128350Y18360D01*
X128407Y18464D01*
X128448Y18575D01*
X128471Y18691D01*
X128475Y18810D01*
X128461Y18927D01*
X128426Y19040D01*
X128348Y19273D01*
X128294Y19512D01*
X128261Y19755D01*
X128250Y20000D01*
X128261Y20245D01*
X128294Y20488D01*
X128348Y20727D01*
X128423Y20961D01*
X128458Y21073D01*
X128472Y21190D01*
X128468Y21308D01*
X128445Y21424D01*
X128405Y21535D01*
X128347Y21638D01*
X128275Y21731D01*
X128188Y21812D01*
X128090Y21878D01*
X127983Y21927D01*
X127870Y21960D01*
X127753Y21974D01*
X127635Y21970D01*
X127610Y21965D01*
Y149000D01*
X131001D01*
Y89001D01*
X131000Y89000D01*
Y38000D01*
X131001Y37999D01*
Y24254D01*
X131000Y24254D01*
X130621Y24237D01*
X130245Y24187D01*
X129875Y24103D01*
X129514Y23986D01*
X129406Y23937D01*
X129308Y23871D01*
X129221Y23790D01*
X129148Y23697D01*
X129091Y23593D01*
X129050Y23482D01*
X129027Y23366D01*
X129023Y23247D01*
X129037Y23130D01*
X129070Y23016D01*
X129120Y22908D01*
X129186Y22810D01*
X129267Y22723D01*
X129360Y22650D01*
X129464Y22593D01*
X129575Y22552D01*
X129691Y22529D01*
X129810Y22525D01*
X129927Y22539D01*
X130040Y22574D01*
X130273Y22652D01*
X130512Y22706D01*
X130755Y22739D01*
X131000Y22750D01*
X131001Y22750D01*
Y17250D01*
X131000Y17250D01*
X130755Y17261D01*
X130512Y17294D01*
X130273Y17348D01*
X130039Y17423D01*
X129927Y17458D01*
X129810Y17472D01*
X129692Y17468D01*
X129576Y17445D01*
X129465Y17405D01*
X129362Y17347D01*
X129269Y17275D01*
X129188Y17188D01*
X129122Y17090D01*
X129073Y16983D01*
X129040Y16870D01*
X129026Y16753D01*
X129030Y16635D01*
X129053Y16519D01*
X129093Y16408D01*
X129151Y16305D01*
X129223Y16212D01*
X129310Y16131D01*
X129408Y16065D01*
X129515Y16018D01*
X129875Y15897D01*
X130245Y15813D01*
X130621Y15763D01*
X131000Y15746D01*
X131001Y15746D01*
Y13000D01*
G37*
G36*
X127610D02*X101120D01*
Y104433D01*
X101275Y104497D01*
X101651Y104728D01*
X101986Y105014D01*
X102272Y105349D01*
X102503Y105725D01*
X102671Y106132D01*
X102774Y106561D01*
X102800Y107000D01*
X102774Y107439D01*
X102671Y107868D01*
X102503Y108275D01*
X102272Y108651D01*
X102000Y108970D01*
Y114122D01*
X102006Y114200D01*
X101981Y114514D01*
X101981Y114514D01*
X101908Y114820D01*
X101788Y115111D01*
X101623Y115379D01*
X101419Y115619D01*
X101359Y115670D01*
X101120Y115908D01*
Y131378D01*
X103577Y131381D01*
X103668Y131403D01*
X103756Y131439D01*
X103836Y131489D01*
X103908Y131550D01*
X103969Y131622D01*
X104019Y131702D01*
X104055Y131790D01*
X104077Y131881D01*
X104082Y131976D01*
X104077Y136401D01*
X104055Y136492D01*
X104019Y136580D01*
X103969Y136660D01*
X103908Y136732D01*
X103836Y136793D01*
X103756Y136843D01*
X103668Y136879D01*
X103577Y136901D01*
X103482Y136907D01*
X101120Y136904D01*
Y149000D01*
X127610D01*
Y21965D01*
X127519Y21947D01*
X127408Y21907D01*
X127305Y21850D01*
X127212Y21777D01*
X127131Y21690D01*
X127065Y21592D01*
X127018Y21485D01*
X126897Y21125D01*
X126813Y20755D01*
X126763Y20379D01*
X126746Y20000D01*
X126763Y19621D01*
X126813Y19245D01*
X126897Y18875D01*
X127014Y18514D01*
X127063Y18406D01*
X127129Y18308D01*
X127210Y18221D01*
X127303Y18148D01*
X127407Y18091D01*
X127518Y18050D01*
X127610Y18032D01*
Y13000D01*
G37*
G36*
X98001Y149000D02*X101120D01*
Y136904D01*
X98663Y136901D01*
X98572Y136879D01*
X98484Y136843D01*
X98404Y136793D01*
X98332Y136732D01*
X98271Y136660D01*
X98221Y136580D01*
X98185Y136492D01*
X98163Y136401D01*
X98157Y136307D01*
X98163Y131881D01*
X98185Y131790D01*
X98221Y131702D01*
X98271Y131622D01*
X98332Y131550D01*
X98404Y131489D01*
X98484Y131439D01*
X98572Y131403D01*
X98663Y131381D01*
X98757Y131376D01*
X101120Y131378D01*
Y115908D01*
X99159Y117869D01*
X99156Y120259D01*
X99134Y120351D01*
X99098Y120438D01*
X99049Y120519D01*
X98988Y120591D01*
X98916Y120652D01*
X98835Y120701D01*
X98748Y120737D01*
X98656Y120759D01*
X98562Y120765D01*
X98001Y120764D01*
Y149000D01*
G37*
G36*
X101120Y13000D02*X100230D01*
Y45714D01*
X100298Y45728D01*
X100371Y45755D01*
X100440Y45794D01*
X100502Y45843D01*
X100555Y45901D01*
X100598Y45966D01*
X100630Y46038D01*
X100706Y46271D01*
X100760Y46511D01*
X100792Y46755D01*
X100803Y47000D01*
X100792Y47245D01*
X100760Y47489D01*
X100706Y47729D01*
X100632Y47963D01*
X100600Y48035D01*
X100556Y48100D01*
X100503Y48159D01*
X100441Y48208D01*
X100372Y48246D01*
X100298Y48274D01*
X100230Y48288D01*
Y82623D01*
X100246Y82642D01*
X100575Y83178D01*
X100816Y83760D01*
X100963Y84372D01*
X101000Y85000D01*
X100963Y85628D01*
X100816Y86240D01*
X100575Y86822D01*
X100246Y87358D01*
X100230Y87377D01*
Y104209D01*
X100439Y104226D01*
X100868Y104329D01*
X101120Y104433D01*
Y13000D01*
G37*
G36*
X100230Y87377D02*X99837Y87837D01*
X99358Y88246D01*
X98822Y88575D01*
X98240Y88816D01*
X98001Y88873D01*
Y105029D01*
X98014Y105014D01*
X98349Y104728D01*
X98725Y104497D01*
X99132Y104329D01*
X99561Y104226D01*
X100000Y104191D01*
X100230Y104209D01*
Y87377D01*
G37*
G36*
Y13000D02*X98001D01*
Y44197D01*
X98245Y44208D01*
X98489Y44240D01*
X98729Y44294D01*
X98963Y44368D01*
X99035Y44400D01*
X99100Y44444D01*
X99159Y44497D01*
X99208Y44559D01*
X99246Y44628D01*
X99274Y44702D01*
X99290Y44779D01*
X99293Y44858D01*
X99284Y44937D01*
X99263Y45013D01*
X99230Y45085D01*
X99186Y45150D01*
X99133Y45209D01*
X99071Y45258D01*
X99002Y45296D01*
X98928Y45324D01*
X98851Y45340D01*
X98772Y45343D01*
X98693Y45334D01*
X98618Y45311D01*
X98468Y45262D01*
X98314Y45228D01*
X98158Y45207D01*
X98001Y45200D01*
Y48800D01*
X98158Y48793D01*
X98314Y48772D01*
X98468Y48738D01*
X98618Y48690D01*
X98694Y48668D01*
X98772Y48659D01*
X98850Y48662D01*
X98927Y48678D01*
X99001Y48705D01*
X99070Y48744D01*
X99131Y48793D01*
X99185Y48851D01*
X99228Y48916D01*
X99261Y48988D01*
X99282Y49064D01*
X99291Y49142D01*
X99288Y49220D01*
X99272Y49298D01*
X99245Y49371D01*
X99206Y49440D01*
X99157Y49502D01*
X99099Y49555D01*
X99034Y49598D01*
X98962Y49630D01*
X98729Y49706D01*
X98489Y49760D01*
X98245Y49792D01*
X98001Y49803D01*
Y81127D01*
X98240Y81184D01*
X98822Y81425D01*
X99358Y81754D01*
X99837Y82163D01*
X100230Y82623D01*
Y48288D01*
X100221Y48290D01*
X100142Y48293D01*
X100063Y48284D01*
X99987Y48263D01*
X99915Y48230D01*
X99850Y48186D01*
X99791Y48133D01*
X99742Y48071D01*
X99704Y48002D01*
X99676Y47928D01*
X99660Y47851D01*
X99657Y47772D01*
X99666Y47693D01*
X99689Y47618D01*
X99738Y47468D01*
X99772Y47314D01*
X99793Y47158D01*
X99800Y47000D01*
X99793Y46842D01*
X99772Y46686D01*
X99738Y46532D01*
X99690Y46382D01*
X99668Y46306D01*
X99659Y46228D01*
X99662Y46150D01*
X99678Y46073D01*
X99705Y45999D01*
X99744Y45930D01*
X99793Y45869D01*
X99851Y45815D01*
X99916Y45772D01*
X99988Y45739D01*
X100064Y45718D01*
X100142Y45709D01*
X100220Y45712D01*
X100230Y45714D01*
Y13000D01*
G37*
G36*
X98001Y88873D02*X97628Y88963D01*
X97000Y89012D01*
X96372Y88963D01*
X95760Y88816D01*
X95178Y88575D01*
X94642Y88246D01*
X94354Y88000D01*
X92905D01*
Y131380D01*
X93735Y131381D01*
X93826Y131403D01*
X93914Y131439D01*
X93994Y131489D01*
X94066Y131550D01*
X94127Y131622D01*
X94177Y131702D01*
X94213Y131790D01*
X94235Y131881D01*
X94240Y131976D01*
X94235Y136401D01*
X94213Y136492D01*
X94177Y136580D01*
X94127Y136660D01*
X94066Y136732D01*
X93994Y136793D01*
X93914Y136843D01*
X93826Y136879D01*
X93735Y136901D01*
X93640Y136907D01*
X92905Y136906D01*
Y149000D01*
X98001D01*
Y120764D01*
X93743Y120759D01*
X93651Y120737D01*
X93564Y120701D01*
X93483Y120652D01*
X93411Y120591D01*
X93350Y120519D01*
X93301Y120438D01*
X93265Y120351D01*
X93243Y120259D01*
X93237Y120165D01*
X93243Y115741D01*
X93265Y115649D01*
X93301Y115562D01*
X93350Y115481D01*
X93411Y115409D01*
X93483Y115348D01*
X93564Y115299D01*
X93651Y115263D01*
X93743Y115241D01*
X93837Y115235D01*
X96134Y115238D01*
X98000Y113372D01*
Y108970D01*
X97728Y108651D01*
X97497Y108275D01*
X97329Y107868D01*
X97226Y107439D01*
X97191Y107000D01*
X97226Y106561D01*
X97329Y106132D01*
X97497Y105725D01*
X97728Y105349D01*
X98001Y105029D01*
Y88873D01*
G37*
G36*
Y13000D02*X95770D01*
Y34758D01*
X95862Y34980D01*
X95972Y35439D01*
X96009Y35910D01*
X95972Y36381D01*
X95862Y36840D01*
X95770Y37062D01*
Y45712D01*
X95779Y45710D01*
X95858Y45707D01*
X95937Y45716D01*
X96013Y45737D01*
X96085Y45770D01*
X96150Y45814D01*
X96209Y45867D01*
X96258Y45929D01*
X96296Y45998D01*
X96324Y46072D01*
X96340Y46149D01*
X96343Y46228D01*
X96334Y46307D01*
X96311Y46382D01*
X96262Y46532D01*
X96228Y46686D01*
X96207Y46842D01*
X96200Y47000D01*
X96207Y47158D01*
X96228Y47314D01*
X96262Y47468D01*
X96310Y47618D01*
X96332Y47694D01*
X96341Y47772D01*
X96338Y47850D01*
X96322Y47927D01*
X96295Y48001D01*
X96256Y48070D01*
X96207Y48131D01*
X96149Y48185D01*
X96084Y48228D01*
X96012Y48261D01*
X95936Y48282D01*
X95858Y48291D01*
X95780Y48288D01*
X95770Y48286D01*
Y75830D01*
X95986Y76014D01*
X96272Y76349D01*
X96503Y76725D01*
X96671Y77132D01*
X96774Y77561D01*
X96800Y78000D01*
X96774Y78439D01*
X96671Y78868D01*
X96503Y79275D01*
X96272Y79651D01*
X95986Y79986D01*
X95770Y80170D01*
Y81182D01*
X96372Y81037D01*
X97000Y80988D01*
X97628Y81037D01*
X98001Y81127D01*
Y49803D01*
X98000Y49803D01*
X97755Y49792D01*
X97511Y49760D01*
X97271Y49706D01*
X97037Y49632D01*
X96965Y49600D01*
X96900Y49556D01*
X96841Y49503D01*
X96792Y49441D01*
X96754Y49372D01*
X96726Y49298D01*
X96710Y49221D01*
X96707Y49142D01*
X96716Y49063D01*
X96737Y48987D01*
X96770Y48915D01*
X96814Y48850D01*
X96867Y48791D01*
X96929Y48742D01*
X96998Y48704D01*
X97072Y48676D01*
X97149Y48660D01*
X97228Y48657D01*
X97307Y48666D01*
X97382Y48689D01*
X97532Y48738D01*
X97686Y48772D01*
X97842Y48793D01*
X98000Y48800D01*
X98001Y48800D01*
Y45200D01*
X98000Y45200D01*
X97842Y45207D01*
X97686Y45228D01*
X97532Y45262D01*
X97382Y45310D01*
X97306Y45332D01*
X97228Y45341D01*
X97150Y45338D01*
X97073Y45322D01*
X96999Y45295D01*
X96930Y45256D01*
X96869Y45207D01*
X96815Y45149D01*
X96772Y45084D01*
X96739Y45012D01*
X96718Y44936D01*
X96709Y44858D01*
X96712Y44780D01*
X96728Y44702D01*
X96755Y44629D01*
X96794Y44560D01*
X96843Y44498D01*
X96901Y44445D01*
X96966Y44402D01*
X97038Y44370D01*
X97271Y44294D01*
X97511Y44240D01*
X97755Y44208D01*
X98000Y44197D01*
X98001Y44197D01*
Y13000D01*
G37*
G36*
X95770Y80170D02*X95651Y80272D01*
X95275Y80503D01*
X94868Y80671D01*
X94439Y80774D01*
X94000Y80809D01*
X93561Y80774D01*
X93132Y80671D01*
X92905Y80577D01*
Y82000D01*
X94354D01*
X94642Y81754D01*
X95178Y81425D01*
X95760Y81184D01*
X95770Y81182D01*
Y80170D01*
G37*
G36*
Y37062D02*X95681Y37276D01*
X95435Y37679D01*
X95121Y38031D01*
X94931Y38221D01*
X94579Y38535D01*
X94176Y38781D01*
X93740Y38962D01*
X93281Y39072D01*
X92905Y39102D01*
Y75423D01*
X93132Y75329D01*
X93561Y75226D01*
X94000Y75191D01*
X94439Y75226D01*
X94868Y75329D01*
X95275Y75497D01*
X95651Y75728D01*
X95770Y75830D01*
Y48286D01*
X95702Y48272D01*
X95629Y48245D01*
X95560Y48206D01*
X95498Y48157D01*
X95445Y48099D01*
X95402Y48034D01*
X95370Y47962D01*
X95294Y47729D01*
X95240Y47489D01*
X95208Y47245D01*
X95197Y47000D01*
X95208Y46755D01*
X95240Y46511D01*
X95294Y46271D01*
X95368Y46037D01*
X95400Y45965D01*
X95444Y45900D01*
X95497Y45841D01*
X95559Y45792D01*
X95628Y45754D01*
X95702Y45726D01*
X95770Y45712D01*
Y37062D01*
G37*
G36*
Y13000D02*X92905D01*
Y32908D01*
X93000Y32901D01*
X93471Y32938D01*
X93930Y33048D01*
X94366Y33229D01*
X94769Y33475D01*
X95128Y33782D01*
X95435Y34141D01*
X95681Y34544D01*
X95770Y34758D01*
Y13000D01*
G37*
G36*
X92905Y136906D02*X89800Y136902D01*
Y149000D01*
X92905D01*
Y136906D01*
G37*
G36*
Y88000D02*X89800D01*
Y88304D01*
X91907Y88309D01*
X92060Y88346D01*
X92205Y88406D01*
X92340Y88488D01*
X92459Y88591D01*
X92562Y88710D01*
X92644Y88845D01*
X92704Y88990D01*
X92741Y89143D01*
X92750Y89300D01*
X92741Y94157D01*
X92704Y94310D01*
X92644Y94455D01*
X92562Y94590D01*
X92459Y94709D01*
X92340Y94812D01*
X92205Y94894D01*
X92060Y94954D01*
X91907Y94991D01*
X91750Y95000D01*
X89800Y94996D01*
Y99173D01*
X90145Y99737D01*
X90431Y100428D01*
X90606Y101155D01*
X90650Y101900D01*
X90606Y102645D01*
X90431Y103372D01*
X90145Y104063D01*
X89800Y104627D01*
Y131377D01*
X92905Y131380D01*
Y88000D01*
G37*
G36*
Y80577D02*X92725Y80503D01*
X92349Y80272D01*
X92030Y80000D01*
X89800D01*
Y82000D01*
X92905D01*
Y80577D01*
G37*
G36*
Y13000D02*X89800D01*
Y76000D01*
X92030D01*
X92349Y75728D01*
X92725Y75497D01*
X92905Y75423D01*
Y39102D01*
X92810Y39109D01*
X92339Y39072D01*
X91880Y38962D01*
X91444Y38781D01*
X91041Y38535D01*
X90682Y38228D01*
X90375Y37869D01*
X90129Y37466D01*
X89948Y37030D01*
X89838Y36571D01*
X89801Y36100D01*
X89838Y35629D01*
X89948Y35170D01*
X90129Y34734D01*
X90375Y34331D01*
X90689Y33979D01*
X90879Y33789D01*
X91231Y33475D01*
X91634Y33229D01*
X92070Y33048D01*
X92529Y32938D01*
X92905Y32908D01*
Y13000D01*
G37*
G36*
X89800Y88000D02*X83243D01*
X83000Y88243D01*
Y91532D01*
X83009Y91650D01*
X82972Y92121D01*
X82972Y92121D01*
X82944Y92237D01*
X82941Y94157D01*
X82904Y94310D01*
X82844Y94455D01*
X82762Y94590D01*
X82659Y94709D01*
X82540Y94812D01*
X82405Y94894D01*
X82260Y94954D01*
X82107Y94991D01*
X81950Y95000D01*
X78288Y94992D01*
Y99643D01*
X78345Y99737D01*
X78631Y100428D01*
X78806Y101155D01*
X78850Y101900D01*
X78806Y102645D01*
X78631Y103372D01*
X78345Y104063D01*
X78288Y104157D01*
Y115375D01*
X83858Y115379D01*
X84011Y115416D01*
X84156Y115476D01*
X84291Y115558D01*
X84410Y115661D01*
X84513Y115780D01*
X84595Y115915D01*
X84655Y116060D01*
X84692Y116213D01*
X84701Y116370D01*
X84692Y122039D01*
X84655Y122192D01*
X84595Y122337D01*
X84513Y122472D01*
X84410Y122591D01*
X84291Y122694D01*
X84156Y122776D01*
X84011Y122836D01*
X83858Y122873D01*
X83701Y122882D01*
X78288Y122877D01*
Y131123D01*
X83858Y131127D01*
X84011Y131164D01*
X84156Y131224D01*
X84291Y131306D01*
X84410Y131409D01*
X84513Y131528D01*
X84595Y131663D01*
X84655Y131808D01*
X84692Y131961D01*
X84701Y132118D01*
X84692Y137787D01*
X84655Y137940D01*
X84595Y138085D01*
X84513Y138220D01*
X84410Y138339D01*
X84291Y138442D01*
X84156Y138524D01*
X84011Y138584D01*
X83858Y138621D01*
X83701Y138630D01*
X78288Y138625D01*
Y149000D01*
X89800D01*
Y136902D01*
X88821Y136901D01*
X88730Y136879D01*
X88642Y136843D01*
X88562Y136793D01*
X88490Y136732D01*
X88429Y136660D01*
X88379Y136580D01*
X88343Y136492D01*
X88321Y136401D01*
X88315Y136307D01*
X88321Y131881D01*
X88343Y131790D01*
X88379Y131702D01*
X88429Y131622D01*
X88490Y131550D01*
X88562Y131489D01*
X88642Y131439D01*
X88730Y131403D01*
X88821Y131381D01*
X88915Y131376D01*
X89800Y131377D01*
Y104627D01*
X89755Y104701D01*
X89269Y105269D01*
X88701Y105755D01*
X88063Y106145D01*
X87372Y106431D01*
X86645Y106606D01*
X85900Y106665D01*
X85155Y106606D01*
X84428Y106431D01*
X83737Y106145D01*
X83099Y105755D01*
X82531Y105269D01*
X82045Y104701D01*
X81655Y104063D01*
X81369Y103372D01*
X81194Y102645D01*
X81135Y101900D01*
X81194Y101155D01*
X81369Y100428D01*
X81655Y99737D01*
X82045Y99099D01*
X82531Y98531D01*
X83099Y98045D01*
X83737Y97655D01*
X84428Y97369D01*
X85155Y97194D01*
X85900Y97135D01*
X86645Y97194D01*
X87372Y97369D01*
X88063Y97655D01*
X88701Y98045D01*
X89269Y98531D01*
X89755Y99099D01*
X89800Y99173D01*
Y94996D01*
X87693Y94991D01*
X87540Y94954D01*
X87395Y94894D01*
X87260Y94812D01*
X87141Y94709D01*
X87038Y94590D01*
X86956Y94455D01*
X86896Y94310D01*
X86859Y94157D01*
X86850Y94000D01*
X86859Y89143D01*
X86896Y88990D01*
X86956Y88845D01*
X87038Y88710D01*
X87141Y88591D01*
X87260Y88488D01*
X87395Y88406D01*
X87540Y88346D01*
X87693Y88309D01*
X87850Y88300D01*
X89800Y88304D01*
Y88000D01*
G37*
G36*
Y80000D02*X78288D01*
Y84470D01*
X79796Y82962D01*
X79872Y82872D01*
X80231Y82566D01*
X80231Y82565D01*
X80634Y82319D01*
X81070Y82138D01*
X81529Y82028D01*
X82000Y81991D01*
X82118Y82000D01*
X89800D01*
Y80000D01*
G37*
G36*
Y13000D02*X78288D01*
Y15750D01*
X83985Y15764D01*
X84215Y15819D01*
X84433Y15909D01*
X84634Y16033D01*
X84814Y16186D01*
X84967Y16366D01*
X85091Y16567D01*
X85181Y16785D01*
X85236Y17015D01*
X85250Y17250D01*
X85236Y22985D01*
X85181Y23215D01*
X85091Y23433D01*
X84967Y23634D01*
X84814Y23814D01*
X84634Y23967D01*
X84433Y24091D01*
X84215Y24181D01*
X83985Y24236D01*
X83750Y24250D01*
X78288Y24237D01*
Y76000D01*
X89800D01*
Y13000D01*
G37*
G36*
X51712Y123249D02*X57283Y123253D01*
X57436Y123290D01*
X57581Y123350D01*
X57716Y123432D01*
X57835Y123535D01*
X57938Y123654D01*
X58020Y123789D01*
X58080Y123934D01*
X58117Y124087D01*
X58126Y124244D01*
X58117Y129913D01*
X58080Y130066D01*
X58020Y130211D01*
X57938Y130346D01*
X57835Y130465D01*
X57716Y130568D01*
X57581Y130650D01*
X57436Y130710D01*
X57283Y130747D01*
X57126Y130756D01*
X51712Y130751D01*
Y131123D01*
X57283Y131127D01*
X57436Y131164D01*
X57581Y131224D01*
X57716Y131306D01*
X57835Y131409D01*
X57938Y131528D01*
X58020Y131663D01*
X58080Y131808D01*
X58117Y131961D01*
X58126Y132118D01*
X58125Y133000D01*
X58172D01*
X59000Y132172D01*
Y122828D01*
X58117Y121945D01*
X58117Y122039D01*
X58080Y122192D01*
X58020Y122337D01*
X57938Y122472D01*
X57835Y122591D01*
X57716Y122694D01*
X57581Y122776D01*
X57436Y122836D01*
X57283Y122873D01*
X57126Y122882D01*
X51712Y122877D01*
Y123249D01*
G37*
G36*
X60993Y119165D02*X62359Y120530D01*
X62419Y120581D01*
X62623Y120821D01*
X62623Y120821D01*
X62788Y121089D01*
X62908Y121380D01*
X62981Y121686D01*
X63006Y122000D01*
X63000Y122078D01*
Y132922D01*
X63006Y133000D01*
X62981Y133314D01*
X62981Y133314D01*
X62908Y133620D01*
X62788Y133911D01*
X62623Y134179D01*
X62419Y134419D01*
X62359Y134470D01*
X60993Y135835D01*
Y149000D01*
X62354D01*
X62642Y148754D01*
X63178Y148425D01*
X63760Y148184D01*
X64372Y148037D01*
X65000Y147988D01*
X65628Y148037D01*
X66240Y148184D01*
X66822Y148425D01*
X67358Y148754D01*
X67646Y149000D01*
X78288D01*
Y138625D01*
X72717Y138621D01*
X72564Y138584D01*
X72419Y138524D01*
X72284Y138442D01*
X72165Y138339D01*
X72062Y138220D01*
X71980Y138085D01*
X71920Y137940D01*
X71883Y137787D01*
X71874Y137630D01*
X71883Y131961D01*
X71920Y131808D01*
X71980Y131663D01*
X72062Y131528D01*
X72165Y131409D01*
X72284Y131306D01*
X72419Y131224D01*
X72564Y131164D01*
X72717Y131127D01*
X72874Y131118D01*
X78288Y131123D01*
Y122877D01*
X72717Y122873D01*
X72564Y122836D01*
X72419Y122776D01*
X72284Y122694D01*
X72165Y122591D01*
X72062Y122472D01*
X71980Y122337D01*
X71920Y122192D01*
X71883Y122039D01*
X71874Y121882D01*
X71883Y116213D01*
X71920Y116060D01*
X71980Y115915D01*
X72062Y115780D01*
X72165Y115661D01*
X72284Y115558D01*
X72419Y115476D01*
X72564Y115416D01*
X72717Y115379D01*
X72874Y115370D01*
X78288Y115375D01*
Y104157D01*
X77955Y104701D01*
X77469Y105269D01*
X76901Y105755D01*
X76263Y106145D01*
X75572Y106431D01*
X74845Y106606D01*
X74100Y106665D01*
X73355Y106606D01*
X72628Y106431D01*
X71937Y106145D01*
X71299Y105755D01*
X70731Y105269D01*
X70245Y104701D01*
X69855Y104063D01*
X69569Y103372D01*
X69394Y102645D01*
X69335Y101900D01*
X69394Y101155D01*
X69569Y100428D01*
X69855Y99737D01*
X70245Y99099D01*
X70731Y98531D01*
X71299Y98045D01*
X71937Y97655D01*
X72628Y97369D01*
X73355Y97194D01*
X74100Y97135D01*
X74845Y97194D01*
X75572Y97369D01*
X76263Y97655D01*
X76901Y98045D01*
X77469Y98531D01*
X77955Y99099D01*
X78288Y99643D01*
Y94992D01*
X77893Y94991D01*
X77740Y94954D01*
X77595Y94894D01*
X77460Y94812D01*
X77341Y94709D01*
X77238Y94590D01*
X77156Y94455D01*
X77096Y94310D01*
X77059Y94157D01*
X77050Y94000D01*
X77052Y92715D01*
X77038Y92680D01*
X76928Y92221D01*
X76891Y91750D01*
X76928Y91279D01*
X77000Y90979D01*
Y87118D01*
X76991Y87000D01*
X77028Y86529D01*
Y86529D01*
X77049Y86440D01*
X77138Y86070D01*
X77319Y85634D01*
X77565Y85231D01*
X77565Y85231D01*
X77872Y84872D01*
X77962Y84796D01*
X78288Y84470D01*
Y80000D01*
X76828D01*
X72100Y84728D01*
Y88309D01*
X72307Y88309D01*
X72460Y88346D01*
X72605Y88406D01*
X72740Y88488D01*
X72859Y88591D01*
X72962Y88710D01*
X73044Y88845D01*
X73104Y88990D01*
X73141Y89143D01*
X73150Y89300D01*
X73141Y94157D01*
X73104Y94310D01*
X73044Y94455D01*
X72962Y94590D01*
X72859Y94709D01*
X72740Y94812D01*
X72605Y94894D01*
X72460Y94954D01*
X72307Y94991D01*
X72150Y95000D01*
X71095Y94998D01*
X68674Y97418D01*
X68816Y97760D01*
X68963Y98372D01*
X69000Y99000D01*
X68963Y99628D01*
X68816Y100240D01*
X68575Y100822D01*
X68246Y101358D01*
X67837Y101837D01*
X67358Y102246D01*
X66822Y102575D01*
X66240Y102816D01*
X65628Y102963D01*
X65000Y103012D01*
X64372Y102963D01*
X63760Y102816D01*
X63178Y102575D01*
X62642Y102246D01*
X62163Y101837D01*
X61754Y101358D01*
X61425Y100822D01*
X61184Y100240D01*
X61037Y99628D01*
X60993Y99069D01*
Y119165D01*
G37*
G36*
X78288Y13000D02*X64613D01*
Y29302D01*
X64652Y29347D01*
X65022Y29951D01*
X65293Y30605D01*
X65458Y31294D01*
X65500Y32000D01*
X65458Y32706D01*
X65293Y33395D01*
X65022Y34049D01*
X64652Y34653D01*
X64613Y34698D01*
Y39302D01*
X64652Y39347D01*
X65022Y39951D01*
X65293Y40605D01*
X65458Y41294D01*
X65500Y42000D01*
X65458Y42706D01*
X65293Y43395D01*
X65022Y44049D01*
X64652Y44653D01*
X64613Y44698D01*
Y49302D01*
X64652Y49347D01*
X65022Y49951D01*
X65293Y50605D01*
X65458Y51294D01*
X65500Y52000D01*
X65458Y52706D01*
X65293Y53395D01*
X65022Y54049D01*
X64652Y54653D01*
X64613Y54698D01*
Y59853D01*
X64656Y59860D01*
X64768Y59897D01*
X64873Y59952D01*
X64968Y60022D01*
X65051Y60106D01*
X65119Y60202D01*
X65170Y60308D01*
X65318Y60716D01*
X65422Y61137D01*
X65484Y61567D01*
X65505Y62000D01*
X65484Y62433D01*
X65422Y62863D01*
X65318Y63284D01*
X65175Y63694D01*
X65122Y63800D01*
X65053Y63896D01*
X64970Y63981D01*
X64875Y64051D01*
X64769Y64106D01*
X64657Y64143D01*
X64613Y64151D01*
Y92994D01*
X67257Y90350D01*
X67259Y89143D01*
X67296Y88990D01*
X67356Y88845D01*
X67438Y88710D01*
X67541Y88591D01*
X67660Y88488D01*
X67795Y88406D01*
X67940Y88346D01*
X68093Y88309D01*
X68100Y88309D01*
Y83978D01*
X68094Y83900D01*
X68119Y83586D01*
X68174Y83354D01*
X68192Y83280D01*
X68227Y83195D01*
X68312Y82989D01*
X68477Y82721D01*
X68477Y82721D01*
X68681Y82481D01*
X68741Y82430D01*
X74530Y76641D01*
X74581Y76581D01*
X74821Y76377D01*
X74821Y76377D01*
X75089Y76212D01*
X75380Y76092D01*
X75686Y76019D01*
X76000Y75994D01*
X76078Y76000D01*
X78288D01*
Y24237D01*
X78015Y24236D01*
X77785Y24181D01*
X77567Y24091D01*
X77366Y23967D01*
X77186Y23814D01*
X77033Y23634D01*
X76909Y23433D01*
X76819Y23215D01*
X76764Y22985D01*
X76750Y22750D01*
X76764Y17015D01*
X76819Y16785D01*
X76909Y16567D01*
X77033Y16366D01*
X77186Y16186D01*
X77366Y16033D01*
X77567Y15909D01*
X77785Y15819D01*
X78015Y15764D01*
X78250Y15750D01*
X78288Y15750D01*
Y13000D01*
G37*
G36*
X64613Y54698D02*X64192Y55192D01*
X63653Y55652D01*
X63049Y56022D01*
X62395Y56293D01*
X61706Y56458D01*
X61000Y56514D01*
X60993Y56513D01*
Y57495D01*
X61000Y57495D01*
X61433Y57516D01*
X61863Y57578D01*
X62284Y57682D01*
X62694Y57825D01*
X62800Y57878D01*
X62896Y57947D01*
X62981Y58030D01*
X63051Y58125D01*
X63106Y58231D01*
X63143Y58343D01*
X63163Y58460D01*
X63164Y58579D01*
X63146Y58696D01*
X63110Y58809D01*
X63057Y58915D01*
X62988Y59012D01*
X62905Y59096D01*
X62809Y59167D01*
X62704Y59221D01*
X62592Y59259D01*
X62475Y59278D01*
X62356Y59279D01*
X62239Y59261D01*
X62126Y59223D01*
X61855Y59124D01*
X61575Y59056D01*
X61289Y59014D01*
X61000Y59000D01*
X60993Y59000D01*
Y65000D01*
X61000Y65000D01*
X61289Y64986D01*
X61575Y64944D01*
X61855Y64876D01*
X62128Y64780D01*
X62239Y64742D01*
X62356Y64725D01*
X62474Y64725D01*
X62591Y64745D01*
X62703Y64782D01*
X62807Y64836D01*
X62902Y64906D01*
X62985Y64991D01*
X63054Y65087D01*
X63107Y65192D01*
X63143Y65305D01*
X63160Y65421D01*
X63159Y65539D01*
X63140Y65656D01*
X63103Y65768D01*
X63048Y65873D01*
X62978Y65968D01*
X62894Y66051D01*
X62798Y66119D01*
X62692Y66170D01*
X62284Y66318D01*
X61863Y66422D01*
X61433Y66484D01*
X61000Y66505D01*
X60993Y66505D01*
Y98931D01*
X61037Y98372D01*
X61184Y97760D01*
X61425Y97178D01*
X61754Y96642D01*
X62047Y96298D01*
X62049Y96290D01*
X62138Y95920D01*
X62319Y95484D01*
X62565Y95081D01*
X62565Y95081D01*
X62872Y94722D01*
X62962Y94646D01*
X64613Y92994D01*
Y64151D01*
X64540Y64163D01*
X64421Y64164D01*
X64304Y64146D01*
X64191Y64110D01*
X64085Y64057D01*
X63988Y63988D01*
X63904Y63905D01*
X63833Y63809D01*
X63779Y63704D01*
X63741Y63592D01*
X63722Y63475D01*
X63721Y63356D01*
X63739Y63239D01*
X63777Y63126D01*
X63876Y62855D01*
X63944Y62575D01*
X63986Y62289D01*
X64000Y62000D01*
X63986Y61711D01*
X63944Y61425D01*
X63876Y61145D01*
X63780Y60872D01*
X63742Y60761D01*
X63725Y60644D01*
X63725Y60526D01*
X63745Y60409D01*
X63782Y60297D01*
X63836Y60193D01*
X63906Y60098D01*
X63991Y60015D01*
X64087Y59946D01*
X64192Y59893D01*
X64305Y59857D01*
X64421Y59840D01*
X64539Y59841D01*
X64613Y59853D01*
Y54698D01*
G37*
G36*
Y44698D02*X64192Y45192D01*
X63653Y45652D01*
X63049Y46022D01*
X62395Y46293D01*
X61706Y46458D01*
X61000Y46514D01*
X60993Y46513D01*
Y47487D01*
X61000Y47486D01*
X61706Y47542D01*
X62395Y47707D01*
X63049Y47978D01*
X63653Y48348D01*
X64192Y48808D01*
X64613Y49302D01*
Y44698D01*
G37*
G36*
Y34698D02*X64192Y35192D01*
X63653Y35652D01*
X63049Y36022D01*
X62395Y36293D01*
X61706Y36458D01*
X61000Y36514D01*
X60993Y36513D01*
Y37487D01*
X61000Y37486D01*
X61706Y37542D01*
X62395Y37707D01*
X63049Y37978D01*
X63653Y38348D01*
X64192Y38808D01*
X64613Y39302D01*
Y34698D01*
G37*
G36*
Y13000D02*X60993D01*
Y27487D01*
X61000Y27486D01*
X61706Y27542D01*
X62395Y27707D01*
X63049Y27978D01*
X63653Y28348D01*
X64192Y28808D01*
X64613Y29302D01*
Y13000D01*
G37*
G36*
X60993Y135835D02*X60470Y136359D01*
X60419Y136419D01*
X60179Y136623D01*
X59911Y136788D01*
X59620Y136908D01*
X59314Y136981D01*
X59314Y136981D01*
X59000Y137006D01*
X58922Y137000D01*
X58118D01*
X58117Y137787D01*
X58080Y137940D01*
X58020Y138085D01*
X57938Y138220D01*
X57835Y138339D01*
X57716Y138442D01*
X57581Y138524D01*
X57436Y138584D01*
X57283Y138621D01*
X57126Y138630D01*
X51712Y138625D01*
Y149000D01*
X60993D01*
Y135835D01*
G37*
G36*
X57387Y39302D02*X57808Y38808D01*
X58347Y38348D01*
X58951Y37978D01*
X59605Y37707D01*
X60294Y37542D01*
X60993Y37487D01*
Y36513D01*
X60294Y36458D01*
X59605Y36293D01*
X58951Y36022D01*
X58347Y35652D01*
X57808Y35192D01*
X57387Y34698D01*
Y39302D01*
G37*
G36*
Y49302D02*X57808Y48808D01*
X58347Y48348D01*
X58951Y47978D01*
X59605Y47707D01*
X60294Y47542D01*
X60993Y47487D01*
Y46513D01*
X60294Y46458D01*
X59605Y46293D01*
X58951Y46022D01*
X58347Y45652D01*
X57808Y45192D01*
X57387Y44698D01*
Y49302D01*
G37*
G36*
Y97284D02*X57999Y97285D01*
X58152Y97322D01*
X58298Y97382D01*
X58432Y97464D01*
X58552Y97566D01*
X58654Y97686D01*
X58736Y97820D01*
X58796Y97966D01*
X58833Y98119D01*
X58842Y98276D01*
X58833Y102369D01*
X58796Y102522D01*
X58736Y102668D01*
X58654Y102802D01*
X58552Y102922D01*
X58460Y103000D01*
X58552Y103078D01*
X58654Y103198D01*
X58736Y103332D01*
X58796Y103478D01*
X58833Y103631D01*
X58842Y103788D01*
X58833Y107881D01*
X58796Y108034D01*
X58736Y108180D01*
X58654Y108314D01*
X58552Y108434D01*
X58432Y108536D01*
X58298Y108618D01*
X58152Y108678D01*
X57999Y108715D01*
X57842Y108724D01*
X57387Y108724D01*
Y115404D01*
X57436Y115416D01*
X57581Y115476D01*
X57716Y115558D01*
X57835Y115661D01*
X57938Y115780D01*
X58020Y115915D01*
X58080Y116060D01*
X58117Y116213D01*
X58126Y116370D01*
X58125Y117004D01*
X58314Y117019D01*
X58314Y117019D01*
X58620Y117092D01*
X58911Y117212D01*
X59179Y117377D01*
X59419Y117581D01*
X59470Y117641D01*
X60993Y119165D01*
Y99069D01*
X60988Y99000D01*
X60993Y98931D01*
Y66505D01*
X60567Y66484D01*
X60137Y66422D01*
X59716Y66318D01*
X59306Y66175D01*
X59200Y66122D01*
X59104Y66053D01*
X59019Y65970D01*
X58949Y65875D01*
X58894Y65769D01*
X58857Y65657D01*
X58837Y65540D01*
X58836Y65421D01*
X58854Y65304D01*
X58890Y65191D01*
X58943Y65085D01*
X59012Y64988D01*
X59095Y64904D01*
X59191Y64833D01*
X59296Y64779D01*
X59408Y64741D01*
X59525Y64722D01*
X59644Y64721D01*
X59761Y64739D01*
X59874Y64777D01*
X60145Y64876D01*
X60425Y64944D01*
X60711Y64986D01*
X60993Y65000D01*
Y59000D01*
X60711Y59014D01*
X60425Y59056D01*
X60145Y59124D01*
X59872Y59220D01*
X59761Y59258D01*
X59644Y59275D01*
X59526Y59275D01*
X59409Y59255D01*
X59297Y59218D01*
X59193Y59164D01*
X59098Y59094D01*
X59015Y59009D01*
X58946Y58913D01*
X58893Y58808D01*
X58857Y58695D01*
X58840Y58579D01*
X58841Y58461D01*
X58860Y58344D01*
X58897Y58232D01*
X58952Y58127D01*
X59022Y58032D01*
X59106Y57949D01*
X59202Y57881D01*
X59308Y57830D01*
X59716Y57682D01*
X60137Y57578D01*
X60567Y57516D01*
X60993Y57495D01*
Y56513D01*
X60294Y56458D01*
X59605Y56293D01*
X58951Y56022D01*
X58347Y55652D01*
X57808Y55192D01*
X57387Y54698D01*
Y59849D01*
X57460Y59837D01*
X57579Y59836D01*
X57696Y59854D01*
X57809Y59890D01*
X57915Y59943D01*
X58012Y60012D01*
X58096Y60095D01*
X58167Y60191D01*
X58221Y60296D01*
X58259Y60408D01*
X58278Y60525D01*
X58279Y60644D01*
X58261Y60761D01*
X58223Y60874D01*
X58124Y61145D01*
X58056Y61425D01*
X58014Y61711D01*
X58000Y62000D01*
X58014Y62289D01*
X58056Y62575D01*
X58124Y62855D01*
X58220Y63128D01*
X58258Y63239D01*
X58275Y63356D01*
X58275Y63474D01*
X58255Y63591D01*
X58218Y63703D01*
X58164Y63807D01*
X58094Y63902D01*
X58009Y63985D01*
X57913Y64054D01*
X57808Y64107D01*
X57695Y64143D01*
X57579Y64160D01*
X57461Y64159D01*
X57387Y64147D01*
Y97284D01*
G37*
G36*
X60993Y13000D02*X57387D01*
Y29302D01*
X57808Y28808D01*
X58347Y28348D01*
X58951Y27978D01*
X59605Y27707D01*
X60294Y27542D01*
X60993Y27487D01*
Y13000D01*
G37*
G36*
X57387Y108724D02*X56800Y108723D01*
X56798Y108730D01*
X56678Y109021D01*
X56513Y109289D01*
X56309Y109529D01*
X56249Y109580D01*
X53798Y112030D01*
X53774Y112439D01*
X53671Y112868D01*
X53503Y113275D01*
X53272Y113651D01*
X52986Y113986D01*
X52651Y114272D01*
X52275Y114503D01*
X51868Y114671D01*
X51712Y114708D01*
Y115375D01*
X57283Y115379D01*
X57387Y115404D01*
Y108724D01*
G37*
G36*
Y13000D02*X51712D01*
Y94238D01*
X54754Y97280D01*
X57387Y97284D01*
Y64147D01*
X57344Y64140D01*
X57232Y64103D01*
X57127Y64048D01*
X57032Y63978D01*
X56949Y63894D01*
X56881Y63798D01*
X56830Y63692D01*
X56682Y63284D01*
X56578Y62863D01*
X56516Y62433D01*
X56495Y62000D01*
X56516Y61567D01*
X56578Y61137D01*
X56682Y60716D01*
X56825Y60306D01*
X56878Y60200D01*
X56947Y60104D01*
X57030Y60019D01*
X57125Y59949D01*
X57231Y59894D01*
X57343Y59857D01*
X57387Y59849D01*
Y54698D01*
X57348Y54653D01*
X56978Y54049D01*
X56707Y53395D01*
X56542Y52706D01*
X56486Y52000D01*
X56542Y51294D01*
X56707Y50605D01*
X56978Y49951D01*
X57348Y49347D01*
X57387Y49302D01*
Y44698D01*
X57348Y44653D01*
X56978Y44049D01*
X56707Y43395D01*
X56542Y42706D01*
X56486Y42000D01*
X56542Y41294D01*
X56707Y40605D01*
X56978Y39951D01*
X57348Y39347D01*
X57387Y39302D01*
Y34698D01*
X57348Y34653D01*
X56978Y34049D01*
X56707Y33395D01*
X56542Y32706D01*
X56486Y32000D01*
X56542Y31294D01*
X56707Y30605D01*
X56978Y29951D01*
X57348Y29347D01*
X57387Y29302D01*
Y13000D01*
G37*
G36*
X39627Y149000D02*X51712D01*
Y138625D01*
X46142Y138621D01*
X45989Y138584D01*
X45844Y138524D01*
X45709Y138442D01*
X45590Y138339D01*
X45487Y138220D01*
X45405Y138085D01*
X45345Y137940D01*
X45308Y137787D01*
X45299Y137630D01*
X45300Y137000D01*
X42970D01*
X42651Y137272D01*
X42275Y137503D01*
X41868Y137671D01*
X41439Y137774D01*
X41000Y137809D01*
X40561Y137774D01*
X40132Y137671D01*
X39725Y137503D01*
X39627Y137442D01*
Y149000D01*
G37*
G36*
X51712Y13000D02*X39627D01*
Y93025D01*
X39671Y93132D01*
X39774Y93561D01*
X39798Y93970D01*
X42469Y96640D01*
X42529Y96691D01*
X42733Y96930D01*
X42733Y96931D01*
X42898Y97199D01*
X42932Y97283D01*
X44219Y97285D01*
X44372Y97322D01*
X44518Y97382D01*
X44652Y97464D01*
X44772Y97566D01*
X44874Y97686D01*
X44956Y97820D01*
X45016Y97966D01*
X45053Y98119D01*
X45062Y98276D01*
X45053Y102369D01*
X45016Y102522D01*
X44956Y102668D01*
X44874Y102802D01*
X44772Y102922D01*
X44680Y103000D01*
X44772Y103078D01*
X44874Y103198D01*
X44956Y103332D01*
X45016Y103478D01*
X45053Y103631D01*
X45062Y103788D01*
X45053Y107881D01*
X45016Y108034D01*
X44956Y108180D01*
X44874Y108314D01*
X44772Y108434D01*
X44652Y108536D01*
X44518Y108618D01*
X44372Y108678D01*
X44219Y108715D01*
X44062Y108724D01*
X42930Y108723D01*
X42898Y108801D01*
X42733Y109069D01*
X42733Y109069D01*
X42529Y109309D01*
X42469Y109360D01*
X39798Y112030D01*
X39774Y112439D01*
X39671Y112868D01*
X39627Y112975D01*
Y132558D01*
X39725Y132497D01*
X40132Y132329D01*
X40561Y132226D01*
X41000Y132191D01*
X41439Y132226D01*
X41868Y132329D01*
X42275Y132497D01*
X42651Y132728D01*
X42970Y133000D01*
X45307D01*
X45308Y131961D01*
X45345Y131808D01*
X45405Y131663D01*
X45487Y131528D01*
X45590Y131409D01*
X45709Y131306D01*
X45844Y131224D01*
X45989Y131164D01*
X46142Y131127D01*
X46299Y131118D01*
X51712Y131123D01*
Y130751D01*
X46142Y130747D01*
X45989Y130710D01*
X45844Y130650D01*
X45709Y130568D01*
X45590Y130465D01*
X45487Y130346D01*
X45405Y130211D01*
X45345Y130066D01*
X45308Y129913D01*
X45299Y129756D01*
X45308Y124087D01*
X45345Y123934D01*
X45405Y123789D01*
X45487Y123654D01*
X45590Y123535D01*
X45709Y123432D01*
X45844Y123350D01*
X45989Y123290D01*
X46142Y123253D01*
X46299Y123244D01*
X51712Y123249D01*
Y122877D01*
X46142Y122873D01*
X45989Y122836D01*
X45844Y122776D01*
X45709Y122694D01*
X45590Y122591D01*
X45487Y122472D01*
X45405Y122337D01*
X45345Y122192D01*
X45308Y122039D01*
X45299Y121882D01*
X45308Y116213D01*
X45345Y116060D01*
X45405Y115915D01*
X45487Y115780D01*
X45590Y115661D01*
X45709Y115558D01*
X45844Y115476D01*
X45989Y115416D01*
X46142Y115379D01*
X46299Y115370D01*
X51712Y115375D01*
Y114708D01*
X51439Y114774D01*
X51000Y114809D01*
X50561Y114774D01*
X50132Y114671D01*
X49725Y114503D01*
X49349Y114272D01*
X49014Y113986D01*
X48728Y113651D01*
X48497Y113275D01*
X48329Y112868D01*
X48226Y112439D01*
X48191Y112000D01*
X48226Y111561D01*
X48329Y111132D01*
X48497Y110725D01*
X48728Y110349D01*
X49014Y110014D01*
X49349Y109728D01*
X49725Y109497D01*
X50132Y109329D01*
X50561Y109226D01*
X50979Y109193D01*
X51532Y108639D01*
X51482Y108618D01*
X51348Y108536D01*
X51228Y108434D01*
X51126Y108314D01*
X51044Y108180D01*
X50984Y108034D01*
X50947Y107881D01*
X50938Y107724D01*
X50947Y103631D01*
X50984Y103478D01*
X51044Y103332D01*
X51126Y103198D01*
X51228Y103078D01*
X51320Y103000D01*
X51228Y102922D01*
X51126Y102802D01*
X51044Y102668D01*
X50984Y102522D01*
X50947Y102369D01*
X50938Y102212D01*
X50944Y99127D01*
X46303Y94485D01*
X46275Y94503D01*
X45868Y94671D01*
X45439Y94774D01*
X45000Y94809D01*
X44561Y94774D01*
X44132Y94671D01*
X43725Y94503D01*
X43349Y94272D01*
X43014Y93986D01*
X42728Y93651D01*
X42497Y93275D01*
X42329Y92868D01*
X42226Y92439D01*
X42191Y92000D01*
X42226Y91561D01*
X42329Y91132D01*
X42497Y90725D01*
X42728Y90349D01*
X43014Y90014D01*
X43349Y89728D01*
X43725Y89497D01*
X44132Y89329D01*
X44561Y89226D01*
X45000Y89191D01*
X45439Y89226D01*
X45868Y89329D01*
X46275Y89497D01*
X46651Y89728D01*
X46986Y90014D01*
X46998Y90028D01*
X47266Y90092D01*
X47557Y90212D01*
X47825Y90377D01*
X48065Y90581D01*
X48116Y90641D01*
X51712Y94238D01*
Y13000D01*
G37*
G36*
X39627D02*X30993D01*
Y27487D01*
X31000Y27486D01*
X31706Y27542D01*
X32395Y27707D01*
X33049Y27978D01*
X33653Y28348D01*
X34192Y28808D01*
X34652Y29347D01*
X35022Y29951D01*
X35293Y30605D01*
X35458Y31294D01*
X35500Y32000D01*
X35458Y32706D01*
X35293Y33395D01*
X35022Y34049D01*
X34652Y34653D01*
X34192Y35192D01*
X33653Y35652D01*
X33049Y36022D01*
X32395Y36293D01*
X31706Y36458D01*
X31000Y36514D01*
X30993Y36513D01*
Y37487D01*
X31000Y37486D01*
X31706Y37542D01*
X32395Y37707D01*
X33049Y37978D01*
X33653Y38348D01*
X34192Y38808D01*
X34652Y39347D01*
X35022Y39951D01*
X35293Y40605D01*
X35458Y41294D01*
X35500Y42000D01*
X35458Y42706D01*
X35293Y43395D01*
X35022Y44049D01*
X34652Y44653D01*
X34192Y45192D01*
X33653Y45652D01*
X33049Y46022D01*
X32395Y46293D01*
X31706Y46458D01*
X31000Y46514D01*
X30993Y46513D01*
Y47487D01*
X31000Y47486D01*
X31706Y47542D01*
X32395Y47707D01*
X33049Y47978D01*
X33653Y48348D01*
X34192Y48808D01*
X34652Y49347D01*
X35022Y49951D01*
X35293Y50605D01*
X35458Y51294D01*
X35500Y52000D01*
X35458Y52706D01*
X35293Y53395D01*
X35022Y54049D01*
X34652Y54653D01*
X34192Y55192D01*
X33653Y55652D01*
X33049Y56022D01*
X32395Y56293D01*
X31706Y56458D01*
X31000Y56514D01*
X30993Y56513D01*
Y57507D01*
X34235Y57514D01*
X34465Y57569D01*
X34683Y57659D01*
X34884Y57783D01*
X35064Y57936D01*
X35217Y58116D01*
X35341Y58317D01*
X35431Y58535D01*
X35486Y58765D01*
X35500Y59000D01*
X35486Y65235D01*
X35431Y65465D01*
X35341Y65683D01*
X35217Y65884D01*
X35064Y66064D01*
X34884Y66217D01*
X34683Y66341D01*
X34465Y66431D01*
X34235Y66486D01*
X34000Y66500D01*
X30993Y66493D01*
Y149000D01*
X39627D01*
Y137442D01*
X39349Y137272D01*
X39014Y136986D01*
X38728Y136651D01*
X38497Y136275D01*
X38329Y135868D01*
X38226Y135439D01*
X38191Y135000D01*
X38226Y134561D01*
X38329Y134132D01*
X38497Y133725D01*
X38728Y133349D01*
X39014Y133014D01*
X39349Y132728D01*
X39627Y132558D01*
Y112975D01*
X39503Y113275D01*
X39272Y113651D01*
X38986Y113986D01*
X38651Y114272D01*
X38275Y114503D01*
X37868Y114671D01*
X37439Y114774D01*
X37000Y114809D01*
X36561Y114774D01*
X36132Y114671D01*
X35725Y114503D01*
X35349Y114272D01*
X35014Y113986D01*
X34728Y113651D01*
X34497Y113275D01*
X34329Y112868D01*
X34226Y112439D01*
X34191Y112000D01*
X34226Y111561D01*
X34329Y111132D01*
X34497Y110725D01*
X34728Y110349D01*
X35014Y110014D01*
X35349Y109728D01*
X35725Y109497D01*
X36132Y109329D01*
X36561Y109226D01*
X36979Y109193D01*
X37610Y108562D01*
X37568Y108536D01*
X37448Y108434D01*
X37346Y108314D01*
X37264Y108180D01*
X37204Y108034D01*
X37167Y107881D01*
X37158Y107724D01*
X37167Y103631D01*
X37204Y103478D01*
X37264Y103332D01*
X37346Y103198D01*
X37448Y103078D01*
X37540Y103000D01*
X37448Y102922D01*
X37346Y102802D01*
X37264Y102668D01*
X37204Y102522D01*
X37167Y102369D01*
X37158Y102212D01*
X37167Y98119D01*
X37204Y97966D01*
X37264Y97820D01*
X37346Y97686D01*
X37448Y97566D01*
X37568Y97464D01*
X37610Y97438D01*
X36979Y96807D01*
X36561Y96774D01*
X36132Y96671D01*
X35725Y96503D01*
X35349Y96272D01*
X35014Y95986D01*
X34728Y95651D01*
X34497Y95275D01*
X34329Y94868D01*
X34226Y94439D01*
X34191Y94000D01*
X34226Y93561D01*
X34329Y93132D01*
X34497Y92725D01*
X34728Y92349D01*
X35014Y92014D01*
X35349Y91728D01*
X35725Y91497D01*
X36132Y91329D01*
X36561Y91226D01*
X37000Y91191D01*
X37439Y91226D01*
X37868Y91329D01*
X38275Y91497D01*
X38651Y91728D01*
X38986Y92014D01*
X39272Y92349D01*
X39503Y92725D01*
X39627Y93025D01*
Y13000D01*
G37*
G36*
X30993Y66493D02*X27765Y66486D01*
X27535Y66431D01*
X27317Y66341D01*
X27116Y66217D01*
X26936Y66064D01*
X26783Y65884D01*
X26659Y65683D01*
X26569Y65465D01*
X26514Y65235D01*
X26500Y65000D01*
X25230D01*
Y100714D01*
X25298Y100728D01*
X25371Y100755D01*
X25440Y100794D01*
X25502Y100843D01*
X25555Y100901D01*
X25598Y100966D01*
X25630Y101038D01*
X25706Y101271D01*
X25760Y101511D01*
X25792Y101755D01*
X25803Y102000D01*
X25792Y102245D01*
X25760Y102489D01*
X25706Y102729D01*
X25632Y102963D01*
X25600Y103035D01*
X25556Y103100D01*
X25503Y103159D01*
X25441Y103208D01*
X25372Y103246D01*
X25298Y103274D01*
X25230Y103288D01*
Y142987D01*
X26038Y143796D01*
X26128Y143872D01*
X26434Y144231D01*
X26435Y144231D01*
X26681Y144634D01*
X26862Y145070D01*
X26972Y145529D01*
X27009Y146000D01*
X27000Y146118D01*
Y146757D01*
X29243Y149000D01*
X30993D01*
Y66493D01*
G37*
G36*
Y13000D02*X25230D01*
Y59000D01*
X26513D01*
X26514Y58765D01*
X26569Y58535D01*
X26659Y58317D01*
X26783Y58116D01*
X26936Y57936D01*
X27116Y57783D01*
X27317Y57659D01*
X27535Y57569D01*
X27765Y57514D01*
X28000Y57500D01*
X30993Y57507D01*
Y56513D01*
X30294Y56458D01*
X29605Y56293D01*
X28951Y56022D01*
X28347Y55652D01*
X27808Y55192D01*
X27348Y54653D01*
X26978Y54049D01*
X26707Y53395D01*
X26542Y52706D01*
X26486Y52000D01*
X26542Y51294D01*
X26707Y50605D01*
X26978Y49951D01*
X27348Y49347D01*
X27808Y48808D01*
X28347Y48348D01*
X28951Y47978D01*
X29605Y47707D01*
X30294Y47542D01*
X30993Y47487D01*
Y46513D01*
X30294Y46458D01*
X29605Y46293D01*
X28951Y46022D01*
X28347Y45652D01*
X27808Y45192D01*
X27348Y44653D01*
X26978Y44049D01*
X26707Y43395D01*
X26542Y42706D01*
X26486Y42000D01*
X26542Y41294D01*
X26707Y40605D01*
X26978Y39951D01*
X27348Y39347D01*
X27808Y38808D01*
X28347Y38348D01*
X28951Y37978D01*
X29605Y37707D01*
X30294Y37542D01*
X30993Y37487D01*
Y36513D01*
X30294Y36458D01*
X29605Y36293D01*
X28951Y36022D01*
X28347Y35652D01*
X27808Y35192D01*
X27348Y34653D01*
X26978Y34049D01*
X26707Y33395D01*
X26542Y32706D01*
X26486Y32000D01*
X26542Y31294D01*
X26707Y30605D01*
X26978Y29951D01*
X27348Y29347D01*
X27808Y28808D01*
X28347Y28348D01*
X28951Y27978D01*
X29605Y27707D01*
X30294Y27542D01*
X30993Y27487D01*
Y13000D01*
G37*
G36*
X25230Y65000D02*X23001D01*
Y99197D01*
X23245Y99208D01*
X23489Y99240D01*
X23729Y99294D01*
X23963Y99368D01*
X24035Y99400D01*
X24100Y99444D01*
X24159Y99497D01*
X24208Y99559D01*
X24246Y99628D01*
X24274Y99702D01*
X24290Y99779D01*
X24293Y99858D01*
X24284Y99937D01*
X24263Y100013D01*
X24230Y100085D01*
X24186Y100150D01*
X24133Y100209D01*
X24071Y100258D01*
X24002Y100296D01*
X23928Y100324D01*
X23851Y100340D01*
X23772Y100343D01*
X23693Y100334D01*
X23618Y100311D01*
X23468Y100262D01*
X23314Y100228D01*
X23158Y100207D01*
X23001Y100200D01*
Y103800D01*
X23158Y103793D01*
X23314Y103772D01*
X23468Y103738D01*
X23618Y103690D01*
X23694Y103668D01*
X23772Y103659D01*
X23850Y103662D01*
X23927Y103678D01*
X24001Y103705D01*
X24070Y103744D01*
X24131Y103793D01*
X24185Y103851D01*
X24228Y103916D01*
X24261Y103988D01*
X24282Y104064D01*
X24291Y104142D01*
X24288Y104220D01*
X24272Y104298D01*
X24245Y104371D01*
X24206Y104440D01*
X24157Y104502D01*
X24099Y104555D01*
X24034Y104598D01*
X23962Y104630D01*
X23729Y104706D01*
X23489Y104760D01*
X23245Y104792D01*
X23001Y104803D01*
Y140758D01*
X25230Y142987D01*
Y103288D01*
X25221Y103290D01*
X25142Y103293D01*
X25063Y103284D01*
X24987Y103263D01*
X24915Y103230D01*
X24850Y103186D01*
X24791Y103133D01*
X24742Y103071D01*
X24704Y103002D01*
X24676Y102928D01*
X24660Y102851D01*
X24657Y102772D01*
X24666Y102693D01*
X24689Y102618D01*
X24738Y102468D01*
X24772Y102314D01*
X24793Y102158D01*
X24800Y102000D01*
X24793Y101842D01*
X24772Y101686D01*
X24738Y101532D01*
X24690Y101382D01*
X24668Y101306D01*
X24659Y101228D01*
X24662Y101150D01*
X24678Y101073D01*
X24705Y100999D01*
X24744Y100930D01*
X24793Y100869D01*
X24851Y100815D01*
X24916Y100772D01*
X24988Y100739D01*
X25064Y100718D01*
X25142Y100709D01*
X25220Y100712D01*
X25230Y100714D01*
Y65000D01*
G37*
G36*
Y13000D02*X23001D01*
Y59000D01*
X25230D01*
Y13000D01*
G37*
G36*
X23001Y65000D02*X20770D01*
Y100712D01*
X20779Y100710D01*
X20858Y100707D01*
X20937Y100716D01*
X21013Y100737D01*
X21085Y100770D01*
X21150Y100814D01*
X21209Y100867D01*
X21258Y100929D01*
X21296Y100998D01*
X21324Y101072D01*
X21340Y101149D01*
X21343Y101228D01*
X21334Y101307D01*
X21311Y101382D01*
X21262Y101532D01*
X21228Y101686D01*
X21207Y101842D01*
X21200Y102000D01*
X21207Y102158D01*
X21228Y102314D01*
X21262Y102468D01*
X21310Y102618D01*
X21332Y102694D01*
X21341Y102772D01*
X21338Y102850D01*
X21322Y102927D01*
X21295Y103001D01*
X21256Y103070D01*
X21207Y103131D01*
X21149Y103185D01*
X21084Y103228D01*
X21012Y103261D01*
X20936Y103282D01*
X20858Y103291D01*
X20780Y103288D01*
X20770Y103286D01*
Y138527D01*
X23001Y140758D01*
Y104803D01*
X23000Y104803D01*
X22755Y104792D01*
X22511Y104760D01*
X22271Y104706D01*
X22037Y104632D01*
X21965Y104600D01*
X21900Y104556D01*
X21841Y104503D01*
X21792Y104441D01*
X21754Y104372D01*
X21726Y104298D01*
X21710Y104221D01*
X21707Y104142D01*
X21716Y104063D01*
X21737Y103987D01*
X21770Y103915D01*
X21814Y103850D01*
X21867Y103791D01*
X21929Y103742D01*
X21998Y103704D01*
X22072Y103676D01*
X22149Y103660D01*
X22228Y103657D01*
X22307Y103666D01*
X22382Y103689D01*
X22532Y103738D01*
X22686Y103772D01*
X22842Y103793D01*
X23000Y103800D01*
X23001Y103800D01*
Y100200D01*
X23000Y100200D01*
X22842Y100207D01*
X22686Y100228D01*
X22532Y100262D01*
X22382Y100310D01*
X22306Y100332D01*
X22228Y100341D01*
X22150Y100338D01*
X22073Y100322D01*
X21999Y100295D01*
X21930Y100256D01*
X21869Y100207D01*
X21815Y100149D01*
X21772Y100084D01*
X21739Y100012D01*
X21718Y99936D01*
X21709Y99858D01*
X21712Y99780D01*
X21728Y99702D01*
X21755Y99629D01*
X21794Y99560D01*
X21843Y99498D01*
X21901Y99445D01*
X21966Y99402D01*
X22038Y99370D01*
X22271Y99294D01*
X22511Y99240D01*
X22755Y99208D01*
X23000Y99197D01*
X23001Y99197D01*
Y65000D01*
G37*
G36*
X20770D02*X14243D01*
X12284Y66959D01*
Y133041D01*
X13243Y134000D01*
X14882D01*
X15000Y133991D01*
X15470Y134028D01*
X15471Y134028D01*
X15930Y134138D01*
X16366Y134319D01*
X16769Y134565D01*
X17128Y134872D01*
X17205Y134962D01*
X20770Y138527D01*
Y103286D01*
X20702Y103272D01*
X20629Y103245D01*
X20560Y103206D01*
X20498Y103157D01*
X20445Y103099D01*
X20402Y103034D01*
X20370Y102962D01*
X20294Y102729D01*
X20240Y102489D01*
X20208Y102245D01*
X20197Y102000D01*
X20208Y101755D01*
X20240Y101511D01*
X20294Y101271D01*
X20368Y101037D01*
X20400Y100965D01*
X20444Y100900D01*
X20497Y100841D01*
X20559Y100792D01*
X20628Y100754D01*
X20702Y100726D01*
X20770Y100712D01*
Y65000D01*
G37*
G36*
X23001Y13000D02*X12284D01*
Y50869D01*
X12287Y50870D01*
X12355Y50909D01*
X12416Y50958D01*
X12469Y51017D01*
X12511Y51083D01*
X12674Y51408D01*
X12803Y51748D01*
X12901Y52098D01*
X12967Y52456D01*
X13000Y52818D01*
Y53182D01*
X12967Y53544D01*
X12901Y53902D01*
X12803Y54252D01*
X12674Y54592D01*
X12515Y54919D01*
X12472Y54985D01*
X12419Y55044D01*
X12357Y55094D01*
X12288Y55133D01*
X12284Y55135D01*
Y59087D01*
X12529Y59028D01*
X13000Y58991D01*
X13118Y59000D01*
X23001D01*
Y13000D01*
G37*
G36*
X12284Y66959D02*X10000Y69243D01*
Y130757D01*
X12284Y133041D01*
Y66959D01*
G37*
G36*
Y13000D02*X9002D01*
Y49000D01*
X9182D01*
X9544Y49033D01*
X9902Y49099D01*
X10252Y49197D01*
X10592Y49326D01*
X10919Y49485D01*
X10985Y49528D01*
X11044Y49581D01*
X11094Y49643D01*
X11133Y49712D01*
X11161Y49786D01*
X11177Y49863D01*
X11181Y49942D01*
X11173Y50021D01*
X11152Y50097D01*
X11120Y50170D01*
X11077Y50236D01*
X11024Y50295D01*
X10962Y50344D01*
X10893Y50384D01*
X10819Y50412D01*
X10742Y50428D01*
X10663Y50432D01*
X10584Y50424D01*
X10507Y50403D01*
X10436Y50370D01*
X10193Y50247D01*
X9938Y50150D01*
X9676Y50077D01*
X9408Y50028D01*
X9136Y50003D01*
X9002D01*
Y55997D01*
X9136D01*
X9408Y55972D01*
X9676Y55923D01*
X9938Y55850D01*
X10193Y55753D01*
X10437Y55633D01*
X10509Y55600D01*
X10584Y55579D01*
X10663Y55571D01*
X10741Y55575D01*
X10818Y55591D01*
X10892Y55619D01*
X10960Y55658D01*
X11021Y55707D01*
X11074Y55766D01*
X11117Y55832D01*
X11149Y55904D01*
X11170Y55980D01*
X11178Y56058D01*
X11174Y56136D01*
X11158Y56213D01*
X11130Y56287D01*
X11091Y56355D01*
X11042Y56416D01*
X10983Y56469D01*
X10917Y56511D01*
X10592Y56674D01*
X10252Y56803D01*
X9902Y56901D01*
X9544Y56967D01*
X9182Y57000D01*
X9002D01*
Y61756D01*
X10796Y59962D01*
X10872Y59872D01*
X11231Y59566D01*
X11231Y59565D01*
X11634Y59319D01*
X12070Y59138D01*
X12284Y59087D01*
Y55135D01*
X12214Y55161D01*
X12137Y55177D01*
X12058Y55181D01*
X11979Y55173D01*
X11903Y55152D01*
X11830Y55120D01*
X11764Y55077D01*
X11705Y55024D01*
X11656Y54962D01*
X11616Y54893D01*
X11588Y54819D01*
X11572Y54742D01*
X11568Y54663D01*
X11576Y54584D01*
X11597Y54507D01*
X11630Y54436D01*
X11753Y54193D01*
X11850Y53938D01*
X11923Y53676D01*
X11972Y53408D01*
X11997Y53136D01*
Y52864D01*
X11972Y52592D01*
X11923Y52324D01*
X11850Y52062D01*
X11753Y51807D01*
X11633Y51563D01*
X11600Y51491D01*
X11579Y51416D01*
X11571Y51337D01*
X11575Y51259D01*
X11591Y51182D01*
X11619Y51108D01*
X11658Y51040D01*
X11707Y50979D01*
X11766Y50926D01*
X11832Y50883D01*
X11904Y50851D01*
X11980Y50830D01*
X12058Y50822D01*
X12136Y50826D01*
X12213Y50842D01*
X12284Y50869D01*
Y13000D01*
G37*
G36*
X9002D02*X9000D01*
X5716Y16284D01*
Y50865D01*
X5786Y50839D01*
X5863Y50823D01*
X5942Y50819D01*
X6021Y50827D01*
X6097Y50848D01*
X6170Y50880D01*
X6236Y50923D01*
X6295Y50976D01*
X6344Y51038D01*
X6384Y51107D01*
X6412Y51181D01*
X6428Y51258D01*
X6432Y51337D01*
X6424Y51416D01*
X6403Y51493D01*
X6370Y51564D01*
X6247Y51807D01*
X6150Y52062D01*
X6077Y52324D01*
X6028Y52592D01*
X6003Y52864D01*
Y53136D01*
X6028Y53408D01*
X6077Y53676D01*
X6150Y53938D01*
X6247Y54193D01*
X6367Y54437D01*
X6400Y54509D01*
X6421Y54585D01*
X6429Y54663D01*
X6425Y54741D01*
X6409Y54818D01*
X6381Y54892D01*
X6342Y54960D01*
X6293Y55021D01*
X6234Y55074D01*
X6168Y55117D01*
X6096Y55149D01*
X6020Y55170D01*
X5942Y55178D01*
X5864Y55174D01*
X5787Y55158D01*
X5716Y55131D01*
Y65041D01*
X9002Y61756D01*
Y57000D01*
X8818D01*
X8456Y56967D01*
X8098Y56901D01*
X7748Y56803D01*
X7408Y56674D01*
X7081Y56515D01*
X7015Y56472D01*
X6956Y56419D01*
X6906Y56357D01*
X6867Y56288D01*
X6839Y56214D01*
X6823Y56137D01*
X6819Y56058D01*
X6827Y55979D01*
X6848Y55903D01*
X6880Y55830D01*
X6923Y55764D01*
X6976Y55705D01*
X7038Y55656D01*
X7107Y55616D01*
X7181Y55588D01*
X7258Y55572D01*
X7337Y55568D01*
X7416Y55576D01*
X7493Y55597D01*
X7564Y55630D01*
X7807Y55753D01*
X8062Y55850D01*
X8324Y55923D01*
X8592Y55972D01*
X8864Y55997D01*
X9002D01*
Y50003D01*
X8864D01*
X8592Y50028D01*
X8324Y50077D01*
X8062Y50150D01*
X7807Y50247D01*
X7563Y50367D01*
X7491Y50400D01*
X7415Y50421D01*
X7337Y50429D01*
X7259Y50425D01*
X7182Y50409D01*
X7108Y50381D01*
X7040Y50342D01*
X6979Y50293D01*
X6926Y50234D01*
X6883Y50168D01*
X6851Y50096D01*
X6830Y50020D01*
X6822Y49942D01*
X6826Y49864D01*
X6842Y49787D01*
X6870Y49713D01*
X6909Y49645D01*
X6958Y49584D01*
X7017Y49531D01*
X7083Y49489D01*
X7408Y49326D01*
X7748Y49197D01*
X8098Y49099D01*
X8456Y49033D01*
X8818Y49000D01*
X9002D01*
Y13000D01*
G37*
G36*
X5716Y16284D02*X4000Y18000D01*
Y67882D01*
X4028Y67529D01*
X4138Y67070D01*
X4319Y66634D01*
X4565Y66231D01*
X4566Y66231D01*
X4872Y65872D01*
X4962Y65796D01*
X5716Y65041D01*
Y55131D01*
X5713Y55130D01*
X5645Y55091D01*
X5584Y55042D01*
X5531Y54983D01*
X5489Y54917D01*
X5326Y54592D01*
X5197Y54252D01*
X5099Y53902D01*
X5033Y53544D01*
X5000Y53182D01*
Y52818D01*
X5033Y52456D01*
X5099Y52098D01*
X5197Y51748D01*
X5326Y51408D01*
X5485Y51081D01*
X5528Y51015D01*
X5581Y50956D01*
X5643Y50906D01*
X5712Y50867D01*
X5716Y50865D01*
Y16284D01*
G37*
G36*
X87000Y139000D02*Y131000D01*
X85000D01*
X81000Y135000D01*
X85000Y139000D01*
X87000D01*
G37*
G36*
X86000Y123000D02*Y115000D01*
X84000D01*
X80000Y119000D01*
X84000Y123000D01*
X86000D01*
G37*
G36*
X101000Y134000D02*X98000Y137000D01*
X104000D01*
X101000Y134000D01*
G37*
G54D28*X93000Y35910D02*X92810Y36100D01*
X7000Y68000D02*X13000Y62000D01*
X31000D01*
X176000Y118000D02*Y108000D01*
G54D29*X146000D02*X157457D01*
X176000Y128000D02*X171000D01*
X165000Y122000D01*
Y108457D01*
X164543Y108000D01*
G54D28*X156953Y35000D02*X157079Y35126D01*
X176000Y149000D02*Y138000D01*
X70100Y91750D02*Y91900D01*
G54D30*X70000Y92000D02*X70100Y92100D01*
Y91750D02*Y83900D01*
X45000Y92000D02*X46646D01*
X54890Y100244D01*
X70100Y83900D02*X76000Y78000D01*
X94000D01*
G54D28*X82000Y85000D02*X80000Y87000D01*
Y91650D01*
G54D30*X61000Y133000D02*Y122000D01*
X58000Y119000D01*
X51838D01*
X51712Y119126D01*
G54D28*X173000Y152000D02*X176000Y149000D01*
X173000Y152000D02*X28000D01*
X97000Y85000D02*X82000D01*
X80000Y91650D02*X79900Y91750D01*
X65000Y99000D02*Y96850D01*
X70100Y91750D01*
G54D30*X41110Y100244D02*Y98110D01*
X37000Y94000D01*
X41000Y135000D02*X51586D01*
X51712Y134874D01*
X53000Y135000D02*X59000D01*
X61000Y133000D01*
X100000Y107000D02*Y114200D01*
X96200Y118000D01*
G54D28*X28000Y152000D02*X24000Y148000D01*
Y146000D01*
X15000Y137000D01*
X12000D01*
X7000Y132000D01*
Y68000D01*
G54D30*X54890Y105756D02*Y108110D01*
X51000Y112000D01*
X41110Y105756D02*Y107890D01*
X37000Y112000D01*
G54D27*G36*
X149204Y45953D02*Y40047D01*
X155110D01*
Y45953D01*
X149204D01*
G37*
G54D31*X157079Y35126D03*
X162000Y43000D03*
X166921Y35126D03*
G54D27*G36*
X78250Y22750D02*Y17250D01*
X83750D01*
Y22750D01*
X78250D01*
G37*
G54D32*X131000Y20000D03*
G54D27*G36*
X28000Y65000D02*Y59000D01*
X34000D01*
Y65000D01*
X28000D01*
G37*
G54D33*X31000Y52000D03*
Y42000D03*
Y32000D03*
X61000D03*
Y42000D03*
Y52000D03*
Y62000D03*
G54D27*G36*
X143000Y141000D02*Y135000D01*
X149000D01*
Y141000D01*
X143000D01*
G37*
G54D33*X146000Y128000D03*
Y118000D03*
Y108000D03*
X176000D03*
Y118000D03*
Y128000D03*
Y138000D03*
X146000Y98000D03*
X176000D03*
X146000Y88000D03*
X176000D03*
X146000Y78000D03*
X176000D03*
G54D34*X74100Y101900D03*
X85900D03*
G54D35*X157457Y108393D02*Y107607D01*
X164543Y108393D02*Y107607D01*
G54D36*X96002Y118000D02*X96397D01*
G54D37*X91081Y134141D02*X91475D01*
G54D38*X80000Y92050D02*Y91250D01*
X89800Y92050D02*Y91250D01*
G54D37*X100923Y134141D02*X101317D01*
G54D39*X49055Y134874D02*X54370D01*
X49055Y127000D02*X54370D01*
X75630Y134874D02*X80945D01*
X75630Y119126D02*X80945D01*
G54D40*X53906Y100244D02*X55874D01*
X53906Y105756D02*X55874D01*
X40126Y100244D02*X42094D01*
X40126Y105756D02*X42094D01*
G54D39*X49055Y119126D02*X54370D01*
G54D38*X70200Y92050D02*Y91250D01*
G54D41*X41000Y135000D03*
G54D33*X9000Y53000D03*
G54D41*X37000Y112000D03*
Y94000D03*
X23000Y102000D03*
X94000Y78000D03*
G54D33*X97000Y85000D03*
X65000Y99000D03*
Y152000D03*
G54D41*X98000Y47000D03*
X100000Y107000D03*
X51000Y112000D03*
X45000Y92000D03*
G54D30*G54D42*G54D30*G54D42*G54D30*G54D43*G54D44*G54D45*G54D46*M02*
