G04 start of page 6 for group -4063 idx -4063 *
G04 Title: (unknown), componentmask *
G04 Creator: pcb 20140316 *
G04 CreationDate: Mon 06 Apr 2015 04:31:32 PM GMT UTC *
G04 For: fosse *
G04 Format: Gerber/RS-274X *
G04 PCB-Dimensions (mil): 5250.00 3480.00 *
G04 PCB-Coordinate-Origin: lower left *
%MOIN*%
%FSLAX25Y25*%
%LNTOPMASK*%
%ADD77R,0.0651X0.0651*%
%ADD76R,0.0490X0.0490*%
%ADD75R,0.0493X0.0493*%
%ADD74R,0.0493X0.0493*%
%ADD73R,0.0494X0.0494*%
%ADD72C,0.0651*%
%ADD71C,0.0610*%
%ADD70C,0.0001*%
%ADD69C,0.0810*%
G54D69*X122500Y193500D03*
Y205300D03*
G54D70*G36*
X99450Y171050D02*Y164950D01*
X105550D01*
Y171050D01*
X99450D01*
G37*
G54D71*X102500Y178000D03*
G54D70*G36*
X107904Y272253D02*Y265747D01*
X114410D01*
Y272253D01*
X107904D01*
G37*
G54D72*X116079Y276874D03*
X121000Y269000D03*
X125921Y276874D03*
X58756Y163173D03*
Y180890D03*
G54D73*X50906Y236756D02*X52874D01*
X50906Y231244D02*X52874D01*
G54D74*X75802Y276500D02*X76197D01*
G54D75*X70881Y260359D02*X71275D01*
X80723D02*X81117D01*
G54D73*X37126Y236756D02*X39094D01*
X37126Y231244D02*X39094D01*
G54D76*X111850Y199400D02*X112650D01*
X111850Y189600D02*X112650D01*
X111850Y209200D02*X112650D01*
G54D77*X41311Y188764D02*X46626D01*
X41311Y173016D02*X46626D01*
X67886Y188764D02*X73201D01*
X67886Y180890D02*X73201D01*
X67886Y173016D02*X73201D01*
M02*
