G04 start of page 2 for group 0 idx 0 *
G04 Title: (unknown), top *
G04 Creator: pcb 20110918 *
G04 CreationDate: Fri May 31 21:55:40 2013 UTC *
G04 For: fosse *
G04 Format: Gerber/RS-274X *
G04 PCB-Dimensions: 210000 160000 *
G04 PCB-Coordinate-Origin: lower left *
%MOIN*%
%FSLAX25Y25*%
%LNTOP*%
%ADD25C,0.0300*%
%ADD24C,0.0340*%
%ADD23C,0.0315*%
%ADD22C,0.0280*%
%ADD21R,0.0394X0.0394*%
%ADD20R,0.0433X0.0433*%
%ADD19R,0.0433X0.0433*%
%ADD18R,0.0390X0.0390*%
%ADD17R,0.0551X0.0551*%
%ADD16R,0.0512X0.0512*%
%ADD15C,0.0550*%
%ADD14C,0.0600*%
%ADD13C,0.0750*%
%ADD12C,0.0591*%
%ADD11C,0.0001*%
G54D11*G36*
X34000Y69994D02*Y63994D01*
X40000D01*
Y69994D01*
X34000D01*
G37*
G36*
X41204Y49718D02*Y43812D01*
X47110D01*
Y49718D01*
X41204D01*
G37*
G54D12*X49079Y54639D03*
X54000Y46765D03*
X58921Y54639D03*
G54D13*X117958Y66798D03*
X129758D03*
G54D11*G36*
X155500Y67756D02*Y61756D01*
X161500D01*
Y67756D01*
X155500D01*
G37*
G54D14*X188500Y64756D03*
X158500Y74756D03*
X188500D03*
X158500Y84756D03*
Y94756D03*
X188500D03*
Y84756D03*
G54D11*G36*
X152987Y29894D02*Y24394D01*
X158487D01*
Y29894D01*
X152987D01*
G37*
G54D15*X205737Y27144D03*
G54D14*X37000Y76994D03*
Y86994D03*
Y96994D03*
Y106994D03*
Y116994D03*
Y126994D03*
X67000D03*
Y116994D03*
Y106994D03*
Y96994D03*
Y86994D03*
Y76994D03*
Y66994D03*
G54D16*X48457Y95807D02*Y96593D01*
X55543Y95807D02*Y96593D01*
G54D17*X93188Y33389D02*X98503D01*
X93188Y49137D02*X98503D01*
G54D18*X123858Y77448D02*Y76648D01*
X114058Y77448D02*Y76648D01*
X133658Y77448D02*Y76648D01*
G54D17*X119763Y49137D02*X125078D01*
X119763Y41263D02*X125078D01*
X119763Y33389D02*X125078D01*
G54D19*X139485Y51073D02*X139880D01*
G54D20*X134564Y34932D02*X134958D01*
X144406D02*X144800D01*
G54D16*X167595Y78178D02*Y80540D01*
X179405Y78178D02*Y80540D01*
G54D21*X176296Y115683D02*X178264D01*
X162516D02*X164484D01*
X176296Y121195D02*X178264D01*
X162516D02*X164484D01*
G54D22*G54D23*G54D24*G54D22*G54D25*G54D22*M02*
