G04 start of page 6 for group -4063 idx -4063 *
G04 Title: (unknown), componentmask *
G04 Creator: pcb 20140316 *
G04 CreationDate: Wed 08 Apr 2015 09:08:40 AM GMT UTC *
G04 For: fosse *
G04 Format: Gerber/RS-274X *
G04 PCB-Dimensions (mil): 2290.00 2790.00 *
G04 PCB-Coordinate-Origin: lower left *
%MOIN*%
%FSLAX25Y25*%
%LNTOPMASK*%
%ADD77R,0.0691X0.0691*%
%ADD76R,0.0651X0.0651*%
%ADD75R,0.0493X0.0493*%
%ADD74R,0.0493X0.0493*%
%ADD73R,0.0490X0.0490*%
%ADD72R,0.0494X0.0494*%
%ADD71C,0.0660*%
%ADD70C,0.0001*%
%ADD69C,0.0810*%
%ADD68C,0.0651*%
G54D68*X55506Y123373D03*
Y141090D03*
G54D69*X119250Y157000D03*
G54D70*G36*
X115700Y138000D02*Y131400D01*
X122300D01*
Y138000D01*
X115700D01*
G37*
G54D71*X119000Y124700D03*
G54D70*G36*
X104654Y232453D02*Y225947D01*
X111160D01*
Y232453D01*
X104654D01*
G37*
G54D68*X112829Y237074D03*
X117750Y229200D03*
X122671Y237074D03*
G54D69*X119250Y168800D03*
G54D72*X47656Y196956D02*X49624D01*
X47656Y191444D02*X49624D01*
X33876Y196956D02*X35844D01*
X33876Y191444D02*X35844D01*
G54D73*X108600Y162900D02*X109400D01*
X108600Y153100D02*X109400D01*
X108600Y172700D02*X109400D01*
G54D74*X72552Y236700D02*X72947D01*
G54D75*X67631Y220559D02*X68025D01*
X77473D02*X77867D01*
G54D76*X64636Y148964D02*X69951D01*
X64636Y141090D02*X69951D01*
X64636Y133216D02*X69951D01*
X38061Y148964D02*X43376D01*
X38061Y133216D02*X43376D01*
G54D72*X89065Y133636D02*X106782D01*
X89065Y125762D02*X106782D01*
G54D77*X112097Y142889D02*X119577D01*
X112097Y116511D02*X119577D01*
M02*
