M48
INCH
T53C0.035
T52C0.020
T51C0.034
T50C0.028
T49C0.030
T48C0.032
%
T52
X004100Y013500
X003700Y011200
X003700Y009400
X002300Y010200
X009400Y007800
X009800Y004700
X010000Y010700
X005100Y011200
X004500Y009200
T50
X003100Y006200
X003100Y005200
X003100Y004200
X003100Y003200
X006100Y003200
X006100Y004200
X006100Y005200
X006100Y006200
X014600Y013800
X014600Y012800
X014600Y011800
X014600Y010800
X017600Y010800
X017600Y011800
X017600Y012800
X017600Y013800
X014600Y009800
X017600Y009800
X014600Y008800
X017600Y008800
X014600Y007800
X017600Y007800
T49
X008100Y002000
X013100Y002000
T48
X015216Y004300
X015708Y003513
X016200Y004300
X016692Y003513
T51
X007410Y010190
X008590Y010190
T53
X000900Y005300
X009700Y008500
X006500Y009900
X006500Y015200
M30
