G04 start of page 6 for group -4063 idx -4063 *
G04 Title: (unknown), componentmask *
G04 Creator: pcb 20110918 *
G04 CreationDate: Fri May 31 21:55:40 2013 UTC *
G04 For: fosse *
G04 Format: Gerber/RS-274X *
G04 PCB-Dimensions: 210000 160000 *
G04 PCB-Coordinate-Origin: lower left *
%MOIN*%
%FSLAX25Y25*%
%LNTOPMASK*%
%ADD52R,0.0494X0.0494*%
%ADD51R,0.0493X0.0493*%
%ADD50R,0.0493X0.0493*%
%ADD49R,0.0490X0.0490*%
%ADD48R,0.0651X0.0651*%
%ADD47R,0.0572X0.0572*%
%ADD46C,0.0610*%
%ADD45C,0.0660*%
%ADD44C,0.0810*%
%ADD43C,0.0651*%
%ADD42C,0.0001*%
G54D42*G36*
X33700Y70294D02*Y63694D01*
X40300D01*
Y70294D01*
X33700D01*
G37*
G36*
X40904Y50018D02*Y43512D01*
X47410D01*
Y50018D01*
X40904D01*
G37*
G54D43*X49079Y54639D03*
X54000Y46765D03*
X58921Y54639D03*
G54D44*X117958Y66798D03*
X129758D03*
G54D42*G36*
X155200Y68056D02*Y61456D01*
X161800D01*
Y68056D01*
X155200D01*
G37*
G54D45*X188500Y64756D03*
X158500Y74756D03*
X188500D03*
X158500Y84756D03*
Y94756D03*
X188500D03*
Y84756D03*
G54D42*G36*
X152687Y30194D02*Y24094D01*
X158787D01*
Y30194D01*
X152687D01*
G37*
G54D46*X205737Y27144D03*
G54D45*X37000Y76994D03*
Y86994D03*
Y96994D03*
Y106994D03*
Y116994D03*
Y126994D03*
X67000D03*
Y116994D03*
Y106994D03*
Y96994D03*
Y86994D03*
Y76994D03*
Y66994D03*
G54D47*X48457Y95807D02*Y96593D01*
X55543Y95807D02*Y96593D01*
G54D48*X93188Y33389D02*X98503D01*
X93188Y49137D02*X98503D01*
G54D49*X123858Y77448D02*Y76648D01*
X114058Y77448D02*Y76648D01*
X133658Y77448D02*Y76648D01*
G54D48*X119763Y49137D02*X125078D01*
X119763Y41263D02*X125078D01*
X119763Y33389D02*X125078D01*
G54D50*X139485Y51073D02*X139880D01*
G54D51*X134564Y34932D02*X134958D01*
X144406D02*X144800D01*
G54D47*X167595Y78178D02*Y80540D01*
X179405Y78178D02*Y80540D01*
G54D52*X176296Y115683D02*X178264D01*
X162516D02*X164484D01*
X176296Y121195D02*X178264D01*
X162516D02*X164484D01*
M02*
