G04 start of page 7 for group -4062 idx -4062 *
G04 Title: (unknown), soldermask *
G04 Creator: pcb 20140316 *
G04 CreationDate: Mon 06 Apr 2015 04:31:32 PM GMT UTC *
G04 For: fosse *
G04 Format: Gerber/RS-274X *
G04 PCB-Dimensions (mil): 5250.00 3480.00 *
G04 PCB-Coordinate-Origin: lower left *
%MOIN*%
%FSLAX25Y25*%
%LNBOTTOMMASK*%
%ADD85R,0.0848X0.0848*%
%ADD84R,0.0927X0.0927*%
%ADD83R,0.0572X0.0572*%
%ADD82C,0.0800*%
%ADD81C,0.0651*%
%ADD80C,0.0610*%
%ADD79C,0.0001*%
%ADD78C,0.0810*%
G54D78*X122500Y193500D03*
Y205300D03*
G54D79*G36*
X99450Y171050D02*Y164950D01*
X105550D01*
Y171050D01*
X99450D01*
G37*
G54D80*X102500Y178000D03*
G54D79*G36*
X107904Y272253D02*Y265747D01*
X114410D01*
Y272253D01*
X107904D01*
G37*
G54D81*X116079Y276874D03*
X121000Y269000D03*
X125921Y276874D03*
X58756Y163173D03*
Y180890D03*
G54D82*X46000Y219000D03*
Y229000D03*
Y239000D03*
Y249000D03*
X76000D03*
Y239000D03*
Y229000D03*
Y219000D03*
G54D83*X30607Y243957D02*X31393D01*
X30607Y251043D02*X31393D01*
X30607Y215457D02*X31393D01*
X30607Y222543D02*X31393D01*
X106319Y199095D02*X108681D01*
X106319Y210905D02*X108681D01*
G54D84*X52260Y192504D02*Y192110D01*
G54D85*X40449Y170457D02*Y167701D01*
G54D84*X43598Y181874D02*Y181480D01*
G54D83*X37957Y205893D02*Y205107D01*
X45043Y205893D02*Y205107D01*
G54D84*X69189Y190929D02*Y190535D01*
G54D83*X85319Y168095D02*X87681D01*
X85319Y179905D02*X87681D01*
X68595Y207681D02*Y205319D01*
X80405Y207681D02*Y205319D01*
G54D85*X71551Y170457D02*Y167701D01*
G54D83*X155190Y174681D02*Y172319D01*
X167000Y174681D02*Y172319D01*
X145214Y183695D02*X147576D01*
X145214Y195505D02*X147576D01*
X146502Y223307D02*X147288D01*
G54D82*X192095Y220000D03*
Y210000D03*
G54D83*X146502Y206557D02*X147288D01*
X146502Y213643D02*X147288D01*
X146502Y230393D02*X147288D01*
G54D82*X192095Y250000D03*
Y240000D03*
Y230000D03*
X162095Y190000D03*
X192095D03*
X162095Y200000D03*
X192095D03*
X162095Y210000D03*
Y220000D03*
Y230000D03*
Y240000D03*
Y250000D03*
M02*
