G04 start of page 7 for group -4062 idx -4062 *
G04 Title: (unknown), soldermask *
G04 Creator: pcb 20110918 *
G04 CreationDate: Fri May 31 21:55:40 2013 UTC *
G04 For: fosse *
G04 Format: Gerber/RS-274X *
G04 PCB-Dimensions: 210000 160000 *
G04 PCB-Coordinate-Origin: lower left *
%MOIN*%
%FSLAX25Y25*%
%LNBOTTOMMASK*%
%ADD60R,0.0612X0.0612*%
%ADD59R,0.0612X0.0612*%
%ADD58R,0.0572X0.0572*%
%ADD57C,0.0610*%
%ADD56C,0.0660*%
%ADD55C,0.0810*%
%ADD54C,0.0651*%
%ADD53C,0.0001*%
G54D53*G36*
X33700Y70294D02*Y63694D01*
X40300D01*
Y70294D01*
X33700D01*
G37*
G36*
X40904Y50018D02*Y43512D01*
X47410D01*
Y50018D01*
X40904D01*
G37*
G54D54*X49079Y54639D03*
X54000Y46765D03*
X58921Y54639D03*
G54D55*X117958Y66798D03*
X129758D03*
G54D53*G36*
X155200Y68056D02*Y61456D01*
X161800D01*
Y68056D01*
X155200D01*
G37*
G54D56*X188500Y64756D03*
X158500Y74756D03*
X188500D03*
X158500Y84756D03*
Y94756D03*
X188500D03*
Y84756D03*
G54D53*G36*
X152687Y30194D02*Y24094D01*
X158787D01*
Y30194D01*
X152687D01*
G37*
G54D57*X205737Y27144D03*
G54D56*X37000Y76994D03*
Y86994D03*
Y96994D03*
Y106994D03*
Y116994D03*
Y126994D03*
X67000D03*
Y116994D03*
Y106994D03*
Y96994D03*
Y86994D03*
Y76994D03*
Y66994D03*
G54D58*X17414Y97394D02*Y98180D01*
X24500Y97394D02*Y98180D01*
X12690Y113114D02*Y115476D01*
X24500Y113114D02*Y115476D01*
G54D53*G36*
X91063Y94684D02*Y85810D01*
X99937D01*
Y94684D01*
X91063D01*
G37*
G54D59*X100028Y104617D02*Y107373D01*
G54D60*X90973Y104618D02*Y107373D01*
G54D58*X155737Y38892D02*Y36530D01*
X167547Y38892D02*Y36530D01*
X179832Y37939D02*Y35577D01*
X191642Y37939D02*Y35577D01*
X142475Y131253D02*Y132039D01*
X149561Y131253D02*Y132039D01*
X142475Y121531D02*Y122317D01*
X149561Y121531D02*Y122317D01*
M02*
