G04 start of page 12 for group -3984 idx -3984 *
G04 Title: (unknown), fab *
G04 Creator: pcb 20110918 *
G04 CreationDate: Fri May 31 21:55:40 2013 UTC *
G04 For: fosse *
G04 Format: Gerber/RS-274X *
G04 PCB-Dimensions: 210000 160000 *
G04 PCB-Coordinate-Origin: lower left *
%MOIN*%
%FSLAX25Y25*%
%LNFAB*%
%ADD79C,0.0100*%
%ADD78C,0.0075*%
%ADD77C,0.0060*%
%ADD76R,0.0080X0.0080*%
G54D76*X117158Y66798D02*G75*G03X118758Y66798I800J0D01*G01*
G75*G03X117158Y66798I-800J0D01*G01*
X128958D02*G75*G03X130558Y66798I800J0D01*G01*
G75*G03X128958Y66798I-800J0D01*G01*
X14200Y171250D02*G75*G03X15800Y171250I800J0D01*G01*
G75*G03X14200Y171250I-800J0D01*G01*
G54D77*X135000Y173500D02*X136500Y170500D01*
X138000Y173500D01*
X136500Y170500D02*Y167500D01*
X139800Y170800D02*X142050D01*
X139800Y167500D02*X142800D01*
X139800Y173500D02*Y167500D01*
Y173500D02*X142800D01*
X147600D02*X148350Y172750D01*
X145350Y173500D02*X147600D01*
X144600Y172750D02*X145350Y173500D01*
X144600Y172750D02*Y171250D01*
X145350Y170500D01*
X147600D01*
X148350Y169750D01*
Y168250D01*
X147600Y167500D02*X148350Y168250D01*
X145350Y167500D02*X147600D01*
X144600Y168250D02*X145350Y167500D01*
X98000Y172750D02*X98750Y173500D01*
X101000D01*
X101750Y172750D01*
Y171250D01*
X98000Y167500D02*X101750Y171250D01*
X98000Y167500D02*X101750D01*
X45000Y168250D02*X45750Y167500D01*
X45000Y172750D02*Y168250D01*
Y172750D02*X45750Y173500D01*
X47250D01*
X48000Y172750D01*
Y168250D01*
X47250Y167500D02*X48000Y168250D01*
X45750Y167500D02*X47250D01*
X45000Y169000D02*X48000Y172000D01*
X49800Y167500D02*X50550D01*
X52350Y168250D02*X53100Y167500D01*
X52350Y172750D02*Y168250D01*
Y172750D02*X53100Y173500D01*
X54600D01*
X55350Y172750D01*
Y168250D01*
X54600Y167500D02*X55350Y168250D01*
X53100Y167500D02*X54600D01*
X52350Y169000D02*X55350Y172000D01*
X57150Y172750D02*X57900Y173500D01*
X59400D01*
X60150Y172750D01*
X59400Y167500D02*X60150Y168250D01*
X57900Y167500D02*X59400D01*
X57150Y168250D02*X57900Y167500D01*
Y170800D02*X59400D01*
X60150Y172750D02*Y171550D01*
Y170050D02*Y168250D01*
Y170050D02*X59400Y170800D01*
X60150Y171550D02*X59400Y170800D01*
X61950Y169750D02*X64950Y173500D01*
X61950Y169750D02*X65700D01*
X64950Y173500D02*Y167500D01*
X42957Y47965D02*X45357Y45565D01*
X42957D02*X45357Y47965D01*
X47879Y55839D02*X50279Y53439D01*
X47879D02*X50279Y55839D01*
X52800Y47965D02*X55200Y45565D01*
X52800D02*X55200Y47965D01*
X57721Y55839D02*X60121Y53439D01*
X57721D02*X60121Y55839D01*
X13800Y187450D02*X16200Y185050D01*
X13800D02*X16200Y187450D01*
X135000Y188500D02*X136500Y185500D01*
X138000Y188500D01*
X136500Y185500D02*Y182500D01*
X139800Y185800D02*X142050D01*
X139800Y182500D02*X142800D01*
X139800Y188500D02*Y182500D01*
Y188500D02*X142800D01*
X147600D02*X148350Y187750D01*
X145350Y188500D02*X147600D01*
X144600Y187750D02*X145350Y188500D01*
X144600Y187750D02*Y186250D01*
X145350Y185500D01*
X147600D01*
X148350Y184750D01*
Y183250D01*
X147600Y182500D02*X148350Y183250D01*
X145350Y182500D02*X147600D01*
X144600Y183250D02*X145350Y182500D01*
X98000Y184750D02*X101000Y188500D01*
X98000Y184750D02*X101750D01*
X101000Y188500D02*Y182500D01*
X45000Y183250D02*X45750Y182500D01*
X45000Y187750D02*Y183250D01*
Y187750D02*X45750Y188500D01*
X47250D01*
X48000Y187750D01*
Y183250D01*
X47250Y182500D02*X48000Y183250D01*
X45750Y182500D02*X47250D01*
X45000Y184000D02*X48000Y187000D01*
X49800Y182500D02*X50550D01*
X52350Y183250D02*X53100Y182500D01*
X52350Y187750D02*Y183250D01*
Y187750D02*X53100Y188500D01*
X54600D01*
X55350Y187750D01*
Y183250D01*
X54600Y182500D02*X55350Y183250D01*
X53100Y182500D02*X54600D01*
X52350Y184000D02*X55350Y187000D01*
X57150Y187750D02*X57900Y188500D01*
X59400D01*
X60150Y187750D01*
X59400Y182500D02*X60150Y183250D01*
X57900Y182500D02*X59400D01*
X57150Y183250D02*X57900Y182500D01*
Y185800D02*X59400D01*
X60150Y187750D02*Y186550D01*
Y185050D02*Y183250D01*
Y185050D02*X59400Y185800D01*
X60150Y186550D02*X59400Y185800D01*
X61950Y187750D02*X62700Y188500D01*
X64950D01*
X65700Y187750D01*
Y186250D01*
X61950Y182500D02*X65700Y186250D01*
X61950Y182500D02*X65700D01*
X155737Y28744D02*Y25544D01*
X154137Y27144D02*X157337D01*
X205737Y28744D02*Y25544D01*
X204137Y27144D02*X207337D01*
X15000Y202850D02*Y199650D01*
X13400Y201250D02*X16600D01*
X135000Y203500D02*X136500Y200500D01*
X138000Y203500D01*
X136500Y200500D02*Y197500D01*
X139800Y200800D02*X142050D01*
X139800Y197500D02*X142800D01*
X139800Y203500D02*Y197500D01*
Y203500D02*X142800D01*
X147600D02*X148350Y202750D01*
X145350Y203500D02*X147600D01*
X144600Y202750D02*X145350Y203500D01*
X144600Y202750D02*Y201250D01*
X145350Y200500D01*
X147600D01*
X148350Y199750D01*
Y198250D01*
X147600Y197500D02*X148350Y198250D01*
X145350Y197500D02*X147600D01*
X144600Y198250D02*X145350Y197500D01*
X98000Y202750D02*X98750Y203500D01*
X101000D01*
X101750Y202750D01*
Y201250D01*
X98000Y197500D02*X101750Y201250D01*
X98000Y197500D02*X101750D01*
X45000Y198250D02*X45750Y197500D01*
X45000Y202750D02*Y198250D01*
Y202750D02*X45750Y203500D01*
X47250D01*
X48000Y202750D01*
Y198250D01*
X47250Y197500D02*X48000Y198250D01*
X45750Y197500D02*X47250D01*
X45000Y199000D02*X48000Y202000D01*
X49800Y197500D02*X50550D01*
X52350Y198250D02*X53100Y197500D01*
X52350Y202750D02*Y198250D01*
Y202750D02*X53100Y203500D01*
X54600D01*
X55350Y202750D01*
Y198250D01*
X54600Y197500D02*X55350Y198250D01*
X53100Y197500D02*X54600D01*
X52350Y199000D02*X55350Y202000D01*
X57150Y202750D02*X57900Y203500D01*
X59400D01*
X60150Y202750D01*
X59400Y197500D02*X60150Y198250D01*
X57900Y197500D02*X59400D01*
X57150Y198250D02*X57900Y197500D01*
Y200800D02*X59400D01*
X60150Y202750D02*Y201550D01*
Y200050D02*Y198250D01*
Y200050D02*X59400Y200800D01*
X60150Y201550D02*X59400Y200800D01*
X61950Y198250D02*X62700Y197500D01*
X61950Y202750D02*Y198250D01*
Y202750D02*X62700Y203500D01*
X64200D01*
X64950Y202750D01*
Y198250D01*
X64200Y197500D02*X64950Y198250D01*
X62700Y197500D02*X64200D01*
X61950Y199000D02*X64950Y202000D01*
X158500Y64756D02*Y63156D01*
Y64756D02*X159887Y65556D01*
X158500Y64756D02*X157113Y65556D01*
X158500Y74756D02*Y73156D01*
Y74756D02*X159887Y75556D01*
X158500Y74756D02*X157113Y75556D01*
X158500Y84756D02*Y83156D01*
Y84756D02*X159887Y85556D01*
X158500Y84756D02*X157113Y85556D01*
X158500Y94756D02*Y93156D01*
Y94756D02*X159887Y95556D01*
X158500Y94756D02*X157113Y95556D01*
X188500Y94756D02*Y93156D01*
Y94756D02*X189887Y95556D01*
X188500Y94756D02*X187113Y95556D01*
X188500Y84756D02*Y83156D01*
Y84756D02*X189887Y85556D01*
X188500Y84756D02*X187113Y85556D01*
X188500Y74756D02*Y73156D01*
Y74756D02*X189887Y75556D01*
X188500Y74756D02*X187113Y75556D01*
X188500Y64756D02*Y63156D01*
Y64756D02*X189887Y65556D01*
X188500Y64756D02*X187113Y65556D01*
X37000Y66994D02*Y65394D01*
Y66994D02*X38387Y67794D01*
X37000Y66994D02*X35613Y67794D01*
X37000Y76994D02*Y75394D01*
Y76994D02*X38387Y77794D01*
X37000Y76994D02*X35613Y77794D01*
X37000Y86994D02*Y85394D01*
Y86994D02*X38387Y87794D01*
X37000Y86994D02*X35613Y87794D01*
X37000Y96994D02*Y95394D01*
Y96994D02*X38387Y97794D01*
X37000Y96994D02*X35613Y97794D01*
X37000Y106994D02*Y105394D01*
Y106994D02*X38387Y107794D01*
X37000Y106994D02*X35613Y107794D01*
X37000Y116994D02*Y115394D01*
Y116994D02*X38387Y117794D01*
X37000Y116994D02*X35613Y117794D01*
X37000Y126994D02*Y125394D01*
Y126994D02*X38387Y127794D01*
X37000Y126994D02*X35613Y127794D01*
X67000Y126994D02*Y125394D01*
Y126994D02*X68387Y127794D01*
X67000Y126994D02*X65613Y127794D01*
X67000Y116994D02*Y115394D01*
Y116994D02*X68387Y117794D01*
X67000Y116994D02*X65613Y117794D01*
X67000Y106994D02*Y105394D01*
Y106994D02*X68387Y107794D01*
X67000Y106994D02*X65613Y107794D01*
X67000Y96994D02*Y95394D01*
Y96994D02*X68387Y97794D01*
X67000Y96994D02*X65613Y97794D01*
X67000Y86994D02*Y85394D01*
Y86994D02*X68387Y87794D01*
X67000Y86994D02*X65613Y87794D01*
X67000Y76994D02*Y75394D01*
Y76994D02*X68387Y77794D01*
X67000Y76994D02*X65613Y77794D01*
X67000Y66994D02*Y65394D01*
Y66994D02*X68387Y67794D01*
X67000Y66994D02*X65613Y67794D01*
X15000Y216250D02*Y214650D01*
Y216250D02*X16387Y217050D01*
X15000Y216250D02*X13613Y217050D01*
X135000Y218500D02*X136500Y215500D01*
X138000Y218500D01*
X136500Y215500D02*Y212500D01*
X139800Y215800D02*X142050D01*
X139800Y212500D02*X142800D01*
X139800Y218500D02*Y212500D01*
Y218500D02*X142800D01*
X147600D02*X148350Y217750D01*
X145350Y218500D02*X147600D01*
X144600Y217750D02*X145350Y218500D01*
X144600Y217750D02*Y216250D01*
X145350Y215500D01*
X147600D01*
X148350Y214750D01*
Y213250D01*
X147600Y212500D02*X148350Y213250D01*
X145350Y212500D02*X147600D01*
X144600Y213250D02*X145350Y212500D01*
X98000Y217750D02*X98750Y218500D01*
X101000D01*
X101750Y217750D01*
Y216250D01*
X98000Y212500D02*X101750Y216250D01*
X98000Y212500D02*X101750D01*
X103550Y217750D02*X104300Y218500D01*
X106550D01*
X107300Y217750D01*
Y216250D01*
X103550Y212500D02*X107300Y216250D01*
X103550Y212500D02*X107300D01*
X45000Y213250D02*X45750Y212500D01*
X45000Y217750D02*Y213250D01*
Y217750D02*X45750Y218500D01*
X47250D01*
X48000Y217750D01*
Y213250D01*
X47250Y212500D02*X48000Y213250D01*
X45750Y212500D02*X47250D01*
X45000Y214000D02*X48000Y217000D01*
X49800Y212500D02*X50550D01*
X52350Y213250D02*X53100Y212500D01*
X52350Y217750D02*Y213250D01*
Y217750D02*X53100Y218500D01*
X54600D01*
X55350Y217750D01*
Y213250D01*
X54600Y212500D02*X55350Y213250D01*
X53100Y212500D02*X54600D01*
X52350Y214000D02*X55350Y217000D01*
X57150Y217750D02*X57900Y218500D01*
X60150D01*
X60900Y217750D01*
Y216250D01*
X57150Y212500D02*X60900Y216250D01*
X57150Y212500D02*X60900D01*
X62700Y213250D02*X63450Y212500D01*
X62700Y214450D02*Y213250D01*
Y214450D02*X63750Y215500D01*
X64650D01*
X65700Y214450D01*
Y213250D01*
X64950Y212500D02*X65700Y213250D01*
X63450Y212500D02*X64950D01*
X62700Y216550D02*X63750Y215500D01*
X62700Y217750D02*Y216550D01*
Y217750D02*X63450Y218500D01*
X64950D01*
X65700Y217750D01*
Y216550D01*
X64650Y215500D02*X65700Y216550D01*
X3000Y233500D02*X3750Y232750D01*
X750Y233500D02*X3000D01*
X0Y232750D02*X750Y233500D01*
X0Y232750D02*Y231250D01*
X750Y230500D01*
X3000D01*
X3750Y229750D01*
Y228250D01*
X3000Y227500D02*X3750Y228250D01*
X750Y227500D02*X3000D01*
X0Y228250D02*X750Y227500D01*
X5550Y230500D02*Y228250D01*
X6300Y227500D01*
X8550Y230500D02*Y226000D01*
X7800Y225250D02*X8550Y226000D01*
X6300Y225250D02*X7800D01*
X5550Y226000D02*X6300Y225250D01*
Y227500D02*X7800D01*
X8550Y228250D01*
X11100Y229750D02*Y227500D01*
Y229750D02*X11850Y230500D01*
X12600D01*
X13350Y229750D01*
Y227500D01*
Y229750D02*X14100Y230500D01*
X14850D01*
X15600Y229750D01*
Y227500D01*
X10350Y230500D02*X11100Y229750D01*
X17400Y233500D02*Y227500D01*
Y228250D02*X18150Y227500D01*
X19650D01*
X20400Y228250D01*
Y229750D02*Y228250D01*
X19650Y230500D02*X20400Y229750D01*
X18150Y230500D02*X19650D01*
X17400Y229750D02*X18150Y230500D01*
X22200Y229750D02*Y228250D01*
Y229750D02*X22950Y230500D01*
X24450D01*
X25200Y229750D01*
Y228250D01*
X24450Y227500D02*X25200Y228250D01*
X22950Y227500D02*X24450D01*
X22200Y228250D02*X22950Y227500D01*
X27000Y233500D02*Y228250D01*
X27750Y227500D01*
X0Y224250D02*X29250D01*
X41750Y233500D02*Y227500D01*
X43700Y233500D02*X44750Y232450D01*
Y228550D01*
X43700Y227500D02*X44750Y228550D01*
X41000Y227500D02*X43700D01*
X41000Y233500D02*X43700D01*
G54D78*X46550Y232000D02*Y231850D01*
G54D77*Y229750D02*Y227500D01*
X50300Y230500D02*X51050Y229750D01*
X48800Y230500D02*X50300D01*
X48050Y229750D02*X48800Y230500D01*
X48050Y229750D02*Y228250D01*
X48800Y227500D01*
X51050Y230500D02*Y228250D01*
X51800Y227500D01*
X48800D02*X50300D01*
X51050Y228250D01*
X54350Y229750D02*Y227500D01*
Y229750D02*X55100Y230500D01*
X55850D01*
X56600Y229750D01*
Y227500D01*
Y229750D02*X57350Y230500D01*
X58100D01*
X58850Y229750D01*
Y227500D01*
X53600Y230500D02*X54350Y229750D01*
X60650Y227500D02*X61400D01*
X65900Y228250D02*X66650Y227500D01*
X65900Y232750D02*X66650Y233500D01*
X65900Y232750D02*Y228250D01*
X68450Y233500D02*X69950D01*
X69200D02*Y227500D01*
X68450D02*X69950D01*
X72500Y229750D02*Y227500D01*
Y229750D02*X73250Y230500D01*
X74000D01*
X74750Y229750D01*
Y227500D01*
X71750Y230500D02*X72500Y229750D01*
X77300Y230500D02*X79550D01*
X76550Y229750D02*X77300Y230500D01*
X76550Y229750D02*Y228250D01*
X77300Y227500D01*
X79550D01*
X81350Y233500D02*Y227500D01*
Y229750D02*X82100Y230500D01*
X83600D01*
X84350Y229750D01*
Y227500D01*
X86150Y233500D02*X86900Y232750D01*
Y228250D01*
X86150Y227500D02*X86900Y228250D01*
X41000Y224250D02*X88700D01*
X96050Y227500D02*X98000D01*
X95000Y228550D02*X96050Y227500D01*
X95000Y232450D02*Y228550D01*
Y232450D02*X96050Y233500D01*
X98000D01*
X99800Y229750D02*Y228250D01*
Y229750D02*X100550Y230500D01*
X102050D01*
X102800Y229750D01*
Y228250D01*
X102050Y227500D02*X102800Y228250D01*
X100550Y227500D02*X102050D01*
X99800Y228250D02*X100550Y227500D01*
X104600Y230500D02*Y228250D01*
X105350Y227500D01*
X106850D01*
X107600Y228250D01*
Y230500D02*Y228250D01*
X110150Y229750D02*Y227500D01*
Y229750D02*X110900Y230500D01*
X111650D01*
X112400Y229750D01*
Y227500D01*
X109400Y230500D02*X110150Y229750D01*
X114950Y233500D02*Y228250D01*
X115700Y227500D01*
X114200Y231250D02*X115700D01*
X95000Y224250D02*X117200D01*
X130750Y233500D02*Y227500D01*
X130000Y233500D02*X133000D01*
X133750Y232750D01*
Y231250D01*
X133000Y230500D02*X133750Y231250D01*
X130750Y230500D02*X133000D01*
X135550Y233500D02*Y228250D01*
X136300Y227500D01*
X140050Y230500D02*X140800Y229750D01*
X138550Y230500D02*X140050D01*
X137800Y229750D02*X138550Y230500D01*
X137800Y229750D02*Y228250D01*
X138550Y227500D01*
X140800Y230500D02*Y228250D01*
X141550Y227500D01*
X138550D02*X140050D01*
X140800Y228250D01*
X144100Y233500D02*Y228250D01*
X144850Y227500D01*
X143350Y231250D02*X144850D01*
X147100Y227500D02*X149350D01*
X146350Y228250D02*X147100Y227500D01*
X146350Y229750D02*Y228250D01*
Y229750D02*X147100Y230500D01*
X148600D01*
X149350Y229750D01*
X146350Y229000D02*X149350D01*
Y229750D02*Y229000D01*
X154150Y233500D02*Y227500D01*
X153400D02*X154150Y228250D01*
X151900Y227500D02*X153400D01*
X151150Y228250D02*X151900Y227500D01*
X151150Y229750D02*Y228250D01*
Y229750D02*X151900Y230500D01*
X153400D01*
X154150Y229750D01*
X157450Y230500D02*Y229750D01*
Y228250D02*Y227500D01*
X155950Y232750D02*Y232000D01*
Y232750D02*X156700Y233500D01*
X158200D01*
X158950Y232750D01*
Y232000D01*
X157450Y230500D02*X158950Y232000D01*
X130000Y224250D02*X160750D01*
X0Y248500D02*X3000D01*
X1500D02*Y242500D01*
X4800Y248500D02*Y242500D01*
Y244750D02*X5550Y245500D01*
X7050D01*
X7800Y244750D01*
Y242500D01*
X10350D02*X12600D01*
X9600Y243250D02*X10350Y242500D01*
X9600Y244750D02*Y243250D01*
Y244750D02*X10350Y245500D01*
X11850D01*
X12600Y244750D01*
X9600Y244000D02*X12600D01*
Y244750D02*Y244000D01*
X15150Y244750D02*Y242500D01*
Y244750D02*X15900Y245500D01*
X17400D01*
X14400D02*X15150Y244750D01*
X19950Y242500D02*X22200D01*
X19200Y243250D02*X19950Y242500D01*
X19200Y244750D02*Y243250D01*
Y244750D02*X19950Y245500D01*
X21450D01*
X22200Y244750D01*
X19200Y244000D02*X22200D01*
Y244750D02*Y244000D01*
X28950Y245500D02*X29700Y244750D01*
X27450Y245500D02*X28950D01*
X26700Y244750D02*X27450Y245500D01*
X26700Y244750D02*Y243250D01*
X27450Y242500D01*
X29700Y245500D02*Y243250D01*
X30450Y242500D01*
X27450D02*X28950D01*
X29700Y243250D01*
X33000Y244750D02*Y242500D01*
Y244750D02*X33750Y245500D01*
X35250D01*
X32250D02*X33000Y244750D01*
X37800Y242500D02*X40050D01*
X37050Y243250D02*X37800Y242500D01*
X37050Y244750D02*Y243250D01*
Y244750D02*X37800Y245500D01*
X39300D01*
X40050Y244750D01*
X37050Y244000D02*X40050D01*
Y244750D02*Y244000D01*
X44550Y244750D02*X47550Y248500D01*
X44550Y244750D02*X48300D01*
X47550Y248500D02*Y242500D01*
X55800Y248500D02*Y242500D01*
X55050D02*X55800Y243250D01*
X53550Y242500D02*X55050D01*
X52800Y243250D02*X53550Y242500D01*
X52800Y244750D02*Y243250D01*
Y244750D02*X53550Y245500D01*
X55050D01*
X55800Y244750D01*
G54D78*X57600Y247000D02*Y246850D01*
G54D77*Y244750D02*Y242500D01*
X59850Y247750D02*Y242500D01*
Y247750D02*X60600Y248500D01*
X61350D01*
X59100Y245500D02*X60600D01*
X63600Y247750D02*Y242500D01*
Y247750D02*X64350Y248500D01*
X65100D01*
X62850Y245500D02*X64350D01*
X67350Y242500D02*X69600D01*
X66600Y243250D02*X67350Y242500D01*
X66600Y244750D02*Y243250D01*
Y244750D02*X67350Y245500D01*
X68850D01*
X69600Y244750D01*
X66600Y244000D02*X69600D01*
Y244750D02*Y244000D01*
X72150Y244750D02*Y242500D01*
Y244750D02*X72900Y245500D01*
X74400D01*
X71400D02*X72150Y244750D01*
X76950Y242500D02*X79200D01*
X76200Y243250D02*X76950Y242500D01*
X76200Y244750D02*Y243250D01*
Y244750D02*X76950Y245500D01*
X78450D01*
X79200Y244750D01*
X76200Y244000D02*X79200D01*
Y244750D02*Y244000D01*
X81750Y244750D02*Y242500D01*
Y244750D02*X82500Y245500D01*
X83250D01*
X84000Y244750D01*
Y242500D01*
X81000Y245500D02*X81750Y244750D01*
X86550Y248500D02*Y243250D01*
X87300Y242500D01*
X85800Y246250D02*X87300D01*
X94500Y248500D02*Y242500D01*
X93750D02*X94500Y243250D01*
X92250Y242500D02*X93750D01*
X91500Y243250D02*X92250Y242500D01*
X91500Y244750D02*Y243250D01*
Y244750D02*X92250Y245500D01*
X93750D01*
X94500Y244750D01*
X97050D02*Y242500D01*
Y244750D02*X97800Y245500D01*
X99300D01*
X96300D02*X97050Y244750D01*
G54D78*X101100Y247000D02*Y246850D01*
G54D77*Y244750D02*Y242500D01*
X102600Y248500D02*Y243250D01*
X103350Y242500D01*
X104850Y248500D02*Y243250D01*
X105600Y242500D01*
X110550D02*X112800D01*
X113550Y243250D01*
X112800Y244000D02*X113550Y243250D01*
X110550Y244000D02*X112800D01*
X109800Y244750D02*X110550Y244000D01*
X109800Y244750D02*X110550Y245500D01*
X112800D01*
X113550Y244750D01*
X109800Y243250D02*X110550Y242500D01*
G54D78*X115350Y247000D02*Y246850D01*
G54D77*Y244750D02*Y242500D01*
X116850Y245500D02*X119850D01*
X116850Y242500D02*X119850Y245500D01*
X116850Y242500D02*X119850D01*
X122400D02*X124650D01*
X121650Y243250D02*X122400Y242500D01*
X121650Y244750D02*Y243250D01*
Y244750D02*X122400Y245500D01*
X123900D01*
X124650Y244750D01*
X121650Y244000D02*X124650D01*
Y244750D02*Y244000D01*
X127200Y242500D02*X129450D01*
X130200Y243250D01*
X129450Y244000D02*X130200Y243250D01*
X127200Y244000D02*X129450D01*
X126450Y244750D02*X127200Y244000D01*
X126450Y244750D02*X127200Y245500D01*
X129450D01*
X130200Y244750D01*
X126450Y243250D02*X127200Y242500D01*
X134700Y245500D02*Y243250D01*
X135450Y242500D01*
X136950D01*
X137700Y243250D01*
Y245500D02*Y243250D01*
X140250Y242500D02*X142500D01*
X143250Y243250D01*
X142500Y244000D02*X143250Y243250D01*
X140250Y244000D02*X142500D01*
X139500Y244750D02*X140250Y244000D01*
X139500Y244750D02*X140250Y245500D01*
X142500D01*
X143250Y244750D01*
X139500Y243250D02*X140250Y242500D01*
X145800D02*X148050D01*
X145050Y243250D02*X145800Y242500D01*
X145050Y244750D02*Y243250D01*
Y244750D02*X145800Y245500D01*
X147300D01*
X148050Y244750D01*
X145050Y244000D02*X148050D01*
Y244750D02*Y244000D01*
X152850Y248500D02*Y242500D01*
X152100D02*X152850Y243250D01*
X150600Y242500D02*X152100D01*
X149850Y243250D02*X150600Y242500D01*
X149850Y244750D02*Y243250D01*
Y244750D02*X150600Y245500D01*
X152100D01*
X152850Y244750D01*
G54D78*X157350Y247000D02*Y246850D01*
G54D77*Y244750D02*Y242500D01*
X159600Y244750D02*Y242500D01*
Y244750D02*X160350Y245500D01*
X161100D01*
X161850Y244750D01*
Y242500D01*
X158850Y245500D02*X159600Y244750D01*
X167100Y248500D02*Y243250D01*
X167850Y242500D01*
X166350Y246250D02*X167850D01*
X169350Y248500D02*Y242500D01*
Y244750D02*X170100Y245500D01*
X171600D01*
X172350Y244750D01*
Y242500D01*
G54D78*X174150Y247000D02*Y246850D01*
G54D77*Y244750D02*Y242500D01*
X176400D02*X178650D01*
X179400Y243250D01*
X178650Y244000D02*X179400Y243250D01*
X176400Y244000D02*X178650D01*
X175650Y244750D02*X176400Y244000D01*
X175650Y244750D02*X176400Y245500D01*
X178650D01*
X179400Y244750D01*
X175650Y243250D02*X176400Y242500D01*
X183900Y248500D02*Y243250D01*
X184650Y242500D01*
X188400Y245500D02*X189150Y244750D01*
X186900Y245500D02*X188400D01*
X186150Y244750D02*X186900Y245500D01*
X186150Y244750D02*Y243250D01*
X186900Y242500D01*
X189150Y245500D02*Y243250D01*
X189900Y242500D01*
X186900D02*X188400D01*
X189150Y243250D01*
X191700Y245500D02*Y243250D01*
X192450Y242500D01*
X194700Y245500D02*Y241000D01*
X193950Y240250D02*X194700Y241000D01*
X192450Y240250D02*X193950D01*
X191700Y241000D02*X192450Y240250D01*
Y242500D02*X193950D01*
X194700Y243250D01*
X196500Y244750D02*Y243250D01*
Y244750D02*X197250Y245500D01*
X198750D01*
X199500Y244750D01*
Y243250D01*
X198750Y242500D02*X199500Y243250D01*
X197250Y242500D02*X198750D01*
X196500Y243250D02*X197250Y242500D01*
X201300Y245500D02*Y243250D01*
X202050Y242500D01*
X203550D01*
X204300Y243250D01*
Y245500D02*Y243250D01*
X206850Y248500D02*Y243250D01*
X207600Y242500D01*
X206100Y246250D02*X207600D01*
X209100Y241000D02*X210600Y242500D01*
X215100Y247750D02*X215850Y248500D01*
X217350D01*
X218100Y247750D01*
X217350Y242500D02*X218100Y243250D01*
X215850Y242500D02*X217350D01*
X215100Y243250D02*X215850Y242500D01*
Y245800D02*X217350D01*
X218100Y247750D02*Y246550D01*
Y245050D02*Y243250D01*
Y245050D02*X217350Y245800D01*
X218100Y246550D02*X217350Y245800D01*
X219900Y243250D02*X220650Y242500D01*
X219900Y247750D02*Y243250D01*
Y247750D02*X220650Y248500D01*
X222150D01*
X222900Y247750D01*
Y243250D01*
X222150Y242500D02*X222900Y243250D01*
X220650Y242500D02*X222150D01*
X219900Y244000D02*X222900Y247000D01*
X227400Y248500D02*Y242500D01*
Y244750D02*X228150Y245500D01*
X229650D01*
X230400Y244750D01*
Y242500D01*
X232200Y244750D02*Y243250D01*
Y244750D02*X232950Y245500D01*
X234450D01*
X235200Y244750D01*
Y243250D01*
X234450Y242500D02*X235200Y243250D01*
X232950Y242500D02*X234450D01*
X232200Y243250D02*X232950Y242500D01*
X237000Y248500D02*Y243250D01*
X237750Y242500D01*
X240000D02*X242250D01*
X239250Y243250D02*X240000Y242500D01*
X239250Y244750D02*Y243250D01*
Y244750D02*X240000Y245500D01*
X241500D01*
X242250Y244750D01*
X239250Y244000D02*X242250D01*
Y244750D02*Y244000D01*
X244800Y242500D02*X247050D01*
X247800Y243250D01*
X247050Y244000D02*X247800Y243250D01*
X244800Y244000D02*X247050D01*
X244050Y244750D02*X244800Y244000D01*
X244050Y244750D02*X244800Y245500D01*
X247050D01*
X247800Y244750D01*
X244050Y243250D02*X244800Y242500D01*
X253050Y248500D02*Y243250D01*
X253800Y242500D01*
X252300Y246250D02*X253800D01*
X255300Y244750D02*Y243250D01*
Y244750D02*X256050Y245500D01*
X257550D01*
X258300Y244750D01*
Y243250D01*
X257550Y242500D02*X258300Y243250D01*
X256050Y242500D02*X257550D01*
X255300Y243250D02*X256050Y242500D01*
X260850Y248500D02*Y243250D01*
X261600Y242500D01*
X260100Y246250D02*X261600D01*
X265350Y245500D02*X266100Y244750D01*
X263850Y245500D02*X265350D01*
X263100Y244750D02*X263850Y245500D01*
X263100Y244750D02*Y243250D01*
X263850Y242500D01*
X266100Y245500D02*Y243250D01*
X266850Y242500D01*
X263850D02*X265350D01*
X266100Y243250D01*
X268650Y248500D02*Y243250D01*
X269400Y242500D01*
G54D79*X1500Y141000D02*Y18000D01*
X19000Y158500D02*X195000D01*
X201500Y152000D02*Y29500D01*
X8000Y12000D02*X184000D01*
G75*G02X201500Y29500I17500J0D01*G01*
X19000Y158500D02*G75*G02X1500Y141000I-17500J0D01*G01*
X8000Y12000D02*G75*G02X1500Y18500I0J6500D01*G01*
X201500Y152000D02*G75*G03X195000Y158500I-6500J0D01*G01*
G54D77*X18675Y-9500D02*X21675D01*
X22425Y-8750D01*
Y-6950D02*Y-8750D01*
X21675Y-6200D02*X22425Y-6950D01*
X19425Y-6200D02*X21675D01*
X19425Y-3500D02*Y-9500D01*
X18675Y-3500D02*X21675D01*
X22425Y-4250D01*
Y-5450D01*
X21675Y-6200D02*X22425Y-5450D01*
X24225Y-7250D02*Y-8750D01*
Y-7250D02*X24975Y-6500D01*
X26475D01*
X27225Y-7250D01*
Y-8750D01*
X26475Y-9500D02*X27225Y-8750D01*
X24975Y-9500D02*X26475D01*
X24225Y-8750D02*X24975Y-9500D01*
X31275Y-6500D02*X32025Y-7250D01*
X29775Y-6500D02*X31275D01*
X29025Y-7250D02*X29775Y-6500D01*
X29025Y-7250D02*Y-8750D01*
X29775Y-9500D01*
X32025Y-6500D02*Y-8750D01*
X32775Y-9500D01*
X29775D02*X31275D01*
X32025Y-8750D01*
X35325Y-7250D02*Y-9500D01*
Y-7250D02*X36075Y-6500D01*
X37575D01*
X34575D02*X35325Y-7250D01*
X42375Y-3500D02*Y-9500D01*
X41625D02*X42375Y-8750D01*
X40125Y-9500D02*X41625D01*
X39375Y-8750D02*X40125Y-9500D01*
X39375Y-7250D02*Y-8750D01*
Y-7250D02*X40125Y-6500D01*
X41625D01*
X42375Y-7250D01*
X46875D02*Y-8750D01*
Y-7250D02*X47625Y-6500D01*
X49125D01*
X49875Y-7250D01*
Y-8750D01*
X49125Y-9500D02*X49875Y-8750D01*
X47625Y-9500D02*X49125D01*
X46875Y-8750D02*X47625Y-9500D01*
X51675Y-6500D02*Y-8750D01*
X52425Y-9500D01*
X53925D01*
X54675Y-8750D01*
Y-6500D02*Y-8750D01*
X57225Y-3500D02*Y-8750D01*
X57975Y-9500D01*
X56475Y-5750D02*X57975D01*
X59475Y-3500D02*Y-8750D01*
X60225Y-9500D01*
G54D78*X61725Y-5000D02*Y-5150D01*
G54D77*Y-7250D02*Y-9500D01*
X63975Y-7250D02*Y-9500D01*
Y-7250D02*X64725Y-6500D01*
X65475D01*
X66225Y-7250D01*
Y-9500D01*
X63225Y-6500D02*X63975Y-7250D01*
X68775Y-9500D02*X71025D01*
X68025Y-8750D02*X68775Y-9500D01*
X68025Y-7250D02*Y-8750D01*
Y-7250D02*X68775Y-6500D01*
X70275D01*
X71025Y-7250D01*
X68025Y-8000D02*X71025D01*
Y-7250D02*Y-8000D01*
G54D78*X75525Y-5000D02*Y-5150D01*
G54D77*Y-7250D02*Y-9500D01*
X77775D02*X80025D01*
X80775Y-8750D01*
X80025Y-8000D02*X80775Y-8750D01*
X77775Y-8000D02*X80025D01*
X77025Y-7250D02*X77775Y-8000D01*
X77025Y-7250D02*X77775Y-6500D01*
X80025D01*
X80775Y-7250D01*
X77025Y-8750D02*X77775Y-9500D01*
X86025Y-3500D02*Y-8750D01*
X86775Y-9500D01*
X85275Y-5750D02*X86775D01*
X88275Y-3500D02*Y-9500D01*
Y-7250D02*X89025Y-6500D01*
X90525D01*
X91275Y-7250D01*
Y-9500D01*
X93825D02*X96075D01*
X93075Y-8750D02*X93825Y-9500D01*
X93075Y-7250D02*Y-8750D01*
Y-7250D02*X93825Y-6500D01*
X95325D01*
X96075Y-7250D01*
X93075Y-8000D02*X96075D01*
Y-7250D02*Y-8000D01*
X101325Y-6500D02*X103575D01*
X100575Y-7250D02*X101325Y-6500D01*
X100575Y-7250D02*Y-8750D01*
X101325Y-9500D01*
X103575D01*
X106125D02*X108375D01*
X105375Y-8750D02*X106125Y-9500D01*
X105375Y-7250D02*Y-8750D01*
Y-7250D02*X106125Y-6500D01*
X107625D01*
X108375Y-7250D01*
X105375Y-8000D02*X108375D01*
Y-7250D02*Y-8000D01*
X110925Y-7250D02*Y-9500D01*
Y-7250D02*X111675Y-6500D01*
X112425D01*
X113175Y-7250D01*
Y-9500D01*
X110175Y-6500D02*X110925Y-7250D01*
X115725Y-3500D02*Y-8750D01*
X116475Y-9500D01*
X114975Y-5750D02*X116475D01*
X118725Y-9500D02*X120975D01*
X117975Y-8750D02*X118725Y-9500D01*
X117975Y-7250D02*Y-8750D01*
Y-7250D02*X118725Y-6500D01*
X120225D01*
X120975Y-7250D01*
X117975Y-8000D02*X120975D01*
Y-7250D02*Y-8000D01*
X123525Y-7250D02*Y-9500D01*
Y-7250D02*X124275Y-6500D01*
X125775D01*
X122775D02*X123525Y-7250D01*
X127575Y-3500D02*Y-8750D01*
X128325Y-9500D01*
G54D78*X129825Y-5000D02*Y-5150D01*
G54D77*Y-7250D02*Y-9500D01*
X132075Y-7250D02*Y-9500D01*
Y-7250D02*X132825Y-6500D01*
X133575D01*
X134325Y-7250D01*
Y-9500D01*
X131325Y-6500D02*X132075Y-7250D01*
X136875Y-9500D02*X139125D01*
X136125Y-8750D02*X136875Y-9500D01*
X136125Y-7250D02*Y-8750D01*
Y-7250D02*X136875Y-6500D01*
X138375D01*
X139125Y-7250D01*
X136125Y-8000D02*X139125D01*
Y-7250D02*Y-8000D01*
X143625Y-7250D02*Y-8750D01*
Y-7250D02*X144375Y-6500D01*
X145875D01*
X146625Y-7250D01*
Y-8750D01*
X145875Y-9500D02*X146625Y-8750D01*
X144375Y-9500D02*X145875D01*
X143625Y-8750D02*X144375Y-9500D01*
X149175Y-4250D02*Y-9500D01*
Y-4250D02*X149925Y-3500D01*
X150675D01*
X148425Y-6500D02*X149925D01*
X155625Y-3500D02*Y-8750D01*
X156375Y-9500D01*
X154875Y-5750D02*X156375D01*
X157875Y-3500D02*Y-9500D01*
Y-7250D02*X158625Y-6500D01*
X160125D01*
X160875Y-7250D01*
Y-9500D01*
G54D78*X162675Y-5000D02*Y-5150D01*
G54D77*Y-7250D02*Y-9500D01*
X164925D02*X167175D01*
X167925Y-8750D01*
X167175Y-8000D02*X167925Y-8750D01*
X164925Y-8000D02*X167175D01*
X164175Y-7250D02*X164925Y-8000D01*
X164175Y-7250D02*X164925Y-6500D01*
X167175D01*
X167925Y-7250D01*
X164175Y-8750D02*X164925Y-9500D01*
X173175Y-7250D02*Y-11750D01*
X172425Y-6500D02*X173175Y-7250D01*
X173925Y-6500D01*
X175425D01*
X176175Y-7250D01*
Y-8750D01*
X175425Y-9500D02*X176175Y-8750D01*
X173925Y-9500D02*X175425D01*
X173175Y-8750D02*X173925Y-9500D01*
X180225Y-6500D02*X180975Y-7250D01*
X178725Y-6500D02*X180225D01*
X177975Y-7250D02*X178725Y-6500D01*
X177975Y-7250D02*Y-8750D01*
X178725Y-9500D01*
X180975Y-6500D02*Y-8750D01*
X181725Y-9500D01*
X178725D02*X180225D01*
X180975Y-8750D01*
X184275Y-3500D02*Y-8750D01*
X185025Y-9500D01*
X183525Y-5750D02*X185025D01*
X186525Y-3500D02*Y-9500D01*
Y-7250D02*X187275Y-6500D01*
X188775D01*
X189525Y-7250D01*
Y-9500D01*
X200750Y188500D02*Y182500D01*
X202700Y188500D02*X203750Y187450D01*
Y183550D01*
X202700Y182500D02*X203750Y183550D01*
X200000Y182500D02*X202700D01*
X200000Y188500D02*X202700D01*
X207800Y185500D02*X208550Y184750D01*
X206300Y185500D02*X207800D01*
X205550Y184750D02*X206300Y185500D01*
X205550Y184750D02*Y183250D01*
X206300Y182500D01*
X208550Y185500D02*Y183250D01*
X209300Y182500D01*
X206300D02*X207800D01*
X208550Y183250D01*
X211850Y188500D02*Y183250D01*
X212600Y182500D01*
X211100Y186250D02*X212600D01*
X214850Y182500D02*X217100D01*
X214100Y183250D02*X214850Y182500D01*
X214100Y184750D02*Y183250D01*
Y184750D02*X214850Y185500D01*
X216350D01*
X217100Y184750D01*
X214100Y184000D02*X217100D01*
Y184750D02*Y184000D01*
X218900Y186250D02*X219650D01*
X218900Y184750D02*X219650D01*
X224150Y188500D02*Y182500D01*
Y188500D02*X227150D01*
X224150Y185800D02*X226400D01*
X229700Y184750D02*Y182500D01*
Y184750D02*X230450Y185500D01*
X231950D01*
X228950D02*X229700Y184750D01*
G54D78*X233750Y187000D02*Y186850D01*
G54D77*Y184750D02*Y182500D01*
X237950Y188500D02*Y182500D01*
Y188500D02*X240200Y185500D01*
X242450Y188500D01*
Y182500D01*
X246500Y185500D02*X247250Y184750D01*
X245000Y185500D02*X246500D01*
X244250Y184750D02*X245000Y185500D01*
X244250Y184750D02*Y183250D01*
X245000Y182500D01*
X247250Y185500D02*Y183250D01*
X248000Y182500D01*
X245000D02*X246500D01*
X247250Y183250D01*
X249800Y185500D02*Y183250D01*
X250550Y182500D01*
X252800Y185500D02*Y181000D01*
X252050Y180250D02*X252800Y181000D01*
X250550Y180250D02*X252050D01*
X249800Y181000D02*X250550Y180250D01*
Y182500D02*X252050D01*
X252800Y183250D01*
X257300Y187750D02*X258050Y188500D01*
X259550D01*
X260300Y187750D01*
X259550Y182500D02*X260300Y183250D01*
X258050Y182500D02*X259550D01*
X257300Y183250D02*X258050Y182500D01*
Y185800D02*X259550D01*
X260300Y187750D02*Y186550D01*
Y185050D02*Y183250D01*
Y185050D02*X259550Y185800D01*
X260300Y186550D02*X259550Y185800D01*
X262100Y187300D02*X263300Y188500D01*
Y182500D01*
X262100D02*X264350D01*
X268850Y187750D02*X269600Y188500D01*
X271850D01*
X272600Y187750D01*
Y186250D01*
X268850Y182500D02*X272600Y186250D01*
X268850Y182500D02*X272600D01*
X274400Y187300D02*X275600Y188500D01*
Y182500D01*
X274400D02*X276650D01*
X278450Y186250D02*X279200D01*
X278450Y184750D02*X279200D01*
X281000Y188500D02*X284000D01*
X281000D02*Y185500D01*
X281750Y186250D01*
X283250D01*
X284000Y185500D01*
Y183250D01*
X283250Y182500D02*X284000Y183250D01*
X281750Y182500D02*X283250D01*
X281000Y183250D02*X281750Y182500D01*
X285800Y188500D02*X288800D01*
X285800D02*Y185500D01*
X286550Y186250D01*
X288050D01*
X288800Y185500D01*
Y183250D01*
X288050Y182500D02*X288800Y183250D01*
X286550Y182500D02*X288050D01*
X285800Y183250D02*X286550Y182500D01*
X290600Y186250D02*X291350D01*
X290600Y184750D02*X291350D01*
X293150D02*X296150Y188500D01*
X293150Y184750D02*X296900D01*
X296150Y188500D02*Y182500D01*
X298700Y183250D02*X299450Y182500D01*
X298700Y187750D02*Y183250D01*
Y187750D02*X299450Y188500D01*
X300950D01*
X301700Y187750D01*
Y183250D01*
X300950Y182500D02*X301700Y183250D01*
X299450Y182500D02*X300950D01*
X298700Y184000D02*X301700Y187000D01*
X306200Y187750D02*X306950Y188500D01*
X309200D01*
X309950Y187750D01*
Y186250D01*
X306200Y182500D02*X309950Y186250D01*
X306200Y182500D02*X309950D01*
X311750Y183250D02*X312500Y182500D01*
X311750Y187750D02*Y183250D01*
Y187750D02*X312500Y188500D01*
X314000D01*
X314750Y187750D01*
Y183250D01*
X314000Y182500D02*X314750Y183250D01*
X312500Y182500D02*X314000D01*
X311750Y184000D02*X314750Y187000D01*
X316550Y187300D02*X317750Y188500D01*
Y182500D01*
X316550D02*X318800D01*
X320600Y187750D02*X321350Y188500D01*
X322850D01*
X323600Y187750D01*
X322850Y182500D02*X323600Y183250D01*
X321350Y182500D02*X322850D01*
X320600Y183250D02*X321350Y182500D01*
Y185800D02*X322850D01*
X323600Y187750D02*Y186550D01*
Y185050D02*Y183250D01*
Y185050D02*X322850Y185800D01*
X323600Y186550D02*X322850Y185800D01*
X328100Y188500D02*Y183250D01*
X328850Y182500D01*
X330350D01*
X331100Y183250D01*
Y188500D02*Y183250D01*
X332900Y188500D02*X335900D01*
X334400D02*Y182500D01*
X338750D02*X340700D01*
X337700Y183550D02*X338750Y182500D01*
X337700Y187450D02*Y183550D01*
Y187450D02*X338750Y188500D01*
X340700D01*
X200000Y202000D02*Y197500D01*
Y202000D02*X201050Y203500D01*
X202700D01*
X203750Y202000D01*
Y197500D01*
X200000Y200500D02*X203750D01*
X205550D02*Y198250D01*
X206300Y197500D01*
X207800D01*
X208550Y198250D01*
Y200500D02*Y198250D01*
X211100Y203500D02*Y198250D01*
X211850Y197500D01*
X210350Y201250D02*X211850D01*
X213350Y203500D02*Y197500D01*
Y199750D02*X214100Y200500D01*
X215600D01*
X216350Y199750D01*
Y197500D01*
X218150Y199750D02*Y198250D01*
Y199750D02*X218900Y200500D01*
X220400D01*
X221150Y199750D01*
Y198250D01*
X220400Y197500D02*X221150Y198250D01*
X218900Y197500D02*X220400D01*
X218150Y198250D02*X218900Y197500D01*
X223700Y199750D02*Y197500D01*
Y199750D02*X224450Y200500D01*
X225950D01*
X222950D02*X223700Y199750D01*
X227750Y201250D02*X228500D01*
X227750Y199750D02*X228500D01*
X200000Y218500D02*X203000D01*
X201500D02*Y212500D01*
G54D78*X204800Y217000D02*Y216850D01*
G54D77*Y214750D02*Y212500D01*
X207050Y218500D02*Y213250D01*
X207800Y212500D01*
X206300Y216250D02*X207800D01*
X209300Y218500D02*Y213250D01*
X210050Y212500D01*
X212300D02*X214550D01*
X211550Y213250D02*X212300Y212500D01*
X211550Y214750D02*Y213250D01*
Y214750D02*X212300Y215500D01*
X213800D01*
X214550Y214750D01*
X211550Y214000D02*X214550D01*
Y214750D02*Y214000D01*
X216350Y216250D02*X217100D01*
X216350Y214750D02*X217100D01*
X221600Y213250D02*X222350Y212500D01*
X221600Y217750D02*X222350Y218500D01*
X221600Y217750D02*Y213250D01*
X224150Y215500D02*Y213250D01*
X224900Y212500D01*
X226400D01*
X227150Y213250D01*
Y215500D02*Y213250D01*
X229700Y214750D02*Y212500D01*
Y214750D02*X230450Y215500D01*
X231200D01*
X231950Y214750D01*
Y212500D01*
X228950Y215500D02*X229700Y214750D01*
X233750Y218500D02*Y212500D01*
Y214750D02*X236000Y212500D01*
X233750Y214750D02*X235250Y216250D01*
X238550Y214750D02*Y212500D01*
Y214750D02*X239300Y215500D01*
X240050D01*
X240800Y214750D01*
Y212500D01*
X237800Y215500D02*X238550Y214750D01*
X242600D02*Y213250D01*
Y214750D02*X243350Y215500D01*
X244850D01*
X245600Y214750D01*
Y213250D01*
X244850Y212500D02*X245600Y213250D01*
X243350Y212500D02*X244850D01*
X242600Y213250D02*X243350Y212500D01*
X247400Y215500D02*Y213250D01*
X248150Y212500D01*
X248900D01*
X249650Y213250D01*
Y215500D02*Y213250D01*
X250400Y212500D01*
X251150D01*
X251900Y213250D01*
Y215500D02*Y213250D01*
X254450Y214750D02*Y212500D01*
Y214750D02*X255200Y215500D01*
X255950D01*
X256700Y214750D01*
Y212500D01*
X253700Y215500D02*X254450Y214750D01*
X258500Y218500D02*X259250Y217750D01*
Y213250D01*
X258500Y212500D02*X259250Y213250D01*
X263750Y215500D02*X266750D01*
X271250Y218500D02*Y212500D01*
Y218500D02*X274250D01*
X271250Y215800D02*X273500D01*
X278300Y215500D02*X279050Y214750D01*
X276800Y215500D02*X278300D01*
X276050Y214750D02*X276800Y215500D01*
X276050Y214750D02*Y213250D01*
X276800Y212500D01*
X279050Y215500D02*Y213250D01*
X279800Y212500D01*
X276800D02*X278300D01*
X279050Y213250D01*
X281600Y218500D02*Y212500D01*
Y213250D02*X282350Y212500D01*
X283850D01*
X284600Y213250D01*
Y214750D02*Y213250D01*
X283850Y215500D02*X284600Y214750D01*
X282350Y215500D02*X283850D01*
X281600Y214750D02*X282350Y215500D01*
X287150Y214750D02*Y212500D01*
Y214750D02*X287900Y215500D01*
X289400D01*
X286400D02*X287150Y214750D01*
G54D78*X291200Y217000D02*Y216850D01*
G54D77*Y214750D02*Y212500D01*
X293450Y215500D02*X295700D01*
X292700Y214750D02*X293450Y215500D01*
X292700Y214750D02*Y213250D01*
X293450Y212500D01*
X295700D01*
X299750Y215500D02*X300500Y214750D01*
X298250Y215500D02*X299750D01*
X297500Y214750D02*X298250Y215500D01*
X297500Y214750D02*Y213250D01*
X298250Y212500D01*
X300500Y215500D02*Y213250D01*
X301250Y212500D01*
X298250D02*X299750D01*
X300500Y213250D01*
X303800Y218500D02*Y213250D01*
X304550Y212500D01*
X303050Y216250D02*X304550D01*
G54D78*X306050Y217000D02*Y216850D01*
G54D77*Y214750D02*Y212500D01*
X307550Y214750D02*Y213250D01*
Y214750D02*X308300Y215500D01*
X309800D01*
X310550Y214750D01*
Y213250D01*
X309800Y212500D02*X310550Y213250D01*
X308300Y212500D02*X309800D01*
X307550Y213250D02*X308300Y212500D01*
X313100Y214750D02*Y212500D01*
Y214750D02*X313850Y215500D01*
X314600D01*
X315350Y214750D01*
Y212500D01*
X312350Y215500D02*X313100Y214750D01*
X320600Y218500D02*Y212500D01*
X322550Y218500D02*X323600Y217450D01*
Y213550D01*
X322550Y212500D02*X323600Y213550D01*
X319850Y212500D02*X322550D01*
X319850Y218500D02*X322550D01*
X326150Y214750D02*Y212500D01*
Y214750D02*X326900Y215500D01*
X328400D01*
X325400D02*X326150Y214750D01*
X332450Y215500D02*X333200Y214750D01*
X330950Y215500D02*X332450D01*
X330200Y214750D02*X330950Y215500D01*
X330200Y214750D02*Y213250D01*
X330950Y212500D01*
X333200Y215500D02*Y213250D01*
X333950Y212500D01*
X330950D02*X332450D01*
X333200Y213250D01*
X335750Y215500D02*Y213250D01*
X336500Y212500D01*
X337250D01*
X338000Y213250D01*
Y215500D02*Y213250D01*
X338750Y212500D01*
X339500D01*
X340250Y213250D01*
Y215500D02*Y213250D01*
G54D78*X342050Y217000D02*Y216850D01*
G54D77*Y214750D02*Y212500D01*
X344300Y214750D02*Y212500D01*
Y214750D02*X345050Y215500D01*
X345800D01*
X346550Y214750D01*
Y212500D01*
X343550Y215500D02*X344300Y214750D01*
X350600Y215500D02*X351350Y214750D01*
X349100Y215500D02*X350600D01*
X348350Y214750D02*X349100Y215500D01*
X348350Y214750D02*Y213250D01*
X349100Y212500D01*
X350600D01*
X351350Y213250D01*
X348350Y211000D02*X349100Y210250D01*
X350600D01*
X351350Y211000D01*
Y215500D02*Y211000D01*
M02*
