G04 start of page 3 for group 1 idx 1 *
G04 Title: (unknown), bottom *
G04 Creator: pcb 20140316 *
G04 CreationDate: Wed 08 Apr 2015 09:08:40 AM GMT UTC *
G04 For: fosse *
G04 Format: Gerber/RS-274X *
G04 PCB-Dimensions (mil): 2290.00 2790.00 *
G04 PCB-Coordinate-Origin: lower left *
%MOIN*%
%FSLAX25Y25*%
%LNBOTTOM*%
%ADD58C,0.0315*%
%ADD57C,0.0420*%
%ADD56C,0.0340*%
%ADD55C,0.0433*%
%ADD54C,0.1650*%
%ADD53C,0.1250*%
%ADD52C,0.0350*%
%ADD51C,0.1900*%
%ADD50C,0.1700*%
%ADD49C,0.1500*%
%ADD48C,0.0360*%
%ADD47R,0.0748X0.0748*%
%ADD46R,0.0827X0.0827*%
%ADD45R,0.0512X0.0512*%
%ADD44C,0.0600*%
%ADD43C,0.0750*%
%ADD42C,0.0591*%
%ADD41C,0.0060*%
%ADD40C,0.0200*%
%ADD39C,0.0250*%
%ADD38C,0.0400*%
%ADD37C,0.0001*%
G54D37*G36*
X104250Y169700D02*X106750Y167200D01*
X101750D01*
X104250Y169700D01*
G37*
G36*
X75750Y166700D02*X73250Y164200D01*
Y169200D01*
X75750Y166700D01*
G37*
G36*
X78750D02*X81250Y169200D01*
Y164200D01*
X78750Y166700D01*
G37*
G36*
X62750Y151200D02*X60250Y148700D01*
Y153700D01*
X62750Y151200D01*
G37*
G36*
X69250D02*X71750Y153700D01*
Y148700D01*
X69250Y151200D01*
G37*
G36*
X163845Y147200D02*X161845D01*
X158845Y150200D01*
X161345Y152700D01*
X163845D01*
Y147200D01*
G37*
G36*
X71250Y129700D02*X73750Y132200D01*
Y127200D01*
X71250Y129700D01*
G37*
G36*
X150050Y133750D02*X147550Y131250D01*
Y136250D01*
X150050Y133750D01*
G37*
G36*
X151950Y136750D02*X149450Y139250D01*
X154450D01*
X151950Y136750D01*
G37*
G36*
X153850Y133750D02*X156350Y136250D01*
Y131250D01*
X153850Y133750D01*
G37*
G36*
X143645Y190593D02*X146145Y193093D01*
X148045D01*
Y188093D01*
X146145D01*
X143645Y190593D01*
G37*
G36*
X147494Y193599D02*X147945Y194050D01*
Y189050D01*
X147594Y189400D01*
X147588Y193309D01*
X147551Y193462D01*
X147494Y193599D01*
G37*
G36*
X193845Y187200D02*X191845D01*
X188845Y190200D01*
X191345Y192700D01*
X193845D01*
Y187200D01*
G37*
G36*
X163845D02*X161845D01*
X158845Y190200D01*
X161345Y192700D01*
X163845D01*
Y187200D01*
G37*
G36*
X150625Y163146D02*X150847Y163054D01*
X151192Y162971D01*
X151192D01*
X151545Y162943D01*
X151633Y162950D01*
X155933D01*
X155599Y162558D01*
X155270Y162022D01*
X155029Y161440D01*
X154882Y160828D01*
X154833Y160200D01*
X154882Y159572D01*
X154912Y159449D01*
X153418Y157955D01*
X150625D01*
Y163146D01*
G37*
G36*
X210004Y267991D02*X210405D01*
X211211Y267923D01*
X211593Y267857D01*
X211750Y267700D01*
X212335D01*
X212791Y267581D01*
X213554Y267310D01*
X214290Y266976D01*
X214996Y266580D01*
X215666Y266126D01*
X216294Y265616D01*
X216331Y265587D01*
X216373Y265565D01*
X216392Y265558D01*
X217044Y264906D01*
X217057Y264869D01*
X217080Y264826D01*
X217109Y264788D01*
X217626Y264166D01*
X218080Y263496D01*
X218476Y262790D01*
X218810Y262054D01*
X219081Y261291D01*
X219285Y260508D01*
X219423Y259711D01*
X219491Y258905D01*
Y258095D01*
X219423Y257289D01*
X219285Y256492D01*
X219081Y255709D01*
X218810Y254946D01*
X218476Y254210D01*
X218080Y253504D01*
X217626Y252834D01*
X217116Y252206D01*
X217087Y252169D01*
X217065Y252127D01*
X217049Y252083D01*
X217041Y252036D01*
X217040Y251989D01*
X217047Y251942D01*
X217061Y251897D01*
X217081Y251855D01*
X217108Y251816D01*
X217141Y251782D01*
X217179Y251754D01*
X217221Y251731D01*
X217265Y251716D01*
X217312Y251708D01*
X217359Y251707D01*
X217406Y251714D01*
X217451Y251727D01*
X217493Y251748D01*
X217532Y251775D01*
X217565Y251809D01*
X218115Y252471D01*
X218598Y253184D01*
X219019Y253934D01*
X219375Y254719D01*
X219663Y255530D01*
X219750Y255863D01*
Y122537D01*
X219663Y122870D01*
X219375Y123681D01*
X219019Y124466D01*
X218598Y125216D01*
X218115Y125929D01*
X217572Y126597D01*
X217538Y126632D01*
X217498Y126659D01*
X217454Y126681D01*
X217408Y126695D01*
X217360Y126702D01*
X217311Y126701D01*
X217263Y126692D01*
X217217Y126677D01*
X217174Y126654D01*
X217136Y126625D01*
X217102Y126590D01*
X217074Y126550D01*
X217053Y126506D01*
X217038Y126460D01*
X217032Y126412D01*
X217033Y126363D01*
X217041Y126315D01*
X217057Y126269D01*
X217080Y126226D01*
X217109Y126188D01*
X217626Y125566D01*
X218080Y124896D01*
X218476Y124190D01*
X218810Y123454D01*
X219081Y122691D01*
X219285Y121908D01*
X219423Y121111D01*
X219491Y120305D01*
Y119495D01*
X219423Y118689D01*
X219285Y117892D01*
X219081Y117109D01*
X218810Y116346D01*
X218476Y115610D01*
X218080Y114904D01*
X217626Y114234D01*
X217116Y113606D01*
X217087Y113569D01*
X217065Y113527D01*
X217058Y113508D01*
X216406Y112856D01*
X216369Y112843D01*
X216326Y112820D01*
X216288Y112791D01*
X215666Y112274D01*
X214996Y111820D01*
X214290Y111424D01*
X213554Y111090D01*
X212791Y110819D01*
X212008Y110615D01*
X211211Y110477D01*
X210405Y110409D01*
X210004D01*
Y129391D01*
X210405D01*
X211211Y129323D01*
X212008Y129185D01*
X212791Y128981D01*
X213554Y128710D01*
X214290Y128376D01*
X214996Y127980D01*
X215666Y127526D01*
X216294Y127016D01*
X216331Y126987D01*
X216373Y126965D01*
X216417Y126949D01*
X216464Y126941D01*
X216511Y126940D01*
X216558Y126947D01*
X216603Y126961D01*
X216645Y126981D01*
X216684Y127008D01*
X216718Y127041D01*
X216746Y127079D01*
X216769Y127121D01*
X216784Y127165D01*
X216792Y127212D01*
X216793Y127259D01*
X216786Y127306D01*
X216773Y127351D01*
X216752Y127393D01*
X216725Y127432D01*
X216691Y127465D01*
X216029Y128015D01*
X215316Y128498D01*
X214566Y128919D01*
X213781Y129275D01*
X212970Y129563D01*
X212137Y129781D01*
X211288Y129927D01*
X210431Y130000D01*
X210004D01*
Y248400D01*
X210431D01*
X211288Y248473D01*
X212137Y248619D01*
X212970Y248837D01*
X213781Y249125D01*
X214566Y249481D01*
X215316Y249902D01*
X216029Y250385D01*
X216697Y250928D01*
X216732Y250962D01*
X216759Y251002D01*
X216781Y251046D01*
X216795Y251092D01*
X216802Y251140D01*
X216801Y251189D01*
X216792Y251237D01*
X216777Y251283D01*
X216754Y251326D01*
X216725Y251364D01*
X216690Y251398D01*
X216650Y251426D01*
X216606Y251447D01*
X216560Y251462D01*
X216512Y251468D01*
X216463Y251467D01*
X216415Y251459D01*
X216369Y251443D01*
X216326Y251420D01*
X216288Y251391D01*
X215666Y250874D01*
X214996Y250420D01*
X214290Y250024D01*
X213554Y249690D01*
X212791Y249419D01*
X212008Y249215D01*
X211211Y249077D01*
X210405Y249009D01*
X210004D01*
Y267991D01*
G37*
G36*
X201434Y268200D02*X207171D01*
X207030Y268163D01*
X206219Y267875D01*
X205434Y267519D01*
X204684Y267098D01*
X203971Y266615D01*
X203303Y266072D01*
X203268Y266038D01*
X203241Y265998D01*
X203219Y265954D01*
X203205Y265908D01*
X203198Y265860D01*
X203199Y265811D01*
X203208Y265763D01*
X203223Y265717D01*
X203246Y265674D01*
X203275Y265636D01*
X203310Y265602D01*
X203350Y265574D01*
X203394Y265553D01*
X203440Y265538D01*
X203488Y265532D01*
X203537Y265533D01*
X203585Y265541D01*
X203631Y265557D01*
X203674Y265580D01*
X203712Y265609D01*
X204334Y266126D01*
X205004Y266580D01*
X205710Y266976D01*
X206446Y267310D01*
X207209Y267581D01*
X207992Y267785D01*
X208789Y267923D01*
X209595Y267991D01*
X210004D01*
Y249009D01*
X209595D01*
X208789Y249077D01*
X207992Y249215D01*
X207209Y249419D01*
X206446Y249690D01*
X205710Y250024D01*
X205004Y250420D01*
X204334Y250874D01*
X203706Y251384D01*
X203669Y251413D01*
X203627Y251435D01*
X203583Y251451D01*
X203536Y251459D01*
X203489Y251460D01*
X203442Y251453D01*
X203397Y251439D01*
X203355Y251419D01*
X203316Y251392D01*
X203282Y251359D01*
X203254Y251321D01*
X203231Y251279D01*
X203216Y251235D01*
X203208Y251188D01*
X203207Y251141D01*
X203214Y251094D01*
X203227Y251049D01*
X203248Y251007D01*
X203275Y250968D01*
X203309Y250935D01*
X203971Y250385D01*
X204684Y249902D01*
X205434Y249481D01*
X206219Y249125D01*
X207030Y248837D01*
X207863Y248619D01*
X208712Y248473D01*
X209569Y248400D01*
X210004D01*
Y130000D01*
X209569D01*
X208712Y129927D01*
X207863Y129781D01*
X207030Y129563D01*
X206219Y129275D01*
X205434Y128919D01*
X204684Y128498D01*
X203971Y128015D01*
X203303Y127472D01*
X203268Y127438D01*
X203241Y127398D01*
X203219Y127354D01*
X203205Y127308D01*
X203198Y127260D01*
X203199Y127211D01*
X203208Y127163D01*
X203223Y127117D01*
X203246Y127074D01*
X203275Y127036D01*
X203310Y127002D01*
X203350Y126974D01*
X203394Y126953D01*
X203440Y126938D01*
X203488Y126932D01*
X203537Y126933D01*
X203585Y126941D01*
X203631Y126957D01*
X203674Y126980D01*
X203712Y127009D01*
X204334Y127526D01*
X205004Y127980D01*
X205710Y128376D01*
X206446Y128710D01*
X207209Y128981D01*
X207992Y129185D01*
X208789Y129323D01*
X209595Y129391D01*
X210004D01*
Y110409D01*
X209595D01*
X208789Y110477D01*
X207992Y110615D01*
X207209Y110819D01*
X206446Y111090D01*
X205710Y111424D01*
X205004Y111820D01*
X204334Y112274D01*
X203706Y112784D01*
X203669Y112813D01*
X203627Y112835D01*
X203583Y112851D01*
X203536Y112859D01*
X203489Y112860D01*
X203442Y112853D01*
X203397Y112839D01*
X203355Y112819D01*
X203316Y112792D01*
X203282Y112759D01*
X203254Y112721D01*
X203231Y112679D01*
X203216Y112635D01*
X203208Y112588D01*
X203207Y112541D01*
X203214Y112494D01*
X203227Y112449D01*
X203248Y112407D01*
X203275Y112368D01*
X203309Y112335D01*
X203971Y111785D01*
X204684Y111302D01*
X205434Y110881D01*
X206219Y110525D01*
X207030Y110237D01*
X207171Y110200D01*
X201434D01*
Y114536D01*
X201885Y113871D01*
X202428Y113203D01*
X202462Y113168D01*
X202502Y113141D01*
X202546Y113119D01*
X202592Y113105D01*
X202640Y113098D01*
X202689Y113099D01*
X202737Y113108D01*
X202783Y113123D01*
X202826Y113146D01*
X202864Y113175D01*
X202898Y113210D01*
X202926Y113250D01*
X202947Y113294D01*
X202962Y113340D01*
X202968Y113388D01*
X202967Y113437D01*
X202959Y113485D01*
X202943Y113531D01*
X202920Y113574D01*
X202891Y113612D01*
X202374Y114234D01*
X201920Y114904D01*
X201524Y115610D01*
X201434Y115808D01*
Y123992D01*
X201524Y124190D01*
X201920Y124896D01*
X202374Y125566D01*
X202884Y126194D01*
X202913Y126231D01*
X202935Y126273D01*
X202951Y126317D01*
X202959Y126364D01*
X202960Y126411D01*
X202953Y126458D01*
X202939Y126503D01*
X202919Y126545D01*
X202892Y126584D01*
X202859Y126618D01*
X202821Y126646D01*
X202779Y126669D01*
X202735Y126684D01*
X202688Y126692D01*
X202641Y126693D01*
X202594Y126686D01*
X202549Y126673D01*
X202507Y126652D01*
X202468Y126625D01*
X202435Y126591D01*
X201885Y125929D01*
X201434Y125264D01*
Y253136D01*
X201885Y252471D01*
X202428Y251803D01*
X202462Y251768D01*
X202502Y251741D01*
X202546Y251719D01*
X202592Y251705D01*
X202640Y251698D01*
X202689Y251699D01*
X202737Y251708D01*
X202783Y251723D01*
X202826Y251746D01*
X202864Y251775D01*
X202898Y251810D01*
X202926Y251850D01*
X202947Y251894D01*
X202962Y251940D01*
X202968Y251988D01*
X202967Y252037D01*
X202959Y252085D01*
X202943Y252131D01*
X202920Y252174D01*
X202891Y252212D01*
X202374Y252834D01*
X201920Y253504D01*
X201524Y254210D01*
X201434Y254408D01*
Y262592D01*
X201524Y262790D01*
X201920Y263496D01*
X202374Y264166D01*
X202884Y264794D01*
X202913Y264831D01*
X202935Y264873D01*
X202951Y264917D01*
X202959Y264964D01*
X202960Y265011D01*
X202953Y265058D01*
X202939Y265103D01*
X202919Y265145D01*
X202892Y265184D01*
X202859Y265218D01*
X202821Y265246D01*
X202779Y265269D01*
X202735Y265284D01*
X202688Y265292D01*
X202641Y265293D01*
X202594Y265286D01*
X202549Y265273D01*
X202507Y265252D01*
X202468Y265225D01*
X202435Y265191D01*
X201885Y264529D01*
X201434Y263864D01*
Y268200D01*
G37*
G36*
Y115808D02*X201190Y116346D01*
X200919Y117109D01*
X200715Y117892D01*
X200577Y118689D01*
X200509Y119495D01*
Y120305D01*
X200577Y121111D01*
X200715Y121908D01*
X200919Y122691D01*
X201190Y123454D01*
X201434Y123992D01*
Y115808D01*
G37*
G36*
Y254408D02*X201190Y254946D01*
X200919Y255709D01*
X200715Y256492D01*
X200577Y257289D01*
X200509Y258095D01*
Y258905D01*
X200577Y259711D01*
X200715Y260508D01*
X200919Y261291D01*
X201190Y262054D01*
X201434Y262592D01*
Y254408D01*
G37*
G36*
X192466Y128753D02*X192709Y128183D01*
X192944Y127459D01*
X193114Y126716D01*
X193216Y125961D01*
X193250Y125200D01*
X193216Y124439D01*
X193114Y123684D01*
X192944Y122941D01*
X192709Y122217D01*
X192466Y121647D01*
Y128753D01*
G37*
G36*
Y256753D02*X192709Y256183D01*
X192944Y255459D01*
X193114Y254716D01*
X193216Y253961D01*
X193250Y253200D01*
X193216Y252439D01*
X193114Y251684D01*
X192944Y250941D01*
X192709Y250217D01*
X192466Y249647D01*
Y256753D01*
G37*
G36*
Y268200D02*X201434D01*
Y263864D01*
X201402Y263816D01*
X200981Y263066D01*
X200625Y262281D01*
X200337Y261470D01*
X200119Y260637D01*
X199973Y259788D01*
X199900Y258931D01*
Y258069D01*
X199973Y257212D01*
X200119Y256363D01*
X200337Y255530D01*
X200625Y254719D01*
X200981Y253934D01*
X201402Y253184D01*
X201434Y253136D01*
Y125264D01*
X201402Y125216D01*
X200981Y124466D01*
X200625Y123681D01*
X200337Y122870D01*
X200119Y122037D01*
X199973Y121188D01*
X199900Y120331D01*
Y119469D01*
X199973Y118612D01*
X200119Y117763D01*
X200337Y116930D01*
X200625Y116119D01*
X200981Y115334D01*
X201402Y114584D01*
X201434Y114536D01*
Y110200D01*
X192466D01*
Y120371D01*
X192573Y120533D01*
X192959Y121252D01*
X193280Y122003D01*
X193532Y122779D01*
X193713Y123575D01*
X193823Y124384D01*
X193859Y125200D01*
X193823Y126016D01*
X193713Y126825D01*
X193532Y127621D01*
X193280Y128397D01*
X192959Y129148D01*
X192573Y129867D01*
X192466Y130029D01*
Y148490D01*
X192661Y148960D01*
X192808Y149572D01*
X192845Y150200D01*
X192808Y150828D01*
X192661Y151440D01*
X192466Y151910D01*
Y158490D01*
X192661Y158960D01*
X192808Y159572D01*
X192845Y160200D01*
X192808Y160828D01*
X192661Y161440D01*
X192466Y161910D01*
Y168490D01*
X192661Y168960D01*
X192808Y169572D01*
X192845Y170200D01*
X192808Y170828D01*
X192661Y171440D01*
X192466Y171910D01*
Y178490D01*
X192661Y178960D01*
X192808Y179572D01*
X192845Y180200D01*
X192808Y180828D01*
X192661Y181440D01*
X192466Y181910D01*
Y188490D01*
X192661Y188960D01*
X192808Y189572D01*
X192845Y190200D01*
X192808Y190828D01*
X192661Y191440D01*
X192466Y191910D01*
Y196741D01*
X192902Y197252D01*
X193314Y197923D01*
X193615Y198650D01*
X193799Y199415D01*
X193860Y200200D01*
X193799Y200985D01*
X193615Y201750D01*
X193314Y202477D01*
X192902Y203148D01*
X192466Y203659D01*
Y206741D01*
X192902Y207252D01*
X193314Y207923D01*
X193615Y208650D01*
X193799Y209415D01*
X193860Y210200D01*
X193799Y210985D01*
X193615Y211750D01*
X193314Y212477D01*
X192902Y213148D01*
X192466Y213659D01*
Y248371D01*
X192573Y248533D01*
X192959Y249252D01*
X193280Y250003D01*
X193532Y250779D01*
X193713Y251575D01*
X193823Y252384D01*
X193859Y253200D01*
X193823Y254016D01*
X193713Y254825D01*
X193532Y255621D01*
X193280Y256397D01*
X192959Y257148D01*
X192573Y257867D01*
X192466Y258029D01*
Y268200D01*
G37*
G36*
Y203659D02*X192391Y203746D01*
X191793Y204258D01*
X191122Y204669D01*
X190395Y204970D01*
X189629Y205154D01*
X188931Y205195D01*
X189450Y205236D01*
X189629Y205246D01*
X190395Y205430D01*
X191122Y205731D01*
X191793Y206142D01*
X192391Y206654D01*
X192466Y206741D01*
Y203659D01*
G37*
G36*
Y191910D02*X192420Y192022D01*
X192091Y192558D01*
X191682Y193037D01*
X191203Y193446D01*
X190666Y193775D01*
X190085Y194016D01*
X189473Y194163D01*
X188845Y194212D01*
X188839Y194212D01*
Y195200D01*
X188845D01*
X189629Y195246D01*
X190395Y195430D01*
X191122Y195731D01*
X191793Y196142D01*
X192391Y196654D01*
X192466Y196741D01*
Y191910D01*
G37*
G36*
Y181910D02*X192420Y182022D01*
X192091Y182558D01*
X191682Y183037D01*
X191203Y183446D01*
X190666Y183775D01*
X190085Y184016D01*
X189473Y184163D01*
X188845Y184212D01*
X188839Y184212D01*
Y186188D01*
X188845Y186188D01*
X189473Y186237D01*
X190085Y186384D01*
X190666Y186625D01*
X191203Y186954D01*
X191682Y187363D01*
X192091Y187842D01*
X192420Y188378D01*
X192466Y188490D01*
Y181910D01*
G37*
G36*
Y171910D02*X192420Y172022D01*
X192091Y172558D01*
X191682Y173037D01*
X191203Y173446D01*
X191095Y173512D01*
Y176888D01*
X191203Y176954D01*
X191682Y177363D01*
X192091Y177842D01*
X192420Y178378D01*
X192466Y178490D01*
Y171910D01*
G37*
G36*
Y161910D02*X192420Y162022D01*
X192091Y162558D01*
X191682Y163037D01*
X191203Y163446D01*
X190666Y163775D01*
X190085Y164016D01*
X189473Y164163D01*
X188845Y164212D01*
X188839Y164212D01*
Y166188D01*
X188845Y166188D01*
X189473Y166237D01*
X190085Y166384D01*
X190666Y166625D01*
X191203Y166954D01*
X191682Y167363D01*
X192091Y167842D01*
X192420Y168378D01*
X192466Y168490D01*
Y161910D01*
G37*
G36*
Y151910D02*X192420Y152022D01*
X192091Y152558D01*
X191682Y153037D01*
X191203Y153446D01*
X190666Y153775D01*
X190085Y154016D01*
X189473Y154163D01*
X188845Y154212D01*
X188839Y154212D01*
Y156188D01*
X188845Y156188D01*
X189473Y156237D01*
X190085Y156384D01*
X190666Y156625D01*
X191203Y156954D01*
X191682Y157363D01*
X192091Y157842D01*
X192420Y158378D01*
X192466Y158490D01*
Y151910D01*
G37*
G36*
Y110200D02*X188839D01*
Y117066D01*
X189417Y117377D01*
X190099Y117827D01*
X190737Y118335D01*
X190772Y118369D01*
X190800Y118409D01*
X190821Y118453D01*
X190836Y118499D01*
X190843Y118547D01*
X190842Y118595D01*
X190834Y118643D01*
X190819Y118689D01*
X190796Y118732D01*
X190767Y118771D01*
X190733Y118805D01*
X190693Y118834D01*
X190650Y118855D01*
X190603Y118870D01*
X190555Y118877D01*
X190507Y118876D01*
X190459Y118868D01*
X190413Y118853D01*
X190370Y118830D01*
X190331Y118801D01*
X189741Y118320D01*
X189105Y117900D01*
X188839Y117757D01*
Y132643D01*
X189105Y132500D01*
X189741Y132080D01*
X190337Y131606D01*
X190374Y131577D01*
X190416Y131555D01*
X190461Y131540D01*
X190507Y131532D01*
X190555Y131532D01*
X190601Y131539D01*
X190646Y131553D01*
X190689Y131574D01*
X190727Y131601D01*
X190761Y131634D01*
X190789Y131672D01*
X190811Y131714D01*
X190826Y131759D01*
X190834Y131805D01*
X190834Y131853D01*
X190827Y131899D01*
X190813Y131944D01*
X190792Y131987D01*
X190765Y132025D01*
X190731Y132058D01*
X190099Y132573D01*
X189417Y133023D01*
X188839Y133334D01*
Y146188D01*
X188845Y146188D01*
X189473Y146237D01*
X190085Y146384D01*
X190666Y146625D01*
X191203Y146954D01*
X191682Y147363D01*
X192091Y147842D01*
X192420Y148378D01*
X192466Y148490D01*
Y130029D01*
X192123Y130549D01*
X191615Y131187D01*
X191581Y131222D01*
X191541Y131250D01*
X191497Y131271D01*
X191451Y131286D01*
X191403Y131293D01*
X191355Y131292D01*
X191307Y131284D01*
X191261Y131269D01*
X191218Y131246D01*
X191179Y131217D01*
X191145Y131183D01*
X191116Y131143D01*
X191095Y131100D01*
X191080Y131053D01*
X191073Y131005D01*
X191074Y130957D01*
X191082Y130909D01*
X191097Y130863D01*
X191120Y130820D01*
X191149Y130781D01*
X191630Y130191D01*
X192050Y129555D01*
X192410Y128884D01*
X192466Y128753D01*
Y121647D01*
X192410Y121516D01*
X192050Y120845D01*
X191630Y120209D01*
X191156Y119613D01*
X191127Y119576D01*
X191105Y119534D01*
X191090Y119489D01*
X191082Y119443D01*
X191082Y119395D01*
X191089Y119349D01*
X191103Y119304D01*
X191124Y119261D01*
X191151Y119223D01*
X191184Y119189D01*
X191222Y119161D01*
X191264Y119139D01*
X191309Y119124D01*
X191355Y119116D01*
X191403Y119116D01*
X191449Y119123D01*
X191494Y119137D01*
X191537Y119158D01*
X191575Y119185D01*
X191608Y119219D01*
X192123Y119851D01*
X192466Y120371D01*
Y110200D01*
G37*
G36*
X188839Y268200D02*X192466D01*
Y258029D01*
X192123Y258549D01*
X191615Y259187D01*
X191581Y259222D01*
X191541Y259250D01*
X191497Y259271D01*
X191451Y259286D01*
X191403Y259293D01*
X191355Y259292D01*
X191307Y259284D01*
X191261Y259269D01*
X191218Y259246D01*
X191179Y259217D01*
X191145Y259183D01*
X191116Y259143D01*
X191095Y259100D01*
X191080Y259053D01*
X191073Y259005D01*
X191074Y258957D01*
X191082Y258909D01*
X191097Y258863D01*
X191120Y258820D01*
X191149Y258781D01*
X191630Y258191D01*
X192050Y257555D01*
X192410Y256884D01*
X192466Y256753D01*
Y249647D01*
X192410Y249516D01*
X192050Y248845D01*
X191630Y248209D01*
X191156Y247613D01*
X191127Y247576D01*
X191105Y247534D01*
X191090Y247489D01*
X191082Y247443D01*
X191082Y247395D01*
X191089Y247349D01*
X191103Y247304D01*
X191124Y247261D01*
X191151Y247223D01*
X191184Y247189D01*
X191222Y247161D01*
X191264Y247139D01*
X191309Y247124D01*
X191355Y247116D01*
X191403Y247116D01*
X191449Y247123D01*
X191494Y247137D01*
X191537Y247158D01*
X191575Y247185D01*
X191608Y247219D01*
X192123Y247851D01*
X192466Y248371D01*
Y213659D01*
X192391Y213746D01*
X191934Y214137D01*
X188839Y217232D01*
Y245066D01*
X189417Y245377D01*
X190099Y245827D01*
X190737Y246335D01*
X190772Y246369D01*
X190800Y246409D01*
X190821Y246453D01*
X190836Y246499D01*
X190843Y246547D01*
X190842Y246595D01*
X190834Y246643D01*
X190819Y246689D01*
X190796Y246732D01*
X190767Y246771D01*
X190733Y246805D01*
X190693Y246834D01*
X190650Y246855D01*
X190603Y246870D01*
X190555Y246877D01*
X190507Y246876D01*
X190459Y246868D01*
X190413Y246853D01*
X190370Y246830D01*
X190331Y246801D01*
X189741Y246320D01*
X189105Y245900D01*
X188839Y245757D01*
Y260643D01*
X189105Y260500D01*
X189741Y260080D01*
X190337Y259606D01*
X190374Y259577D01*
X190416Y259555D01*
X190461Y259540D01*
X190507Y259532D01*
X190555Y259532D01*
X190601Y259539D01*
X190646Y259553D01*
X190689Y259574D01*
X190727Y259601D01*
X190761Y259634D01*
X190789Y259672D01*
X190811Y259714D01*
X190826Y259759D01*
X190834Y259805D01*
X190834Y259853D01*
X190827Y259899D01*
X190813Y259944D01*
X190792Y259987D01*
X190765Y260025D01*
X190731Y260058D01*
X190099Y260573D01*
X189417Y261023D01*
X188839Y261334D01*
Y268200D01*
G37*
G36*
Y164212D02*X188217Y164163D01*
X188013Y164114D01*
X185398Y166729D01*
X185341Y166796D01*
X185071Y167026D01*
X184770Y167211D01*
X184442Y167346D01*
X184098Y167429D01*
X184098Y167429D01*
X183745Y167457D01*
X183657Y167450D01*
X161756D01*
X162091Y167842D01*
X162420Y168378D01*
X162661Y168960D01*
X162808Y169572D01*
X162845Y170200D01*
X162808Y170828D01*
X162661Y171440D01*
X162420Y172022D01*
X162091Y172558D01*
X161682Y173037D01*
X161203Y173446D01*
X160666Y173775D01*
X160085Y174016D01*
X159473Y174163D01*
X158845Y174212D01*
X158839Y174212D01*
Y176188D01*
X158845Y176188D01*
X159473Y176237D01*
X160085Y176384D01*
X160666Y176625D01*
X161203Y176954D01*
X161682Y177363D01*
X162091Y177842D01*
X162420Y178378D01*
X162661Y178960D01*
X162808Y179572D01*
X162845Y180200D01*
X162808Y180828D01*
X162661Y181440D01*
X162420Y182022D01*
X162091Y182558D01*
X161682Y183037D01*
X161203Y183446D01*
X160666Y183775D01*
X160085Y184016D01*
X159473Y184163D01*
X158845Y184212D01*
X158839Y184212D01*
Y186188D01*
X158845Y186188D01*
X159473Y186237D01*
X160085Y186384D01*
X160666Y186625D01*
X161203Y186954D01*
X161682Y187363D01*
X162091Y187842D01*
X162420Y188378D01*
X162661Y188960D01*
X162808Y189572D01*
X162845Y190200D01*
X162808Y190828D01*
X162661Y191440D01*
X162420Y192022D01*
X162091Y192558D01*
X161682Y193037D01*
X161203Y193446D01*
X160666Y193775D01*
X160085Y194016D01*
X159473Y194163D01*
X158845Y194212D01*
X158839Y194212D01*
Y195229D01*
X159129Y195246D01*
X159895Y195430D01*
X160622Y195731D01*
X161293Y196142D01*
X161891Y196654D01*
X162402Y197252D01*
X162814Y197923D01*
X163115Y198650D01*
X163299Y199415D01*
X163360Y200200D01*
X163299Y200985D01*
X163115Y201750D01*
X162814Y202477D01*
X162402Y203148D01*
X161891Y203746D01*
X161293Y204258D01*
X160622Y204669D01*
X159895Y204970D01*
X159129Y205154D01*
X158839Y205171D01*
Y205188D01*
X159450Y205236D01*
X159629Y205246D01*
X160395Y205430D01*
X161122Y205731D01*
X161793Y206142D01*
X162391Y206654D01*
X162902Y207252D01*
X163314Y207923D01*
X163615Y208650D01*
X163799Y209415D01*
X163860Y210200D01*
X163799Y210985D01*
X163615Y211750D01*
X163314Y212477D01*
X163095Y212834D01*
X179126Y196803D01*
X179254Y196654D01*
X179852Y196142D01*
X180107Y195986D01*
X180523Y195731D01*
X181037Y195518D01*
X181250Y195430D01*
X182015Y195246D01*
X182015D01*
X182800Y195185D01*
X182996Y195200D01*
X188839D01*
Y194212D01*
X188217Y194163D01*
X187605Y194016D01*
X187023Y193775D01*
X186486Y193446D01*
X186008Y193037D01*
X185599Y192558D01*
X185270Y192022D01*
X185029Y191440D01*
X184882Y190828D01*
X184833Y190200D01*
X184882Y189572D01*
X185029Y188960D01*
X185270Y188378D01*
X185599Y187842D01*
X186008Y187363D01*
X186486Y186954D01*
X187023Y186625D01*
X187605Y186384D01*
X188217Y186237D01*
X188839Y186188D01*
Y184212D01*
X188217Y184163D01*
X187605Y184016D01*
X187023Y183775D01*
X186486Y183446D01*
X186008Y183037D01*
X185599Y182558D01*
X185270Y182022D01*
X185029Y181440D01*
X184882Y180828D01*
X184833Y180200D01*
X184882Y179572D01*
X185029Y178960D01*
X185270Y178378D01*
X185599Y177842D01*
X186008Y177363D01*
X186486Y176954D01*
X186595Y176888D01*
Y173512D01*
X186486Y173446D01*
X186008Y173037D01*
X185599Y172558D01*
X185270Y172022D01*
X185029Y171440D01*
X184882Y170828D01*
X184833Y170200D01*
X184882Y169572D01*
X185029Y168960D01*
X185270Y168378D01*
X185599Y167842D01*
X186008Y167363D01*
X186486Y166954D01*
X187023Y166625D01*
X187605Y166384D01*
X188217Y166237D01*
X188839Y166188D01*
Y164212D01*
G37*
G36*
X158839Y205171D02*X158345Y205200D01*
X157871D01*
X157764Y205307D01*
X158015Y205246D01*
X158015D01*
X158800Y205185D01*
X158839Y205188D01*
Y205171D01*
G37*
G36*
Y184212D02*X158217Y184163D01*
X158053Y184124D01*
X157098Y185079D01*
X157041Y185146D01*
X156772Y185376D01*
X156771Y185376D01*
X156657Y185446D01*
X156470Y185561D01*
X156238Y185657D01*
X156142Y185696D01*
X155798Y185779D01*
X155445Y185807D01*
X155357Y185800D01*
X150625D01*
Y198304D01*
X152126Y196803D01*
X152254Y196654D01*
X152852Y196142D01*
X153107Y195986D01*
X153523Y195731D01*
X154037Y195518D01*
X154250Y195430D01*
X155015Y195246D01*
X155015D01*
X155800Y195185D01*
X155996Y195200D01*
X158345D01*
X158839Y195229D01*
Y194212D01*
X158217Y194163D01*
X157605Y194016D01*
X157023Y193775D01*
X156486Y193446D01*
X156008Y193037D01*
X155599Y192558D01*
X155270Y192022D01*
X155029Y191440D01*
X154882Y190828D01*
X154833Y190200D01*
X154882Y189572D01*
X155029Y188960D01*
X155270Y188378D01*
X155599Y187842D01*
X156008Y187363D01*
X156486Y186954D01*
X157023Y186625D01*
X157605Y186384D01*
X158217Y186237D01*
X158839Y186188D01*
Y184212D01*
G37*
G36*
Y174212D02*X158217Y174163D01*
X157605Y174016D01*
X157023Y173775D01*
X156486Y173446D01*
X156008Y173037D01*
X155599Y172558D01*
X155270Y172022D01*
X155029Y171440D01*
X154882Y170828D01*
X154833Y170200D01*
X154882Y169572D01*
X155029Y168960D01*
X155270Y168378D01*
X155599Y167842D01*
X155933Y167450D01*
X152477D01*
X151798Y168129D01*
X151741Y168196D01*
X151471Y168426D01*
X151170Y168611D01*
X150842Y168746D01*
X150625Y168799D01*
Y181300D01*
X154513D01*
X154902Y180911D01*
X154882Y180828D01*
X154833Y180200D01*
X154882Y179572D01*
X155029Y178960D01*
X155270Y178378D01*
X155599Y177842D01*
X156008Y177363D01*
X156486Y176954D01*
X157023Y176625D01*
X157605Y176384D01*
X158217Y176237D01*
X158839Y176188D01*
Y174212D01*
G37*
G36*
X188839Y154212D02*X188217Y154163D01*
X187605Y154016D01*
X187023Y153775D01*
X186486Y153446D01*
X186198Y153200D01*
X180368D01*
X180250Y153209D01*
X179779Y153172D01*
X179320Y153062D01*
X178884Y152881D01*
X178481Y152635D01*
X178481Y152634D01*
X178122Y152328D01*
X178046Y152238D01*
X164244Y138436D01*
X161034Y138431D01*
X160881Y138394D01*
X160735Y138334D01*
X160601Y138252D01*
X160482Y138149D01*
X160379Y138030D01*
X160297Y137895D01*
X160237Y137750D01*
X160200Y137597D01*
X160191Y137440D01*
X160200Y129803D01*
X160237Y129650D01*
X160297Y129505D01*
X160379Y129370D01*
X160482Y129251D01*
X160601Y129148D01*
X160735Y129066D01*
X160750Y129060D01*
Y122943D01*
X158007Y120200D01*
X150625D01*
Y128962D01*
X154656Y128969D01*
X154809Y129006D01*
X154954Y129066D01*
X155088Y129148D01*
X155208Y129251D01*
X155310Y129370D01*
X155393Y129505D01*
X155453Y129650D01*
X155490Y129803D01*
X155499Y129960D01*
X155490Y137597D01*
X155453Y137750D01*
X155393Y137895D01*
X155310Y138030D01*
X155208Y138149D01*
X155088Y138252D01*
X154954Y138334D01*
X154809Y138394D01*
X154656Y138431D01*
X154499Y138440D01*
X150625Y138433D01*
Y141645D01*
X152452D01*
X152540Y141638D01*
X152892Y141666D01*
X152893Y141666D01*
X153237Y141748D01*
X153565Y141884D01*
X153867Y142069D01*
X154136Y142299D01*
X154193Y142366D01*
X158094Y146267D01*
X158217Y146237D01*
X158845Y146188D01*
X159473Y146237D01*
X160085Y146384D01*
X160666Y146625D01*
X161203Y146954D01*
X161682Y147363D01*
X162091Y147842D01*
X162420Y148378D01*
X162661Y148960D01*
X162808Y149572D01*
X162845Y150200D01*
X162808Y150828D01*
X162661Y151440D01*
X162420Y152022D01*
X162091Y152558D01*
X161682Y153037D01*
X161203Y153446D01*
X160666Y153775D01*
X160085Y154016D01*
X159473Y154163D01*
X158845Y154212D01*
X158217Y154163D01*
X157605Y154016D01*
X157023Y153775D01*
X156486Y153446D01*
X156008Y153037D01*
X155599Y152558D01*
X155270Y152022D01*
X155029Y151440D01*
X154882Y150828D01*
X154833Y150200D01*
X154882Y149572D01*
X154912Y149449D01*
X151608Y146145D01*
X150625D01*
Y153455D01*
X154262D01*
X154350Y153448D01*
X154703Y153476D01*
X154703Y153476D01*
X155047Y153559D01*
X155375Y153694D01*
X155677Y153879D01*
X155946Y154109D01*
X156003Y154177D01*
X158094Y156267D01*
X158217Y156237D01*
X158845Y156188D01*
X159473Y156237D01*
X160085Y156384D01*
X160666Y156625D01*
X161203Y156954D01*
X161682Y157363D01*
X162091Y157842D01*
X162420Y158378D01*
X162661Y158960D01*
X162808Y159572D01*
X162845Y160200D01*
X162808Y160828D01*
X162661Y161440D01*
X162420Y162022D01*
X162091Y162558D01*
X161756Y162950D01*
X182813D01*
X184892Y160871D01*
X184882Y160828D01*
X184833Y160200D01*
X184882Y159572D01*
X185029Y158960D01*
X185270Y158378D01*
X185599Y157842D01*
X186008Y157363D01*
X186486Y156954D01*
X187023Y156625D01*
X187605Y156384D01*
X188217Y156237D01*
X188839Y156188D01*
Y154212D01*
G37*
G36*
Y110200D02*X177034D01*
Y120371D01*
X177377Y119851D01*
X177885Y119213D01*
X177919Y119178D01*
X177959Y119150D01*
X178003Y119129D01*
X178049Y119114D01*
X178097Y119107D01*
X178145Y119108D01*
X178193Y119116D01*
X178239Y119131D01*
X178282Y119154D01*
X178321Y119183D01*
X178355Y119217D01*
X178384Y119257D01*
X178405Y119300D01*
X178420Y119347D01*
X178427Y119395D01*
X178426Y119443D01*
X178418Y119491D01*
X178403Y119537D01*
X178380Y119580D01*
X178351Y119619D01*
X177870Y120209D01*
X177450Y120845D01*
X177090Y121516D01*
X177034Y121647D01*
Y128753D01*
X177090Y128884D01*
X177450Y129555D01*
X177870Y130191D01*
X178344Y130787D01*
X178373Y130824D01*
X178395Y130866D01*
X178410Y130911D01*
X178418Y130957D01*
X178418Y131005D01*
X178411Y131051D01*
X178397Y131096D01*
X178376Y131139D01*
X178349Y131177D01*
X178316Y131211D01*
X178278Y131239D01*
X178236Y131261D01*
X178191Y131276D01*
X178145Y131284D01*
X178097Y131284D01*
X178051Y131277D01*
X178006Y131263D01*
X177963Y131242D01*
X177925Y131215D01*
X177892Y131181D01*
X177377Y130549D01*
X177034Y130029D01*
Y142741D01*
X181493Y147200D01*
X186198D01*
X186486Y146954D01*
X187023Y146625D01*
X187605Y146384D01*
X188217Y146237D01*
X188839Y146188D01*
Y133334D01*
X188698Y133409D01*
X187947Y133730D01*
X187171Y133982D01*
X186375Y134163D01*
X185566Y134273D01*
X184750Y134309D01*
X183934Y134273D01*
X183125Y134163D01*
X182329Y133982D01*
X181553Y133730D01*
X180802Y133409D01*
X180083Y133023D01*
X179401Y132573D01*
X178763Y132065D01*
X178728Y132031D01*
X178700Y131991D01*
X178679Y131947D01*
X178664Y131901D01*
X178657Y131853D01*
X178658Y131805D01*
X178666Y131757D01*
X178681Y131711D01*
X178704Y131668D01*
X178733Y131629D01*
X178767Y131595D01*
X178807Y131566D01*
X178850Y131545D01*
X178897Y131530D01*
X178945Y131523D01*
X178993Y131524D01*
X179041Y131532D01*
X179087Y131547D01*
X179130Y131570D01*
X179169Y131599D01*
X179759Y132080D01*
X180395Y132500D01*
X181066Y132860D01*
X181767Y133159D01*
X182491Y133394D01*
X183234Y133564D01*
X183989Y133666D01*
X184750Y133700D01*
X185511Y133666D01*
X186266Y133564D01*
X187009Y133394D01*
X187733Y133159D01*
X188434Y132860D01*
X188839Y132643D01*
Y117757D01*
X188434Y117540D01*
X187733Y117241D01*
X187009Y117006D01*
X186266Y116836D01*
X185511Y116734D01*
X184750Y116700D01*
X183989Y116734D01*
X183234Y116836D01*
X182491Y117006D01*
X181767Y117241D01*
X181066Y117540D01*
X180395Y117900D01*
X179759Y118320D01*
X179163Y118794D01*
X179126Y118823D01*
X179084Y118845D01*
X179039Y118860D01*
X178993Y118868D01*
X178945Y118868D01*
X178899Y118861D01*
X178854Y118847D01*
X178811Y118826D01*
X178773Y118799D01*
X178739Y118766D01*
X178711Y118728D01*
X178689Y118686D01*
X178674Y118641D01*
X178666Y118595D01*
X178666Y118547D01*
X178673Y118501D01*
X178687Y118456D01*
X178708Y118413D01*
X178735Y118375D01*
X178769Y118342D01*
X179401Y117827D01*
X180083Y117377D01*
X180802Y116991D01*
X181553Y116670D01*
X182329Y116418D01*
X183125Y116237D01*
X183934Y116127D01*
X184750Y116091D01*
X185566Y116127D01*
X186375Y116237D01*
X187171Y116418D01*
X187947Y116670D01*
X188698Y116991D01*
X188839Y117066D01*
Y110200D01*
G37*
G36*
X177034Y121647D02*X176791Y122217D01*
X176556Y122941D01*
X176386Y123684D01*
X176284Y124439D01*
X176250Y125200D01*
X176284Y125961D01*
X176386Y126716D01*
X176556Y127459D01*
X176791Y128183D01*
X177034Y128753D01*
Y121647D01*
G37*
G36*
Y110200D02*X150625D01*
Y114200D01*
X159132D01*
X159250Y114191D01*
X159720Y114228D01*
X159721Y114228D01*
X160180Y114338D01*
X160616Y114519D01*
X161019Y114765D01*
X161378Y115072D01*
X161455Y115162D01*
X165788Y119496D01*
X165878Y119572D01*
X166184Y119931D01*
X166185Y119931D01*
X166431Y120334D01*
X166612Y120770D01*
X166722Y121229D01*
X166759Y121700D01*
X166750Y121818D01*
Y129060D01*
X166764Y129066D01*
X166898Y129148D01*
X167018Y129251D01*
X167120Y129370D01*
X167203Y129505D01*
X167263Y129650D01*
X167300Y129803D01*
X167309Y129960D01*
X167305Y133013D01*
X177034Y142741D01*
Y130029D01*
X176927Y129867D01*
X176541Y129148D01*
X176220Y128397D01*
X175968Y127621D01*
X175787Y126825D01*
X175677Y126016D01*
X175641Y125200D01*
X175677Y124384D01*
X175787Y123575D01*
X175968Y122779D01*
X176220Y122003D01*
X176541Y121252D01*
X176927Y120533D01*
X177034Y120371D01*
Y110200D01*
G37*
G36*
Y268200D02*X188839D01*
Y261334D01*
X188698Y261409D01*
X187947Y261730D01*
X187171Y261982D01*
X186375Y262163D01*
X185566Y262273D01*
X184750Y262309D01*
X183934Y262273D01*
X183125Y262163D01*
X182329Y261982D01*
X181553Y261730D01*
X180802Y261409D01*
X180083Y261023D01*
X179401Y260573D01*
X178763Y260065D01*
X178728Y260031D01*
X178700Y259991D01*
X178679Y259947D01*
X178664Y259901D01*
X178657Y259853D01*
X178658Y259805D01*
X178666Y259757D01*
X178681Y259711D01*
X178704Y259668D01*
X178733Y259629D01*
X178767Y259595D01*
X178807Y259566D01*
X178850Y259545D01*
X178897Y259530D01*
X178945Y259523D01*
X178993Y259524D01*
X179041Y259532D01*
X179087Y259547D01*
X179130Y259570D01*
X179169Y259599D01*
X179759Y260080D01*
X180395Y260500D01*
X181066Y260860D01*
X181767Y261159D01*
X182491Y261394D01*
X183234Y261564D01*
X183989Y261666D01*
X184750Y261700D01*
X185511Y261666D01*
X186266Y261564D01*
X187009Y261394D01*
X187733Y261159D01*
X188434Y260860D01*
X188839Y260643D01*
Y245757D01*
X188434Y245540D01*
X187733Y245241D01*
X187009Y245006D01*
X186266Y244836D01*
X185511Y244734D01*
X184750Y244700D01*
X183989Y244734D01*
X183234Y244836D01*
X182491Y245006D01*
X181767Y245241D01*
X181066Y245540D01*
X180395Y245900D01*
X179759Y246320D01*
X179163Y246794D01*
X179126Y246823D01*
X179084Y246845D01*
X179039Y246860D01*
X178993Y246868D01*
X178945Y246868D01*
X178899Y246861D01*
X178854Y246847D01*
X178811Y246826D01*
X178773Y246799D01*
X178739Y246766D01*
X178711Y246728D01*
X178689Y246686D01*
X178674Y246641D01*
X178666Y246595D01*
X178666Y246547D01*
X178673Y246501D01*
X178687Y246456D01*
X178708Y246413D01*
X178735Y246375D01*
X178769Y246342D01*
X179401Y245827D01*
X180083Y245377D01*
X180802Y244991D01*
X181553Y244670D01*
X182329Y244418D01*
X183125Y244237D01*
X183934Y244127D01*
X184750Y244091D01*
X185566Y244127D01*
X186375Y244237D01*
X187171Y244418D01*
X187947Y244670D01*
X188698Y244991D01*
X188839Y245066D01*
Y217232D01*
X177034Y229037D01*
Y248371D01*
X177377Y247851D01*
X177885Y247213D01*
X177919Y247178D01*
X177959Y247150D01*
X178003Y247129D01*
X178049Y247114D01*
X178097Y247107D01*
X178145Y247108D01*
X178193Y247116D01*
X178239Y247131D01*
X178282Y247154D01*
X178321Y247183D01*
X178355Y247217D01*
X178384Y247257D01*
X178405Y247300D01*
X178420Y247347D01*
X178427Y247395D01*
X178426Y247443D01*
X178418Y247491D01*
X178403Y247537D01*
X178380Y247580D01*
X178351Y247619D01*
X177870Y248209D01*
X177450Y248845D01*
X177090Y249516D01*
X177034Y249647D01*
Y256753D01*
X177090Y256884D01*
X177450Y257555D01*
X177870Y258191D01*
X178344Y258787D01*
X178373Y258824D01*
X178395Y258866D01*
X178410Y258911D01*
X178418Y258957D01*
X178418Y259005D01*
X178411Y259051D01*
X178397Y259096D01*
X178376Y259139D01*
X178349Y259177D01*
X178316Y259211D01*
X178278Y259239D01*
X178236Y259261D01*
X178191Y259276D01*
X178145Y259284D01*
X178097Y259284D01*
X178051Y259277D01*
X178006Y259263D01*
X177963Y259242D01*
X177925Y259215D01*
X177892Y259181D01*
X177377Y258549D01*
X177034Y258029D01*
Y268200D01*
G37*
G36*
Y249647D02*X176791Y250217D01*
X176556Y250941D01*
X176386Y251684D01*
X176284Y252439D01*
X176250Y253200D01*
X176284Y253961D01*
X176386Y254716D01*
X176556Y255459D01*
X176791Y256183D01*
X177034Y256753D01*
Y249647D01*
G37*
G36*
X150625Y268200D02*X177034D01*
Y258029D01*
X176927Y257867D01*
X176541Y257148D01*
X176220Y256397D01*
X175968Y255621D01*
X175787Y254825D01*
X175677Y254016D01*
X175641Y253200D01*
X175677Y252384D01*
X175787Y251575D01*
X175968Y250779D01*
X176220Y250003D01*
X176541Y249252D01*
X176927Y248533D01*
X177034Y248371D01*
Y229037D01*
X165174Y240897D01*
X165046Y241046D01*
X164448Y241558D01*
X164032Y241813D01*
X163777Y241969D01*
X163050Y242270D01*
X162285Y242454D01*
X161500Y242515D01*
X161304Y242500D01*
X150625D01*
Y268200D01*
G37*
G36*
X122112Y192211D02*X122284Y191802D01*
X122487Y191169D01*
X122633Y190521D01*
X122721Y189863D01*
X122750Y189200D01*
X122721Y188537D01*
X122633Y187879D01*
X122487Y187231D01*
X122284Y186598D01*
X122112Y186189D01*
Y192211D01*
G37*
G36*
X150625Y185800D02*X147588D01*
X147588Y186223D01*
X147551Y186376D01*
X147491Y186521D01*
X147408Y186656D01*
X147306Y186775D01*
X147186Y186878D01*
X147052Y186960D01*
X146907Y187020D01*
X146782Y187050D01*
X146907Y187080D01*
X147052Y187140D01*
X147186Y187222D01*
X147306Y187325D01*
X147408Y187444D01*
X147491Y187579D01*
X147551Y187724D01*
X147588Y187877D01*
X147597Y188034D01*
X147588Y193309D01*
X147551Y193462D01*
X147491Y193607D01*
X147408Y193742D01*
X147306Y193861D01*
X147186Y193964D01*
X147052Y194046D01*
X146907Y194106D01*
X146754Y194143D01*
X146597Y194152D01*
X140536Y194143D01*
X140383Y194106D01*
X140237Y194046D01*
X140103Y193964D01*
X139984Y193861D01*
X139881Y193742D01*
X139799Y193607D01*
X139739Y193462D01*
X139702Y193309D01*
X139693Y193152D01*
X139702Y187877D01*
X139739Y187724D01*
X139799Y187579D01*
X139881Y187444D01*
X139984Y187325D01*
X140103Y187222D01*
X140237Y187140D01*
X140383Y187080D01*
X140508Y187050D01*
X140383Y187020D01*
X140237Y186960D01*
X140103Y186878D01*
X139984Y186775D01*
X139881Y186656D01*
X139799Y186521D01*
X139739Y186376D01*
X139702Y186223D01*
X139693Y186066D01*
X139702Y180791D01*
X139739Y180638D01*
X139799Y180493D01*
X139881Y180358D01*
X139984Y180239D01*
X140103Y180136D01*
X140237Y180054D01*
X140383Y179994D01*
X140536Y179957D01*
X140693Y179948D01*
X141395Y179949D01*
Y177394D01*
X140536Y177393D01*
X140383Y177356D01*
X140237Y177296D01*
X140103Y177214D01*
X139984Y177111D01*
X139881Y176992D01*
X139799Y176857D01*
X139739Y176712D01*
X139702Y176559D01*
X139693Y176402D01*
X139702Y171127D01*
X139739Y170974D01*
X139799Y170829D01*
X139881Y170694D01*
X139984Y170575D01*
X140103Y170472D01*
X140237Y170390D01*
X140383Y170330D01*
X140508Y170300D01*
X140383Y170270D01*
X140237Y170210D01*
X140103Y170128D01*
X139984Y170025D01*
X139881Y169906D01*
X139799Y169771D01*
X139739Y169626D01*
X139702Y169473D01*
X139693Y169316D01*
X139694Y168950D01*
X138182D01*
X127903Y179229D01*
X127846Y179296D01*
X127577Y179526D01*
X127275Y179711D01*
X126947Y179846D01*
X126603Y179929D01*
X126603Y179929D01*
X126250Y179957D01*
X126162Y179950D01*
X122112D01*
Y184894D01*
X122240Y185092D01*
X122576Y185726D01*
X122855Y186388D01*
X123073Y187071D01*
X123231Y187771D01*
X123326Y188483D01*
X123358Y189200D01*
X123326Y189917D01*
X123231Y190629D01*
X123073Y191329D01*
X122855Y192012D01*
X122576Y192674D01*
X122240Y193308D01*
X122112Y193506D01*
Y206500D01*
X142429D01*
X150625Y198304D01*
Y185800D01*
G37*
G36*
X122112Y179950D02*X115254D01*
Y181092D01*
X115967Y181124D01*
X116679Y181219D01*
X117379Y181377D01*
X118062Y181595D01*
X118724Y181874D01*
X119358Y182210D01*
X119960Y182601D01*
X120526Y183043D01*
X120560Y183077D01*
X120588Y183116D01*
X120610Y183160D01*
X120625Y183206D01*
X120633Y183253D01*
X120633Y183302D01*
X120625Y183349D01*
X120610Y183395D01*
X120588Y183439D01*
X120559Y183478D01*
X120525Y183512D01*
X120486Y183540D01*
X120443Y183562D01*
X120397Y183577D01*
X120349Y183584D01*
X120301Y183584D01*
X120253Y183577D01*
X120207Y183562D01*
X120164Y183540D01*
X120125Y183510D01*
X119607Y183096D01*
X119050Y182734D01*
X118464Y182423D01*
X117852Y182166D01*
X117219Y181963D01*
X116571Y181817D01*
X115913Y181729D01*
X115254Y181700D01*
Y196700D01*
X115913Y196671D01*
X116571Y196583D01*
X117219Y196437D01*
X117852Y196234D01*
X118464Y195977D01*
X119050Y195666D01*
X119607Y195304D01*
X120130Y194895D01*
X120168Y194867D01*
X120210Y194845D01*
X120255Y194830D01*
X120301Y194823D01*
X120348Y194823D01*
X120395Y194830D01*
X120440Y194845D01*
X120482Y194866D01*
X120520Y194894D01*
X120554Y194927D01*
X120582Y194965D01*
X120603Y195007D01*
X120618Y195052D01*
X120625Y195099D01*
X120625Y195146D01*
X120618Y195193D01*
X120603Y195238D01*
X120582Y195280D01*
X120554Y195318D01*
X120520Y195351D01*
X119960Y195799D01*
X119358Y196190D01*
X118724Y196526D01*
X118062Y196805D01*
X117379Y197023D01*
X116679Y197181D01*
X115967Y197276D01*
X115254Y197308D01*
Y206500D01*
X122112D01*
Y193506D01*
X121849Y193910D01*
X121407Y194476D01*
X121373Y194510D01*
X121334Y194538D01*
X121290Y194560D01*
X121244Y194575D01*
X121197Y194583D01*
X121148Y194583D01*
X121101Y194575D01*
X121055Y194560D01*
X121011Y194538D01*
X120972Y194509D01*
X120938Y194475D01*
X120910Y194436D01*
X120888Y194393D01*
X120873Y194347D01*
X120866Y194299D01*
X120866Y194251D01*
X120873Y194203D01*
X120888Y194157D01*
X120910Y194114D01*
X120940Y194075D01*
X121354Y193557D01*
X121716Y193000D01*
X122027Y192414D01*
X122112Y192211D01*
Y186189D01*
X122027Y185986D01*
X121716Y185400D01*
X121354Y184843D01*
X120945Y184320D01*
X120917Y184282D01*
X120895Y184240D01*
X120880Y184195D01*
X120873Y184149D01*
X120873Y184102D01*
X120880Y184055D01*
X120895Y184010D01*
X120916Y183968D01*
X120944Y183930D01*
X120977Y183896D01*
X121015Y183868D01*
X121057Y183847D01*
X121102Y183832D01*
X121149Y183825D01*
X121196Y183825D01*
X121243Y183832D01*
X121288Y183847D01*
X121330Y183868D01*
X121368Y183896D01*
X121401Y183930D01*
X121849Y184490D01*
X122112Y184894D01*
Y179950D01*
G37*
G36*
X115254D02*X108388D01*
Y184894D01*
X108651Y184490D01*
X109093Y183924D01*
X109127Y183890D01*
X109166Y183862D01*
X109210Y183840D01*
X109256Y183825D01*
X109303Y183817D01*
X109352Y183817D01*
X109399Y183825D01*
X109445Y183840D01*
X109489Y183862D01*
X109528Y183891D01*
X109562Y183925D01*
X109590Y183964D01*
X109612Y184007D01*
X109627Y184053D01*
X109634Y184101D01*
X109634Y184149D01*
X109627Y184197D01*
X109612Y184243D01*
X109590Y184286D01*
X109560Y184325D01*
X109146Y184843D01*
X108784Y185400D01*
X108473Y185986D01*
X108388Y186189D01*
Y192211D01*
X108473Y192414D01*
X108784Y193000D01*
X109146Y193557D01*
X109555Y194080D01*
X109583Y194118D01*
X109605Y194160D01*
X109620Y194205D01*
X109627Y194251D01*
X109627Y194298D01*
X109620Y194345D01*
X109605Y194390D01*
X109584Y194432D01*
X109556Y194470D01*
X109523Y194504D01*
X109485Y194532D01*
X109443Y194553D01*
X109398Y194568D01*
X109351Y194575D01*
X109304Y194575D01*
X109257Y194568D01*
X109212Y194553D01*
X109170Y194532D01*
X109132Y194504D01*
X109099Y194470D01*
X108651Y193910D01*
X108388Y193506D01*
Y206756D01*
X108450Y206730D01*
X109215Y206546D01*
X109215D01*
X110000Y206485D01*
X110196Y206500D01*
X115254D01*
Y197308D01*
X115250Y197308D01*
X114533Y197276D01*
X113821Y197181D01*
X113121Y197023D01*
X112438Y196805D01*
X111776Y196526D01*
X111142Y196190D01*
X110540Y195799D01*
X109974Y195357D01*
X109940Y195323D01*
X109912Y195284D01*
X109890Y195240D01*
X109875Y195194D01*
X109867Y195147D01*
X109867Y195098D01*
X109875Y195051D01*
X109890Y195005D01*
X109912Y194961D01*
X109941Y194922D01*
X109975Y194888D01*
X110014Y194860D01*
X110057Y194838D01*
X110103Y194823D01*
X110151Y194816D01*
X110199Y194816D01*
X110247Y194823D01*
X110293Y194838D01*
X110336Y194860D01*
X110375Y194890D01*
X110893Y195304D01*
X111450Y195666D01*
X112036Y195977D01*
X112648Y196234D01*
X113281Y196437D01*
X113929Y196583D01*
X114587Y196671D01*
X115250Y196700D01*
X115254Y196700D01*
Y181700D01*
X115250Y181700D01*
X114587Y181729D01*
X113929Y181817D01*
X113281Y181963D01*
X112648Y182166D01*
X112036Y182423D01*
X111450Y182734D01*
X110893Y183096D01*
X110370Y183505D01*
X110332Y183533D01*
X110290Y183555D01*
X110245Y183570D01*
X110199Y183577D01*
X110152Y183577D01*
X110105Y183570D01*
X110060Y183555D01*
X110018Y183534D01*
X109980Y183506D01*
X109946Y183473D01*
X109918Y183435D01*
X109897Y183393D01*
X109882Y183348D01*
X109875Y183301D01*
X109875Y183254D01*
X109882Y183207D01*
X109897Y183162D01*
X109918Y183120D01*
X109946Y183082D01*
X109980Y183049D01*
X110540Y182601D01*
X111142Y182210D01*
X111776Y181874D01*
X112438Y181595D01*
X113121Y181377D01*
X113821Y181219D01*
X114533Y181124D01*
X115250Y181092D01*
X115254Y181092D01*
Y179950D01*
G37*
G36*
X108388Y186189D02*X108216Y186598D01*
X108013Y187231D01*
X107867Y187879D01*
X107779Y188537D01*
X107750Y189200D01*
X107779Y189863D01*
X107867Y190521D01*
X108013Y191169D01*
X108216Y191802D01*
X108388Y192211D01*
Y186189D01*
G37*
G36*
X101466Y205753D02*X101709Y205183D01*
X101944Y204459D01*
X102114Y203716D01*
X102216Y202961D01*
X102250Y202200D01*
X102216Y201439D01*
X102114Y200684D01*
X101944Y199941D01*
X101709Y199217D01*
X101466Y198647D01*
Y205753D01*
G37*
G36*
X108388Y179950D02*X101466D01*
Y197371D01*
X101573Y197533D01*
X101959Y198252D01*
X102280Y199003D01*
X102532Y199779D01*
X102713Y200575D01*
X102823Y201384D01*
X102859Y202200D01*
X102823Y203016D01*
X102713Y203825D01*
X102532Y204621D01*
X102280Y205397D01*
X101959Y206148D01*
X101573Y206867D01*
X101466Y207029D01*
Y212963D01*
X106326Y208103D01*
X106454Y207954D01*
X107052Y207442D01*
X107307Y207286D01*
X107723Y207031D01*
X108237Y206818D01*
X108388Y206756D01*
Y193506D01*
X108260Y193308D01*
X107924Y192674D01*
X107645Y192012D01*
X107427Y191329D01*
X107269Y190629D01*
X107174Y189917D01*
X107142Y189200D01*
X107174Y188483D01*
X107269Y187771D01*
X107427Y187071D01*
X107645Y186388D01*
X107924Y185726D01*
X108260Y185092D01*
X108388Y184894D01*
Y179950D01*
G37*
G36*
X101466D02*X100000D01*
Y214429D01*
X101466Y212963D01*
Y207029D01*
X101123Y207549D01*
X100615Y208187D01*
X100581Y208222D01*
X100541Y208250D01*
X100497Y208271D01*
X100451Y208286D01*
X100403Y208293D01*
X100355Y208292D01*
X100307Y208284D01*
X100261Y208269D01*
X100218Y208246D01*
X100179Y208217D01*
X100145Y208183D01*
X100116Y208143D01*
X100095Y208100D01*
X100080Y208053D01*
X100073Y208005D01*
X100074Y207957D01*
X100082Y207909D01*
X100097Y207863D01*
X100120Y207820D01*
X100149Y207781D01*
X100630Y207191D01*
X101050Y206555D01*
X101410Y205884D01*
X101466Y205753D01*
Y198647D01*
X101410Y198516D01*
X101050Y197845D01*
X100630Y197209D01*
X100156Y196613D01*
X100127Y196576D01*
X100105Y196534D01*
X100090Y196489D01*
X100082Y196443D01*
X100082Y196395D01*
X100089Y196349D01*
X100103Y196304D01*
X100124Y196261D01*
X100151Y196223D01*
X100184Y196189D01*
X100222Y196161D01*
X100264Y196139D01*
X100309Y196124D01*
X100355Y196116D01*
X100403Y196116D01*
X100449Y196123D01*
X100494Y196137D01*
X100537Y196158D01*
X100575Y196185D01*
X100608Y196219D01*
X101123Y196851D01*
X101466Y197371D01*
Y179950D01*
G37*
G36*
X150625Y168799D02*X150498Y168829D01*
X150498Y168829D01*
X150145Y168857D01*
X150057Y168850D01*
X147589D01*
X147588Y169473D01*
X147551Y169626D01*
X147491Y169771D01*
X147408Y169906D01*
X147306Y170025D01*
X147186Y170128D01*
X147052Y170210D01*
X146907Y170270D01*
X146782Y170300D01*
X146907Y170330D01*
X147052Y170390D01*
X147186Y170472D01*
X147306Y170575D01*
X147408Y170694D01*
X147491Y170829D01*
X147551Y170974D01*
X147588Y171127D01*
X147597Y171284D01*
X147588Y176559D01*
X147551Y176712D01*
X147491Y176857D01*
X147408Y176992D01*
X147306Y177111D01*
X147186Y177214D01*
X147052Y177296D01*
X146907Y177356D01*
X146754Y177393D01*
X146597Y177402D01*
X145895Y177401D01*
Y179956D01*
X146754Y179957D01*
X146907Y179994D01*
X147052Y180054D01*
X147186Y180136D01*
X147306Y180239D01*
X147408Y180358D01*
X147491Y180493D01*
X147551Y180638D01*
X147588Y180791D01*
X147597Y180948D01*
X147596Y181300D01*
X150625D01*
Y168799D01*
G37*
G36*
X143716Y133253D02*X143959Y132683D01*
X144194Y131959D01*
X144364Y131216D01*
X144466Y130461D01*
X144500Y129700D01*
X144466Y128939D01*
X144364Y128184D01*
X144194Y127441D01*
X143959Y126717D01*
X143716Y126147D01*
Y133253D01*
G37*
G36*
Y152151D02*X147042Y152155D01*
X147195Y152192D01*
X147340Y152252D01*
X147474Y152334D01*
X147594Y152437D01*
X147696Y152556D01*
X147779Y152691D01*
X147839Y152836D01*
X147876Y152989D01*
X147885Y153146D01*
X147884Y153455D01*
X150625D01*
Y146145D01*
X147876D01*
X147876Y146611D01*
X147839Y146764D01*
X147779Y146909D01*
X147696Y147044D01*
X147594Y147163D01*
X147474Y147266D01*
X147340Y147348D01*
X147195Y147408D01*
X147042Y147445D01*
X146885Y147454D01*
X143716Y147450D01*
Y152151D01*
G37*
G36*
Y163203D02*X146754Y163207D01*
X146907Y163244D01*
X147052Y163304D01*
X147186Y163386D01*
X147306Y163489D01*
X147408Y163608D01*
X147491Y163743D01*
X147551Y163888D01*
X147588Y164041D01*
X147597Y164198D01*
X147597Y164350D01*
X149213D01*
X149892Y163671D01*
X149949Y163604D01*
X150218Y163374D01*
X150218Y163374D01*
X150406Y163259D01*
X150520Y163189D01*
X150625Y163146D01*
Y157955D01*
X147876D01*
X147876Y158421D01*
X147839Y158574D01*
X147779Y158719D01*
X147696Y158854D01*
X147594Y158973D01*
X147474Y159076D01*
X147340Y159158D01*
X147195Y159218D01*
X147042Y159255D01*
X146885Y159264D01*
X143716Y159260D01*
Y163203D01*
G37*
G36*
X150625Y120200D02*X143716D01*
Y124871D01*
X143823Y125033D01*
X144209Y125752D01*
X144530Y126503D01*
X144782Y127279D01*
X144963Y128075D01*
X145073Y128884D01*
X145109Y129700D01*
X145073Y130516D01*
X144963Y131325D01*
X144782Y132121D01*
X144530Y132897D01*
X144209Y133648D01*
X143823Y134367D01*
X143716Y134529D01*
Y140341D01*
X147042Y140345D01*
X147195Y140382D01*
X147340Y140442D01*
X147474Y140524D01*
X147594Y140627D01*
X147696Y140746D01*
X147779Y140881D01*
X147839Y141026D01*
X147876Y141179D01*
X147885Y141336D01*
X147884Y141645D01*
X150625D01*
Y138433D01*
X149224Y138431D01*
X149071Y138394D01*
X148925Y138334D01*
X148791Y138252D01*
X148672Y138149D01*
X148569Y138030D01*
X148487Y137895D01*
X148427Y137750D01*
X148390Y137597D01*
X148381Y137440D01*
X148390Y129803D01*
X148427Y129650D01*
X148487Y129505D01*
X148569Y129370D01*
X148672Y129251D01*
X148791Y129148D01*
X148925Y129066D01*
X149071Y129006D01*
X149224Y128969D01*
X149381Y128960D01*
X150625Y128962D01*
Y120200D01*
G37*
G36*
X143716D02*X136004D01*
Y120591D01*
X136816Y120627D01*
X137625Y120737D01*
X138421Y120918D01*
X139197Y121170D01*
X139948Y121491D01*
X140667Y121877D01*
X141349Y122327D01*
X141987Y122835D01*
X142022Y122869D01*
X142050Y122909D01*
X142071Y122953D01*
X142086Y122999D01*
X142093Y123047D01*
X142092Y123095D01*
X142084Y123143D01*
X142069Y123189D01*
X142046Y123232D01*
X142017Y123271D01*
X141983Y123305D01*
X141943Y123334D01*
X141900Y123355D01*
X141853Y123370D01*
X141805Y123377D01*
X141757Y123376D01*
X141709Y123368D01*
X141663Y123353D01*
X141620Y123330D01*
X141581Y123301D01*
X140991Y122820D01*
X140355Y122400D01*
X139684Y122040D01*
X138983Y121741D01*
X138259Y121506D01*
X137516Y121336D01*
X136761Y121234D01*
X136004Y121200D01*
Y138200D01*
X136761Y138166D01*
X137516Y138064D01*
X138259Y137894D01*
X138983Y137659D01*
X139684Y137360D01*
X140355Y137000D01*
X140991Y136580D01*
X141587Y136106D01*
X141624Y136077D01*
X141666Y136055D01*
X141711Y136040D01*
X141757Y136032D01*
X141805Y136032D01*
X141851Y136039D01*
X141896Y136053D01*
X141939Y136074D01*
X141977Y136101D01*
X142011Y136134D01*
X142039Y136172D01*
X142061Y136214D01*
X142076Y136259D01*
X142084Y136305D01*
X142084Y136353D01*
X142077Y136399D01*
X142063Y136444D01*
X142042Y136487D01*
X142015Y136525D01*
X141981Y136558D01*
X141349Y137073D01*
X140667Y137523D01*
X139948Y137909D01*
X139197Y138230D01*
X138421Y138482D01*
X137625Y138663D01*
X136816Y138773D01*
X136004Y138809D01*
Y164825D01*
X136111Y164759D01*
X136225Y164689D01*
X136553Y164554D01*
X136897Y164471D01*
X136897D01*
X137250Y164443D01*
X137338Y164450D01*
X139701D01*
X139702Y164041D01*
X139739Y163888D01*
X139799Y163743D01*
X139881Y163608D01*
X139984Y163489D01*
X140103Y163386D01*
X140237Y163304D01*
X140383Y163244D01*
X140536Y163207D01*
X140693Y163198D01*
X143716Y163203D01*
Y159260D01*
X139248Y159255D01*
X139095Y159218D01*
X138949Y159158D01*
X138815Y159076D01*
X138696Y158973D01*
X138593Y158854D01*
X138511Y158719D01*
X138451Y158574D01*
X138414Y158421D01*
X138405Y158264D01*
X138414Y152989D01*
X138451Y152836D01*
X138511Y152691D01*
X138593Y152556D01*
X138696Y152437D01*
X138815Y152334D01*
X138949Y152252D01*
X139095Y152192D01*
X139248Y152155D01*
X139405Y152146D01*
X143716Y152151D01*
Y147450D01*
X139248Y147445D01*
X139095Y147408D01*
X138949Y147348D01*
X138815Y147266D01*
X138696Y147163D01*
X138593Y147044D01*
X138511Y146909D01*
X138451Y146764D01*
X138414Y146611D01*
X138405Y146454D01*
X138414Y141179D01*
X138451Y141026D01*
X138511Y140881D01*
X138593Y140746D01*
X138696Y140627D01*
X138815Y140524D01*
X138949Y140442D01*
X139095Y140382D01*
X139248Y140345D01*
X139405Y140336D01*
X143716Y140341D01*
Y134529D01*
X143373Y135049D01*
X142865Y135687D01*
X142831Y135722D01*
X142791Y135750D01*
X142747Y135771D01*
X142701Y135786D01*
X142653Y135793D01*
X142605Y135792D01*
X142557Y135784D01*
X142511Y135769D01*
X142468Y135746D01*
X142429Y135717D01*
X142395Y135683D01*
X142366Y135643D01*
X142345Y135600D01*
X142330Y135553D01*
X142323Y135505D01*
X142324Y135457D01*
X142332Y135409D01*
X142347Y135363D01*
X142370Y135320D01*
X142399Y135281D01*
X142880Y134691D01*
X143300Y134055D01*
X143660Y133384D01*
X143716Y133253D01*
Y126147D01*
X143660Y126016D01*
X143300Y125345D01*
X142880Y124709D01*
X142406Y124113D01*
X142377Y124076D01*
X142355Y124034D01*
X142340Y123989D01*
X142332Y123943D01*
X142332Y123895D01*
X142339Y123849D01*
X142353Y123804D01*
X142374Y123761D01*
X142401Y123723D01*
X142434Y123689D01*
X142472Y123661D01*
X142514Y123639D01*
X142559Y123624D01*
X142605Y123616D01*
X142653Y123616D01*
X142699Y123623D01*
X142744Y123637D01*
X142787Y123658D01*
X142825Y123685D01*
X142858Y123719D01*
X143373Y124351D01*
X143716Y124871D01*
Y120200D01*
G37*
G36*
X136004D02*X128284D01*
Y124871D01*
X128627Y124351D01*
X129135Y123713D01*
X129169Y123678D01*
X129209Y123650D01*
X129253Y123629D01*
X129299Y123614D01*
X129347Y123607D01*
X129395Y123608D01*
X129443Y123616D01*
X129489Y123631D01*
X129532Y123654D01*
X129571Y123683D01*
X129605Y123717D01*
X129634Y123757D01*
X129655Y123800D01*
X129670Y123847D01*
X129677Y123895D01*
X129676Y123943D01*
X129668Y123991D01*
X129653Y124037D01*
X129630Y124080D01*
X129601Y124119D01*
X129120Y124709D01*
X128700Y125345D01*
X128340Y126016D01*
X128284Y126147D01*
Y133253D01*
X128340Y133384D01*
X128700Y134055D01*
X129120Y134691D01*
X129594Y135287D01*
X129623Y135324D01*
X129645Y135366D01*
X129660Y135411D01*
X129668Y135457D01*
X129668Y135505D01*
X129661Y135551D01*
X129647Y135596D01*
X129626Y135639D01*
X129599Y135677D01*
X129566Y135711D01*
X129528Y135739D01*
X129486Y135761D01*
X129441Y135776D01*
X129395Y135784D01*
X129347Y135784D01*
X129301Y135777D01*
X129256Y135763D01*
X129213Y135742D01*
X129175Y135715D01*
X129142Y135681D01*
X128627Y135049D01*
X128284Y134529D01*
Y172484D01*
X135597Y165171D01*
X135654Y165104D01*
X135923Y164874D01*
X135923Y164874D01*
X136004Y164825D01*
Y138809D01*
X136000Y138809D01*
X135184Y138773D01*
X134375Y138663D01*
X133579Y138482D01*
X132803Y138230D01*
X132052Y137909D01*
X131333Y137523D01*
X130651Y137073D01*
X130013Y136565D01*
X129978Y136531D01*
X129950Y136491D01*
X129929Y136447D01*
X129914Y136401D01*
X129907Y136353D01*
X129908Y136305D01*
X129916Y136257D01*
X129931Y136211D01*
X129954Y136168D01*
X129983Y136129D01*
X130017Y136095D01*
X130057Y136066D01*
X130100Y136045D01*
X130147Y136030D01*
X130195Y136023D01*
X130243Y136024D01*
X130291Y136032D01*
X130337Y136047D01*
X130380Y136070D01*
X130419Y136099D01*
X131009Y136580D01*
X131645Y137000D01*
X132316Y137360D01*
X133017Y137659D01*
X133741Y137894D01*
X134484Y138064D01*
X135239Y138166D01*
X136000Y138200D01*
X136004Y138200D01*
Y121200D01*
X136000Y121200D01*
X135239Y121234D01*
X134484Y121336D01*
X133741Y121506D01*
X133017Y121741D01*
X132316Y122040D01*
X131645Y122400D01*
X131009Y122820D01*
X130413Y123294D01*
X130376Y123323D01*
X130334Y123345D01*
X130289Y123360D01*
X130243Y123368D01*
X130195Y123368D01*
X130149Y123361D01*
X130104Y123347D01*
X130061Y123326D01*
X130023Y123299D01*
X129989Y123266D01*
X129961Y123228D01*
X129939Y123186D01*
X129924Y123141D01*
X129916Y123095D01*
X129916Y123047D01*
X129923Y123001D01*
X129937Y122956D01*
X129958Y122913D01*
X129985Y122875D01*
X130019Y122842D01*
X130651Y122327D01*
X131333Y121877D01*
X132052Y121491D01*
X132803Y121170D01*
X133579Y120918D01*
X134375Y120737D01*
X135184Y120627D01*
X136000Y120591D01*
X136004Y120591D01*
Y120200D01*
G37*
G36*
X128284Y126147D02*X128041Y126717D01*
X127806Y127441D01*
X127636Y128184D01*
X127534Y128939D01*
X127500Y129700D01*
X127534Y130461D01*
X127636Y131216D01*
X127806Y131959D01*
X128041Y132683D01*
X128284Y133253D01*
Y126147D01*
G37*
G36*
Y120200D02*X122500D01*
Y122756D01*
X122575Y122878D01*
X122816Y123460D01*
X122963Y124072D01*
X123000Y124700D01*
X122963Y125328D01*
X122816Y125940D01*
X122575Y126522D01*
X122500Y126644D01*
Y132198D01*
X122578Y132205D01*
X122655Y132223D01*
X122728Y132253D01*
X122795Y132294D01*
X122855Y132345D01*
X122906Y132405D01*
X122947Y132472D01*
X122977Y132545D01*
X122995Y132622D01*
X123000Y132700D01*
Y136700D01*
X122995Y136778D01*
X122977Y136855D01*
X122947Y136928D01*
X122906Y136995D01*
X122855Y137055D01*
X122795Y137106D01*
X122728Y137147D01*
X122655Y137177D01*
X122578Y137195D01*
X122500Y137202D01*
Y153529D01*
X122619Y153631D01*
X123105Y154199D01*
X123495Y154837D01*
X123781Y155528D01*
X123956Y156255D01*
X124000Y157000D01*
X123956Y157745D01*
X123781Y158472D01*
X123495Y159163D01*
X123105Y159801D01*
X122619Y160369D01*
X122500Y160471D01*
Y165329D01*
X122619Y165431D01*
X123105Y165999D01*
X123495Y166637D01*
X123781Y167328D01*
X123956Y168055D01*
X124000Y168800D01*
X123956Y169545D01*
X123781Y170272D01*
X123495Y170963D01*
X123105Y171601D01*
X122619Y172169D01*
X122500Y172271D01*
Y175450D01*
X125318D01*
X128284Y172484D01*
Y134529D01*
X128177Y134367D01*
X127791Y133648D01*
X127470Y132897D01*
X127218Y132121D01*
X127037Y131325D01*
X126927Y130516D01*
X126891Y129700D01*
X126927Y128884D01*
X127037Y128075D01*
X127218Y127279D01*
X127470Y126503D01*
X127791Y125752D01*
X128177Y125033D01*
X128284Y124871D01*
Y120200D01*
G37*
G36*
X122500Y172271D02*X122051Y172655D01*
X121413Y173045D01*
X120722Y173331D01*
X119995Y173506D01*
X119250Y173565D01*
X119243Y173564D01*
Y175450D01*
X122500D01*
Y172271D01*
G37*
G36*
Y160471D02*X122051Y160855D01*
X121413Y161245D01*
X120722Y161531D01*
X119995Y161706D01*
X119250Y161765D01*
X119243Y161764D01*
Y164036D01*
X119250Y164035D01*
X119995Y164094D01*
X120722Y164269D01*
X121413Y164555D01*
X122051Y164945D01*
X122500Y165329D01*
Y160471D01*
G37*
G36*
Y126644D02*X122246Y127058D01*
X121837Y127537D01*
X121358Y127946D01*
X120822Y128275D01*
X120240Y128516D01*
X119628Y128663D01*
X119243Y128693D01*
Y130700D01*
X121000D01*
X121078Y130705D01*
X121155Y130723D01*
X121228Y130753D01*
X121295Y130794D01*
X121355Y130845D01*
X121406Y130905D01*
X121447Y130972D01*
X121477Y131045D01*
X121495Y131122D01*
X121502Y131200D01*
X121495Y131278D01*
X121477Y131355D01*
X121447Y131428D01*
X121406Y131495D01*
X121355Y131555D01*
X121295Y131606D01*
X121228Y131647D01*
X121155Y131677D01*
X121078Y131695D01*
X121000Y131700D01*
X119243D01*
Y137700D01*
X121000D01*
X121078Y137705D01*
X121155Y137723D01*
X121228Y137753D01*
X121295Y137794D01*
X121355Y137845D01*
X121406Y137905D01*
X121447Y137972D01*
X121477Y138045D01*
X121495Y138122D01*
X121502Y138200D01*
X121495Y138278D01*
X121477Y138355D01*
X121447Y138428D01*
X121406Y138495D01*
X121355Y138555D01*
X121295Y138606D01*
X121228Y138647D01*
X121155Y138677D01*
X121078Y138695D01*
X121000Y138700D01*
X119243D01*
Y152236D01*
X119250Y152235D01*
X119995Y152294D01*
X120722Y152469D01*
X121413Y152755D01*
X122051Y153145D01*
X122500Y153529D01*
Y137202D01*
X122422Y137195D01*
X122345Y137177D01*
X122272Y137147D01*
X122205Y137106D01*
X122145Y137055D01*
X122094Y136995D01*
X122053Y136928D01*
X122023Y136855D01*
X122005Y136778D01*
X122000Y136700D01*
Y132700D01*
X122005Y132622D01*
X122023Y132545D01*
X122053Y132472D01*
X122094Y132405D01*
X122145Y132345D01*
X122205Y132294D01*
X122272Y132253D01*
X122345Y132223D01*
X122422Y132205D01*
X122500Y132198D01*
Y126644D01*
G37*
G36*
Y120200D02*X119243D01*
Y120707D01*
X119628Y120737D01*
X120240Y120884D01*
X120822Y121125D01*
X121358Y121454D01*
X121837Y121863D01*
X122246Y122342D01*
X122500Y122756D01*
Y120200D01*
G37*
G36*
X115500Y154077D02*X115881Y153631D01*
X116449Y153145D01*
X117087Y152755D01*
X117778Y152469D01*
X118505Y152294D01*
X119243Y152236D01*
Y138700D01*
X117000D01*
X116922Y138695D01*
X116845Y138677D01*
X116772Y138647D01*
X116705Y138606D01*
X116645Y138555D01*
X116594Y138495D01*
X116553Y138428D01*
X116523Y138355D01*
X116505Y138278D01*
X116498Y138200D01*
X116505Y138122D01*
X116523Y138045D01*
X116553Y137972D01*
X116594Y137905D01*
X116645Y137845D01*
X116705Y137794D01*
X116772Y137753D01*
X116845Y137723D01*
X116922Y137705D01*
X117000Y137700D01*
X119243D01*
Y131700D01*
X117000D01*
X116922Y131695D01*
X116845Y131677D01*
X116772Y131647D01*
X116705Y131606D01*
X116645Y131555D01*
X116594Y131495D01*
X116553Y131428D01*
X116523Y131355D01*
X116505Y131278D01*
X116498Y131200D01*
X116505Y131122D01*
X116523Y131045D01*
X116553Y130972D01*
X116594Y130905D01*
X116645Y130845D01*
X116705Y130794D01*
X116772Y130753D01*
X116845Y130723D01*
X116922Y130705D01*
X117000Y130700D01*
X119243D01*
Y128693D01*
X119000Y128712D01*
X118372Y128663D01*
X117760Y128516D01*
X117178Y128275D01*
X116642Y127946D01*
X116163Y127537D01*
X115754Y127058D01*
X115500Y126644D01*
Y132198D01*
X115578Y132205D01*
X115655Y132223D01*
X115728Y132253D01*
X115795Y132294D01*
X115855Y132345D01*
X115906Y132405D01*
X115947Y132472D01*
X115977Y132545D01*
X115995Y132622D01*
X116000Y132700D01*
Y136700D01*
X115995Y136778D01*
X115977Y136855D01*
X115947Y136928D01*
X115906Y136995D01*
X115855Y137055D01*
X115795Y137106D01*
X115728Y137147D01*
X115655Y137177D01*
X115578Y137195D01*
X115500Y137202D01*
Y154077D01*
G37*
G36*
Y165877D02*X115881Y165431D01*
X116449Y164945D01*
X117087Y164555D01*
X117778Y164269D01*
X118505Y164094D01*
X119243Y164036D01*
Y161764D01*
X118505Y161706D01*
X117778Y161531D01*
X117087Y161245D01*
X116449Y160855D01*
X115881Y160369D01*
X115500Y159923D01*
Y165877D01*
G37*
G36*
Y175450D02*X119243D01*
Y173564D01*
X118505Y173506D01*
X117778Y173331D01*
X117087Y173045D01*
X116449Y172655D01*
X115881Y172169D01*
X115500Y171723D01*
Y175450D01*
G37*
G36*
X119243Y120200D02*X115500D01*
Y122756D01*
X115754Y122342D01*
X116163Y121863D01*
X116642Y121454D01*
X117178Y121125D01*
X117760Y120884D01*
X118372Y120737D01*
X119000Y120688D01*
X119243Y120707D01*
Y120200D01*
G37*
G36*
X115500D02*X115463D01*
X103110Y132553D01*
Y139324D01*
X103356Y139612D01*
X103685Y140148D01*
X103926Y140730D01*
X104073Y141342D01*
X104110Y141970D01*
X104073Y142598D01*
X103926Y143210D01*
X103685Y143792D01*
X103356Y144328D01*
X102947Y144807D01*
X102468Y145216D01*
X101932Y145545D01*
X101350Y145786D01*
X100738Y145933D01*
X100110Y145982D01*
X100000Y145974D01*
Y155876D01*
X100055Y155842D01*
X100200Y155782D01*
X100353Y155745D01*
X100510Y155736D01*
X108147Y155745D01*
X108300Y155782D01*
X108445Y155842D01*
X108580Y155924D01*
X108699Y156027D01*
X108802Y156146D01*
X108884Y156281D01*
X108944Y156426D01*
X108981Y156579D01*
X108990Y156736D01*
X108981Y162011D01*
X108944Y162164D01*
X108884Y162309D01*
X108802Y162444D01*
X108699Y162563D01*
X108580Y162666D01*
X108445Y162748D01*
X108300Y162808D01*
X108147Y162845D01*
X107990Y162854D01*
X100353Y162845D01*
X100200Y162808D01*
X100055Y162748D01*
X100000Y162714D01*
Y167686D01*
X100055Y167652D01*
X100200Y167592D01*
X100353Y167555D01*
X100510Y167546D01*
X108147Y167555D01*
X108300Y167592D01*
X108445Y167652D01*
X108580Y167734D01*
X108699Y167837D01*
X108802Y167956D01*
X108884Y168091D01*
X108944Y168236D01*
X108981Y168389D01*
X108990Y168546D01*
X108981Y173821D01*
X108944Y173974D01*
X108884Y174119D01*
X108802Y174254D01*
X108699Y174373D01*
X108580Y174476D01*
X108445Y174558D01*
X108300Y174618D01*
X108147Y174655D01*
X107990Y174664D01*
X100353Y174655D01*
X100200Y174618D01*
X100055Y174558D01*
X100000Y174524D01*
Y175450D01*
X115500D01*
Y171723D01*
X115395Y171601D01*
X115005Y170963D01*
X114719Y170272D01*
X114544Y169545D01*
X114485Y168800D01*
X114544Y168055D01*
X114719Y167328D01*
X115005Y166637D01*
X115395Y165999D01*
X115500Y165877D01*
Y159923D01*
X115395Y159801D01*
X115005Y159163D01*
X114719Y158472D01*
X114544Y157745D01*
X114485Y157000D01*
X114544Y156255D01*
X114719Y155528D01*
X115005Y154837D01*
X115395Y154199D01*
X115500Y154077D01*
Y137202D01*
X115422Y137195D01*
X115345Y137177D01*
X115272Y137147D01*
X115205Y137106D01*
X115145Y137055D01*
X115094Y136995D01*
X115053Y136928D01*
X115023Y136855D01*
X115005Y136778D01*
X115000Y136700D01*
Y132700D01*
X115005Y132622D01*
X115023Y132545D01*
X115053Y132472D01*
X115094Y132405D01*
X115145Y132345D01*
X115205Y132294D01*
X115272Y132253D01*
X115345Y132223D01*
X115422Y132205D01*
X115500Y132198D01*
Y126644D01*
X115425Y126522D01*
X115184Y125940D01*
X115037Y125328D01*
X114988Y124700D01*
X115037Y124072D01*
X115184Y123460D01*
X115425Y122878D01*
X115500Y122756D01*
Y120200D01*
G37*
G36*
X150625Y110200D02*X100000D01*
Y127177D01*
X112016Y115162D01*
X112092Y115072D01*
X112451Y114765D01*
X112451Y114765D01*
X112854Y114519D01*
X113290Y114338D01*
X113660Y114249D01*
X113749Y114228D01*
X113749D01*
X114220Y114191D01*
X114338Y114200D01*
X150625D01*
Y110200D01*
G37*
G36*
X100000Y268200D02*X150625D01*
Y242500D01*
X125127D01*
X124516Y242753D01*
X123605Y242972D01*
X122671Y243045D01*
X121737Y242972D01*
X120826Y242753D01*
X119960Y242395D01*
X119161Y241905D01*
X118449Y241296D01*
X117840Y240584D01*
X117750Y240437D01*
X117660Y240584D01*
X117051Y241296D01*
X116339Y241905D01*
X115540Y242395D01*
X114674Y242753D01*
X113763Y242972D01*
X112829Y243045D01*
X111895Y242972D01*
X110984Y242753D01*
X110118Y242395D01*
X109474Y242000D01*
X103196D01*
X103000Y242015D01*
X102215Y241954D01*
X101450Y241770D01*
X100723Y241469D01*
X100052Y241058D01*
X100000Y241013D01*
Y259103D01*
X137894Y259106D01*
X137986Y259128D01*
X138073Y259164D01*
X138154Y259213D01*
X138226Y259274D01*
X138287Y259346D01*
X138336Y259427D01*
X138372Y259514D01*
X138395Y259606D01*
X138400Y259700D01*
X138395Y265894D01*
X138372Y265986D01*
X138336Y266073D01*
X138287Y266154D01*
X138226Y266226D01*
X138154Y266287D01*
X138073Y266336D01*
X137986Y266372D01*
X137894Y266394D01*
X137800Y266400D01*
X100000Y266397D01*
Y268200D01*
G37*
G36*
X83250Y136551D02*X87147Y136555D01*
X87300Y136592D01*
X87445Y136652D01*
X87580Y136734D01*
X87699Y136837D01*
X87802Y136956D01*
X87884Y137091D01*
X87944Y137236D01*
X87981Y137389D01*
X87990Y137546D01*
X87985Y140597D01*
X96288Y148901D01*
X96378Y148977D01*
X96684Y149336D01*
X96685Y149336D01*
X96931Y149739D01*
X97112Y150175D01*
X97222Y150634D01*
X97259Y151105D01*
X97250Y151223D01*
Y156295D01*
X99610D01*
X99616Y156281D01*
X99698Y156146D01*
X99801Y156027D01*
X99920Y155924D01*
X100000Y155876D01*
Y145974D01*
X99482Y145933D01*
X98870Y145786D01*
X98288Y145545D01*
X97752Y145216D01*
X97273Y144807D01*
X96864Y144328D01*
X96535Y143792D01*
X96294Y143210D01*
X96147Y142598D01*
X96098Y141970D01*
X96147Y141342D01*
X96294Y140730D01*
X96535Y140148D01*
X96864Y139612D01*
X97110Y139324D01*
Y131428D01*
X97101Y131310D01*
X97138Y130839D01*
Y130839D01*
X97159Y130750D01*
X97248Y130380D01*
X97429Y129944D01*
X97675Y129541D01*
X97675Y129541D01*
X97982Y129182D01*
X98072Y129106D01*
X100000Y127177D01*
Y110200D01*
X83250D01*
Y112336D01*
X83648Y112367D01*
X84260Y112514D01*
X84842Y112755D01*
X85378Y113084D01*
X85857Y113493D01*
X86266Y113972D01*
X86595Y114508D01*
X86836Y115090D01*
X86983Y115702D01*
X87020Y116330D01*
X86983Y116958D01*
X86836Y117570D01*
X86595Y118152D01*
X86266Y118688D01*
X86020Y118976D01*
Y124744D01*
X87147Y124745D01*
X87300Y124782D01*
X87445Y124842D01*
X87580Y124924D01*
X87699Y125027D01*
X87802Y125146D01*
X87884Y125281D01*
X87944Y125426D01*
X87981Y125579D01*
X87990Y125736D01*
X87981Y131011D01*
X87944Y131164D01*
X87884Y131309D01*
X87802Y131444D01*
X87699Y131563D01*
X87580Y131666D01*
X87445Y131748D01*
X87300Y131808D01*
X87147Y131845D01*
X86990Y131854D01*
X83250Y131849D01*
Y136551D01*
G37*
G36*
X74726Y136800D02*X78844D01*
X78920Y136734D01*
X79055Y136652D01*
X79200Y136592D01*
X79353Y136555D01*
X79510Y136546D01*
X83250Y136551D01*
Y131849D01*
X79353Y131845D01*
X79200Y131808D01*
X79055Y131748D01*
X78920Y131666D01*
X78801Y131563D01*
X78698Y131444D01*
X78616Y131309D01*
X78556Y131164D01*
X78519Y131011D01*
X78510Y130854D01*
X78519Y125579D01*
X78556Y125426D01*
X78616Y125281D01*
X78698Y125146D01*
X78801Y125027D01*
X78920Y124924D01*
X79055Y124842D01*
X79200Y124782D01*
X79353Y124745D01*
X79510Y124736D01*
X80020Y124737D01*
Y118976D01*
X79774Y118688D01*
X79445Y118152D01*
X79204Y117570D01*
X79057Y116958D01*
X79008Y116330D01*
X79057Y115702D01*
X79204Y115090D01*
X79445Y114508D01*
X79774Y113972D01*
X80183Y113493D01*
X80662Y113084D01*
X81198Y112755D01*
X81780Y112514D01*
X82392Y112367D01*
X83020Y112318D01*
X83250Y112336D01*
Y110200D01*
X74726D01*
Y136800D01*
G37*
G36*
Y184042D02*X82597Y176171D01*
X82654Y176104D01*
X82923Y175874D01*
X82923Y175874D01*
X83111Y175759D01*
X83225Y175689D01*
X83553Y175554D01*
X83897Y175471D01*
X83897D01*
X84250Y175443D01*
X84338Y175450D01*
X100000D01*
Y174524D01*
X99920Y174476D01*
X99801Y174373D01*
X99698Y174254D01*
X99616Y174119D01*
X99556Y173974D01*
X99519Y173821D01*
X99510Y173664D01*
X99519Y168389D01*
X99556Y168236D01*
X99616Y168091D01*
X99698Y167956D01*
X99801Y167837D01*
X99920Y167734D01*
X100000Y167686D01*
Y162714D01*
X99920Y162666D01*
X99801Y162563D01*
X99698Y162444D01*
X99616Y162309D01*
X99610Y162295D01*
X96785D01*
X96608Y162446D01*
X96072Y162775D01*
X95490Y163016D01*
X94878Y163163D01*
X94250Y163212D01*
X93622Y163163D01*
X93010Y163016D01*
X92428Y162775D01*
X91892Y162446D01*
X91413Y162037D01*
X91004Y161558D01*
X90675Y161022D01*
X90434Y160440D01*
X90287Y159828D01*
X90238Y159200D01*
X90287Y158572D01*
X90434Y157960D01*
X90675Y157378D01*
X91004Y156842D01*
X91250Y156554D01*
Y152348D01*
X82561Y143659D01*
X79353Y143655D01*
X79200Y143618D01*
X79055Y143558D01*
X78920Y143476D01*
X78801Y143373D01*
X78698Y143254D01*
X78616Y143119D01*
X78556Y142974D01*
X78519Y142821D01*
X78518Y142800D01*
X74726D01*
Y150982D01*
X77566Y148141D01*
X77675Y147878D01*
X78004Y147342D01*
X78413Y146863D01*
X78892Y146454D01*
X79428Y146125D01*
X80010Y145884D01*
X80622Y145737D01*
X81250Y145688D01*
X81878Y145737D01*
X82490Y145884D01*
X83072Y146125D01*
X83608Y146454D01*
X84087Y146863D01*
X84496Y147342D01*
X84825Y147878D01*
X85066Y148460D01*
X85213Y149072D01*
X85250Y149700D01*
X85213Y150328D01*
X85066Y150940D01*
X84825Y151522D01*
X84496Y152058D01*
X84087Y152537D01*
X83608Y152946D01*
X83072Y153275D01*
X82490Y153516D01*
X81878Y153663D01*
X81250Y153712D01*
X80622Y153663D01*
X80548Y153645D01*
X74726Y159467D01*
Y161960D01*
X79871Y161969D01*
X80024Y162006D01*
X80169Y162066D01*
X80304Y162148D01*
X80423Y162251D01*
X80526Y162370D01*
X80608Y162505D01*
X80668Y162650D01*
X80705Y162803D01*
X80714Y162960D01*
X80705Y170597D01*
X80668Y170750D01*
X80608Y170895D01*
X80526Y171030D01*
X80423Y171149D01*
X80304Y171252D01*
X80169Y171334D01*
X80155Y171340D01*
Y174677D01*
X80164Y174795D01*
X80127Y175266D01*
X80127Y175266D01*
Y175266D01*
X80056Y175561D01*
X80017Y175725D01*
X80017Y175725D01*
X80017Y175725D01*
X79933Y175927D01*
X79836Y176161D01*
X79836Y176161D01*
X79836Y176161D01*
X79736Y176325D01*
X79590Y176564D01*
X79590Y176564D01*
X79590Y176564D01*
X79283Y176923D01*
X79193Y176999D01*
X76735Y179458D01*
X76713Y179828D01*
X76566Y180440D01*
X76325Y181022D01*
X75996Y181558D01*
X75587Y182037D01*
X75108Y182446D01*
X74726Y182680D01*
Y184042D01*
G37*
G36*
X93754Y259102D02*X100000Y259103D01*
Y241013D01*
X99454Y240546D01*
X99326Y240397D01*
X96103Y237174D01*
X95954Y237046D01*
X95442Y236448D01*
X95031Y235777D01*
X94730Y235050D01*
X94546Y234285D01*
X94546Y234284D01*
X94485Y233500D01*
X94500Y233304D01*
Y222196D01*
X94485Y222000D01*
X94546Y221215D01*
Y221215D01*
X94730Y220450D01*
X94818Y220237D01*
X95031Y219723D01*
X95286Y219307D01*
X95442Y219052D01*
X95954Y218454D01*
X96103Y218326D01*
X100000Y214429D01*
Y179950D01*
X93754D01*
Y193091D01*
X94566Y193127D01*
X95375Y193237D01*
X96171Y193418D01*
X96947Y193670D01*
X97698Y193991D01*
X98417Y194377D01*
X99099Y194827D01*
X99737Y195335D01*
X99772Y195369D01*
X99800Y195409D01*
X99821Y195453D01*
X99836Y195499D01*
X99843Y195547D01*
X99842Y195595D01*
X99834Y195643D01*
X99819Y195689D01*
X99796Y195732D01*
X99767Y195771D01*
X99733Y195805D01*
X99693Y195834D01*
X99650Y195855D01*
X99603Y195870D01*
X99555Y195877D01*
X99507Y195876D01*
X99459Y195868D01*
X99413Y195853D01*
X99370Y195830D01*
X99331Y195801D01*
X98741Y195320D01*
X98105Y194900D01*
X97434Y194540D01*
X96733Y194241D01*
X96009Y194006D01*
X95266Y193836D01*
X94511Y193734D01*
X93754Y193700D01*
Y210700D01*
X94511Y210666D01*
X95266Y210564D01*
X96009Y210394D01*
X96733Y210159D01*
X97434Y209860D01*
X98105Y209500D01*
X98741Y209080D01*
X99337Y208606D01*
X99374Y208577D01*
X99416Y208555D01*
X99461Y208540D01*
X99507Y208532D01*
X99555Y208532D01*
X99601Y208539D01*
X99646Y208553D01*
X99689Y208574D01*
X99727Y208601D01*
X99761Y208634D01*
X99789Y208672D01*
X99811Y208714D01*
X99826Y208759D01*
X99834Y208805D01*
X99834Y208853D01*
X99827Y208899D01*
X99813Y208944D01*
X99792Y208987D01*
X99765Y209025D01*
X99731Y209058D01*
X99099Y209573D01*
X98417Y210023D01*
X97698Y210409D01*
X96947Y210730D01*
X96171Y210982D01*
X95375Y211163D01*
X94566Y211273D01*
X93754Y211309D01*
Y259102D01*
G37*
G36*
X86034Y259102D02*X93754Y259102D01*
Y211309D01*
X93750Y211309D01*
X92934Y211273D01*
X92125Y211163D01*
X91329Y210982D01*
X90553Y210730D01*
X89802Y210409D01*
X89083Y210023D01*
X88401Y209573D01*
X87763Y209065D01*
X87728Y209031D01*
X87700Y208991D01*
X87679Y208947D01*
X87664Y208901D01*
X87657Y208853D01*
X87658Y208805D01*
X87666Y208757D01*
X87681Y208711D01*
X87704Y208668D01*
X87733Y208629D01*
X87767Y208595D01*
X87807Y208566D01*
X87850Y208545D01*
X87897Y208530D01*
X87945Y208523D01*
X87993Y208524D01*
X88041Y208532D01*
X88087Y208547D01*
X88130Y208570D01*
X88169Y208599D01*
X88759Y209080D01*
X89395Y209500D01*
X90066Y209860D01*
X90767Y210159D01*
X91491Y210394D01*
X92234Y210564D01*
X92989Y210666D01*
X93750Y210700D01*
X93754Y210700D01*
Y193700D01*
X93750Y193700D01*
X92989Y193734D01*
X92234Y193836D01*
X91491Y194006D01*
X90767Y194241D01*
X90066Y194540D01*
X89395Y194900D01*
X88759Y195320D01*
X88163Y195794D01*
X88126Y195823D01*
X88084Y195845D01*
X88039Y195860D01*
X87993Y195868D01*
X87945Y195868D01*
X87899Y195861D01*
X87854Y195847D01*
X87811Y195826D01*
X87773Y195799D01*
X87739Y195766D01*
X87711Y195728D01*
X87689Y195686D01*
X87674Y195641D01*
X87666Y195595D01*
X87666Y195547D01*
X87673Y195501D01*
X87687Y195456D01*
X87708Y195413D01*
X87735Y195375D01*
X87769Y195342D01*
X88401Y194827D01*
X89083Y194377D01*
X89802Y193991D01*
X90553Y193670D01*
X91329Y193418D01*
X92125Y193237D01*
X92934Y193127D01*
X93750Y193091D01*
X93754Y193091D01*
Y179950D01*
X86034D01*
Y197371D01*
X86377Y196851D01*
X86885Y196213D01*
X86919Y196178D01*
X86959Y196150D01*
X87003Y196129D01*
X87049Y196114D01*
X87097Y196107D01*
X87145Y196108D01*
X87193Y196116D01*
X87239Y196131D01*
X87282Y196154D01*
X87321Y196183D01*
X87355Y196217D01*
X87384Y196257D01*
X87405Y196300D01*
X87420Y196347D01*
X87427Y196395D01*
X87426Y196443D01*
X87418Y196491D01*
X87403Y196537D01*
X87380Y196580D01*
X87351Y196619D01*
X86870Y197209D01*
X86450Y197845D01*
X86090Y198516D01*
X86034Y198647D01*
Y205753D01*
X86090Y205884D01*
X86450Y206555D01*
X86870Y207191D01*
X87344Y207787D01*
X87373Y207824D01*
X87395Y207866D01*
X87410Y207911D01*
X87418Y207957D01*
X87418Y208005D01*
X87411Y208051D01*
X87397Y208096D01*
X87376Y208139D01*
X87349Y208177D01*
X87316Y208211D01*
X87278Y208239D01*
X87236Y208261D01*
X87191Y208276D01*
X87145Y208284D01*
X87097Y208284D01*
X87051Y208277D01*
X87006Y208263D01*
X86963Y208242D01*
X86925Y208215D01*
X86892Y208181D01*
X86377Y207549D01*
X86034Y207029D01*
Y259102D01*
G37*
G36*
Y198647D02*X85791Y199217D01*
X85556Y199941D01*
X85386Y200684D01*
X85284Y201439D01*
X85250Y202200D01*
X85284Y202961D01*
X85386Y203716D01*
X85556Y204459D01*
X85791Y205183D01*
X86034Y205753D01*
Y198647D01*
G37*
G36*
X75980Y259101D02*X86034Y259102D01*
Y207029D01*
X85927Y206867D01*
X85541Y206148D01*
X85220Y205397D01*
X84968Y204621D01*
X84787Y203825D01*
X84677Y203016D01*
X84641Y202200D01*
X84677Y201384D01*
X84787Y200575D01*
X84968Y199779D01*
X85220Y199003D01*
X85541Y198252D01*
X85927Y197533D01*
X86034Y197371D01*
Y179950D01*
X85182D01*
X76683Y188449D01*
X76713Y188572D01*
X76750Y189200D01*
X76713Y189828D01*
X76566Y190440D01*
X76325Y191022D01*
X75996Y191558D01*
X75980Y191577D01*
Y196823D01*
X75996Y196842D01*
X76325Y197378D01*
X76566Y197960D01*
X76713Y198572D01*
X76750Y199200D01*
X76713Y199828D01*
X76566Y200440D01*
X76325Y201022D01*
X75996Y201558D01*
X75980Y201577D01*
Y206823D01*
X75996Y206842D01*
X76325Y207378D01*
X76566Y207960D01*
X76713Y208572D01*
X76750Y209200D01*
X76713Y209828D01*
X76566Y210440D01*
X76325Y211022D01*
X75996Y211558D01*
X75980Y211577D01*
Y225914D01*
X76048Y225928D01*
X76121Y225955D01*
X76190Y225994D01*
X76252Y226043D01*
X76305Y226101D01*
X76348Y226166D01*
X76380Y226238D01*
X76456Y226471D01*
X76510Y226711D01*
X76542Y226955D01*
X76553Y227200D01*
X76542Y227445D01*
X76510Y227689D01*
X76456Y227929D01*
X76382Y228163D01*
X76350Y228235D01*
X76306Y228300D01*
X76253Y228359D01*
X76191Y228408D01*
X76122Y228446D01*
X76048Y228474D01*
X75980Y228488D01*
Y259101D01*
G37*
G36*
Y201577D02*X75587Y202037D01*
X75108Y202446D01*
X74726Y202680D01*
Y205720D01*
X75108Y205954D01*
X75587Y206363D01*
X75980Y206823D01*
Y201577D01*
G37*
G36*
Y191577D02*X75587Y192037D01*
X75108Y192446D01*
X74726Y192680D01*
Y195720D01*
X75108Y195954D01*
X75587Y196363D01*
X75980Y196823D01*
Y191577D01*
G37*
G36*
X74726Y259101D02*X75980Y259101D01*
Y228488D01*
X75971Y228490D01*
X75892Y228493D01*
X75813Y228484D01*
X75737Y228463D01*
X75665Y228430D01*
X75600Y228386D01*
X75541Y228333D01*
X75492Y228271D01*
X75454Y228202D01*
X75426Y228128D01*
X75410Y228051D01*
X75407Y227972D01*
X75416Y227893D01*
X75439Y227818D01*
X75488Y227668D01*
X75522Y227514D01*
X75543Y227358D01*
X75550Y227200D01*
X75543Y227042D01*
X75522Y226886D01*
X75488Y226732D01*
X75440Y226582D01*
X75418Y226506D01*
X75409Y226428D01*
X75412Y226350D01*
X75428Y226273D01*
X75455Y226199D01*
X75494Y226130D01*
X75543Y226069D01*
X75601Y226015D01*
X75666Y225972D01*
X75738Y225939D01*
X75814Y225918D01*
X75892Y225909D01*
X75970Y225912D01*
X75980Y225914D01*
Y211577D01*
X75587Y212037D01*
X75108Y212446D01*
X74726Y212680D01*
Y224574D01*
X74785Y224600D01*
X74850Y224644D01*
X74909Y224697D01*
X74958Y224759D01*
X74996Y224828D01*
X75024Y224902D01*
X75040Y224979D01*
X75043Y225058D01*
X75034Y225137D01*
X75013Y225213D01*
X74980Y225285D01*
X74936Y225350D01*
X74883Y225409D01*
X74821Y225458D01*
X74752Y225496D01*
X74726Y225506D01*
Y228896D01*
X74751Y228905D01*
X74820Y228944D01*
X74881Y228993D01*
X74935Y229051D01*
X74978Y229116D01*
X75011Y229188D01*
X75032Y229264D01*
X75041Y229342D01*
X75038Y229420D01*
X75022Y229498D01*
X74995Y229571D01*
X74956Y229640D01*
X74907Y229702D01*
X74849Y229755D01*
X74784Y229798D01*
X74726Y229824D01*
Y259101D01*
G37*
G36*
Y268200D02*X100000D01*
Y266397D01*
X74726Y266395D01*
Y268200D01*
G37*
G36*
X58751Y132200D02*X59682D01*
X59800Y132191D01*
X60271Y132228D01*
X60271Y132228D01*
X60730Y132338D01*
X61166Y132519D01*
X61569Y132765D01*
X61928Y133072D01*
X62004Y133162D01*
X63648Y134805D01*
X63607Y134707D01*
X63570Y134554D01*
X63561Y134397D01*
X63570Y124004D01*
X63607Y123851D01*
X63667Y123706D01*
X63749Y123571D01*
X63852Y123452D01*
X63971Y123349D01*
X64106Y123267D01*
X64251Y123207D01*
X64404Y123170D01*
X64561Y123161D01*
X72198Y123170D01*
X72351Y123207D01*
X72496Y123267D01*
X72631Y123349D01*
X72750Y123452D01*
X72853Y123571D01*
X72935Y123706D01*
X72995Y123851D01*
X73032Y124004D01*
X73041Y124161D01*
X73032Y134554D01*
X72995Y134707D01*
X72935Y134852D01*
X72853Y134987D01*
X72750Y135106D01*
X72631Y135209D01*
X72496Y135291D01*
X72351Y135351D01*
X72198Y135388D01*
X72041Y135397D01*
X64404Y135388D01*
X64251Y135351D01*
X64153Y135310D01*
X65643Y136800D01*
X74726D01*
Y110200D01*
X58751D01*
Y121103D01*
X59039Y121573D01*
X59277Y122148D01*
X59422Y122753D01*
X59459Y123373D01*
X59422Y123993D01*
X59277Y124598D01*
X59039Y125173D01*
X58751Y125643D01*
Y132200D01*
G37*
G36*
X60980Y146034D02*X60993Y146011D01*
X61096Y145892D01*
X61215Y145789D01*
X61350Y145707D01*
X61495Y145647D01*
X61648Y145610D01*
X61805Y145601D01*
X70230Y145610D01*
X70383Y145647D01*
X70528Y145707D01*
X70663Y145789D01*
X70782Y145892D01*
X70885Y146011D01*
X70967Y146146D01*
X71027Y146291D01*
X71064Y146444D01*
X71073Y146601D01*
X71065Y154643D01*
X74726Y150982D01*
Y142800D01*
X64518D01*
X64400Y142809D01*
X63929Y142772D01*
X63470Y142662D01*
X63034Y142481D01*
X62631Y142235D01*
X62631Y142234D01*
X62272Y141928D01*
X62196Y141838D01*
X60980Y140623D01*
Y146034D01*
G37*
G36*
Y166822D02*X61791Y166011D01*
X61795Y162803D01*
X61832Y162650D01*
X61892Y162505D01*
X61974Y162370D01*
X62077Y162251D01*
X62196Y162148D01*
X62250Y162116D01*
Y160818D01*
X62241Y160700D01*
X62278Y160229D01*
Y160229D01*
X62299Y160140D01*
X62388Y159770D01*
X62569Y159334D01*
X62815Y158931D01*
X62815Y158931D01*
X63122Y158572D01*
X63212Y158496D01*
X64546Y157162D01*
X64622Y157072D01*
X64981Y156766D01*
X64981Y156765D01*
X65384Y156519D01*
X65820Y156338D01*
X66151Y156259D01*
X61648Y156254D01*
X61495Y156217D01*
X61350Y156157D01*
X61215Y156075D01*
X61096Y155972D01*
X60993Y155853D01*
X60980Y155830D01*
Y159914D01*
X61048Y159928D01*
X61121Y159955D01*
X61190Y159994D01*
X61252Y160043D01*
X61305Y160101D01*
X61348Y160166D01*
X61380Y160238D01*
X61456Y160471D01*
X61510Y160711D01*
X61542Y160955D01*
X61553Y161200D01*
X61542Y161445D01*
X61510Y161689D01*
X61456Y161929D01*
X61382Y162163D01*
X61350Y162235D01*
X61306Y162300D01*
X61253Y162359D01*
X61191Y162408D01*
X61122Y162446D01*
X61048Y162474D01*
X60980Y162488D01*
Y166822D01*
G37*
G36*
X58751Y169051D02*X60980Y166822D01*
Y162488D01*
X60971Y162490D01*
X60892Y162493D01*
X60813Y162484D01*
X60737Y162463D01*
X60665Y162430D01*
X60600Y162386D01*
X60541Y162333D01*
X60492Y162271D01*
X60454Y162202D01*
X60426Y162128D01*
X60410Y162051D01*
X60407Y161972D01*
X60416Y161893D01*
X60439Y161818D01*
X60488Y161668D01*
X60522Y161514D01*
X60543Y161358D01*
X60550Y161200D01*
X60543Y161042D01*
X60522Y160886D01*
X60488Y160732D01*
X60440Y160582D01*
X60418Y160506D01*
X60409Y160428D01*
X60412Y160350D01*
X60428Y160273D01*
X60455Y160199D01*
X60494Y160130D01*
X60543Y160069D01*
X60601Y160015D01*
X60666Y159972D01*
X60738Y159939D01*
X60814Y159918D01*
X60892Y159909D01*
X60970Y159912D01*
X60980Y159914D01*
Y155830D01*
X60911Y155718D01*
X60851Y155573D01*
X60814Y155420D01*
X60805Y155263D01*
X60814Y146444D01*
X60851Y146291D01*
X60911Y146146D01*
X60980Y146034D01*
Y140623D01*
X58751Y138394D01*
Y138820D01*
X59039Y139290D01*
X59277Y139865D01*
X59422Y140470D01*
X59459Y141090D01*
X59422Y141710D01*
X59277Y142315D01*
X59039Y142890D01*
X58751Y143360D01*
Y158397D01*
X58995Y158408D01*
X59239Y158440D01*
X59479Y158494D01*
X59713Y158568D01*
X59785Y158600D01*
X59850Y158644D01*
X59909Y158697D01*
X59958Y158759D01*
X59996Y158828D01*
X60024Y158902D01*
X60040Y158979D01*
X60043Y159058D01*
X60034Y159137D01*
X60013Y159213D01*
X59980Y159285D01*
X59936Y159350D01*
X59883Y159409D01*
X59821Y159458D01*
X59752Y159496D01*
X59678Y159524D01*
X59601Y159540D01*
X59522Y159543D01*
X59443Y159534D01*
X59368Y159511D01*
X59218Y159462D01*
X59064Y159428D01*
X58908Y159407D01*
X58751Y159400D01*
Y163000D01*
X58908Y162993D01*
X59064Y162972D01*
X59218Y162938D01*
X59368Y162890D01*
X59444Y162868D01*
X59522Y162859D01*
X59600Y162862D01*
X59677Y162878D01*
X59751Y162905D01*
X59820Y162944D01*
X59881Y162993D01*
X59935Y163051D01*
X59978Y163116D01*
X60011Y163188D01*
X60032Y163264D01*
X60041Y163342D01*
X60038Y163420D01*
X60022Y163498D01*
X59995Y163571D01*
X59956Y163640D01*
X59907Y163702D01*
X59849Y163755D01*
X59784Y163798D01*
X59712Y163830D01*
X59479Y163906D01*
X59239Y163960D01*
X58995Y163992D01*
X58751Y164003D01*
Y169051D01*
G37*
G36*
Y138394D02*X58557Y138200D01*
X58209D01*
X58310Y138286D01*
X58714Y138759D01*
X58751Y138820D01*
Y138394D01*
G37*
G36*
X56520Y119551D02*X56731Y119602D01*
X57306Y119840D01*
X57837Y120165D01*
X58310Y120569D01*
X58714Y121042D01*
X58751Y121103D01*
Y110200D01*
X56520D01*
Y119551D01*
G37*
G36*
Y132200D02*X58751D01*
Y125643D01*
X58714Y125704D01*
X58310Y126177D01*
X57837Y126581D01*
X57306Y126906D01*
X56731Y127144D01*
X56520Y127195D01*
Y132200D01*
G37*
G36*
Y171282D02*X58751Y169051D01*
Y164003D01*
X58750Y164003D01*
X58505Y163992D01*
X58261Y163960D01*
X58021Y163906D01*
X57787Y163832D01*
X57715Y163800D01*
X57650Y163756D01*
X57591Y163703D01*
X57542Y163641D01*
X57504Y163572D01*
X57476Y163498D01*
X57460Y163421D01*
X57457Y163342D01*
X57466Y163263D01*
X57487Y163187D01*
X57520Y163115D01*
X57564Y163050D01*
X57617Y162991D01*
X57679Y162942D01*
X57748Y162904D01*
X57822Y162876D01*
X57899Y162860D01*
X57978Y162857D01*
X58057Y162866D01*
X58132Y162889D01*
X58282Y162938D01*
X58436Y162972D01*
X58592Y162993D01*
X58750Y163000D01*
X58751Y163000D01*
Y159400D01*
X58750Y159400D01*
X58592Y159407D01*
X58436Y159428D01*
X58282Y159462D01*
X58132Y159510D01*
X58056Y159532D01*
X57978Y159541D01*
X57900Y159538D01*
X57823Y159522D01*
X57749Y159495D01*
X57680Y159456D01*
X57619Y159407D01*
X57565Y159349D01*
X57522Y159284D01*
X57489Y159212D01*
X57468Y159136D01*
X57459Y159058D01*
X57462Y158980D01*
X57478Y158902D01*
X57505Y158829D01*
X57544Y158760D01*
X57593Y158698D01*
X57651Y158645D01*
X57716Y158602D01*
X57788Y158570D01*
X58021Y158494D01*
X58261Y158440D01*
X58505Y158408D01*
X58750Y158397D01*
X58751Y158397D01*
Y143360D01*
X58714Y143421D01*
X58310Y143894D01*
X57837Y144298D01*
X57306Y144623D01*
X56731Y144861D01*
X56520Y144912D01*
Y159912D01*
X56529Y159910D01*
X56608Y159907D01*
X56687Y159916D01*
X56763Y159937D01*
X56835Y159970D01*
X56900Y160014D01*
X56959Y160067D01*
X57008Y160129D01*
X57046Y160198D01*
X57074Y160272D01*
X57090Y160349D01*
X57093Y160428D01*
X57084Y160507D01*
X57061Y160582D01*
X57012Y160732D01*
X56978Y160886D01*
X56957Y161042D01*
X56950Y161200D01*
X56957Y161358D01*
X56978Y161514D01*
X57012Y161668D01*
X57060Y161818D01*
X57082Y161894D01*
X57091Y161972D01*
X57088Y162050D01*
X57072Y162127D01*
X57045Y162201D01*
X57006Y162270D01*
X56957Y162331D01*
X56899Y162385D01*
X56834Y162428D01*
X56762Y162461D01*
X56686Y162482D01*
X56608Y162491D01*
X56530Y162488D01*
X56520Y162486D01*
Y171282D01*
G37*
G36*
X40348Y161750D02*X44509Y161757D01*
X44662Y161794D01*
X44807Y161854D01*
X44942Y161936D01*
X45061Y162039D01*
X45164Y162158D01*
X45246Y162293D01*
X45306Y162438D01*
X45343Y162591D01*
X45352Y162748D01*
X45343Y168809D01*
X45306Y168962D01*
X45246Y169107D01*
X45164Y169242D01*
X45061Y169361D01*
X45000Y169414D01*
Y175888D01*
X45108Y175954D01*
X45396Y176200D01*
X51602D01*
X56520Y171282D01*
Y162486D01*
X56452Y162472D01*
X56379Y162445D01*
X56310Y162406D01*
X56248Y162357D01*
X56195Y162299D01*
X56152Y162234D01*
X56120Y162162D01*
X56044Y161929D01*
X55990Y161689D01*
X55958Y161445D01*
X55947Y161200D01*
X55958Y160955D01*
X55990Y160711D01*
X56044Y160471D01*
X56118Y160237D01*
X56150Y160165D01*
X56194Y160100D01*
X56247Y160041D01*
X56309Y159992D01*
X56378Y159954D01*
X56452Y159926D01*
X56520Y159912D01*
Y144912D01*
X56126Y145006D01*
X55506Y145055D01*
X54886Y145006D01*
X54281Y144861D01*
X53706Y144623D01*
X53175Y144298D01*
X52702Y143894D01*
X52298Y143421D01*
X52010Y142951D01*
Y147184D01*
X53301Y147185D01*
X53454Y147222D01*
X53599Y147282D01*
X53734Y147364D01*
X53853Y147467D01*
X53956Y147586D01*
X54038Y147721D01*
X54098Y147866D01*
X54135Y148019D01*
X54144Y148176D01*
X54135Y156995D01*
X54098Y157148D01*
X54038Y157293D01*
X53956Y157428D01*
X53853Y157547D01*
X53734Y157650D01*
X53599Y157732D01*
X53454Y157792D01*
X53301Y157829D01*
X53144Y157838D01*
X44719Y157829D01*
X44566Y157792D01*
X44421Y157732D01*
X44286Y157650D01*
X44167Y157547D01*
X44064Y157428D01*
X43982Y157293D01*
X43922Y157148D01*
X43885Y156995D01*
X43876Y156838D01*
X43885Y148019D01*
X43922Y147866D01*
X43982Y147721D01*
X44064Y147586D01*
X44167Y147467D01*
X44286Y147364D01*
X44421Y147282D01*
X44566Y147222D01*
X44719Y147185D01*
X44876Y147176D01*
X46010Y147177D01*
Y138058D01*
X46001Y137940D01*
X46038Y137469D01*
X46148Y137010D01*
X46329Y136574D01*
X46575Y136171D01*
X46576Y136171D01*
X46882Y135812D01*
X46972Y135736D01*
X49546Y133162D01*
X49622Y133072D01*
X49981Y132766D01*
X49981Y132765D01*
X50384Y132519D01*
X50820Y132338D01*
X51279Y132228D01*
X51750Y132191D01*
X51868Y132200D01*
X56520D01*
Y127195D01*
X56126Y127289D01*
X55506Y127338D01*
X54886Y127289D01*
X54281Y127144D01*
X53706Y126906D01*
X53175Y126581D01*
X52702Y126177D01*
X52298Y125704D01*
X51973Y125173D01*
X51735Y124598D01*
X51590Y123993D01*
X51541Y123373D01*
X51590Y122753D01*
X51735Y122148D01*
X51973Y121573D01*
X52298Y121042D01*
X52702Y120569D01*
X53175Y120165D01*
X53706Y119840D01*
X54281Y119602D01*
X54886Y119457D01*
X55506Y119408D01*
X56126Y119457D01*
X56520Y119551D01*
Y110200D01*
X40348D01*
Y123169D01*
X41096Y123170D01*
X41249Y123207D01*
X41394Y123267D01*
X41529Y123349D01*
X41648Y123452D01*
X41751Y123571D01*
X41833Y123706D01*
X41893Y123851D01*
X41930Y124004D01*
X41939Y124161D01*
X41930Y134554D01*
X41893Y134707D01*
X41833Y134852D01*
X41751Y134987D01*
X41648Y135106D01*
X41529Y135209D01*
X41394Y135291D01*
X41249Y135351D01*
X41096Y135388D01*
X40939Y135397D01*
X40348Y135396D01*
Y136551D01*
X44639Y136555D01*
X44792Y136592D01*
X44937Y136652D01*
X45072Y136734D01*
X45191Y136837D01*
X45294Y136956D01*
X45376Y137091D01*
X45436Y137236D01*
X45473Y137389D01*
X45482Y137546D01*
X45473Y146365D01*
X45436Y146518D01*
X45376Y146663D01*
X45294Y146798D01*
X45191Y146917D01*
X45072Y147020D01*
X44937Y147102D01*
X44792Y147162D01*
X44639Y147199D01*
X44482Y147208D01*
X40348Y147203D01*
Y161750D01*
G37*
G36*
Y175991D02*X40392Y175954D01*
X40500Y175888D01*
Y169645D01*
X40348Y169645D01*
Y175991D01*
G37*
G36*
X71520Y175382D02*X72122Y175237D01*
X72500Y175207D01*
X74155Y173552D01*
Y171340D01*
X74141Y171334D01*
X74006Y171252D01*
X73887Y171149D01*
X73784Y171030D01*
X73702Y170895D01*
X73642Y170750D01*
X73605Y170597D01*
X73596Y170440D01*
X73605Y162803D01*
X73642Y162650D01*
X73702Y162505D01*
X73784Y162370D01*
X73887Y162251D01*
X74006Y162148D01*
X74141Y162066D01*
X74286Y162006D01*
X74439Y161969D01*
X74596Y161960D01*
X74726Y161960D01*
Y159467D01*
X72954Y161238D01*
X72878Y161328D01*
X72519Y161635D01*
X72116Y161881D01*
X71680Y162062D01*
X71520Y162100D01*
Y175382D01*
G37*
G36*
Y185382D02*X72122Y185237D01*
X72750Y185188D01*
X73378Y185237D01*
X73501Y185267D01*
X74726Y184042D01*
Y182680D01*
X74572Y182775D01*
X73990Y183016D01*
X73378Y183163D01*
X72750Y183212D01*
X72122Y183163D01*
X71520Y183018D01*
Y185382D01*
G37*
G36*
Y195382D02*X72122Y195237D01*
X72750Y195188D01*
X73378Y195237D01*
X73990Y195384D01*
X74572Y195625D01*
X74726Y195720D01*
Y192680D01*
X74572Y192775D01*
X73990Y193016D01*
X73378Y193163D01*
X72750Y193212D01*
X72122Y193163D01*
X71520Y193018D01*
Y195382D01*
G37*
G36*
Y205382D02*X72122Y205237D01*
X72750Y205188D01*
X73378Y205237D01*
X73990Y205384D01*
X74572Y205625D01*
X74726Y205720D01*
Y202680D01*
X74572Y202775D01*
X73990Y203016D01*
X73378Y203163D01*
X72750Y203212D01*
X72122Y203163D01*
X71520Y203018D01*
Y205382D01*
G37*
G36*
Y259101D02*X74726Y259101D01*
Y229824D01*
X74712Y229830D01*
X74479Y229906D01*
X74239Y229960D01*
X73995Y229992D01*
X73750Y230003D01*
X73505Y229992D01*
X73261Y229960D01*
X73021Y229906D01*
X72787Y229832D01*
X72715Y229800D01*
X72650Y229756D01*
X72591Y229703D01*
X72542Y229641D01*
X72504Y229572D01*
X72476Y229498D01*
X72460Y229421D01*
X72457Y229342D01*
X72466Y229263D01*
X72487Y229187D01*
X72520Y229115D01*
X72564Y229050D01*
X72617Y228991D01*
X72679Y228942D01*
X72748Y228904D01*
X72822Y228876D01*
X72899Y228860D01*
X72978Y228857D01*
X73057Y228866D01*
X73132Y228889D01*
X73282Y228938D01*
X73436Y228972D01*
X73592Y228993D01*
X73750Y229000D01*
X73908Y228993D01*
X74064Y228972D01*
X74218Y228938D01*
X74368Y228890D01*
X74444Y228868D01*
X74522Y228859D01*
X74600Y228862D01*
X74677Y228878D01*
X74726Y228896D01*
Y225506D01*
X74678Y225524D01*
X74601Y225540D01*
X74522Y225543D01*
X74443Y225534D01*
X74368Y225511D01*
X74218Y225462D01*
X74064Y225428D01*
X73908Y225407D01*
X73750Y225400D01*
X73592Y225407D01*
X73436Y225428D01*
X73282Y225462D01*
X73132Y225510D01*
X73056Y225532D01*
X72978Y225541D01*
X72900Y225538D01*
X72823Y225522D01*
X72749Y225495D01*
X72680Y225456D01*
X72619Y225407D01*
X72565Y225349D01*
X72522Y225284D01*
X72489Y225212D01*
X72468Y225136D01*
X72459Y225058D01*
X72462Y224980D01*
X72478Y224902D01*
X72505Y224829D01*
X72544Y224760D01*
X72593Y224698D01*
X72651Y224645D01*
X72716Y224602D01*
X72788Y224570D01*
X73021Y224494D01*
X73261Y224440D01*
X73505Y224408D01*
X73750Y224397D01*
X73995Y224408D01*
X74239Y224440D01*
X74479Y224494D01*
X74713Y224568D01*
X74726Y224574D01*
Y212680D01*
X74572Y212775D01*
X73990Y213016D01*
X73378Y213163D01*
X72750Y213212D01*
X72122Y213163D01*
X71520Y213018D01*
Y225912D01*
X71529Y225910D01*
X71608Y225907D01*
X71687Y225916D01*
X71763Y225937D01*
X71835Y225970D01*
X71900Y226014D01*
X71959Y226067D01*
X72008Y226129D01*
X72046Y226198D01*
X72074Y226272D01*
X72090Y226349D01*
X72093Y226428D01*
X72084Y226507D01*
X72061Y226582D01*
X72012Y226732D01*
X71978Y226886D01*
X71957Y227042D01*
X71950Y227200D01*
X71957Y227358D01*
X71978Y227514D01*
X72012Y227668D01*
X72060Y227818D01*
X72082Y227894D01*
X72091Y227972D01*
X72088Y228050D01*
X72072Y228127D01*
X72045Y228201D01*
X72006Y228270D01*
X71957Y228331D01*
X71899Y228385D01*
X71834Y228428D01*
X71762Y228461D01*
X71686Y228482D01*
X71608Y228491D01*
X71530Y228488D01*
X71520Y228486D01*
Y259101D01*
G37*
G36*
Y268200D02*X74726D01*
Y266395D01*
X71520Y266395D01*
Y268200D01*
G37*
G36*
X53466Y256753D02*X53709Y256183D01*
X53944Y255459D01*
X54114Y254716D01*
X54216Y253961D01*
X54250Y253200D01*
X54216Y252439D01*
X54114Y251684D01*
X53944Y250941D01*
X53709Y250217D01*
X53466Y249647D01*
Y256753D01*
G37*
G36*
Y268200D02*X71520D01*
Y266395D01*
X62106Y266394D01*
X62014Y266372D01*
X61927Y266336D01*
X61846Y266287D01*
X61774Y266226D01*
X61713Y266154D01*
X61664Y266073D01*
X61628Y265986D01*
X61606Y265894D01*
X61600Y265800D01*
X61606Y259606D01*
X61628Y259514D01*
X61664Y259427D01*
X61713Y259346D01*
X61774Y259274D01*
X61846Y259213D01*
X61927Y259164D01*
X62014Y259128D01*
X62106Y259106D01*
X62200Y259100D01*
X71520Y259101D01*
Y228486D01*
X71452Y228472D01*
X71379Y228445D01*
X71310Y228406D01*
X71248Y228357D01*
X71195Y228299D01*
X71152Y228234D01*
X71120Y228162D01*
X71044Y227929D01*
X70990Y227689D01*
X70958Y227445D01*
X70947Y227200D01*
X70958Y226955D01*
X70990Y226711D01*
X71044Y226471D01*
X71118Y226237D01*
X71150Y226165D01*
X71194Y226100D01*
X71247Y226041D01*
X71309Y225992D01*
X71378Y225954D01*
X71452Y225926D01*
X71520Y225912D01*
Y213018D01*
X71510Y213016D01*
X70928Y212775D01*
X70392Y212446D01*
X69913Y212037D01*
X69504Y211558D01*
X69175Y211022D01*
X68934Y210440D01*
X68787Y209828D01*
X68738Y209200D01*
X68787Y208572D01*
X68934Y207960D01*
X69175Y207378D01*
X69504Y206842D01*
X69913Y206363D01*
X70392Y205954D01*
X70928Y205625D01*
X71510Y205384D01*
X71520Y205382D01*
Y203018D01*
X71510Y203016D01*
X70928Y202775D01*
X70392Y202446D01*
X70281Y202351D01*
X68000Y204632D01*
Y228523D01*
X68022Y228549D01*
X68253Y228925D01*
X68421Y229332D01*
X68524Y229761D01*
X68550Y230200D01*
X68524Y230639D01*
X68421Y231068D01*
X68253Y231475D01*
X68022Y231851D01*
X67736Y232186D01*
X67401Y232472D01*
X67025Y232703D01*
X66618Y232871D01*
X66189Y232974D01*
X65750Y233009D01*
X65311Y232974D01*
X64882Y232871D01*
X64475Y232703D01*
X64099Y232472D01*
X63764Y232186D01*
X63478Y231851D01*
X63247Y231475D01*
X63079Y231068D01*
X62976Y230639D01*
X62941Y230200D01*
X62976Y229761D01*
X63079Y229332D01*
X63247Y228925D01*
X63478Y228549D01*
X63500Y228523D01*
Y203788D01*
X63493Y203700D01*
X63521Y203347D01*
Y203347D01*
X63604Y203003D01*
X63739Y202675D01*
X63809Y202561D01*
X63924Y202373D01*
X63924Y202373D01*
X64154Y202104D01*
X64221Y202047D01*
X68597Y197671D01*
X68654Y197604D01*
X68923Y197374D01*
X68923Y197374D01*
X69111Y197259D01*
X69225Y197189D01*
X69313Y197153D01*
X69504Y196842D01*
X69913Y196363D01*
X70392Y195954D01*
X70928Y195625D01*
X71510Y195384D01*
X71520Y195382D01*
Y193018D01*
X71510Y193016D01*
X70928Y192775D01*
X70392Y192446D01*
X69913Y192037D01*
X69504Y191558D01*
X69175Y191022D01*
X68934Y190440D01*
X68787Y189828D01*
X68738Y189200D01*
X68787Y188572D01*
X68934Y187960D01*
X69175Y187378D01*
X69504Y186842D01*
X69913Y186363D01*
X70392Y185954D01*
X70928Y185625D01*
X71510Y185384D01*
X71520Y185382D01*
Y183018D01*
X71510Y183016D01*
X70928Y182775D01*
X70392Y182446D01*
X69913Y182037D01*
X69504Y181558D01*
X69175Y181022D01*
X68934Y180440D01*
X68787Y179828D01*
X68738Y179200D01*
X68787Y178572D01*
X68934Y177960D01*
X69175Y177378D01*
X69504Y176842D01*
X69913Y176363D01*
X70392Y175954D01*
X70928Y175625D01*
X71510Y175384D01*
X71520Y175382D01*
Y162100D01*
X71221Y162172D01*
X70750Y162209D01*
X70632Y162200D01*
X68554D01*
X68613Y162251D01*
X68716Y162370D01*
X68798Y162505D01*
X68858Y162650D01*
X68895Y162803D01*
X68904Y162960D01*
X68895Y170597D01*
X68858Y170750D01*
X68798Y170895D01*
X68716Y171030D01*
X68613Y171149D01*
X68494Y171252D01*
X68359Y171334D01*
X68214Y171394D01*
X68061Y171431D01*
X67904Y171440D01*
X64853Y171435D01*
X55049Y181238D01*
X54973Y181328D01*
X54614Y181635D01*
X54211Y181881D01*
X53775Y182062D01*
X53466Y182136D01*
Y187200D01*
X54672D01*
X54750Y187194D01*
X55064Y187219D01*
X55064Y187219D01*
X55370Y187292D01*
X55661Y187412D01*
X55929Y187577D01*
X56169Y187781D01*
X56220Y187841D01*
X56271Y187893D01*
X56689Y187926D01*
X57118Y188029D01*
X57525Y188197D01*
X57901Y188428D01*
X58236Y188714D01*
X58522Y189049D01*
X58753Y189425D01*
X58921Y189832D01*
X59024Y190261D01*
X59050Y190700D01*
X59024Y191139D01*
X58921Y191568D01*
X58753Y191975D01*
X58522Y192351D01*
X58236Y192686D01*
X57901Y192972D01*
X57525Y193203D01*
X57118Y193371D01*
X56689Y193474D01*
X56250Y193509D01*
X55811Y193474D01*
X55382Y193371D01*
X54975Y193203D01*
X54599Y192972D01*
X54264Y192686D01*
X53978Y192351D01*
X53747Y191975D01*
X53579Y191568D01*
X53491Y191200D01*
X53466D01*
Y196885D01*
X53476Y196761D01*
X53579Y196332D01*
X53747Y195925D01*
X53978Y195549D01*
X54264Y195214D01*
X54599Y194928D01*
X54975Y194697D01*
X55382Y194529D01*
X55811Y194426D01*
X56250Y194391D01*
X56689Y194426D01*
X57118Y194529D01*
X57525Y194697D01*
X57901Y194928D01*
X58236Y195214D01*
X58522Y195549D01*
X58753Y195925D01*
X58921Y196332D01*
X59024Y196761D01*
X59050Y197200D01*
X59024Y197639D01*
X58921Y198068D01*
X58753Y198475D01*
X58522Y198851D01*
X58236Y199186D01*
X57901Y199472D01*
X57525Y199703D01*
X57118Y199871D01*
X56689Y199974D01*
X56271Y200007D01*
X55720Y200559D01*
X55669Y200619D01*
X55429Y200823D01*
X55161Y200988D01*
X54870Y201108D01*
X54564Y201181D01*
X54564Y201181D01*
X54250Y201206D01*
X54172Y201200D01*
X53466D01*
Y248371D01*
X53573Y248533D01*
X53959Y249252D01*
X54280Y250003D01*
X54532Y250779D01*
X54713Y251575D01*
X54823Y252384D01*
X54859Y253200D01*
X54823Y254016D01*
X54713Y254825D01*
X54532Y255621D01*
X54280Y256397D01*
X53959Y257148D01*
X53573Y257867D01*
X53466Y258029D01*
Y268200D01*
G37*
G36*
Y191200D02*X46216D01*
X45996Y191558D01*
X45587Y192037D01*
X45108Y192446D01*
X44572Y192775D01*
X43990Y193016D01*
X43378Y193163D01*
X42750Y193212D01*
X42122Y193163D01*
X41510Y193016D01*
X40928Y192775D01*
X40392Y192446D01*
X40348Y192409D01*
Y195991D01*
X40392Y195954D01*
X40928Y195625D01*
X41510Y195384D01*
X42122Y195237D01*
X42750Y195188D01*
X43378Y195237D01*
X43990Y195384D01*
X44572Y195625D01*
X45108Y195954D01*
X45587Y196363D01*
X45996Y196842D01*
X46216Y197200D01*
X53422D01*
X53443Y197179D01*
X53466Y196885D01*
Y191200D01*
G37*
G36*
Y182136D02*X53316Y182172D01*
X52845Y182209D01*
X52727Y182200D01*
X45396D01*
X45108Y182446D01*
X44572Y182775D01*
X43990Y183016D01*
X43378Y183163D01*
X42750Y183212D01*
X42122Y183163D01*
X41510Y183016D01*
X40928Y182775D01*
X40392Y182446D01*
X40348Y182409D01*
Y185991D01*
X40392Y185954D01*
X40928Y185625D01*
X41510Y185384D01*
X42122Y185237D01*
X42750Y185188D01*
X43378Y185237D01*
X43990Y185384D01*
X44572Y185625D01*
X45108Y185954D01*
X45587Y186363D01*
X45996Y186842D01*
X46216Y187200D01*
X53466D01*
Y182136D01*
G37*
G36*
X40348Y268200D02*X53466D01*
Y258029D01*
X53123Y258549D01*
X52615Y259187D01*
X52581Y259222D01*
X52541Y259250D01*
X52497Y259271D01*
X52451Y259286D01*
X52403Y259293D01*
X52355Y259292D01*
X52307Y259284D01*
X52261Y259269D01*
X52218Y259246D01*
X52179Y259217D01*
X52145Y259183D01*
X52116Y259143D01*
X52095Y259100D01*
X52080Y259053D01*
X52073Y259005D01*
X52074Y258957D01*
X52082Y258909D01*
X52097Y258863D01*
X52120Y258820D01*
X52149Y258781D01*
X52630Y258191D01*
X53050Y257555D01*
X53410Y256884D01*
X53466Y256753D01*
Y249647D01*
X53410Y249516D01*
X53050Y248845D01*
X52630Y248209D01*
X52156Y247613D01*
X52127Y247576D01*
X52105Y247534D01*
X52090Y247489D01*
X52082Y247443D01*
X52082Y247395D01*
X52089Y247349D01*
X52103Y247304D01*
X52124Y247261D01*
X52151Y247223D01*
X52184Y247189D01*
X52222Y247161D01*
X52264Y247139D01*
X52309Y247124D01*
X52355Y247116D01*
X52403Y247116D01*
X52449Y247123D01*
X52494Y247137D01*
X52537Y247158D01*
X52575Y247185D01*
X52608Y247219D01*
X53123Y247851D01*
X53466Y248371D01*
Y201200D01*
X46216D01*
X45996Y201558D01*
X45587Y202037D01*
X45108Y202446D01*
X44572Y202775D01*
X43990Y203016D01*
X43378Y203163D01*
X42750Y203212D01*
X42122Y203163D01*
X41510Y203016D01*
X40928Y202775D01*
X40392Y202446D01*
X40348Y202409D01*
Y205116D01*
X40884Y205652D01*
X40928Y205625D01*
X41510Y205384D01*
X42122Y205237D01*
X42750Y205188D01*
X43378Y205237D01*
X43990Y205384D01*
X44572Y205625D01*
X45108Y205954D01*
X45587Y206363D01*
X45996Y206842D01*
X46325Y207378D01*
X46566Y207960D01*
X46713Y208572D01*
X46750Y209200D01*
X46713Y209828D01*
X46566Y210440D01*
X46325Y211022D01*
X45996Y211558D01*
X45587Y212037D01*
X45108Y212446D01*
X44572Y212775D01*
X43990Y213016D01*
X43378Y213163D01*
X42750Y213212D01*
X42122Y213163D01*
X41510Y213016D01*
X40928Y212775D01*
X40392Y212446D01*
X40348Y212409D01*
Y245870D01*
X40401Y245827D01*
X41083Y245377D01*
X41802Y244991D01*
X42553Y244670D01*
X43329Y244418D01*
X44125Y244237D01*
X44934Y244127D01*
X45750Y244091D01*
X46566Y244127D01*
X47375Y244237D01*
X48171Y244418D01*
X48947Y244670D01*
X49698Y244991D01*
X50417Y245377D01*
X51099Y245827D01*
X51737Y246335D01*
X51772Y246369D01*
X51800Y246409D01*
X51821Y246453D01*
X51836Y246499D01*
X51843Y246547D01*
X51842Y246595D01*
X51834Y246643D01*
X51819Y246689D01*
X51796Y246732D01*
X51767Y246771D01*
X51733Y246805D01*
X51693Y246834D01*
X51650Y246855D01*
X51603Y246870D01*
X51555Y246877D01*
X51507Y246876D01*
X51459Y246868D01*
X51413Y246853D01*
X51370Y246830D01*
X51331Y246801D01*
X50741Y246320D01*
X50105Y245900D01*
X49434Y245540D01*
X48733Y245241D01*
X48009Y245006D01*
X47266Y244836D01*
X46511Y244734D01*
X45750Y244700D01*
X44989Y244734D01*
X44234Y244836D01*
X43491Y245006D01*
X42767Y245241D01*
X42066Y245540D01*
X41395Y245900D01*
X40759Y246320D01*
X40348Y246647D01*
Y259746D01*
X40759Y260080D01*
X41395Y260500D01*
X42066Y260860D01*
X42767Y261159D01*
X43491Y261394D01*
X44234Y261564D01*
X44989Y261666D01*
X45750Y261700D01*
X46511Y261666D01*
X47266Y261564D01*
X48009Y261394D01*
X48733Y261159D01*
X49434Y260860D01*
X50105Y260500D01*
X50741Y260080D01*
X51337Y259606D01*
X51374Y259577D01*
X51416Y259555D01*
X51461Y259540D01*
X51507Y259532D01*
X51555Y259532D01*
X51601Y259539D01*
X51646Y259553D01*
X51689Y259574D01*
X51727Y259601D01*
X51761Y259634D01*
X51789Y259672D01*
X51811Y259714D01*
X51826Y259759D01*
X51834Y259805D01*
X51834Y259853D01*
X51827Y259899D01*
X51813Y259944D01*
X51792Y259987D01*
X51765Y260025D01*
X51731Y260058D01*
X51099Y260573D01*
X50417Y261023D01*
X49698Y261409D01*
X48947Y261730D01*
X48171Y261982D01*
X47375Y262163D01*
X46566Y262273D01*
X45750Y262309D01*
X44934Y262273D01*
X44125Y262163D01*
X43329Y261982D01*
X42553Y261730D01*
X41802Y261409D01*
X41083Y261023D01*
X40401Y260573D01*
X40348Y260531D01*
Y268200D01*
G37*
G36*
Y182409D02*X39913Y182037D01*
X39504Y181558D01*
X39175Y181022D01*
X38934Y180440D01*
X38787Y179828D01*
X38738Y179200D01*
X38787Y178572D01*
X38934Y177960D01*
X39175Y177378D01*
X39504Y176842D01*
X39913Y176363D01*
X40348Y175991D01*
Y169645D01*
X39077Y169643D01*
X38924Y169606D01*
X38779Y169546D01*
X38644Y169464D01*
X38525Y169361D01*
X38422Y169242D01*
X38340Y169107D01*
X38280Y168962D01*
X38250Y168837D01*
X38220Y168962D01*
X38160Y169107D01*
X38078Y169242D01*
X37975Y169361D01*
X37856Y169464D01*
X37721Y169546D01*
X37576Y169606D01*
X37423Y169643D01*
X37266Y169652D01*
X37000Y169652D01*
Y201768D01*
X40348Y205116D01*
Y202409D01*
X39913Y202037D01*
X39504Y201558D01*
X39175Y201022D01*
X38934Y200440D01*
X38787Y199828D01*
X38738Y199200D01*
X38787Y198572D01*
X38934Y197960D01*
X39175Y197378D01*
X39504Y196842D01*
X39913Y196363D01*
X40348Y195991D01*
Y192409D01*
X39913Y192037D01*
X39504Y191558D01*
X39175Y191022D01*
X38934Y190440D01*
X38787Y189828D01*
X38738Y189200D01*
X38787Y188572D01*
X38934Y187960D01*
X39175Y187378D01*
X39504Y186842D01*
X39913Y186363D01*
X40348Y185991D01*
Y182409D01*
G37*
G36*
X27750Y126019D02*X28126Y125566D01*
X28580Y124896D01*
X28976Y124190D01*
X29310Y123454D01*
X29581Y122691D01*
X29785Y121908D01*
X29923Y121111D01*
X29991Y120305D01*
Y119495D01*
X29923Y118689D01*
X29785Y117892D01*
X29581Y117109D01*
X29310Y116346D01*
X28976Y115610D01*
X28580Y114904D01*
X28126Y114234D01*
X27750Y113771D01*
Y126019D01*
G37*
G36*
Y264619D02*X28126Y264166D01*
X28580Y263496D01*
X28976Y262790D01*
X29310Y262054D01*
X29581Y261291D01*
X29785Y260508D01*
X29923Y259711D01*
X29991Y258905D01*
Y258095D01*
X29923Y257289D01*
X29785Y256492D01*
X29581Y255709D01*
X29310Y254946D01*
X28976Y254210D01*
X28580Y253504D01*
X28126Y252834D01*
X27750Y252371D01*
Y264619D01*
G37*
G36*
Y136730D02*X27764Y136714D01*
X28099Y136428D01*
X28475Y136197D01*
X28882Y136029D01*
X29311Y135926D01*
X29750Y135891D01*
X30189Y135926D01*
X30618Y136029D01*
X31025Y136197D01*
X31401Y136428D01*
X31736Y136714D01*
X32022Y137049D01*
X32253Y137425D01*
X32421Y137832D01*
X32524Y138261D01*
X32550Y138700D01*
X32524Y139139D01*
X32421Y139568D01*
X32253Y139975D01*
X32022Y140351D01*
X32000Y140377D01*
Y158768D01*
X34985Y161753D01*
X37423Y161757D01*
X37576Y161794D01*
X37721Y161854D01*
X37856Y161936D01*
X37975Y162039D01*
X38078Y162158D01*
X38160Y162293D01*
X38220Y162438D01*
X38250Y162563D01*
X38280Y162438D01*
X38340Y162293D01*
X38422Y162158D01*
X38525Y162039D01*
X38644Y161936D01*
X38779Y161854D01*
X38924Y161794D01*
X39077Y161757D01*
X39234Y161748D01*
X40348Y161750D01*
Y147203D01*
X36057Y147199D01*
X35904Y147162D01*
X35759Y147102D01*
X35624Y147020D01*
X35505Y146917D01*
X35402Y146798D01*
X35320Y146663D01*
X35260Y146518D01*
X35223Y146365D01*
X35214Y146208D01*
X35223Y137389D01*
X35260Y137236D01*
X35320Y137091D01*
X35402Y136956D01*
X35505Y136837D01*
X35624Y136734D01*
X35759Y136652D01*
X35904Y136592D01*
X36057Y136555D01*
X36214Y136546D01*
X40348Y136551D01*
Y135396D01*
X33302Y135388D01*
X33149Y135351D01*
X33004Y135291D01*
X32869Y135209D01*
X32750Y135106D01*
X32647Y134987D01*
X32565Y134852D01*
X32505Y134707D01*
X32468Y134554D01*
X32459Y134397D01*
X32468Y124004D01*
X32505Y123851D01*
X32565Y123706D01*
X32647Y123571D01*
X32750Y123452D01*
X32869Y123349D01*
X33004Y123267D01*
X33149Y123207D01*
X33302Y123170D01*
X33459Y123161D01*
X40348Y123169D01*
Y110200D01*
X27750D01*
Y113121D01*
X27765Y113116D01*
X27812Y113108D01*
X27859Y113107D01*
X27906Y113114D01*
X27951Y113127D01*
X27993Y113148D01*
X28032Y113175D01*
X28065Y113209D01*
X28615Y113871D01*
X29098Y114584D01*
X29519Y115334D01*
X29875Y116119D01*
X30163Y116930D01*
X30381Y117763D01*
X30527Y118612D01*
X30600Y119469D01*
Y120331D01*
X30527Y121188D01*
X30381Y122037D01*
X30163Y122870D01*
X29875Y123681D01*
X29519Y124466D01*
X29098Y125216D01*
X28615Y125929D01*
X28072Y126597D01*
X28038Y126632D01*
X27998Y126659D01*
X27954Y126681D01*
X27908Y126695D01*
X27860Y126702D01*
X27811Y126701D01*
X27763Y126692D01*
X27750Y126688D01*
Y136730D01*
G37*
G36*
X38034Y268200D02*X40348D01*
Y260531D01*
X39763Y260065D01*
X39728Y260031D01*
X39700Y259991D01*
X39679Y259947D01*
X39664Y259901D01*
X39657Y259853D01*
X39658Y259805D01*
X39666Y259757D01*
X39681Y259711D01*
X39704Y259668D01*
X39733Y259629D01*
X39767Y259595D01*
X39807Y259566D01*
X39850Y259545D01*
X39897Y259530D01*
X39945Y259523D01*
X39993Y259524D01*
X40041Y259532D01*
X40087Y259547D01*
X40130Y259570D01*
X40169Y259599D01*
X40348Y259746D01*
Y246647D01*
X40163Y246794D01*
X40126Y246823D01*
X40084Y246845D01*
X40039Y246860D01*
X39993Y246868D01*
X39945Y246868D01*
X39899Y246861D01*
X39854Y246847D01*
X39811Y246826D01*
X39773Y246799D01*
X39739Y246766D01*
X39711Y246728D01*
X39689Y246686D01*
X39674Y246641D01*
X39666Y246595D01*
X39666Y246547D01*
X39673Y246501D01*
X39687Y246456D01*
X39708Y246413D01*
X39735Y246375D01*
X39769Y246342D01*
X40348Y245870D01*
Y212409D01*
X39913Y212037D01*
X39504Y211558D01*
X39175Y211022D01*
X38934Y210440D01*
X38816Y209948D01*
X38034Y209166D01*
Y248371D01*
X38377Y247851D01*
X38885Y247213D01*
X38919Y247178D01*
X38959Y247150D01*
X39003Y247129D01*
X39049Y247114D01*
X39097Y247107D01*
X39145Y247108D01*
X39193Y247116D01*
X39239Y247131D01*
X39282Y247154D01*
X39321Y247183D01*
X39355Y247217D01*
X39384Y247257D01*
X39405Y247300D01*
X39420Y247347D01*
X39427Y247395D01*
X39426Y247443D01*
X39418Y247491D01*
X39403Y247537D01*
X39380Y247580D01*
X39351Y247619D01*
X38870Y248209D01*
X38450Y248845D01*
X38090Y249516D01*
X38034Y249647D01*
Y256753D01*
X38090Y256884D01*
X38450Y257555D01*
X38870Y258191D01*
X39344Y258787D01*
X39373Y258824D01*
X39395Y258866D01*
X39410Y258911D01*
X39418Y258957D01*
X39418Y259005D01*
X39411Y259051D01*
X39397Y259096D01*
X39376Y259139D01*
X39349Y259177D01*
X39316Y259211D01*
X39278Y259239D01*
X39236Y259261D01*
X39191Y259276D01*
X39145Y259284D01*
X39097Y259284D01*
X39051Y259277D01*
X39006Y259263D01*
X38963Y259242D01*
X38925Y259215D01*
X38892Y259181D01*
X38377Y258549D01*
X38034Y258029D01*
Y268200D01*
G37*
G36*
Y249647D02*X37791Y250217D01*
X37556Y250941D01*
X37386Y251684D01*
X37284Y252439D01*
X37250Y253200D01*
X37284Y253961D01*
X37386Y254716D01*
X37556Y255459D01*
X37791Y256183D01*
X38034Y256753D01*
Y249647D01*
G37*
G36*
X27750Y268200D02*X38034D01*
Y258029D01*
X37927Y257867D01*
X37541Y257148D01*
X37220Y256397D01*
X36968Y255621D01*
X36787Y254825D01*
X36677Y254016D01*
X36641Y253200D01*
X36677Y252384D01*
X36787Y251575D01*
X36968Y250779D01*
X37220Y250003D01*
X37541Y249252D01*
X37927Y248533D01*
X38034Y248371D01*
Y209166D01*
X33221Y204353D01*
X33154Y204296D01*
X32924Y204027D01*
X32739Y203725D01*
X32604Y203397D01*
X32521Y203053D01*
X32521Y203053D01*
X32493Y202700D01*
X32500Y202612D01*
Y169644D01*
X31991Y169643D01*
X31838Y169606D01*
X31693Y169546D01*
X31558Y169464D01*
X31439Y169361D01*
X31336Y169242D01*
X31254Y169107D01*
X31194Y168962D01*
X31157Y168809D01*
X31148Y168652D01*
X31155Y164287D01*
X28221Y161353D01*
X28154Y161296D01*
X27924Y161027D01*
X27750Y160743D01*
Y172103D01*
X30859Y172107D01*
X31012Y172144D01*
X31157Y172204D01*
X31292Y172286D01*
X31411Y172389D01*
X31514Y172508D01*
X31596Y172643D01*
X31656Y172788D01*
X31693Y172941D01*
X31702Y173098D01*
X31693Y178373D01*
X31656Y178526D01*
X31596Y178671D01*
X31514Y178806D01*
X31411Y178925D01*
X31292Y179028D01*
X31157Y179110D01*
X31012Y179170D01*
X30887Y179200D01*
X31012Y179230D01*
X31157Y179290D01*
X31292Y179372D01*
X31411Y179475D01*
X31514Y179594D01*
X31596Y179729D01*
X31656Y179874D01*
X31693Y180027D01*
X31702Y180184D01*
X31693Y185459D01*
X31656Y185612D01*
X31596Y185757D01*
X31514Y185892D01*
X31411Y186011D01*
X31292Y186114D01*
X31157Y186196D01*
X31012Y186256D01*
X30859Y186293D01*
X30702Y186302D01*
X30000Y186301D01*
Y188523D01*
X30022Y188549D01*
X30253Y188925D01*
X30421Y189332D01*
X30524Y189761D01*
X30550Y190200D01*
X30524Y190639D01*
X30421Y191068D01*
X30253Y191475D01*
X30022Y191851D01*
X29736Y192186D01*
X29401Y192472D01*
X29025Y192703D01*
X28618Y192871D01*
X28189Y192974D01*
X27750Y193009D01*
Y194391D01*
X28189Y194426D01*
X28618Y194529D01*
X29025Y194697D01*
X29401Y194928D01*
X29736Y195214D01*
X30022Y195549D01*
X30253Y195925D01*
X30421Y196332D01*
X30524Y196761D01*
X30550Y197200D01*
X30524Y197639D01*
X30421Y198068D01*
X30253Y198475D01*
X30022Y198851D01*
X30000Y198877D01*
Y200606D01*
X30859Y200607D01*
X31012Y200644D01*
X31157Y200704D01*
X31292Y200786D01*
X31411Y200889D01*
X31514Y201008D01*
X31596Y201143D01*
X31656Y201288D01*
X31693Y201441D01*
X31702Y201598D01*
X31693Y206873D01*
X31656Y207026D01*
X31596Y207171D01*
X31514Y207306D01*
X31411Y207425D01*
X31292Y207528D01*
X31157Y207610D01*
X31012Y207670D01*
X30887Y207700D01*
X31012Y207730D01*
X31157Y207790D01*
X31292Y207872D01*
X31411Y207975D01*
X31514Y208094D01*
X31596Y208229D01*
X31656Y208374D01*
X31693Y208527D01*
X31702Y208684D01*
X31693Y213959D01*
X31656Y214112D01*
X31596Y214257D01*
X31514Y214392D01*
X31411Y214511D01*
X31292Y214614D01*
X31157Y214696D01*
X31012Y214756D01*
X30859Y214793D01*
X30702Y214802D01*
X27750Y214797D01*
Y251721D01*
X27765Y251716D01*
X27812Y251708D01*
X27859Y251707D01*
X27906Y251714D01*
X27951Y251727D01*
X27993Y251748D01*
X28032Y251775D01*
X28065Y251809D01*
X28615Y252471D01*
X29098Y253184D01*
X29519Y253934D01*
X29875Y254719D01*
X30163Y255530D01*
X30381Y256363D01*
X30527Y257212D01*
X30600Y258069D01*
Y258931D01*
X30527Y259788D01*
X30381Y260637D01*
X30163Y261470D01*
X29875Y262281D01*
X29519Y263066D01*
X29098Y263816D01*
X28615Y264529D01*
X28072Y265197D01*
X28038Y265232D01*
X27998Y265259D01*
X27954Y265281D01*
X27908Y265295D01*
X27860Y265302D01*
X27811Y265301D01*
X27763Y265292D01*
X27750Y265288D01*
Y268200D01*
G37*
G36*
X23329D02*X27750D01*
Y265288D01*
X27717Y265277D01*
X27674Y265254D01*
X27636Y265225D01*
X27602Y265190D01*
X27574Y265150D01*
X27553Y265106D01*
X27538Y265060D01*
X27532Y265012D01*
X27533Y264963D01*
X27541Y264915D01*
X27557Y264869D01*
X27580Y264826D01*
X27609Y264788D01*
X27750Y264619D01*
Y252371D01*
X27616Y252206D01*
X27587Y252169D01*
X27565Y252127D01*
X27549Y252083D01*
X27541Y252036D01*
X27540Y251989D01*
X27547Y251942D01*
X27561Y251897D01*
X27581Y251855D01*
X27608Y251816D01*
X27641Y251782D01*
X27679Y251754D01*
X27721Y251731D01*
X27750Y251721D01*
Y214797D01*
X24641Y214793D01*
X24488Y214756D01*
X24343Y214696D01*
X24208Y214614D01*
X24089Y214511D01*
X23986Y214392D01*
X23904Y214257D01*
X23844Y214112D01*
X23807Y213959D01*
X23798Y213802D01*
X23807Y208527D01*
X23844Y208374D01*
X23904Y208229D01*
X23986Y208094D01*
X24089Y207975D01*
X24208Y207872D01*
X24343Y207790D01*
X24488Y207730D01*
X24613Y207700D01*
X24488Y207670D01*
X24343Y207610D01*
X24208Y207528D01*
X24089Y207425D01*
X23986Y207306D01*
X23904Y207171D01*
X23844Y207026D01*
X23807Y206873D01*
X23798Y206716D01*
X23807Y201441D01*
X23844Y201288D01*
X23904Y201143D01*
X23986Y201008D01*
X24089Y200889D01*
X24208Y200786D01*
X24343Y200704D01*
X24488Y200644D01*
X24641Y200607D01*
X24798Y200598D01*
X25500Y200599D01*
Y198877D01*
X25478Y198851D01*
X25247Y198475D01*
X25079Y198068D01*
X24976Y197639D01*
X24941Y197200D01*
X24976Y196761D01*
X25079Y196332D01*
X25247Y195925D01*
X25478Y195549D01*
X25764Y195214D01*
X26099Y194928D01*
X26475Y194697D01*
X26882Y194529D01*
X27311Y194426D01*
X27750Y194391D01*
Y193009D01*
X27311Y192974D01*
X26882Y192871D01*
X26475Y192703D01*
X26099Y192472D01*
X25764Y192186D01*
X25478Y191851D01*
X25247Y191475D01*
X25079Y191068D01*
X24976Y190639D01*
X24941Y190200D01*
X24976Y189761D01*
X25079Y189332D01*
X25247Y188925D01*
X25478Y188549D01*
X25500Y188523D01*
Y186294D01*
X24641Y186293D01*
X24488Y186256D01*
X24343Y186196D01*
X24208Y186114D01*
X24089Y186011D01*
X23986Y185892D01*
X23904Y185757D01*
X23844Y185612D01*
X23807Y185459D01*
X23798Y185302D01*
X23807Y180027D01*
X23844Y179874D01*
X23904Y179729D01*
X23986Y179594D01*
X24089Y179475D01*
X24208Y179372D01*
X24343Y179290D01*
X24488Y179230D01*
X24613Y179200D01*
X24488Y179170D01*
X24343Y179110D01*
X24208Y179028D01*
X24089Y178925D01*
X23986Y178806D01*
X23904Y178671D01*
X23844Y178526D01*
X23807Y178373D01*
X23798Y178216D01*
X23807Y172941D01*
X23844Y172788D01*
X23904Y172643D01*
X23986Y172508D01*
X24089Y172389D01*
X24208Y172286D01*
X24343Y172204D01*
X24488Y172144D01*
X24641Y172107D01*
X24798Y172098D01*
X27750Y172103D01*
Y160743D01*
X27739Y160725D01*
X27604Y160397D01*
X27521Y160053D01*
X27521Y160053D01*
X27493Y159700D01*
X27500Y159612D01*
Y140377D01*
X27478Y140351D01*
X27247Y139975D01*
X27079Y139568D01*
X26976Y139139D01*
X26941Y138700D01*
X26976Y138261D01*
X27079Y137832D01*
X27247Y137425D01*
X27478Y137049D01*
X27750Y136730D01*
Y126688D01*
X27717Y126677D01*
X27674Y126654D01*
X27636Y126625D01*
X27602Y126590D01*
X27574Y126550D01*
X27553Y126506D01*
X27538Y126460D01*
X27532Y126412D01*
X27533Y126363D01*
X27541Y126315D01*
X27557Y126269D01*
X27580Y126226D01*
X27609Y126188D01*
X27750Y126019D01*
Y113771D01*
X27616Y113606D01*
X27587Y113569D01*
X27565Y113527D01*
X27549Y113483D01*
X27541Y113436D01*
X27540Y113389D01*
X27547Y113342D01*
X27561Y113297D01*
X27581Y113255D01*
X27608Y113216D01*
X27641Y113182D01*
X27679Y113154D01*
X27721Y113131D01*
X27750Y113121D01*
Y110200D01*
X23329D01*
X23470Y110237D01*
X24281Y110525D01*
X25066Y110881D01*
X25816Y111302D01*
X26529Y111785D01*
X27197Y112328D01*
X27232Y112362D01*
X27259Y112402D01*
X27281Y112446D01*
X27295Y112492D01*
X27302Y112540D01*
X27301Y112589D01*
X27292Y112637D01*
X27277Y112683D01*
X27254Y112726D01*
X27225Y112764D01*
X27190Y112798D01*
X27150Y112826D01*
X27106Y112847D01*
X27060Y112862D01*
X27012Y112868D01*
X26963Y112867D01*
X26915Y112859D01*
X26869Y112843D01*
X26826Y112820D01*
X26788Y112791D01*
X26166Y112274D01*
X25496Y111820D01*
X24790Y111424D01*
X24054Y111090D01*
X23291Y110819D01*
X22508Y110615D01*
X21711Y110477D01*
X20905Y110409D01*
X20504D01*
Y129391D01*
X20905D01*
X21711Y129323D01*
X22508Y129185D01*
X23291Y128981D01*
X24054Y128710D01*
X24790Y128376D01*
X25496Y127980D01*
X26166Y127526D01*
X26794Y127016D01*
X26831Y126987D01*
X26873Y126965D01*
X26917Y126949D01*
X26964Y126941D01*
X27011Y126940D01*
X27058Y126947D01*
X27103Y126961D01*
X27145Y126981D01*
X27184Y127008D01*
X27218Y127041D01*
X27246Y127079D01*
X27269Y127121D01*
X27284Y127165D01*
X27292Y127212D01*
X27293Y127259D01*
X27286Y127306D01*
X27273Y127351D01*
X27252Y127393D01*
X27225Y127432D01*
X27191Y127465D01*
X26529Y128015D01*
X25816Y128498D01*
X25066Y128919D01*
X24281Y129275D01*
X23470Y129563D01*
X22637Y129781D01*
X21788Y129927D01*
X20931Y130000D01*
X20504D01*
Y248400D01*
X20931D01*
X21788Y248473D01*
X22637Y248619D01*
X23470Y248837D01*
X24281Y249125D01*
X25066Y249481D01*
X25816Y249902D01*
X26529Y250385D01*
X27197Y250928D01*
X27232Y250962D01*
X27259Y251002D01*
X27281Y251046D01*
X27295Y251092D01*
X27302Y251140D01*
X27301Y251189D01*
X27292Y251237D01*
X27277Y251283D01*
X27254Y251326D01*
X27225Y251364D01*
X27190Y251398D01*
X27150Y251426D01*
X27106Y251447D01*
X27060Y251462D01*
X27012Y251468D01*
X26963Y251467D01*
X26915Y251459D01*
X26869Y251443D01*
X26826Y251420D01*
X26788Y251391D01*
X26166Y250874D01*
X25496Y250420D01*
X24790Y250024D01*
X24054Y249690D01*
X23291Y249419D01*
X22508Y249215D01*
X21711Y249077D01*
X20905Y249009D01*
X20504D01*
Y267991D01*
X20905D01*
X21711Y267923D01*
X22508Y267785D01*
X23291Y267581D01*
X24054Y267310D01*
X24790Y266976D01*
X25496Y266580D01*
X26166Y266126D01*
X26794Y265616D01*
X26831Y265587D01*
X26873Y265565D01*
X26917Y265549D01*
X26964Y265541D01*
X27011Y265540D01*
X27058Y265547D01*
X27103Y265561D01*
X27145Y265581D01*
X27184Y265608D01*
X27218Y265641D01*
X27246Y265679D01*
X27269Y265721D01*
X27284Y265765D01*
X27292Y265812D01*
X27293Y265859D01*
X27286Y265906D01*
X27273Y265951D01*
X27252Y265993D01*
X27225Y266032D01*
X27191Y266065D01*
X26529Y266615D01*
X25816Y267098D01*
X25066Y267519D01*
X24281Y267875D01*
X23470Y268163D01*
X23329Y268200D01*
G37*
G36*
X20504Y110409D02*X20095D01*
X19289Y110477D01*
X18492Y110615D01*
X17709Y110819D01*
X16946Y111090D01*
X16210Y111424D01*
X15504Y111820D01*
X14834Y112274D01*
X14206Y112784D01*
X14169Y112813D01*
X14127Y112835D01*
X14083Y112851D01*
X14036Y112859D01*
X13989Y112860D01*
X13942Y112853D01*
X13897Y112839D01*
X13855Y112819D01*
X13816Y112792D01*
X13782Y112759D01*
X13754Y112721D01*
X13745Y112705D01*
X13311Y113139D01*
X13326Y113146D01*
X13364Y113175D01*
X13398Y113210D01*
X13426Y113250D01*
X13447Y113294D01*
X13462Y113340D01*
X13468Y113388D01*
X13467Y113437D01*
X13459Y113485D01*
X13443Y113531D01*
X13420Y113574D01*
X13391Y113612D01*
X12874Y114234D01*
X12420Y114904D01*
X12024Y115610D01*
X11690Y116346D01*
X11419Y117109D01*
X11215Y117892D01*
X11077Y118689D01*
X11009Y119495D01*
Y120305D01*
X11077Y121111D01*
X11215Y121908D01*
X11419Y122691D01*
X11690Y123454D01*
X12024Y124190D01*
X12420Y124896D01*
X12874Y125566D01*
X13384Y126194D01*
X13413Y126231D01*
X13435Y126273D01*
X13451Y126317D01*
X13459Y126364D01*
X13460Y126411D01*
X13453Y126458D01*
X13439Y126503D01*
X13419Y126545D01*
X13392Y126584D01*
X13359Y126618D01*
X13321Y126646D01*
X13279Y126669D01*
X13235Y126684D01*
X13188Y126692D01*
X13141Y126693D01*
X13094Y126686D01*
X13049Y126673D01*
X13007Y126652D01*
X12968Y126625D01*
X12935Y126591D01*
X12385Y125929D01*
X11902Y125216D01*
X11481Y124466D01*
X11125Y123681D01*
X10837Y122870D01*
X10619Y122037D01*
X10473Y121188D01*
X10400Y120331D01*
Y120050D01*
X10250Y120200D01*
Y259700D01*
X10501Y259951D01*
X10473Y259788D01*
X10400Y258931D01*
Y258069D01*
X10473Y257212D01*
X10619Y256363D01*
X10837Y255530D01*
X11125Y254719D01*
X11481Y253934D01*
X11902Y253184D01*
X12385Y252471D01*
X12928Y251803D01*
X12962Y251768D01*
X13002Y251741D01*
X13046Y251719D01*
X13092Y251705D01*
X13140Y251698D01*
X13189Y251699D01*
X13237Y251708D01*
X13283Y251723D01*
X13326Y251746D01*
X13364Y251775D01*
X13398Y251810D01*
X13426Y251850D01*
X13447Y251894D01*
X13462Y251940D01*
X13468Y251988D01*
X13467Y252037D01*
X13459Y252085D01*
X13443Y252131D01*
X13420Y252174D01*
X13391Y252212D01*
X12874Y252834D01*
X12420Y253504D01*
X12024Y254210D01*
X11690Y254946D01*
X11419Y255709D01*
X11215Y256492D01*
X11077Y257289D01*
X11009Y258095D01*
Y258905D01*
X11077Y259711D01*
X11215Y260508D01*
X11419Y261291D01*
X11690Y262054D01*
X12024Y262790D01*
X12420Y263496D01*
X12874Y264166D01*
X13384Y264794D01*
X13413Y264831D01*
X13435Y264873D01*
X13451Y264917D01*
X13459Y264964D01*
X13460Y265011D01*
X13453Y265058D01*
X13439Y265103D01*
X13419Y265145D01*
X13392Y265184D01*
X13359Y265218D01*
X13321Y265246D01*
X13305Y265255D01*
X13739Y265689D01*
X13746Y265674D01*
X13775Y265636D01*
X13810Y265602D01*
X13850Y265574D01*
X13894Y265553D01*
X13940Y265538D01*
X13988Y265532D01*
X14037Y265533D01*
X14085Y265541D01*
X14131Y265557D01*
X14174Y265580D01*
X14212Y265609D01*
X14834Y266126D01*
X15504Y266580D01*
X16210Y266976D01*
X16946Y267310D01*
X17709Y267581D01*
X18492Y267785D01*
X19289Y267923D01*
X20095Y267991D01*
X20504D01*
Y249009D01*
X20095D01*
X19289Y249077D01*
X18492Y249215D01*
X17709Y249419D01*
X16946Y249690D01*
X16210Y250024D01*
X15504Y250420D01*
X14834Y250874D01*
X14206Y251384D01*
X14169Y251413D01*
X14127Y251435D01*
X14083Y251451D01*
X14036Y251459D01*
X13989Y251460D01*
X13942Y251453D01*
X13897Y251439D01*
X13855Y251419D01*
X13816Y251392D01*
X13782Y251359D01*
X13754Y251321D01*
X13731Y251279D01*
X13716Y251235D01*
X13708Y251188D01*
X13707Y251141D01*
X13714Y251094D01*
X13727Y251049D01*
X13748Y251007D01*
X13775Y250968D01*
X13809Y250935D01*
X14471Y250385D01*
X15184Y249902D01*
X15934Y249481D01*
X16719Y249125D01*
X17530Y248837D01*
X18363Y248619D01*
X19212Y248473D01*
X20069Y248400D01*
X20504D01*
Y130000D01*
X20069D01*
X19212Y129927D01*
X18363Y129781D01*
X17530Y129563D01*
X16719Y129275D01*
X15934Y128919D01*
X15184Y128498D01*
X14471Y128015D01*
X13803Y127472D01*
X13768Y127438D01*
X13741Y127398D01*
X13719Y127354D01*
X13705Y127308D01*
X13698Y127260D01*
X13699Y127211D01*
X13708Y127163D01*
X13723Y127117D01*
X13746Y127074D01*
X13775Y127036D01*
X13810Y127002D01*
X13850Y126974D01*
X13894Y126953D01*
X13940Y126938D01*
X13988Y126932D01*
X14037Y126933D01*
X14085Y126941D01*
X14131Y126957D01*
X14174Y126980D01*
X14212Y127009D01*
X14834Y127526D01*
X15504Y127980D01*
X16210Y128376D01*
X16946Y128710D01*
X17709Y128981D01*
X18492Y129185D01*
X19289Y129323D01*
X20095Y129391D01*
X20504D01*
Y110409D01*
G37*
G36*
X27750Y212700D02*X25250Y215200D01*
X30250D01*
X27750Y212700D01*
G37*
G36*
Y174200D02*X30250Y171700D01*
X25250D01*
X27750Y174200D01*
G37*
G36*
X34250Y129700D02*X31750Y127200D01*
Y132200D01*
X34250Y129700D01*
G37*
G36*
X37250Y141700D02*X34750Y139200D01*
Y144200D01*
X37250Y141700D01*
G37*
G36*
X65250Y129700D02*X62750Y127200D01*
Y132200D01*
X65250Y129700D01*
G37*
G36*
X40250D02*X42750Y132200D01*
Y127200D01*
X40250Y129700D01*
G37*
G54D38*X77155Y166700D02*Y174795D01*
X104250Y159295D02*X94345D01*
X94250Y159200D01*
X70750D02*X66750D01*
G54D39*X84250Y177700D02*X126250D01*
X183745Y165200D02*X151545D01*
X188745Y160200D02*X183745Y165200D01*
X188845Y160200D02*X188745D01*
X188845Y180200D02*Y170200D01*
X152540Y143895D02*X158845Y150200D01*
G54D38*X188845D02*X180250D01*
X163750Y133700D01*
Y121700D01*
X159250Y117200D01*
X116250D01*
G54D39*X143145Y143895D02*X152540D01*
X154350Y155705D02*X158845Y160200D01*
X143145Y155705D02*X154350D01*
X143802Y166600D02*X143202Y167200D01*
X150145Y166600D02*X143802D01*
X151545Y165200D02*X150145Y166600D01*
X137250Y166700D02*X142750D01*
X143226Y167176D01*
X143745Y183550D02*X143645Y183450D01*
X155445Y183550D02*X143745D01*
X158795Y180200D02*X155445Y183550D01*
X158845Y180200D02*X158795D01*
X143645Y173843D02*Y183507D01*
X126250Y177700D02*X137250Y166700D01*
G54D38*X158345Y200200D02*X155800D01*
X188845D02*X182800D01*
X155800D02*X144500Y211500D01*
X158845Y210200D02*X158800D01*
X149000Y220000D01*
X182800Y200200D02*X154000Y229000D01*
X188845Y210200D02*X188800D01*
X161500Y237500D01*
X144500Y211500D02*X110000D01*
X149000Y220000D02*X113500D01*
X154000Y229000D02*X117950D01*
X117750Y229200D01*
X161500Y237500D02*X123097D01*
X122671Y237074D01*
X112703Y237200D02*X112829Y237074D01*
X99500Y233500D02*X103000Y237000D01*
X112903D01*
X112952Y236952D01*
X110000Y211500D02*X99500Y222000D01*
Y233500D01*
X113500Y220000D02*X108000Y225500D01*
Y229107D01*
X107907Y229200D01*
X80250Y149700D02*X70750Y159200D01*
X82845Y139700D02*X83048Y139903D01*
X64400Y139800D02*X82500D01*
X82600Y139900D01*
X83020Y116330D02*Y128065D01*
X83250Y128295D01*
X116410Y117200D02*X114220D01*
X100110Y131310D01*
X94250Y159200D02*Y151105D01*
X83250Y140105D01*
X81250Y149700D02*X80250D01*
X100110Y131310D02*Y141970D01*
X42750Y179200D02*X52845D01*
X65345Y166700D01*
G54D39*X42750Y179200D02*Y166200D01*
Y209200D02*X41250D01*
X34750Y202700D01*
Y164700D01*
X65750Y203700D02*Y230200D01*
X27750Y190200D02*Y182743D01*
Y197200D02*Y204157D01*
G54D38*X66750Y159200D02*X65250Y160700D01*
Y166605D01*
X65345Y166700D01*
X77155Y174795D02*X72750Y179200D01*
G54D39*Y189200D02*X84250Y177700D01*
X72750Y199200D02*X70250D01*
G54D40*X42750Y189200D02*X54750D01*
X56250Y190700D01*
X42750Y199200D02*X54250D01*
X56250Y197200D01*
G54D39*X70250Y199200D02*X65750Y203700D01*
X34750Y164700D02*X29750Y159700D01*
Y138700D01*
G54D38*X49010Y152507D02*Y137940D01*
X51750Y135200D01*
X59750D01*
X59700D02*X59800D01*
X64400Y139800D01*
G54D41*X62500Y264000D02*X64500D01*
X65000Y263500D01*
Y262300D02*Y263500D01*
X64500Y261800D02*X65000Y262300D01*
X63000Y261800D02*X64500D01*
X63000Y260000D02*Y264000D01*
X62500Y260000D02*X64500D01*
X65000Y260500D01*
Y261300D01*
X64500Y261800D02*X65000Y261300D01*
X66200Y262000D02*Y263500D01*
X66700Y264000D01*
X68200Y262000D02*Y265000D01*
X67700Y265500D02*X68200Y265000D01*
X66700Y265500D02*X67700D01*
X66200Y265000D02*X66700Y265500D01*
Y264000D02*X67700D01*
X68200Y263500D01*
X71200Y261800D02*X72700D01*
X71200Y264000D02*X73200D01*
X71200Y260000D02*Y264000D01*
Y260000D02*X73200D01*
X74400Y262000D02*X75400Y264000D01*
X76400Y262000D02*X75400Y264000D01*
X79100Y262000D02*X79600Y262500D01*
X78100Y262000D02*X79100D01*
X77600Y262500D02*X78100Y262000D01*
X77600Y262500D02*Y263500D01*
X78100Y264000D01*
X79600Y262000D02*Y263500D01*
X80100Y264000D01*
X78100D02*X79100D01*
X79600Y263500D01*
X81800Y262500D02*Y264000D01*
Y262500D02*X82300Y262000D01*
X82800D01*
X83300Y262500D01*
Y264000D01*
X81300Y262000D02*X81800Y262500D01*
X86300Y261800D02*X87800D01*
X86300Y264000D02*X88300D01*
X86300Y260000D02*Y264000D01*
Y260000D02*X88300D01*
X89500Y264000D02*X90000D01*
X91200Y260000D02*Y264000D01*
Y260000D02*X93200D01*
X91200Y261800D02*X92700D01*
X94400Y264000D02*X94900D01*
X97900Y263500D02*X98400Y264000D01*
X97900Y260500D02*Y261500D01*
Y260500D02*X98400Y260000D01*
X97900Y262500D02*X99400Y261000D01*
X98400Y264000D02*X98900D01*
X99900Y263000D01*
X97900Y261500D02*X100400Y264000D01*
X98400Y260000D02*X98900D01*
X99400Y260500D01*
Y261000D01*
X97900Y262500D02*Y263500D01*
X103400Y260000D02*X104400D01*
X103900D02*Y264000D01*
X103400D02*X104400D01*
X106100D02*X107600D01*
X108100Y263500D01*
X107600Y263000D02*X108100Y263500D01*
X106100Y263000D02*X107600D01*
X105600Y262500D02*X106100Y263000D01*
X105600Y262500D02*X106100Y262000D01*
X107600D01*
X108100Y262500D01*
X105600Y263500D02*X106100Y264000D01*
X109300Y260000D02*Y264000D01*
Y262500D02*X109800Y262000D01*
X110800D01*
X111300Y262500D01*
Y264000D01*
X113000Y262500D02*Y264000D01*
Y262500D02*X113500Y262000D01*
X114000D01*
X114500Y262500D01*
Y264000D01*
Y262500D02*X115000Y262000D01*
X115500D01*
X116000Y262500D01*
Y264000D01*
X112500Y262000D02*X113000Y262500D01*
X118700Y262000D02*X119200Y262500D01*
X117700Y262000D02*X118700D01*
X117200Y262500D02*X117700Y262000D01*
X117200Y262500D02*Y263500D01*
X117700Y264000D01*
X119200Y262000D02*Y263500D01*
X119700Y264000D01*
X117700D02*X118700D01*
X119200Y263500D01*
X121400Y264000D02*X122900D01*
X120900Y263500D02*X121400Y264000D01*
X120900Y262500D02*Y263500D01*
Y262500D02*X121400Y262000D01*
X122400D01*
X122900Y262500D01*
X120900Y263000D02*X122900D01*
Y262500D02*Y263000D01*
X124100Y260000D02*Y263500D01*
X124600Y264000D01*
X129400Y260000D02*X129900Y260500D01*
X127900Y260000D02*X129400D01*
X127400Y260500D02*X127900Y260000D01*
X127400Y260500D02*Y261500D01*
X127900Y262000D01*
X129400D01*
X129900Y262500D01*
Y263500D01*
X129400Y264000D02*X129900Y263500D01*
X127900Y264000D02*X129400D01*
X127400Y263500D02*X127900Y264000D01*
X131100D02*X131600D01*
X132800Y260000D02*Y262000D01*
X133300Y264000D01*
X134300Y262000D01*
X135300Y264000D01*
X135800Y262000D01*
Y260000D02*Y262000D01*
X137000Y264000D02*X137500D01*
G54D42*X55506Y123373D03*
Y141090D03*
G54D43*X119250Y157000D03*
G54D37*G36*
X116000Y137700D02*Y131700D01*
X122000D01*
Y137700D01*
X116000D01*
G37*
G54D44*X119000Y124700D03*
G54D37*G36*
X104954Y232153D02*Y226247D01*
X110860D01*
Y232153D01*
X104954D01*
G37*
G54D42*X112829Y237074D03*
X117750Y229200D03*
X122671Y237074D03*
G54D43*X119250Y168800D03*
G54D44*X42750Y209200D03*
X72750Y179200D03*
G54D45*X77155Y167881D02*Y165519D01*
X103069Y159295D02*X105431D01*
X103069Y171105D02*X105431D01*
G54D44*X72750Y209200D03*
Y199200D03*
Y189200D03*
G54D45*X27357Y175657D02*X28143D01*
X34707Y166093D02*Y165307D01*
X41793Y166093D02*Y165307D01*
X27357Y182743D02*X28143D01*
X27357Y204157D02*X28143D01*
X27357Y211243D02*X28143D01*
G54D44*X42750Y179200D03*
Y189200D03*
Y199200D03*
G54D45*X82069Y128295D02*X84431D01*
X82069Y140105D02*X84431D01*
X65345Y167881D02*Y165519D01*
G54D46*X65939Y151129D02*Y150735D01*
G54D47*X68301Y130657D02*Y127901D01*
G54D46*X49010Y152704D02*Y152310D01*
G54D47*X37199Y130657D02*Y127901D01*
G54D46*X40348Y142074D02*Y141680D01*
G54D45*X151940Y134881D02*Y132519D01*
X163750Y134881D02*Y132519D01*
G54D44*X158845Y150200D03*
Y160200D03*
G54D45*X141964Y143895D02*X144326D01*
X141964Y155705D02*X144326D01*
X143252Y183507D02*X144038D01*
X143252Y190593D02*X144038D01*
G54D44*X158845Y170200D03*
Y180200D03*
Y190200D03*
Y200200D03*
Y210200D03*
X188845D03*
Y200200D03*
Y190200D03*
Y180200D03*
Y170200D03*
Y160200D03*
Y150200D03*
G54D45*X143252Y166757D02*X144038D01*
X143252Y173843D02*X144038D01*
G54D48*X56250Y197200D03*
Y190700D03*
X29750Y138700D03*
X73750Y227200D03*
X58750Y161200D03*
G54D44*X94250Y159200D03*
X81250Y149700D03*
G54D49*X115250Y189200D03*
G54D50*X93750Y202200D03*
G54D44*X100110Y141970D03*
G54D48*X65750Y230200D03*
G54D51*X210000Y258500D03*
G54D50*X184750Y253200D03*
X45750D03*
G54D48*X27750Y197200D03*
G54D51*X20500Y258500D03*
G54D48*X27750Y190200D03*
G54D51*X20500Y119900D03*
X210000D03*
G54D50*X184750Y125200D03*
X136000Y129700D03*
G54D44*X83020Y116330D03*
G54D40*G54D52*G54D53*G54D52*G54D40*G54D54*G54D53*G54D40*G54D54*G54D40*G54D54*G54D53*G54D52*G54D55*G54D56*G54D57*G54D58*G54D56*M02*
