M48
INCH
T67C0.165
T66C0.125
T65C0.035
T64C0.020
T63C0.032
T62C0.042
T61C0.034
T60C0.043
%
T64
X002775Y019720
X002775Y019020
X002975Y013870
X005625Y019720
X005625Y019070
X005875Y016120
X006575Y023020
X007375Y022720
T63
X010791Y022920
X011283Y023707
X011775Y022920
X012267Y023707
T61
X011925Y016880
X011925Y015700
T65
X008125Y014970
X008302Y011633
X009425Y015920
X010011Y014197
T62
X011900Y013470
X011900Y012470
T60
X005551Y014109
X005551Y012337
T66
X004575Y025320
X009375Y020220
X011525Y018920
X013600Y012970
X018475Y025320
X018475Y012520
T67
X002050Y025850
X002050Y011990
X021000Y025850
X021000Y011990
M30
