G04 start of page 8 for group -4079 idx -4079 *
G04 Title: (unknown), topsilk *
G04 Creator: pcb 20140316 *
G04 CreationDate: Wed 08 Apr 2015 09:08:40 AM GMT UTC *
G04 For: fosse *
G04 Format: Gerber/RS-274X *
G04 PCB-Dimensions (mil): 2290.00 2790.00 *
G04 PCB-Coordinate-Origin: lower left *
%MOIN*%
%FSLAX25Y25*%
%LNTOPSILK*%
%ADD90C,0.0110*%
%ADD89C,0.0150*%
%ADD88C,0.0400*%
%ADD87C,0.0100*%
%ADD86C,0.0060*%
G54D86*X127500Y170800D02*X130500D01*
X127500D02*X127000Y171300D01*
Y172300D02*Y171300D01*
Y172300D02*X127500Y172800D01*
X130500D01*
X131000Y172300D02*X130500Y172800D01*
X131000Y172300D02*Y171300D01*
X130500Y170800D02*X131000Y171300D01*
X127000Y174000D02*X131000D01*
X127000Y176000D02*Y174000D01*
X128800Y175500D02*Y174000D01*
X127000Y177200D02*X131000D01*
X127000Y179200D02*Y177200D01*
X128800Y178700D02*Y177200D01*
X127500Y149300D02*X130500D01*
X127500D02*X127000Y149800D01*
Y150800D02*Y149800D01*
Y150800D02*X127500Y151300D01*
X130500D01*
X131000Y150800D02*X130500Y151300D01*
X131000Y150800D02*Y149800D01*
X130500Y149300D02*X131000Y149800D01*
X127000Y152500D02*X131000D01*
X127000D02*X131000Y155000D01*
X127000D02*X131000D01*
X137091Y148170D02*X138591D01*
X137091Y145970D02*X139091D01*
X137091Y149970D02*Y145970D01*
Y149970D02*X139091D01*
X141791Y147970D02*X142291Y147470D01*
X140791Y147970D02*X141791D01*
X140291Y147470D02*X140791Y147970D01*
X140291Y147470D02*Y146470D01*
X140791Y145970D01*
X142291Y147970D02*Y146470D01*
X142791Y145970D01*
X140791D02*X141791D01*
X142291Y146470D01*
X144491Y149970D02*Y146470D01*
X144991Y145970D01*
X143991Y148470D02*X144991D01*
X145991Y147470D02*Y146470D01*
Y147470D02*X146491Y147970D01*
X147491D01*
X147991Y147470D01*
Y146470D01*
X147491Y145970D02*X147991Y146470D01*
X146491Y145970D02*X147491D01*
X145991Y146470D02*X146491Y145970D01*
X149691Y147470D02*Y145970D01*
Y147470D02*X150191Y147970D01*
X150691D01*
X151191Y147470D01*
Y145970D01*
X149191Y147970D02*X149691Y147470D01*
X154691Y149970D02*Y145970D01*
X154191Y149970D02*X156191D01*
X156691Y149470D01*
Y148470D01*
X156191Y147970D02*X156691Y148470D01*
X154691Y147970D02*X156191D01*
X158391Y145970D02*X159891D01*
X157891Y146470D02*X158391Y145970D01*
X157891Y147470D02*Y146470D01*
Y147470D02*X158391Y147970D01*
X159391D01*
X159891Y147470D01*
X157891Y146970D02*X159891D01*
Y147470D02*Y146970D01*
X162591Y147970D02*X163091Y147470D01*
X161591Y147970D02*X162591D01*
X161091Y147470D02*X161591Y147970D01*
X161091Y147470D02*Y146470D01*
X161591Y145970D01*
X163091Y147970D02*Y146470D01*
X163591Y145970D01*
X161591D02*X162591D01*
X163091Y146470D01*
X164791Y149970D02*Y145970D01*
Y146470D02*X165291Y145970D01*
X166291D01*
X166791Y146470D01*
Y147470D02*Y146470D01*
X166291Y147970D02*X166791Y147470D01*
X165291Y147970D02*X166291D01*
X164791Y147470D02*X165291Y147970D01*
X167991Y147470D02*Y146470D01*
Y147470D02*X168491Y147970D01*
X169491D01*
X169991Y147470D01*
Y146470D01*
X169491Y145970D02*X169991Y146470D01*
X168491Y145970D02*X169491D01*
X167991Y146470D02*X168491Y145970D01*
X173191Y149970D02*Y145970D01*
X172691D02*X173191Y146470D01*
X171691Y145970D02*X172691D01*
X171191Y146470D02*X171691Y145970D01*
X171191Y147470D02*Y146470D01*
Y147470D02*X171691Y147970D01*
X172691D01*
X173191Y147470D01*
X174391Y147970D02*Y146470D01*
X174891Y145970D01*
X176391Y147970D02*Y144970D01*
X175891Y144470D02*X176391Y144970D01*
X174891Y144470D02*X175891D01*
X174391Y144970D02*X174891Y144470D01*
Y145970D02*X175891D01*
X176391Y146470D01*
X179391Y149970D02*Y145970D01*
X181391D01*
X184091Y147970D02*X184591Y147470D01*
X183091Y147970D02*X184091D01*
X182591Y147470D02*X183091Y147970D01*
X182591Y147470D02*Y146470D01*
X183091Y145970D01*
X184591Y147970D02*Y146470D01*
X185091Y145970D01*
X183091D02*X184091D01*
X184591Y146470D01*
X186291Y149970D02*Y145970D01*
Y146470D02*X186791Y145970D01*
X187791D01*
X188291Y146470D01*
Y147470D02*Y146470D01*
X187791Y147970D02*X188291Y147470D01*
X186791Y147970D02*X187791D01*
X186291Y147470D02*X186791Y147970D01*
X137091Y156970D02*X137591Y157470D01*
X139091D01*
X139591Y156970D01*
Y155970D01*
X137091Y153470D02*X139591Y155970D01*
X137091Y153470D02*X139591D01*
X140791Y153970D02*X141291Y153470D01*
X140791Y156970D02*Y153970D01*
Y156970D02*X141291Y157470D01*
X142291D01*
X142791Y156970D01*
Y153970D01*
X142291Y153470D02*X142791Y153970D01*
X141291Y153470D02*X142291D01*
X140791Y154470D02*X142791Y156470D01*
X143991Y156670D02*X144791Y157470D01*
Y153470D01*
X143991D02*X145491D01*
X146691Y157470D02*X148691D01*
X146691D02*Y155470D01*
X147191Y155970D01*
X148191D01*
X148691Y155470D01*
Y153970D01*
X148191Y153470D02*X148691Y153970D01*
X147191Y153470D02*X148191D01*
X146691Y153970D02*X147191Y153470D01*
X149891D02*X150391D01*
X151591Y153970D02*X152091Y153470D01*
X151591Y156970D02*Y153970D01*
Y156970D02*X152091Y157470D01*
X153091D01*
X153591Y156970D01*
Y153970D01*
X153091Y153470D02*X153591Y153970D01*
X152091Y153470D02*X153091D01*
X151591Y154470D02*X153591Y156470D01*
X154791Y154970D02*X156791Y157470D01*
X154791Y154970D02*X157291D01*
X156791Y157470D02*Y153470D01*
X158491D02*X158991D01*
X160191Y153970D02*X160691Y153470D01*
X160191Y156970D02*Y153970D01*
Y156970D02*X160691Y157470D01*
X161691D01*
X162191Y156970D01*
Y153970D01*
X161691Y153470D02*X162191Y153970D01*
X160691Y153470D02*X161691D01*
X160191Y154470D02*X162191Y156470D01*
X163891Y153470D02*X165891Y157470D01*
X163391D02*X165891D01*
X80000Y216500D02*X80500Y217000D01*
X82000D01*
X82500Y216500D01*
Y215500D01*
X80000Y213000D02*X82500Y215500D01*
X80000Y213000D02*X82500D01*
X63000Y216200D02*X63800Y217000D01*
Y213000D01*
X63000D02*X64500D01*
X77500Y243000D02*Y239000D01*
Y243000D02*X79000Y241000D01*
X80500Y243000D01*
Y239000D01*
X81700Y242500D02*Y239500D01*
Y242500D02*X82200Y243000D01*
X83200D01*
X83700Y242500D01*
Y239500D01*
X83200Y239000D02*X83700Y239500D01*
X82200Y239000D02*X83200D01*
X81700Y239500D02*X82200Y239000D01*
X85400Y243000D02*Y239000D01*
X86700Y243000D02*X87400Y242300D01*
Y239700D01*
X86700Y239000D02*X87400Y239700D01*
X84900Y239000D02*X86700D01*
X84900Y243000D02*X86700D01*
X88600Y241200D02*X90100D01*
X88600Y239000D02*X90600D01*
X88600Y243000D02*Y239000D01*
Y243000D02*X90600D01*
X46500Y158500D02*Y154500D01*
X46000Y158500D02*X48000D01*
X48500Y158000D01*
Y157000D01*
X48000Y156500D02*X48500Y157000D01*
X46500Y156500D02*X48000D01*
X49700Y158500D02*X51700D01*
X52200Y158000D01*
Y157000D01*
X51700Y156500D02*X52200Y157000D01*
X50200Y156500D02*X51700D01*
X50200Y158500D02*Y154500D01*
X51000Y156500D02*X52200Y154500D01*
X53400Y158500D02*X54400D01*
X53900D02*Y154500D01*
X53400D02*X54400D01*
X55600Y158500D02*Y154500D01*
Y158500D02*X57100Y156500D01*
X58600Y158500D01*
Y154500D01*
X59800Y156700D02*X61300D01*
X59800Y154500D02*X61800D01*
X59800Y158500D02*Y154500D01*
Y158500D02*X61800D01*
X137091Y171470D02*Y167470D01*
Y171470D02*X138591Y169470D01*
X140091Y171470D01*
Y167470D01*
X141291Y170470D02*Y170370D01*
Y168970D02*Y167470D01*
X142791Y169470D02*X144291D01*
X142291Y168970D02*X142791Y169470D01*
X142291Y168970D02*Y167970D01*
X142791Y167470D01*
X144291D01*
X145991Y168970D02*Y167470D01*
Y168970D02*X146491Y169470D01*
X147491D01*
X145491D02*X145991Y168970D01*
X148691D02*Y167970D01*
Y168970D02*X149191Y169470D01*
X150191D01*
X150691Y168970D01*
Y167970D01*
X150191Y167470D02*X150691Y167970D01*
X149191Y167470D02*X150191D01*
X148691Y167970D02*X149191Y167470D01*
X152391Y170970D02*Y167470D01*
Y170970D02*X152891Y171470D01*
X153391D01*
X151891Y169470D02*X152891D01*
X154391Y171470D02*Y167970D01*
X154891Y167470D01*
X155891Y169470D02*Y167970D01*
X156391Y167470D01*
X157391D01*
X157891Y167970D01*
Y169470D02*Y167970D01*
X159091Y170470D02*Y170370D01*
Y168970D02*Y167470D01*
X162091Y171470D02*Y167470D01*
X161591D02*X162091Y167970D01*
X160591Y167470D02*X161591D01*
X160091Y167970D02*X160591Y167470D01*
X160091Y168970D02*Y167970D01*
Y168970D02*X160591Y169470D01*
X161591D01*
X162091Y168970D01*
X163291Y170470D02*Y170370D01*
Y168970D02*Y167470D01*
X164791Y169470D02*X166291D01*
X164291Y168970D02*X164791Y169470D01*
X164291Y168970D02*Y167970D01*
X164791Y167470D01*
X166291D01*
X169791Y171470D02*Y167470D01*
X169291Y171470D02*X171291D01*
X171791Y170970D01*
Y169970D01*
X171291Y169470D02*X171791Y169970D01*
X169791Y169470D02*X171291D01*
X172991D02*Y167970D01*
X173491Y167470D01*
X174491D01*
X174991Y167970D01*
Y169470D02*Y167970D01*
X176691Y168970D02*Y167470D01*
Y168970D02*X177191Y169470D01*
X177691D01*
X178191Y168970D01*
Y167470D01*
Y168970D02*X178691Y169470D01*
X179191D01*
X179691Y168970D01*
Y167470D01*
X176191Y169470D02*X176691Y168970D01*
X181391D02*Y165970D01*
X180891Y169470D02*X181391Y168970D01*
X181891Y169470D01*
X182891D01*
X183391Y168970D01*
Y167970D01*
X182891Y167470D02*X183391Y167970D01*
X181891Y167470D02*X182891D01*
X181391Y167970D02*X181891Y167470D01*
X186891Y171470D02*Y167470D01*
X188191Y171470D02*X188891Y170770D01*
Y168170D01*
X188191Y167470D02*X188891Y168170D01*
X186391Y167470D02*X188191D01*
X186391Y171470D02*X188191D01*
X190591Y168970D02*Y167470D01*
Y168970D02*X191091Y169470D01*
X192091D01*
X190091D02*X190591Y168970D01*
X193291Y170470D02*Y170370D01*
Y168970D02*Y167470D01*
X194291Y169470D02*X195291Y167470D01*
X196291Y169470D02*X195291Y167470D01*
X197991D02*X199491D01*
X197491Y167970D02*X197991Y167470D01*
X197491Y168970D02*Y167970D01*
Y168970D02*X197991Y169470D01*
X198991D01*
X199491Y168970D01*
X197491Y168470D02*X199491D01*
Y168970D02*Y168470D01*
X201191Y168970D02*Y167470D01*
Y168970D02*X201691Y169470D01*
X202691D01*
X200691D02*X201191Y168970D01*
X34210Y205770D02*X34710Y205270D01*
X32710Y205770D02*X34210D01*
X32210Y205270D02*X32710Y205770D01*
X32210Y205270D02*Y204270D01*
X32710Y203770D01*
X34210D01*
X34710Y203270D01*
Y202270D01*
X34210Y201770D02*X34710Y202270D01*
X32710Y201770D02*X34210D01*
X32210Y202270D02*X32710Y201770D01*
X35910Y205770D02*X37910D01*
X36910D02*Y201770D01*
X39110Y204770D02*Y201770D01*
Y204770D02*X39810Y205770D01*
X40910D01*
X41610Y204770D01*
Y201770D01*
X39110Y203770D02*X41610D01*
X42810Y205770D02*X44810D01*
X43810D02*Y201770D01*
X46010Y205770D02*Y202270D01*
X46510Y201770D01*
X47510D01*
X48010Y202270D01*
Y205770D02*Y202270D01*
X51210Y205770D02*X51710Y205270D01*
X49710Y205770D02*X51210D01*
X49210Y205270D02*X49710Y205770D01*
X49210Y205270D02*Y204270D01*
X49710Y203770D01*
X51210D01*
X51710Y203270D01*
Y202270D01*
X51210Y201770D02*X51710Y202270D01*
X49710Y201770D02*X51210D01*
X49210Y202270D02*X49710Y201770D01*
G54D87*X113350Y177050D02*Y148750D01*
X125150D01*
Y177050D02*Y148750D01*
X113350Y177050D02*X125150D01*
Y157000D02*X129050D01*
Y168800D02*Y157000D01*
X125150Y168800D02*X129050D01*
X125150Y162900D02*X129050D01*
X128829Y145724D02*Y113676D01*
X126861Y145724D02*Y113676D01*
X96939Y145723D02*Y113676D01*
X91034Y145724D02*X128829D01*
X91034D02*Y141787D01*
X96939D01*
X91034Y113676D02*X128829D01*
X91034Y117613D02*Y113676D01*
Y117613D02*X96939D01*
X135470Y241351D02*Y142926D01*
Y241351D02*X214211D01*
Y142926D01*
X135470D02*X214211D01*
X142000Y134700D02*X161700D01*
X129500Y139700D02*X142000D01*
Y134700D01*
Y131200D02*Y128200D01*
G54D88*X153200Y134700D02*X155400D01*
X144200D02*X146400D01*
X135200D02*X137400D01*
X119000D02*X127500D01*
G54D87*X161700D02*Y124700D01*
G54D88*X163200Y134700D02*X166400D01*
G54D89*X142300Y135950D02*X163400D01*
X142300Y123450D02*X163700D01*
G54D88*X163200Y124700D02*X166400D01*
X119000D02*X127500D01*
X135200D02*X137400D01*
X144200D02*X146400D01*
X153200D02*X155400D01*
G54D87*X142000D02*Y119700D01*
X129500D02*X142000D01*
Y124700D02*X161700D01*
X129500Y139700D02*Y119700D01*
X42195Y152901D02*X65817D01*
Y129279D01*
X42195D02*X65817D01*
X42195Y152901D02*Y129279D01*
X59912Y141090D02*G75*G03X54006Y146996I-5906J0D01*G01*
Y135184D02*G75*G03X59912Y141090I0J5906D01*G01*
X48100D02*G75*G03X54006Y135184I5906J0D01*G01*
Y146996D02*G75*G03X48100Y141090I0J-5906D01*G01*
X35451Y188885D02*X48049D01*
X35451Y199515D02*X48049D01*
Y194397D02*Y194003D01*
X35451Y194397D02*Y194003D01*
G54D86*X62907Y237487D02*X82592D01*
Y219771D01*
X62907D01*
Y237487D01*
G54D90*X76687Y224692D02*X68813Y232566D01*
G54D86*X80033Y225874D02*Y225873D01*
X80623Y225283D02*Y224889D01*
X80033Y225873D02*X80623Y225283D01*
X65860Y223708D02*Y225874D01*
X66844Y223708D02*X64876D01*
X65860Y225874D02*X65269Y225283D01*
X80623Y223707D02*X78655D01*
X80623Y224889D02*X78655Y223707D01*
Y225283D02*Y225284D01*
X79245Y225874D01*
X80032D01*
X67434Y234141D02*X68222D01*
Y236306D02*X67434D01*
X66844Y235716D01*
Y234731D01*
X67434Y234141D01*
X68812Y235716D02*X68222Y236306D01*
Y234141D02*X68812Y234731D01*
X78655Y228629D02*G75*G03X72749Y234535I-5906J0D01*G01*
G75*G03X66844Y228630I0J-5905D01*G01*
G75*G03X72750Y222724I5906J0D01*G01*
G75*G03X78655Y228629I0J5905D01*G01*
X101250Y161900D02*X101750Y162400D01*
X101250Y161900D02*Y160400D01*
X101750Y159900D02*X101250Y160400D01*
X101750Y159900D02*X102750D01*
X103250Y160400D01*
Y161900D02*Y160400D01*
Y161900D02*X103750Y162400D01*
X104750D01*
X105250Y161900D02*X104750Y162400D01*
X105250Y161900D02*Y160400D01*
X104750Y159900D02*X105250Y160400D01*
X102050Y163600D02*X101250Y164400D01*
X105250D01*
Y165100D02*Y163600D01*
X178841Y185670D02*Y183670D01*
Y185670D02*X178341Y186170D01*
X177141D02*X178341D01*
X176641Y185670D02*X177141Y186170D01*
X176641Y185670D02*Y184170D01*
X174841D02*X178841D01*
X174841Y185670D02*Y183670D01*
Y185670D02*X175341Y186170D01*
X176141D01*
X176641Y185670D02*X176141Y186170D01*
X175841Y187370D02*X178841D01*
X175841D02*X174841Y188070D01*
Y189170D02*Y188070D01*
Y189170D02*X175841Y189870D01*
X178841D01*
X176841D02*Y187370D01*
X174841Y193070D02*Y191070D01*
Y192070D02*X178841D01*
X175641Y194270D02*X174841Y195070D01*
X178841D01*
Y195770D02*Y194270D01*
X169500Y137100D02*Y135800D01*
X170200Y137800D02*X169500Y137100D01*
X170200Y137800D02*X172800D01*
X173500Y137100D01*
Y135800D01*
X170000Y134600D02*X173000D01*
X173500Y134100D01*
Y133100D01*
X173000Y132600D01*
X170000D02*X173000D01*
X169500Y133100D02*X170000Y132600D01*
X169500Y134100D02*Y133100D01*
X170000Y134600D02*X169500Y134100D01*
Y131400D02*X173500D01*
X169500Y128900D01*
X173500D01*
X169500Y127700D02*X173500D01*
X169500Y125200D01*
X173500D01*
X173000Y124000D02*X173500Y123500D01*
Y122000D01*
X173000Y121500D01*
X172000D02*X173000D01*
X169500Y124000D02*X172000Y121500D01*
X169500Y124000D02*Y121500D01*
X50500Y164000D02*X51000Y163500D01*
X49000Y164000D02*X50500D01*
X48500Y163500D02*X49000Y164000D01*
X48500Y163500D02*Y162500D01*
X49000Y162000D01*
X50500D01*
X51000Y161500D01*
Y160500D01*
X50500Y160000D02*X51000Y160500D01*
X49000Y160000D02*X50500D01*
X48500Y160500D02*X49000Y160000D01*
X52200Y163500D02*X52700Y164000D01*
X54200D01*
X54700Y163500D01*
Y162500D01*
X52200Y160000D02*X54700Y162500D01*
X52200Y160000D02*X54700D01*
X35991Y211302D02*Y207302D01*
X37991D01*
X39191Y209502D02*X40691D01*
X39191Y207302D02*X41191D01*
X39191Y211302D02*Y207302D01*
Y211302D02*X41191D01*
X42891D02*Y207302D01*
X44191Y211302D02*X44891Y210602D01*
Y208002D01*
X44191Y207302D02*X44891Y208002D01*
X42391Y207302D02*X44191D01*
X42391Y211302D02*X44191D01*
X46091Y210502D02*X46891Y211302D01*
Y207302D01*
X46091D02*X47591D01*
X64500Y243000D02*X65000Y242500D01*
X63000Y243000D02*X64500D01*
X62500Y242500D02*X63000Y243000D01*
X62500Y242500D02*Y241500D01*
X63000Y241000D01*
X64500D01*
X65000Y240500D01*
Y239500D01*
X64500Y239000D02*X65000Y239500D01*
X63000Y239000D02*X64500D01*
X62500Y239500D02*X63000Y239000D01*
X66200Y242500D02*X66700Y243000D01*
X67700D01*
X68200Y242500D01*
X67700Y239000D02*X68200Y239500D01*
X66700Y239000D02*X67700D01*
X66200Y239500D02*X66700Y239000D01*
Y241200D02*X67700D01*
X68200Y242500D02*Y241700D01*
Y240700D02*Y239500D01*
Y240700D02*X67700Y241200D01*
X68200Y241700D02*X67700Y241200D01*
X80443Y136402D02*Y135102D01*
X81143Y137102D02*X80443Y136402D01*
X81143Y137102D02*X83743D01*
X84443Y136402D01*
Y135102D01*
X80943Y133902D02*X83943D01*
X84443Y133402D01*
Y132402D01*
X83943Y131902D01*
X80943D02*X83943D01*
X80443Y132402D02*X80943Y131902D01*
X80443Y133402D02*Y132402D01*
X80943Y133902D02*X80443Y133402D01*
Y130702D02*X84443D01*
X80443Y128202D01*
X84443D01*
X80443Y127002D02*X84443D01*
X80443Y124502D01*
X84443D01*
X81943Y123302D02*X84443Y121302D01*
X81943Y123302D02*Y120802D01*
X80443Y121302D02*X84443D01*
M02*
