G04 start of page 11 for group -4014 idx -4014 *
G04 Title: (unknown), bottompaste *
G04 Creator: pcb 20140316 *
G04 CreationDate: Mon 06 Apr 2015 04:31:32 PM GMT UTC *
G04 For: fosse *
G04 Format: Gerber/RS-274X *
G04 PCB-Dimensions (mil): 5250.00 3480.00 *
G04 PCB-Coordinate-Origin: lower left *
%MOIN*%
%FSLAX25Y25*%
%LNBOTTOMPASTE*%
%ADD100R,0.0748X0.0748*%
%ADD99R,0.0827X0.0827*%
%ADD98C,0.0600*%
%ADD97R,0.0512X0.0512*%
G54D97*X85319Y168095D02*X87681D01*
X85319Y179905D02*X87681D01*
G54D98*X46000Y219000D03*
Y229000D03*
Y239000D03*
Y249000D03*
X76000D03*
Y239000D03*
Y229000D03*
Y219000D03*
G54D97*X68595Y207681D02*Y205319D01*
X80405Y207681D02*Y205319D01*
X106319Y199095D02*X108681D01*
X106319Y210905D02*X108681D01*
X30607Y215457D02*X31393D01*
X30607Y222543D02*X31393D01*
X30607Y243957D02*X31393D01*
X30607Y251043D02*X31393D01*
X37957Y205893D02*Y205107D01*
X45043Y205893D02*Y205107D01*
G54D99*X69189Y190929D02*Y190535D01*
G54D100*X71551Y170457D02*Y167701D01*
G54D99*X52260Y192504D02*Y192110D01*
G54D100*X40449Y170457D02*Y167701D01*
G54D99*X43598Y181874D02*Y181480D01*
G54D97*X155190Y174681D02*Y172319D01*
X167000Y174681D02*Y172319D01*
X146502Y223307D02*X147288D01*
X146502Y230393D02*X147288D01*
G54D98*X162095Y190000D03*
Y200000D03*
Y210000D03*
Y220000D03*
Y230000D03*
Y240000D03*
Y250000D03*
X192095D03*
Y240000D03*
Y230000D03*
Y220000D03*
Y210000D03*
Y200000D03*
Y190000D03*
G54D97*X145214Y183695D02*X147576D01*
X145214Y195505D02*X147576D01*
X146502Y206557D02*X147288D01*
X146502Y213643D02*X147288D01*
M02*
