M48
INCH
T57C0.020
T56C0.035
T55C0.034
T54C0.090
T53C0.030
T52C0.032
T51C0.028
%
T57
X004950Y008850
X005450Y007800
X004150Y010450
X010950Y010750
X004850Y006350
X005000Y004800
X003150Y008550
X002550Y008450
T51
X014500Y003450
X014500Y004450
X014500Y005450
X014500Y006450
X014500Y007450
X014500Y008450
X014500Y009450
X017500Y009450
X017500Y008450
X017500Y007450
X017500Y006450
X017500Y005450
X017500Y004450
X017500Y003450
X003100Y009700
X003100Y010700
X003100Y011700
X003100Y012700
X006100Y012700
X006100Y011700
X006100Y010700
X006100Y009700
T53
X012700Y014250
X007700Y014250
T52
X015166Y012677
X015658Y013464
X016150Y012677
X016642Y013464
T55
X007200Y007350
X008380Y007350
T56
X007800Y009100
X011350Y007250
X009200Y004800
X002750Y004850
T54
X020040Y002060
X002100Y014500
M30
