G04 start of page 2 for group 0 idx 0 *
G04 Title: (unknown), top *
G04 Creator: pcb 20110918 *
G04 CreationDate: Fri May 31 17:36:31 2013 UTC *
G04 For: fosse *
G04 Format: Gerber/RS-274X *
G04 PCB-Dimensions: 210000 160000 *
G04 PCB-Coordinate-Origin: lower left *
%MOIN*%
%FSLAX25Y25*%
%LNTOP*%
%ADD26C,0.0340*%
%ADD25C,0.0280*%
%ADD24C,0.0300*%
%ADD23C,0.0315*%
%ADD22C,0.0350*%
%ADD21C,0.0360*%
%ADD20R,0.0512X0.0512*%
%ADD19R,0.0512X0.0512*%
%ADD18C,0.0750*%
%ADD17C,0.0600*%
%ADD16C,0.0550*%
%ADD15C,0.0591*%
%ADD14C,0.0001*%
%ADD13C,0.0250*%
%ADD12C,0.0200*%
%ADD11C,0.0400*%
G54D11*X156953Y35000D02*X157079Y35126D01*
X116905Y36100D02*Y34095D01*
X131000Y20000D01*
X81000D02*Y36100D01*
X92810D02*X105095D01*
G54D12*X61000Y32000D02*X69000D01*
X73000Y36000D01*
G54D11*X93000Y35910D02*X92810Y36100D01*
G54D12*X73000Y41000D02*X79000Y47000D01*
G54D11*X105100Y36100D02*Y48100D01*
X109000Y52000D01*
G54D12*X98528Y47528D02*X98000Y47000D01*
X81348D02*X89473Y55126D01*
X94000Y70874D02*Y78000D01*
G54D11*X109000Y52000D02*Y73000D01*
X97000Y85000D01*
G54D12*X98528Y55126D02*Y47528D01*
G54D11*X139000Y84000D02*Y43000D01*
G54D12*X63000Y52000D02*X70000Y59000D01*
X61000Y42000D02*X76000Y57000D01*
X70000Y59000D02*Y75000D01*
X76000Y57000D02*Y74000D01*
G54D13*X157000Y35205D02*X157079Y35126D01*
G54D11*X146000Y78000D02*Y49157D01*
X152157Y43000D01*
X139000D02*X147000Y35000D01*
X156953D01*
X176000Y78000D02*Y44205D01*
X166921Y35126D01*
X176000Y88000D02*X175000D01*
X169000Y82000D01*
Y50000D01*
X162000Y43000D01*
X146000Y88000D02*X143000D01*
X139000Y84000D01*
G54D12*X73000Y36000D02*Y41000D01*
X31000Y32000D02*X23000D01*
X15000Y40000D01*
X79000Y47000D02*X81348D01*
X61000Y52000D02*X63000D01*
X31000Y42000D02*X47000D01*
X51000Y46000D01*
X31000Y52000D02*X42000D01*
X47000Y57000D01*
G54D13*X146000Y128000D02*X130905D01*
X146000Y108000D02*X126543D01*
G54D12*X126000Y107457D02*X126543Y108000D01*
G54D11*X119095D02*Y133095D01*
G54D12*X108000Y120000D02*Y107000D01*
X114000Y101000D01*
X123000D01*
X126000Y104000D01*
Y107457D01*
G54D11*X119095Y133095D02*X124000Y138000D01*
X146000D01*
G54D12*X94000Y125000D02*X103000D01*
X108000Y120000D01*
G54D11*X65000Y99000D02*Y153000D01*
G54D12*X94000Y109000D02*X89000Y114000D01*
Y120000D01*
X94000Y125000D01*
X70000Y75000D02*X94000Y99000D01*
Y109000D01*
X76000Y74000D02*X100000Y98000D01*
Y107000D01*
X15000Y124000D02*X26000Y135000D01*
X41000D01*
X37000Y112000D02*X33543D01*
X30543Y109000D01*
G54D11*X31000Y62000D02*X21000D01*
X9000D02*Y53000D01*
G54D12*X51000Y46000D02*Y112000D01*
X47000Y57000D02*Y90000D01*
X45000Y92000D01*
X15000Y40000D02*Y124000D01*
X37000Y94000D02*X32543D01*
X30543Y96000D01*
X23000Y96457D02*X23457Y96000D01*
X23000Y96457D02*Y108543D01*
X23457Y109000D01*
G54D14*G36*
X149204Y45953D02*Y40047D01*
X155110D01*
Y45953D01*
X149204D01*
G37*
G54D15*X157079Y35126D03*
X162000Y43000D03*
X166921Y35126D03*
G54D14*G36*
X78250Y22750D02*Y17250D01*
X83750D01*
Y22750D01*
X78250D01*
G37*
G54D16*X131000Y20000D03*
G54D14*G36*
X28000Y65000D02*Y59000D01*
X34000D01*
Y65000D01*
X28000D01*
G37*
G54D17*X31000Y52000D03*
Y42000D03*
Y32000D03*
X61000D03*
Y42000D03*
Y52000D03*
Y62000D03*
G54D14*G36*
X143000Y141000D02*Y135000D01*
X149000D01*
Y141000D01*
X143000D01*
G37*
G54D17*X146000Y128000D03*
Y118000D03*
Y108000D03*
X176000D03*
Y118000D03*
Y128000D03*
Y138000D03*
X146000Y98000D03*
X176000D03*
X146000Y88000D03*
X176000D03*
X146000Y78000D03*
X176000D03*
G54D18*X74100Y101900D03*
X85900D03*
G54D19*X9190Y63181D02*Y60819D01*
X21000Y63181D02*Y60819D01*
X23457Y96393D02*Y95607D01*
X30543Y96393D02*Y95607D01*
X23457Y109393D02*Y108607D01*
X30543Y109393D02*Y108607D01*
X119095Y129181D02*Y126819D01*
X130905Y129181D02*Y126819D01*
X119457Y108393D02*Y107607D01*
X126543Y108393D02*Y107607D01*
G54D14*G36*
X90063Y74811D02*Y66937D01*
X97937D01*
Y74811D01*
X90063D01*
G37*
G54D19*X81000Y37281D02*Y34919D01*
X92810Y37281D02*Y34919D01*
X105095Y37281D02*Y34919D01*
X116905Y37281D02*Y34919D01*
X98528Y56504D02*Y53748D01*
G54D20*X89473Y56503D02*Y53748D01*
G54D21*X41000Y135000D03*
G54D17*X9000Y53000D03*
G54D21*X37000Y112000D03*
Y94000D03*
X23000Y102000D03*
X94000Y78000D03*
G54D17*X97000Y85000D03*
X65000Y99000D03*
Y152000D03*
G54D21*X98000Y47000D03*
X100000Y107000D03*
X51000Y112000D03*
X45000Y92000D03*
G54D12*G54D22*G54D12*G54D22*G54D12*G54D23*G54D24*G54D25*G54D26*M02*
