G04 start of page 7 for group -4062 idx -4062 *
G04 Title: (unknown), soldermask *
G04 Creator: pcb 20110918 *
G04 CreationDate: Fri May 31 17:36:31 2013 UTC *
G04 For: fosse *
G04 Format: Gerber/RS-274X *
G04 PCB-Dimensions: 210000 160000 *
G04 PCB-Coordinate-Origin: lower left *
%MOIN*%
%FSLAX25Y25*%
%LNBOTTOMMASK*%
%ADD72R,0.0494X0.0494*%
%ADD71R,0.0651X0.0651*%
%ADD70R,0.0490X0.0490*%
%ADD69R,0.0493X0.0493*%
%ADD68R,0.0493X0.0493*%
%ADD67R,0.0572X0.0572*%
%ADD66C,0.0810*%
%ADD65C,0.0660*%
%ADD64C,0.0610*%
%ADD63C,0.0651*%
%ADD62C,0.0001*%
G54D62*G36*
X148904Y46253D02*Y39747D01*
X155410D01*
Y46253D01*
X148904D01*
G37*
G54D63*X157079Y35126D03*
X162000Y43000D03*
X166921Y35126D03*
G54D62*G36*
X77950Y23050D02*Y16950D01*
X84050D01*
Y23050D01*
X77950D01*
G37*
G54D64*X131000Y20000D03*
G54D62*G36*
X27700Y65300D02*Y58700D01*
X34300D01*
Y65300D01*
X27700D01*
G37*
G54D65*X31000Y52000D03*
Y42000D03*
Y32000D03*
X61000D03*
Y42000D03*
Y52000D03*
Y62000D03*
G54D62*G36*
X142700Y141300D02*Y134700D01*
X149300D01*
Y141300D01*
X142700D01*
G37*
G54D65*X146000Y128000D03*
Y118000D03*
Y108000D03*
X176000D03*
Y118000D03*
Y128000D03*
Y138000D03*
X146000Y98000D03*
X176000D03*
X146000Y88000D03*
X176000D03*
X146000Y78000D03*
X176000D03*
G54D66*X74100Y101900D03*
X85900D03*
G54D67*X157457Y108393D02*Y107607D01*
X164543Y108393D02*Y107607D01*
G54D68*X96002Y118000D02*X96397D01*
G54D69*X91081Y134141D02*X91475D01*
G54D70*X80000Y92050D02*Y91250D01*
X89800Y92050D02*Y91250D01*
G54D69*X100923Y134141D02*X101317D01*
G54D71*X49055Y134874D02*X54370D01*
X49055Y127000D02*X54370D01*
X75630Y134874D02*X80945D01*
X75630Y119126D02*X80945D01*
G54D72*X53906Y100244D02*X55874D01*
X53906Y105756D02*X55874D01*
X40126Y100244D02*X42094D01*
X40126Y105756D02*X42094D01*
G54D71*X49055Y119126D02*X54370D01*
G54D70*X70200Y92050D02*Y91250D01*
M02*
