G04 start of page 2 for group 0 idx 0 *
G04 Title: (unknown), top *
G04 Creator: pcb 20110918 *
G04 CreationDate: Thu Jun  6 16:44:37 2013 UTC *
G04 For: fosse *
G04 Format: Gerber/RS-274X *
G04 PCB-Dimensions: 210000 156000 *
G04 PCB-Coordinate-Origin: lower left *
%MOIN*%
%FSLAX25Y25*%
%LNTOP*%
%ADD32C,0.0340*%
%ADD31C,0.0900*%
%ADD30C,0.0300*%
%ADD29C,0.0315*%
%ADD28C,0.0280*%
%ADD27C,0.0350*%
%ADD26C,0.0360*%
%ADD25R,0.0394X0.0394*%
%ADD24R,0.0512X0.0512*%
%ADD23R,0.0433X0.0433*%
%ADD22R,0.0433X0.0433*%
%ADD21R,0.0551X0.0551*%
%ADD20R,0.0390X0.0390*%
%ADD19C,0.0750*%
%ADD18C,0.1450*%
%ADD17C,0.0550*%
%ADD16C,0.0591*%
%ADD15C,0.0600*%
%ADD14C,0.0001*%
%ADD13C,0.0250*%
%ADD12C,0.0200*%
%ADD11C,0.0400*%
G54D11*X18500Y37000D02*X39500Y16000D01*
G54D12*X49888Y55839D02*Y40091D01*
G54D13*X27457Y55000D02*Y42000D01*
G54D12*X34500Y55043D02*X34543Y55000D01*
X40000Y47457D02*X34543Y42000D01*
G54D11*X163500Y51500D02*Y55249D01*
X163043Y55706D01*
X145000Y64500D02*X152000D01*
X155500Y61000D01*
Y56163D01*
X155957Y55706D01*
X175000Y64500D02*Y54500D01*
Y44500D02*X170500D01*
X163500Y51500D01*
X175000Y84500D02*X166000D01*
X161500Y89000D01*
X151657Y126771D02*Y101157D01*
X148000Y134500D02*X156434D01*
X156579Y134645D01*
X161500Y89000D02*Y126771D01*
X175000Y94500D02*Y126066D01*
X166421Y134645D01*
X151657Y101157D02*X145000Y94500D01*
X138500Y91000D02*Y125000D01*
X148000Y134500D01*
X145000Y84500D02*X138500Y91000D01*
X68100Y83750D02*X44750D01*
X40000Y88500D01*
Y96103D01*
X78000Y91000D02*Y83850D01*
X77900Y83750D01*
X40095Y96603D02*X31397D01*
X31000Y97000D01*
X51905Y96603D02*X60603D01*
X40000Y96103D02*X40500Y96603D01*
X31000Y97000D02*X21500D01*
X18500Y94000D01*
X60603Y96603D02*X61000Y97000D01*
G54D12*Y127000D02*X90000D01*
X61000Y107000D02*X102500D01*
X90000Y127000D02*X109500Y107500D01*
X61000Y117000D02*X56000D01*
X46500Y107500D01*
Y91500D01*
X31000Y127000D02*X37500D01*
X41500Y123000D01*
Y104500D01*
G54D11*X39500Y16000D02*X171500D01*
X175000Y19500D02*Y34500D01*
X171500Y16000D02*X175000Y19500D01*
X110000Y16000D02*Y69000D01*
G54D12*X88000Y63500D02*X93724Y57775D01*
G54D11*X76462Y47965D02*X92314D01*
X98645Y41634D01*
G54D12*X76124Y55500D02*X76462Y55839D01*
X40000Y62000D02*Y47457D01*
G54D11*X18500Y94000D02*Y37000D01*
G54D12*X46500Y91500D02*X49500Y88500D01*
X54500Y78000D02*Y71000D01*
X31500Y85500D02*X34146D01*
X44390Y75256D01*
X25500Y84500D02*X29000Y81000D01*
X34000D01*
X30610Y75256D02*X33744D01*
X34000Y81000D02*X38500Y76500D01*
Y71500D01*
X40000Y70000D01*
X33744Y75256D02*X35500Y73500D01*
Y66500D01*
X40000Y62000D01*
X30610Y69744D02*Y63890D01*
X34500Y60000D01*
Y55043D01*
G54D11*X110000Y69000D02*X113500Y72500D01*
G54D12*X102500Y107000D02*X145000Y64500D01*
X76462Y40091D02*X70409D01*
X68000Y42500D01*
Y53000D01*
X70500Y55500D01*
X76124D01*
X57000Y63500D02*X68000Y52500D01*
X54500Y71000D02*X62000Y63500D01*
X88000D01*
X48500D02*X57000D01*
X40000Y70000D02*X44134D01*
X44390Y69744D01*
G54D14*G36*
X142000Y37500D02*Y31500D01*
X148000D01*
Y37500D01*
X142000D01*
G37*
G54D15*X145000Y44500D03*
Y54500D03*
Y64500D03*
Y74500D03*
Y84500D03*
Y94500D03*
G54D14*G36*
X148704Y129724D02*Y123818D01*
X154610D01*
Y129724D01*
X148704D01*
G37*
G54D16*X156579Y134645D03*
X161500Y126771D03*
X166421Y134645D03*
G54D17*X127000Y142500D03*
G54D15*X175000Y94500D03*
Y84500D03*
Y74500D03*
Y64500D03*
Y54500D03*
Y44500D03*
Y34500D03*
G54D18*X200400Y20600D03*
G54D19*X72000Y73500D03*
X83800D03*
G54D18*X21000Y145000D03*
G54D14*G36*
X28000Y100000D02*Y94000D01*
X34000D01*
Y100000D01*
X28000D01*
G37*
G54D15*X31000Y107000D03*
Y117000D03*
Y127000D03*
X61000D03*
G54D14*G36*
X74250Y145250D02*Y139750D01*
X79750D01*
Y145250D01*
X74250D01*
G37*
G54D15*X61000Y117000D03*
Y107000D03*
Y97000D03*
G54D20*X77900Y84150D02*Y83350D01*
X68100Y84150D02*Y83350D01*
X87700Y84150D02*Y83350D01*
G54D21*X73805Y55839D02*X79120D01*
G54D22*X93527Y57775D02*X93922D01*
G54D21*X73805Y47965D02*X79120D01*
X73805Y40091D02*X79120D01*
G54D23*X88606Y41634D02*X89000D01*
X98448D02*X98842D01*
G54D21*X47230Y55839D02*X52545D01*
G54D24*X155957Y56099D02*Y55313D01*
X163043Y56099D02*Y55313D01*
G54D21*X47230Y40091D02*X52545D01*
G54D24*X40095Y97784D02*Y95422D01*
X51905Y97784D02*Y95422D01*
G54D25*X43406Y75256D02*X45374D01*
X43406Y69744D02*X45374D01*
X29626Y75256D02*X31594D01*
X29626Y69744D02*X31594D01*
G54D24*X27457Y42393D02*Y41607D01*
X34543Y42393D02*Y41607D01*
X27457Y55393D02*Y54607D01*
X34543Y55393D02*Y54607D01*
G54D15*X78000Y91000D03*
G54D26*X49500Y88500D03*
X54500Y78000D03*
X41500Y104500D03*
G54D15*X113500Y72500D03*
G54D26*X109500Y107500D03*
G54D15*X92000Y48000D03*
G54D26*X48500Y63500D03*
X50000Y48000D03*
G54D15*X27500Y48500D03*
G54D26*X31500Y85500D03*
X25500Y84500D03*
G54D27*G54D12*G54D27*G54D12*G54D27*G54D12*G54D27*G54D12*G54D28*G54D29*G54D30*G54D28*G54D31*G54D32*G54D31*G54D28*G54D30*G54D28*M02*
