G04 start of page 2 for group 0 idx 0 *
G04 Title: (unknown), top *
G04 Creator: pcb 20140316 *
G04 CreationDate: Wed 08 Apr 2015 09:08:40 AM GMT UTC *
G04 For: fosse *
G04 Format: Gerber/RS-274X *
G04 PCB-Dimensions (mil): 2290.00 2790.00 *
G04 PCB-Coordinate-Origin: lower left *
%MOIN*%
%FSLAX25Y25*%
%LNTOP*%
%ADD36C,0.0315*%
%ADD35C,0.0420*%
%ADD34C,0.0340*%
%ADD33C,0.0433*%
%ADD32C,0.1650*%
%ADD31C,0.1250*%
%ADD30C,0.0350*%
%ADD29C,0.1900*%
%ADD28C,0.1700*%
%ADD27C,0.1500*%
%ADD26C,0.0360*%
%ADD25R,0.0591X0.0591*%
%ADD24R,0.0394X0.0394*%
%ADD23R,0.0551X0.0551*%
%ADD22R,0.0433X0.0433*%
%ADD21R,0.0433X0.0433*%
%ADD20R,0.0390X0.0390*%
%ADD19R,0.0394X0.0394*%
%ADD18C,0.0600*%
%ADD17C,0.0750*%
%ADD16C,0.0591*%
%ADD15C,0.0060*%
%ADD14C,0.0200*%
%ADD13C,0.0250*%
%ADD12C,0.0400*%
%ADD11C,0.0001*%
G54D11*G36*
X210004Y267991D02*X210405D01*
X211211Y267923D01*
X211593Y267857D01*
X211750Y267700D01*
X212335D01*
X212791Y267581D01*
X213554Y267310D01*
X214290Y266976D01*
X214996Y266580D01*
X215666Y266126D01*
X216294Y265616D01*
X216331Y265587D01*
X216373Y265565D01*
X216392Y265558D01*
X217044Y264906D01*
X217057Y264869D01*
X217080Y264826D01*
X217109Y264788D01*
X217626Y264166D01*
X218080Y263496D01*
X218476Y262790D01*
X218810Y262054D01*
X219081Y261291D01*
X219285Y260508D01*
X219423Y259711D01*
X219491Y258905D01*
Y258095D01*
X219423Y257289D01*
X219285Y256492D01*
X219081Y255709D01*
X218810Y254946D01*
X218476Y254210D01*
X218080Y253504D01*
X217626Y252834D01*
X217116Y252206D01*
X217087Y252169D01*
X217065Y252127D01*
X217049Y252083D01*
X217041Y252036D01*
X217040Y251989D01*
X217047Y251942D01*
X217061Y251897D01*
X217081Y251855D01*
X217108Y251816D01*
X217141Y251782D01*
X217179Y251754D01*
X217221Y251731D01*
X217265Y251716D01*
X217312Y251708D01*
X217359Y251707D01*
X217406Y251714D01*
X217451Y251727D01*
X217493Y251748D01*
X217532Y251775D01*
X217565Y251809D01*
X218115Y252471D01*
X218598Y253184D01*
X219019Y253934D01*
X219375Y254719D01*
X219663Y255530D01*
X219750Y255863D01*
Y122537D01*
X219663Y122870D01*
X219375Y123681D01*
X219019Y124466D01*
X218598Y125216D01*
X218115Y125929D01*
X217572Y126597D01*
X217538Y126632D01*
X217498Y126659D01*
X217454Y126681D01*
X217408Y126695D01*
X217360Y126702D01*
X217311Y126701D01*
X217263Y126692D01*
X217217Y126677D01*
X217174Y126654D01*
X217136Y126625D01*
X217102Y126590D01*
X217074Y126550D01*
X217053Y126506D01*
X217038Y126460D01*
X217032Y126412D01*
X217033Y126363D01*
X217041Y126315D01*
X217057Y126269D01*
X217080Y126226D01*
X217109Y126188D01*
X217626Y125566D01*
X218080Y124896D01*
X218476Y124190D01*
X218810Y123454D01*
X219081Y122691D01*
X219285Y121908D01*
X219423Y121111D01*
X219491Y120305D01*
Y119495D01*
X219423Y118689D01*
X219285Y117892D01*
X219081Y117109D01*
X218810Y116346D01*
X218476Y115610D01*
X218080Y114904D01*
X217626Y114234D01*
X217116Y113606D01*
X217087Y113569D01*
X217065Y113527D01*
X217058Y113508D01*
X216406Y112856D01*
X216369Y112843D01*
X216326Y112820D01*
X216288Y112791D01*
X215666Y112274D01*
X214996Y111820D01*
X214290Y111424D01*
X213554Y111090D01*
X212791Y110819D01*
X212008Y110615D01*
X211211Y110477D01*
X210405Y110409D01*
X210004D01*
Y129391D01*
X210405D01*
X211211Y129323D01*
X212008Y129185D01*
X212791Y128981D01*
X213554Y128710D01*
X214290Y128376D01*
X214996Y127980D01*
X215666Y127526D01*
X216294Y127016D01*
X216331Y126987D01*
X216373Y126965D01*
X216417Y126949D01*
X216464Y126941D01*
X216511Y126940D01*
X216558Y126947D01*
X216603Y126961D01*
X216645Y126981D01*
X216684Y127008D01*
X216718Y127041D01*
X216746Y127079D01*
X216769Y127121D01*
X216784Y127165D01*
X216792Y127212D01*
X216793Y127259D01*
X216786Y127306D01*
X216773Y127351D01*
X216752Y127393D01*
X216725Y127432D01*
X216691Y127465D01*
X216029Y128015D01*
X215316Y128498D01*
X214566Y128919D01*
X213781Y129275D01*
X212970Y129563D01*
X212137Y129781D01*
X211288Y129927D01*
X210431Y130000D01*
X210004D01*
Y158075D01*
X212485Y158076D01*
X212577Y158098D01*
X212664Y158134D01*
X212744Y158183D01*
X212816Y158244D01*
X212878Y158316D01*
X212927Y158397D01*
X212963Y158484D01*
X212985Y158576D01*
X212991Y158670D01*
X212985Y164864D01*
X212963Y164956D01*
X212927Y165043D01*
X212878Y165124D01*
X212816Y165196D01*
X212744Y165257D01*
X212664Y165306D01*
X212577Y165342D01*
X212485Y165364D01*
X212391Y165370D01*
X210004Y165370D01*
Y248400D01*
X210431D01*
X211288Y248473D01*
X212137Y248619D01*
X212970Y248837D01*
X213781Y249125D01*
X214566Y249481D01*
X215316Y249902D01*
X216029Y250385D01*
X216697Y250928D01*
X216732Y250962D01*
X216759Y251002D01*
X216781Y251046D01*
X216795Y251092D01*
X216802Y251140D01*
X216801Y251189D01*
X216792Y251237D01*
X216777Y251283D01*
X216754Y251326D01*
X216725Y251364D01*
X216690Y251398D01*
X216650Y251426D01*
X216606Y251447D01*
X216560Y251462D01*
X216512Y251468D01*
X216463Y251467D01*
X216415Y251459D01*
X216369Y251443D01*
X216326Y251420D01*
X216288Y251391D01*
X215666Y250874D01*
X214996Y250420D01*
X214290Y250024D01*
X213554Y249690D01*
X212791Y249419D01*
X212008Y249215D01*
X211211Y249077D01*
X210405Y249009D01*
X210004D01*
Y267991D01*
G37*
G36*
Y110409D02*X209595D01*
X208789Y110477D01*
X207992Y110615D01*
X207209Y110819D01*
X206446Y111090D01*
X205710Y111424D01*
X205004Y111820D01*
X204334Y112274D01*
X203706Y112784D01*
X203669Y112813D01*
X203627Y112835D01*
X203583Y112851D01*
X203536Y112859D01*
X203489Y112860D01*
X203442Y112853D01*
X203397Y112839D01*
X203355Y112819D01*
X203316Y112792D01*
X203282Y112759D01*
X203254Y112721D01*
X203231Y112679D01*
X203216Y112635D01*
X203208Y112588D01*
X203207Y112541D01*
X203214Y112494D01*
X203227Y112449D01*
X203248Y112407D01*
X203275Y112368D01*
X203309Y112335D01*
X203971Y111785D01*
X204684Y111302D01*
X205434Y110881D01*
X206219Y110525D01*
X207030Y110237D01*
X207171Y110200D01*
X201434D01*
Y114536D01*
X201885Y113871D01*
X202428Y113203D01*
X202462Y113168D01*
X202502Y113141D01*
X202546Y113119D01*
X202592Y113105D01*
X202640Y113098D01*
X202689Y113099D01*
X202737Y113108D01*
X202783Y113123D01*
X202826Y113146D01*
X202864Y113175D01*
X202898Y113210D01*
X202926Y113250D01*
X202947Y113294D01*
X202962Y113340D01*
X202968Y113388D01*
X202967Y113437D01*
X202959Y113485D01*
X202943Y113531D01*
X202920Y113574D01*
X202891Y113612D01*
X202374Y114234D01*
X201920Y114904D01*
X201524Y115610D01*
X201434Y115808D01*
Y123992D01*
X201524Y124190D01*
X201920Y124896D01*
X202374Y125566D01*
X202884Y126194D01*
X202913Y126231D01*
X202935Y126273D01*
X202951Y126317D01*
X202959Y126364D01*
X202960Y126411D01*
X202953Y126458D01*
X202939Y126503D01*
X202919Y126545D01*
X202892Y126584D01*
X202859Y126618D01*
X202821Y126646D01*
X202779Y126669D01*
X202735Y126684D01*
X202688Y126692D01*
X202641Y126693D01*
X202594Y126686D01*
X202549Y126673D01*
X202507Y126652D01*
X202468Y126625D01*
X202435Y126591D01*
X201885Y125929D01*
X201434Y125264D01*
Y158075D01*
X210004Y158075D01*
Y130000D01*
X209569D01*
X208712Y129927D01*
X207863Y129781D01*
X207030Y129563D01*
X206219Y129275D01*
X205434Y128919D01*
X204684Y128498D01*
X203971Y128015D01*
X203303Y127472D01*
X203268Y127438D01*
X203241Y127398D01*
X203219Y127354D01*
X203205Y127308D01*
X203198Y127260D01*
X203199Y127211D01*
X203208Y127163D01*
X203223Y127117D01*
X203246Y127074D01*
X203275Y127036D01*
X203310Y127002D01*
X203350Y126974D01*
X203394Y126953D01*
X203440Y126938D01*
X203488Y126932D01*
X203537Y126933D01*
X203585Y126941D01*
X203631Y126957D01*
X203674Y126980D01*
X203712Y127009D01*
X204334Y127526D01*
X205004Y127980D01*
X205710Y128376D01*
X206446Y128710D01*
X207209Y128981D01*
X207992Y129185D01*
X208789Y129323D01*
X209595Y129391D01*
X210004D01*
Y110409D01*
G37*
G36*
X201434Y115808D02*X201190Y116346D01*
X200919Y117109D01*
X200715Y117892D01*
X200577Y118689D01*
X200509Y119495D01*
Y120305D01*
X200577Y121111D01*
X200715Y121908D01*
X200919Y122691D01*
X201190Y123454D01*
X201434Y123992D01*
Y115808D01*
G37*
G36*
X192466Y128753D02*X192709Y128183D01*
X192944Y127459D01*
X193114Y126716D01*
X193216Y125961D01*
X193250Y125200D01*
X193216Y124439D01*
X193114Y123684D01*
X192944Y122941D01*
X192709Y122217D01*
X192466Y121647D01*
Y128753D01*
G37*
G36*
X201434Y110200D02*X192466D01*
Y120371D01*
X192573Y120533D01*
X192959Y121252D01*
X193280Y122003D01*
X193532Y122779D01*
X193713Y123575D01*
X193823Y124384D01*
X193859Y125200D01*
X193823Y126016D01*
X193713Y126825D01*
X193532Y127621D01*
X193280Y128397D01*
X192959Y129148D01*
X192573Y129867D01*
X192466Y130029D01*
Y158074D01*
X201434Y158075D01*
Y125264D01*
X201402Y125216D01*
X200981Y124466D01*
X200625Y123681D01*
X200337Y122870D01*
X200119Y122037D01*
X199973Y121188D01*
X199900Y120331D01*
Y119469D01*
X199973Y118612D01*
X200119Y117763D01*
X200337Y116930D01*
X200625Y116119D01*
X200981Y115334D01*
X201402Y114584D01*
X201434Y114536D01*
Y110200D01*
G37*
G36*
X192466D02*X184754D01*
Y116091D01*
X185566Y116127D01*
X186375Y116237D01*
X187171Y116418D01*
X187947Y116670D01*
X188698Y116991D01*
X189417Y117377D01*
X190099Y117827D01*
X190737Y118335D01*
X190772Y118369D01*
X190800Y118409D01*
X190821Y118453D01*
X190836Y118499D01*
X190843Y118547D01*
X190842Y118595D01*
X190834Y118643D01*
X190819Y118689D01*
X190796Y118732D01*
X190767Y118771D01*
X190733Y118805D01*
X190693Y118834D01*
X190650Y118855D01*
X190603Y118870D01*
X190555Y118877D01*
X190507Y118876D01*
X190459Y118868D01*
X190413Y118853D01*
X190370Y118830D01*
X190331Y118801D01*
X189741Y118320D01*
X189105Y117900D01*
X188434Y117540D01*
X187733Y117241D01*
X187009Y117006D01*
X186266Y116836D01*
X185511Y116734D01*
X184754Y116700D01*
Y133700D01*
X185511Y133666D01*
X186266Y133564D01*
X187009Y133394D01*
X187733Y133159D01*
X188434Y132860D01*
X189105Y132500D01*
X189741Y132080D01*
X190337Y131606D01*
X190374Y131577D01*
X190416Y131555D01*
X190461Y131540D01*
X190507Y131532D01*
X190555Y131532D01*
X190601Y131539D01*
X190646Y131553D01*
X190689Y131574D01*
X190727Y131601D01*
X190761Y131634D01*
X190789Y131672D01*
X190811Y131714D01*
X190826Y131759D01*
X190834Y131805D01*
X190834Y131853D01*
X190827Y131899D01*
X190813Y131944D01*
X190792Y131987D01*
X190765Y132025D01*
X190731Y132058D01*
X190099Y132573D01*
X189417Y133023D01*
X188698Y133409D01*
X187947Y133730D01*
X187171Y133982D01*
X186375Y134163D01*
X185566Y134273D01*
X184754Y134309D01*
Y158074D01*
X192466Y158074D01*
Y130029D01*
X192123Y130549D01*
X191615Y131187D01*
X191581Y131222D01*
X191541Y131250D01*
X191497Y131271D01*
X191451Y131286D01*
X191403Y131293D01*
X191355Y131292D01*
X191307Y131284D01*
X191261Y131269D01*
X191218Y131246D01*
X191179Y131217D01*
X191145Y131183D01*
X191116Y131143D01*
X191095Y131100D01*
X191080Y131053D01*
X191073Y131005D01*
X191074Y130957D01*
X191082Y130909D01*
X191097Y130863D01*
X191120Y130820D01*
X191149Y130781D01*
X191630Y130191D01*
X192050Y129555D01*
X192410Y128884D01*
X192466Y128753D01*
Y121647D01*
X192410Y121516D01*
X192050Y120845D01*
X191630Y120209D01*
X191156Y119613D01*
X191127Y119576D01*
X191105Y119534D01*
X191090Y119489D01*
X191082Y119443D01*
X191082Y119395D01*
X191089Y119349D01*
X191103Y119304D01*
X191124Y119261D01*
X191151Y119223D01*
X191184Y119189D01*
X191222Y119161D01*
X191264Y119139D01*
X191309Y119124D01*
X191355Y119116D01*
X191403Y119116D01*
X191449Y119123D01*
X191494Y119137D01*
X191537Y119158D01*
X191575Y119185D01*
X191608Y119219D01*
X192123Y119851D01*
X192466Y120371D01*
Y110200D01*
G37*
G36*
X184754D02*X177034D01*
Y120371D01*
X177377Y119851D01*
X177885Y119213D01*
X177919Y119178D01*
X177959Y119150D01*
X178003Y119129D01*
X178049Y119114D01*
X178097Y119107D01*
X178145Y119108D01*
X178193Y119116D01*
X178239Y119131D01*
X178282Y119154D01*
X178321Y119183D01*
X178355Y119217D01*
X178384Y119257D01*
X178405Y119300D01*
X178420Y119347D01*
X178427Y119395D01*
X178426Y119443D01*
X178418Y119491D01*
X178403Y119537D01*
X178380Y119580D01*
X178351Y119619D01*
X177870Y120209D01*
X177450Y120845D01*
X177090Y121516D01*
X177034Y121647D01*
Y128753D01*
X177090Y128884D01*
X177450Y129555D01*
X177870Y130191D01*
X178344Y130787D01*
X178373Y130824D01*
X178395Y130866D01*
X178410Y130911D01*
X178418Y130957D01*
X178418Y131005D01*
X178411Y131051D01*
X178397Y131096D01*
X178376Y131139D01*
X178349Y131177D01*
X178316Y131211D01*
X178278Y131239D01*
X178236Y131261D01*
X178191Y131276D01*
X178145Y131284D01*
X178097Y131284D01*
X178051Y131277D01*
X178006Y131263D01*
X177963Y131242D01*
X177925Y131215D01*
X177892Y131181D01*
X177377Y130549D01*
X177034Y130029D01*
Y158073D01*
X184754Y158074D01*
Y134309D01*
X184750Y134309D01*
X183934Y134273D01*
X183125Y134163D01*
X182329Y133982D01*
X181553Y133730D01*
X180802Y133409D01*
X180083Y133023D01*
X179401Y132573D01*
X178763Y132065D01*
X178728Y132031D01*
X178700Y131991D01*
X178679Y131947D01*
X178664Y131901D01*
X178657Y131853D01*
X178658Y131805D01*
X178666Y131757D01*
X178681Y131711D01*
X178704Y131668D01*
X178733Y131629D01*
X178767Y131595D01*
X178807Y131566D01*
X178850Y131545D01*
X178897Y131530D01*
X178945Y131523D01*
X178993Y131524D01*
X179041Y131532D01*
X179087Y131547D01*
X179130Y131570D01*
X179169Y131599D01*
X179759Y132080D01*
X180395Y132500D01*
X181066Y132860D01*
X181767Y133159D01*
X182491Y133394D01*
X183234Y133564D01*
X183989Y133666D01*
X184750Y133700D01*
X184754Y133700D01*
Y116700D01*
X184750Y116700D01*
X183989Y116734D01*
X183234Y116836D01*
X182491Y117006D01*
X181767Y117241D01*
X181066Y117540D01*
X180395Y117900D01*
X179759Y118320D01*
X179163Y118794D01*
X179126Y118823D01*
X179084Y118845D01*
X179039Y118860D01*
X178993Y118868D01*
X178945Y118868D01*
X178899Y118861D01*
X178854Y118847D01*
X178811Y118826D01*
X178773Y118799D01*
X178739Y118766D01*
X178711Y118728D01*
X178689Y118686D01*
X178674Y118641D01*
X178666Y118595D01*
X178666Y118547D01*
X178673Y118501D01*
X178687Y118456D01*
X178708Y118413D01*
X178735Y118375D01*
X178769Y118342D01*
X179401Y117827D01*
X180083Y117377D01*
X180802Y116991D01*
X181553Y116670D01*
X182329Y116418D01*
X183125Y116237D01*
X183934Y116127D01*
X184750Y116091D01*
X184754Y116091D01*
Y110200D01*
G37*
G36*
X177034Y121647D02*X176791Y122217D01*
X176556Y122941D01*
X176386Y123684D01*
X176284Y124439D01*
X176250Y125200D01*
X176284Y125961D01*
X176386Y126716D01*
X176556Y127459D01*
X176791Y128183D01*
X177034Y128753D01*
Y121647D01*
G37*
G36*
Y110200D02*X174591D01*
Y158073D01*
X177034Y158073D01*
Y130029D01*
X176927Y129867D01*
X176541Y129148D01*
X176220Y128397D01*
X175968Y127621D01*
X175787Y126825D01*
X175677Y126016D01*
X175641Y125200D01*
X175677Y124384D01*
X175787Y123575D01*
X175968Y122779D01*
X176220Y122003D01*
X176541Y121252D01*
X176927Y120533D01*
X177034Y120371D01*
Y110200D01*
G37*
G36*
X201434Y268200D02*X207171D01*
X207030Y268163D01*
X206219Y267875D01*
X205434Y267519D01*
X204684Y267098D01*
X203971Y266615D01*
X203303Y266072D01*
X203268Y266038D01*
X203241Y265998D01*
X203219Y265954D01*
X203205Y265908D01*
X203198Y265860D01*
X203199Y265811D01*
X203208Y265763D01*
X203223Y265717D01*
X203246Y265674D01*
X203275Y265636D01*
X203310Y265602D01*
X203350Y265574D01*
X203394Y265553D01*
X203440Y265538D01*
X203488Y265532D01*
X203537Y265533D01*
X203585Y265541D01*
X203631Y265557D01*
X203674Y265580D01*
X203712Y265609D01*
X204334Y266126D01*
X205004Y266580D01*
X205710Y266976D01*
X206446Y267310D01*
X207209Y267581D01*
X207992Y267785D01*
X208789Y267923D01*
X209595Y267991D01*
X210004D01*
Y249009D01*
X209595D01*
X208789Y249077D01*
X207992Y249215D01*
X207209Y249419D01*
X206446Y249690D01*
X205710Y250024D01*
X205004Y250420D01*
X204334Y250874D01*
X203706Y251384D01*
X203669Y251413D01*
X203627Y251435D01*
X203583Y251451D01*
X203536Y251459D01*
X203489Y251460D01*
X203442Y251453D01*
X203397Y251439D01*
X203355Y251419D01*
X203316Y251392D01*
X203282Y251359D01*
X203254Y251321D01*
X203231Y251279D01*
X203216Y251235D01*
X203208Y251188D01*
X203207Y251141D01*
X203214Y251094D01*
X203227Y251049D01*
X203248Y251007D01*
X203275Y250968D01*
X203309Y250935D01*
X203971Y250385D01*
X204684Y249902D01*
X205434Y249481D01*
X206219Y249125D01*
X207030Y248837D01*
X207863Y248619D01*
X208712Y248473D01*
X209569Y248400D01*
X210004D01*
Y165370D01*
X201434Y165369D01*
Y253136D01*
X201885Y252471D01*
X202428Y251803D01*
X202462Y251768D01*
X202502Y251741D01*
X202546Y251719D01*
X202592Y251705D01*
X202640Y251698D01*
X202689Y251699D01*
X202737Y251708D01*
X202783Y251723D01*
X202826Y251746D01*
X202864Y251775D01*
X202898Y251810D01*
X202926Y251850D01*
X202947Y251894D01*
X202962Y251940D01*
X202968Y251988D01*
X202967Y252037D01*
X202959Y252085D01*
X202943Y252131D01*
X202920Y252174D01*
X202891Y252212D01*
X202374Y252834D01*
X201920Y253504D01*
X201524Y254210D01*
X201434Y254408D01*
Y262592D01*
X201524Y262790D01*
X201920Y263496D01*
X202374Y264166D01*
X202884Y264794D01*
X202913Y264831D01*
X202935Y264873D01*
X202951Y264917D01*
X202959Y264964D01*
X202960Y265011D01*
X202953Y265058D01*
X202939Y265103D01*
X202919Y265145D01*
X202892Y265184D01*
X202859Y265218D01*
X202821Y265246D01*
X202779Y265269D01*
X202735Y265284D01*
X202688Y265292D01*
X202641Y265293D01*
X202594Y265286D01*
X202549Y265273D01*
X202507Y265252D01*
X202468Y265225D01*
X202435Y265191D01*
X201885Y264529D01*
X201434Y263864D01*
Y268200D01*
G37*
G36*
Y254408D02*X201190Y254946D01*
X200919Y255709D01*
X200715Y256492D01*
X200577Y257289D01*
X200509Y258095D01*
Y258905D01*
X200577Y259711D01*
X200715Y260508D01*
X200919Y261291D01*
X201190Y262054D01*
X201434Y262592D01*
Y254408D01*
G37*
G36*
X192466Y256753D02*X192709Y256183D01*
X192944Y255459D01*
X193114Y254716D01*
X193216Y253961D01*
X193250Y253200D01*
X193216Y252439D01*
X193114Y251684D01*
X192944Y250941D01*
X192709Y250217D01*
X192466Y249647D01*
Y256753D01*
G37*
G36*
Y268200D02*X201434D01*
Y263864D01*
X201402Y263816D01*
X200981Y263066D01*
X200625Y262281D01*
X200337Y261470D01*
X200119Y260637D01*
X199973Y259788D01*
X199900Y258931D01*
Y258069D01*
X199973Y257212D01*
X200119Y256363D01*
X200337Y255530D01*
X200625Y254719D01*
X200981Y253934D01*
X201402Y253184D01*
X201434Y253136D01*
Y165369D01*
X192466Y165369D01*
Y248371D01*
X192573Y248533D01*
X192959Y249252D01*
X193280Y250003D01*
X193532Y250779D01*
X193713Y251575D01*
X193823Y252384D01*
X193859Y253200D01*
X193823Y254016D01*
X193713Y254825D01*
X193532Y255621D01*
X193280Y256397D01*
X192959Y257148D01*
X192573Y257867D01*
X192466Y258029D01*
Y268200D01*
G37*
G36*
X184754D02*X192466D01*
Y258029D01*
X192123Y258549D01*
X191615Y259187D01*
X191581Y259222D01*
X191541Y259250D01*
X191497Y259271D01*
X191451Y259286D01*
X191403Y259293D01*
X191355Y259292D01*
X191307Y259284D01*
X191261Y259269D01*
X191218Y259246D01*
X191179Y259217D01*
X191145Y259183D01*
X191116Y259143D01*
X191095Y259100D01*
X191080Y259053D01*
X191073Y259005D01*
X191074Y258957D01*
X191082Y258909D01*
X191097Y258863D01*
X191120Y258820D01*
X191149Y258781D01*
X191630Y258191D01*
X192050Y257555D01*
X192410Y256884D01*
X192466Y256753D01*
Y249647D01*
X192410Y249516D01*
X192050Y248845D01*
X191630Y248209D01*
X191156Y247613D01*
X191127Y247576D01*
X191105Y247534D01*
X191090Y247489D01*
X191082Y247443D01*
X191082Y247395D01*
X191089Y247349D01*
X191103Y247304D01*
X191124Y247261D01*
X191151Y247223D01*
X191184Y247189D01*
X191222Y247161D01*
X191264Y247139D01*
X191309Y247124D01*
X191355Y247116D01*
X191403Y247116D01*
X191449Y247123D01*
X191494Y247137D01*
X191537Y247158D01*
X191575Y247185D01*
X191608Y247219D01*
X192123Y247851D01*
X192466Y248371D01*
Y165369D01*
X184754Y165368D01*
Y244091D01*
X185566Y244127D01*
X186375Y244237D01*
X187171Y244418D01*
X187947Y244670D01*
X188698Y244991D01*
X189417Y245377D01*
X190099Y245827D01*
X190737Y246335D01*
X190772Y246369D01*
X190800Y246409D01*
X190821Y246453D01*
X190836Y246499D01*
X190843Y246547D01*
X190842Y246595D01*
X190834Y246643D01*
X190819Y246689D01*
X190796Y246732D01*
X190767Y246771D01*
X190733Y246805D01*
X190693Y246834D01*
X190650Y246855D01*
X190603Y246870D01*
X190555Y246877D01*
X190507Y246876D01*
X190459Y246868D01*
X190413Y246853D01*
X190370Y246830D01*
X190331Y246801D01*
X189741Y246320D01*
X189105Y245900D01*
X188434Y245540D01*
X187733Y245241D01*
X187009Y245006D01*
X186266Y244836D01*
X185511Y244734D01*
X184754Y244700D01*
Y261700D01*
X185511Y261666D01*
X186266Y261564D01*
X187009Y261394D01*
X187733Y261159D01*
X188434Y260860D01*
X189105Y260500D01*
X189741Y260080D01*
X190337Y259606D01*
X190374Y259577D01*
X190416Y259555D01*
X190461Y259540D01*
X190507Y259532D01*
X190555Y259532D01*
X190601Y259539D01*
X190646Y259553D01*
X190689Y259574D01*
X190727Y259601D01*
X190761Y259634D01*
X190789Y259672D01*
X190811Y259714D01*
X190826Y259759D01*
X190834Y259805D01*
X190834Y259853D01*
X190827Y259899D01*
X190813Y259944D01*
X190792Y259987D01*
X190765Y260025D01*
X190731Y260058D01*
X190099Y260573D01*
X189417Y261023D01*
X188698Y261409D01*
X187947Y261730D01*
X187171Y261982D01*
X186375Y262163D01*
X185566Y262273D01*
X184754Y262309D01*
Y268200D01*
G37*
G36*
X177034D02*X184754D01*
Y262309D01*
X184750Y262309D01*
X183934Y262273D01*
X183125Y262163D01*
X182329Y261982D01*
X181553Y261730D01*
X180802Y261409D01*
X180083Y261023D01*
X179401Y260573D01*
X178763Y260065D01*
X178728Y260031D01*
X178700Y259991D01*
X178679Y259947D01*
X178664Y259901D01*
X178657Y259853D01*
X178658Y259805D01*
X178666Y259757D01*
X178681Y259711D01*
X178704Y259668D01*
X178733Y259629D01*
X178767Y259595D01*
X178807Y259566D01*
X178850Y259545D01*
X178897Y259530D01*
X178945Y259523D01*
X178993Y259524D01*
X179041Y259532D01*
X179087Y259547D01*
X179130Y259570D01*
X179169Y259599D01*
X179759Y260080D01*
X180395Y260500D01*
X181066Y260860D01*
X181767Y261159D01*
X182491Y261394D01*
X183234Y261564D01*
X183989Y261666D01*
X184750Y261700D01*
X184754Y261700D01*
Y244700D01*
X184750Y244700D01*
X183989Y244734D01*
X183234Y244836D01*
X182491Y245006D01*
X181767Y245241D01*
X181066Y245540D01*
X180395Y245900D01*
X179759Y246320D01*
X179163Y246794D01*
X179126Y246823D01*
X179084Y246845D01*
X179039Y246860D01*
X178993Y246868D01*
X178945Y246868D01*
X178899Y246861D01*
X178854Y246847D01*
X178811Y246826D01*
X178773Y246799D01*
X178739Y246766D01*
X178711Y246728D01*
X178689Y246686D01*
X178674Y246641D01*
X178666Y246595D01*
X178666Y246547D01*
X178673Y246501D01*
X178687Y246456D01*
X178708Y246413D01*
X178735Y246375D01*
X178769Y246342D01*
X179401Y245827D01*
X180083Y245377D01*
X180802Y244991D01*
X181553Y244670D01*
X182329Y244418D01*
X183125Y244237D01*
X183934Y244127D01*
X184750Y244091D01*
X184754Y244091D01*
Y165368D01*
X177034Y165367D01*
Y248371D01*
X177377Y247851D01*
X177885Y247213D01*
X177919Y247178D01*
X177959Y247150D01*
X178003Y247129D01*
X178049Y247114D01*
X178097Y247107D01*
X178145Y247108D01*
X178193Y247116D01*
X178239Y247131D01*
X178282Y247154D01*
X178321Y247183D01*
X178355Y247217D01*
X178384Y247257D01*
X178405Y247300D01*
X178420Y247347D01*
X178427Y247395D01*
X178426Y247443D01*
X178418Y247491D01*
X178403Y247537D01*
X178380Y247580D01*
X178351Y247619D01*
X177870Y248209D01*
X177450Y248845D01*
X177090Y249516D01*
X177034Y249647D01*
Y256753D01*
X177090Y256884D01*
X177450Y257555D01*
X177870Y258191D01*
X178344Y258787D01*
X178373Y258824D01*
X178395Y258866D01*
X178410Y258911D01*
X178418Y258957D01*
X178418Y259005D01*
X178411Y259051D01*
X178397Y259096D01*
X178376Y259139D01*
X178349Y259177D01*
X178316Y259211D01*
X178278Y259239D01*
X178236Y259261D01*
X178191Y259276D01*
X178145Y259284D01*
X178097Y259284D01*
X178051Y259277D01*
X178006Y259263D01*
X177963Y259242D01*
X177925Y259215D01*
X177892Y259181D01*
X177377Y258549D01*
X177034Y258029D01*
Y268200D01*
G37*
G36*
Y249647D02*X176791Y250217D01*
X176556Y250941D01*
X176386Y251684D01*
X176284Y252439D01*
X176250Y253200D01*
X176284Y253961D01*
X176386Y254716D01*
X176556Y255459D01*
X176791Y256183D01*
X177034Y256753D01*
Y249647D01*
G37*
G36*
X174591Y268200D02*X177034D01*
Y258029D01*
X176927Y257867D01*
X176541Y257148D01*
X176220Y256397D01*
X175968Y255621D01*
X175787Y254825D01*
X175677Y254016D01*
X175641Y253200D01*
X175677Y252384D01*
X175787Y251575D01*
X175968Y250779D01*
X176220Y250003D01*
X176541Y249252D01*
X176927Y248533D01*
X177034Y248371D01*
Y165367D01*
X174591Y165367D01*
Y268200D01*
G37*
G36*
X122112Y192211D02*X122284Y191802D01*
X122487Y191169D01*
X122633Y190521D01*
X122721Y189863D01*
X122750Y189200D01*
X122721Y188537D01*
X122633Y187879D01*
X122487Y187231D01*
X122284Y186598D01*
X122112Y186189D01*
Y192211D01*
G37*
G36*
X143716Y133253D02*X143959Y132683D01*
X144194Y131959D01*
X144364Y131216D01*
X144466Y130461D01*
X144500Y129700D01*
X144466Y128939D01*
X144364Y128184D01*
X144194Y127441D01*
X143959Y126717D01*
X143716Y126147D01*
Y133253D01*
G37*
G36*
Y158071D02*X174591Y158073D01*
Y110200D01*
X143716D01*
Y124871D01*
X143823Y125033D01*
X144209Y125752D01*
X144530Y126503D01*
X144782Y127279D01*
X144963Y128075D01*
X145073Y128884D01*
X145109Y129700D01*
X145073Y130516D01*
X144963Y131325D01*
X144782Y132121D01*
X144530Y132897D01*
X144209Y133648D01*
X143823Y134367D01*
X143716Y134529D01*
Y158071D01*
G37*
G36*
Y268200D02*X174591D01*
Y165367D01*
X143716Y165365D01*
Y268200D01*
G37*
G36*
X136004D02*X143716D01*
Y165365D01*
X136696Y165364D01*
X136605Y165342D01*
X136517Y165306D01*
X136437Y165257D01*
X136365Y165196D01*
X136304Y165124D01*
X136254Y165043D01*
X136218Y164956D01*
X136196Y164864D01*
X136191Y164770D01*
X136196Y158576D01*
X136218Y158484D01*
X136254Y158397D01*
X136304Y158316D01*
X136365Y158244D01*
X136437Y158183D01*
X136517Y158134D01*
X136605Y158098D01*
X136696Y158076D01*
X136791Y158070D01*
X143716Y158071D01*
Y134529D01*
X143373Y135049D01*
X142865Y135687D01*
X142831Y135722D01*
X142791Y135750D01*
X142747Y135771D01*
X142701Y135786D01*
X142653Y135793D01*
X142605Y135792D01*
X142557Y135784D01*
X142511Y135769D01*
X142468Y135746D01*
X142429Y135717D01*
X142395Y135683D01*
X142366Y135643D01*
X142345Y135600D01*
X142330Y135553D01*
X142323Y135505D01*
X142324Y135457D01*
X142332Y135409D01*
X142347Y135363D01*
X142370Y135320D01*
X142399Y135281D01*
X142880Y134691D01*
X143300Y134055D01*
X143660Y133384D01*
X143716Y133253D01*
Y126147D01*
X143660Y126016D01*
X143300Y125345D01*
X142880Y124709D01*
X142406Y124113D01*
X142377Y124076D01*
X142355Y124034D01*
X142340Y123989D01*
X142332Y123943D01*
X142332Y123895D01*
X142339Y123849D01*
X142353Y123804D01*
X142374Y123761D01*
X142401Y123723D01*
X142434Y123689D01*
X142472Y123661D01*
X142514Y123639D01*
X142559Y123624D01*
X142605Y123616D01*
X142653Y123616D01*
X142699Y123623D01*
X142744Y123637D01*
X142787Y123658D01*
X142825Y123685D01*
X142858Y123719D01*
X143373Y124351D01*
X143716Y124871D01*
Y110200D01*
X136004D01*
Y120591D01*
X136816Y120627D01*
X137625Y120737D01*
X138421Y120918D01*
X139197Y121170D01*
X139948Y121491D01*
X140667Y121877D01*
X141349Y122327D01*
X141987Y122835D01*
X142022Y122869D01*
X142050Y122909D01*
X142071Y122953D01*
X142086Y122999D01*
X142093Y123047D01*
X142092Y123095D01*
X142084Y123143D01*
X142069Y123189D01*
X142046Y123232D01*
X142017Y123271D01*
X141983Y123305D01*
X141943Y123334D01*
X141900Y123355D01*
X141853Y123370D01*
X141805Y123377D01*
X141757Y123376D01*
X141709Y123368D01*
X141663Y123353D01*
X141620Y123330D01*
X141581Y123301D01*
X140991Y122820D01*
X140355Y122400D01*
X139684Y122040D01*
X138983Y121741D01*
X138259Y121506D01*
X137516Y121336D01*
X136761Y121234D01*
X136004Y121200D01*
Y138200D01*
X136761Y138166D01*
X137516Y138064D01*
X138259Y137894D01*
X138983Y137659D01*
X139684Y137360D01*
X140355Y137000D01*
X140991Y136580D01*
X141587Y136106D01*
X141624Y136077D01*
X141666Y136055D01*
X141711Y136040D01*
X141757Y136032D01*
X141805Y136032D01*
X141851Y136039D01*
X141896Y136053D01*
X141939Y136074D01*
X141977Y136101D01*
X142011Y136134D01*
X142039Y136172D01*
X142061Y136214D01*
X142076Y136259D01*
X142084Y136305D01*
X142084Y136353D01*
X142077Y136399D01*
X142063Y136444D01*
X142042Y136487D01*
X142015Y136525D01*
X141981Y136558D01*
X141349Y137073D01*
X140667Y137523D01*
X139948Y137909D01*
X139197Y138230D01*
X138421Y138482D01*
X137625Y138663D01*
X136816Y138773D01*
X136004Y138809D01*
Y268200D01*
G37*
G36*
X128284D02*X136004D01*
Y138809D01*
X136000Y138809D01*
X135184Y138773D01*
X134375Y138663D01*
X133579Y138482D01*
X132803Y138230D01*
X132052Y137909D01*
X131333Y137523D01*
X130651Y137073D01*
X130013Y136565D01*
X129978Y136531D01*
X129950Y136491D01*
X129929Y136447D01*
X129914Y136401D01*
X129907Y136353D01*
X129908Y136305D01*
X129916Y136257D01*
X129931Y136211D01*
X129954Y136168D01*
X129983Y136129D01*
X130017Y136095D01*
X130057Y136066D01*
X130100Y136045D01*
X130147Y136030D01*
X130195Y136023D01*
X130243Y136024D01*
X130291Y136032D01*
X130337Y136047D01*
X130380Y136070D01*
X130419Y136099D01*
X131009Y136580D01*
X131645Y137000D01*
X132316Y137360D01*
X133017Y137659D01*
X133741Y137894D01*
X134484Y138064D01*
X135239Y138166D01*
X136000Y138200D01*
X136004Y138200D01*
Y121200D01*
X136000Y121200D01*
X135239Y121234D01*
X134484Y121336D01*
X133741Y121506D01*
X133017Y121741D01*
X132316Y122040D01*
X131645Y122400D01*
X131009Y122820D01*
X130413Y123294D01*
X130376Y123323D01*
X130334Y123345D01*
X130289Y123360D01*
X130243Y123368D01*
X130195Y123368D01*
X130149Y123361D01*
X130104Y123347D01*
X130061Y123326D01*
X130023Y123299D01*
X129989Y123266D01*
X129961Y123228D01*
X129939Y123186D01*
X129924Y123141D01*
X129916Y123095D01*
X129916Y123047D01*
X129923Y123001D01*
X129937Y122956D01*
X129958Y122913D01*
X129985Y122875D01*
X130019Y122842D01*
X130651Y122327D01*
X131333Y121877D01*
X132052Y121491D01*
X132803Y121170D01*
X133579Y120918D01*
X134375Y120737D01*
X135184Y120627D01*
X136000Y120591D01*
X136004Y120591D01*
Y110200D01*
X128284D01*
Y124871D01*
X128627Y124351D01*
X129135Y123713D01*
X129169Y123678D01*
X129209Y123650D01*
X129253Y123629D01*
X129299Y123614D01*
X129347Y123607D01*
X129395Y123608D01*
X129443Y123616D01*
X129489Y123631D01*
X129532Y123654D01*
X129571Y123683D01*
X129605Y123717D01*
X129634Y123757D01*
X129655Y123800D01*
X129670Y123847D01*
X129677Y123895D01*
X129676Y123943D01*
X129668Y123991D01*
X129653Y124037D01*
X129630Y124080D01*
X129601Y124119D01*
X129120Y124709D01*
X128700Y125345D01*
X128340Y126016D01*
X128284Y126147D01*
Y133253D01*
X128340Y133384D01*
X128700Y134055D01*
X129120Y134691D01*
X129594Y135287D01*
X129623Y135324D01*
X129645Y135366D01*
X129660Y135411D01*
X129668Y135457D01*
X129668Y135505D01*
X129661Y135551D01*
X129647Y135596D01*
X129626Y135639D01*
X129599Y135677D01*
X129566Y135711D01*
X129528Y135739D01*
X129486Y135761D01*
X129441Y135776D01*
X129395Y135784D01*
X129347Y135784D01*
X129301Y135777D01*
X129256Y135763D01*
X129213Y135742D01*
X129175Y135715D01*
X129142Y135681D01*
X128627Y135049D01*
X128284Y134529D01*
Y235069D01*
X128350Y235229D01*
X128569Y236140D01*
X128624Y237074D01*
X128569Y238008D01*
X128350Y238919D01*
X128284Y239079D01*
Y268200D01*
G37*
G36*
Y126147D02*X128041Y126717D01*
X127806Y127441D01*
X127636Y128184D01*
X127534Y128939D01*
X127500Y129700D01*
X127534Y130461D01*
X127636Y131216D01*
X127806Y131959D01*
X128041Y132683D01*
X128284Y133253D01*
Y126147D01*
G37*
G36*
Y110200D02*X122112D01*
Y112567D01*
X122687Y112568D01*
X122840Y112604D01*
X122985Y112665D01*
X123120Y112747D01*
X123239Y112849D01*
X123341Y112969D01*
X123424Y113103D01*
X123484Y113248D01*
X123521Y113401D01*
X123530Y113558D01*
X123521Y119621D01*
X123484Y119774D01*
X123424Y119919D01*
X123341Y120053D01*
X123239Y120173D01*
X123120Y120275D01*
X122985Y120358D01*
X122840Y120418D01*
X122687Y120455D01*
X122530Y120464D01*
X122112Y120463D01*
Y122184D01*
X122246Y122342D01*
X122575Y122878D01*
X122816Y123460D01*
X122963Y124072D01*
X123000Y124700D01*
X122963Y125328D01*
X122816Y125940D01*
X122575Y126522D01*
X122246Y127058D01*
X122112Y127216D01*
Y132385D01*
X122145Y132345D01*
X122205Y132294D01*
X122272Y132253D01*
X122345Y132223D01*
X122422Y132205D01*
X122500Y132198D01*
X122578Y132205D01*
X122655Y132223D01*
X122728Y132253D01*
X122795Y132294D01*
X122855Y132345D01*
X122906Y132405D01*
X122947Y132472D01*
X122977Y132545D01*
X122995Y132622D01*
X123000Y132700D01*
Y136700D01*
X122995Y136778D01*
X122977Y136855D01*
X122947Y136928D01*
X122906Y136995D01*
X122855Y137055D01*
X122795Y137106D01*
X122728Y137147D01*
X122655Y137177D01*
X122578Y137195D01*
X122500Y137202D01*
X122422Y137195D01*
X122345Y137177D01*
X122272Y137147D01*
X122205Y137106D01*
X122145Y137055D01*
X122112Y137015D01*
Y138945D01*
X122687Y138945D01*
X122840Y138982D01*
X122985Y139042D01*
X123120Y139125D01*
X123239Y139227D01*
X123341Y139347D01*
X123424Y139481D01*
X123484Y139626D01*
X123521Y139779D01*
X123530Y139936D01*
X123521Y145999D01*
X123484Y146152D01*
X123424Y146297D01*
X123341Y146431D01*
X123239Y146551D01*
X123120Y146653D01*
X122985Y146735D01*
X122840Y146796D01*
X122687Y146832D01*
X122530Y146842D01*
X122112Y146841D01*
Y153198D01*
X122619Y153631D01*
X123105Y154199D01*
X123495Y154837D01*
X123781Y155528D01*
X123956Y156255D01*
X124000Y157000D01*
X123956Y157745D01*
X123781Y158472D01*
X123495Y159163D01*
X123105Y159801D01*
X122619Y160369D01*
X122112Y160802D01*
Y164998D01*
X122619Y165431D01*
X123105Y165999D01*
X123495Y166637D01*
X123781Y167328D01*
X123956Y168055D01*
X124000Y168800D01*
X123956Y169545D01*
X123781Y170272D01*
X123495Y170963D01*
X123105Y171601D01*
X122619Y172169D01*
X122112Y172602D01*
Y184894D01*
X122240Y185092D01*
X122576Y185726D01*
X122855Y186388D01*
X123073Y187071D01*
X123231Y187771D01*
X123326Y188483D01*
X123358Y189200D01*
X123326Y189917D01*
X123231Y190629D01*
X123073Y191329D01*
X122855Y192012D01*
X122576Y192674D01*
X122240Y193308D01*
X122112Y193506D01*
Y225141D01*
X122581Y225690D01*
X123071Y226489D01*
X123429Y227355D01*
X123648Y228266D01*
X123703Y229200D01*
X123648Y230134D01*
X123429Y231045D01*
X123382Y231159D01*
X123605Y231176D01*
X124516Y231395D01*
X125382Y231753D01*
X126181Y232243D01*
X126893Y232852D01*
X127502Y233564D01*
X127992Y234363D01*
X128284Y235069D01*
Y134529D01*
X128177Y134367D01*
X127791Y133648D01*
X127470Y132897D01*
X127218Y132121D01*
X127037Y131325D01*
X126927Y130516D01*
X126891Y129700D01*
X126927Y128884D01*
X127037Y128075D01*
X127218Y127279D01*
X127470Y126503D01*
X127791Y125752D01*
X128177Y125033D01*
X128284Y124871D01*
Y110200D01*
G37*
G36*
X122112Y268200D02*X128284D01*
Y239079D01*
X127992Y239785D01*
X127502Y240584D01*
X126893Y241296D01*
X126181Y241905D01*
X125382Y242395D01*
X124516Y242753D01*
X123605Y242972D01*
X122671Y243045D01*
X122112Y243001D01*
Y268200D01*
G37*
G36*
Y172602D02*X122051Y172655D01*
X121413Y173045D01*
X120722Y173331D01*
X119995Y173506D01*
X119250Y173565D01*
X118505Y173506D01*
X117778Y173331D01*
X117087Y173045D01*
X116449Y172655D01*
X115881Y172169D01*
X115837Y172118D01*
Y181118D01*
X115967Y181124D01*
X116679Y181219D01*
X117379Y181377D01*
X118062Y181595D01*
X118724Y181874D01*
X119358Y182210D01*
X119960Y182601D01*
X120526Y183043D01*
X120560Y183077D01*
X120588Y183116D01*
X120610Y183160D01*
X120625Y183206D01*
X120633Y183253D01*
X120633Y183302D01*
X120625Y183349D01*
X120610Y183395D01*
X120588Y183439D01*
X120559Y183478D01*
X120525Y183512D01*
X120486Y183540D01*
X120443Y183562D01*
X120397Y183577D01*
X120349Y183584D01*
X120301Y183584D01*
X120253Y183577D01*
X120207Y183562D01*
X120164Y183540D01*
X120125Y183510D01*
X119607Y183096D01*
X119050Y182734D01*
X118464Y182423D01*
X117852Y182166D01*
X117219Y181963D01*
X116571Y181817D01*
X115913Y181729D01*
X115837Y181726D01*
Y196674D01*
X115913Y196671D01*
X116571Y196583D01*
X117219Y196437D01*
X117852Y196234D01*
X118464Y195977D01*
X119050Y195666D01*
X119607Y195304D01*
X120130Y194895D01*
X120168Y194867D01*
X120210Y194845D01*
X120255Y194830D01*
X120301Y194823D01*
X120348Y194823D01*
X120395Y194830D01*
X120440Y194845D01*
X120482Y194866D01*
X120520Y194894D01*
X120554Y194927D01*
X120582Y194965D01*
X120603Y195007D01*
X120618Y195052D01*
X120625Y195099D01*
X120625Y195146D01*
X120618Y195193D01*
X120603Y195238D01*
X120582Y195280D01*
X120554Y195318D01*
X120520Y195351D01*
X119960Y195799D01*
X119358Y196190D01*
X118724Y196526D01*
X118062Y196805D01*
X117379Y197023D01*
X116679Y197181D01*
X115967Y197276D01*
X115837Y197282D01*
Y223549D01*
X115905Y223521D01*
X116816Y223302D01*
X117750Y223229D01*
X118684Y223302D01*
X119595Y223521D01*
X120461Y223879D01*
X121260Y224369D01*
X121972Y224978D01*
X122112Y225141D01*
Y193506D01*
X121849Y193910D01*
X121407Y194476D01*
X121373Y194510D01*
X121334Y194538D01*
X121290Y194560D01*
X121244Y194575D01*
X121197Y194583D01*
X121148Y194583D01*
X121101Y194575D01*
X121055Y194560D01*
X121011Y194538D01*
X120972Y194509D01*
X120938Y194475D01*
X120910Y194436D01*
X120888Y194393D01*
X120873Y194347D01*
X120866Y194299D01*
X120866Y194251D01*
X120873Y194203D01*
X120888Y194157D01*
X120910Y194114D01*
X120940Y194075D01*
X121354Y193557D01*
X121716Y193000D01*
X122027Y192414D01*
X122112Y192211D01*
Y186189D01*
X122027Y185986D01*
X121716Y185400D01*
X121354Y184843D01*
X120945Y184320D01*
X120917Y184282D01*
X120895Y184240D01*
X120880Y184195D01*
X120873Y184149D01*
X120873Y184102D01*
X120880Y184055D01*
X120895Y184010D01*
X120916Y183968D01*
X120944Y183930D01*
X120977Y183896D01*
X121015Y183868D01*
X121057Y183847D01*
X121102Y183832D01*
X121149Y183825D01*
X121196Y183825D01*
X121243Y183832D01*
X121288Y183847D01*
X121330Y183868D01*
X121368Y183896D01*
X121401Y183930D01*
X121849Y184490D01*
X122112Y184894D01*
Y172602D01*
G37*
G36*
Y160802D02*X122051Y160855D01*
X121413Y161245D01*
X120722Y161531D01*
X119995Y161706D01*
X119250Y161765D01*
X118505Y161706D01*
X117778Y161531D01*
X117087Y161245D01*
X116449Y160855D01*
X115881Y160369D01*
X115837Y160318D01*
Y165482D01*
X115881Y165431D01*
X116449Y164945D01*
X117087Y164555D01*
X117778Y164269D01*
X118505Y164094D01*
X119250Y164035D01*
X119995Y164094D01*
X120722Y164269D01*
X121413Y164555D01*
X122051Y164945D01*
X122112Y164998D01*
Y160802D01*
G37*
G36*
Y146841D02*X115837Y146837D01*
Y153682D01*
X115881Y153631D01*
X116449Y153145D01*
X117087Y152755D01*
X117778Y152469D01*
X118505Y152294D01*
X119250Y152235D01*
X119995Y152294D01*
X120722Y152469D01*
X121413Y152755D01*
X122051Y153145D01*
X122112Y153198D01*
Y146841D01*
G37*
G36*
Y137015D02*X122094Y136995D01*
X122053Y136928D01*
X122023Y136855D01*
X122005Y136778D01*
X122000Y136700D01*
Y134818D01*
X121972Y135171D01*
X121862Y135630D01*
X121681Y136066D01*
X121435Y136469D01*
X121128Y136828D01*
X120769Y137135D01*
X120366Y137381D01*
X119930Y137562D01*
X119471Y137672D01*
X119118Y137700D01*
X121000D01*
X121078Y137705D01*
X121155Y137723D01*
X121228Y137753D01*
X121295Y137794D01*
X121355Y137845D01*
X121406Y137905D01*
X121447Y137972D01*
X121477Y138045D01*
X121495Y138122D01*
X121502Y138200D01*
X121495Y138278D01*
X121477Y138355D01*
X121447Y138428D01*
X121406Y138495D01*
X121355Y138555D01*
X121295Y138606D01*
X121228Y138647D01*
X121155Y138677D01*
X121078Y138695D01*
X121000Y138700D01*
X117000D01*
X116922Y138695D01*
X116845Y138677D01*
X116772Y138647D01*
X116705Y138606D01*
X116645Y138555D01*
X116594Y138495D01*
X116553Y138428D01*
X116523Y138355D01*
X116505Y138278D01*
X116498Y138200D01*
X116505Y138122D01*
X116523Y138045D01*
X116553Y137972D01*
X116594Y137905D01*
X116645Y137845D01*
X116705Y137794D01*
X116772Y137753D01*
X116845Y137723D01*
X116922Y137705D01*
X117000Y137700D01*
X118882D01*
X118529Y137672D01*
X118070Y137562D01*
X117634Y137381D01*
X117231Y137135D01*
X116879Y136821D01*
X116693Y136636D01*
X116000D01*
Y136700D01*
X115995Y136778D01*
X115977Y136855D01*
X115947Y136928D01*
X115906Y136995D01*
X115855Y137055D01*
X115837Y137070D01*
Y138941D01*
X122112Y138945D01*
Y137015D01*
G37*
G36*
Y127216D02*X121837Y127537D01*
X121358Y127946D01*
X120822Y128275D01*
X120240Y128516D01*
X119628Y128663D01*
X119000Y128712D01*
X118623Y128683D01*
X118409Y128734D01*
X118409Y128734D01*
X117938Y128771D01*
X117821Y128762D01*
X115837D01*
Y130636D01*
X117818D01*
X117936Y130627D01*
X118406Y130664D01*
X118407Y130664D01*
X118558Y130700D01*
X121000D01*
X121078Y130705D01*
X121155Y130723D01*
X121228Y130753D01*
X121295Y130794D01*
X121355Y130845D01*
X121406Y130905D01*
X121447Y130972D01*
X121477Y131045D01*
X121495Y131122D01*
X121502Y131200D01*
X121495Y131278D01*
X121477Y131355D01*
X121447Y131428D01*
X121406Y131495D01*
X121355Y131555D01*
X121295Y131606D01*
X121228Y131647D01*
X121155Y131677D01*
X121078Y131695D01*
X121000Y131700D01*
X120243D01*
X121121Y132579D01*
X121435Y132931D01*
X121681Y133334D01*
X121862Y133770D01*
X121972Y134229D01*
X122000Y134582D01*
Y132700D01*
X122005Y132622D01*
X122023Y132545D01*
X122053Y132472D01*
X122094Y132405D01*
X122112Y132385D01*
Y127216D01*
G37*
G36*
Y120463D02*X115837Y120459D01*
Y122244D01*
X116163Y121863D01*
X116642Y121454D01*
X117178Y121125D01*
X117760Y120884D01*
X118372Y120737D01*
X119000Y120688D01*
X119628Y120737D01*
X120240Y120884D01*
X120822Y121125D01*
X121358Y121454D01*
X121837Y121863D01*
X122112Y122184D01*
Y120463D01*
G37*
G36*
Y110200D02*X115837D01*
Y112563D01*
X122112Y112567D01*
Y110200D01*
G37*
G36*
X115837Y268200D02*X122112D01*
Y243001D01*
X121737Y242972D01*
X120826Y242753D01*
X119960Y242395D01*
X119161Y241905D01*
X118449Y241296D01*
X117840Y240584D01*
X117750Y240437D01*
X117660Y240584D01*
X117051Y241296D01*
X116339Y241905D01*
X115837Y242212D01*
Y268200D01*
G37*
G36*
X109000Y112567D02*X109144Y112558D01*
X115837Y112563D01*
Y110200D01*
X109000D01*
Y112567D01*
G37*
G36*
Y122762D02*X115496D01*
X115754Y122342D01*
X115837Y122244D01*
Y120459D01*
X109000Y120455D01*
Y122762D01*
G37*
G36*
Y130636D02*X115837D01*
Y128762D01*
X109000D01*
Y130636D01*
G37*
G36*
Y138945D02*X109144Y138936D01*
X115837Y138941D01*
Y137070D01*
X115795Y137106D01*
X115728Y137147D01*
X115655Y137177D01*
X115578Y137195D01*
X115500Y137202D01*
X115422Y137195D01*
X115345Y137177D01*
X115272Y137147D01*
X115205Y137106D01*
X115145Y137055D01*
X115094Y136995D01*
X115053Y136928D01*
X115023Y136855D01*
X115005Y136778D01*
X115000Y136700D01*
Y136636D01*
X109000D01*
Y138945D01*
G37*
G36*
Y223265D02*X111331Y223275D01*
X111790Y223385D01*
X112226Y223566D01*
X112629Y223812D01*
X112988Y224119D01*
X113295Y224478D01*
X113541Y224881D01*
X113567Y224944D01*
X114240Y224369D01*
X115039Y223879D01*
X115837Y223549D01*
Y197282D01*
X115250Y197308D01*
X114533Y197276D01*
X113821Y197181D01*
X113121Y197023D01*
X112438Y196805D01*
X111776Y196526D01*
X111142Y196190D01*
X110540Y195799D01*
X109974Y195357D01*
X109940Y195323D01*
X109912Y195284D01*
X109890Y195240D01*
X109875Y195194D01*
X109867Y195147D01*
X109867Y195098D01*
X109875Y195051D01*
X109890Y195005D01*
X109912Y194961D01*
X109941Y194922D01*
X109975Y194888D01*
X110014Y194860D01*
X110057Y194838D01*
X110103Y194823D01*
X110151Y194816D01*
X110199Y194816D01*
X110247Y194823D01*
X110293Y194838D01*
X110336Y194860D01*
X110375Y194890D01*
X110893Y195304D01*
X111450Y195666D01*
X112036Y195977D01*
X112648Y196234D01*
X113281Y196437D01*
X113929Y196583D01*
X114587Y196671D01*
X115250Y196700D01*
X115837Y196674D01*
Y181726D01*
X115250Y181700D01*
X114587Y181729D01*
X113929Y181817D01*
X113281Y181963D01*
X112648Y182166D01*
X112036Y182423D01*
X111450Y182734D01*
X110893Y183096D01*
X110370Y183505D01*
X110332Y183533D01*
X110290Y183555D01*
X110245Y183570D01*
X110199Y183577D01*
X110152Y183577D01*
X110105Y183570D01*
X110060Y183555D01*
X110018Y183534D01*
X109980Y183506D01*
X109946Y183473D01*
X109918Y183435D01*
X109897Y183393D01*
X109882Y183348D01*
X109875Y183301D01*
X109875Y183254D01*
X109882Y183207D01*
X109897Y183162D01*
X109918Y183120D01*
X109946Y183082D01*
X109980Y183049D01*
X110540Y182601D01*
X111142Y182210D01*
X111776Y181874D01*
X112438Y181595D01*
X113121Y181377D01*
X113821Y181219D01*
X114533Y181124D01*
X115250Y181092D01*
X115837Y181118D01*
Y172118D01*
X115395Y171601D01*
X115005Y170963D01*
X114719Y170272D01*
X114544Y169545D01*
X114485Y168800D01*
X114544Y168055D01*
X114719Y167328D01*
X115005Y166637D01*
X115395Y165999D01*
X115837Y165482D01*
Y160318D01*
X115395Y159801D01*
X115005Y159163D01*
X114719Y158472D01*
X114544Y157745D01*
X114485Y157000D01*
X114544Y156255D01*
X114719Y155528D01*
X115005Y154837D01*
X115395Y154199D01*
X115837Y153682D01*
Y146837D01*
X109000Y146832D01*
Y148857D01*
X110300Y150157D01*
X111507Y150159D01*
X111660Y150196D01*
X111805Y150256D01*
X111940Y150338D01*
X112059Y150441D01*
X112162Y150560D01*
X112244Y150695D01*
X112304Y150840D01*
X112341Y150993D01*
X112350Y151150D01*
X112341Y155207D01*
X112304Y155360D01*
X112244Y155505D01*
X112162Y155640D01*
X112059Y155759D01*
X111940Y155862D01*
X111805Y155944D01*
X111660Y156004D01*
X111507Y156041D01*
X111350Y156050D01*
X109577Y156047D01*
X109471Y156072D01*
X109000Y156109D01*
Y159900D01*
X109471Y159928D01*
X109587Y159956D01*
X111507Y159959D01*
X111660Y159996D01*
X111805Y160056D01*
X111940Y160138D01*
X112059Y160241D01*
X112162Y160360D01*
X112244Y160495D01*
X112304Y160640D01*
X112341Y160793D01*
X112350Y160950D01*
X112341Y165007D01*
X112304Y165160D01*
X112244Y165305D01*
X112162Y165440D01*
X112059Y165559D01*
X111940Y165662D01*
X111805Y165744D01*
X111660Y165804D01*
X111507Y165841D01*
X111350Y165850D01*
X109577Y165847D01*
X109471Y165872D01*
X109000Y165900D01*
Y169754D01*
X111507Y169759D01*
X111660Y169796D01*
X111805Y169856D01*
X111940Y169938D01*
X112059Y170041D01*
X112162Y170160D01*
X112244Y170295D01*
X112304Y170440D01*
X112341Y170593D01*
X112350Y170750D01*
X112341Y174807D01*
X112304Y174960D01*
X112244Y175105D01*
X112162Y175240D01*
X112059Y175359D01*
X111940Y175462D01*
X111805Y175544D01*
X111660Y175604D01*
X111507Y175641D01*
X111350Y175650D01*
X109000Y175646D01*
Y184043D01*
X109093Y183924D01*
X109127Y183890D01*
X109166Y183862D01*
X109210Y183840D01*
X109256Y183825D01*
X109303Y183817D01*
X109352Y183817D01*
X109399Y183825D01*
X109445Y183840D01*
X109489Y183862D01*
X109528Y183891D01*
X109562Y183925D01*
X109590Y183964D01*
X109612Y184007D01*
X109627Y184053D01*
X109634Y184101D01*
X109634Y184149D01*
X109627Y184197D01*
X109612Y184243D01*
X109590Y184286D01*
X109560Y184325D01*
X109146Y184843D01*
X109000Y185067D01*
Y193333D01*
X109146Y193557D01*
X109555Y194080D01*
X109583Y194118D01*
X109605Y194160D01*
X109620Y194205D01*
X109627Y194251D01*
X109627Y194298D01*
X109620Y194345D01*
X109605Y194390D01*
X109584Y194432D01*
X109556Y194470D01*
X109523Y194504D01*
X109485Y194532D01*
X109443Y194553D01*
X109398Y194568D01*
X109351Y194575D01*
X109304Y194575D01*
X109257Y194568D01*
X109212Y194553D01*
X109170Y194532D01*
X109132Y194504D01*
X109099Y194470D01*
X109000Y194347D01*
Y223265D01*
G37*
G36*
Y268200D02*X115837D01*
Y242212D01*
X115540Y242395D01*
X114674Y242753D01*
X113763Y242972D01*
X112829Y243045D01*
X111895Y242972D01*
X110984Y242753D01*
X110118Y242395D01*
X109319Y241905D01*
X109000Y241632D01*
Y268200D01*
G37*
G36*
Y185067D02*X108784Y185400D01*
X108473Y185986D01*
X108216Y186598D01*
X108013Y187231D01*
X107867Y187879D01*
X107779Y188537D01*
X107750Y189200D01*
X107779Y189863D01*
X107867Y190521D01*
X108013Y191169D01*
X108216Y191802D01*
X108473Y192414D01*
X108784Y193000D01*
X109000Y193333D01*
Y185067D01*
G37*
G36*
X93754Y117350D02*X99166Y122762D01*
X109000D01*
Y120455D01*
X108987Y120455D01*
X108834Y120418D01*
X108689Y120358D01*
X108554Y120275D01*
X108435Y120173D01*
X108333Y120053D01*
X108250Y119919D01*
X108190Y119774D01*
X108153Y119621D01*
X108144Y119464D01*
X108153Y113401D01*
X108190Y113248D01*
X108250Y113103D01*
X108333Y112969D01*
X108435Y112849D01*
X108554Y112747D01*
X108689Y112665D01*
X108834Y112604D01*
X108987Y112568D01*
X109000Y112567D01*
Y110200D01*
X93754D01*
Y117350D01*
G37*
G36*
Y130670D02*X97419Y130672D01*
X97453Y130664D01*
X97924Y130636D01*
X109000D01*
Y128762D01*
X98041D01*
X97924Y128771D01*
X97453Y128734D01*
X97417Y128726D01*
X93754Y128724D01*
Y130670D01*
G37*
G36*
Y146590D02*X97110D01*
Y144616D01*
X96864Y144328D01*
X96535Y143792D01*
X96294Y143210D01*
X96147Y142598D01*
X96098Y141970D01*
X96147Y141342D01*
X96294Y140730D01*
X96535Y140148D01*
X96864Y139612D01*
X97273Y139133D01*
X97752Y138724D01*
X98288Y138395D01*
X98870Y138154D01*
X99482Y138007D01*
X100110Y137958D01*
X100738Y138007D01*
X101350Y138154D01*
X101932Y138395D01*
X102468Y138724D01*
X102947Y139133D01*
X103356Y139612D01*
X103685Y140148D01*
X103926Y140730D01*
X104073Y141342D01*
X104110Y141970D01*
X104073Y142598D01*
X103926Y143210D01*
X103685Y143792D01*
X103356Y144328D01*
X103110Y144616D01*
Y146590D01*
X105372D01*
X105490Y146581D01*
X105960Y146618D01*
X105961Y146618D01*
X106420Y146728D01*
X106856Y146909D01*
X107259Y147155D01*
X107618Y147462D01*
X107695Y147552D01*
X109000Y148857D01*
Y146832D01*
X108987Y146832D01*
X108834Y146796D01*
X108689Y146735D01*
X108554Y146653D01*
X108435Y146551D01*
X108333Y146431D01*
X108250Y146297D01*
X108190Y146152D01*
X108153Y145999D01*
X108144Y145842D01*
X108153Y139779D01*
X108190Y139626D01*
X108250Y139481D01*
X108333Y139347D01*
X108435Y139227D01*
X108554Y139125D01*
X108689Y139042D01*
X108834Y138982D01*
X108987Y138945D01*
X109000Y138945D01*
Y136636D01*
X97924D01*
X97453Y136608D01*
X97417Y136600D01*
X93754Y136598D01*
Y146590D01*
G37*
G36*
Y155227D02*X94250Y155188D01*
X94878Y155237D01*
X95490Y155384D01*
X96072Y155625D01*
X96608Y155954D01*
X97087Y156363D01*
X97496Y156842D01*
X97825Y157378D01*
X98066Y157960D01*
X98213Y158572D01*
X98235Y158942D01*
X99193Y159900D01*
X109000D01*
Y156109D01*
X108529Y156072D01*
X108413Y156044D01*
X106493Y156041D01*
X106340Y156004D01*
X106195Y155944D01*
X106060Y155862D01*
X105941Y155759D01*
X105838Y155640D01*
X105756Y155505D01*
X105696Y155360D01*
X105659Y155207D01*
X105650Y155050D01*
X105652Y153995D01*
X104247Y152590D01*
X100228D01*
X100110Y152599D01*
X99992Y152590D01*
X93754D01*
Y155227D01*
G37*
G36*
X101466Y205753D02*X101709Y205183D01*
X101944Y204459D01*
X102114Y203716D01*
X102216Y202961D01*
X102250Y202200D01*
X102216Y201439D01*
X102114Y200684D01*
X101944Y199941D01*
X101709Y199217D01*
X101466Y198647D01*
Y205753D01*
G37*
G36*
Y268200D02*X109000D01*
Y241632D01*
X108607Y241296D01*
X107998Y240584D01*
X107508Y239785D01*
X107150Y238919D01*
X106931Y238008D01*
X106858Y237074D01*
X106931Y236140D01*
X107150Y235229D01*
X107188Y235137D01*
X104483Y235125D01*
X104024Y235015D01*
X103588Y234834D01*
X103185Y234588D01*
X102826Y234281D01*
X102519Y233922D01*
X102273Y233519D01*
X102092Y233083D01*
X101982Y232624D01*
X101954Y232153D01*
X101982Y225776D01*
X102092Y225317D01*
X102273Y224881D01*
X102519Y224478D01*
X102826Y224119D01*
X103185Y223812D01*
X103588Y223566D01*
X104024Y223385D01*
X104483Y223275D01*
X104954Y223247D01*
X109000Y223265D01*
Y194347D01*
X108651Y193910D01*
X108260Y193308D01*
X107924Y192674D01*
X107645Y192012D01*
X107427Y191329D01*
X107269Y190629D01*
X107174Y189917D01*
X107142Y189200D01*
X107174Y188483D01*
X107269Y187771D01*
X107427Y187071D01*
X107645Y186388D01*
X107924Y185726D01*
X108260Y185092D01*
X108651Y184490D01*
X109000Y184043D01*
Y175646D01*
X106493Y175641D01*
X106340Y175604D01*
X106195Y175544D01*
X106060Y175462D01*
X105941Y175359D01*
X105838Y175240D01*
X105756Y175105D01*
X105696Y174960D01*
X105659Y174807D01*
X105650Y174650D01*
X105659Y170593D01*
X105696Y170440D01*
X105756Y170295D01*
X105838Y170160D01*
X105941Y170041D01*
X106060Y169938D01*
X106195Y169856D01*
X106340Y169796D01*
X106493Y169759D01*
X106650Y169750D01*
X109000Y169754D01*
Y165900D01*
X101466D01*
Y197371D01*
X101573Y197533D01*
X101959Y198252D01*
X102280Y199003D01*
X102532Y199779D01*
X102713Y200575D01*
X102823Y201384D01*
X102859Y202200D01*
X102823Y203016D01*
X102713Y203825D01*
X102532Y204621D01*
X102280Y205397D01*
X101959Y206148D01*
X101573Y206867D01*
X101466Y207029D01*
Y268200D01*
G37*
G36*
X93754D02*X101466D01*
Y207029D01*
X101123Y207549D01*
X100615Y208187D01*
X100581Y208222D01*
X100541Y208250D01*
X100497Y208271D01*
X100451Y208286D01*
X100403Y208293D01*
X100355Y208292D01*
X100307Y208284D01*
X100261Y208269D01*
X100218Y208246D01*
X100179Y208217D01*
X100145Y208183D01*
X100116Y208143D01*
X100095Y208100D01*
X100080Y208053D01*
X100073Y208005D01*
X100074Y207957D01*
X100082Y207909D01*
X100097Y207863D01*
X100120Y207820D01*
X100149Y207781D01*
X100630Y207191D01*
X101050Y206555D01*
X101410Y205884D01*
X101466Y205753D01*
Y198647D01*
X101410Y198516D01*
X101050Y197845D01*
X100630Y197209D01*
X100156Y196613D01*
X100127Y196576D01*
X100105Y196534D01*
X100090Y196489D01*
X100082Y196443D01*
X100082Y196395D01*
X100089Y196349D01*
X100103Y196304D01*
X100124Y196261D01*
X100151Y196223D01*
X100184Y196189D01*
X100222Y196161D01*
X100264Y196139D01*
X100309Y196124D01*
X100355Y196116D01*
X100403Y196116D01*
X100449Y196123D01*
X100494Y196137D01*
X100537Y196158D01*
X100575Y196185D01*
X100608Y196219D01*
X101123Y196851D01*
X101466Y197371D01*
Y165900D01*
X98068D01*
X97950Y165909D01*
X97479Y165872D01*
X97020Y165762D01*
X96584Y165581D01*
X96181Y165335D01*
X96181Y165334D01*
X95822Y165028D01*
X95746Y164938D01*
X94000Y163193D01*
X93754Y163173D01*
Y193091D01*
X94566Y193127D01*
X95375Y193237D01*
X96171Y193418D01*
X96947Y193670D01*
X97698Y193991D01*
X98417Y194377D01*
X99099Y194827D01*
X99737Y195335D01*
X99772Y195369D01*
X99800Y195409D01*
X99821Y195453D01*
X99836Y195499D01*
X99843Y195547D01*
X99842Y195595D01*
X99834Y195643D01*
X99819Y195689D01*
X99796Y195732D01*
X99767Y195771D01*
X99733Y195805D01*
X99693Y195834D01*
X99650Y195855D01*
X99603Y195870D01*
X99555Y195877D01*
X99507Y195876D01*
X99459Y195868D01*
X99413Y195853D01*
X99370Y195830D01*
X99331Y195801D01*
X98741Y195320D01*
X98105Y194900D01*
X97434Y194540D01*
X96733Y194241D01*
X96009Y194006D01*
X95266Y193836D01*
X94511Y193734D01*
X93754Y193700D01*
Y210700D01*
X94511Y210666D01*
X95266Y210564D01*
X96009Y210394D01*
X96733Y210159D01*
X97434Y209860D01*
X98105Y209500D01*
X98741Y209080D01*
X99337Y208606D01*
X99374Y208577D01*
X99416Y208555D01*
X99461Y208540D01*
X99507Y208532D01*
X99555Y208532D01*
X99601Y208539D01*
X99646Y208553D01*
X99689Y208574D01*
X99727Y208601D01*
X99761Y208634D01*
X99789Y208672D01*
X99811Y208714D01*
X99826Y208759D01*
X99834Y208805D01*
X99834Y208853D01*
X99827Y208899D01*
X99813Y208944D01*
X99792Y208987D01*
X99765Y209025D01*
X99731Y209058D01*
X99099Y209573D01*
X98417Y210023D01*
X97698Y210409D01*
X96947Y210730D01*
X96171Y210982D01*
X95375Y211163D01*
X94566Y211273D01*
X93754Y211309D01*
Y268200D01*
G37*
G36*
X86034Y113330D02*X88374D01*
X88492Y113321D01*
X88962Y113358D01*
X88962Y113358D01*
X89229Y113422D01*
X89422Y113468D01*
X89422Y113468D01*
X89422D01*
X89858Y113649D01*
X90133Y113818D01*
X90261Y113895D01*
X90261Y113895D01*
X90261Y113895D01*
X90620Y114202D01*
X90696Y114292D01*
X93754Y117350D01*
Y110200D01*
X86034D01*
Y113330D01*
G37*
G36*
Y146590D02*X93754D01*
Y136598D01*
X86940Y136595D01*
X86787Y136558D01*
X86641Y136498D01*
X86507Y136416D01*
X86388Y136314D01*
X86285Y136194D01*
X86203Y136060D01*
X86143Y135914D01*
X86106Y135761D01*
X86097Y135604D01*
X86106Y131510D01*
X86143Y131357D01*
X86203Y131212D01*
X86285Y131078D01*
X86388Y130958D01*
X86507Y130856D01*
X86641Y130774D01*
X86787Y130713D01*
X86940Y130677D01*
X87097Y130667D01*
X93754Y130670D01*
Y128724D01*
X86940Y128721D01*
X86787Y128684D01*
X86641Y128624D01*
X86507Y128542D01*
X86388Y128440D01*
X86285Y128320D01*
X86203Y128186D01*
X86143Y128040D01*
X86106Y127887D01*
X86097Y127730D01*
X86106Y123636D01*
X86143Y123483D01*
X86203Y123338D01*
X86285Y123204D01*
X86388Y123084D01*
X86507Y122982D01*
X86641Y122900D01*
X86787Y122839D01*
X86940Y122803D01*
X87097Y122793D01*
X90714Y122795D01*
X87249Y119330D01*
X86034D01*
Y146590D01*
G37*
G36*
Y268200D02*X93754D01*
Y211309D01*
X93750Y211309D01*
X92934Y211273D01*
X92125Y211163D01*
X91329Y210982D01*
X90553Y210730D01*
X89802Y210409D01*
X89083Y210023D01*
X88401Y209573D01*
X87763Y209065D01*
X87728Y209031D01*
X87700Y208991D01*
X87679Y208947D01*
X87664Y208901D01*
X87657Y208853D01*
X87658Y208805D01*
X87666Y208757D01*
X87681Y208711D01*
X87704Y208668D01*
X87733Y208629D01*
X87767Y208595D01*
X87807Y208566D01*
X87850Y208545D01*
X87897Y208530D01*
X87945Y208523D01*
X87993Y208524D01*
X88041Y208532D01*
X88087Y208547D01*
X88130Y208570D01*
X88169Y208599D01*
X88759Y209080D01*
X89395Y209500D01*
X90066Y209860D01*
X90767Y210159D01*
X91491Y210394D01*
X92234Y210564D01*
X92989Y210666D01*
X93750Y210700D01*
X93754Y210700D01*
Y193700D01*
X93750Y193700D01*
X92989Y193734D01*
X92234Y193836D01*
X91491Y194006D01*
X90767Y194241D01*
X90066Y194540D01*
X89395Y194900D01*
X88759Y195320D01*
X88163Y195794D01*
X88126Y195823D01*
X88084Y195845D01*
X88039Y195860D01*
X87993Y195868D01*
X87945Y195868D01*
X87899Y195861D01*
X87854Y195847D01*
X87811Y195826D01*
X87773Y195799D01*
X87739Y195766D01*
X87711Y195728D01*
X87689Y195686D01*
X87674Y195641D01*
X87666Y195595D01*
X87666Y195547D01*
X87673Y195501D01*
X87687Y195456D01*
X87708Y195413D01*
X87735Y195375D01*
X87769Y195342D01*
X88401Y194827D01*
X89083Y194377D01*
X89802Y193991D01*
X90553Y193670D01*
X91329Y193418D01*
X92125Y193237D01*
X92934Y193127D01*
X93750Y193091D01*
X93754Y193091D01*
Y163173D01*
X93622Y163163D01*
X93010Y163016D01*
X92428Y162775D01*
X91892Y162446D01*
X91413Y162037D01*
X91004Y161558D01*
X90675Y161022D01*
X90434Y160440D01*
X90287Y159828D01*
X90238Y159200D01*
X90287Y158572D01*
X90434Y157960D01*
X90675Y157378D01*
X91004Y156842D01*
X91413Y156363D01*
X91892Y155954D01*
X92428Y155625D01*
X93010Y155384D01*
X93622Y155237D01*
X93754Y155227D01*
Y152590D01*
X86034D01*
Y197371D01*
X86377Y196851D01*
X86885Y196213D01*
X86919Y196178D01*
X86959Y196150D01*
X87003Y196129D01*
X87049Y196114D01*
X87097Y196107D01*
X87145Y196108D01*
X87193Y196116D01*
X87239Y196131D01*
X87282Y196154D01*
X87321Y196183D01*
X87355Y196217D01*
X87384Y196257D01*
X87405Y196300D01*
X87420Y196347D01*
X87427Y196395D01*
X87426Y196443D01*
X87418Y196491D01*
X87403Y196537D01*
X87380Y196580D01*
X87351Y196619D01*
X86870Y197209D01*
X86450Y197845D01*
X86090Y198516D01*
X86034Y198647D01*
Y205753D01*
X86090Y205884D01*
X86450Y206555D01*
X86870Y207191D01*
X87344Y207787D01*
X87373Y207824D01*
X87395Y207866D01*
X87410Y207911D01*
X87418Y207957D01*
X87418Y208005D01*
X87411Y208051D01*
X87397Y208096D01*
X87376Y208139D01*
X87349Y208177D01*
X87316Y208211D01*
X87278Y208239D01*
X87236Y208261D01*
X87191Y208276D01*
X87145Y208284D01*
X87097Y208284D01*
X87051Y208277D01*
X87006Y208263D01*
X86963Y208242D01*
X86925Y208215D01*
X86892Y208181D01*
X86377Y207549D01*
X86034Y207029D01*
Y268200D01*
G37*
G36*
Y198647D02*X85791Y199217D01*
X85556Y199941D01*
X85386Y200684D01*
X85284Y201439D01*
X85250Y202200D01*
X85284Y202961D01*
X85386Y203716D01*
X85556Y204459D01*
X85791Y205183D01*
X86034Y205753D01*
Y198647D01*
G37*
G36*
X75787Y268200D02*X86034D01*
Y207029D01*
X85927Y206867D01*
X85541Y206148D01*
X85220Y205397D01*
X84968Y204621D01*
X84787Y203825D01*
X84677Y203016D01*
X84641Y202200D01*
X84677Y201384D01*
X84787Y200575D01*
X84968Y199779D01*
X85220Y199003D01*
X85541Y198252D01*
X85927Y197533D01*
X86034Y197371D01*
Y152590D01*
X84025D01*
X83608Y152946D01*
X83072Y153275D01*
X82490Y153516D01*
X81878Y153663D01*
X81250Y153712D01*
X80622Y153663D01*
X80010Y153516D01*
X79428Y153275D01*
X78892Y152946D01*
X78413Y152537D01*
X78004Y152058D01*
X77675Y151522D01*
X77434Y150940D01*
X77287Y150328D01*
X77238Y149700D01*
X77287Y149072D01*
X77434Y148460D01*
X77675Y147878D01*
X78004Y147342D01*
X78413Y146863D01*
X78892Y146454D01*
X79428Y146125D01*
X80010Y145884D01*
X80622Y145737D01*
X81250Y145688D01*
X81878Y145737D01*
X82490Y145884D01*
X83072Y146125D01*
X83608Y146454D01*
X83768Y146590D01*
X86034D01*
Y119330D01*
X85666D01*
X85378Y119576D01*
X84842Y119905D01*
X84260Y120146D01*
X83648Y120293D01*
X83020Y120342D01*
X82392Y120293D01*
X81780Y120146D01*
X81198Y119905D01*
X80662Y119576D01*
X80183Y119167D01*
X79774Y118688D01*
X79445Y118152D01*
X79204Y117570D01*
X79057Y116958D01*
X79008Y116330D01*
X79057Y115702D01*
X79204Y115090D01*
X79445Y114508D01*
X79774Y113972D01*
X80183Y113493D01*
X80662Y113084D01*
X81198Y112755D01*
X81780Y112514D01*
X82392Y112367D01*
X83020Y112318D01*
X83648Y112367D01*
X84260Y112514D01*
X84842Y112755D01*
X85378Y113084D01*
X85666Y113330D01*
X86034D01*
Y110200D01*
X75787D01*
Y217794D01*
X80127Y217799D01*
X80219Y217821D01*
X80306Y217857D01*
X80387Y217907D01*
X80458Y217968D01*
X80520Y218040D01*
X80569Y218120D01*
X80605Y218208D01*
X80627Y218299D01*
X80633Y218394D01*
X80627Y222819D01*
X80605Y222911D01*
X80569Y222998D01*
X80520Y223078D01*
X80458Y223150D01*
X80387Y223212D01*
X80306Y223261D01*
X80219Y223297D01*
X80127Y223319D01*
X80033Y223325D01*
X79924Y223325D01*
X79900Y223633D01*
X79817Y223977D01*
X79777Y224073D01*
X79681Y224304D01*
X79567Y224491D01*
X79496Y224606D01*
X79496Y224606D01*
X79266Y224875D01*
X79199Y224933D01*
X76526Y227606D01*
X76524Y227639D01*
X76421Y228068D01*
X76253Y228475D01*
X76022Y228851D01*
X75787Y229126D01*
Y268200D01*
G37*
G36*
X67828D02*X75787D01*
Y229126D01*
X75736Y229186D01*
X75401Y229472D01*
X75025Y229703D01*
X74618Y229871D01*
X74189Y229974D01*
X73750Y230009D01*
X73311Y229974D01*
X72882Y229871D01*
X72475Y229703D01*
X72099Y229472D01*
X71764Y229186D01*
X71478Y228851D01*
X71247Y228475D01*
X71079Y228068D01*
X70976Y227639D01*
X70941Y227200D01*
X70976Y226761D01*
X71079Y226332D01*
X71247Y225925D01*
X71478Y225549D01*
X71764Y225214D01*
X72099Y224928D01*
X72475Y224697D01*
X72882Y224529D01*
X73311Y224426D01*
X73345Y224423D01*
X74771Y222997D01*
X74735Y222911D01*
X74713Y222819D01*
X74708Y222725D01*
X74713Y218299D01*
X74735Y218208D01*
X74772Y218120D01*
X74821Y218040D01*
X74882Y217968D01*
X74954Y217907D01*
X75035Y217857D01*
X75122Y217821D01*
X75214Y217799D01*
X75308Y217794D01*
X75787Y217794D01*
Y110200D01*
X67828D01*
Y129465D01*
X72864Y129469D01*
X73017Y129506D01*
X73162Y129566D01*
X73296Y129648D01*
X73416Y129751D01*
X73518Y129870D01*
X73601Y130005D01*
X73661Y130150D01*
X73698Y130303D01*
X73707Y130460D01*
X73698Y136129D01*
X73661Y136282D01*
X73601Y136427D01*
X73518Y136562D01*
X73416Y136681D01*
X73296Y136783D01*
X73162Y136866D01*
X73017Y136926D01*
X72864Y136963D01*
X72707Y136972D01*
X67828Y136968D01*
Y137339D01*
X72864Y137343D01*
X73017Y137380D01*
X73162Y137440D01*
X73296Y137522D01*
X73416Y137625D01*
X73518Y137744D01*
X73601Y137879D01*
X73661Y138024D01*
X73698Y138177D01*
X73707Y138334D01*
X73698Y144003D01*
X73661Y144156D01*
X73601Y144301D01*
X73518Y144436D01*
X73416Y144555D01*
X73296Y144658D01*
X73162Y144740D01*
X73017Y144800D01*
X72864Y144837D01*
X72707Y144846D01*
X69543Y144843D01*
Y145214D01*
X72864Y145217D01*
X73017Y145254D01*
X73162Y145314D01*
X73296Y145397D01*
X73416Y145499D01*
X73518Y145618D01*
X73601Y145753D01*
X73661Y145898D01*
X73698Y146051D01*
X73707Y146208D01*
X73698Y151877D01*
X73661Y152030D01*
X73601Y152175D01*
X73518Y152310D01*
X73416Y152429D01*
X73296Y152532D01*
X73162Y152614D01*
X73017Y152674D01*
X72864Y152711D01*
X72707Y152720D01*
X67828Y152716D01*
Y217796D01*
X70285Y217799D01*
X70377Y217821D01*
X70464Y217857D01*
X70545Y217907D01*
X70616Y217968D01*
X70678Y218040D01*
X70727Y218120D01*
X70763Y218208D01*
X70785Y218299D01*
X70791Y218394D01*
X70785Y222819D01*
X70763Y222911D01*
X70727Y222998D01*
X70678Y223078D01*
X70616Y223150D01*
X70545Y223212D01*
X70464Y223261D01*
X70377Y223297D01*
X70285Y223319D01*
X70191Y223325D01*
X67828Y223322D01*
Y228322D01*
X68022Y228549D01*
X68253Y228925D01*
X68320Y229088D01*
X73170Y233938D01*
X75207Y233941D01*
X75298Y233963D01*
X75386Y233999D01*
X75466Y234048D01*
X75538Y234110D01*
X75599Y234181D01*
X75649Y234262D01*
X75685Y234349D01*
X75707Y234441D01*
X75712Y234535D01*
X75707Y238959D01*
X75685Y239051D01*
X75649Y239138D01*
X75599Y239219D01*
X75538Y239291D01*
X75466Y239352D01*
X75386Y239401D01*
X75298Y239438D01*
X75207Y239460D01*
X75112Y239465D01*
X70293Y239460D01*
X70201Y239438D01*
X70114Y239401D01*
X70034Y239352D01*
X69962Y239291D01*
X69900Y239219D01*
X69851Y239138D01*
X69815Y239051D01*
X69793Y238959D01*
X69787Y238865D01*
X69790Y236922D01*
X67828Y234960D01*
Y268200D01*
G37*
G36*
X31877Y133391D02*X33581Y131687D01*
X33638Y131620D01*
X33907Y131390D01*
X33907Y131390D01*
X33907Y131390D01*
X34083Y131283D01*
X34209Y131205D01*
X34209Y131205D01*
X34313Y131162D01*
X34314Y130303D01*
X34351Y130150D01*
X34411Y130005D01*
X34493Y129870D01*
X34596Y129751D01*
X34715Y129648D01*
X34850Y129566D01*
X34995Y129506D01*
X35148Y129469D01*
X35305Y129460D01*
X43801Y129467D01*
X46597Y126671D01*
X46654Y126604D01*
X46923Y126374D01*
X46923Y126374D01*
X47225Y126189D01*
X47553Y126054D01*
X47897Y125971D01*
X48250Y125943D01*
X48338Y125950D01*
X52508D01*
X52298Y125704D01*
X51973Y125173D01*
X51735Y124598D01*
X51590Y123993D01*
X51541Y123373D01*
X51590Y122753D01*
X51735Y122148D01*
X51973Y121573D01*
X52298Y121042D01*
X52702Y120569D01*
X53175Y120165D01*
X53706Y119840D01*
X54281Y119602D01*
X54886Y119457D01*
X55506Y119408D01*
X56126Y119457D01*
X56731Y119602D01*
X57306Y119840D01*
X57837Y120165D01*
X58310Y120569D01*
X58714Y121042D01*
X59039Y121573D01*
X59277Y122148D01*
X59422Y122753D01*
X59459Y123373D01*
X59422Y123993D01*
X59277Y124598D01*
X59039Y125173D01*
X58714Y125704D01*
X58504Y125950D01*
X62189D01*
X62278Y125943D01*
X62630Y125971D01*
X62631Y125971D01*
X62631Y125971D01*
X62631Y125971D01*
X62735Y125996D01*
X62975Y126054D01*
X62975Y126054D01*
X62975Y126054D01*
X63042Y126081D01*
X63302Y126189D01*
X63302Y126189D01*
X63302Y126189D01*
X63392Y126244D01*
X63604Y126374D01*
X63604Y126374D01*
X63604Y126374D01*
X63604Y126374D01*
X63873Y126604D01*
X63931Y126671D01*
X66723Y129464D01*
X67828Y129465D01*
Y110200D01*
X31877D01*
Y133391D01*
G37*
G36*
X53722Y256145D02*X53944Y255459D01*
X54114Y254716D01*
X54216Y253961D01*
X54250Y253200D01*
X54216Y252439D01*
X54114Y251684D01*
X53944Y250941D01*
X53722Y250255D01*
Y256145D01*
G37*
G36*
Y146714D02*X58662D01*
X58750Y146707D01*
X58838Y146714D01*
X60888D01*
X60889Y146051D01*
X60926Y145898D01*
X60986Y145753D01*
X61068Y145618D01*
X61171Y145499D01*
X61290Y145397D01*
X61425Y145314D01*
X61570Y145254D01*
X61723Y145217D01*
X61880Y145208D01*
X65043Y145211D01*
Y144840D01*
X61723Y144837D01*
X61570Y144800D01*
X61425Y144740D01*
X61290Y144658D01*
X61171Y144555D01*
X61068Y144436D01*
X60986Y144301D01*
X60926Y144156D01*
X60889Y144003D01*
X60880Y143846D01*
X60889Y138177D01*
X60926Y138024D01*
X60986Y137879D01*
X61068Y137744D01*
X61171Y137625D01*
X61290Y137522D01*
X61425Y137440D01*
X61570Y137380D01*
X61723Y137343D01*
X61880Y137334D01*
X67828Y137339D01*
Y136968D01*
X61723Y136963D01*
X61570Y136926D01*
X61425Y136866D01*
X61290Y136783D01*
X61171Y136681D01*
X61068Y136562D01*
X60986Y136427D01*
X60926Y136282D01*
X60889Y136129D01*
X60880Y135972D01*
X60889Y130450D01*
X53722D01*
Y137550D01*
X54281Y137319D01*
X54886Y137174D01*
X55506Y137125D01*
X56126Y137174D01*
X56731Y137319D01*
X57306Y137557D01*
X57837Y137882D01*
X58310Y138286D01*
X58714Y138759D01*
X59039Y139290D01*
X59277Y139865D01*
X59422Y140470D01*
X59459Y141090D01*
X59422Y141710D01*
X59277Y142315D01*
X59039Y142890D01*
X58714Y143421D01*
X58310Y143894D01*
X57837Y144298D01*
X57306Y144623D01*
X56731Y144861D01*
X56126Y145006D01*
X55506Y145055D01*
X54886Y145006D01*
X54281Y144861D01*
X53722Y144630D01*
Y146714D01*
G37*
G36*
Y268200D02*X67828D01*
Y234960D01*
X65867Y232999D01*
X65750Y233009D01*
X65311Y232974D01*
X64882Y232871D01*
X64475Y232703D01*
X64099Y232472D01*
X63764Y232186D01*
X63478Y231851D01*
X63247Y231475D01*
X63079Y231068D01*
X62976Y230639D01*
X62941Y230200D01*
X62976Y229761D01*
X63079Y229332D01*
X63247Y228925D01*
X63478Y228549D01*
X63764Y228214D01*
X64099Y227928D01*
X64475Y227697D01*
X64882Y227529D01*
X65311Y227426D01*
X65750Y227391D01*
X66189Y227426D01*
X66618Y227529D01*
X67025Y227697D01*
X67401Y227928D01*
X67736Y228214D01*
X67828Y228322D01*
Y223322D01*
X65372Y223319D01*
X65280Y223297D01*
X65193Y223261D01*
X65112Y223212D01*
X65040Y223150D01*
X64979Y223078D01*
X64930Y222998D01*
X64893Y222911D01*
X64871Y222819D01*
X64866Y222725D01*
X64871Y218299D01*
X64893Y218208D01*
X64930Y218120D01*
X64979Y218040D01*
X65040Y217968D01*
X65112Y217907D01*
X65193Y217857D01*
X65280Y217821D01*
X65372Y217799D01*
X65466Y217794D01*
X67828Y217796D01*
Y152716D01*
X61723Y152711D01*
X61570Y152674D01*
X61425Y152614D01*
X61290Y152532D01*
X61171Y152429D01*
X61068Y152310D01*
X61000Y152198D01*
Y159523D01*
X61022Y159549D01*
X61253Y159925D01*
X61421Y160332D01*
X61524Y160761D01*
X61550Y161200D01*
X61524Y161639D01*
X61421Y162068D01*
X61253Y162475D01*
X61022Y162851D01*
X60736Y163186D01*
X60401Y163472D01*
X60025Y163703D01*
X59618Y163871D01*
X59189Y163974D01*
X58750Y164009D01*
X58311Y163974D01*
X57882Y163871D01*
X57475Y163703D01*
X57099Y163472D01*
X56764Y163186D01*
X56478Y162851D01*
X56247Y162475D01*
X56079Y162068D01*
X55976Y161639D01*
X55941Y161200D01*
X55976Y160761D01*
X56079Y160332D01*
X56247Y159925D01*
X56478Y159549D01*
X56500Y159523D01*
Y151214D01*
X53722D01*
Y189487D01*
X53747Y189425D01*
X53978Y189049D01*
X54264Y188714D01*
X54599Y188428D01*
X54975Y188197D01*
X55382Y188029D01*
X55811Y187926D01*
X56250Y187891D01*
X56689Y187926D01*
X57118Y188029D01*
X57525Y188197D01*
X57901Y188428D01*
X58236Y188714D01*
X58522Y189049D01*
X58753Y189425D01*
X58921Y189832D01*
X59024Y190261D01*
X59048Y190670D01*
X62109Y193730D01*
X62169Y193781D01*
X62373Y194020D01*
X62373Y194021D01*
X62538Y194289D01*
X62658Y194580D01*
X62731Y194886D01*
X62756Y195200D01*
X62750Y195278D01*
Y199622D01*
X62756Y199700D01*
X62731Y200014D01*
X62658Y200320D01*
X62538Y200611D01*
X62373Y200879D01*
X62373Y200879D01*
X62169Y201119D01*
X62109Y201170D01*
X59720Y203559D01*
X59669Y203619D01*
X59429Y203823D01*
X59161Y203988D01*
X58870Y204108D01*
X58564Y204181D01*
X58564Y204181D01*
X58250Y204206D01*
X58172Y204200D01*
X54828D01*
X54750Y204206D01*
X54436Y204181D01*
X54130Y204108D01*
X53839Y203988D01*
X53722Y203916D01*
Y248810D01*
X53959Y249252D01*
X54280Y250003D01*
X54532Y250779D01*
X54713Y251575D01*
X54823Y252384D01*
X54859Y253200D01*
X54823Y254016D01*
X54713Y254825D01*
X54532Y255621D01*
X54280Y256397D01*
X53959Y257148D01*
X53722Y257590D01*
Y268200D01*
G37*
G36*
X45754Y145217D02*X46289Y145217D01*
X46442Y145254D01*
X46587Y145314D01*
X46722Y145397D01*
X46841Y145499D01*
X46943Y145618D01*
X47026Y145753D01*
X47086Y145898D01*
X47123Y146051D01*
X47132Y146208D01*
X47131Y146714D01*
X53722D01*
Y144630D01*
X53706Y144623D01*
X53175Y144298D01*
X52702Y143894D01*
X52298Y143421D01*
X51973Y142890D01*
X51735Y142315D01*
X51590Y141710D01*
X51541Y141090D01*
X51590Y140470D01*
X51735Y139865D01*
X51973Y139290D01*
X52298Y138759D01*
X52702Y138286D01*
X53175Y137882D01*
X53706Y137557D01*
X53722Y137550D01*
Y130450D01*
X49182D01*
X47129Y132503D01*
X47123Y136129D01*
X47086Y136282D01*
X47026Y136427D01*
X46943Y136562D01*
X46841Y136681D01*
X46722Y136783D01*
X46587Y136866D01*
X46442Y136926D01*
X46289Y136963D01*
X46132Y136972D01*
X45754Y136972D01*
Y145217D01*
G37*
G36*
Y188476D02*X51749Y188485D01*
X51902Y188522D01*
X52048Y188582D01*
X52182Y188664D01*
X52302Y188766D01*
X52404Y188886D01*
X52486Y189020D01*
X52546Y189166D01*
X52583Y189319D01*
X52593Y189476D01*
X52590Y190711D01*
X53673Y191794D01*
X53579Y191568D01*
X53476Y191139D01*
X53441Y190700D01*
X53476Y190261D01*
X53579Y189832D01*
X53722Y189487D01*
Y151214D01*
X47124D01*
X47123Y151877D01*
X47086Y152030D01*
X47026Y152175D01*
X46943Y152310D01*
X46841Y152429D01*
X46722Y152532D01*
X46587Y152614D01*
X46442Y152674D01*
X46289Y152711D01*
X46132Y152720D01*
X45754Y152720D01*
Y188476D01*
G37*
G36*
Y268200D02*X53722D01*
Y257590D01*
X53573Y257867D01*
X53123Y258549D01*
X52615Y259187D01*
X52581Y259222D01*
X52541Y259250D01*
X52497Y259271D01*
X52451Y259286D01*
X52403Y259293D01*
X52355Y259292D01*
X52307Y259284D01*
X52261Y259269D01*
X52218Y259246D01*
X52179Y259217D01*
X52145Y259183D01*
X52116Y259143D01*
X52095Y259100D01*
X52080Y259053D01*
X52073Y259005D01*
X52074Y258957D01*
X52082Y258909D01*
X52097Y258863D01*
X52120Y258820D01*
X52149Y258781D01*
X52630Y258191D01*
X53050Y257555D01*
X53410Y256884D01*
X53709Y256183D01*
X53722Y256145D01*
Y250255D01*
X53709Y250217D01*
X53410Y249516D01*
X53050Y248845D01*
X52630Y248209D01*
X52156Y247613D01*
X52127Y247576D01*
X52105Y247534D01*
X52090Y247489D01*
X52082Y247443D01*
X52082Y247395D01*
X52089Y247349D01*
X52103Y247304D01*
X52124Y247261D01*
X52151Y247223D01*
X52184Y247189D01*
X52222Y247161D01*
X52264Y247139D01*
X52309Y247124D01*
X52355Y247116D01*
X52403Y247116D01*
X52449Y247123D01*
X52494Y247137D01*
X52537Y247158D01*
X52575Y247185D01*
X52608Y247219D01*
X53123Y247851D01*
X53573Y248533D01*
X53722Y248810D01*
Y203916D01*
X53571Y203823D01*
X53571Y203823D01*
X53331Y203619D01*
X53280Y203559D01*
X49643Y199922D01*
X45754Y199916D01*
Y244091D01*
X46566Y244127D01*
X47375Y244237D01*
X48171Y244418D01*
X48947Y244670D01*
X49698Y244991D01*
X50417Y245377D01*
X51099Y245827D01*
X51737Y246335D01*
X51772Y246369D01*
X51800Y246409D01*
X51821Y246453D01*
X51836Y246499D01*
X51843Y246547D01*
X51842Y246595D01*
X51834Y246643D01*
X51819Y246689D01*
X51796Y246732D01*
X51767Y246771D01*
X51733Y246805D01*
X51693Y246834D01*
X51650Y246855D01*
X51603Y246870D01*
X51555Y246877D01*
X51507Y246876D01*
X51459Y246868D01*
X51413Y246853D01*
X51370Y246830D01*
X51331Y246801D01*
X50741Y246320D01*
X50105Y245900D01*
X49434Y245540D01*
X48733Y245241D01*
X48009Y245006D01*
X47266Y244836D01*
X46511Y244734D01*
X45754Y244700D01*
Y261700D01*
X46511Y261666D01*
X47266Y261564D01*
X48009Y261394D01*
X48733Y261159D01*
X49434Y260860D01*
X50105Y260500D01*
X50741Y260080D01*
X51337Y259606D01*
X51374Y259577D01*
X51416Y259555D01*
X51461Y259540D01*
X51507Y259532D01*
X51555Y259532D01*
X51601Y259539D01*
X51646Y259553D01*
X51689Y259574D01*
X51727Y259601D01*
X51761Y259634D01*
X51789Y259672D01*
X51811Y259714D01*
X51826Y259759D01*
X51834Y259805D01*
X51834Y259853D01*
X51827Y259899D01*
X51813Y259944D01*
X51792Y259987D01*
X51765Y260025D01*
X51731Y260058D01*
X51099Y260573D01*
X50417Y261023D01*
X49698Y261409D01*
X48947Y261730D01*
X48171Y261982D01*
X47375Y262163D01*
X46566Y262273D01*
X45754Y262309D01*
Y268200D01*
G37*
G36*
X38034Y145210D02*X45754Y145217D01*
Y136972D01*
X38034Y136965D01*
Y145210D01*
G37*
G36*
Y268200D02*X45754D01*
Y262309D01*
X45750Y262309D01*
X44934Y262273D01*
X44125Y262163D01*
X43329Y261982D01*
X42553Y261730D01*
X41802Y261409D01*
X41083Y261023D01*
X40401Y260573D01*
X39763Y260065D01*
X39728Y260031D01*
X39700Y259991D01*
X39679Y259947D01*
X39664Y259901D01*
X39657Y259853D01*
X39658Y259805D01*
X39666Y259757D01*
X39681Y259711D01*
X39704Y259668D01*
X39733Y259629D01*
X39767Y259595D01*
X39807Y259566D01*
X39850Y259545D01*
X39897Y259530D01*
X39945Y259523D01*
X39993Y259524D01*
X40041Y259532D01*
X40087Y259547D01*
X40130Y259570D01*
X40169Y259599D01*
X40759Y260080D01*
X41395Y260500D01*
X42066Y260860D01*
X42767Y261159D01*
X43491Y261394D01*
X44234Y261564D01*
X44989Y261666D01*
X45750Y261700D01*
X45754Y261700D01*
Y244700D01*
X45750Y244700D01*
X44989Y244734D01*
X44234Y244836D01*
X43491Y245006D01*
X42767Y245241D01*
X42066Y245540D01*
X41395Y245900D01*
X40759Y246320D01*
X40163Y246794D01*
X40126Y246823D01*
X40084Y246845D01*
X40039Y246860D01*
X39993Y246868D01*
X39945Y246868D01*
X39899Y246861D01*
X39854Y246847D01*
X39811Y246826D01*
X39773Y246799D01*
X39739Y246766D01*
X39711Y246728D01*
X39689Y246686D01*
X39674Y246641D01*
X39666Y246595D01*
X39666Y246547D01*
X39673Y246501D01*
X39687Y246456D01*
X39708Y246413D01*
X39735Y246375D01*
X39769Y246342D01*
X40401Y245827D01*
X41083Y245377D01*
X41802Y244991D01*
X42553Y244670D01*
X43329Y244418D01*
X44125Y244237D01*
X44934Y244127D01*
X45750Y244091D01*
X45754Y244091D01*
Y199916D01*
X45531Y199915D01*
X45378Y199878D01*
X45232Y199818D01*
X45098Y199736D01*
X44978Y199634D01*
X44876Y199514D01*
X44794Y199380D01*
X44734Y199234D01*
X44697Y199081D01*
X44688Y198924D01*
X44697Y194831D01*
X44734Y194678D01*
X44794Y194532D01*
X44876Y194398D01*
X44978Y194278D01*
X45070Y194200D01*
X44978Y194122D01*
X44876Y194002D01*
X44794Y193868D01*
X44734Y193722D01*
X44697Y193569D01*
X44688Y193412D01*
X44697Y189319D01*
X44734Y189166D01*
X44794Y189020D01*
X44876Y188886D01*
X44978Y188766D01*
X45098Y188664D01*
X45232Y188582D01*
X45378Y188522D01*
X45531Y188485D01*
X45688Y188476D01*
X45754Y188476D01*
Y152720D01*
X38034Y152713D01*
Y188500D01*
X38122Y188522D01*
X38268Y188582D01*
X38402Y188664D01*
X38522Y188766D01*
X38624Y188886D01*
X38706Y189020D01*
X38766Y189166D01*
X38803Y189319D01*
X38812Y189476D01*
X38803Y193569D01*
X38766Y193722D01*
X38706Y193868D01*
X38624Y194002D01*
X38522Y194122D01*
X38430Y194200D01*
X38522Y194278D01*
X38624Y194398D01*
X38706Y194532D01*
X38766Y194678D01*
X38803Y194831D01*
X38812Y194988D01*
X38803Y199081D01*
X38766Y199234D01*
X38706Y199380D01*
X38624Y199514D01*
X38522Y199634D01*
X38402Y199736D01*
X38268Y199818D01*
X38122Y199878D01*
X38034Y199900D01*
Y248371D01*
X38377Y247851D01*
X38885Y247213D01*
X38919Y247178D01*
X38959Y247150D01*
X39003Y247129D01*
X39049Y247114D01*
X39097Y247107D01*
X39145Y247108D01*
X39193Y247116D01*
X39239Y247131D01*
X39282Y247154D01*
X39321Y247183D01*
X39355Y247217D01*
X39384Y247257D01*
X39405Y247300D01*
X39420Y247347D01*
X39427Y247395D01*
X39426Y247443D01*
X39418Y247491D01*
X39403Y247537D01*
X39380Y247580D01*
X39351Y247619D01*
X38870Y248209D01*
X38450Y248845D01*
X38090Y249516D01*
X38034Y249647D01*
Y256753D01*
X38090Y256884D01*
X38450Y257555D01*
X38870Y258191D01*
X39344Y258787D01*
X39373Y258824D01*
X39395Y258866D01*
X39410Y258911D01*
X39418Y258957D01*
X39418Y259005D01*
X39411Y259051D01*
X39397Y259096D01*
X39376Y259139D01*
X39349Y259177D01*
X39316Y259211D01*
X39278Y259239D01*
X39236Y259261D01*
X39191Y259276D01*
X39145Y259284D01*
X39097Y259284D01*
X39051Y259277D01*
X39006Y259263D01*
X38963Y259242D01*
X38925Y259215D01*
X38892Y259181D01*
X38377Y258549D01*
X38034Y258029D01*
Y268200D01*
G37*
G36*
Y249647D02*X37791Y250217D01*
X37556Y250941D01*
X37386Y251684D01*
X37284Y252439D01*
X37250Y253200D01*
X37284Y253961D01*
X37386Y254716D01*
X37556Y255459D01*
X37791Y256183D01*
X38034Y256753D01*
Y249647D01*
G37*
G36*
Y152713D02*X35148Y152711D01*
X34995Y152674D01*
X34850Y152614D01*
X34715Y152532D01*
X34596Y152429D01*
X34493Y152310D01*
X34411Y152175D01*
X34351Y152030D01*
X34314Y151877D01*
X34305Y151720D01*
X34314Y146051D01*
X34351Y145898D01*
X34411Y145753D01*
X34493Y145618D01*
X34596Y145499D01*
X34715Y145397D01*
X34850Y145314D01*
X34995Y145254D01*
X35148Y145217D01*
X35305Y145208D01*
X38034Y145210D01*
Y136965D01*
X35148Y136963D01*
X34995Y136926D01*
X34850Y136866D01*
X34798Y136834D01*
X32526Y139106D01*
X32524Y139139D01*
X32421Y139568D01*
X32253Y139975D01*
X32022Y140351D01*
X31877Y140521D01*
Y188477D01*
X31907Y188476D01*
X37969Y188485D01*
X38034Y188500D01*
Y152713D01*
G37*
G36*
X31877Y268200D02*X38034D01*
Y258029D01*
X37927Y257867D01*
X37541Y257148D01*
X37220Y256397D01*
X36968Y255621D01*
X36787Y254825D01*
X36677Y254016D01*
X36641Y253200D01*
X36677Y252384D01*
X36787Y251575D01*
X36968Y250779D01*
X37220Y250003D01*
X37541Y249252D01*
X37927Y248533D01*
X38034Y248371D01*
Y199900D01*
X37969Y199915D01*
X37812Y199924D01*
X31877Y199915D01*
Y268200D01*
G37*
G36*
X29066Y123992D02*X29310Y123454D01*
X29581Y122691D01*
X29785Y121908D01*
X29923Y121111D01*
X29991Y120305D01*
Y119495D01*
X29923Y118689D01*
X29785Y117892D01*
X29581Y117109D01*
X29310Y116346D01*
X29066Y115808D01*
Y123992D01*
G37*
G36*
Y262592D02*X29310Y262054D01*
X29581Y261291D01*
X29785Y260508D01*
X29923Y259711D01*
X29991Y258905D01*
Y258095D01*
X29923Y257289D01*
X29785Y256492D01*
X29581Y255709D01*
X29310Y254946D01*
X29066Y254408D01*
Y262592D01*
G37*
G36*
Y135985D02*X29311Y135926D01*
X29345Y135923D01*
X31877Y133391D01*
Y110200D01*
X29066D01*
Y114536D01*
X29098Y114584D01*
X29519Y115334D01*
X29875Y116119D01*
X30163Y116930D01*
X30381Y117763D01*
X30527Y118612D01*
X30600Y119469D01*
Y120331D01*
X30527Y121188D01*
X30381Y122037D01*
X30163Y122870D01*
X29875Y123681D01*
X29519Y124466D01*
X29098Y125216D01*
X29066Y125264D01*
Y135985D01*
G37*
G36*
Y187722D02*X29401Y187928D01*
X29736Y188214D01*
X30022Y188549D01*
X30253Y188925D01*
X30364Y189194D01*
X30947D01*
X30953Y189166D01*
X31014Y189020D01*
X31096Y188886D01*
X31198Y188766D01*
X31318Y188664D01*
X31452Y188582D01*
X31598Y188522D01*
X31751Y188485D01*
X31877Y188477D01*
Y140521D01*
X31736Y140686D01*
X31401Y140972D01*
X31025Y141203D01*
X30618Y141371D01*
X30189Y141474D01*
X29750Y141509D01*
X29311Y141474D01*
X29066Y141415D01*
Y187722D01*
G37*
G36*
Y194706D02*X30947D01*
X30953Y194678D01*
X31014Y194532D01*
X31096Y194398D01*
X31198Y194278D01*
X31290Y194200D01*
X31198Y194122D01*
X31096Y194002D01*
X31014Y193868D01*
X30953Y193722D01*
X30947Y193694D01*
X29082D01*
X29066Y193695D01*
Y194706D01*
G37*
G36*
Y268200D02*X31877D01*
Y199915D01*
X31751Y199915D01*
X31598Y199878D01*
X31452Y199818D01*
X31318Y199736D01*
X31198Y199634D01*
X31096Y199514D01*
X31014Y199380D01*
X30953Y199234D01*
X30947Y199206D01*
X29713D01*
X29401Y199472D01*
X29066Y199678D01*
Y253136D01*
X29098Y253184D01*
X29519Y253934D01*
X29875Y254719D01*
X30163Y255530D01*
X30381Y256363D01*
X30527Y257212D01*
X30600Y258069D01*
Y258931D01*
X30527Y259788D01*
X30381Y260637D01*
X30163Y261470D01*
X29875Y262281D01*
X29519Y263066D01*
X29098Y263816D01*
X29066Y263864D01*
Y268200D01*
G37*
G36*
X23329D02*X29066D01*
Y263864D01*
X28615Y264529D01*
X28072Y265197D01*
X28038Y265232D01*
X27998Y265259D01*
X27954Y265281D01*
X27908Y265295D01*
X27860Y265302D01*
X27811Y265301D01*
X27763Y265292D01*
X27717Y265277D01*
X27674Y265254D01*
X27636Y265225D01*
X27602Y265190D01*
X27574Y265150D01*
X27553Y265106D01*
X27538Y265060D01*
X27532Y265012D01*
X27533Y264963D01*
X27541Y264915D01*
X27557Y264869D01*
X27580Y264826D01*
X27609Y264788D01*
X28126Y264166D01*
X28580Y263496D01*
X28976Y262790D01*
X29066Y262592D01*
Y254408D01*
X28976Y254210D01*
X28580Y253504D01*
X28126Y252834D01*
X27616Y252206D01*
X27587Y252169D01*
X27565Y252127D01*
X27549Y252083D01*
X27541Y252036D01*
X27540Y251989D01*
X27547Y251942D01*
X27561Y251897D01*
X27581Y251855D01*
X27608Y251816D01*
X27641Y251782D01*
X27679Y251754D01*
X27721Y251731D01*
X27765Y251716D01*
X27812Y251708D01*
X27859Y251707D01*
X27906Y251714D01*
X27951Y251727D01*
X27993Y251748D01*
X28032Y251775D01*
X28065Y251809D01*
X28615Y252471D01*
X29066Y253136D01*
Y199678D01*
X29025Y199703D01*
X28618Y199871D01*
X28189Y199974D01*
X27750Y200009D01*
X27311Y199974D01*
X26882Y199871D01*
X26475Y199703D01*
X26099Y199472D01*
X25764Y199186D01*
X25478Y198851D01*
X25247Y198475D01*
X25079Y198068D01*
X24976Y197639D01*
X24941Y197200D01*
X24976Y196761D01*
X25079Y196332D01*
X25247Y195925D01*
X25478Y195549D01*
X25764Y195214D01*
X26099Y194928D01*
X26475Y194697D01*
X26882Y194529D01*
X27311Y194426D01*
X27750Y194391D01*
X28189Y194426D01*
X28618Y194529D01*
X29025Y194697D01*
X29039Y194706D01*
X29066D01*
Y193695D01*
X28994Y193701D01*
X28641Y193673D01*
X28641Y193673D01*
X28641Y193673D01*
X28641Y193673D01*
X28424Y193621D01*
X28297Y193591D01*
X28297Y193591D01*
X28296Y193591D01*
X28078Y193500D01*
X27969Y193455D01*
X27969Y193455D01*
X27969Y193455D01*
X27748Y193320D01*
X27667Y193270D01*
X27667Y193270D01*
X27667Y193270D01*
X27667Y193270D01*
X27398Y193040D01*
X27344Y192977D01*
X27311Y192974D01*
X26882Y192871D01*
X26475Y192703D01*
X26099Y192472D01*
X25764Y192186D01*
X25478Y191851D01*
X25247Y191475D01*
X25079Y191068D01*
X24976Y190639D01*
X24941Y190200D01*
X24976Y189761D01*
X25079Y189332D01*
X25247Y188925D01*
X25478Y188549D01*
X25764Y188214D01*
X26099Y187928D01*
X26475Y187697D01*
X26882Y187529D01*
X27311Y187426D01*
X27750Y187391D01*
X28189Y187426D01*
X28618Y187529D01*
X29025Y187697D01*
X29066Y187722D01*
Y141415D01*
X28882Y141371D01*
X28475Y141203D01*
X28099Y140972D01*
X27764Y140686D01*
X27478Y140351D01*
X27247Y139975D01*
X27079Y139568D01*
X26976Y139139D01*
X26941Y138700D01*
X26976Y138261D01*
X27079Y137832D01*
X27247Y137425D01*
X27478Y137049D01*
X27764Y136714D01*
X28099Y136428D01*
X28475Y136197D01*
X28882Y136029D01*
X29066Y135985D01*
Y125264D01*
X28615Y125929D01*
X28072Y126597D01*
X28038Y126632D01*
X27998Y126659D01*
X27954Y126681D01*
X27908Y126695D01*
X27860Y126702D01*
X27811Y126701D01*
X27763Y126692D01*
X27717Y126677D01*
X27674Y126654D01*
X27636Y126625D01*
X27602Y126590D01*
X27574Y126550D01*
X27553Y126506D01*
X27538Y126460D01*
X27532Y126412D01*
X27533Y126363D01*
X27541Y126315D01*
X27557Y126269D01*
X27580Y126226D01*
X27609Y126188D01*
X28126Y125566D01*
X28580Y124896D01*
X28976Y124190D01*
X29066Y123992D01*
Y115808D01*
X28976Y115610D01*
X28580Y114904D01*
X28126Y114234D01*
X27616Y113606D01*
X27587Y113569D01*
X27565Y113527D01*
X27549Y113483D01*
X27541Y113436D01*
X27540Y113389D01*
X27547Y113342D01*
X27561Y113297D01*
X27581Y113255D01*
X27608Y113216D01*
X27641Y113182D01*
X27679Y113154D01*
X27721Y113131D01*
X27765Y113116D01*
X27812Y113108D01*
X27859Y113107D01*
X27906Y113114D01*
X27951Y113127D01*
X27993Y113148D01*
X28032Y113175D01*
X28065Y113209D01*
X28615Y113871D01*
X29066Y114536D01*
Y110200D01*
X23329D01*
X23470Y110237D01*
X24281Y110525D01*
X25066Y110881D01*
X25816Y111302D01*
X26529Y111785D01*
X27197Y112328D01*
X27232Y112362D01*
X27259Y112402D01*
X27281Y112446D01*
X27295Y112492D01*
X27302Y112540D01*
X27301Y112589D01*
X27292Y112637D01*
X27277Y112683D01*
X27254Y112726D01*
X27225Y112764D01*
X27190Y112798D01*
X27150Y112826D01*
X27106Y112847D01*
X27060Y112862D01*
X27012Y112868D01*
X26963Y112867D01*
X26915Y112859D01*
X26869Y112843D01*
X26826Y112820D01*
X26788Y112791D01*
X26166Y112274D01*
X25496Y111820D01*
X24790Y111424D01*
X24054Y111090D01*
X23291Y110819D01*
X22508Y110615D01*
X21711Y110477D01*
X20905Y110409D01*
X20504D01*
Y129391D01*
X20905D01*
X21711Y129323D01*
X22508Y129185D01*
X23291Y128981D01*
X24054Y128710D01*
X24790Y128376D01*
X25496Y127980D01*
X26166Y127526D01*
X26794Y127016D01*
X26831Y126987D01*
X26873Y126965D01*
X26917Y126949D01*
X26964Y126941D01*
X27011Y126940D01*
X27058Y126947D01*
X27103Y126961D01*
X27145Y126981D01*
X27184Y127008D01*
X27218Y127041D01*
X27246Y127079D01*
X27269Y127121D01*
X27284Y127165D01*
X27292Y127212D01*
X27293Y127259D01*
X27286Y127306D01*
X27273Y127351D01*
X27252Y127393D01*
X27225Y127432D01*
X27191Y127465D01*
X26529Y128015D01*
X25816Y128498D01*
X25066Y128919D01*
X24281Y129275D01*
X23470Y129563D01*
X22637Y129781D01*
X21788Y129927D01*
X20931Y130000D01*
X20504D01*
Y248400D01*
X20931D01*
X21788Y248473D01*
X22637Y248619D01*
X23470Y248837D01*
X24281Y249125D01*
X25066Y249481D01*
X25816Y249902D01*
X26529Y250385D01*
X27197Y250928D01*
X27232Y250962D01*
X27259Y251002D01*
X27281Y251046D01*
X27295Y251092D01*
X27302Y251140D01*
X27301Y251189D01*
X27292Y251237D01*
X27277Y251283D01*
X27254Y251326D01*
X27225Y251364D01*
X27190Y251398D01*
X27150Y251426D01*
X27106Y251447D01*
X27060Y251462D01*
X27012Y251468D01*
X26963Y251467D01*
X26915Y251459D01*
X26869Y251443D01*
X26826Y251420D01*
X26788Y251391D01*
X26166Y250874D01*
X25496Y250420D01*
X24790Y250024D01*
X24054Y249690D01*
X23291Y249419D01*
X22508Y249215D01*
X21711Y249077D01*
X20905Y249009D01*
X20504D01*
Y267991D01*
X20905D01*
X21711Y267923D01*
X22508Y267785D01*
X23291Y267581D01*
X24054Y267310D01*
X24790Y266976D01*
X25496Y266580D01*
X26166Y266126D01*
X26794Y265616D01*
X26831Y265587D01*
X26873Y265565D01*
X26917Y265549D01*
X26964Y265541D01*
X27011Y265540D01*
X27058Y265547D01*
X27103Y265561D01*
X27145Y265581D01*
X27184Y265608D01*
X27218Y265641D01*
X27246Y265679D01*
X27269Y265721D01*
X27284Y265765D01*
X27292Y265812D01*
X27293Y265859D01*
X27286Y265906D01*
X27273Y265951D01*
X27252Y265993D01*
X27225Y266032D01*
X27191Y266065D01*
X26529Y266615D01*
X25816Y267098D01*
X25066Y267519D01*
X24281Y267875D01*
X23470Y268163D01*
X23329Y268200D01*
G37*
G36*
X20504Y110409D02*X20095D01*
X19289Y110477D01*
X18492Y110615D01*
X17709Y110819D01*
X16946Y111090D01*
X16210Y111424D01*
X15504Y111820D01*
X14834Y112274D01*
X14206Y112784D01*
X14169Y112813D01*
X14127Y112835D01*
X14083Y112851D01*
X14036Y112859D01*
X13989Y112860D01*
X13942Y112853D01*
X13897Y112839D01*
X13855Y112819D01*
X13816Y112792D01*
X13782Y112759D01*
X13754Y112721D01*
X13745Y112705D01*
X13311Y113139D01*
X13326Y113146D01*
X13364Y113175D01*
X13398Y113210D01*
X13426Y113250D01*
X13447Y113294D01*
X13462Y113340D01*
X13468Y113388D01*
X13467Y113437D01*
X13459Y113485D01*
X13443Y113531D01*
X13420Y113574D01*
X13391Y113612D01*
X12874Y114234D01*
X12420Y114904D01*
X12024Y115610D01*
X11690Y116346D01*
X11419Y117109D01*
X11215Y117892D01*
X11077Y118689D01*
X11009Y119495D01*
Y120305D01*
X11077Y121111D01*
X11215Y121908D01*
X11419Y122691D01*
X11690Y123454D01*
X12024Y124190D01*
X12420Y124896D01*
X12874Y125566D01*
X13384Y126194D01*
X13413Y126231D01*
X13435Y126273D01*
X13451Y126317D01*
X13459Y126364D01*
X13460Y126411D01*
X13453Y126458D01*
X13439Y126503D01*
X13419Y126545D01*
X13392Y126584D01*
X13359Y126618D01*
X13321Y126646D01*
X13279Y126669D01*
X13235Y126684D01*
X13188Y126692D01*
X13141Y126693D01*
X13094Y126686D01*
X13049Y126673D01*
X13007Y126652D01*
X12968Y126625D01*
X12935Y126591D01*
X12385Y125929D01*
X11902Y125216D01*
X11481Y124466D01*
X11125Y123681D01*
X10837Y122870D01*
X10619Y122037D01*
X10473Y121188D01*
X10400Y120331D01*
Y120050D01*
X10250Y120200D01*
Y259700D01*
X10501Y259951D01*
X10473Y259788D01*
X10400Y258931D01*
Y258069D01*
X10473Y257212D01*
X10619Y256363D01*
X10837Y255530D01*
X11125Y254719D01*
X11481Y253934D01*
X11902Y253184D01*
X12385Y252471D01*
X12928Y251803D01*
X12962Y251768D01*
X13002Y251741D01*
X13046Y251719D01*
X13092Y251705D01*
X13140Y251698D01*
X13189Y251699D01*
X13237Y251708D01*
X13283Y251723D01*
X13326Y251746D01*
X13364Y251775D01*
X13398Y251810D01*
X13426Y251850D01*
X13447Y251894D01*
X13462Y251940D01*
X13468Y251988D01*
X13467Y252037D01*
X13459Y252085D01*
X13443Y252131D01*
X13420Y252174D01*
X13391Y252212D01*
X12874Y252834D01*
X12420Y253504D01*
X12024Y254210D01*
X11690Y254946D01*
X11419Y255709D01*
X11215Y256492D01*
X11077Y257289D01*
X11009Y258095D01*
Y258905D01*
X11077Y259711D01*
X11215Y260508D01*
X11419Y261291D01*
X11690Y262054D01*
X12024Y262790D01*
X12420Y263496D01*
X12874Y264166D01*
X13384Y264794D01*
X13413Y264831D01*
X13435Y264873D01*
X13451Y264917D01*
X13459Y264964D01*
X13460Y265011D01*
X13453Y265058D01*
X13439Y265103D01*
X13419Y265145D01*
X13392Y265184D01*
X13359Y265218D01*
X13321Y265246D01*
X13305Y265255D01*
X13739Y265689D01*
X13746Y265674D01*
X13775Y265636D01*
X13810Y265602D01*
X13850Y265574D01*
X13894Y265553D01*
X13940Y265538D01*
X13988Y265532D01*
X14037Y265533D01*
X14085Y265541D01*
X14131Y265557D01*
X14174Y265580D01*
X14212Y265609D01*
X14834Y266126D01*
X15504Y266580D01*
X16210Y266976D01*
X16946Y267310D01*
X17709Y267581D01*
X18492Y267785D01*
X19289Y267923D01*
X20095Y267991D01*
X20504D01*
Y249009D01*
X20095D01*
X19289Y249077D01*
X18492Y249215D01*
X17709Y249419D01*
X16946Y249690D01*
X16210Y250024D01*
X15504Y250420D01*
X14834Y250874D01*
X14206Y251384D01*
X14169Y251413D01*
X14127Y251435D01*
X14083Y251451D01*
X14036Y251459D01*
X13989Y251460D01*
X13942Y251453D01*
X13897Y251439D01*
X13855Y251419D01*
X13816Y251392D01*
X13782Y251359D01*
X13754Y251321D01*
X13731Y251279D01*
X13716Y251235D01*
X13708Y251188D01*
X13707Y251141D01*
X13714Y251094D01*
X13727Y251049D01*
X13748Y251007D01*
X13775Y250968D01*
X13809Y250935D01*
X14471Y250385D01*
X15184Y249902D01*
X15934Y249481D01*
X16719Y249125D01*
X17530Y248837D01*
X18363Y248619D01*
X19212Y248473D01*
X20069Y248400D01*
X20504D01*
Y130000D01*
X20069D01*
X19212Y129927D01*
X18363Y129781D01*
X17530Y129563D01*
X16719Y129275D01*
X15934Y128919D01*
X15184Y128498D01*
X14471Y128015D01*
X13803Y127472D01*
X13768Y127438D01*
X13741Y127398D01*
X13719Y127354D01*
X13705Y127308D01*
X13698Y127260D01*
X13699Y127211D01*
X13708Y127163D01*
X13723Y127117D01*
X13746Y127074D01*
X13775Y127036D01*
X13810Y127002D01*
X13850Y126974D01*
X13894Y126953D01*
X13940Y126938D01*
X13988Y126932D01*
X14037Y126933D01*
X14085Y126941D01*
X14131Y126957D01*
X14174Y126980D01*
X14212Y127009D01*
X14834Y127526D01*
X15504Y127980D01*
X16210Y128376D01*
X16946Y128710D01*
X17709Y128981D01*
X18492Y129185D01*
X19289Y129323D01*
X20095Y129391D01*
X20504D01*
Y110409D01*
G37*
G54D12*X94650Y159600D02*X94250Y159200D01*
X81350Y149800D02*X81250Y149700D01*
X81140Y149590D02*X105490D01*
X109000Y153100D01*
G54D13*X40250Y133216D02*X35234D01*
X29750Y138700D01*
X40750Y133216D02*X43234D01*
X48250Y128200D01*
X62278D01*
X67293Y133216D01*
Y141090D02*Y148964D01*
X40719D01*
X58750Y161200D02*Y148964D01*
G54D12*X109000Y162900D02*X97950D01*
X94270Y159220D01*
X100110Y141970D02*Y149590D01*
X97924Y133636D02*X117936D01*
X119000Y134700D01*
X97924Y125762D02*X117938D01*
X119000Y124700D01*
X83020Y116330D02*X88492D01*
X97924Y125762D01*
G54D14*X48640Y196956D02*X49506D01*
X54750Y202200D01*
X58250D01*
X60750Y199700D01*
Y195200D01*
X56250Y190700D01*
G54D13*X77670Y220559D02*Y223280D01*
X73750Y227200D01*
X65750Y230200D02*X66250D01*
X72750Y236700D01*
G54D14*X48640Y191444D02*X50494D01*
G54D13*X34860D02*X28994D01*
X27750Y190200D01*
X34860Y196956D02*X27994D01*
X27750Y197200D01*
G54D14*X50494Y191444D02*X56250Y197200D01*
G54D15*X137091Y160470D02*X139091D01*
X139591Y160970D01*
Y162170D02*Y160970D01*
X139091Y162670D02*X139591Y162170D01*
X137591Y162670D02*X139091D01*
X137591Y164470D02*Y160470D01*
X137091Y164470D02*X139091D01*
X139591Y163970D01*
Y163170D01*
X139091Y162670D02*X139591Y163170D01*
X140791Y162470D02*Y160970D01*
X141291Y160470D01*
X142791Y162470D02*Y159470D01*
X142291Y158970D02*X142791Y159470D01*
X141291Y158970D02*X142291D01*
X140791Y159470D02*X141291Y158970D01*
Y160470D02*X142291D01*
X142791Y160970D01*
X145791Y162670D02*X147291D01*
X145791Y160470D02*X147791D01*
X145791Y164470D02*Y160470D01*
Y164470D02*X147791D01*
X148991Y162470D02*X149991Y160470D01*
X150991Y162470D02*X149991Y160470D01*
X153691Y162470D02*X154191Y161970D01*
X152691Y162470D02*X153691D01*
X152191Y161970D02*X152691Y162470D01*
X152191Y161970D02*Y160970D01*
X152691Y160470D01*
X154191Y162470D02*Y160970D01*
X154691Y160470D01*
X152691D02*X153691D01*
X154191Y160970D01*
X156391Y161970D02*Y160470D01*
Y161970D02*X156891Y162470D01*
X157391D01*
X157891Y161970D01*
Y160470D01*
X155891Y162470D02*X156391Y161970D01*
X160891Y162670D02*X162391D01*
X160891Y160470D02*X162891D01*
X160891Y164470D02*Y160470D01*
Y164470D02*X162891D01*
X164091Y160470D02*X164591D01*
X165791Y164470D02*Y160470D01*
Y164470D02*X167791D01*
X165791Y162670D02*X167291D01*
X168991Y160470D02*X169491D01*
X172491Y160970D02*X172991Y160470D01*
X172491Y163970D02*Y162970D01*
Y163970D02*X172991Y164470D01*
X172491Y161970D02*X173991Y163470D01*
X172991Y160470D02*X173491D01*
X174491Y161470D01*
X172491Y162970D02*X174991Y160470D01*
X172991Y164470D02*X173491D01*
X173991Y163970D01*
Y163470D01*
X172491Y161970D02*Y160970D01*
X177991Y164470D02*X178991D01*
X178491D02*Y160470D01*
X177991D02*X178991D01*
X180691D02*X182191D01*
X182691Y160970D01*
X182191Y161470D02*X182691Y160970D01*
X180691Y161470D02*X182191D01*
X180191Y161970D02*X180691Y161470D01*
X180191Y161970D02*X180691Y162470D01*
X182191D01*
X182691Y161970D01*
X180191Y160970D02*X180691Y160470D01*
X183891Y164470D02*Y160470D01*
Y161970D02*X184391Y162470D01*
X185391D01*
X185891Y161970D01*
Y160470D01*
X187591Y161970D02*Y160470D01*
Y161970D02*X188091Y162470D01*
X188591D01*
X189091Y161970D01*
Y160470D01*
Y161970D02*X189591Y162470D01*
X190091D01*
X190591Y161970D01*
Y160470D01*
X187091Y162470D02*X187591Y161970D01*
X193291Y162470D02*X193791Y161970D01*
X192291Y162470D02*X193291D01*
X191791Y161970D02*X192291Y162470D01*
X191791Y161970D02*Y160970D01*
X192291Y160470D01*
X193791Y162470D02*Y160970D01*
X194291Y160470D01*
X192291D02*X193291D01*
X193791Y160970D01*
X195991Y160470D02*X197491D01*
X195491Y160970D02*X195991Y160470D01*
X195491Y161970D02*Y160970D01*
Y161970D02*X195991Y162470D01*
X196991D01*
X197491Y161970D01*
X195491Y161470D02*X197491D01*
Y161970D02*Y161470D01*
X198691Y164470D02*Y160970D01*
X199191Y160470D01*
X203991Y164470D02*X204491Y163970D01*
X202491Y164470D02*X203991D01*
X201991Y163970D02*X202491Y164470D01*
X201991Y163970D02*Y162970D01*
X202491Y162470D01*
X203991D01*
X204491Y161970D01*
Y160970D01*
X203991Y160470D02*X204491Y160970D01*
X202491Y160470D02*X203991D01*
X201991Y160970D02*X202491Y160470D01*
X205691D02*X206191D01*
X207391Y164470D02*Y162470D01*
X207891Y160470D01*
X208891Y162470D01*
X209891Y160470D01*
X210391Y162470D01*
Y164470D02*Y162470D01*
X211591Y160470D02*X212091D01*
G54D16*X55506Y123373D03*
Y141090D03*
G54D17*X119250Y157000D03*
G54D11*G36*
X116000Y137700D02*Y131700D01*
X122000D01*
Y137700D01*
X116000D01*
G37*
G54D18*X119000Y124700D03*
G54D11*G36*
X104954Y232153D02*Y226247D01*
X110860D01*
Y232153D01*
X104954D01*
G37*
G54D16*X112829Y237074D03*
X117750Y229200D03*
X122671Y237074D03*
G54D17*X119250Y168800D03*
G54D19*X47656Y196956D02*X49624D01*
X47656Y191444D02*X49624D01*
X33876Y196956D02*X35844D01*
X33876Y191444D02*X35844D01*
G54D20*X108600Y162900D02*X109400D01*
X108600Y153100D02*X109400D01*
X108600Y172700D02*X109400D01*
G54D21*X72552Y236700D02*X72947D01*
G54D22*X67631Y220559D02*X68025D01*
X77473D02*X77867D01*
G54D23*X64636Y148964D02*X69951D01*
X64636Y141090D02*X69951D01*
X64636Y133216D02*X69951D01*
X38061Y148964D02*X43376D01*
X38061Y133216D02*X43376D01*
G54D24*X89065Y133636D02*X106782D01*
X89065Y125762D02*X106782D01*
G54D25*X112097Y142889D02*X119577D01*
X112097Y116511D02*X119577D01*
G54D26*X56250Y197200D03*
Y190700D03*
X29750Y138700D03*
X73750Y227200D03*
X58750Y161200D03*
G54D18*X94250Y159200D03*
X81250Y149700D03*
G54D27*X115250Y189200D03*
G54D28*X93750Y202200D03*
G54D18*X100110Y141970D03*
G54D26*X65750Y230200D03*
G54D29*X210000Y258500D03*
G54D28*X184750Y253200D03*
X45750D03*
G54D26*X27750Y197200D03*
G54D29*X20500Y258500D03*
G54D26*X27750Y190200D03*
G54D29*X20500Y119900D03*
X210000D03*
G54D28*X184750Y125200D03*
X136000Y129700D03*
G54D18*X83020Y116330D03*
G54D14*G54D30*G54D31*G54D30*G54D14*G54D32*G54D31*G54D14*G54D32*G54D14*G54D32*G54D31*G54D30*G54D33*G54D34*G54D35*G54D36*G54D34*M02*
