G04 start of page 9 for group -4078 idx -4078 *
G04 Title: (unknown), bottomsilk *
G04 Creator: pcb 20140316 *
G04 CreationDate: Wed 08 Apr 2015 09:08:40 AM GMT UTC *
G04 For: fosse *
G04 Format: Gerber/RS-274X *
G04 PCB-Dimensions (mil): 2290.00 2790.00 *
G04 PCB-Coordinate-Origin: lower left *
%MOIN*%
%FSLAX25Y25*%
%LNBOTTOMSILK*%
%ADD93C,0.0080*%
%ADD92C,0.0100*%
%ADD91C,0.0060*%
G54D91*X110000Y214500D02*Y218500D01*
X109500Y214500D02*X111500D01*
X112000Y215000D01*
Y216000D01*
X111500Y216500D02*X112000Y216000D01*
X110000Y216500D02*X111500D01*
X113200Y214500D02*Y218000D01*
X113700Y218500D01*
X114700D01*
X115200Y218000D01*
Y214500D02*Y218000D01*
X116400Y214500D02*Y218500D01*
Y214500D02*X117900Y216500D01*
X119400Y214500D01*
Y218500D01*
X121100Y214500D02*Y218500D01*
X120600Y214500D02*X122600D01*
X123100Y215000D01*
Y216000D01*
X122600Y216500D02*X123100Y216000D01*
X121100Y216500D02*X122600D01*
X62500Y245300D02*X64000D01*
X62500Y247500D02*X64500D01*
X62500Y243500D02*Y247500D01*
Y243500D02*X64500D01*
X67200Y245500D02*X67700Y246000D01*
X66200Y245500D02*X67200D01*
X65700Y246000D02*X66200Y245500D01*
X65700Y246000D02*Y247000D01*
X66200Y247500D01*
X67700Y245500D02*Y247000D01*
X68200Y247500D01*
X66200D02*X67200D01*
X67700Y247000D01*
X69900Y243500D02*Y247000D01*
X70400Y247500D01*
X69400Y245000D02*X70400D01*
X71400Y246000D02*Y247000D01*
Y246000D02*X71900Y245500D01*
X72900D01*
X73400Y246000D01*
Y247000D01*
X72900Y247500D02*X73400Y247000D01*
X71900Y247500D02*X72900D01*
X71400Y247000D02*X71900Y247500D01*
X75100Y246000D02*Y247500D01*
Y246000D02*X75600Y245500D01*
X76100D01*
X76600Y246000D01*
Y247500D01*
X74600Y245500D02*X75100Y246000D01*
X80100Y243500D02*Y247500D01*
X79600Y243500D02*X81600D01*
X82100Y244000D01*
Y245000D01*
X81600Y245500D02*X82100Y245000D01*
X80100Y245500D02*X81600D01*
X83800Y247500D02*X85300D01*
X83300Y247000D02*X83800Y247500D01*
X83300Y246000D02*Y247000D01*
Y246000D02*X83800Y245500D01*
X84800D01*
X85300Y246000D01*
X83300Y246500D02*X85300D01*
Y246000D02*Y246500D01*
X88000Y245500D02*X88500Y246000D01*
X87000Y245500D02*X88000D01*
X86500Y246000D02*X87000Y245500D01*
X86500Y246000D02*Y247000D01*
X87000Y247500D01*
X88500Y245500D02*Y247000D01*
X89000Y247500D01*
X87000D02*X88000D01*
X88500Y247000D01*
X90200Y243500D02*Y247500D01*
Y247000D02*X90700Y247500D01*
X91700D01*
X92200Y247000D01*
Y246000D02*Y247000D01*
X91700Y245500D02*X92200Y246000D01*
X90700Y245500D02*X91700D01*
X90200Y246000D02*X90700Y245500D01*
X93400Y246000D02*Y247000D01*
Y246000D02*X93900Y245500D01*
X94900D01*
X95400Y246000D01*
Y247000D01*
X94900Y247500D02*X95400Y247000D01*
X93900Y247500D02*X94900D01*
X93400Y247000D02*X93900Y247500D01*
X98600Y243500D02*Y247500D01*
X98100D02*X98600Y247000D01*
X97100Y247500D02*X98100D01*
X96600Y247000D02*X97100Y247500D01*
X96600Y246000D02*Y247000D01*
Y246000D02*X97100Y245500D01*
X98100D01*
X98600Y246000D01*
X99800Y245500D02*Y247000D01*
X100300Y247500D01*
X101800Y245500D02*Y248500D01*
X101300Y249000D02*X101800Y248500D01*
X100300Y249000D02*X101300D01*
X99800Y248500D02*X100300Y249000D01*
Y247500D02*X101300D01*
X101800Y247000D01*
X104800Y243500D02*Y247500D01*
X106800D01*
X109500Y245500D02*X110000Y246000D01*
X108500Y245500D02*X109500D01*
X108000Y246000D02*X108500Y245500D01*
X108000Y246000D02*Y247000D01*
X108500Y247500D01*
X110000Y245500D02*Y247000D01*
X110500Y247500D01*
X108500D02*X109500D01*
X110000Y247000D01*
X111700Y243500D02*Y247500D01*
Y247000D02*X112200Y247500D01*
X113200D01*
X113700Y247000D01*
Y246000D02*Y247000D01*
X113200Y245500D02*X113700Y246000D01*
X112200Y245500D02*X113200D01*
X111700Y246000D02*X112200Y245500D01*
X62500Y249500D02*X63000Y249000D01*
X64500D01*
X65000Y249500D01*
Y250500D01*
X62500Y253000D02*X65000Y250500D01*
X62500Y253000D02*X65000D01*
X66200Y252500D02*X66700Y253000D01*
X66200Y249500D02*Y252500D01*
Y249500D02*X66700Y249000D01*
X67700D01*
X68200Y249500D01*
Y252500D01*
X67700Y253000D02*X68200Y252500D01*
X66700Y253000D02*X67700D01*
X66200Y252000D02*X68200Y250000D01*
X69400Y249800D02*X70200Y249000D01*
Y253000D01*
X69400D02*X70900D01*
X72100Y249000D02*X74100D01*
X72100D02*Y251000D01*
X72600Y250500D01*
X73600D01*
X74100Y251000D01*
Y252500D01*
X73600Y253000D02*X74100Y252500D01*
X72600Y253000D02*X73600D01*
X72100Y252500D02*X72600Y253000D01*
X75300D02*X75800D01*
X77000Y252500D02*X77500Y253000D01*
X77000Y249500D02*Y252500D01*
Y249500D02*X77500Y249000D01*
X78500D01*
X79000Y249500D01*
Y252500D01*
X78500Y253000D02*X79000Y252500D01*
X77500Y253000D02*X78500D01*
X77000Y252000D02*X79000Y250000D01*
X80200Y251500D02*X82200Y249000D01*
X80200Y251500D02*X82700D01*
X82200Y249000D02*Y253000D01*
X83900D02*X84400D01*
X85600Y252500D02*X86100Y253000D01*
X85600Y249500D02*Y252500D01*
Y249500D02*X86100Y249000D01*
X87100D01*
X87600Y249500D01*
Y252500D01*
X87100Y253000D02*X87600Y252500D01*
X86100Y253000D02*X87100D01*
X85600Y252000D02*X87600Y250000D01*
X89300Y253000D02*X91300Y249000D01*
X88800D02*X91300D01*
X62500Y254500D02*Y258500D01*
Y254500D02*X64000Y256500D01*
X65500Y254500D01*
Y258500D01*
X66700Y255500D02*Y255600D01*
Y257000D02*Y258500D01*
X68200Y256500D02*X69700D01*
X67700Y257000D02*X68200Y256500D01*
X67700Y257000D02*Y258000D01*
X68200Y258500D01*
X69700D01*
X71400Y257000D02*Y258500D01*
Y257000D02*X71900Y256500D01*
X72900D01*
X70900D02*X71400Y257000D01*
X74100D02*Y258000D01*
Y257000D02*X74600Y256500D01*
X75600D01*
X76100Y257000D01*
Y258000D01*
X75600Y258500D02*X76100Y258000D01*
X74600Y258500D02*X75600D01*
X74100Y258000D02*X74600Y258500D01*
X77800Y255000D02*Y258500D01*
Y255000D02*X78300Y254500D01*
X78800D01*
X77300Y256500D02*X78300D01*
X79800Y254500D02*Y258000D01*
X80300Y258500D01*
X81300Y256500D02*Y258000D01*
X81800Y258500D01*
X82800D01*
X83300Y258000D01*
Y256500D02*Y258000D01*
X84500Y255500D02*Y255600D01*
Y257000D02*Y258500D01*
X87500Y254500D02*Y258500D01*
X87000D02*X87500Y258000D01*
X86000Y258500D02*X87000D01*
X85500Y258000D02*X86000Y258500D01*
X85500Y257000D02*Y258000D01*
Y257000D02*X86000Y256500D01*
X87000D01*
X87500Y257000D01*
X88700Y255500D02*Y255600D01*
Y257000D02*Y258500D01*
X90200Y256500D02*X91700D01*
X89700Y257000D02*X90200Y256500D01*
X89700Y257000D02*Y258000D01*
X90200Y258500D01*
X91700D01*
X95200Y254500D02*Y258500D01*
X94700Y254500D02*X96700D01*
X97200Y255000D01*
Y256000D01*
X96700Y256500D02*X97200Y256000D01*
X95200Y256500D02*X96700D01*
X98400D02*Y258000D01*
X98900Y258500D01*
X99900D01*
X100400Y258000D01*
Y256500D02*Y258000D01*
X102100Y257000D02*Y258500D01*
Y257000D02*X102600Y256500D01*
X103100D01*
X103600Y257000D01*
Y258500D01*
Y257000D02*X104100Y256500D01*
X104600D01*
X105100Y257000D01*
Y258500D01*
X101600Y256500D02*X102100Y257000D01*
X106800D02*Y260000D01*
X106300Y256500D02*X106800Y257000D01*
X107300Y256500D01*
X108300D01*
X108800Y257000D01*
Y258000D01*
X108300Y258500D02*X108800Y258000D01*
X107300Y258500D02*X108300D01*
X106800Y258000D02*X107300Y258500D01*
X112300Y254500D02*Y258500D01*
X113600Y254500D02*X114300Y255200D01*
Y257800D01*
X113600Y258500D02*X114300Y257800D01*
X111800Y258500D02*X113600D01*
X111800Y254500D02*X113600D01*
X116000Y257000D02*Y258500D01*
Y257000D02*X116500Y256500D01*
X117500D01*
X115500D02*X116000Y257000D01*
X118700Y255500D02*Y255600D01*
Y257000D02*Y258500D01*
X119700Y256500D02*X120700Y258500D01*
X121700Y256500D02*X120700Y258500D01*
X123400D02*X124900D01*
X122900Y258000D02*X123400Y258500D01*
X122900Y257000D02*Y258000D01*
Y257000D02*X123400Y256500D01*
X124400D01*
X124900Y257000D01*
X122900Y257500D02*X124900D01*
Y257000D02*Y257500D01*
X126600Y257000D02*Y258500D01*
Y257000D02*X127100Y256500D01*
X128100D01*
X126100D02*X126600Y257000D01*
X74000Y133200D02*Y134500D01*
X74700Y132500D02*X74000Y133200D01*
X74700Y132500D02*X77300D01*
X78000Y133200D01*
Y134500D01*
X74000Y135700D02*X78000D01*
X74000Y138200D02*X78000D01*
X76000Y135700D02*Y138200D01*
X78000Y141400D02*X77500Y141900D01*
X78000Y139900D02*Y141400D01*
X77500Y139400D02*X78000Y139900D01*
X74500Y139400D02*X77500D01*
X74500D02*X74000Y139900D01*
Y141400D01*
X74500Y141900D01*
X75500D01*
X76000Y141400D02*X75500Y141900D01*
X76000Y140400D02*Y141400D01*
X78000Y143100D02*Y145100D01*
X77500Y145600D01*
X76500D02*X77500D01*
X76000Y145100D02*X76500Y145600D01*
X76000Y143600D02*Y145100D01*
X74000Y143600D02*X78000D01*
X76000Y144400D02*X74000Y145600D01*
X105500Y123000D02*Y125000D01*
X103500Y126700D02*X107500D01*
Y126200D02*Y128200D01*
X107000Y128700D01*
X106000D02*X107000D01*
X105500Y128200D02*X106000Y128700D01*
X105500Y126700D02*Y128200D01*
Y129900D02*X107500D01*
X105500D02*X103500Y130400D01*
X105500Y131400D01*
X103500Y132400D01*
X105500Y132900D01*
X107500D01*
Y134100D02*Y136100D01*
X107000Y136600D01*
X106000D02*X107000D01*
X105500Y136100D02*X106000Y136600D01*
X105500Y134600D02*Y136100D01*
X103500Y134600D02*X107500D01*
X105500Y135400D02*X103500Y136600D01*
X105500Y137800D02*Y139800D01*
X104500Y138800D02*X106500D01*
G54D92*X95112Y240420D02*Y220735D01*
X137435D01*
X95112Y240420D02*X137435D01*
Y220735D02*Y240420D01*
G54D93*X107990Y167562D02*Y162838D01*
X100510Y167562D02*Y162838D01*
X146885Y152162D02*Y147438D01*
X139405Y152162D02*Y147438D01*
X146400Y170693D02*Y169907D01*
X140890Y170693D02*Y169907D01*
X155483Y129960D02*X160207D01*
X155483Y137440D02*X160207D01*
X146400Y186657D02*Y187443D01*
X140890Y186657D02*Y187443D01*
G54D92*X153845Y215200D02*Y145200D01*
Y215200D02*X193845D01*
Y145200D01*
X153845D02*X168845D01*
X178845D02*X193845D01*
X178845D02*G75*G03X168845Y145200I-5000J0D01*G01*
G54D93*X86990Y136562D02*Y131838D01*
X79510Y136562D02*Y131838D01*
G54D92*X37750Y174200D02*Y214200D01*
X77750D01*
Y174200D01*
X37750D02*X52750D01*
X62750D02*X77750D01*
X62750D02*G75*G03X52750Y174200I-5000J0D01*G01*
G54D93*X68888Y162960D02*X73612D01*
X68888Y170440D02*X73612D01*
X37857Y162945D02*X38643D01*
X37857Y168455D02*X38643D01*
X30505Y179593D02*Y178807D01*
X24995Y179593D02*Y178807D01*
X30505Y208093D02*Y207307D01*
X24995Y208093D02*Y207307D01*
G54D92*X64561Y154869D02*Y107625D01*
X40939Y154869D02*X64561D01*
X40939D02*Y113531D01*
X46451D02*Y107625D01*
X64561D01*
X40939Y113531D02*X64561D01*
G54D91*X109200Y212500D02*X110500D01*
X108500Y211800D02*X109200Y212500D01*
X108500Y209200D02*Y211800D01*
Y209200D02*X109200Y208500D01*
X110500D01*
X111700Y209000D02*Y212000D01*
Y209000D02*X112200Y208500D01*
X113200D01*
X113700Y209000D01*
Y212000D01*
X113200Y212500D02*X113700Y212000D01*
X112200Y212500D02*X113200D01*
X111700Y212000D02*X112200Y212500D01*
X114900Y208500D02*Y212500D01*
Y208500D02*X117400Y212500D01*
Y208500D02*Y212500D01*
X118600Y208500D02*Y212500D01*
Y208500D02*X121100Y212500D01*
Y208500D02*Y212500D01*
X122300Y209300D02*X123100Y208500D01*
Y212500D01*
X122300D02*X123800D01*
X109200Y162950D02*Y164250D01*
X109900Y162250D02*X109200Y162950D01*
X109900Y162250D02*X112500D01*
X113200Y162950D01*
Y164250D01*
X110700Y165450D02*X113200Y167450D01*
X110700Y165450D02*Y167950D01*
X109200Y167450D02*X113200D01*
X155395Y128550D02*X156695D01*
X154695Y127850D02*X155395Y128550D01*
X154695Y125250D02*Y127850D01*
Y125250D02*X155395Y124550D01*
X156695D01*
X157895Y125050D02*X158395Y124550D01*
X159895D01*
X160395Y125050D01*
Y126050D01*
X157895Y128550D02*X160395Y126050D01*
X157895Y128550D02*X160395D01*
X151745Y183950D02*Y185950D01*
X151245Y186450D01*
X150245D02*X151245D01*
X149745Y185950D02*X150245Y186450D01*
X149745Y184450D02*Y185950D01*
X147745Y184450D02*X151745D01*
X149745Y185250D02*X147745Y186450D01*
X151245Y187650D02*X151745Y188150D01*
Y189650D01*
X151245Y190150D01*
X150245D02*X151245D01*
X147745Y187650D02*X150245Y190150D01*
X147745Y187650D02*Y190150D01*
X158845Y139700D02*Y143700D01*
Y139700D02*X160345Y141700D01*
X161845Y139700D01*
Y143700D01*
X163045Y140200D02*Y143200D01*
Y140200D02*X163545Y139700D01*
X164545D01*
X165045Y140200D01*
Y143200D01*
X164545Y143700D02*X165045Y143200D01*
X163545Y143700D02*X164545D01*
X163045Y143200D02*X163545Y143700D01*
X166745Y139700D02*Y143700D01*
X168045Y139700D02*X168745Y140400D01*
Y143000D01*
X168045Y143700D02*X168745Y143000D01*
X166245Y143700D02*X168045D01*
X166245Y139700D02*X168045D01*
X169945Y140500D02*X170745Y139700D01*
Y143700D01*
X169945D02*X171445D01*
X148295Y148350D02*Y149650D01*
X148995Y147650D02*X148295Y148350D01*
X148995Y147650D02*X151595D01*
X152295Y148350D01*
Y149650D01*
X151495Y150850D02*X152295Y151650D01*
X148295D02*X152295D01*
X148295Y150850D02*Y152350D01*
X151795Y167693D02*Y169693D01*
X151295Y170193D01*
X150295D02*X151295D01*
X149795Y169693D02*X150295Y170193D01*
X149795Y168193D02*Y169693D01*
X147795Y168193D02*X151795D01*
X149795Y168993D02*X147795Y170193D01*
X150995Y171393D02*X151795Y172193D01*
X147795D02*X151795D01*
X147795Y171393D02*Y172893D01*
X55250Y168700D02*Y172200D01*
X55750Y172700D01*
X56750D01*
X57250Y172200D01*
Y168700D02*Y172200D01*
X58450Y169500D02*X59250Y168700D01*
Y172700D01*
X58450D02*X59950D01*
X68800Y161550D02*X70100D01*
X68100Y160850D02*X68800Y161550D01*
X68100Y158250D02*Y160850D01*
Y158250D02*X68800Y157550D01*
X70100D01*
X71300Y158050D02*X71800Y157550D01*
X72800D01*
X73300Y158050D01*
X72800Y161550D02*X73300Y161050D01*
X71800Y161550D02*X72800D01*
X71300Y161050D02*X71800Y161550D01*
Y159350D02*X72800D01*
X73300Y158050D02*Y158850D01*
Y159850D02*Y161050D01*
Y159850D02*X72800Y159350D01*
X73300Y158850D02*X72800Y159350D01*
X35900Y175593D02*Y177593D01*
X35400Y178093D01*
X34400D02*X35400D01*
X33900Y177593D02*X34400Y178093D01*
X33900Y176093D02*Y177593D01*
X31900Y176093D02*X35900D01*
X33900Y176893D02*X31900Y178093D01*
X35900Y179293D02*Y181293D01*
X33900Y179293D02*X35900D01*
X33900D02*X34400Y179793D01*
Y180793D01*
X33900Y181293D01*
X32400D02*X33900D01*
X31900Y180793D02*X32400Y181293D01*
X31900Y179793D02*Y180793D01*
X32400Y179293D02*X31900Y179793D01*
X35900Y204007D02*Y206007D01*
X35400Y206507D01*
X34400D02*X35400D01*
X33900Y206007D02*X34400Y206507D01*
X33900Y204507D02*Y206007D01*
X31900Y204507D02*X35900D01*
X33900Y205307D02*X31900Y206507D01*
X33400Y207707D02*X35900Y209707D01*
X33400Y207707D02*Y210207D01*
X31900Y209707D02*X35900D01*
X35600Y158050D02*X37600D01*
X38100Y158550D01*
Y159550D01*
X37600Y160050D02*X38100Y159550D01*
X36100Y160050D02*X37600D01*
X36100Y158050D02*Y162050D01*
X36900Y160050D02*X38100Y162050D01*
X40800Y158050D02*X41300Y158550D01*
X39800Y158050D02*X40800D01*
X39300Y158550D02*X39800Y158050D01*
X39300Y158550D02*Y161550D01*
X39800Y162050D01*
X40800Y159850D02*X41300Y160350D01*
X39300Y159850D02*X40800D01*
X39800Y162050D02*X40800D01*
X41300Y161550D01*
Y160350D02*Y161550D01*
X88400Y132050D02*X92400D01*
Y134050D01*
X90600Y132050D02*Y133550D01*
X91600Y135250D02*X92400Y136050D01*
X88400D02*X92400D01*
X88400Y135250D02*Y136750D01*
X74000Y111700D02*Y113000D01*
X74700Y111000D02*X74000Y111700D01*
X74700Y111000D02*X77300D01*
X78000Y111700D01*
Y113000D01*
X74500Y114200D02*X77500D01*
X78000Y114700D01*
Y115700D01*
X77500Y116200D01*
X74500D02*X77500D01*
X74000Y115700D02*X74500Y116200D01*
X74000Y114700D02*Y115700D01*
X74500Y114200D02*X74000Y114700D01*
Y117400D02*X78000D01*
X74000Y119900D01*
X78000D01*
X74000Y121100D02*X78000D01*
X74000Y123600D01*
X78000D01*
X77500Y124800D02*X78000Y125300D01*
Y126300D01*
X77500Y126800D01*
X74000Y126300D02*X74500Y126800D01*
X74000Y125300D02*Y126300D01*
X74500Y124800D02*X74000Y125300D01*
X76200D02*Y126300D01*
X76700Y126800D02*X77500D01*
X74500D02*X75700D01*
X76200Y126300D01*
X76700Y126800D02*X76200Y126300D01*
M02*
