G04 start of page 12 for group -3984 idx -3984 *
G04 Title: (unknown), fab *
G04 Creator: pcb 20110918 *
G04 CreationDate: Fri May 31 20:11:58 2013 UTC *
G04 For: fosse *
G04 Format: Gerber/RS-274X *
G04 PCB-Dimensions: 210000 160000 *
G04 PCB-Coordinate-Origin: lower left *
%MOIN*%
%FSLAX25Y25*%
%LNFAB*%
%ADD92C,0.0100*%
%ADD91C,0.0075*%
%ADD90C,0.0060*%
%ADD89C,0.0001*%
%ADD88R,0.0080X0.0080*%
G54D88*X12500Y106500D02*Y103300D01*
G54D89*G36*
X11954Y106647D02*X15420Y108646D01*
X15820Y107953D01*
X12353Y105954D01*
X11954Y106647D01*
G37*
G36*
X12647Y105954D02*X9180Y107953D01*
X9580Y108646D01*
X13046Y106647D01*
X12647Y105954D01*
G37*
G54D88*X10900Y106500D02*G75*G03X14100Y106500I1600J0D01*G01*
G75*G03X10900Y106500I-1600J0D01*G01*
X188500Y101000D02*Y97800D01*
G54D89*G36*
X187954Y101147D02*X191420Y103146D01*
X191820Y102453D01*
X188353Y100454D01*
X187954Y101147D01*
G37*
G36*
X188647Y100454D02*X185180Y102453D01*
X185580Y103146D01*
X189046Y101147D01*
X188647Y100454D01*
G37*
G54D88*X186900Y101000D02*G75*G03X190100Y101000I1600J0D01*G01*
G75*G03X186900Y101000I-1600J0D01*G01*
X106500Y96500D02*Y93300D01*
G54D89*G36*
X105954Y96647D02*X109420Y98646D01*
X109820Y97953D01*
X106353Y95954D01*
X105954Y96647D01*
G37*
G36*
X106647Y95954D02*X103180Y97953D01*
X103580Y98646D01*
X107046Y96647D01*
X106647Y95954D01*
G37*
G54D88*X104900Y96500D02*G75*G03X108100Y96500I1600J0D01*G01*
G75*G03X104900Y96500I-1600J0D01*G01*
X126000Y80500D02*Y77300D01*
G54D89*G36*
X125454Y80647D02*X128920Y82646D01*
X129320Y81953D01*
X125853Y79954D01*
X125454Y80647D01*
G37*
G36*
X126147Y79954D02*X122680Y81953D01*
X123080Y82646D01*
X126546Y80647D01*
X126147Y79954D01*
G37*
G54D88*X124400Y80500D02*G75*G03X127600Y80500I1600J0D01*G01*
G75*G03X124400Y80500I-1600J0D01*G01*
X100000Y78000D02*Y74800D01*
G54D89*G36*
X99454Y78147D02*X102920Y80146D01*
X103320Y79453D01*
X99853Y77454D01*
X99454Y78147D01*
G37*
G36*
X100147Y77454D02*X96680Y79453D01*
X97080Y80146D01*
X100546Y78147D01*
X100147Y77454D01*
G37*
G54D88*X98400Y78000D02*G75*G03X101600Y78000I1600J0D01*G01*
G75*G03X98400Y78000I-1600J0D01*G01*
X152500Y107000D02*Y103800D01*
G54D89*G36*
X151954Y107147D02*X155420Y109146D01*
X155820Y108453D01*
X152353Y106454D01*
X151954Y107147D01*
G37*
G36*
X152647Y106454D02*X149180Y108453D01*
X149580Y109146D01*
X153046Y107147D01*
X152647Y106454D01*
G37*
G54D88*X150900Y107000D02*G75*G03X154100Y107000I1600J0D01*G01*
G75*G03X150900Y107000I-1600J0D01*G01*
X15000Y171250D02*Y168050D01*
G54D89*G36*
X14454Y171397D02*X17920Y173396D01*
X18320Y172703D01*
X14853Y170704D01*
X14454Y171397D01*
G37*
G36*
X15147Y170704D02*X11680Y172703D01*
X12080Y173396D01*
X15546Y171397D01*
X15147Y170704D01*
G37*
G54D88*X13400Y171250D02*G75*G03X16600Y171250I1600J0D01*G01*
G75*G03X13400Y171250I-1600J0D01*G01*
G54D90*X135000Y173500D02*X136500Y170500D01*
X138000Y173500D01*
X136500Y170500D02*Y167500D01*
X139800Y170800D02*X142050D01*
X139800Y167500D02*X142800D01*
X139800Y173500D02*Y167500D01*
Y173500D02*X142800D01*
X147600D02*X148350Y172750D01*
X145350Y173500D02*X147600D01*
X144600Y172750D02*X145350Y173500D01*
X144600Y172750D02*Y171250D01*
X145350Y170500D01*
X147600D01*
X148350Y169750D01*
Y168250D01*
X147600Y167500D02*X148350Y168250D01*
X145350Y167500D02*X147600D01*
X144600Y168250D02*X145350Y167500D01*
X100250Y173500D02*X101000Y172750D01*
X98750Y173500D02*X100250D01*
X98000Y172750D02*X98750Y173500D01*
X98000Y172750D02*Y168250D01*
X98750Y167500D01*
X100250Y170800D02*X101000Y170050D01*
X98000Y170800D02*X100250D01*
X98750Y167500D02*X100250D01*
X101000Y168250D01*
Y170050D02*Y168250D01*
X45000D02*X45750Y167500D01*
X45000Y172750D02*Y168250D01*
Y172750D02*X45750Y173500D01*
X47250D01*
X48000Y172750D01*
Y168250D01*
X47250Y167500D02*X48000Y168250D01*
X45750Y167500D02*X47250D01*
X45000Y169000D02*X48000Y172000D01*
X49800Y167500D02*X50550D01*
X52350Y168250D02*X53100Y167500D01*
X52350Y172750D02*Y168250D01*
Y172750D02*X53100Y173500D01*
X54600D01*
X55350Y172750D01*
Y168250D01*
X54600Y167500D02*X55350Y168250D01*
X53100Y167500D02*X54600D01*
X52350Y169000D02*X55350Y172000D01*
X57150Y172750D02*X57900Y173500D01*
X59400D01*
X60150Y172750D01*
X59400Y167500D02*X60150Y168250D01*
X57900Y167500D02*X59400D01*
X57150Y168250D02*X57900Y167500D01*
Y170800D02*X59400D01*
X60150Y172750D02*Y171550D01*
Y170050D02*Y168250D01*
Y170050D02*X59400Y170800D01*
X60150Y171550D02*X59400Y170800D01*
X61950Y173500D02*X64950D01*
X61950D02*Y170500D01*
X62700Y171250D01*
X64200D01*
X64950Y170500D01*
Y168250D01*
X64200Y167500D02*X64950Y168250D01*
X62700Y167500D02*X64200D01*
X61950Y168250D02*X62700Y167500D01*
X118739Y103375D02*X121939D01*
X118739D02*Y100175D01*
X121939D01*
Y103375D02*Y100175D01*
X130539Y103375D02*X133739D01*
X130539D02*Y100175D01*
X133739D01*
Y103375D02*Y100175D01*
X13400Y187850D02*X16600D01*
X13400D02*Y184650D01*
X16600D01*
Y187850D02*Y184650D01*
X135000Y188500D02*X136500Y185500D01*
X138000Y188500D01*
X136500Y185500D02*Y182500D01*
X139800Y185800D02*X142050D01*
X139800Y182500D02*X142800D01*
X139800Y188500D02*Y182500D01*
Y188500D02*X142800D01*
X147600D02*X148350Y187750D01*
X145350Y188500D02*X147600D01*
X144600Y187750D02*X145350Y188500D01*
X144600Y187750D02*Y186250D01*
X145350Y185500D01*
X147600D01*
X148350Y184750D01*
Y183250D01*
X147600Y182500D02*X148350Y183250D01*
X145350Y182500D02*X147600D01*
X144600Y183250D02*X145350Y182500D01*
X98000Y187750D02*X98750Y188500D01*
X101000D01*
X101750Y187750D01*
Y186250D01*
X98000Y182500D02*X101750Y186250D01*
X98000Y182500D02*X101750D01*
X45000Y183250D02*X45750Y182500D01*
X45000Y187750D02*Y183250D01*
Y187750D02*X45750Y188500D01*
X47250D01*
X48000Y187750D01*
Y183250D01*
X47250Y182500D02*X48000Y183250D01*
X45750Y182500D02*X47250D01*
X45000Y184000D02*X48000Y187000D01*
X49800Y182500D02*X50550D01*
X52350Y183250D02*X53100Y182500D01*
X52350Y187750D02*Y183250D01*
Y187750D02*X53100Y188500D01*
X54600D01*
X55350Y187750D01*
Y183250D01*
X54600Y182500D02*X55350Y183250D01*
X53100Y182500D02*X54600D01*
X52350Y184000D02*X55350Y187000D01*
X57150Y187750D02*X57900Y188500D01*
X59400D01*
X60150Y187750D01*
X59400Y182500D02*X60150Y183250D01*
X57900Y182500D02*X59400D01*
X57150Y183250D02*X57900Y182500D01*
Y185800D02*X59400D01*
X60150Y187750D02*Y186550D01*
Y185050D02*Y183250D01*
Y185050D02*X59400Y185800D01*
X60150Y186550D02*X59400Y185800D01*
X61950Y184750D02*X64950Y188500D01*
X61950Y184750D02*X65700D01*
X64950Y188500D02*Y182500D01*
X43357Y38000D02*G75*G03X44957Y38000I800J0D01*G01*
G75*G03X43357Y38000I-800J0D01*G01*
X48279Y30126D02*G75*G03X49879Y30126I800J0D01*G01*
G75*G03X48279Y30126I-800J0D01*G01*
X53200Y38000D02*G75*G03X54800Y38000I800J0D01*G01*
G75*G03X53200Y38000I-800J0D01*G01*
X58121Y30126D02*G75*G03X59721Y30126I800J0D01*G01*
G75*G03X58121Y30126I-800J0D01*G01*
X14200Y201250D02*G75*G03X15800Y201250I800J0D01*G01*
G75*G03X14200Y201250I-800J0D01*G01*
X135000Y203500D02*X136500Y200500D01*
X138000Y203500D01*
X136500Y200500D02*Y197500D01*
X139800Y200800D02*X142050D01*
X139800Y197500D02*X142800D01*
X139800Y203500D02*Y197500D01*
Y203500D02*X142800D01*
X147600D02*X148350Y202750D01*
X145350Y203500D02*X147600D01*
X144600Y202750D02*X145350Y203500D01*
X144600Y202750D02*Y201250D01*
X145350Y200500D01*
X147600D01*
X148350Y199750D01*
Y198250D01*
X147600Y197500D02*X148350Y198250D01*
X145350Y197500D02*X147600D01*
X144600Y198250D02*X145350Y197500D01*
X98000Y199750D02*X101000Y203500D01*
X98000Y199750D02*X101750D01*
X101000Y203500D02*Y197500D01*
X45000Y198250D02*X45750Y197500D01*
X45000Y202750D02*Y198250D01*
Y202750D02*X45750Y203500D01*
X47250D01*
X48000Y202750D01*
Y198250D01*
X47250Y197500D02*X48000Y198250D01*
X45750Y197500D02*X47250D01*
X45000Y199000D02*X48000Y202000D01*
X49800Y197500D02*X50550D01*
X52350Y198250D02*X53100Y197500D01*
X52350Y202750D02*Y198250D01*
Y202750D02*X53100Y203500D01*
X54600D01*
X55350Y202750D01*
Y198250D01*
X54600Y197500D02*X55350Y198250D01*
X53100Y197500D02*X54600D01*
X52350Y199000D02*X55350Y202000D01*
X57150Y202750D02*X57900Y203500D01*
X59400D01*
X60150Y202750D01*
X59400Y197500D02*X60150Y198250D01*
X57900Y197500D02*X59400D01*
X57150Y198250D02*X57900Y197500D01*
Y200800D02*X59400D01*
X60150Y202750D02*Y201550D01*
Y200050D02*Y198250D01*
Y200050D02*X59400Y200800D01*
X60150Y201550D02*X59400Y200800D01*
X61950Y202750D02*X62700Y203500D01*
X64950D01*
X65700Y202750D01*
Y201250D01*
X61950Y197500D02*X65700Y201250D01*
X61950Y197500D02*X65700D01*
X94800Y29290D02*X97200Y26890D01*
X94800D02*X97200Y29290D01*
X144800D02*X147200Y26890D01*
X144800D02*X147200Y29290D01*
X13800Y217450D02*X16200Y215050D01*
X13800D02*X16200Y217450D01*
X135000Y218500D02*X136500Y215500D01*
X138000Y218500D01*
X136500Y215500D02*Y212500D01*
X139800Y215800D02*X142050D01*
X139800Y212500D02*X142800D01*
X139800Y218500D02*Y212500D01*
Y218500D02*X142800D01*
X147600D02*X148350Y217750D01*
X145350Y218500D02*X147600D01*
X144600Y217750D02*X145350Y218500D01*
X144600Y217750D02*Y216250D01*
X145350Y215500D01*
X147600D01*
X148350Y214750D01*
Y213250D01*
X147600Y212500D02*X148350Y213250D01*
X145350Y212500D02*X147600D01*
X144600Y213250D02*X145350Y212500D01*
X98000Y217750D02*X98750Y218500D01*
X101000D01*
X101750Y217750D01*
Y216250D01*
X98000Y212500D02*X101750Y216250D01*
X98000Y212500D02*X101750D01*
X45000Y213250D02*X45750Y212500D01*
X45000Y217750D02*Y213250D01*
Y217750D02*X45750Y218500D01*
X47250D01*
X48000Y217750D01*
Y213250D01*
X47250Y212500D02*X48000Y213250D01*
X45750Y212500D02*X47250D01*
X45000Y214000D02*X48000Y217000D01*
X49800Y212500D02*X50550D01*
X52350Y213250D02*X53100Y212500D01*
X52350Y217750D02*Y213250D01*
Y217750D02*X53100Y218500D01*
X54600D01*
X55350Y217750D01*
Y213250D01*
X54600Y212500D02*X55350Y213250D01*
X53100Y212500D02*X54600D01*
X52350Y214000D02*X55350Y217000D01*
X57150Y217750D02*X57900Y218500D01*
X59400D01*
X60150Y217750D01*
X59400Y212500D02*X60150Y213250D01*
X57900Y212500D02*X59400D01*
X57150Y213250D02*X57900Y212500D01*
Y215800D02*X59400D01*
X60150Y217750D02*Y216550D01*
Y215050D02*Y213250D01*
Y215050D02*X59400Y215800D01*
X60150Y216550D02*X59400Y215800D01*
X61950Y213250D02*X62700Y212500D01*
X61950Y217750D02*Y213250D01*
Y217750D02*X62700Y218500D01*
X64200D01*
X64950Y217750D01*
Y213250D01*
X64200Y212500D02*X64950Y213250D01*
X62700Y212500D02*X64200D01*
X61950Y214000D02*X64950Y217000D01*
X158500Y85100D02*Y81900D01*
X156900Y83500D02*X160100D01*
X158500Y75100D02*Y71900D01*
X156900Y73500D02*X160100D01*
X158500Y65100D02*Y61900D01*
X156900Y63500D02*X160100D01*
X158500Y55100D02*Y51900D01*
X156900Y53500D02*X160100D01*
X188500Y55100D02*Y51900D01*
X186900Y53500D02*X190100D01*
X188500Y65100D02*Y61900D01*
X186900Y63500D02*X190100D01*
X188500Y75100D02*Y71900D01*
X186900Y73500D02*X190100D01*
X188500Y85100D02*Y81900D01*
X186900Y83500D02*X190100D01*
X37000Y128100D02*Y124900D01*
X35400Y126500D02*X38600D01*
X37000Y118100D02*Y114900D01*
X35400Y116500D02*X38600D01*
X37000Y108100D02*Y104900D01*
X35400Y106500D02*X38600D01*
X37000Y98100D02*Y94900D01*
X35400Y96500D02*X38600D01*
X37000Y88100D02*Y84900D01*
X35400Y86500D02*X38600D01*
X37000Y78100D02*Y74900D01*
X35400Y76500D02*X38600D01*
X37000Y68100D02*Y64900D01*
X35400Y66500D02*X38600D01*
X67000Y68100D02*Y64900D01*
X65400Y66500D02*X68600D01*
X67000Y78100D02*Y74900D01*
X65400Y76500D02*X68600D01*
X67000Y88100D02*Y84900D01*
X65400Y86500D02*X68600D01*
X67000Y98100D02*Y94900D01*
X65400Y96500D02*X68600D01*
X67000Y108100D02*Y104900D01*
X65400Y106500D02*X68600D01*
X67000Y118100D02*Y114900D01*
X65400Y116500D02*X68600D01*
X67000Y128100D02*Y124900D01*
X65400Y126500D02*X68600D01*
X15000Y232850D02*Y229650D01*
X13400Y231250D02*X16600D01*
X135000Y233500D02*X136500Y230500D01*
X138000Y233500D01*
X136500Y230500D02*Y227500D01*
X139800Y230800D02*X142050D01*
X139800Y227500D02*X142800D01*
X139800Y233500D02*Y227500D01*
Y233500D02*X142800D01*
X147600D02*X148350Y232750D01*
X145350Y233500D02*X147600D01*
X144600Y232750D02*X145350Y233500D01*
X144600Y232750D02*Y231250D01*
X145350Y230500D01*
X147600D01*
X148350Y229750D01*
Y228250D01*
X147600Y227500D02*X148350Y228250D01*
X145350Y227500D02*X147600D01*
X144600Y228250D02*X145350Y227500D01*
X98000Y232750D02*X98750Y233500D01*
X101000D01*
X101750Y232750D01*
Y231250D01*
X98000Y227500D02*X101750Y231250D01*
X98000Y227500D02*X101750D01*
X103550Y232750D02*X104300Y233500D01*
X106550D01*
X107300Y232750D01*
Y231250D01*
X103550Y227500D02*X107300Y231250D01*
X103550Y227500D02*X107300D01*
X45000Y228250D02*X45750Y227500D01*
X45000Y232750D02*Y228250D01*
Y232750D02*X45750Y233500D01*
X47250D01*
X48000Y232750D01*
Y228250D01*
X47250Y227500D02*X48000Y228250D01*
X45750Y227500D02*X47250D01*
X45000Y229000D02*X48000Y232000D01*
X49800Y227500D02*X50550D01*
X52350Y228250D02*X53100Y227500D01*
X52350Y232750D02*Y228250D01*
Y232750D02*X53100Y233500D01*
X54600D01*
X55350Y232750D01*
Y228250D01*
X54600Y227500D02*X55350Y228250D01*
X53100Y227500D02*X54600D01*
X52350Y229000D02*X55350Y232000D01*
X57150Y232750D02*X57900Y233500D01*
X60150D01*
X60900Y232750D01*
Y231250D01*
X57150Y227500D02*X60900Y231250D01*
X57150Y227500D02*X60900D01*
X62700Y228250D02*X63450Y227500D01*
X62700Y229450D02*Y228250D01*
Y229450D02*X63750Y230500D01*
X64650D01*
X65700Y229450D01*
Y228250D01*
X64950Y227500D02*X65700Y228250D01*
X63450Y227500D02*X64950D01*
X62700Y231550D02*X63750Y230500D01*
X62700Y232750D02*Y231550D01*
Y232750D02*X63450Y233500D01*
X64950D01*
X65700Y232750D01*
Y231550D01*
X64650Y230500D02*X65700Y231550D01*
X59000Y141000D02*Y139400D01*
Y141000D02*X60387Y141800D01*
X59000Y141000D02*X57613Y141800D01*
X77000Y138500D02*Y136900D01*
Y138500D02*X78387Y139300D01*
X77000Y138500D02*X75613Y139300D01*
X108000Y109000D02*Y107400D01*
Y109000D02*X109387Y109800D01*
X108000Y109000D02*X106613Y109800D01*
X155500Y118500D02*Y116900D01*
Y118500D02*X156887Y119300D01*
X155500Y118500D02*X154113Y119300D01*
X156000Y129500D02*Y127900D01*
Y129500D02*X157387Y130300D01*
X156000Y129500D02*X154613Y130300D01*
X167500Y110500D02*Y108900D01*
Y110500D02*X168887Y111300D01*
X167500Y110500D02*X166113Y111300D01*
X172500Y108500D02*Y106900D01*
Y108500D02*X173887Y109300D01*
X172500Y108500D02*X171113Y109300D01*
X140500Y98000D02*Y96400D01*
Y98000D02*X141887Y98800D01*
X140500Y98000D02*X139113Y98800D01*
X15000Y246250D02*Y244650D01*
Y246250D02*X16387Y247050D01*
X15000Y246250D02*X13613Y247050D01*
X135000Y248500D02*X136500Y245500D01*
X138000Y248500D01*
X136500Y245500D02*Y242500D01*
X139800Y245800D02*X142050D01*
X139800Y242500D02*X142800D01*
X139800Y248500D02*Y242500D01*
Y248500D02*X142800D01*
X147600D02*X148350Y247750D01*
X145350Y248500D02*X147600D01*
X144600Y247750D02*X145350Y248500D01*
X144600Y247750D02*Y246250D01*
X145350Y245500D01*
X147600D01*
X148350Y244750D01*
Y243250D01*
X147600Y242500D02*X148350Y243250D01*
X145350Y242500D02*X147600D01*
X144600Y243250D02*X145350Y242500D01*
X98000Y243250D02*X98750Y242500D01*
X98000Y244450D02*Y243250D01*
Y244450D02*X99050Y245500D01*
X99950D01*
X101000Y244450D01*
Y243250D01*
X100250Y242500D02*X101000Y243250D01*
X98750Y242500D02*X100250D01*
X98000Y246550D02*X99050Y245500D01*
X98000Y247750D02*Y246550D01*
Y247750D02*X98750Y248500D01*
X100250D01*
X101000Y247750D01*
Y246550D01*
X99950Y245500D02*X101000Y246550D01*
X45000Y243250D02*X45750Y242500D01*
X45000Y247750D02*Y243250D01*
Y247750D02*X45750Y248500D01*
X47250D01*
X48000Y247750D01*
Y243250D01*
X47250Y242500D02*X48000Y243250D01*
X45750Y242500D02*X47250D01*
X45000Y244000D02*X48000Y247000D01*
X49800Y242500D02*X50550D01*
X52350Y243250D02*X53100Y242500D01*
X52350Y247750D02*Y243250D01*
Y247750D02*X53100Y248500D01*
X54600D01*
X55350Y247750D01*
Y243250D01*
X54600Y242500D02*X55350Y243250D01*
X53100Y242500D02*X54600D01*
X52350Y244000D02*X55350Y247000D01*
X57150Y247750D02*X57900Y248500D01*
X60150D01*
X60900Y247750D01*
Y246250D01*
X57150Y242500D02*X60900Y246250D01*
X57150Y242500D02*X60900D01*
X62700Y243250D02*X63450Y242500D01*
X62700Y247750D02*Y243250D01*
Y247750D02*X63450Y248500D01*
X64950D01*
X65700Y247750D01*
Y243250D01*
X64950Y242500D02*X65700Y243250D01*
X63450Y242500D02*X64950D01*
X62700Y244000D02*X65700Y247000D01*
X3000Y263500D02*X3750Y262750D01*
X750Y263500D02*X3000D01*
X0Y262750D02*X750Y263500D01*
X0Y262750D02*Y261250D01*
X750Y260500D01*
X3000D01*
X3750Y259750D01*
Y258250D01*
X3000Y257500D02*X3750Y258250D01*
X750Y257500D02*X3000D01*
X0Y258250D02*X750Y257500D01*
X5550Y260500D02*Y258250D01*
X6300Y257500D01*
X8550Y260500D02*Y256000D01*
X7800Y255250D02*X8550Y256000D01*
X6300Y255250D02*X7800D01*
X5550Y256000D02*X6300Y255250D01*
Y257500D02*X7800D01*
X8550Y258250D01*
X11100Y259750D02*Y257500D01*
Y259750D02*X11850Y260500D01*
X12600D01*
X13350Y259750D01*
Y257500D01*
Y259750D02*X14100Y260500D01*
X14850D01*
X15600Y259750D01*
Y257500D01*
X10350Y260500D02*X11100Y259750D01*
X17400Y263500D02*Y257500D01*
Y258250D02*X18150Y257500D01*
X19650D01*
X20400Y258250D01*
Y259750D02*Y258250D01*
X19650Y260500D02*X20400Y259750D01*
X18150Y260500D02*X19650D01*
X17400Y259750D02*X18150Y260500D01*
X22200Y259750D02*Y258250D01*
Y259750D02*X22950Y260500D01*
X24450D01*
X25200Y259750D01*
Y258250D01*
X24450Y257500D02*X25200Y258250D01*
X22950Y257500D02*X24450D01*
X22200Y258250D02*X22950Y257500D01*
X27000Y263500D02*Y258250D01*
X27750Y257500D01*
X0Y254250D02*X29250D01*
X41750Y263500D02*Y257500D01*
X43700Y263500D02*X44750Y262450D01*
Y258550D01*
X43700Y257500D02*X44750Y258550D01*
X41000Y257500D02*X43700D01*
X41000Y263500D02*X43700D01*
G54D91*X46550Y262000D02*Y261850D01*
G54D90*Y259750D02*Y257500D01*
X50300Y260500D02*X51050Y259750D01*
X48800Y260500D02*X50300D01*
X48050Y259750D02*X48800Y260500D01*
X48050Y259750D02*Y258250D01*
X48800Y257500D01*
X51050Y260500D02*Y258250D01*
X51800Y257500D01*
X48800D02*X50300D01*
X51050Y258250D01*
X54350Y259750D02*Y257500D01*
Y259750D02*X55100Y260500D01*
X55850D01*
X56600Y259750D01*
Y257500D01*
Y259750D02*X57350Y260500D01*
X58100D01*
X58850Y259750D01*
Y257500D01*
X53600Y260500D02*X54350Y259750D01*
X60650Y257500D02*X61400D01*
X65900Y258250D02*X66650Y257500D01*
X65900Y262750D02*X66650Y263500D01*
X65900Y262750D02*Y258250D01*
X68450Y263500D02*X69950D01*
X69200D02*Y257500D01*
X68450D02*X69950D01*
X72500Y259750D02*Y257500D01*
Y259750D02*X73250Y260500D01*
X74000D01*
X74750Y259750D01*
Y257500D01*
X71750Y260500D02*X72500Y259750D01*
X77300Y260500D02*X79550D01*
X76550Y259750D02*X77300Y260500D01*
X76550Y259750D02*Y258250D01*
X77300Y257500D01*
X79550D01*
X81350Y263500D02*Y257500D01*
Y259750D02*X82100Y260500D01*
X83600D01*
X84350Y259750D01*
Y257500D01*
X86150Y263500D02*X86900Y262750D01*
Y258250D01*
X86150Y257500D02*X86900Y258250D01*
X41000Y254250D02*X88700D01*
X96050Y257500D02*X98000D01*
X95000Y258550D02*X96050Y257500D01*
X95000Y262450D02*Y258550D01*
Y262450D02*X96050Y263500D01*
X98000D01*
X99800Y259750D02*Y258250D01*
Y259750D02*X100550Y260500D01*
X102050D01*
X102800Y259750D01*
Y258250D01*
X102050Y257500D02*X102800Y258250D01*
X100550Y257500D02*X102050D01*
X99800Y258250D02*X100550Y257500D01*
X104600Y260500D02*Y258250D01*
X105350Y257500D01*
X106850D01*
X107600Y258250D01*
Y260500D02*Y258250D01*
X110150Y259750D02*Y257500D01*
Y259750D02*X110900Y260500D01*
X111650D01*
X112400Y259750D01*
Y257500D01*
X109400Y260500D02*X110150Y259750D01*
X114950Y263500D02*Y258250D01*
X115700Y257500D01*
X114200Y261250D02*X115700D01*
X95000Y254250D02*X117200D01*
X130750Y263500D02*Y257500D01*
X130000Y263500D02*X133000D01*
X133750Y262750D01*
Y261250D01*
X133000Y260500D02*X133750Y261250D01*
X130750Y260500D02*X133000D01*
X135550Y263500D02*Y258250D01*
X136300Y257500D01*
X140050Y260500D02*X140800Y259750D01*
X138550Y260500D02*X140050D01*
X137800Y259750D02*X138550Y260500D01*
X137800Y259750D02*Y258250D01*
X138550Y257500D01*
X140800Y260500D02*Y258250D01*
X141550Y257500D01*
X138550D02*X140050D01*
X140800Y258250D01*
X144100Y263500D02*Y258250D01*
X144850Y257500D01*
X143350Y261250D02*X144850D01*
X147100Y257500D02*X149350D01*
X146350Y258250D02*X147100Y257500D01*
X146350Y259750D02*Y258250D01*
Y259750D02*X147100Y260500D01*
X148600D01*
X149350Y259750D01*
X146350Y259000D02*X149350D01*
Y259750D02*Y259000D01*
X154150Y263500D02*Y257500D01*
X153400D02*X154150Y258250D01*
X151900Y257500D02*X153400D01*
X151150Y258250D02*X151900Y257500D01*
X151150Y259750D02*Y258250D01*
Y259750D02*X151900Y260500D01*
X153400D01*
X154150Y259750D01*
X157450Y260500D02*Y259750D01*
Y258250D02*Y257500D01*
X155950Y262750D02*Y262000D01*
Y262750D02*X156700Y263500D01*
X158200D01*
X158950Y262750D01*
Y262000D01*
X157450Y260500D02*X158950Y262000D01*
X130000Y254250D02*X160750D01*
X0Y278500D02*X3000D01*
X1500D02*Y272500D01*
X4800Y278500D02*Y272500D01*
Y274750D02*X5550Y275500D01*
X7050D01*
X7800Y274750D01*
Y272500D01*
X10350D02*X12600D01*
X9600Y273250D02*X10350Y272500D01*
X9600Y274750D02*Y273250D01*
Y274750D02*X10350Y275500D01*
X11850D01*
X12600Y274750D01*
X9600Y274000D02*X12600D01*
Y274750D02*Y274000D01*
X15150Y274750D02*Y272500D01*
Y274750D02*X15900Y275500D01*
X17400D01*
X14400D02*X15150Y274750D01*
X19950Y272500D02*X22200D01*
X19200Y273250D02*X19950Y272500D01*
X19200Y274750D02*Y273250D01*
Y274750D02*X19950Y275500D01*
X21450D01*
X22200Y274750D01*
X19200Y274000D02*X22200D01*
Y274750D02*Y274000D01*
X28950Y275500D02*X29700Y274750D01*
X27450Y275500D02*X28950D01*
X26700Y274750D02*X27450Y275500D01*
X26700Y274750D02*Y273250D01*
X27450Y272500D01*
X29700Y275500D02*Y273250D01*
X30450Y272500D01*
X27450D02*X28950D01*
X29700Y273250D01*
X33000Y274750D02*Y272500D01*
Y274750D02*X33750Y275500D01*
X35250D01*
X32250D02*X33000Y274750D01*
X37800Y272500D02*X40050D01*
X37050Y273250D02*X37800Y272500D01*
X37050Y274750D02*Y273250D01*
Y274750D02*X37800Y275500D01*
X39300D01*
X40050Y274750D01*
X37050Y274000D02*X40050D01*
Y274750D02*Y274000D01*
X46800Y278500D02*X47550Y277750D01*
X45300Y278500D02*X46800D01*
X44550Y277750D02*X45300Y278500D01*
X44550Y277750D02*Y273250D01*
X45300Y272500D01*
X46800Y275800D02*X47550Y275050D01*
X44550Y275800D02*X46800D01*
X45300Y272500D02*X46800D01*
X47550Y273250D01*
Y275050D02*Y273250D01*
X55050Y278500D02*Y272500D01*
X54300D02*X55050Y273250D01*
X52800Y272500D02*X54300D01*
X52050Y273250D02*X52800Y272500D01*
X52050Y274750D02*Y273250D01*
Y274750D02*X52800Y275500D01*
X54300D01*
X55050Y274750D01*
G54D91*X56850Y277000D02*Y276850D01*
G54D90*Y274750D02*Y272500D01*
X59100Y277750D02*Y272500D01*
Y277750D02*X59850Y278500D01*
X60600D01*
X58350Y275500D02*X59850D01*
X62850Y277750D02*Y272500D01*
Y277750D02*X63600Y278500D01*
X64350D01*
X62100Y275500D02*X63600D01*
X66600Y272500D02*X68850D01*
X65850Y273250D02*X66600Y272500D01*
X65850Y274750D02*Y273250D01*
Y274750D02*X66600Y275500D01*
X68100D01*
X68850Y274750D01*
X65850Y274000D02*X68850D01*
Y274750D02*Y274000D01*
X71400Y274750D02*Y272500D01*
Y274750D02*X72150Y275500D01*
X73650D01*
X70650D02*X71400Y274750D01*
X76200Y272500D02*X78450D01*
X75450Y273250D02*X76200Y272500D01*
X75450Y274750D02*Y273250D01*
Y274750D02*X76200Y275500D01*
X77700D01*
X78450Y274750D01*
X75450Y274000D02*X78450D01*
Y274750D02*Y274000D01*
X81000Y274750D02*Y272500D01*
Y274750D02*X81750Y275500D01*
X82500D01*
X83250Y274750D01*
Y272500D01*
X80250Y275500D02*X81000Y274750D01*
X85800Y278500D02*Y273250D01*
X86550Y272500D01*
X85050Y276250D02*X86550D01*
X93750Y278500D02*Y272500D01*
X93000D02*X93750Y273250D01*
X91500Y272500D02*X93000D01*
X90750Y273250D02*X91500Y272500D01*
X90750Y274750D02*Y273250D01*
Y274750D02*X91500Y275500D01*
X93000D01*
X93750Y274750D01*
X96300D02*Y272500D01*
Y274750D02*X97050Y275500D01*
X98550D01*
X95550D02*X96300Y274750D01*
G54D91*X100350Y277000D02*Y276850D01*
G54D90*Y274750D02*Y272500D01*
X101850Y278500D02*Y273250D01*
X102600Y272500D01*
X104100Y278500D02*Y273250D01*
X104850Y272500D01*
X109800D02*X112050D01*
X112800Y273250D01*
X112050Y274000D02*X112800Y273250D01*
X109800Y274000D02*X112050D01*
X109050Y274750D02*X109800Y274000D01*
X109050Y274750D02*X109800Y275500D01*
X112050D01*
X112800Y274750D01*
X109050Y273250D02*X109800Y272500D01*
G54D91*X114600Y277000D02*Y276850D01*
G54D90*Y274750D02*Y272500D01*
X116100Y275500D02*X119100D01*
X116100Y272500D02*X119100Y275500D01*
X116100Y272500D02*X119100D01*
X121650D02*X123900D01*
X120900Y273250D02*X121650Y272500D01*
X120900Y274750D02*Y273250D01*
Y274750D02*X121650Y275500D01*
X123150D01*
X123900Y274750D01*
X120900Y274000D02*X123900D01*
Y274750D02*Y274000D01*
X126450Y272500D02*X128700D01*
X129450Y273250D01*
X128700Y274000D02*X129450Y273250D01*
X126450Y274000D02*X128700D01*
X125700Y274750D02*X126450Y274000D01*
X125700Y274750D02*X126450Y275500D01*
X128700D01*
X129450Y274750D01*
X125700Y273250D02*X126450Y272500D01*
X133950Y275500D02*Y273250D01*
X134700Y272500D01*
X136200D01*
X136950Y273250D01*
Y275500D02*Y273250D01*
X139500Y272500D02*X141750D01*
X142500Y273250D01*
X141750Y274000D02*X142500Y273250D01*
X139500Y274000D02*X141750D01*
X138750Y274750D02*X139500Y274000D01*
X138750Y274750D02*X139500Y275500D01*
X141750D01*
X142500Y274750D01*
X138750Y273250D02*X139500Y272500D01*
X145050D02*X147300D01*
X144300Y273250D02*X145050Y272500D01*
X144300Y274750D02*Y273250D01*
Y274750D02*X145050Y275500D01*
X146550D01*
X147300Y274750D01*
X144300Y274000D02*X147300D01*
Y274750D02*Y274000D01*
X152100Y278500D02*Y272500D01*
X151350D02*X152100Y273250D01*
X149850Y272500D02*X151350D01*
X149100Y273250D02*X149850Y272500D01*
X149100Y274750D02*Y273250D01*
Y274750D02*X149850Y275500D01*
X151350D01*
X152100Y274750D01*
G54D91*X156600Y277000D02*Y276850D01*
G54D90*Y274750D02*Y272500D01*
X158850Y274750D02*Y272500D01*
Y274750D02*X159600Y275500D01*
X160350D01*
X161100Y274750D01*
Y272500D01*
X158100Y275500D02*X158850Y274750D01*
X166350Y278500D02*Y273250D01*
X167100Y272500D01*
X165600Y276250D02*X167100D01*
X168600Y278500D02*Y272500D01*
Y274750D02*X169350Y275500D01*
X170850D01*
X171600Y274750D01*
Y272500D01*
G54D91*X173400Y277000D02*Y276850D01*
G54D90*Y274750D02*Y272500D01*
X175650D02*X177900D01*
X178650Y273250D01*
X177900Y274000D02*X178650Y273250D01*
X175650Y274000D02*X177900D01*
X174900Y274750D02*X175650Y274000D01*
X174900Y274750D02*X175650Y275500D01*
X177900D01*
X178650Y274750D01*
X174900Y273250D02*X175650Y272500D01*
X183150Y278500D02*Y273250D01*
X183900Y272500D01*
X187650Y275500D02*X188400Y274750D01*
X186150Y275500D02*X187650D01*
X185400Y274750D02*X186150Y275500D01*
X185400Y274750D02*Y273250D01*
X186150Y272500D01*
X188400Y275500D02*Y273250D01*
X189150Y272500D01*
X186150D02*X187650D01*
X188400Y273250D01*
X190950Y275500D02*Y273250D01*
X191700Y272500D01*
X193950Y275500D02*Y271000D01*
X193200Y270250D02*X193950Y271000D01*
X191700Y270250D02*X193200D01*
X190950Y271000D02*X191700Y270250D01*
Y272500D02*X193200D01*
X193950Y273250D01*
X195750Y274750D02*Y273250D01*
Y274750D02*X196500Y275500D01*
X198000D01*
X198750Y274750D01*
Y273250D01*
X198000Y272500D02*X198750Y273250D01*
X196500Y272500D02*X198000D01*
X195750Y273250D02*X196500Y272500D01*
X200550Y275500D02*Y273250D01*
X201300Y272500D01*
X202800D01*
X203550Y273250D01*
Y275500D02*Y273250D01*
X206100Y278500D02*Y273250D01*
X206850Y272500D01*
X205350Y276250D02*X206850D01*
X208350Y271000D02*X209850Y272500D01*
X214350Y274750D02*X217350Y278500D01*
X214350Y274750D02*X218100D01*
X217350Y278500D02*Y272500D01*
X219900Y274750D02*X222900Y278500D01*
X219900Y274750D02*X223650D01*
X222900Y278500D02*Y272500D01*
X228150Y278500D02*Y272500D01*
Y274750D02*X228900Y275500D01*
X230400D01*
X231150Y274750D01*
Y272500D01*
X232950Y274750D02*Y273250D01*
Y274750D02*X233700Y275500D01*
X235200D01*
X235950Y274750D01*
Y273250D01*
X235200Y272500D02*X235950Y273250D01*
X233700Y272500D02*X235200D01*
X232950Y273250D02*X233700Y272500D01*
X237750Y278500D02*Y273250D01*
X238500Y272500D01*
X240750D02*X243000D01*
X240000Y273250D02*X240750Y272500D01*
X240000Y274750D02*Y273250D01*
Y274750D02*X240750Y275500D01*
X242250D01*
X243000Y274750D01*
X240000Y274000D02*X243000D01*
Y274750D02*Y274000D01*
X245550Y272500D02*X247800D01*
X248550Y273250D01*
X247800Y274000D02*X248550Y273250D01*
X245550Y274000D02*X247800D01*
X244800Y274750D02*X245550Y274000D01*
X244800Y274750D02*X245550Y275500D01*
X247800D01*
X248550Y274750D01*
X244800Y273250D02*X245550Y272500D01*
X253800Y278500D02*Y273250D01*
X254550Y272500D01*
X253050Y276250D02*X254550D01*
X256050Y274750D02*Y273250D01*
Y274750D02*X256800Y275500D01*
X258300D01*
X259050Y274750D01*
Y273250D01*
X258300Y272500D02*X259050Y273250D01*
X256800Y272500D02*X258300D01*
X256050Y273250D02*X256800Y272500D01*
X261600Y278500D02*Y273250D01*
X262350Y272500D01*
X260850Y276250D02*X262350D01*
X266100Y275500D02*X266850Y274750D01*
X264600Y275500D02*X266100D01*
X263850Y274750D02*X264600Y275500D01*
X263850Y274750D02*Y273250D01*
X264600Y272500D01*
X266850Y275500D02*Y273250D01*
X267600Y272500D01*
X264600D02*X266100D01*
X266850Y273250D01*
X269400Y278500D02*Y273250D01*
X270150Y272500D01*
G54D92*X2000Y151500D02*Y28500D01*
X19500Y11000D02*X195500D01*
X202000Y140000D02*Y17500D01*
X8500Y157500D02*X184500D01*
G75*G03X202000Y140000I17500J0D01*G01*
X19500Y11000D02*G75*G03X2000Y28500I-17500J0D01*G01*
X8500Y157500D02*G75*G03X2000Y151000I0J-6500D01*G01*
X202000Y17500D02*G75*G02X195500Y11000I-6500J0D01*G01*
G54D90*X18675Y-9500D02*X21675D01*
X22425Y-8750D01*
Y-6950D02*Y-8750D01*
X21675Y-6200D02*X22425Y-6950D01*
X19425Y-6200D02*X21675D01*
X19425Y-3500D02*Y-9500D01*
X18675Y-3500D02*X21675D01*
X22425Y-4250D01*
Y-5450D01*
X21675Y-6200D02*X22425Y-5450D01*
X24225Y-7250D02*Y-8750D01*
Y-7250D02*X24975Y-6500D01*
X26475D01*
X27225Y-7250D01*
Y-8750D01*
X26475Y-9500D02*X27225Y-8750D01*
X24975Y-9500D02*X26475D01*
X24225Y-8750D02*X24975Y-9500D01*
X31275Y-6500D02*X32025Y-7250D01*
X29775Y-6500D02*X31275D01*
X29025Y-7250D02*X29775Y-6500D01*
X29025Y-7250D02*Y-8750D01*
X29775Y-9500D01*
X32025Y-6500D02*Y-8750D01*
X32775Y-9500D01*
X29775D02*X31275D01*
X32025Y-8750D01*
X35325Y-7250D02*Y-9500D01*
Y-7250D02*X36075Y-6500D01*
X37575D01*
X34575D02*X35325Y-7250D01*
X42375Y-3500D02*Y-9500D01*
X41625D02*X42375Y-8750D01*
X40125Y-9500D02*X41625D01*
X39375Y-8750D02*X40125Y-9500D01*
X39375Y-7250D02*Y-8750D01*
Y-7250D02*X40125Y-6500D01*
X41625D01*
X42375Y-7250D01*
X46875D02*Y-8750D01*
Y-7250D02*X47625Y-6500D01*
X49125D01*
X49875Y-7250D01*
Y-8750D01*
X49125Y-9500D02*X49875Y-8750D01*
X47625Y-9500D02*X49125D01*
X46875Y-8750D02*X47625Y-9500D01*
X51675Y-6500D02*Y-8750D01*
X52425Y-9500D01*
X53925D01*
X54675Y-8750D01*
Y-6500D02*Y-8750D01*
X57225Y-3500D02*Y-8750D01*
X57975Y-9500D01*
X56475Y-5750D02*X57975D01*
X59475Y-3500D02*Y-8750D01*
X60225Y-9500D01*
G54D91*X61725Y-5000D02*Y-5150D01*
G54D90*Y-7250D02*Y-9500D01*
X63975Y-7250D02*Y-9500D01*
Y-7250D02*X64725Y-6500D01*
X65475D01*
X66225Y-7250D01*
Y-9500D01*
X63225Y-6500D02*X63975Y-7250D01*
X68775Y-9500D02*X71025D01*
X68025Y-8750D02*X68775Y-9500D01*
X68025Y-7250D02*Y-8750D01*
Y-7250D02*X68775Y-6500D01*
X70275D01*
X71025Y-7250D01*
X68025Y-8000D02*X71025D01*
Y-7250D02*Y-8000D01*
G54D91*X75525Y-5000D02*Y-5150D01*
G54D90*Y-7250D02*Y-9500D01*
X77775D02*X80025D01*
X80775Y-8750D01*
X80025Y-8000D02*X80775Y-8750D01*
X77775Y-8000D02*X80025D01*
X77025Y-7250D02*X77775Y-8000D01*
X77025Y-7250D02*X77775Y-6500D01*
X80025D01*
X80775Y-7250D01*
X77025Y-8750D02*X77775Y-9500D01*
X86025Y-3500D02*Y-8750D01*
X86775Y-9500D01*
X85275Y-5750D02*X86775D01*
X88275Y-3500D02*Y-9500D01*
Y-7250D02*X89025Y-6500D01*
X90525D01*
X91275Y-7250D01*
Y-9500D01*
X93825D02*X96075D01*
X93075Y-8750D02*X93825Y-9500D01*
X93075Y-7250D02*Y-8750D01*
Y-7250D02*X93825Y-6500D01*
X95325D01*
X96075Y-7250D01*
X93075Y-8000D02*X96075D01*
Y-7250D02*Y-8000D01*
X101325Y-6500D02*X103575D01*
X100575Y-7250D02*X101325Y-6500D01*
X100575Y-7250D02*Y-8750D01*
X101325Y-9500D01*
X103575D01*
X106125D02*X108375D01*
X105375Y-8750D02*X106125Y-9500D01*
X105375Y-7250D02*Y-8750D01*
Y-7250D02*X106125Y-6500D01*
X107625D01*
X108375Y-7250D01*
X105375Y-8000D02*X108375D01*
Y-7250D02*Y-8000D01*
X110925Y-7250D02*Y-9500D01*
Y-7250D02*X111675Y-6500D01*
X112425D01*
X113175Y-7250D01*
Y-9500D01*
X110175Y-6500D02*X110925Y-7250D01*
X115725Y-3500D02*Y-8750D01*
X116475Y-9500D01*
X114975Y-5750D02*X116475D01*
X118725Y-9500D02*X120975D01*
X117975Y-8750D02*X118725Y-9500D01*
X117975Y-7250D02*Y-8750D01*
Y-7250D02*X118725Y-6500D01*
X120225D01*
X120975Y-7250D01*
X117975Y-8000D02*X120975D01*
Y-7250D02*Y-8000D01*
X123525Y-7250D02*Y-9500D01*
Y-7250D02*X124275Y-6500D01*
X125775D01*
X122775D02*X123525Y-7250D01*
X127575Y-3500D02*Y-8750D01*
X128325Y-9500D01*
G54D91*X129825Y-5000D02*Y-5150D01*
G54D90*Y-7250D02*Y-9500D01*
X132075Y-7250D02*Y-9500D01*
Y-7250D02*X132825Y-6500D01*
X133575D01*
X134325Y-7250D01*
Y-9500D01*
X131325Y-6500D02*X132075Y-7250D01*
X136875Y-9500D02*X139125D01*
X136125Y-8750D02*X136875Y-9500D01*
X136125Y-7250D02*Y-8750D01*
Y-7250D02*X136875Y-6500D01*
X138375D01*
X139125Y-7250D01*
X136125Y-8000D02*X139125D01*
Y-7250D02*Y-8000D01*
X143625Y-7250D02*Y-8750D01*
Y-7250D02*X144375Y-6500D01*
X145875D01*
X146625Y-7250D01*
Y-8750D01*
X145875Y-9500D02*X146625Y-8750D01*
X144375Y-9500D02*X145875D01*
X143625Y-8750D02*X144375Y-9500D01*
X149175Y-4250D02*Y-9500D01*
Y-4250D02*X149925Y-3500D01*
X150675D01*
X148425Y-6500D02*X149925D01*
X155625Y-3500D02*Y-8750D01*
X156375Y-9500D01*
X154875Y-5750D02*X156375D01*
X157875Y-3500D02*Y-9500D01*
Y-7250D02*X158625Y-6500D01*
X160125D01*
X160875Y-7250D01*
Y-9500D01*
G54D91*X162675Y-5000D02*Y-5150D01*
G54D90*Y-7250D02*Y-9500D01*
X164925D02*X167175D01*
X167925Y-8750D01*
X167175Y-8000D02*X167925Y-8750D01*
X164925Y-8000D02*X167175D01*
X164175Y-7250D02*X164925Y-8000D01*
X164175Y-7250D02*X164925Y-6500D01*
X167175D01*
X167925Y-7250D01*
X164175Y-8750D02*X164925Y-9500D01*
X173175Y-7250D02*Y-11750D01*
X172425Y-6500D02*X173175Y-7250D01*
X173925Y-6500D01*
X175425D01*
X176175Y-7250D01*
Y-8750D01*
X175425Y-9500D02*X176175Y-8750D01*
X173925Y-9500D02*X175425D01*
X173175Y-8750D02*X173925Y-9500D01*
X180225Y-6500D02*X180975Y-7250D01*
X178725Y-6500D02*X180225D01*
X177975Y-7250D02*X178725Y-6500D01*
X177975Y-7250D02*Y-8750D01*
X178725Y-9500D01*
X180975Y-6500D02*Y-8750D01*
X181725Y-9500D01*
X178725D02*X180225D01*
X180975Y-8750D01*
X184275Y-3500D02*Y-8750D01*
X185025Y-9500D01*
X183525Y-5750D02*X185025D01*
X186525Y-3500D02*Y-9500D01*
Y-7250D02*X187275Y-6500D01*
X188775D01*
X189525Y-7250D01*
Y-9500D01*
X200750Y188500D02*Y182500D01*
X202700Y188500D02*X203750Y187450D01*
Y183550D01*
X202700Y182500D02*X203750Y183550D01*
X200000Y182500D02*X202700D01*
X200000Y188500D02*X202700D01*
X207800Y185500D02*X208550Y184750D01*
X206300Y185500D02*X207800D01*
X205550Y184750D02*X206300Y185500D01*
X205550Y184750D02*Y183250D01*
X206300Y182500D01*
X208550Y185500D02*Y183250D01*
X209300Y182500D01*
X206300D02*X207800D01*
X208550Y183250D01*
X211850Y188500D02*Y183250D01*
X212600Y182500D01*
X211100Y186250D02*X212600D01*
X214850Y182500D02*X217100D01*
X214100Y183250D02*X214850Y182500D01*
X214100Y184750D02*Y183250D01*
Y184750D02*X214850Y185500D01*
X216350D01*
X217100Y184750D01*
X214100Y184000D02*X217100D01*
Y184750D02*Y184000D01*
X218900Y186250D02*X219650D01*
X218900Y184750D02*X219650D01*
X224150Y188500D02*Y182500D01*
Y188500D02*X227150D01*
X224150Y185800D02*X226400D01*
X229700Y184750D02*Y182500D01*
Y184750D02*X230450Y185500D01*
X231950D01*
X228950D02*X229700Y184750D01*
G54D91*X233750Y187000D02*Y186850D01*
G54D90*Y184750D02*Y182500D01*
X237950Y188500D02*Y182500D01*
Y188500D02*X240200Y185500D01*
X242450Y188500D01*
Y182500D01*
X246500Y185500D02*X247250Y184750D01*
X245000Y185500D02*X246500D01*
X244250Y184750D02*X245000Y185500D01*
X244250Y184750D02*Y183250D01*
X245000Y182500D01*
X247250Y185500D02*Y183250D01*
X248000Y182500D01*
X245000D02*X246500D01*
X247250Y183250D01*
X249800Y185500D02*Y183250D01*
X250550Y182500D01*
X252800Y185500D02*Y181000D01*
X252050Y180250D02*X252800Y181000D01*
X250550Y180250D02*X252050D01*
X249800Y181000D02*X250550Y180250D01*
Y182500D02*X252050D01*
X252800Y183250D01*
X257300Y187750D02*X258050Y188500D01*
X259550D01*
X260300Y187750D01*
X259550Y182500D02*X260300Y183250D01*
X258050Y182500D02*X259550D01*
X257300Y183250D02*X258050Y182500D01*
Y185800D02*X259550D01*
X260300Y187750D02*Y186550D01*
Y185050D02*Y183250D01*
Y185050D02*X259550Y185800D01*
X260300Y186550D02*X259550Y185800D01*
X262100Y187300D02*X263300Y188500D01*
Y182500D01*
X262100D02*X264350D01*
X268850Y187750D02*X269600Y188500D01*
X271850D01*
X272600Y187750D01*
Y186250D01*
X268850Y182500D02*X272600Y186250D01*
X268850Y182500D02*X272600D01*
X274400Y183250D02*X275150Y182500D01*
X274400Y187750D02*Y183250D01*
Y187750D02*X275150Y188500D01*
X276650D01*
X277400Y187750D01*
Y183250D01*
X276650Y182500D02*X277400Y183250D01*
X275150Y182500D02*X276650D01*
X274400Y184000D02*X277400Y187000D01*
X279200Y186250D02*X279950D01*
X279200Y184750D02*X279950D01*
X281750Y187300D02*X282950Y188500D01*
Y182500D01*
X281750D02*X284000D01*
X285800Y187300D02*X287000Y188500D01*
Y182500D01*
X285800D02*X288050D01*
X289850Y186250D02*X290600D01*
X289850Y184750D02*X290600D01*
X292400Y188500D02*X295400D01*
X292400D02*Y185500D01*
X293150Y186250D01*
X294650D01*
X295400Y185500D01*
Y183250D01*
X294650Y182500D02*X295400Y183250D01*
X293150Y182500D02*X294650D01*
X292400Y183250D02*X293150Y182500D01*
X297200Y183250D02*X297950Y182500D01*
X297200Y184450D02*Y183250D01*
Y184450D02*X298250Y185500D01*
X299150D01*
X300200Y184450D01*
Y183250D01*
X299450Y182500D02*X300200Y183250D01*
X297950Y182500D02*X299450D01*
X297200Y186550D02*X298250Y185500D01*
X297200Y187750D02*Y186550D01*
Y187750D02*X297950Y188500D01*
X299450D01*
X300200Y187750D01*
Y186550D01*
X299150Y185500D02*X300200Y186550D01*
X304700Y187750D02*X305450Y188500D01*
X307700D01*
X308450Y187750D01*
Y186250D01*
X304700Y182500D02*X308450Y186250D01*
X304700Y182500D02*X308450D01*
X310250Y183250D02*X311000Y182500D01*
X310250Y187750D02*Y183250D01*
Y187750D02*X311000Y188500D01*
X312500D01*
X313250Y187750D01*
Y183250D01*
X312500Y182500D02*X313250Y183250D01*
X311000Y182500D02*X312500D01*
X310250Y184000D02*X313250Y187000D01*
X315050Y187300D02*X316250Y188500D01*
Y182500D01*
X315050D02*X317300D01*
X319100Y187750D02*X319850Y188500D01*
X321350D01*
X322100Y187750D01*
X321350Y182500D02*X322100Y183250D01*
X319850Y182500D02*X321350D01*
X319100Y183250D02*X319850Y182500D01*
Y185800D02*X321350D01*
X322100Y187750D02*Y186550D01*
Y185050D02*Y183250D01*
Y185050D02*X321350Y185800D01*
X322100Y186550D02*X321350Y185800D01*
X326600Y188500D02*Y183250D01*
X327350Y182500D01*
X328850D01*
X329600Y183250D01*
Y188500D02*Y183250D01*
X331400Y188500D02*X334400D01*
X332900D02*Y182500D01*
X337250D02*X339200D01*
X336200Y183550D02*X337250Y182500D01*
X336200Y187450D02*Y183550D01*
Y187450D02*X337250Y188500D01*
X339200D01*
X200000Y202000D02*Y197500D01*
Y202000D02*X201050Y203500D01*
X202700D01*
X203750Y202000D01*
Y197500D01*
X200000Y200500D02*X203750D01*
X205550D02*Y198250D01*
X206300Y197500D01*
X207800D01*
X208550Y198250D01*
Y200500D02*Y198250D01*
X211100Y203500D02*Y198250D01*
X211850Y197500D01*
X210350Y201250D02*X211850D01*
X213350Y203500D02*Y197500D01*
Y199750D02*X214100Y200500D01*
X215600D01*
X216350Y199750D01*
Y197500D01*
X218150Y199750D02*Y198250D01*
Y199750D02*X218900Y200500D01*
X220400D01*
X221150Y199750D01*
Y198250D01*
X220400Y197500D02*X221150Y198250D01*
X218900Y197500D02*X220400D01*
X218150Y198250D02*X218900Y197500D01*
X223700Y199750D02*Y197500D01*
Y199750D02*X224450Y200500D01*
X225950D01*
X222950D02*X223700Y199750D01*
X227750Y201250D02*X228500D01*
X227750Y199750D02*X228500D01*
X200000Y218500D02*X203000D01*
X201500D02*Y212500D01*
G54D91*X204800Y217000D02*Y216850D01*
G54D90*Y214750D02*Y212500D01*
X207050Y218500D02*Y213250D01*
X207800Y212500D01*
X206300Y216250D02*X207800D01*
X209300Y218500D02*Y213250D01*
X210050Y212500D01*
X212300D02*X214550D01*
X211550Y213250D02*X212300Y212500D01*
X211550Y214750D02*Y213250D01*
Y214750D02*X212300Y215500D01*
X213800D01*
X214550Y214750D01*
X211550Y214000D02*X214550D01*
Y214750D02*Y214000D01*
X216350Y216250D02*X217100D01*
X216350Y214750D02*X217100D01*
X221600Y213250D02*X222350Y212500D01*
X221600Y217750D02*X222350Y218500D01*
X221600Y217750D02*Y213250D01*
X224150Y215500D02*Y213250D01*
X224900Y212500D01*
X226400D01*
X227150Y213250D01*
Y215500D02*Y213250D01*
X229700Y214750D02*Y212500D01*
Y214750D02*X230450Y215500D01*
X231200D01*
X231950Y214750D01*
Y212500D01*
X228950Y215500D02*X229700Y214750D01*
X233750Y218500D02*Y212500D01*
Y214750D02*X236000Y212500D01*
X233750Y214750D02*X235250Y216250D01*
X238550Y214750D02*Y212500D01*
Y214750D02*X239300Y215500D01*
X240050D01*
X240800Y214750D01*
Y212500D01*
X237800Y215500D02*X238550Y214750D01*
X242600D02*Y213250D01*
Y214750D02*X243350Y215500D01*
X244850D01*
X245600Y214750D01*
Y213250D01*
X244850Y212500D02*X245600Y213250D01*
X243350Y212500D02*X244850D01*
X242600Y213250D02*X243350Y212500D01*
X247400Y215500D02*Y213250D01*
X248150Y212500D01*
X248900D01*
X249650Y213250D01*
Y215500D02*Y213250D01*
X250400Y212500D01*
X251150D01*
X251900Y213250D01*
Y215500D02*Y213250D01*
X254450Y214750D02*Y212500D01*
Y214750D02*X255200Y215500D01*
X255950D01*
X256700Y214750D01*
Y212500D01*
X253700Y215500D02*X254450Y214750D01*
X258500Y218500D02*X259250Y217750D01*
Y213250D01*
X258500Y212500D02*X259250Y213250D01*
X263750Y215500D02*X266750D01*
X271250Y218500D02*Y212500D01*
Y218500D02*X274250D01*
X271250Y215800D02*X273500D01*
X278300Y215500D02*X279050Y214750D01*
X276800Y215500D02*X278300D01*
X276050Y214750D02*X276800Y215500D01*
X276050Y214750D02*Y213250D01*
X276800Y212500D01*
X279050Y215500D02*Y213250D01*
X279800Y212500D01*
X276800D02*X278300D01*
X279050Y213250D01*
X281600Y218500D02*Y212500D01*
Y213250D02*X282350Y212500D01*
X283850D01*
X284600Y213250D01*
Y214750D02*Y213250D01*
X283850Y215500D02*X284600Y214750D01*
X282350Y215500D02*X283850D01*
X281600Y214750D02*X282350Y215500D01*
X287150Y214750D02*Y212500D01*
Y214750D02*X287900Y215500D01*
X289400D01*
X286400D02*X287150Y214750D01*
G54D91*X291200Y217000D02*Y216850D01*
G54D90*Y214750D02*Y212500D01*
X293450Y215500D02*X295700D01*
X292700Y214750D02*X293450Y215500D01*
X292700Y214750D02*Y213250D01*
X293450Y212500D01*
X295700D01*
X299750Y215500D02*X300500Y214750D01*
X298250Y215500D02*X299750D01*
X297500Y214750D02*X298250Y215500D01*
X297500Y214750D02*Y213250D01*
X298250Y212500D01*
X300500Y215500D02*Y213250D01*
X301250Y212500D01*
X298250D02*X299750D01*
X300500Y213250D01*
X303800Y218500D02*Y213250D01*
X304550Y212500D01*
X303050Y216250D02*X304550D01*
G54D91*X306050Y217000D02*Y216850D01*
G54D90*Y214750D02*Y212500D01*
X307550Y214750D02*Y213250D01*
Y214750D02*X308300Y215500D01*
X309800D01*
X310550Y214750D01*
Y213250D01*
X309800Y212500D02*X310550Y213250D01*
X308300Y212500D02*X309800D01*
X307550Y213250D02*X308300Y212500D01*
X313100Y214750D02*Y212500D01*
Y214750D02*X313850Y215500D01*
X314600D01*
X315350Y214750D01*
Y212500D01*
X312350Y215500D02*X313100Y214750D01*
X320600Y218500D02*Y212500D01*
X322550Y218500D02*X323600Y217450D01*
Y213550D01*
X322550Y212500D02*X323600Y213550D01*
X319850Y212500D02*X322550D01*
X319850Y218500D02*X322550D01*
X326150Y214750D02*Y212500D01*
Y214750D02*X326900Y215500D01*
X328400D01*
X325400D02*X326150Y214750D01*
X332450Y215500D02*X333200Y214750D01*
X330950Y215500D02*X332450D01*
X330200Y214750D02*X330950Y215500D01*
X330200Y214750D02*Y213250D01*
X330950Y212500D01*
X333200Y215500D02*Y213250D01*
X333950Y212500D01*
X330950D02*X332450D01*
X333200Y213250D01*
X335750Y215500D02*Y213250D01*
X336500Y212500D01*
X337250D01*
X338000Y213250D01*
Y215500D02*Y213250D01*
X338750Y212500D01*
X339500D01*
X340250Y213250D01*
Y215500D02*Y213250D01*
G54D91*X342050Y217000D02*Y216850D01*
G54D90*Y214750D02*Y212500D01*
X344300Y214750D02*Y212500D01*
Y214750D02*X345050Y215500D01*
X345800D01*
X346550Y214750D01*
Y212500D01*
X343550Y215500D02*X344300Y214750D01*
X350600Y215500D02*X351350Y214750D01*
X349100Y215500D02*X350600D01*
X348350Y214750D02*X349100Y215500D01*
X348350Y214750D02*Y213250D01*
X349100Y212500D01*
X350600D01*
X351350Y213250D01*
X348350Y211000D02*X349100Y210250D01*
X350600D01*
X351350Y211000D01*
Y215500D02*Y211000D01*
M02*
