G04 start of page 8 for group -4079 idx -4079 *
G04 Title: (unknown), topsilk *
G04 Creator: pcb 20110918 *
G04 CreationDate: Fri May 31 20:11:58 2013 UTC *
G04 For: fosse *
G04 Format: Gerber/RS-274X *
G04 PCB-Dimensions: 210000 160000 *
G04 PCB-Coordinate-Origin: lower left *
%MOIN*%
%FSLAX25Y25*%
%LNTOPSILK*%
%ADD74C,0.0080*%
%ADD73C,0.0100*%
G54D73*X51000Y148200D02*X52500D01*
X51000Y146000D02*X53000D01*
X51000Y150000D02*Y146000D01*
Y150000D02*X53000D01*
X55700Y148000D02*X56200Y147500D01*
X54700Y148000D02*X55700D01*
X54200Y147500D02*X54700Y148000D01*
X54200Y147500D02*Y146500D01*
X54700Y146000D01*
X56200Y148000D02*Y146500D01*
X56700Y146000D01*
X54700D02*X55700D01*
X56200Y146500D01*
X58400Y150000D02*Y146500D01*
X58900Y146000D01*
X57900Y148500D02*X58900D01*
X59900Y147500D02*Y146500D01*
Y147500D02*X60400Y148000D01*
X61400D01*
X61900Y147500D01*
Y146500D01*
X61400Y146000D02*X61900Y146500D01*
X60400Y146000D02*X61400D01*
X59900Y146500D02*X60400Y146000D01*
X63600Y147500D02*Y146000D01*
Y147500D02*X64100Y148000D01*
X64600D01*
X65100Y147500D01*
Y146000D01*
X63100Y148000D02*X63600Y147500D01*
X68600Y150000D02*Y146000D01*
X68100Y150000D02*X70100D01*
X70600Y149500D01*
Y148500D01*
X70100Y148000D02*X70600Y148500D01*
X68600Y148000D02*X70100D01*
X72300Y146000D02*X73800D01*
X71800Y146500D02*X72300Y146000D01*
X71800Y147500D02*Y146500D01*
Y147500D02*X72300Y148000D01*
X73300D01*
X73800Y147500D01*
X71800Y147000D02*X73800D01*
Y147500D02*Y147000D01*
X76500Y148000D02*X77000Y147500D01*
X75500Y148000D02*X76500D01*
X75000Y147500D02*X75500Y148000D01*
X75000Y147500D02*Y146500D01*
X75500Y146000D01*
X77000Y148000D02*Y146500D01*
X77500Y146000D01*
X75500D02*X76500D01*
X77000Y146500D01*
X78700Y150000D02*Y146000D01*
Y146500D02*X79200Y146000D01*
X80200D01*
X80700Y146500D01*
Y147500D02*Y146500D01*
X80200Y148000D02*X80700Y147500D01*
X79200Y148000D02*X80200D01*
X78700Y147500D02*X79200Y148000D01*
X81900Y147500D02*Y146500D01*
Y147500D02*X82400Y148000D01*
X83400D01*
X83900Y147500D01*
Y146500D01*
X83400Y146000D02*X83900Y146500D01*
X82400Y146000D02*X83400D01*
X81900Y146500D02*X82400Y146000D01*
X87100Y150000D02*Y146000D01*
X86600D02*X87100Y146500D01*
X85600Y146000D02*X86600D01*
X85100Y146500D02*X85600Y146000D01*
X85100Y147500D02*Y146500D01*
Y147500D02*X85600Y148000D01*
X86600D01*
X87100Y147500D01*
X88300Y148000D02*Y146500D01*
X88800Y146000D01*
X90300Y148000D02*Y145000D01*
X89800Y144500D02*X90300Y145000D01*
X88800Y144500D02*X89800D01*
X88300Y145000D02*X88800Y144500D01*
Y146000D02*X89800D01*
X90300Y146500D01*
X93300Y150000D02*Y146000D01*
X95300D01*
X98000Y148000D02*X98500Y147500D01*
X97000Y148000D02*X98000D01*
X96500Y147500D02*X97000Y148000D01*
X96500Y147500D02*Y146500D01*
X97000Y146000D01*
X98500Y148000D02*Y146500D01*
X99000Y146000D01*
X97000D02*X98000D01*
X98500Y146500D01*
X100200Y150000D02*Y146000D01*
Y146500D02*X100700Y146000D01*
X101700D01*
X102200Y146500D01*
Y147500D02*Y146500D01*
X101700Y148000D02*X102200Y147500D01*
X100700Y148000D02*X101700D01*
X100200Y147500D02*X100700Y148000D01*
X105200D02*X107200D01*
X110200Y150000D02*Y146000D01*
Y150000D02*X111700Y148000D01*
X113200Y150000D01*
Y146000D01*
X114400Y149000D02*Y148900D01*
Y147500D02*Y146000D01*
X115900Y148000D02*X117400D01*
X115400Y147500D02*X115900Y148000D01*
X115400Y147500D02*Y146500D01*
X115900Y146000D01*
X117400D01*
X119100Y147500D02*Y146000D01*
Y147500D02*X119600Y148000D01*
X120600D01*
X118600D02*X119100Y147500D01*
X121800D02*Y146500D01*
Y147500D02*X122300Y148000D01*
X123300D01*
X123800Y147500D01*
Y146500D01*
X123300Y146000D02*X123800Y146500D01*
X122300Y146000D02*X123300D01*
X121800Y146500D02*X122300Y146000D01*
X125500Y149500D02*Y146000D01*
Y149500D02*X126000Y150000D01*
X126500D01*
X125000Y148000D02*X126000D01*
X127500Y150000D02*Y146500D01*
X128000Y146000D01*
X129000Y148000D02*Y146500D01*
X129500Y146000D01*
X130500D01*
X131000Y146500D01*
Y148000D02*Y146500D01*
X132200Y149000D02*Y148900D01*
Y147500D02*Y146000D01*
X135200Y150000D02*Y146000D01*
X134700D02*X135200Y146500D01*
X133700Y146000D02*X134700D01*
X133200Y146500D02*X133700Y146000D01*
X133200Y147500D02*Y146500D01*
Y147500D02*X133700Y148000D01*
X134700D01*
X135200Y147500D01*
X136400Y149000D02*Y148900D01*
Y147500D02*Y146000D01*
X137900Y148000D02*X139400D01*
X137400Y147500D02*X137900Y148000D01*
X137400Y147500D02*Y146500D01*
X137900Y146000D01*
X139400D01*
X142900Y150000D02*Y146000D01*
X142400Y150000D02*X144400D01*
X144900Y149500D01*
Y148500D01*
X144400Y148000D02*X144900Y148500D01*
X142900Y148000D02*X144400D01*
X146100D02*Y146500D01*
X146600Y146000D01*
X147600D01*
X148100Y146500D01*
Y148000D02*Y146500D01*
X149800Y147500D02*Y146000D01*
Y147500D02*X150300Y148000D01*
X150800D01*
X151300Y147500D01*
Y146000D01*
Y147500D02*X151800Y148000D01*
X152300D01*
X152800Y147500D01*
Y146000D01*
X149300Y148000D02*X149800Y147500D01*
X154500D02*Y144500D01*
X154000Y148000D02*X154500Y147500D01*
X155000Y148000D01*
X156000D01*
X156500Y147500D01*
Y146500D01*
X156000Y146000D02*X156500Y146500D01*
X155000Y146000D02*X156000D01*
X154500Y146500D02*X155000Y146000D01*
X160000Y150000D02*Y146000D01*
X161300Y150000D02*X162000Y149300D01*
Y146700D01*
X161300Y146000D02*X162000Y146700D01*
X159500Y146000D02*X161300D01*
X159500Y150000D02*X161300D01*
X163700Y147500D02*Y146000D01*
Y147500D02*X164200Y148000D01*
X165200D01*
X163200D02*X163700Y147500D01*
X166400Y149000D02*Y148900D01*
Y147500D02*Y146000D01*
X167400Y148000D02*X168400Y146000D01*
X169400Y148000D02*X168400Y146000D01*
X171100D02*X172600D01*
X170600Y146500D02*X171100Y146000D01*
X170600Y147500D02*Y146500D01*
Y147500D02*X171100Y148000D01*
X172100D01*
X172600Y147500D01*
X170600Y147000D02*X172600D01*
Y147500D02*Y147000D01*
X174300Y147500D02*Y146000D01*
Y147500D02*X174800Y148000D01*
X175800D01*
X173800D02*X174300Y147500D01*
X93920Y136141D02*Y132141D01*
X95220Y136141D02*X95920Y135441D01*
Y132841D01*
X95220Y132141D02*X95920Y132841D01*
X93420Y132141D02*X95220D01*
X93420Y136141D02*X95220D01*
X98621Y134141D02*X99121Y133641D01*
X97621Y134141D02*X98621D01*
X97121Y133641D02*X97621Y134141D01*
X97121Y133641D02*Y132641D01*
X97621Y132141D01*
X99121Y134141D02*Y132641D01*
X99621Y132141D01*
X97621D02*X98621D01*
X99121Y132641D01*
X101321Y136141D02*Y132641D01*
X101821Y132141D01*
X100821Y134641D02*X101821D01*
X103321Y132141D02*X104821D01*
X102821Y132641D02*X103321Y132141D01*
X102821Y133641D02*Y132641D01*
Y133641D02*X103321Y134141D01*
X104321D01*
X104821Y133641D01*
X102821Y133141D02*X104821D01*
Y133641D02*Y133141D01*
X107821Y135641D02*X108321Y136141D01*
X109821D01*
X110321Y135641D01*
Y134641D01*
X107821Y132141D02*X110321Y134641D01*
X107821Y132141D02*X110321D01*
X111521Y132641D02*X112021Y132141D01*
X111521Y135641D02*Y132641D01*
Y135641D02*X112021Y136141D01*
X113021D01*
X113521Y135641D01*
Y132641D01*
X113021Y132141D02*X113521Y132641D01*
X112021Y132141D02*X113021D01*
X111521Y133141D02*X113521Y135141D01*
X114721Y135341D02*X115521Y136141D01*
Y132141D01*
X114721D02*X116221D01*
X117421Y135641D02*X117921Y136141D01*
X118921D01*
X119421Y135641D01*
X118921Y132141D02*X119421Y132641D01*
X117921Y132141D02*X118921D01*
X117421Y132641D02*X117921Y132141D01*
Y134341D02*X118921D01*
X119421Y135641D02*Y134841D01*
Y133841D02*Y132641D01*
Y133841D02*X118921Y134341D01*
X119421Y134841D02*X118921Y134341D01*
X120621Y132141D02*X121121D01*
X122321Y132641D02*X122821Y132141D01*
X122321Y135641D02*Y132641D01*
Y135641D02*X122821Y136141D01*
X123821D01*
X124321Y135641D01*
Y132641D01*
X123821Y132141D02*X124321Y132641D01*
X122821Y132141D02*X123821D01*
X122321Y133141D02*X124321Y135141D01*
X125521Y136141D02*X127521D01*
X125521D02*Y134141D01*
X126021Y134641D01*
X127021D01*
X127521Y134141D01*
Y132641D01*
X127021Y132141D02*X127521Y132641D01*
X126021Y132141D02*X127021D01*
X125521Y132641D02*X126021Y132141D01*
X128721D02*X129221D01*
X130421Y135641D02*X130921Y136141D01*
X131921D01*
X132421Y135641D01*
X131921Y132141D02*X132421Y132641D01*
X130921Y132141D02*X131921D01*
X130421Y132641D02*X130921Y132141D01*
Y134341D02*X131921D01*
X132421Y135641D02*Y134841D01*
Y133841D02*Y132641D01*
Y133841D02*X131921Y134341D01*
X132421Y134841D02*X131921Y134341D01*
X133621Y135341D02*X134421Y136141D01*
Y132141D01*
X133621D02*X135121D01*
X78000Y138500D02*X80000D01*
X80500Y139000D01*
Y140200D02*Y139000D01*
X80000Y140700D02*X80500Y140200D01*
X78500Y140700D02*X80000D01*
X78500Y142500D02*Y138500D01*
X78000Y142500D02*X80000D01*
X80500Y142000D01*
Y141200D01*
X80000Y140700D02*X80500Y141200D01*
X81700Y140500D02*Y139000D01*
X82200Y138500D01*
X83700Y140500D02*Y137500D01*
X83200Y137000D02*X83700Y137500D01*
X82200Y137000D02*X83200D01*
X81700Y137500D02*X82200Y137000D01*
Y138500D02*X83200D01*
X83700Y139000D01*
X86700Y142500D02*X87700D01*
X87200D02*Y138500D01*
X86700D02*X87700D01*
X89400D02*X90900D01*
X91400Y139000D01*
X90900Y139500D02*X91400Y139000D01*
X89400Y139500D02*X90900D01*
X88900Y140000D02*X89400Y139500D01*
X88900Y140000D02*X89400Y140500D01*
X90900D01*
X91400Y140000D01*
X88900Y139000D02*X89400Y138500D01*
X92600Y142500D02*Y138500D01*
Y140000D02*X93100Y140500D01*
X94100D01*
X94600Y140000D01*
Y138500D01*
X96300Y140000D02*Y138500D01*
Y140000D02*X96800Y140500D01*
X97300D01*
X97800Y140000D01*
Y138500D01*
Y140000D02*X98300Y140500D01*
X98800D01*
X99300Y140000D01*
Y138500D01*
X95800Y140500D02*X96300Y140000D01*
X102000Y140500D02*X102500Y140000D01*
X101000Y140500D02*X102000D01*
X100500Y140000D02*X101000Y140500D01*
X100500Y140000D02*Y139000D01*
X101000Y138500D01*
X102500Y140500D02*Y139000D01*
X103000Y138500D01*
X101000D02*X102000D01*
X102500Y139000D01*
X104700Y138500D02*X106200D01*
X104200Y139000D02*X104700Y138500D01*
X104200Y140000D02*Y139000D01*
Y140000D02*X104700Y140500D01*
X105700D01*
X106200Y140000D01*
X104200Y139500D02*X106200D01*
Y140000D02*Y139500D01*
X107400Y142500D02*Y139000D01*
X107900Y138500D01*
X112700Y142500D02*X113200Y142000D01*
X111200Y142500D02*X112700D01*
X110700Y142000D02*X111200Y142500D01*
X110700Y142000D02*Y141000D01*
X111200Y140500D01*
X112700D01*
X113200Y140000D01*
Y139000D01*
X112700Y138500D02*X113200Y139000D01*
X111200Y138500D02*X112700D01*
X110700Y139000D02*X111200Y138500D01*
X114400D02*X114900D01*
X116100Y142500D02*Y140500D01*
X116600Y138500D01*
X117600Y140500D01*
X118600Y138500D01*
X119100Y140500D01*
Y142500D02*Y140500D01*
X120300Y138500D02*X120800D01*
X123800Y139000D02*X124300Y138500D01*
X123800Y142000D02*Y141000D01*
Y142000D02*X124300Y142500D01*
X123800Y140000D02*X125300Y141500D01*
X124300Y138500D02*X124800D01*
X125800Y139500D01*
X123800Y141000D02*X126300Y138500D01*
X124300Y142500D02*X124800D01*
X125300Y142000D01*
Y141500D01*
X123800Y140000D02*Y139000D01*
X129300Y140700D02*X130800D01*
X129300Y138500D02*X131300D01*
X129300Y142500D02*Y138500D01*
Y142500D02*X131300D01*
X132500Y140500D02*X133500Y138500D01*
X134500Y140500D02*X133500Y138500D01*
X137200Y140500D02*X137700Y140000D01*
X136200Y140500D02*X137200D01*
X135700Y140000D02*X136200Y140500D01*
X135700Y140000D02*Y139000D01*
X136200Y138500D01*
X137700Y140500D02*Y139000D01*
X138200Y138500D01*
X136200D02*X137200D01*
X137700Y139000D01*
X139900Y140000D02*Y138500D01*
Y140000D02*X140400Y140500D01*
X140900D01*
X141400Y140000D01*
Y138500D01*
X139400Y140500D02*X139900Y140000D01*
X144400Y140700D02*X145900D01*
X144400Y138500D02*X146400D01*
X144400Y142500D02*Y138500D01*
Y142500D02*X146400D01*
X147600Y138500D02*X148100D01*
X149300Y142500D02*Y138500D01*
Y142500D02*X151300D01*
X149300Y140700D02*X150800D01*
X152500Y138500D02*X153000D01*
X32000Y131500D02*Y61500D01*
X72000D02*X32000D01*
X72000Y131500D02*Y61500D01*
X47000Y131500D02*X32000D01*
X72000D02*X57000D01*
X47000D02*G75*G03X57000Y131500I5000J0D01*G01*
G54D74*X20564Y99255D02*X21350D01*
X20564Y93745D02*X21350D01*
X16233Y120240D02*X20957D01*
X16233Y112760D02*X20957D01*
G54D73*X96000Y28090D02*X108500D01*
X133500D02*X146000D01*
X108500Y32190D02*X133500D01*
Y23990D01*
X108500D01*
Y32190D01*
X96000Y35790D02*Y31790D01*
X94000Y33790D02*X98000D01*
X144000D02*X148000D01*
G54D74*X99543Y47930D02*X104267D01*
X99543Y40450D02*X104267D01*
G54D73*X31362Y26780D02*Y46465D01*
X73685D01*
X31362Y26780D02*X73685D01*
Y46465D02*Y26780D01*
X85657Y103469D02*Y83784D01*
X105343D02*Y103469D01*
X85657D02*X90579D01*
X105343D02*X100421D01*
X85657Y83784D02*X87429D01*
X94516D02*X96484D01*
X105343D02*X103571D01*
X92350Y96776D02*X98650Y90476D01*
Y96776D02*X92350Y90476D01*
X100028Y93626D02*G75*G03X95500Y98154I-4528J0D01*G01*
G75*G03X90972Y93626I0J-4528D01*G01*
G75*G03X95500Y89098I4528J0D01*G01*
G75*G03X100028Y93626I0J4528D01*G01*
G54D74*X145626Y119880D02*X146412D01*
X145626Y114370D02*X146412D01*
X145626Y132380D02*X146412D01*
X145626Y126870D02*X146412D01*
X123638Y47930D02*X128362D01*
X123638Y40450D02*X128362D01*
G54D73*X153500Y88500D02*Y48500D01*
X193500D02*X153500D01*
X193500Y88500D02*Y48500D01*
X168500Y88500D02*X153500D01*
X193500D02*X178500D01*
X168500D02*G75*G03X178500Y88500I5000J0D01*G01*
X113700Y34190D02*X115000D01*
X113000Y34890D02*X113700Y34190D01*
X113000Y37490D02*Y34890D01*
Y37490D02*X113700Y38190D01*
X115000D01*
X116200Y37690D02*Y34690D01*
Y37690D02*X116700Y38190D01*
X117700D01*
X118200Y37690D01*
Y34690D01*
X117700Y34190D02*X118200Y34690D01*
X116700Y34190D02*X117700D01*
X116200Y34690D02*X116700Y34190D01*
X119400Y38190D02*Y34190D01*
Y38190D02*X121900Y34190D01*
Y38190D02*Y34190D01*
X123100Y38190D02*Y34190D01*
Y38190D02*X125600Y34190D01*
Y38190D02*Y34190D01*
X126800Y37690D02*X127300Y38190D01*
X128800D01*
X129300Y37690D01*
Y36690D01*
X126800Y34190D02*X129300Y36690D01*
X126800Y34190D02*X129300D01*
X99755Y53340D02*Y49340D01*
Y53340D02*X101755D01*
X99755Y51540D02*X101255D01*
X102955Y52540D02*X103755Y53340D01*
Y49340D01*
X102955D02*X104455D01*
X123550D02*X124850D01*
X122850Y50040D02*X123550Y49340D01*
X122850Y52640D02*Y50040D01*
Y52640D02*X123550Y53340D01*
X124850D01*
X126050Y52840D02*X126550Y53340D01*
X128050D01*
X128550Y52840D01*
Y51840D01*
X126050Y49340D02*X128550Y51840D01*
X126050Y49340D02*X128550D01*
X45645Y48551D02*X46945D01*
X44945Y49251D02*X45645Y48551D01*
X44945Y51851D02*Y49251D01*
Y51851D02*X45645Y52551D01*
X46945D01*
X48145Y52051D02*Y49051D01*
Y52051D02*X48645Y52551D01*
X49645D01*
X50145Y52051D01*
Y49051D01*
X49645Y48551D02*X50145Y49051D01*
X48645Y48551D02*X49645D01*
X48145Y49051D02*X48645Y48551D01*
X51345Y52551D02*Y48551D01*
Y52551D02*X53845Y48551D01*
Y52551D02*Y48551D01*
X55045Y52551D02*Y48551D01*
Y52551D02*X57545Y48551D01*
Y52551D02*Y48551D01*
X58745Y51751D02*X59545Y52551D01*
Y48551D01*
X58745D02*X60245D01*
X17350Y104650D02*X19350D01*
X19850Y104150D01*
Y103150D01*
X19350Y102650D02*X19850Y103150D01*
X17850Y102650D02*X19350D01*
X17850Y104650D02*Y100650D01*
X18650Y102650D02*X19850Y100650D01*
X21050Y104150D02*X21550Y104650D01*
X23050D01*
X23550Y104150D01*
Y103150D01*
X21050Y100650D02*X23550Y103150D01*
X21050Y100650D02*X23550D01*
X17145Y121650D02*X18445D01*
X16445Y122350D02*X17145Y121650D01*
X16445Y124950D02*Y122350D01*
Y124950D02*X17145Y125650D01*
X18445D01*
X19645Y124850D02*X20445Y125650D01*
Y121650D01*
X19645D02*X21145D01*
X171500Y95500D02*Y92000D01*
X172000Y91500D01*
X173000D01*
X173500Y92000D01*
Y95500D02*Y92000D01*
X174700Y94700D02*X175500Y95500D01*
Y91500D01*
X174700D02*X176200D01*
X46000Y137500D02*Y133500D01*
Y137500D02*X47500Y135500D01*
X49000Y137500D01*
Y133500D01*
X50200Y137000D02*Y134000D01*
Y137000D02*X50700Y137500D01*
X51700D01*
X52200Y137000D01*
Y134000D01*
X51700Y133500D02*X52200Y134000D01*
X50700Y133500D02*X51700D01*
X50200Y134000D02*X50700Y133500D01*
X53900Y137500D02*Y133500D01*
X55200Y137500D02*X55900Y136800D01*
Y134200D01*
X55200Y133500D02*X55900Y134200D01*
X53400Y133500D02*X55200D01*
X53400Y137500D02*X55200D01*
X57100Y136700D02*X57900Y137500D01*
Y133500D01*
X57100D02*X58600D01*
X92744Y111130D02*X94744D01*
X95244Y110630D01*
Y109630D01*
X94744Y109130D02*X95244Y109630D01*
X93244Y109130D02*X94744D01*
X93244Y111130D02*Y107130D01*
X94044Y109130D02*X95244Y107130D01*
X96444Y110630D02*X96944Y111130D01*
X97944D01*
X98444Y110630D01*
X97944Y107130D02*X98444Y107630D01*
X96944Y107130D02*X97944D01*
X96444Y107630D02*X96944Y107130D01*
Y109330D02*X97944D01*
X98444Y110630D02*Y109830D01*
Y108830D02*Y107630D01*
Y108830D02*X97944Y109330D01*
X98444Y109830D02*X97944Y109330D01*
X142326Y125275D02*X144326D01*
X144826Y124775D01*
Y123775D01*
X144326Y123275D02*X144826Y123775D01*
X142826Y123275D02*X144326D01*
X142826Y125275D02*Y121275D01*
X143626Y123275D02*X144826Y121275D01*
X146026Y122775D02*X148026Y125275D01*
X146026Y122775D02*X148526D01*
X148026Y125275D02*Y121275D01*
X142412Y137775D02*X144412D01*
X144912Y137275D01*
Y136275D01*
X144412Y135775D02*X144912Y136275D01*
X142912Y135775D02*X144412D01*
X142912Y137775D02*Y133775D01*
X143712Y135775D02*X144912Y133775D01*
X146112Y137775D02*X148112D01*
X146112D02*Y135775D01*
X146612Y136275D01*
X147612D01*
X148112Y135775D01*
Y134275D01*
X147612Y133775D02*X148112Y134275D01*
X146612Y133775D02*X147612D01*
X146112Y134275D02*X146612Y133775D01*
M02*
