G04 start of page 8 for group -4079 idx -4079 *
G04 Title: (unknown), topsilk *
G04 Creator: pcb 20140316 *
G04 CreationDate: Mon 06 Apr 2015 04:31:32 PM GMT UTC *
G04 For: fosse *
G04 Format: Gerber/RS-274X *
G04 PCB-Dimensions (mil): 5250.00 3480.00 *
G04 PCB-Coordinate-Origin: lower left *
%MOIN*%
%FSLAX25Y25*%
%LNTOPSILK*%
%ADD88C,0.0110*%
%ADD87C,0.0060*%
%ADD86C,0.0100*%
G54D86*X116600Y213550D02*Y185250D01*
X128400D01*
Y213550D02*Y185250D01*
X116600Y213550D02*X128400D01*
Y193500D02*X132300D01*
Y205300D02*Y193500D01*
X128400Y205300D02*X132300D01*
X128400Y199400D02*X132300D01*
X45445Y192701D02*X69067D01*
Y169079D01*
X45445D02*X69067D01*
X45445Y192701D02*Y169079D01*
X63162Y180890D02*G75*G03X57256Y186796I-5906J0D01*G01*
Y174984D02*G75*G03X63162Y180890I0J5906D01*G01*
X51350D02*G75*G03X57256Y174984I5906J0D01*G01*
Y186796D02*G75*G03X51350Y180890I0J-5906D01*G01*
X38701Y228685D02*X51299D01*
X38701Y239315D02*X51299D01*
Y234197D02*Y233803D01*
X38701Y234197D02*Y233803D01*
G54D87*X66157Y277287D02*X85842D01*
Y259571D01*
X66157D01*
Y277287D01*
G54D88*X79937Y264492D02*X72063Y272366D01*
G54D87*X83283Y265674D02*Y265673D01*
X83873Y265083D02*Y264689D01*
X83283Y265673D02*X83873Y265083D01*
X69110Y263508D02*Y265674D01*
X70094Y263508D02*X68126D01*
X69110Y265674D02*X68519Y265083D01*
X83873Y263507D02*X81905D01*
X83873Y264689D02*X81905Y263507D01*
Y265083D02*Y265084D01*
X82495Y265674D01*
X83282D01*
X70684Y273941D02*X71472D01*
Y276106D02*X70684D01*
X70094Y275516D01*
Y274531D01*
X70684Y273941D01*
X72062Y275516D02*X71472Y276106D01*
Y273941D02*X72062Y274531D01*
X81905Y268429D02*G75*G03X75999Y274335I-5906J0D01*G01*
G75*G03X70094Y268430I0J-5905D01*G01*
G75*G03X76000Y262524I5906J0D01*G01*
G75*G03X81905Y268429I0J5905D01*G01*
G54D86*X138130Y298681D02*Y200256D01*
Y298681D02*X216870D01*
Y200256D01*
X138130D02*X216870D01*
G54D87*X181500Y243000D02*Y241000D01*
Y243000D02*X181000Y243500D01*
X179800D02*X181000D01*
X179300Y243000D02*X179800Y243500D01*
X179300Y243000D02*Y241500D01*
X177500D02*X181500D01*
X177500Y243000D02*Y241000D01*
Y243000D02*X178000Y243500D01*
X178800D01*
X179300Y243000D02*X178800Y243500D01*
X178500Y244700D02*X181500D01*
X178500D02*X177500Y245400D01*
Y246500D02*Y245400D01*
Y246500D02*X178500Y247200D01*
X181500D01*
X179500D02*Y244700D01*
X177500Y250400D02*Y248400D01*
Y249400D02*X181500D01*
X178300Y251600D02*X177500Y252400D01*
X181500D01*
Y253100D02*Y251600D01*
X56303Y198591D02*X56803Y198091D01*
X54803Y198591D02*X56303D01*
X54303Y198091D02*X54803Y198591D01*
X54303Y198091D02*Y197091D01*
X54803Y196591D01*
X56303D01*
X56803Y196091D01*
Y195091D01*
X56303Y194591D02*X56803Y195091D01*
X54803Y194591D02*X56303D01*
X54303Y195091D02*X54803Y194591D01*
X58003Y198091D02*X58503Y198591D01*
X60003D01*
X60503Y198091D01*
Y197091D01*
X58003Y194591D02*X60503Y197091D01*
X58003Y194591D02*X60503D01*
X39291Y245402D02*Y241402D01*
X41291D01*
X42491Y243602D02*X43991D01*
X42491Y241402D02*X44491D01*
X42491Y245402D02*Y241402D01*
Y245402D02*X44491D01*
X46191D02*Y241402D01*
X47491Y245402D02*X48191Y244702D01*
Y242102D01*
X47491Y241402D02*X48191Y242102D01*
X45691Y241402D02*X47491D01*
X45691Y245402D02*X47491D01*
X49391Y244602D02*X50191Y245402D01*
Y241402D01*
X49391D02*X50891D01*
X81740Y283177D02*X82240Y282677D01*
X80240Y283177D02*X81740D01*
X79740Y282677D02*X80240Y283177D01*
X79740Y282677D02*Y281677D01*
X80240Y281177D01*
X81740D01*
X82240Y280677D01*
Y279677D01*
X81740Y279177D02*X82240Y279677D01*
X80240Y279177D02*X81740D01*
X79740Y279677D02*X80240Y279177D01*
X83440Y282677D02*X83940Y283177D01*
X84940D01*
X85440Y282677D01*
X84940Y279177D02*X85440Y279677D01*
X83940Y279177D02*X84940D01*
X83440Y279677D02*X83940Y279177D01*
Y281377D02*X84940D01*
X85440Y282677D02*Y281877D01*
Y280877D02*Y279677D01*
Y280877D02*X84940Y281377D01*
X85440Y281877D02*X84940Y281377D01*
X104500Y198400D02*X105000Y198900D01*
X104500Y198400D02*Y196900D01*
X105000Y196400D02*X104500Y196900D01*
X105000Y196400D02*X106000D01*
X106500Y196900D01*
Y198400D02*Y196900D01*
Y198400D02*X107000Y198900D01*
X108000D01*
X108500Y198400D02*X108000Y198900D01*
X108500Y198400D02*Y196900D01*
X108000Y196400D02*X108500Y196900D01*
X105300Y200100D02*X104500Y200900D01*
X108500D01*
Y201600D02*Y200100D01*
M02*
