M48
INCH
T68C0.130
T67C0.125
T66C0.035
T65C0.165
T64C0.020
T63C0.043
T62C0.032
T61C0.030
T60C0.034
%
T64
X003100Y023700
X003100Y023000
X003300Y017850
X005950Y023700
X005950Y023050
X006200Y020100
X006900Y027000
X007700Y026700
T61
X010250Y017800
X010250Y016800
T62
X011116Y026900
X011608Y027687
X012100Y026900
X012592Y027687
T60
X012250Y020530
X012250Y019350
T66
X008450Y018950
X009750Y019900
X010450Y018950
T63
X005876Y018089
X005876Y016317
T67
X011850Y022900
T68
X004900Y028700
X009700Y024200
X013050Y011700
X013800Y017100
X018800Y028700
X018800Y017100
T65
X002375Y029830
X002375Y015970
X021325Y029830
X021325Y015970
M30
