G04 start of page 3 for group 1 idx 1 *
G04 Title: (unknown), bottom *
G04 Creator: pcb 20110918 *
G04 CreationDate: Mon Jun 10 22:15:59 2013 UTC *
G04 For: fosse *
G04 Format: Gerber/RS-274X *
G04 PCB-Dimensions: 200000 148000 *
G04 PCB-Coordinate-Origin: lower left *
%MOIN*%
%FSLAX25Y25*%
%LNBOTTOM*%
%ADD48C,0.1250*%
%ADD47C,0.0280*%
%ADD46C,0.0350*%
%ADD45C,0.0650*%
%ADD44C,0.0460*%
%ADD43C,0.0410*%
%ADD42R,0.0512X0.0512*%
%ADD41R,0.0512X0.0512*%
%ADD40C,0.0750*%
%ADD39C,0.1450*%
%ADD38C,0.0550*%
%ADD37C,0.0591*%
%ADD36C,0.0600*%
%ADD35C,0.0200*%
%ADD34C,0.0400*%
%ADD33C,0.0001*%
G54D33*G36*
X102500Y32500D02*Y40000D01*
X106500Y36000D01*
X102500Y32000D01*
Y32500D01*
G37*
G36*
X106000Y52500D02*Y60000D01*
X110000Y56000D01*
X106000Y52000D01*
Y52500D01*
G37*
G36*
X103500Y96000D02*X111000D01*
X107000Y92000D01*
X103000Y96000D01*
X103500D01*
G37*
G36*
X110000Y120500D02*Y113000D01*
X106000Y117000D01*
X110000Y121000D01*
Y120500D01*
G37*
G36*
X167113Y142500D02*X171500D01*
X193500Y120500D01*
Y32000D01*
X187000Y25500D01*
X174500D01*
Y11000D01*
X169000Y5500D01*
X167113D01*
Y23302D01*
X167152Y23347D01*
X167522Y23951D01*
X167793Y24605D01*
X167958Y25294D01*
X168000Y26000D01*
X167958Y26706D01*
X167793Y27395D01*
X167522Y28049D01*
X167152Y28653D01*
X167113Y28698D01*
Y33302D01*
X167152Y33347D01*
X167522Y33951D01*
X167793Y34605D01*
X167958Y35294D01*
X168000Y36000D01*
X167958Y36706D01*
X167793Y37395D01*
X167522Y38049D01*
X167152Y38653D01*
X167113Y38698D01*
Y43302D01*
X167152Y43347D01*
X167522Y43951D01*
X167793Y44605D01*
X167958Y45294D01*
X168000Y46000D01*
X167958Y46706D01*
X167793Y47395D01*
X167522Y48049D01*
X167152Y48653D01*
X167113Y48698D01*
Y53302D01*
X167152Y53347D01*
X167522Y53951D01*
X167793Y54605D01*
X167958Y55294D01*
X168000Y56000D01*
X167958Y56706D01*
X167793Y57395D01*
X167522Y58049D01*
X167152Y58653D01*
X167113Y58698D01*
Y63853D01*
X167156Y63860D01*
X167268Y63897D01*
X167373Y63952D01*
X167468Y64022D01*
X167551Y64106D01*
X167619Y64202D01*
X167670Y64308D01*
X167818Y64716D01*
X167922Y65137D01*
X167984Y65567D01*
X168005Y66000D01*
X167984Y66433D01*
X167922Y66863D01*
X167818Y67284D01*
X167675Y67694D01*
X167622Y67800D01*
X167553Y67896D01*
X167470Y67981D01*
X167375Y68051D01*
X167269Y68106D01*
X167157Y68143D01*
X167113Y68151D01*
Y71000D01*
X167400D01*
X169900Y73500D01*
Y120400D01*
X167113Y123187D01*
Y142500D01*
G37*
G36*
Y58698D02*X166692Y59192D01*
X166153Y59652D01*
X165549Y60022D01*
X164895Y60293D01*
X164206Y60458D01*
X163502Y60514D01*
Y61495D01*
X163933Y61516D01*
X164363Y61578D01*
X164784Y61682D01*
X165194Y61825D01*
X165300Y61878D01*
X165396Y61947D01*
X165481Y62030D01*
X165551Y62125D01*
X165606Y62231D01*
X165643Y62343D01*
X165663Y62460D01*
X165664Y62579D01*
X165646Y62696D01*
X165610Y62809D01*
X165557Y62915D01*
X165488Y63012D01*
X165405Y63096D01*
X165309Y63167D01*
X165204Y63221D01*
X165092Y63259D01*
X164975Y63278D01*
X164856Y63279D01*
X164739Y63261D01*
X164626Y63223D01*
X164355Y63124D01*
X164075Y63056D01*
X163789Y63014D01*
X163502Y63000D01*
Y69000D01*
X163789Y68986D01*
X164075Y68944D01*
X164355Y68876D01*
X164628Y68780D01*
X164739Y68742D01*
X164856Y68725D01*
X164974Y68725D01*
X165091Y68745D01*
X165203Y68782D01*
X165307Y68836D01*
X165402Y68906D01*
X165485Y68991D01*
X165554Y69087D01*
X165607Y69192D01*
X165643Y69305D01*
X165660Y69421D01*
X165659Y69539D01*
X165640Y69656D01*
X165603Y69768D01*
X165548Y69873D01*
X165478Y69968D01*
X165394Y70051D01*
X165298Y70119D01*
X165192Y70170D01*
X164784Y70318D01*
X164363Y70422D01*
X163933Y70484D01*
X163502Y70505D01*
Y71000D01*
X167113D01*
Y68151D01*
X167040Y68163D01*
X166921Y68164D01*
X166804Y68146D01*
X166691Y68110D01*
X166585Y68057D01*
X166488Y67988D01*
X166404Y67905D01*
X166333Y67809D01*
X166279Y67704D01*
X166241Y67592D01*
X166222Y67475D01*
X166221Y67356D01*
X166239Y67239D01*
X166277Y67126D01*
X166376Y66855D01*
X166444Y66575D01*
X166486Y66289D01*
X166500Y66000D01*
X166486Y65711D01*
X166444Y65425D01*
X166376Y65145D01*
X166280Y64872D01*
X166242Y64761D01*
X166225Y64644D01*
X166225Y64526D01*
X166245Y64409D01*
X166282Y64297D01*
X166336Y64193D01*
X166406Y64098D01*
X166491Y64015D01*
X166587Y63946D01*
X166692Y63893D01*
X166805Y63857D01*
X166921Y63840D01*
X167039Y63841D01*
X167113Y63853D01*
Y58698D01*
G37*
G36*
Y48698D02*X166692Y49192D01*
X166153Y49652D01*
X165549Y50022D01*
X164895Y50293D01*
X164206Y50458D01*
X163502Y50514D01*
Y51486D01*
X164206Y51542D01*
X164895Y51707D01*
X165549Y51978D01*
X166153Y52348D01*
X166692Y52808D01*
X167113Y53302D01*
Y48698D01*
G37*
G36*
Y38698D02*X166692Y39192D01*
X166153Y39652D01*
X165549Y40022D01*
X164895Y40293D01*
X164206Y40458D01*
X163502Y40514D01*
Y41486D01*
X164206Y41542D01*
X164895Y41707D01*
X165549Y41978D01*
X166153Y42348D01*
X166692Y42808D01*
X167113Y43302D01*
Y38698D01*
G37*
G36*
Y28698D02*X166692Y29192D01*
X166153Y29652D01*
X165549Y30022D01*
X164895Y30293D01*
X164206Y30458D01*
X163502Y30514D01*
Y31486D01*
X164206Y31542D01*
X164895Y31707D01*
X165549Y31978D01*
X166153Y32348D01*
X166692Y32808D01*
X167113Y33302D01*
Y28698D01*
G37*
G36*
Y5500D02*X163502D01*
Y21486D01*
X164206Y21542D01*
X164895Y21707D01*
X165549Y21978D01*
X166153Y22348D01*
X166692Y22808D01*
X167113Y23302D01*
Y5500D01*
G37*
G36*
X163502Y142500D02*X167113D01*
Y123187D01*
X163502Y126798D01*
Y142500D01*
G37*
G36*
X159887Y33302D02*X160308Y32808D01*
X160847Y32348D01*
X161451Y31978D01*
X162105Y31707D01*
X162794Y31542D01*
X163500Y31486D01*
X163502Y31486D01*
Y30514D01*
X163500Y30514D01*
X162794Y30458D01*
X162105Y30293D01*
X161451Y30022D01*
X160847Y29652D01*
X160308Y29192D01*
X159887Y28698D01*
Y33302D01*
G37*
G36*
Y43302D02*X160308Y42808D01*
X160847Y42348D01*
X161451Y41978D01*
X162105Y41707D01*
X162794Y41542D01*
X163500Y41486D01*
X163502Y41486D01*
Y40514D01*
X163500Y40514D01*
X162794Y40458D01*
X162105Y40293D01*
X161451Y40022D01*
X160847Y39652D01*
X160308Y39192D01*
X159887Y38698D01*
Y43302D01*
G37*
G36*
Y53302D02*X160308Y52808D01*
X160847Y52348D01*
X161451Y51978D01*
X162105Y51707D01*
X162794Y51542D01*
X163500Y51486D01*
X163502Y51486D01*
Y50514D01*
X163500Y50514D01*
X162794Y50458D01*
X162105Y50293D01*
X161451Y50022D01*
X160847Y49652D01*
X160308Y49192D01*
X159887Y48698D01*
Y53302D01*
G37*
G36*
Y71000D02*X163502D01*
Y70505D01*
X163500Y70505D01*
X163067Y70484D01*
X162637Y70422D01*
X162216Y70318D01*
X161806Y70175D01*
X161700Y70122D01*
X161604Y70053D01*
X161519Y69970D01*
X161449Y69875D01*
X161394Y69769D01*
X161357Y69657D01*
X161337Y69540D01*
X161336Y69421D01*
X161354Y69304D01*
X161390Y69191D01*
X161443Y69085D01*
X161512Y68988D01*
X161595Y68904D01*
X161691Y68833D01*
X161796Y68779D01*
X161908Y68741D01*
X162025Y68722D01*
X162144Y68721D01*
X162261Y68739D01*
X162374Y68777D01*
X162645Y68876D01*
X162925Y68944D01*
X163211Y68986D01*
X163500Y69000D01*
X163502Y69000D01*
Y63000D01*
X163500Y63000D01*
X163211Y63014D01*
X162925Y63056D01*
X162645Y63124D01*
X162372Y63220D01*
X162261Y63258D01*
X162144Y63275D01*
X162026Y63275D01*
X161909Y63255D01*
X161797Y63218D01*
X161693Y63164D01*
X161598Y63094D01*
X161515Y63009D01*
X161446Y62913D01*
X161393Y62808D01*
X161357Y62695D01*
X161340Y62579D01*
X161341Y62461D01*
X161360Y62344D01*
X161397Y62232D01*
X161452Y62127D01*
X161522Y62032D01*
X161606Y61949D01*
X161702Y61881D01*
X161808Y61830D01*
X162216Y61682D01*
X162637Y61578D01*
X163067Y61516D01*
X163500Y61495D01*
X163502Y61495D01*
Y60514D01*
X163500Y60514D01*
X162794Y60458D01*
X162105Y60293D01*
X161451Y60022D01*
X160847Y59652D01*
X160308Y59192D01*
X159887Y58698D01*
Y63849D01*
X159960Y63837D01*
X160079Y63836D01*
X160196Y63854D01*
X160309Y63890D01*
X160415Y63943D01*
X160512Y64012D01*
X160596Y64095D01*
X160667Y64191D01*
X160721Y64296D01*
X160759Y64408D01*
X160778Y64525D01*
X160779Y64644D01*
X160761Y64761D01*
X160723Y64874D01*
X160624Y65145D01*
X160556Y65425D01*
X160514Y65711D01*
X160500Y66000D01*
X160514Y66289D01*
X160556Y66575D01*
X160624Y66855D01*
X160720Y67128D01*
X160758Y67239D01*
X160775Y67356D01*
X160775Y67474D01*
X160755Y67591D01*
X160718Y67703D01*
X160664Y67807D01*
X160594Y67902D01*
X160509Y67985D01*
X160413Y68054D01*
X160308Y68107D01*
X160195Y68143D01*
X160079Y68160D01*
X159961Y68159D01*
X159887Y68147D01*
Y71000D01*
G37*
G36*
X163502Y5500D02*X159887D01*
Y23302D01*
X160308Y22808D01*
X160847Y22348D01*
X161451Y21978D01*
X162105Y21707D01*
X162794Y21542D01*
X163500Y21486D01*
X163502Y21486D01*
Y5500D01*
G37*
G36*
X159887D02*X145950D01*
Y71000D01*
X159887D01*
Y68147D01*
X159844Y68140D01*
X159732Y68103D01*
X159627Y68048D01*
X159532Y67978D01*
X159449Y67894D01*
X159381Y67798D01*
X159330Y67692D01*
X159182Y67284D01*
X159078Y66863D01*
X159016Y66433D01*
X158995Y66000D01*
X159016Y65567D01*
X159078Y65137D01*
X159182Y64716D01*
X159325Y64306D01*
X159378Y64200D01*
X159447Y64104D01*
X159530Y64019D01*
X159625Y63949D01*
X159731Y63894D01*
X159843Y63857D01*
X159887Y63849D01*
Y58698D01*
X159848Y58653D01*
X159478Y58049D01*
X159207Y57395D01*
X159042Y56706D01*
X158986Y56000D01*
X159042Y55294D01*
X159207Y54605D01*
X159478Y53951D01*
X159848Y53347D01*
X159887Y53302D01*
Y48698D01*
X159848Y48653D01*
X159478Y48049D01*
X159207Y47395D01*
X159042Y46706D01*
X158986Y46000D01*
X159042Y45294D01*
X159207Y44605D01*
X159478Y43951D01*
X159848Y43347D01*
X159887Y43302D01*
Y38698D01*
X159848Y38653D01*
X159478Y38049D01*
X159207Y37395D01*
X159042Y36706D01*
X158986Y36000D01*
X159042Y35294D01*
X159207Y34605D01*
X159478Y33951D01*
X159848Y33347D01*
X159887Y33302D01*
Y28698D01*
X159848Y28653D01*
X159478Y28049D01*
X159207Y27395D01*
X159042Y26706D01*
X158986Y26000D01*
X159042Y25294D01*
X159207Y24605D01*
X159478Y23951D01*
X159848Y23347D01*
X159887Y23302D01*
Y5500D01*
G37*
G36*
X145950Y142500D02*X163502D01*
Y126798D01*
X158800Y131500D01*
X145950D01*
Y142500D01*
G37*
G36*
X137250Y71000D02*X145950D01*
Y5500D01*
X137250D01*
Y23748D01*
X137368Y23757D01*
X137482Y23785D01*
X137592Y23830D01*
X137692Y23891D01*
X137782Y23968D01*
X137859Y24058D01*
X137920Y24158D01*
X137965Y24268D01*
X137993Y24382D01*
X138000Y24500D01*
Y27500D01*
X137993Y27618D01*
X137965Y27732D01*
X137920Y27842D01*
X137859Y27942D01*
X137782Y28032D01*
X137692Y28109D01*
X137592Y28170D01*
X137482Y28215D01*
X137368Y28243D01*
X137250Y28252D01*
Y33507D01*
X137522Y33951D01*
X137793Y34605D01*
X137958Y35294D01*
X138000Y36000D01*
X137958Y36706D01*
X137793Y37395D01*
X137522Y38049D01*
X137250Y38493D01*
Y43507D01*
X137522Y43951D01*
X137793Y44605D01*
X137958Y45294D01*
X138000Y46000D01*
X137958Y46706D01*
X137793Y47395D01*
X137522Y48049D01*
X137250Y48493D01*
Y53507D01*
X137522Y53951D01*
X137793Y54605D01*
X137958Y55294D01*
X138000Y56000D01*
X137958Y56706D01*
X137793Y57395D01*
X137522Y58049D01*
X137250Y58493D01*
Y63891D01*
X137268Y63897D01*
X137373Y63952D01*
X137468Y64022D01*
X137551Y64106D01*
X137619Y64202D01*
X137670Y64308D01*
X137818Y64716D01*
X137922Y65137D01*
X137984Y65567D01*
X138005Y66000D01*
X137984Y66433D01*
X137922Y66863D01*
X137818Y67284D01*
X137675Y67694D01*
X137622Y67800D01*
X137553Y67896D01*
X137470Y67981D01*
X137375Y68051D01*
X137269Y68106D01*
X137250Y68112D01*
Y71000D01*
G37*
G36*
Y48493D02*X137152Y48653D01*
X136692Y49192D01*
X136153Y49652D01*
X135549Y50022D01*
X134895Y50293D01*
X134206Y50458D01*
X133500Y50514D01*
Y51486D01*
X134206Y51542D01*
X134895Y51707D01*
X135549Y51978D01*
X136153Y52348D01*
X136692Y52808D01*
X137152Y53347D01*
X137250Y53507D01*
Y48493D01*
G37*
G36*
Y38493D02*X137152Y38653D01*
X136692Y39192D01*
X136153Y39652D01*
X135549Y40022D01*
X134895Y40293D01*
X134206Y40458D01*
X133500Y40514D01*
Y41486D01*
X134206Y41542D01*
X134895Y41707D01*
X135549Y41978D01*
X136153Y42348D01*
X136692Y42808D01*
X137152Y43347D01*
X137250Y43507D01*
Y38493D01*
G37*
G36*
Y5500D02*X133500D01*
Y21500D01*
X135000D01*
X135118Y21507D01*
X135232Y21535D01*
X135342Y21580D01*
X135442Y21641D01*
X135532Y21718D01*
X135609Y21808D01*
X135670Y21908D01*
X135715Y22018D01*
X135743Y22132D01*
X135752Y22250D01*
X135743Y22368D01*
X135715Y22482D01*
X135670Y22592D01*
X135609Y22692D01*
X135532Y22782D01*
X135442Y22859D01*
X135342Y22920D01*
X135232Y22965D01*
X135118Y22993D01*
X135000Y23000D01*
X133500D01*
Y29000D01*
X135000D01*
X135118Y29007D01*
X135232Y29035D01*
X135342Y29080D01*
X135442Y29141D01*
X135532Y29218D01*
X135609Y29308D01*
X135670Y29408D01*
X135715Y29518D01*
X135743Y29632D01*
X135752Y29750D01*
X135743Y29868D01*
X135715Y29982D01*
X135670Y30092D01*
X135609Y30192D01*
X135532Y30282D01*
X135442Y30359D01*
X135342Y30420D01*
X135232Y30465D01*
X135118Y30493D01*
X135000Y30500D01*
X133500D01*
Y31486D01*
X134206Y31542D01*
X134895Y31707D01*
X135549Y31978D01*
X136153Y32348D01*
X136692Y32808D01*
X137152Y33347D01*
X137250Y33507D01*
Y28252D01*
X137132Y28243D01*
X137018Y28215D01*
X136908Y28170D01*
X136808Y28109D01*
X136718Y28032D01*
X136641Y27942D01*
X136580Y27842D01*
X136535Y27732D01*
X136507Y27618D01*
X136500Y27500D01*
Y24500D01*
X136507Y24382D01*
X136535Y24268D01*
X136580Y24158D01*
X136641Y24058D01*
X136718Y23968D01*
X136808Y23891D01*
X136908Y23830D01*
X137018Y23785D01*
X137132Y23757D01*
X137250Y23748D01*
Y5500D01*
G37*
G36*
X133500Y71000D02*X137250D01*
Y68112D01*
X137157Y68143D01*
X137040Y68163D01*
X136921Y68164D01*
X136804Y68146D01*
X136691Y68110D01*
X136585Y68057D01*
X136488Y67988D01*
X136404Y67905D01*
X136333Y67809D01*
X136279Y67704D01*
X136241Y67592D01*
X136222Y67475D01*
X136221Y67356D01*
X136239Y67239D01*
X136277Y67126D01*
X136376Y66855D01*
X136444Y66575D01*
X136486Y66289D01*
X136500Y66000D01*
X136486Y65711D01*
X136444Y65425D01*
X136376Y65145D01*
X136280Y64872D01*
X136242Y64761D01*
X136225Y64644D01*
X136225Y64526D01*
X136245Y64409D01*
X136282Y64297D01*
X136336Y64193D01*
X136406Y64098D01*
X136491Y64015D01*
X136587Y63946D01*
X136692Y63893D01*
X136805Y63857D01*
X136921Y63840D01*
X137039Y63841D01*
X137156Y63860D01*
X137250Y63891D01*
Y58493D01*
X137152Y58653D01*
X136692Y59192D01*
X136153Y59652D01*
X135549Y60022D01*
X134895Y60293D01*
X134206Y60458D01*
X133500Y60514D01*
Y61495D01*
X133933Y61516D01*
X134363Y61578D01*
X134784Y61682D01*
X135194Y61825D01*
X135300Y61878D01*
X135396Y61947D01*
X135481Y62030D01*
X135551Y62125D01*
X135606Y62231D01*
X135643Y62343D01*
X135663Y62460D01*
X135664Y62579D01*
X135646Y62696D01*
X135610Y62809D01*
X135557Y62915D01*
X135488Y63012D01*
X135405Y63096D01*
X135309Y63167D01*
X135204Y63221D01*
X135092Y63259D01*
X134975Y63278D01*
X134856Y63279D01*
X134739Y63261D01*
X134626Y63223D01*
X134355Y63124D01*
X134075Y63056D01*
X133789Y63014D01*
X133500Y63000D01*
Y69000D01*
X133789Y68986D01*
X134075Y68944D01*
X134355Y68876D01*
X134628Y68780D01*
X134739Y68742D01*
X134856Y68725D01*
X134974Y68725D01*
X135091Y68745D01*
X135203Y68782D01*
X135307Y68836D01*
X135402Y68906D01*
X135485Y68991D01*
X135554Y69087D01*
X135607Y69192D01*
X135643Y69305D01*
X135660Y69421D01*
X135659Y69539D01*
X135640Y69656D01*
X135603Y69768D01*
X135548Y69873D01*
X135478Y69968D01*
X135394Y70051D01*
X135298Y70119D01*
X135192Y70170D01*
X134784Y70318D01*
X134363Y70422D01*
X133933Y70484D01*
X133500Y70505D01*
Y71000D01*
G37*
G36*
Y142500D02*X145950D01*
Y131500D01*
X137000D01*
X133500Y128000D01*
Y142500D01*
G37*
G36*
Y40514D02*X133500D01*
X132794Y40458D01*
X132105Y40293D01*
X131451Y40022D01*
X130847Y39652D01*
X130308Y39192D01*
X130144Y39000D01*
X122456D01*
X122455Y39897D01*
X122418Y40050D01*
X122358Y40195D01*
X122276Y40330D01*
X122173Y40449D01*
X122054Y40552D01*
X121919Y40634D01*
X121774Y40694D01*
X121621Y40731D01*
X121464Y40740D01*
X118890Y40735D01*
Y52060D01*
X120716Y52063D01*
X120869Y52100D01*
X121014Y52160D01*
X121149Y52242D01*
X121268Y52345D01*
X121371Y52464D01*
X121453Y52599D01*
X121513Y52744D01*
X121550Y52897D01*
X121556Y53000D01*
X130144D01*
X130308Y52808D01*
X130847Y52348D01*
X131451Y51978D01*
X132105Y51707D01*
X132794Y51542D01*
X133500Y51486D01*
X133500D01*
Y50514D01*
X133500D01*
X132794Y50458D01*
X132105Y50293D01*
X131451Y50022D01*
X130847Y49652D01*
X130308Y49192D01*
X129848Y48653D01*
X129478Y48049D01*
X129207Y47395D01*
X129042Y46706D01*
X128986Y46000D01*
X129042Y45294D01*
X129207Y44605D01*
X129478Y43951D01*
X129848Y43347D01*
X130308Y42808D01*
X130847Y42348D01*
X131451Y41978D01*
X132105Y41707D01*
X132794Y41542D01*
X133500Y41486D01*
X133500D01*
Y40514D01*
G37*
G36*
Y5500D02*X129750D01*
Y23748D01*
X129868Y23757D01*
X129982Y23785D01*
X130092Y23830D01*
X130192Y23891D01*
X130282Y23968D01*
X130359Y24058D01*
X130420Y24158D01*
X130465Y24268D01*
X130493Y24382D01*
X130500Y24500D01*
Y27500D01*
X130493Y27618D01*
X130465Y27732D01*
X130420Y27842D01*
X130359Y27942D01*
X130282Y28032D01*
X130192Y28109D01*
X130092Y28170D01*
X129982Y28215D01*
X129868Y28243D01*
X129750Y28252D01*
Y33000D01*
X130144D01*
X130308Y32808D01*
X130847Y32348D01*
X131451Y31978D01*
X132105Y31707D01*
X132794Y31542D01*
X133500Y31486D01*
X133500D01*
Y30500D01*
X132000D01*
X131882Y30493D01*
X131768Y30465D01*
X131658Y30420D01*
X131558Y30359D01*
X131468Y30282D01*
X131391Y30192D01*
X131330Y30092D01*
X131285Y29982D01*
X131257Y29868D01*
X131248Y29750D01*
X131257Y29632D01*
X131285Y29518D01*
X131330Y29408D01*
X131391Y29308D01*
X131468Y29218D01*
X131558Y29141D01*
X131658Y29080D01*
X131768Y29035D01*
X131882Y29007D01*
X132000Y29000D01*
X133500D01*
Y23000D01*
X132000D01*
X131882Y22993D01*
X131768Y22965D01*
X131658Y22920D01*
X131558Y22859D01*
X131468Y22782D01*
X131391Y22692D01*
X131330Y22592D01*
X131285Y22482D01*
X131257Y22368D01*
X131248Y22250D01*
X131257Y22132D01*
X131285Y22018D01*
X131330Y21908D01*
X131391Y21808D01*
X131468Y21718D01*
X131558Y21641D01*
X131658Y21580D01*
X131768Y21535D01*
X131882Y21507D01*
X132000Y21500D01*
X133500D01*
Y5500D01*
G37*
G36*
X129750D02*X118890D01*
Y31264D01*
X121621Y31269D01*
X121774Y31306D01*
X121919Y31366D01*
X122054Y31448D01*
X122173Y31551D01*
X122276Y31670D01*
X122358Y31805D01*
X122418Y31950D01*
X122455Y32103D01*
X122464Y32260D01*
X122463Y33000D01*
X129750D01*
Y28252D01*
X129632Y28243D01*
X129518Y28215D01*
X129408Y28170D01*
X129308Y28109D01*
X129218Y28032D01*
X129141Y27942D01*
X129080Y27842D01*
X129035Y27732D01*
X129007Y27618D01*
X129000Y27500D01*
Y24500D01*
X129007Y24382D01*
X129035Y24268D01*
X129080Y24158D01*
X129141Y24058D01*
X129218Y23968D01*
X129308Y23891D01*
X129408Y23830D01*
X129518Y23785D01*
X129632Y23757D01*
X129750Y23748D01*
Y5500D01*
G37*
G36*
X129887Y73302D02*X130308Y72808D01*
X130847Y72348D01*
X130860Y72340D01*
X132200Y71000D01*
X133500D01*
Y70505D01*
X133500D01*
X133067Y70484D01*
X132637Y70422D01*
X132216Y70318D01*
X131806Y70175D01*
X131700Y70122D01*
X131604Y70053D01*
X131519Y69970D01*
X131449Y69875D01*
X131394Y69769D01*
X131357Y69657D01*
X131337Y69540D01*
X131336Y69421D01*
X131354Y69304D01*
X131390Y69191D01*
X131443Y69085D01*
X131512Y68988D01*
X131595Y68904D01*
X131691Y68833D01*
X131796Y68779D01*
X131908Y68741D01*
X132025Y68722D01*
X132144Y68721D01*
X132261Y68739D01*
X132374Y68777D01*
X132645Y68876D01*
X132925Y68944D01*
X133211Y68986D01*
X133500Y69000D01*
X133500D01*
Y63000D01*
X133500D01*
X133211Y63014D01*
X132925Y63056D01*
X132645Y63124D01*
X132372Y63220D01*
X132261Y63258D01*
X132144Y63275D01*
X132026Y63275D01*
X131909Y63255D01*
X131797Y63218D01*
X131693Y63164D01*
X131598Y63094D01*
X131515Y63009D01*
X131446Y62913D01*
X131393Y62808D01*
X131357Y62695D01*
X131340Y62579D01*
X131341Y62461D01*
X131360Y62344D01*
X131397Y62232D01*
X131452Y62127D01*
X131522Y62032D01*
X131606Y61949D01*
X131702Y61881D01*
X131808Y61830D01*
X132216Y61682D01*
X132637Y61578D01*
X133067Y61516D01*
X133500Y61495D01*
X133500D01*
Y60514D01*
X133500D01*
X132794Y60458D01*
X132105Y60293D01*
X131451Y60022D01*
X130847Y59652D01*
X130308Y59192D01*
X130144Y59000D01*
X129887D01*
Y63849D01*
X129960Y63837D01*
X130079Y63836D01*
X130196Y63854D01*
X130309Y63890D01*
X130415Y63943D01*
X130512Y64012D01*
X130596Y64095D01*
X130667Y64191D01*
X130721Y64296D01*
X130759Y64408D01*
X130778Y64525D01*
X130779Y64644D01*
X130761Y64761D01*
X130723Y64874D01*
X130624Y65145D01*
X130556Y65425D01*
X130514Y65711D01*
X130500Y66000D01*
X130514Y66289D01*
X130556Y66575D01*
X130624Y66855D01*
X130720Y67128D01*
X130758Y67239D01*
X130775Y67356D01*
X130775Y67474D01*
X130755Y67591D01*
X130718Y67703D01*
X130664Y67807D01*
X130594Y67902D01*
X130509Y67985D01*
X130413Y68054D01*
X130308Y68107D01*
X130195Y68143D01*
X130079Y68160D01*
X129961Y68159D01*
X129887Y68147D01*
Y73302D01*
G37*
G36*
Y142500D02*X133500D01*
Y128000D01*
X129887Y124387D01*
Y142500D01*
G37*
G36*
X118890D02*X129887D01*
Y124387D01*
X122000Y116500D01*
Y81200D01*
X129840Y73360D01*
X129848Y73347D01*
X129887Y73302D01*
Y68147D01*
X129844Y68140D01*
X129732Y68103D01*
X129627Y68048D01*
X129532Y67978D01*
X129449Y67894D01*
X129381Y67798D01*
X129330Y67692D01*
X129182Y67284D01*
X129078Y66863D01*
X129016Y66433D01*
X128995Y66000D01*
X129016Y65567D01*
X129078Y65137D01*
X129182Y64716D01*
X129325Y64306D01*
X129378Y64200D01*
X129447Y64104D01*
X129530Y64019D01*
X129625Y63949D01*
X129731Y63894D01*
X129843Y63857D01*
X129887Y63849D01*
Y59000D01*
X121550D01*
X121550Y59115D01*
X121513Y59268D01*
X121453Y59413D01*
X121371Y59548D01*
X121268Y59667D01*
X121149Y59770D01*
X121014Y59852D01*
X120869Y59912D01*
X120716Y59949D01*
X120559Y59958D01*
X118890Y59955D01*
Y132035D01*
X118981Y132053D01*
X119092Y132093D01*
X119195Y132151D01*
X119288Y132223D01*
X119369Y132310D01*
X119435Y132408D01*
X119482Y132515D01*
X119603Y132875D01*
X119687Y133245D01*
X119737Y133621D01*
X119754Y134000D01*
X119737Y134379D01*
X119687Y134755D01*
X119603Y135125D01*
X119486Y135486D01*
X119437Y135594D01*
X119371Y135692D01*
X119290Y135779D01*
X119197Y135852D01*
X119093Y135909D01*
X118982Y135950D01*
X118890Y135968D01*
Y142500D01*
G37*
G36*
Y40735D02*X116189Y40731D01*
X116036Y40694D01*
X115891Y40634D01*
X115756Y40552D01*
X115637Y40449D01*
X115534Y40330D01*
X115501Y40276D01*
Y52054D01*
X118890Y52060D01*
Y40735D01*
G37*
G36*
Y5500D02*X115501D01*
Y31724D01*
X115534Y31670D01*
X115637Y31551D01*
X115756Y31448D01*
X115891Y31366D01*
X116036Y31306D01*
X116189Y31269D01*
X116346Y31260D01*
X118890Y31264D01*
Y5500D01*
G37*
G36*
X115501Y142500D02*X118890D01*
Y135968D01*
X118866Y135973D01*
X118747Y135977D01*
X118630Y135963D01*
X118516Y135930D01*
X118408Y135880D01*
X118310Y135814D01*
X118223Y135733D01*
X118150Y135640D01*
X118093Y135536D01*
X118052Y135425D01*
X118029Y135309D01*
X118025Y135190D01*
X118039Y135073D01*
X118074Y134960D01*
X118152Y134727D01*
X118206Y134488D01*
X118239Y134245D01*
X118250Y134000D01*
X118239Y133755D01*
X118206Y133512D01*
X118152Y133273D01*
X118077Y133039D01*
X118042Y132927D01*
X118028Y132810D01*
X118032Y132692D01*
X118055Y132576D01*
X118095Y132465D01*
X118153Y132362D01*
X118225Y132269D01*
X118312Y132188D01*
X118410Y132122D01*
X118517Y132073D01*
X118630Y132040D01*
X118747Y132026D01*
X118865Y132030D01*
X118890Y132035D01*
Y59955D01*
X115501Y59949D01*
Y129746D01*
X115879Y129763D01*
X116255Y129813D01*
X116625Y129897D01*
X116986Y130014D01*
X117094Y130063D01*
X117192Y130129D01*
X117279Y130210D01*
X117352Y130303D01*
X117409Y130407D01*
X117450Y130518D01*
X117473Y130634D01*
X117477Y130753D01*
X117463Y130870D01*
X117430Y130984D01*
X117380Y131092D01*
X117314Y131190D01*
X117233Y131277D01*
X117140Y131350D01*
X117036Y131407D01*
X116925Y131448D01*
X116809Y131471D01*
X116690Y131475D01*
X116573Y131461D01*
X116460Y131426D01*
X116227Y131348D01*
X115988Y131294D01*
X115745Y131261D01*
X115501Y131250D01*
Y136750D01*
X115745Y136739D01*
X115988Y136706D01*
X116227Y136652D01*
X116461Y136577D01*
X116573Y136542D01*
X116690Y136528D01*
X116808Y136532D01*
X116924Y136555D01*
X117035Y136595D01*
X117138Y136653D01*
X117231Y136725D01*
X117312Y136812D01*
X117378Y136910D01*
X117427Y137017D01*
X117460Y137130D01*
X117474Y137247D01*
X117470Y137365D01*
X117447Y137481D01*
X117407Y137592D01*
X117349Y137695D01*
X117277Y137788D01*
X117190Y137869D01*
X117092Y137935D01*
X116985Y137982D01*
X116625Y138103D01*
X116255Y138187D01*
X115879Y138237D01*
X115501Y138254D01*
Y142500D01*
G37*
G36*
X112110Y52061D02*X113630Y52063D01*
X113783Y52100D01*
X113928Y52160D01*
X114063Y52242D01*
X114182Y52345D01*
X114285Y52464D01*
X114367Y52599D01*
X114427Y52744D01*
X114457Y52869D01*
X114487Y52744D01*
X114547Y52599D01*
X114629Y52464D01*
X114732Y52345D01*
X114851Y52242D01*
X114986Y52160D01*
X115131Y52100D01*
X115284Y52063D01*
X115441Y52054D01*
X115501Y52054D01*
Y40276D01*
X115452Y40195D01*
X115392Y40050D01*
X115355Y39897D01*
X115346Y39740D01*
X115355Y32103D01*
X115392Y31950D01*
X115452Y31805D01*
X115501Y31724D01*
Y5500D01*
X112110D01*
Y52061D01*
G37*
G36*
Y142500D02*X115501D01*
Y138254D01*
X115500Y138254D01*
X115121Y138237D01*
X114745Y138187D01*
X114375Y138103D01*
X114014Y137986D01*
X113906Y137937D01*
X113808Y137871D01*
X113721Y137790D01*
X113648Y137697D01*
X113591Y137593D01*
X113550Y137482D01*
X113527Y137366D01*
X113523Y137247D01*
X113537Y137130D01*
X113570Y137016D01*
X113620Y136908D01*
X113686Y136810D01*
X113767Y136723D01*
X113860Y136650D01*
X113964Y136593D01*
X114075Y136552D01*
X114191Y136529D01*
X114310Y136525D01*
X114427Y136539D01*
X114540Y136574D01*
X114773Y136652D01*
X115012Y136706D01*
X115255Y136739D01*
X115500Y136750D01*
X115501Y136750D01*
Y131250D01*
X115500Y131250D01*
X115255Y131261D01*
X115012Y131294D01*
X114773Y131348D01*
X114539Y131423D01*
X114427Y131458D01*
X114310Y131472D01*
X114192Y131468D01*
X114076Y131445D01*
X113965Y131405D01*
X113862Y131347D01*
X113769Y131275D01*
X113688Y131188D01*
X113622Y131090D01*
X113573Y130983D01*
X113540Y130870D01*
X113526Y130753D01*
X113530Y130635D01*
X113553Y130519D01*
X113593Y130408D01*
X113651Y130305D01*
X113723Y130212D01*
X113810Y130131D01*
X113908Y130065D01*
X114015Y130018D01*
X114375Y129897D01*
X114745Y129813D01*
X115121Y129763D01*
X115500Y129746D01*
X115501Y129746D01*
Y59949D01*
X115284Y59949D01*
X115131Y59912D01*
X114986Y59852D01*
X114851Y59770D01*
X114732Y59667D01*
X114629Y59548D01*
X114547Y59413D01*
X114487Y59268D01*
X114457Y59143D01*
X114427Y59268D01*
X114367Y59413D01*
X114285Y59548D01*
X114182Y59667D01*
X114063Y59770D01*
X113928Y59852D01*
X113783Y59912D01*
X113630Y59949D01*
X113473Y59958D01*
X112110Y59956D01*
Y132032D01*
X112134Y132027D01*
X112253Y132023D01*
X112370Y132037D01*
X112484Y132070D01*
X112592Y132120D01*
X112690Y132186D01*
X112777Y132267D01*
X112850Y132360D01*
X112907Y132464D01*
X112948Y132575D01*
X112971Y132691D01*
X112975Y132810D01*
X112961Y132927D01*
X112926Y133040D01*
X112848Y133273D01*
X112794Y133512D01*
X112761Y133755D01*
X112750Y134000D01*
X112761Y134245D01*
X112794Y134488D01*
X112848Y134727D01*
X112923Y134961D01*
X112958Y135073D01*
X112972Y135190D01*
X112968Y135308D01*
X112945Y135424D01*
X112905Y135535D01*
X112847Y135638D01*
X112775Y135731D01*
X112688Y135812D01*
X112590Y135878D01*
X112483Y135927D01*
X112370Y135960D01*
X112253Y135974D01*
X112135Y135970D01*
X112110Y135965D01*
Y142500D01*
G37*
G36*
X107095D02*X112110D01*
Y135965D01*
X112019Y135947D01*
X111908Y135907D01*
X111805Y135850D01*
X111712Y135777D01*
X111631Y135690D01*
X111565Y135592D01*
X111518Y135485D01*
X111397Y135125D01*
X111313Y134755D01*
X111263Y134379D01*
X111246Y134000D01*
X111263Y133621D01*
X111313Y133245D01*
X111397Y132875D01*
X111514Y132514D01*
X111563Y132406D01*
X111629Y132308D01*
X111710Y132221D01*
X111803Y132148D01*
X111907Y132091D01*
X112018Y132050D01*
X112110Y132032D01*
Y59956D01*
X108198Y59949D01*
X108045Y59912D01*
X107900Y59852D01*
X107765Y59770D01*
X107646Y59667D01*
X107543Y59548D01*
X107461Y59413D01*
X107401Y59268D01*
X107364Y59115D01*
X107355Y58958D01*
X107364Y52897D01*
X107401Y52744D01*
X107461Y52599D01*
X107543Y52464D01*
X107646Y52345D01*
X107765Y52242D01*
X107900Y52160D01*
X108045Y52100D01*
X108198Y52063D01*
X108355Y52054D01*
X112110Y52061D01*
Y5500D01*
X107095D01*
Y31264D01*
X109811Y31269D01*
X109964Y31306D01*
X110109Y31366D01*
X110244Y31448D01*
X110363Y31551D01*
X110466Y31670D01*
X110548Y31805D01*
X110608Y31950D01*
X110645Y32103D01*
X110654Y32260D01*
X110645Y39897D01*
X110608Y40050D01*
X110548Y40195D01*
X110466Y40330D01*
X110363Y40449D01*
X110244Y40552D01*
X110109Y40634D01*
X109964Y40694D01*
X109811Y40731D01*
X109654Y40740D01*
X107095Y40736D01*
Y69586D01*
X107118Y69606D01*
X107221Y69725D01*
X107303Y69860D01*
X107363Y70005D01*
X107400Y70158D01*
X107409Y70315D01*
X107400Y78346D01*
X107363Y78499D01*
X107303Y78644D01*
X107221Y78779D01*
X107118Y78898D01*
X107095Y78918D01*
Y85068D01*
X109716Y85072D01*
X109869Y85109D01*
X110014Y85169D01*
X110149Y85251D01*
X110268Y85354D01*
X110371Y85473D01*
X110453Y85608D01*
X110513Y85753D01*
X110550Y85906D01*
X110559Y86063D01*
X110550Y94094D01*
X110513Y94247D01*
X110453Y94392D01*
X110371Y94527D01*
X110268Y94646D01*
X110149Y94749D01*
X110014Y94831D01*
X109869Y94891D01*
X109716Y94928D01*
X109559Y94937D01*
X107095Y94933D01*
Y112093D01*
X108647Y112095D01*
X108800Y112132D01*
X108945Y112192D01*
X109080Y112274D01*
X109199Y112377D01*
X109302Y112496D01*
X109384Y112631D01*
X109444Y112776D01*
X109481Y112929D01*
X109490Y113086D01*
X109481Y120723D01*
X109444Y120876D01*
X109384Y121021D01*
X109302Y121156D01*
X109199Y121275D01*
X109080Y121378D01*
X108945Y121460D01*
X108800Y121520D01*
X108647Y121557D01*
X108490Y121566D01*
X107095Y121564D01*
Y142500D01*
G37*
G36*
Y5500D02*X97945D01*
Y69504D01*
X97945Y69503D01*
X98080Y69421D01*
X98225Y69361D01*
X98378Y69324D01*
X98535Y69315D01*
X99000Y69316D01*
Y66646D01*
X98754Y66358D01*
X98425Y65822D01*
X98184Y65240D01*
X98037Y64628D01*
X97988Y64000D01*
X98037Y63372D01*
X98184Y62760D01*
X98425Y62178D01*
X98754Y61642D01*
X99163Y61163D01*
X99642Y60754D01*
X100178Y60425D01*
X100760Y60184D01*
X101372Y60037D01*
X102000Y59988D01*
X102628Y60037D01*
X103240Y60184D01*
X103822Y60425D01*
X104358Y60754D01*
X104837Y61163D01*
X105246Y61642D01*
X105575Y62178D01*
X105816Y62760D01*
X105963Y63372D01*
X106000Y64000D01*
X105963Y64628D01*
X105816Y65240D01*
X105575Y65822D01*
X105246Y66358D01*
X105000Y66646D01*
Y69322D01*
X106566Y69324D01*
X106719Y69361D01*
X106864Y69421D01*
X106999Y69503D01*
X107095Y69586D01*
Y40736D01*
X104379Y40731D01*
X104226Y40694D01*
X104081Y40634D01*
X103946Y40552D01*
X103827Y40449D01*
X103724Y40330D01*
X103642Y40195D01*
X103582Y40050D01*
X103545Y39897D01*
X103536Y39740D01*
X103545Y32103D01*
X103582Y31950D01*
X103642Y31805D01*
X103724Y31670D01*
X103827Y31551D01*
X103946Y31448D01*
X104081Y31366D01*
X104226Y31306D01*
X104379Y31269D01*
X104536Y31260D01*
X107095Y31264D01*
Y5500D01*
G37*
G36*
X97945Y142500D02*X107095D01*
Y121564D01*
X103215Y121557D01*
X103062Y121520D01*
X102917Y121460D01*
X102782Y121378D01*
X102663Y121275D01*
X102560Y121156D01*
X102478Y121021D01*
X102418Y120876D01*
X102381Y120723D01*
X102372Y120566D01*
X102381Y112929D01*
X102418Y112776D01*
X102478Y112631D01*
X102560Y112496D01*
X102663Y112377D01*
X102782Y112274D01*
X102917Y112192D01*
X103062Y112132D01*
X103215Y112095D01*
X103372Y112086D01*
X107095Y112093D01*
Y94933D01*
X104284Y94928D01*
X104131Y94891D01*
X103986Y94831D01*
X103851Y94749D01*
X103732Y94646D01*
X103629Y94527D01*
X103547Y94392D01*
X103487Y94247D01*
X103450Y94094D01*
X103441Y93937D01*
X103450Y85906D01*
X103487Y85753D01*
X103547Y85608D01*
X103629Y85473D01*
X103732Y85354D01*
X103851Y85251D01*
X103986Y85169D01*
X104131Y85109D01*
X104284Y85072D01*
X104441Y85063D01*
X107095Y85068D01*
Y78918D01*
X106999Y79001D01*
X106864Y79083D01*
X106719Y79143D01*
X106566Y79180D01*
X106409Y79189D01*
X98378Y79180D01*
X98225Y79143D01*
X98080Y79083D01*
X97945Y79001D01*
X97945Y79000D01*
Y85068D01*
X100661Y85073D01*
X100814Y85110D01*
X100960Y85170D01*
X101094Y85252D01*
X101214Y85354D01*
X101316Y85474D01*
X101398Y85608D01*
X101458Y85754D01*
X101495Y85907D01*
X101504Y86064D01*
X101495Y94094D01*
X101458Y94247D01*
X101398Y94393D01*
X101316Y94527D01*
X101214Y94647D01*
X101094Y94749D01*
X100960Y94831D01*
X100814Y94891D01*
X100661Y94928D01*
X100504Y94938D01*
X100000Y94937D01*
Y96368D01*
X100341Y96659D01*
X100678Y97054D01*
X100949Y97497D01*
X101148Y97977D01*
X101269Y98482D01*
X101300Y99000D01*
X101269Y99518D01*
X101148Y100023D01*
X100949Y100503D01*
X100678Y100946D01*
X100341Y101341D01*
X99946Y101678D01*
X99503Y101949D01*
X99023Y102148D01*
X98518Y102269D01*
X98000Y102310D01*
X97945Y102306D01*
Y142500D01*
G37*
G36*
X84001D02*X97945D01*
Y102306D01*
X97482Y102269D01*
X96977Y102148D01*
X96497Y101949D01*
X96054Y101678D01*
X95659Y101341D01*
X95322Y100946D01*
X95051Y100503D01*
X94852Y100023D01*
X94731Y99518D01*
X94690Y99000D01*
X94731Y98482D01*
X94852Y97977D01*
X95051Y97497D01*
X95322Y97054D01*
X95659Y96659D01*
X96000Y96368D01*
Y94930D01*
X95229Y94928D01*
X95076Y94891D01*
X94930Y94831D01*
X94796Y94749D01*
X94676Y94647D01*
X94574Y94527D01*
X94492Y94393D01*
X94432Y94247D01*
X94395Y94094D01*
X94385Y93938D01*
X94395Y85907D01*
X94432Y85754D01*
X94492Y85608D01*
X94574Y85474D01*
X94676Y85354D01*
X94796Y85252D01*
X94930Y85170D01*
X95076Y85110D01*
X95229Y85073D01*
X95385Y85064D01*
X97945Y85068D01*
Y79000D01*
X97826Y78898D01*
X97723Y78779D01*
X97641Y78644D01*
X97581Y78499D01*
X97544Y78346D01*
X97535Y78189D01*
X97544Y70158D01*
X97581Y70005D01*
X97641Y69860D01*
X97723Y69725D01*
X97826Y69606D01*
X97945Y69504D01*
Y5500D01*
X84001D01*
Y37205D01*
X84032Y37222D01*
X84094Y37270D01*
X84148Y37327D01*
X84191Y37393D01*
X84377Y37748D01*
X84525Y38121D01*
X84637Y38506D01*
X84712Y38900D01*
X84750Y39299D01*
Y39701D01*
X84712Y40100D01*
X84637Y40494D01*
X84525Y40879D01*
X84377Y41252D01*
X84195Y41609D01*
X84151Y41675D01*
X84097Y41733D01*
X84034Y41781D01*
X84001Y41800D01*
Y95752D01*
X84270Y96067D01*
X84271Y96067D01*
X84517Y96470D01*
X84698Y96906D01*
X84808Y97365D01*
X84845Y97836D01*
X84836Y97954D01*
Y112139D01*
X84850Y112145D01*
X84985Y112227D01*
X85104Y112330D01*
X85207Y112449D01*
X85289Y112584D01*
X85349Y112729D01*
X85386Y112882D01*
X85395Y113039D01*
X85394Y113779D01*
X90570D01*
X90571Y112929D01*
X90608Y112776D01*
X90668Y112631D01*
X90750Y112496D01*
X90853Y112377D01*
X90972Y112274D01*
X91107Y112192D01*
X91252Y112132D01*
X91405Y112095D01*
X91562Y112086D01*
X96837Y112095D01*
X96990Y112132D01*
X97135Y112192D01*
X97270Y112274D01*
X97389Y112377D01*
X97492Y112496D01*
X97574Y112631D01*
X97634Y112776D01*
X97671Y112929D01*
X97680Y113086D01*
X97671Y120723D01*
X97634Y120876D01*
X97574Y121021D01*
X97492Y121156D01*
X97389Y121275D01*
X97270Y121378D01*
X97135Y121460D01*
X96990Y121520D01*
X96837Y121557D01*
X96680Y121566D01*
X91405Y121557D01*
X91252Y121520D01*
X91107Y121460D01*
X90972Y121378D01*
X90853Y121275D01*
X90750Y121156D01*
X90668Y121021D01*
X90608Y120876D01*
X90571Y120723D01*
X90562Y120566D01*
X90563Y119779D01*
X85387D01*
X85386Y120676D01*
X85349Y120829D01*
X85289Y120974D01*
X85207Y121109D01*
X85104Y121228D01*
X84985Y121331D01*
X84850Y121413D01*
X84705Y121473D01*
X84552Y121510D01*
X84395Y121519D01*
X84001Y121518D01*
Y142500D01*
G37*
G36*
Y5500D02*X80502D01*
Y35250D01*
X80701D01*
X81100Y35288D01*
X81494Y35363D01*
X81879Y35475D01*
X82252Y35623D01*
X82609Y35805D01*
X82675Y35849D01*
X82733Y35903D01*
X82781Y35966D01*
X82820Y36036D01*
X82846Y36110D01*
X82861Y36188D01*
X82864Y36267D01*
X82854Y36346D01*
X82832Y36422D01*
X82798Y36494D01*
X82753Y36559D01*
X82699Y36617D01*
X82636Y36666D01*
X82567Y36704D01*
X82492Y36731D01*
X82414Y36745D01*
X82335Y36748D01*
X82257Y36738D01*
X82180Y36716D01*
X82109Y36681D01*
X81838Y36538D01*
X81553Y36425D01*
X81259Y36340D01*
X80958Y36282D01*
X80653Y36254D01*
X80502D01*
Y42746D01*
X80653D01*
X80958Y42718D01*
X81259Y42660D01*
X81553Y42575D01*
X81838Y42462D01*
X82111Y42322D01*
X82182Y42288D01*
X82257Y42266D01*
X82335Y42256D01*
X82414Y42258D01*
X82491Y42273D01*
X82565Y42300D01*
X82634Y42337D01*
X82697Y42386D01*
X82750Y42443D01*
X82795Y42508D01*
X82828Y42579D01*
X82850Y42655D01*
X82860Y42733D01*
X82858Y42812D01*
X82843Y42889D01*
X82816Y42963D01*
X82778Y43032D01*
X82730Y43094D01*
X82673Y43148D01*
X82607Y43191D01*
X82252Y43377D01*
X81879Y43525D01*
X81494Y43637D01*
X81100Y43712D01*
X80701Y43750D01*
X80502D01*
Y92259D01*
X83874Y95632D01*
X83964Y95708D01*
X84001Y95752D01*
Y41800D01*
X83964Y41820D01*
X83890Y41846D01*
X83812Y41861D01*
X83733Y41864D01*
X83654Y41854D01*
X83578Y41832D01*
X83506Y41798D01*
X83441Y41753D01*
X83383Y41699D01*
X83334Y41636D01*
X83296Y41567D01*
X83269Y41492D01*
X83255Y41414D01*
X83252Y41335D01*
X83262Y41257D01*
X83284Y41180D01*
X83319Y41109D01*
X83462Y40838D01*
X83575Y40553D01*
X83660Y40259D01*
X83718Y39958D01*
X83746Y39653D01*
Y39347D01*
X83718Y39042D01*
X83660Y38741D01*
X83575Y38447D01*
X83462Y38162D01*
X83322Y37889D01*
X83288Y37818D01*
X83266Y37743D01*
X83256Y37665D01*
X83258Y37586D01*
X83273Y37509D01*
X83300Y37435D01*
X83337Y37366D01*
X83386Y37303D01*
X83443Y37250D01*
X83508Y37205D01*
X83579Y37172D01*
X83655Y37150D01*
X83733Y37140D01*
X83812Y37142D01*
X83889Y37157D01*
X83963Y37184D01*
X84001Y37205D01*
Y5500D01*
G37*
G36*
X80502Y142500D02*X84001D01*
Y121518D01*
X80502Y121512D01*
Y142500D01*
G37*
G36*
X76999Y88756D02*X80502Y92259D01*
Y43750D01*
X80299D01*
X79900Y43712D01*
X79506Y43637D01*
X79121Y43525D01*
X78748Y43377D01*
X78391Y43195D01*
X78325Y43151D01*
X78267Y43097D01*
X78219Y43034D01*
X78180Y42964D01*
X78154Y42890D01*
X78139Y42812D01*
X78136Y42733D01*
X78146Y42654D01*
X78168Y42578D01*
X78202Y42506D01*
X78247Y42441D01*
X78301Y42383D01*
X78364Y42334D01*
X78433Y42296D01*
X78508Y42269D01*
X78586Y42255D01*
X78665Y42252D01*
X78743Y42262D01*
X78820Y42284D01*
X78891Y42319D01*
X79162Y42462D01*
X79447Y42575D01*
X79741Y42660D01*
X80042Y42718D01*
X80347Y42746D01*
X80502D01*
Y36254D01*
X80347D01*
X80042Y36282D01*
X79741Y36340D01*
X79447Y36425D01*
X79162Y36538D01*
X78889Y36678D01*
X78818Y36712D01*
X78743Y36734D01*
X78665Y36744D01*
X78586Y36742D01*
X78509Y36727D01*
X78435Y36700D01*
X78366Y36663D01*
X78303Y36614D01*
X78250Y36557D01*
X78205Y36492D01*
X78172Y36421D01*
X78150Y36345D01*
X78140Y36267D01*
X78142Y36188D01*
X78157Y36111D01*
X78184Y36037D01*
X78222Y35968D01*
X78270Y35906D01*
X78327Y35852D01*
X78393Y35809D01*
X78748Y35623D01*
X79121Y35475D01*
X79506Y35363D01*
X79900Y35288D01*
X80299Y35250D01*
X80502D01*
Y5500D01*
X76999D01*
Y37200D01*
X77036Y37180D01*
X77110Y37154D01*
X77188Y37139D01*
X77267Y37136D01*
X77346Y37146D01*
X77422Y37168D01*
X77494Y37202D01*
X77559Y37247D01*
X77617Y37301D01*
X77666Y37364D01*
X77704Y37433D01*
X77731Y37508D01*
X77745Y37586D01*
X77748Y37665D01*
X77738Y37743D01*
X77716Y37820D01*
X77681Y37891D01*
X77538Y38162D01*
X77425Y38447D01*
X77340Y38741D01*
X77282Y39042D01*
X77254Y39347D01*
Y39653D01*
X77282Y39958D01*
X77340Y40259D01*
X77425Y40553D01*
X77538Y40838D01*
X77678Y41111D01*
X77712Y41182D01*
X77734Y41257D01*
X77744Y41335D01*
X77742Y41414D01*
X77727Y41491D01*
X77700Y41565D01*
X77663Y41634D01*
X77614Y41697D01*
X77557Y41750D01*
X77492Y41795D01*
X77421Y41828D01*
X77345Y41850D01*
X77267Y41860D01*
X77188Y41858D01*
X77111Y41843D01*
X77037Y41816D01*
X76999Y41795D01*
Y64225D01*
X77006Y64255D01*
X77050Y65000D01*
X77006Y65745D01*
X76999Y65775D01*
Y88756D01*
G37*
G36*
Y142500D02*X80502D01*
Y121512D01*
X79120Y121510D01*
X78967Y121473D01*
X78822Y121413D01*
X78687Y121331D01*
X78568Y121228D01*
X78465Y121109D01*
X78383Y120974D01*
X78323Y120829D01*
X78286Y120676D01*
X78277Y120519D01*
X78286Y112882D01*
X78323Y112729D01*
X78383Y112584D01*
X78465Y112449D01*
X78568Y112330D01*
X78687Y112227D01*
X78822Y112145D01*
X78836Y112139D01*
Y99079D01*
X76999Y97242D01*
Y142500D01*
G37*
G36*
X67418Y78607D02*X67740Y78684D01*
X68322Y78925D01*
X68858Y79254D01*
X69337Y79663D01*
X69746Y80142D01*
X70075Y80678D01*
X70316Y81260D01*
X70463Y81872D01*
X70485Y82242D01*
X76999Y88756D01*
Y65775D01*
X76831Y66472D01*
X76545Y67163D01*
X76155Y67801D01*
X75669Y68369D01*
X75101Y68855D01*
X74463Y69245D01*
X73772Y69531D01*
X73045Y69706D01*
X72300Y69765D01*
X71555Y69706D01*
X70828Y69531D01*
X70137Y69245D01*
X69499Y68855D01*
X68931Y68369D01*
X68445Y67801D01*
X68055Y67163D01*
X67769Y66472D01*
X67594Y65745D01*
X67535Y65000D01*
X67594Y64255D01*
X67769Y63528D01*
X68055Y62837D01*
X68445Y62199D01*
X68931Y61631D01*
X69499Y61145D01*
X70137Y60755D01*
X70828Y60469D01*
X71555Y60294D01*
X72300Y60235D01*
X73045Y60294D01*
X73772Y60469D01*
X74463Y60755D01*
X75101Y61145D01*
X75669Y61631D01*
X76155Y62199D01*
X76545Y62837D01*
X76831Y63528D01*
X76999Y64225D01*
Y41795D01*
X76968Y41778D01*
X76906Y41730D01*
X76852Y41673D01*
X76809Y41607D01*
X76623Y41252D01*
X76475Y40879D01*
X76363Y40494D01*
X76288Y40100D01*
X76250Y39701D01*
Y39299D01*
X76288Y38900D01*
X76363Y38506D01*
X76475Y38121D01*
X76623Y37748D01*
X76805Y37391D01*
X76849Y37325D01*
X76903Y37267D01*
X76966Y37219D01*
X76999Y37200D01*
Y5500D01*
X67418D01*
Y78607D01*
G37*
G36*
Y142500D02*X76999D01*
Y97242D01*
X67418Y87660D01*
Y112042D01*
X67467Y112039D01*
X72742Y112048D01*
X72895Y112085D01*
X73040Y112145D01*
X73175Y112227D01*
X73294Y112330D01*
X73397Y112449D01*
X73479Y112584D01*
X73539Y112729D01*
X73576Y112882D01*
X73585Y113039D01*
X73576Y120676D01*
X73539Y120829D01*
X73479Y120974D01*
X73397Y121109D01*
X73294Y121228D01*
X73175Y121331D01*
X73040Y121413D01*
X73026Y121419D01*
Y129356D01*
X73035Y129474D01*
X72998Y129945D01*
X72998Y129945D01*
X72888Y130404D01*
X72707Y130840D01*
X72461Y131243D01*
X72154Y131602D01*
X72064Y131678D01*
X69743Y133999D01*
X69736Y136985D01*
X69681Y137215D01*
X69591Y137433D01*
X69467Y137634D01*
X69314Y137814D01*
X69134Y137967D01*
X68933Y138091D01*
X68715Y138181D01*
X68485Y138236D01*
X68250Y138250D01*
X67418Y138248D01*
Y142500D01*
G37*
G36*
X60493D02*X67418D01*
Y138248D01*
X62515Y138236D01*
X62285Y138181D01*
X62067Y138091D01*
X61866Y137967D01*
X61686Y137814D01*
X61533Y137634D01*
X61409Y137433D01*
X61319Y137215D01*
X61264Y136985D01*
X61250Y136750D01*
X61264Y131015D01*
X61319Y130785D01*
X61409Y130567D01*
X61533Y130366D01*
X61686Y130186D01*
X61866Y130033D01*
X62067Y129909D01*
X62285Y129819D01*
X62515Y129764D01*
X62750Y129750D01*
X65501Y129757D01*
X67026Y128231D01*
Y121419D01*
X67012Y121413D01*
X66877Y121331D01*
X66758Y121228D01*
X66655Y121109D01*
X66573Y120974D01*
X66513Y120829D01*
X66476Y120676D01*
X66467Y120519D01*
X66476Y112882D01*
X66513Y112729D01*
X66573Y112584D01*
X66655Y112449D01*
X66758Y112330D01*
X66877Y112227D01*
X67012Y112145D01*
X67157Y112085D01*
X67310Y112048D01*
X67418Y112042D01*
Y87660D01*
X66250Y86493D01*
X65872Y86463D01*
X65260Y86316D01*
X64678Y86075D01*
X64142Y85746D01*
X63663Y85337D01*
X63254Y84858D01*
X62925Y84322D01*
X62684Y83740D01*
X62537Y83128D01*
X62488Y82500D01*
X62537Y81872D01*
X62684Y81260D01*
X62925Y80678D01*
X63254Y80142D01*
X63663Y79663D01*
X64142Y79254D01*
X64678Y78925D01*
X65260Y78684D01*
X65872Y78537D01*
X66500Y78488D01*
X67128Y78537D01*
X67418Y78607D01*
Y5500D01*
X60493D01*
Y60236D01*
X60500Y60235D01*
X61245Y60294D01*
X61972Y60469D01*
X62663Y60755D01*
X63301Y61145D01*
X63869Y61631D01*
X64355Y62199D01*
X64745Y62837D01*
X65031Y63528D01*
X65206Y64255D01*
X65250Y65000D01*
X65206Y65745D01*
X65031Y66472D01*
X64745Y67163D01*
X64355Y67801D01*
X63869Y68369D01*
X63301Y68855D01*
X62663Y69245D01*
X61972Y69531D01*
X61245Y69706D01*
X60500Y69765D01*
X60493Y69764D01*
Y142500D01*
G37*
G36*
X53113D02*X60493D01*
Y69764D01*
X59755Y69706D01*
X59028Y69531D01*
X58337Y69245D01*
X57699Y68855D01*
X57131Y68369D01*
X56645Y67801D01*
X56255Y67163D01*
X55969Y66472D01*
X55794Y65745D01*
X55735Y65000D01*
X55794Y64255D01*
X55969Y63528D01*
X56255Y62837D01*
X56645Y62199D01*
X57131Y61631D01*
X57699Y61145D01*
X58337Y60755D01*
X59028Y60469D01*
X59755Y60294D01*
X60493Y60236D01*
Y5500D01*
X53113D01*
Y86353D01*
X53156Y86360D01*
X53268Y86397D01*
X53373Y86452D01*
X53468Y86522D01*
X53551Y86606D01*
X53619Y86702D01*
X53670Y86808D01*
X53818Y87216D01*
X53922Y87637D01*
X53984Y88067D01*
X54005Y88500D01*
X53984Y88933D01*
X53922Y89363D01*
X53818Y89784D01*
X53675Y90194D01*
X53622Y90300D01*
X53553Y90396D01*
X53470Y90481D01*
X53375Y90551D01*
X53269Y90606D01*
X53157Y90643D01*
X53113Y90651D01*
Y95802D01*
X53152Y95847D01*
X53522Y96451D01*
X53793Y97105D01*
X53958Y97794D01*
X54000Y98500D01*
X53958Y99206D01*
X53793Y99895D01*
X53522Y100549D01*
X53152Y101153D01*
X53113Y101198D01*
Y105802D01*
X53152Y105847D01*
X53522Y106451D01*
X53793Y107105D01*
X53958Y107794D01*
X54000Y108500D01*
X53958Y109206D01*
X53793Y109895D01*
X53522Y110549D01*
X53152Y111153D01*
X53113Y111198D01*
Y115802D01*
X53152Y115847D01*
X53522Y116451D01*
X53793Y117105D01*
X53958Y117794D01*
X54000Y118500D01*
X53958Y119206D01*
X53793Y119895D01*
X53522Y120549D01*
X53152Y121153D01*
X53113Y121198D01*
Y142500D01*
G37*
G36*
Y111198D02*X52692Y111692D01*
X52153Y112152D01*
X51549Y112522D01*
X50895Y112793D01*
X50206Y112958D01*
X49500Y113014D01*
X49493Y113013D01*
Y113987D01*
X49500Y113986D01*
X50206Y114042D01*
X50895Y114207D01*
X51549Y114478D01*
X52153Y114848D01*
X52692Y115308D01*
X53113Y115802D01*
Y111198D01*
G37*
G36*
Y101198D02*X52692Y101692D01*
X52153Y102152D01*
X51549Y102522D01*
X50895Y102793D01*
X50206Y102958D01*
X49500Y103014D01*
X49493Y103013D01*
Y103987D01*
X49500Y103986D01*
X50206Y104042D01*
X50895Y104207D01*
X51549Y104478D01*
X52153Y104848D01*
X52692Y105308D01*
X53113Y105802D01*
Y101198D01*
G37*
G36*
Y5500D02*X49493D01*
Y83995D01*
X49500Y83995D01*
X49933Y84016D01*
X50363Y84078D01*
X50784Y84182D01*
X51194Y84325D01*
X51300Y84378D01*
X51396Y84447D01*
X51481Y84530D01*
X51551Y84625D01*
X51606Y84731D01*
X51643Y84843D01*
X51663Y84960D01*
X51664Y85079D01*
X51646Y85196D01*
X51610Y85309D01*
X51557Y85415D01*
X51488Y85512D01*
X51405Y85596D01*
X51309Y85667D01*
X51204Y85721D01*
X51092Y85759D01*
X50975Y85778D01*
X50856Y85779D01*
X50739Y85761D01*
X50626Y85723D01*
X50355Y85624D01*
X50075Y85556D01*
X49789Y85514D01*
X49500Y85500D01*
X49493Y85500D01*
Y91500D01*
X49500Y91500D01*
X49789Y91486D01*
X50075Y91444D01*
X50355Y91376D01*
X50628Y91280D01*
X50739Y91242D01*
X50856Y91225D01*
X50974Y91225D01*
X51091Y91245D01*
X51203Y91282D01*
X51307Y91336D01*
X51402Y91406D01*
X51485Y91491D01*
X51554Y91587D01*
X51607Y91692D01*
X51643Y91805D01*
X51660Y91921D01*
X51659Y92039D01*
X51640Y92156D01*
X51603Y92268D01*
X51548Y92373D01*
X51478Y92468D01*
X51394Y92551D01*
X51298Y92619D01*
X51192Y92670D01*
X50784Y92818D01*
X50363Y92922D01*
X49933Y92984D01*
X49500Y93005D01*
X49493Y93005D01*
Y93987D01*
X49500Y93986D01*
X50206Y94042D01*
X50895Y94207D01*
X51549Y94478D01*
X52153Y94848D01*
X52692Y95308D01*
X53113Y95802D01*
Y90651D01*
X53040Y90663D01*
X52921Y90664D01*
X52804Y90646D01*
X52691Y90610D01*
X52585Y90557D01*
X52488Y90488D01*
X52404Y90405D01*
X52333Y90309D01*
X52279Y90204D01*
X52241Y90092D01*
X52222Y89975D01*
X52221Y89856D01*
X52239Y89739D01*
X52277Y89626D01*
X52376Y89355D01*
X52444Y89075D01*
X52486Y88789D01*
X52500Y88500D01*
X52486Y88211D01*
X52444Y87925D01*
X52376Y87645D01*
X52280Y87372D01*
X52242Y87261D01*
X52225Y87144D01*
X52225Y87026D01*
X52245Y86909D01*
X52282Y86797D01*
X52336Y86693D01*
X52406Y86598D01*
X52491Y86515D01*
X52587Y86446D01*
X52692Y86393D01*
X52805Y86357D01*
X52921Y86340D01*
X53039Y86341D01*
X53113Y86353D01*
Y5500D01*
G37*
G36*
X49493Y142500D02*X53113D01*
Y121198D01*
X52692Y121692D01*
X52153Y122152D01*
X51549Y122522D01*
X50895Y122793D01*
X50206Y122958D01*
X49500Y123014D01*
X49493Y123013D01*
Y142500D01*
G37*
G36*
X45887Y95802D02*X46308Y95308D01*
X46847Y94848D01*
X47451Y94478D01*
X48105Y94207D01*
X48794Y94042D01*
X49493Y93987D01*
Y93005D01*
X49067Y92984D01*
X48637Y92922D01*
X48216Y92818D01*
X47806Y92675D01*
X47700Y92622D01*
X47604Y92553D01*
X47519Y92470D01*
X47449Y92375D01*
X47394Y92269D01*
X47357Y92157D01*
X47337Y92040D01*
X47336Y91921D01*
X47354Y91804D01*
X47390Y91691D01*
X47443Y91585D01*
X47512Y91488D01*
X47595Y91404D01*
X47691Y91333D01*
X47796Y91279D01*
X47908Y91241D01*
X48025Y91222D01*
X48144Y91221D01*
X48261Y91239D01*
X48374Y91277D01*
X48645Y91376D01*
X48925Y91444D01*
X49211Y91486D01*
X49493Y91500D01*
Y85500D01*
X49211Y85514D01*
X48925Y85556D01*
X48645Y85624D01*
X48372Y85720D01*
X48261Y85758D01*
X48144Y85775D01*
X48026Y85775D01*
X47909Y85755D01*
X47797Y85718D01*
X47693Y85664D01*
X47598Y85594D01*
X47515Y85509D01*
X47446Y85413D01*
X47393Y85308D01*
X47357Y85195D01*
X47340Y85079D01*
X47341Y84961D01*
X47360Y84844D01*
X47397Y84732D01*
X47452Y84627D01*
X47522Y84532D01*
X47606Y84449D01*
X47702Y84381D01*
X47808Y84330D01*
X48216Y84182D01*
X48637Y84078D01*
X49067Y84016D01*
X49493Y83995D01*
Y5500D01*
X45887D01*
Y68500D01*
X45910Y68555D01*
X46022Y69021D01*
X46050Y69500D01*
X46022Y69979D01*
X45910Y70445D01*
X45887Y70500D01*
Y86349D01*
X45960Y86337D01*
X46079Y86336D01*
X46196Y86354D01*
X46309Y86390D01*
X46415Y86443D01*
X46512Y86512D01*
X46596Y86595D01*
X46667Y86691D01*
X46721Y86796D01*
X46759Y86908D01*
X46778Y87025D01*
X46779Y87144D01*
X46761Y87261D01*
X46723Y87374D01*
X46624Y87645D01*
X46556Y87925D01*
X46514Y88211D01*
X46500Y88500D01*
X46514Y88789D01*
X46556Y89075D01*
X46624Y89355D01*
X46720Y89628D01*
X46758Y89739D01*
X46775Y89856D01*
X46775Y89974D01*
X46755Y90091D01*
X46718Y90203D01*
X46664Y90307D01*
X46594Y90402D01*
X46509Y90485D01*
X46413Y90554D01*
X46308Y90607D01*
X46195Y90643D01*
X46079Y90660D01*
X45961Y90659D01*
X45887Y90647D01*
Y95802D01*
G37*
G36*
Y105802D02*X46308Y105308D01*
X46847Y104848D01*
X47451Y104478D01*
X48105Y104207D01*
X48794Y104042D01*
X49493Y103987D01*
Y103013D01*
X48794Y102958D01*
X48105Y102793D01*
X47451Y102522D01*
X46847Y102152D01*
X46308Y101692D01*
X45887Y101198D01*
Y105802D01*
G37*
G36*
Y115802D02*X46308Y115308D01*
X46847Y114848D01*
X47451Y114478D01*
X48105Y114207D01*
X48794Y114042D01*
X49493Y113987D01*
Y113013D01*
X48794Y112958D01*
X48105Y112793D01*
X47451Y112522D01*
X46847Y112152D01*
X46308Y111692D01*
X45887Y111198D01*
Y115802D01*
G37*
G36*
Y142500D02*X49493D01*
Y123013D01*
X48794Y122958D01*
X48105Y122793D01*
X47451Y122522D01*
X46847Y122152D01*
X46308Y121692D01*
X45887Y121198D01*
Y142500D01*
G37*
G36*
Y5500D02*X40952D01*
Y38032D01*
X40972Y38035D01*
X41047Y38059D01*
X41117Y38095D01*
X41181Y38141D01*
X41237Y38197D01*
X41283Y38261D01*
X41317Y38331D01*
X41411Y38581D01*
X41480Y38838D01*
X41527Y39101D01*
X41550Y39367D01*
Y39633D01*
X41527Y39899D01*
X41480Y40162D01*
X41411Y40419D01*
X41320Y40670D01*
X41285Y40740D01*
X41238Y40804D01*
X41182Y40860D01*
X41118Y40907D01*
X41048Y40942D01*
X40973Y40967D01*
X40952Y40970D01*
Y67238D01*
X41202Y67025D01*
X41611Y66774D01*
X42055Y66590D01*
X42521Y66478D01*
X43000Y66441D01*
X43479Y66478D01*
X43945Y66590D01*
X44389Y66774D01*
X44798Y67025D01*
X45163Y67337D01*
X45475Y67702D01*
X45726Y68111D01*
X45887Y68500D01*
Y5500D01*
G37*
G36*
X40952Y142500D02*X45887D01*
Y121198D01*
X45848Y121153D01*
X45478Y120549D01*
X45207Y119895D01*
X45042Y119206D01*
X44986Y118500D01*
X45042Y117794D01*
X45207Y117105D01*
X45478Y116451D01*
X45848Y115847D01*
X45887Y115802D01*
Y111198D01*
X45848Y111153D01*
X45478Y110549D01*
X45207Y109895D01*
X45042Y109206D01*
X44986Y108500D01*
X45042Y107794D01*
X45207Y107105D01*
X45478Y106451D01*
X45848Y105847D01*
X45887Y105802D01*
Y101198D01*
X45848Y101153D01*
X45478Y100549D01*
X45207Y99895D01*
X45042Y99206D01*
X44986Y98500D01*
X45042Y97794D01*
X45207Y97105D01*
X45478Y96451D01*
X45848Y95847D01*
X45887Y95802D01*
Y90647D01*
X45844Y90640D01*
X45732Y90603D01*
X45627Y90548D01*
X45532Y90478D01*
X45449Y90394D01*
X45381Y90298D01*
X45330Y90192D01*
X45182Y89784D01*
X45078Y89363D01*
X45016Y88933D01*
X44995Y88500D01*
X45016Y88067D01*
X45078Y87637D01*
X45182Y87216D01*
X45325Y86806D01*
X45378Y86700D01*
X45447Y86604D01*
X45530Y86519D01*
X45625Y86449D01*
X45731Y86394D01*
X45843Y86357D01*
X45887Y86349D01*
Y70500D01*
X45726Y70889D01*
X45475Y71298D01*
X45163Y71663D01*
X44798Y71975D01*
X44389Y72226D01*
X43945Y72410D01*
X43479Y72522D01*
X43000Y72559D01*
X42786Y72543D01*
X40952Y74377D01*
Y79230D01*
X41022Y79521D01*
X41050Y80000D01*
X41022Y80479D01*
X40952Y80770D01*
Y142500D01*
G37*
G36*
Y74377D02*X40000Y75328D01*
Y77697D01*
X40163Y77837D01*
X40475Y78202D01*
X40726Y78611D01*
X40910Y79055D01*
X40952Y79230D01*
Y74377D01*
G37*
G36*
Y5500D02*X38501D01*
Y36450D01*
X38633D01*
X38899Y36473D01*
X39162Y36520D01*
X39419Y36589D01*
X39670Y36680D01*
X39740Y36715D01*
X39804Y36762D01*
X39860Y36818D01*
X39907Y36882D01*
X39942Y36952D01*
X39967Y37027D01*
X39979Y37105D01*
X39979Y37184D01*
X39967Y37262D01*
X39942Y37338D01*
X39906Y37408D01*
X39860Y37472D01*
X39804Y37528D01*
X39740Y37574D01*
X39670Y37610D01*
X39594Y37634D01*
X39516Y37647D01*
X39437Y37647D01*
X39359Y37634D01*
X39285Y37608D01*
X39117Y37545D01*
X38944Y37499D01*
X38768Y37468D01*
X38590Y37452D01*
X38501D01*
Y41548D01*
X38590D01*
X38768Y41532D01*
X38944Y41501D01*
X39117Y41455D01*
X39286Y41394D01*
X39360Y41368D01*
X39437Y41355D01*
X39516Y41355D01*
X39594Y41368D01*
X39669Y41392D01*
X39739Y41428D01*
X39803Y41474D01*
X39858Y41529D01*
X39905Y41593D01*
X39940Y41663D01*
X39965Y41738D01*
X39977Y41816D01*
X39977Y41894D01*
X39965Y41972D01*
X39941Y42047D01*
X39905Y42117D01*
X39859Y42181D01*
X39803Y42237D01*
X39739Y42283D01*
X39669Y42317D01*
X39419Y42411D01*
X39162Y42480D01*
X38899Y42527D01*
X38633Y42550D01*
X38501D01*
Y52343D01*
X38798Y52525D01*
X39163Y52837D01*
X39475Y53202D01*
X39726Y53611D01*
X39910Y54055D01*
X40022Y54521D01*
X40050Y55000D01*
X40022Y55479D01*
X39910Y55945D01*
X39726Y56389D01*
X39475Y56798D01*
X39163Y57163D01*
X38798Y57475D01*
X38501Y57657D01*
Y71171D01*
X39957Y69714D01*
X39941Y69500D01*
X39978Y69021D01*
X40090Y68555D01*
X40274Y68111D01*
X40525Y67702D01*
X40837Y67337D01*
X40952Y67238D01*
Y40970D01*
X40895Y40979D01*
X40816Y40979D01*
X40738Y40967D01*
X40662Y40942D01*
X40592Y40906D01*
X40528Y40860D01*
X40472Y40804D01*
X40426Y40740D01*
X40390Y40670D01*
X40366Y40594D01*
X40353Y40516D01*
X40353Y40437D01*
X40366Y40359D01*
X40392Y40285D01*
X40455Y40117D01*
X40501Y39944D01*
X40532Y39768D01*
X40548Y39590D01*
Y39410D01*
X40532Y39232D01*
X40501Y39056D01*
X40455Y38883D01*
X40394Y38714D01*
X40368Y38640D01*
X40355Y38563D01*
X40355Y38484D01*
X40368Y38406D01*
X40392Y38331D01*
X40428Y38261D01*
X40474Y38197D01*
X40529Y38142D01*
X40593Y38095D01*
X40663Y38060D01*
X40738Y38035D01*
X40816Y38023D01*
X40894Y38023D01*
X40952Y38032D01*
Y5500D01*
G37*
G36*
X38501Y140501D02*X40500Y142500D01*
X40952D01*
Y80770D01*
X40910Y80945D01*
X40726Y81389D01*
X40475Y81798D01*
X40163Y82163D01*
X39798Y82475D01*
X39389Y82726D01*
X38945Y82910D01*
X38501Y83016D01*
Y140501D01*
G37*
G36*
Y5500D02*X36048D01*
Y38030D01*
X36105Y38021D01*
X36184Y38021D01*
X36262Y38033D01*
X36338Y38058D01*
X36408Y38094D01*
X36472Y38140D01*
X36528Y38196D01*
X36574Y38260D01*
X36610Y38330D01*
X36634Y38406D01*
X36647Y38484D01*
X36647Y38563D01*
X36634Y38641D01*
X36608Y38715D01*
X36545Y38883D01*
X36499Y39056D01*
X36468Y39232D01*
X36452Y39410D01*
Y39590D01*
X36468Y39768D01*
X36499Y39944D01*
X36545Y40117D01*
X36606Y40286D01*
X36632Y40360D01*
X36645Y40438D01*
X36645Y40516D01*
X36632Y40594D01*
X36608Y40669D01*
X36572Y40739D01*
X36526Y40803D01*
X36471Y40858D01*
X36407Y40905D01*
X36337Y40940D01*
X36262Y40965D01*
X36184Y40977D01*
X36106Y40977D01*
X36048Y40968D01*
Y52093D01*
X36055Y52090D01*
X36521Y51978D01*
X37000Y51941D01*
X37479Y51978D01*
X37945Y52090D01*
X38389Y52274D01*
X38501Y52343D01*
Y42550D01*
X38367D01*
X38101Y42527D01*
X37838Y42480D01*
X37581Y42411D01*
X37330Y42320D01*
X37260Y42285D01*
X37196Y42238D01*
X37140Y42182D01*
X37093Y42118D01*
X37058Y42048D01*
X37033Y41973D01*
X37021Y41895D01*
X37021Y41816D01*
X37033Y41738D01*
X37058Y41662D01*
X37094Y41592D01*
X37140Y41528D01*
X37196Y41472D01*
X37260Y41426D01*
X37330Y41390D01*
X37406Y41366D01*
X37484Y41353D01*
X37563Y41353D01*
X37641Y41366D01*
X37715Y41392D01*
X37883Y41455D01*
X38056Y41501D01*
X38232Y41532D01*
X38410Y41548D01*
X38501D01*
Y37452D01*
X38410D01*
X38232Y37468D01*
X38056Y37499D01*
X37883Y37545D01*
X37714Y37606D01*
X37640Y37632D01*
X37562Y37645D01*
X37484Y37645D01*
X37406Y37632D01*
X37331Y37608D01*
X37261Y37572D01*
X37197Y37526D01*
X37142Y37471D01*
X37095Y37407D01*
X37060Y37337D01*
X37035Y37262D01*
X37023Y37184D01*
X37023Y37106D01*
X37035Y37028D01*
X37059Y36953D01*
X37095Y36883D01*
X37141Y36819D01*
X37197Y36763D01*
X37261Y36717D01*
X37331Y36683D01*
X37581Y36589D01*
X37838Y36520D01*
X38101Y36473D01*
X38367Y36450D01*
X38501D01*
Y5500D01*
G37*
G36*
X36048D02*X33495D01*
Y55676D01*
X33957Y55214D01*
X33941Y55000D01*
X33978Y54521D01*
X34090Y54055D01*
X34274Y53611D01*
X34525Y53202D01*
X34837Y52837D01*
X35202Y52525D01*
X35611Y52274D01*
X36048Y52093D01*
Y40968D01*
X36028Y40965D01*
X35953Y40941D01*
X35883Y40905D01*
X35819Y40859D01*
X35763Y40803D01*
X35717Y40739D01*
X35683Y40669D01*
X35589Y40419D01*
X35520Y40162D01*
X35473Y39899D01*
X35450Y39633D01*
Y39367D01*
X35473Y39101D01*
X35520Y38838D01*
X35589Y38581D01*
X35680Y38330D01*
X35715Y38260D01*
X35762Y38196D01*
X35818Y38140D01*
X35882Y38093D01*
X35952Y38058D01*
X36027Y38033D01*
X36048Y38030D01*
Y5500D01*
G37*
G36*
X33495Y135495D02*X38501Y140501D01*
Y83016D01*
X38479Y83022D01*
X38000Y83059D01*
X37521Y83022D01*
X37055Y82910D01*
X36611Y82726D01*
X36202Y82475D01*
X35837Y82163D01*
X35525Y81798D01*
X35274Y81389D01*
X35090Y80945D01*
X34978Y80479D01*
X34941Y80000D01*
X34978Y79521D01*
X35090Y79055D01*
X35274Y78611D01*
X35525Y78202D01*
X35837Y77837D01*
X36000Y77697D01*
Y74578D01*
X35994Y74500D01*
X36019Y74186D01*
X36079Y73933D01*
X36092Y73880D01*
X36127Y73795D01*
X36212Y73589D01*
X36377Y73321D01*
X36377Y73321D01*
X36581Y73081D01*
X36641Y73030D01*
X38501Y71171D01*
Y57657D01*
X38389Y57726D01*
X37945Y57910D01*
X37479Y58022D01*
X37000Y58059D01*
X36786Y58043D01*
X33495Y61333D01*
Y135495D01*
G37*
G36*
X19284Y125000D02*X23000D01*
X33495Y135495D01*
Y61333D01*
X32000Y62828D01*
Y93697D01*
X32163Y93837D01*
X32475Y94202D01*
X32726Y94611D01*
X32910Y95055D01*
X33022Y95521D01*
X33050Y96000D01*
X33022Y96479D01*
X32910Y96945D01*
X32726Y97389D01*
X32475Y97798D01*
X32163Y98163D01*
X31798Y98475D01*
X31389Y98726D01*
X30945Y98910D01*
X30479Y99022D01*
X30000Y99059D01*
X29521Y99022D01*
X29055Y98910D01*
X28611Y98726D01*
X28202Y98475D01*
X27837Y98163D01*
X27525Y97798D01*
X27274Y97389D01*
X27090Y96945D01*
X26978Y96479D01*
X26941Y96000D01*
X26978Y95521D01*
X27090Y95055D01*
X27274Y94611D01*
X27525Y94202D01*
X27837Y93837D01*
X28000Y93697D01*
Y62078D01*
X27994Y62000D01*
X28019Y61686D01*
X28092Y61380D01*
X28212Y61089D01*
X28377Y60821D01*
X28377Y60821D01*
X28581Y60581D01*
X28641Y60530D01*
X33495Y55676D01*
Y5500D01*
X27000D01*
X19284Y13216D01*
Y37869D01*
X19287Y37870D01*
X19355Y37909D01*
X19416Y37958D01*
X19469Y38017D01*
X19511Y38083D01*
X19674Y38408D01*
X19803Y38748D01*
X19901Y39098D01*
X19967Y39456D01*
X20000Y39818D01*
Y40182D01*
X19967Y40544D01*
X19901Y40902D01*
X19803Y41252D01*
X19674Y41592D01*
X19515Y41919D01*
X19472Y41985D01*
X19419Y42044D01*
X19357Y42094D01*
X19288Y42133D01*
X19284Y42135D01*
Y74035D01*
X19521Y73978D01*
X20000Y73941D01*
X20479Y73978D01*
X20945Y74090D01*
X21389Y74274D01*
X21798Y74525D01*
X22163Y74837D01*
X22475Y75202D01*
X22726Y75611D01*
X22910Y76055D01*
X23022Y76521D01*
X23050Y77000D01*
X23022Y77479D01*
X22910Y77945D01*
X22726Y78389D01*
X22475Y78798D01*
X22163Y79163D01*
X21798Y79475D01*
X21389Y79726D01*
X20945Y79910D01*
X20479Y80022D01*
X20000Y80059D01*
X19786Y80043D01*
X19284Y80545D01*
Y84006D01*
X22735Y84014D01*
X22965Y84069D01*
X23183Y84159D01*
X23384Y84283D01*
X23564Y84436D01*
X23717Y84616D01*
X23841Y84817D01*
X23931Y85035D01*
X23986Y85265D01*
X24000Y85500D01*
X23986Y91735D01*
X23931Y91965D01*
X23841Y92183D01*
X23717Y92384D01*
X23564Y92564D01*
X23384Y92717D01*
X23183Y92841D01*
X22965Y92931D01*
X22735Y92986D01*
X22500Y93000D01*
X19284Y92993D01*
Y94003D01*
X19500Y93986D01*
X20206Y94042D01*
X20895Y94207D01*
X21549Y94478D01*
X22153Y94848D01*
X22692Y95308D01*
X23152Y95847D01*
X23522Y96451D01*
X23793Y97105D01*
X23958Y97794D01*
X24000Y98500D01*
X23958Y99206D01*
X23793Y99895D01*
X23522Y100549D01*
X23152Y101153D01*
X22692Y101692D01*
X22153Y102152D01*
X21549Y102522D01*
X20895Y102793D01*
X20206Y102958D01*
X19500Y103014D01*
X19284Y102997D01*
Y104003D01*
X19500Y103986D01*
X20206Y104042D01*
X20895Y104207D01*
X21549Y104478D01*
X22153Y104848D01*
X22692Y105308D01*
X23152Y105847D01*
X23522Y106451D01*
X23793Y107105D01*
X23958Y107794D01*
X24000Y108500D01*
X23958Y109206D01*
X23793Y109895D01*
X23522Y110549D01*
X23152Y111153D01*
X22692Y111692D01*
X22153Y112152D01*
X21549Y112522D01*
X20895Y112793D01*
X20206Y112958D01*
X19500Y113014D01*
X19284Y112997D01*
Y114003D01*
X19500Y113986D01*
X20206Y114042D01*
X20895Y114207D01*
X21549Y114478D01*
X22153Y114848D01*
X22692Y115308D01*
X23152Y115847D01*
X23522Y116451D01*
X23793Y117105D01*
X23958Y117794D01*
X24000Y118500D01*
X23958Y119206D01*
X23793Y119895D01*
X23522Y120549D01*
X23152Y121153D01*
X22692Y121692D01*
X22153Y122152D01*
X21549Y122522D01*
X20895Y122793D01*
X20206Y122958D01*
X19500Y123014D01*
X19284Y122997D01*
Y125000D01*
G37*
G36*
Y112997D02*X18794Y112958D01*
X18105Y112793D01*
X17451Y112522D01*
X16847Y112152D01*
X16308Y111692D01*
X15848Y111153D01*
X15478Y110549D01*
X15458Y110500D01*
X15247D01*
Y117009D01*
X15478Y116451D01*
X15848Y115847D01*
X16308Y115308D01*
X16847Y114848D01*
X17451Y114478D01*
X18105Y114207D01*
X18794Y114042D01*
X19284Y114003D01*
Y112997D01*
G37*
G36*
Y102997D02*X18794Y102958D01*
X18105Y102793D01*
X17451Y102522D01*
X16847Y102152D01*
X16308Y101692D01*
X15848Y101153D01*
X15478Y100549D01*
X15458Y100500D01*
X15247D01*
Y105918D01*
X15592Y106264D01*
X15848Y105847D01*
X16308Y105308D01*
X16847Y104848D01*
X17451Y104478D01*
X18105Y104207D01*
X18794Y104042D01*
X19284Y104003D01*
Y102997D01*
G37*
G36*
Y92993D02*X16265Y92986D01*
X16035Y92931D01*
X15817Y92841D01*
X15616Y92717D01*
X15436Y92564D01*
X15283Y92384D01*
X15247Y92326D01*
Y96500D01*
X15458D01*
X15478Y96451D01*
X15848Y95847D01*
X16308Y95308D01*
X16847Y94848D01*
X17451Y94478D01*
X18105Y94207D01*
X18794Y94042D01*
X19284Y94003D01*
Y92993D01*
G37*
G36*
Y80545D02*X15247Y84582D01*
Y84674D01*
X15283Y84616D01*
X15436Y84436D01*
X15616Y84283D01*
X15817Y84159D01*
X16035Y84069D01*
X16265Y84014D01*
X16500Y84000D01*
X19284Y84006D01*
Y80545D01*
G37*
G36*
Y13216D02*X15247Y17253D01*
Y36071D01*
X15456Y36033D01*
X15818Y36000D01*
X16182D01*
X16544Y36033D01*
X16902Y36099D01*
X17252Y36197D01*
X17592Y36326D01*
X17919Y36485D01*
X17985Y36528D01*
X18044Y36581D01*
X18094Y36643D01*
X18133Y36712D01*
X18161Y36786D01*
X18177Y36863D01*
X18181Y36942D01*
X18173Y37021D01*
X18152Y37097D01*
X18120Y37170D01*
X18077Y37236D01*
X18024Y37295D01*
X17962Y37344D01*
X17893Y37384D01*
X17819Y37412D01*
X17742Y37428D01*
X17663Y37432D01*
X17584Y37424D01*
X17507Y37403D01*
X17436Y37370D01*
X17193Y37247D01*
X16938Y37150D01*
X16676Y37077D01*
X16408Y37028D01*
X16136Y37003D01*
X15864D01*
X15592Y37028D01*
X15324Y37077D01*
X15247Y37099D01*
Y42901D01*
X15324Y42923D01*
X15592Y42972D01*
X15864Y42997D01*
X16136D01*
X16408Y42972D01*
X16676Y42923D01*
X16938Y42850D01*
X17193Y42753D01*
X17437Y42633D01*
X17509Y42600D01*
X17584Y42579D01*
X17663Y42571D01*
X17741Y42575D01*
X17818Y42591D01*
X17892Y42619D01*
X17960Y42658D01*
X18021Y42707D01*
X18074Y42766D01*
X18117Y42832D01*
X18149Y42904D01*
X18170Y42980D01*
X18178Y43058D01*
X18174Y43136D01*
X18158Y43213D01*
X18130Y43287D01*
X18091Y43355D01*
X18042Y43416D01*
X17983Y43469D01*
X17917Y43511D01*
X17592Y43674D01*
X17252Y43803D01*
X16902Y43901D01*
X16544Y43967D01*
X16182Y44000D01*
X15818D01*
X15456Y43967D01*
X15247Y43929D01*
Y73215D01*
X15389Y73274D01*
X15798Y73525D01*
X16163Y73837D01*
X16475Y74202D01*
X16726Y74611D01*
X16910Y75055D01*
X17022Y75521D01*
X17050Y76000D01*
X17033Y76295D01*
X17090Y76055D01*
X17274Y75611D01*
X17525Y75202D01*
X17837Y74837D01*
X18202Y74525D01*
X18611Y74274D01*
X19055Y74090D01*
X19284Y74035D01*
Y42135D01*
X19214Y42161D01*
X19137Y42177D01*
X19058Y42181D01*
X18979Y42173D01*
X18903Y42152D01*
X18830Y42120D01*
X18764Y42077D01*
X18705Y42024D01*
X18656Y41962D01*
X18616Y41893D01*
X18588Y41819D01*
X18572Y41742D01*
X18568Y41663D01*
X18576Y41584D01*
X18597Y41507D01*
X18630Y41436D01*
X18753Y41193D01*
X18850Y40938D01*
X18923Y40676D01*
X18972Y40408D01*
X18997Y40136D01*
Y39864D01*
X18972Y39592D01*
X18923Y39324D01*
X18850Y39062D01*
X18753Y38807D01*
X18633Y38563D01*
X18600Y38491D01*
X18579Y38416D01*
X18571Y38337D01*
X18575Y38259D01*
X18591Y38182D01*
X18619Y38108D01*
X18658Y38040D01*
X18707Y37979D01*
X18766Y37926D01*
X18832Y37883D01*
X18904Y37851D01*
X18980Y37830D01*
X19058Y37822D01*
X19136Y37826D01*
X19213Y37842D01*
X19284Y37869D01*
Y13216D01*
G37*
G36*
X15247Y123247D02*X17000Y125000D01*
X19284D01*
Y122997D01*
X18794Y122958D01*
X18105Y122793D01*
X17451Y122522D01*
X16847Y122152D01*
X16308Y121692D01*
X15848Y121153D01*
X15478Y120549D01*
X15247Y119991D01*
Y123247D01*
G37*
G36*
Y84582D02*X14500Y85328D01*
Y96172D01*
X14828Y96500D01*
X15247D01*
Y92326D01*
X15159Y92183D01*
X15069Y91965D01*
X15014Y91735D01*
X15000Y91500D01*
X15014Y85265D01*
X15069Y85035D01*
X15159Y84817D01*
X15247Y84674D01*
Y84582D01*
G37*
G36*
Y100500D02*X14078D01*
X14000Y100506D01*
X13686Y100481D01*
X13380Y100408D01*
X13089Y100288D01*
X12821Y100123D01*
X12821Y100123D01*
X12581Y99919D01*
X12530Y99859D01*
X11141Y98470D01*
X11081Y98419D01*
X10877Y98179D01*
X10712Y97911D01*
X10592Y97620D01*
X10519Y97314D01*
X10519Y97314D01*
X10500Y97078D01*
Y101172D01*
X15247Y105918D01*
Y100500D01*
G37*
G36*
X12716Y73231D02*X13055Y73090D01*
X13521Y72978D01*
X14000Y72941D01*
X14479Y72978D01*
X14945Y73090D01*
X15247Y73215D01*
Y43929D01*
X15098Y43901D01*
X14748Y43803D01*
X14408Y43674D01*
X14081Y43515D01*
X14015Y43472D01*
X13956Y43419D01*
X13906Y43357D01*
X13867Y43288D01*
X13839Y43214D01*
X13823Y43137D01*
X13819Y43058D01*
X13827Y42979D01*
X13848Y42903D01*
X13880Y42830D01*
X13923Y42764D01*
X13976Y42705D01*
X14038Y42656D01*
X14107Y42616D01*
X14181Y42588D01*
X14258Y42572D01*
X14337Y42568D01*
X14416Y42576D01*
X14493Y42597D01*
X14564Y42630D01*
X14807Y42753D01*
X15062Y42850D01*
X15247Y42901D01*
Y37099D01*
X15062Y37150D01*
X14807Y37247D01*
X14563Y37367D01*
X14491Y37400D01*
X14415Y37421D01*
X14337Y37429D01*
X14259Y37425D01*
X14182Y37409D01*
X14108Y37381D01*
X14040Y37342D01*
X13979Y37293D01*
X13926Y37234D01*
X13883Y37168D01*
X13851Y37096D01*
X13830Y37020D01*
X13822Y36942D01*
X13826Y36864D01*
X13842Y36787D01*
X13870Y36713D01*
X13909Y36645D01*
X13958Y36584D01*
X14017Y36531D01*
X14083Y36489D01*
X14408Y36326D01*
X14748Y36197D01*
X15098Y36099D01*
X15247Y36071D01*
Y17253D01*
X12716Y19784D01*
Y37865D01*
X12786Y37839D01*
X12863Y37823D01*
X12942Y37819D01*
X13021Y37827D01*
X13097Y37848D01*
X13170Y37880D01*
X13236Y37923D01*
X13295Y37976D01*
X13344Y38038D01*
X13384Y38107D01*
X13412Y38181D01*
X13428Y38258D01*
X13432Y38337D01*
X13424Y38416D01*
X13403Y38493D01*
X13370Y38564D01*
X13247Y38807D01*
X13150Y39062D01*
X13077Y39324D01*
X13028Y39592D01*
X13003Y39864D01*
Y40136D01*
X13028Y40408D01*
X13077Y40676D01*
X13150Y40938D01*
X13247Y41193D01*
X13367Y41437D01*
X13400Y41509D01*
X13421Y41585D01*
X13429Y41663D01*
X13425Y41741D01*
X13409Y41818D01*
X13381Y41892D01*
X13342Y41960D01*
X13293Y42021D01*
X13234Y42074D01*
X13168Y42117D01*
X13096Y42149D01*
X13020Y42170D01*
X12942Y42178D01*
X12864Y42174D01*
X12787Y42158D01*
X12716Y42131D01*
Y73231D01*
G37*
G36*
Y120716D02*X15247Y123247D01*
Y119991D01*
X15207Y119895D01*
X15042Y119206D01*
X14986Y118500D01*
X15042Y117794D01*
X15207Y117105D01*
X15247Y117009D01*
Y110500D01*
X15078D01*
X15000Y110506D01*
X14686Y110481D01*
X14380Y110408D01*
X14089Y110288D01*
X13821Y110123D01*
X13820Y110123D01*
X13581Y109919D01*
X13530Y109859D01*
X12716Y109045D01*
Y120716D01*
G37*
G36*
X5000Y113000D02*X12716Y120716D01*
Y109045D01*
X7141Y103470D01*
X7081Y103419D01*
X6877Y103179D01*
X6712Y102911D01*
X6592Y102620D01*
X6519Y102314D01*
X6494Y102000D01*
X6500Y101922D01*
Y81578D01*
X6494Y81500D01*
X6519Y81186D01*
X6592Y80880D01*
X6712Y80589D01*
X6877Y80321D01*
X6877Y80321D01*
X7081Y80081D01*
X7141Y80030D01*
X10957Y76214D01*
X10941Y76000D01*
X10978Y75521D01*
X11090Y75055D01*
X11274Y74611D01*
X11525Y74202D01*
X11837Y73837D01*
X12202Y73525D01*
X12611Y73274D01*
X12716Y73231D01*
Y42131D01*
X12713Y42130D01*
X12645Y42091D01*
X12584Y42042D01*
X12531Y41983D01*
X12489Y41917D01*
X12326Y41592D01*
X12197Y41252D01*
X12099Y40902D01*
X12033Y40544D01*
X12000Y40182D01*
Y39818D01*
X12033Y39456D01*
X12099Y39098D01*
X12197Y38748D01*
X12326Y38408D01*
X12485Y38081D01*
X12528Y38015D01*
X12581Y37956D01*
X12643Y37906D01*
X12712Y37867D01*
X12716Y37865D01*
Y19784D01*
X5000Y27500D01*
Y113000D01*
G37*
G54D34*X133500Y36000D02*X118905D01*
X133500Y56000D02*X118006D01*
X118000Y56006D01*
X107095Y36000D02*X107000D01*
X102000Y64000D02*Y73780D01*
X102472Y74252D01*
X70026Y116779D02*Y129474D01*
X65500Y134000D01*
X81836Y116779D02*X94074D01*
X105931Y116721D02*X105862Y116652D01*
X94074Y116779D02*X94121Y116826D01*
X81836Y116779D02*Y97836D01*
X66500Y82500D01*
G54D35*X98000Y99000D02*Y90055D01*
X97945Y90000D01*
X38000Y80000D02*Y74500D01*
X43000Y69500D01*
X30000Y96000D02*Y62000D01*
X37000Y55000D01*
X19500Y98500D02*X14000D01*
X12500Y97000D01*
Y84500D01*
X8500Y102000D02*Y81500D01*
X12500Y84500D02*X20000Y77000D01*
X8500Y81500D02*X14000Y76000D01*
X19500Y108500D02*X15000D01*
X8500Y102000D01*
G54D33*G36*
X130500Y29000D02*Y23000D01*
X136500D01*
Y29000D01*
X130500D01*
G37*
G54D36*X133500Y36000D03*
Y46000D03*
Y56000D03*
Y66000D03*
Y76000D03*
Y86000D03*
G54D33*G36*
X137204Y121224D02*Y115318D01*
X143110D01*
Y121224D01*
X137204D01*
G37*
G54D37*X145079Y126145D03*
X150000Y118271D03*
X154921Y126145D03*
G54D38*X115500Y134000D03*
G54D36*X163500Y86000D03*
Y76000D03*
Y66000D03*
Y56000D03*
Y46000D03*
Y36000D03*
Y26000D03*
G54D39*X188900Y12100D03*
G54D40*X60500Y65000D03*
X72300D03*
G54D39*X9500Y136500D03*
G54D33*G36*
X16500Y91500D02*Y85500D01*
X22500D01*
Y91500D01*
X16500D01*
G37*
G54D36*X19500Y98500D03*
Y108500D03*
Y118500D03*
X49500D03*
G54D33*G36*
X62750Y136750D02*Y131250D01*
X68250D01*
Y136750D01*
X62750D01*
G37*
G54D36*X49500Y108500D03*
Y98500D03*
Y88500D03*
G54D33*G36*
X98535Y78189D02*Y70315D01*
X106409D01*
Y78189D01*
X98535D01*
G37*
G54D41*X107000Y91378D02*Y88622D01*
G54D42*X97945Y91378D02*Y88623D01*
G54D41*X110914Y56399D02*Y55613D01*
X118000Y56399D02*Y55613D01*
X94121Y118007D02*Y115645D01*
X105931Y118007D02*Y115645D01*
X70026Y117960D02*Y115598D01*
X81836Y117960D02*Y115598D01*
X107095Y37181D02*Y34819D01*
X118905Y37181D02*Y34819D01*
G54D36*X66500Y82500D03*
G54D43*X38000Y80000D03*
G54D36*X102000Y64000D03*
G54D44*X98000Y99000D03*
G54D43*X43000Y69500D03*
X37000Y55000D03*
G54D36*X16000Y40000D03*
G54D45*X80500Y39500D03*
G54D43*X38500D03*
X20000Y77000D03*
X30000Y96000D03*
X14000Y76000D03*
G54D46*G54D35*G54D46*G54D35*G54D46*G54D35*G54D47*G54D46*G54D47*G54D48*G54D46*G54D48*G54D47*G54D46*G54D47*M02*
