M48
INCH
T53C0.020
T52C0.125
T51C0.035
T50C0.028
%
T53
X003800Y008000
X009800Y009900
X004300Y006950
X003700Y005500
X003850Y003950
X002000Y007700
X003000Y009600
X001400Y007600
T50
X013350Y002600
X013350Y003600
X013350Y004600
X013350Y005600
X013350Y006600
X013350Y007600
X013350Y008600
X016350Y008600
X016350Y007600
X016350Y006600
X016350Y005600
X016350Y004600
X016350Y003600
X016350Y002600
X001950Y008850
X001950Y009850
X001950Y010850
X001950Y011850
X004950Y011850
X004950Y010850
X004950Y009850
X004950Y008850
T51
X014016Y011827
X014508Y012614
X015000Y011827
X015492Y012614
X011550Y013400
X006050Y006500
X007230Y006500
X006550Y013400
X006650Y008250
X010200Y006400
X001600Y004000
X008050Y003950
T52
X018890Y001210
X000950Y013650
M30
