G04 start of page 2 for group 0 idx 0 *
G04 Title: (unknown), top *
G04 Creator: pcb 20110918 *
G04 CreationDate: Mon Jun 10 22:15:59 2013 UTC *
G04 For: fosse *
G04 Format: Gerber/RS-274X *
G04 PCB-Dimensions: 200000 148000 *
G04 PCB-Coordinate-Origin: lower left *
%MOIN*%
%FSLAX25Y25*%
%LNTOP*%
%ADD32C,0.1250*%
%ADD31C,0.0280*%
%ADD30C,0.0350*%
%ADD29C,0.0650*%
%ADD28C,0.0460*%
%ADD27C,0.0410*%
%ADD26R,0.0394X0.0394*%
%ADD25R,0.0512X0.0512*%
%ADD24R,0.0433X0.0433*%
%ADD23R,0.0433X0.0433*%
%ADD22R,0.0551X0.0551*%
%ADD21R,0.0390X0.0390*%
%ADD20C,0.0750*%
%ADD19C,0.1450*%
%ADD18C,0.0550*%
%ADD17C,0.0591*%
%ADD16C,0.0600*%
%ADD15C,0.0001*%
%ADD14C,0.0250*%
%ADD13C,0.0100*%
%ADD12C,0.0200*%
%ADD11C,0.0400*%
G54D11*X152000Y43000D02*Y46749D01*
X151543Y47206D01*
X133500Y56000D02*X140500D01*
X144000Y52500D01*
Y47663D01*
X144457Y47206D01*
X163500Y56000D02*Y46000D01*
Y36000D02*X159000D01*
X152000Y43000D01*
X163500Y76000D02*X154500D01*
X150000Y80500D01*
X140157Y118271D02*Y92657D01*
X136500Y126000D02*X144934D01*
X145079Y126145D01*
X150000Y80500D02*Y118271D01*
X163500Y86000D02*Y117566D01*
X154921Y126145D01*
X140157Y92657D02*X133500Y86000D01*
X127000Y82500D02*Y116500D01*
X136500Y126000D01*
X133500Y76000D02*X127000Y82500D01*
X56600Y75250D02*X33250D01*
X28500Y80000D01*
Y87603D01*
X66500Y82500D02*Y75350D01*
X66400Y75250D01*
X28595Y88103D02*X19897D01*
X19500Y88500D01*
X40405Y88103D02*X49103D01*
X28500Y87603D02*X29000Y88103D01*
X19500Y88500D02*X10000D01*
X7000Y85500D01*
X49103Y88103D02*X49500Y88500D01*
G54D12*Y118500D02*X78500D01*
X49500Y98500D02*X91000D01*
X78500Y118500D02*X98000Y99000D01*
X49500Y108500D02*X44500D01*
X35000Y99000D01*
Y83000D01*
X19500Y118500D02*X26000D01*
X30000Y114500D01*
Y96000D01*
G54D11*X7000Y85500D02*Y28500D01*
G54D12*X35000Y83000D02*X38000Y80000D01*
X43000Y69500D02*Y62500D01*
X20000Y77000D02*X22646D01*
X32890Y66756D01*
X14000Y76000D02*X17500Y72500D01*
X22500D01*
X19110Y66756D02*X22244D01*
X22500Y72500D02*X27000Y68000D01*
Y63000D01*
X28500Y61500D01*
X22244Y66756D02*X24000Y65000D01*
Y58000D01*
X28500Y53500D01*
X19110Y61244D02*Y55390D01*
X23000Y51500D01*
Y46543D01*
G54D11*X98500Y60500D02*X102000Y64000D01*
G54D12*X91000Y98500D02*X133500Y56000D01*
X64962Y31591D02*X58909D01*
X56500Y34000D01*
Y44500D01*
X59000Y47000D01*
X64624D01*
X45500Y55000D02*X56500Y44000D01*
X43000Y62500D02*X50500Y55000D01*
X76500D01*
X37000D02*X45500D01*
X28500Y61500D02*X32634D01*
X32890Y61244D01*
G54D11*X7000Y28500D02*X28000Y7500D01*
G54D13*X28286Y22786D02*Y21714D01*
X28500Y21500D01*
X37500D02*X35000D01*
X36000Y19500D02*Y18500D01*
X36714Y21714D02*X36500Y21500D01*
X30000Y12500D02*X35000D01*
X32000Y21500D02*X27500Y25000D01*
X33000Y21500D02*X32000D01*
X28000Y23000D02*X30000Y21500D01*
X33000Y16500D02*X32000D01*
X32500Y15500D02*Y16500D01*
X29000Y19500D02*Y18500D01*
X27500Y21500D02*X28000Y23000D01*
X30000Y21500D02*X27500D01*
Y25000D02*X26000Y21500D01*
Y16500D02*X30000Y12500D01*
X26000Y21500D02*Y16500D01*
X37500Y25000D02*X33000Y21500D01*
X35000D02*X37000Y23000D01*
X37500Y21500D01*
X36714Y22786D02*Y21714D01*
G54D11*X28000Y7500D02*X160000D01*
X163500Y11000D02*Y26000D01*
G54D13*X35000Y12500D02*X39000Y16500D01*
Y21500D02*X37500Y25000D01*
X39000Y16500D02*Y21500D01*
G54D11*X160000Y7500D02*X163500Y11000D01*
X98500Y7500D02*Y60500D01*
G54D12*X76500Y55000D02*X82224Y49275D01*
G54D11*X64962Y39465D02*X80814D01*
X87145Y33134D01*
G54D12*X64624Y47000D02*X64962Y47339D01*
X28500Y53500D02*Y38957D01*
X38388Y47339D02*Y31591D01*
G54D14*X15957Y46500D02*Y33500D01*
G54D12*X23000Y46543D02*X23043Y46500D01*
X28500Y38957D02*X23043Y33500D01*
G54D13*X32500Y15500D02*G75*G03X31500Y14500I0J-1000D01*G01*
X32500Y15500D02*G75*G02X33500Y14500I0J-1000D01*G01*
G54D15*G36*
X130500Y29000D02*Y23000D01*
X136500D01*
Y29000D01*
X130500D01*
G37*
G54D16*X133500Y36000D03*
Y46000D03*
Y56000D03*
Y66000D03*
Y76000D03*
Y86000D03*
G54D15*G36*
X137204Y121224D02*Y115318D01*
X143110D01*
Y121224D01*
X137204D01*
G37*
G54D17*X145079Y126145D03*
X150000Y118271D03*
X154921Y126145D03*
G54D18*X115500Y134000D03*
G54D16*X163500Y86000D03*
Y76000D03*
Y66000D03*
Y56000D03*
Y46000D03*
Y36000D03*
Y26000D03*
G54D19*X188900Y12100D03*
G54D20*X60500Y65000D03*
X72300D03*
G54D19*X9500Y136500D03*
G54D15*G36*
X16500Y91500D02*Y85500D01*
X22500D01*
Y91500D01*
X16500D01*
G37*
G54D16*X19500Y98500D03*
Y108500D03*
Y118500D03*
X49500D03*
G54D15*G36*
X62750Y136750D02*Y131250D01*
X68250D01*
Y136750D01*
X62750D01*
G37*
G54D16*X49500Y108500D03*
Y98500D03*
Y88500D03*
G54D21*X66400Y75650D02*Y74850D01*
X56600Y75650D02*Y74850D01*
X76200Y75650D02*Y74850D01*
G54D22*X62305Y47339D02*X67620D01*
G54D23*X82027Y49275D02*X82422D01*
G54D22*X62305Y39465D02*X67620D01*
X62305Y31591D02*X67620D01*
G54D24*X77106Y33134D02*X77500D01*
X86948D02*X87342D01*
G54D22*X35730Y47339D02*X41045D01*
G54D25*X144457Y47599D02*Y46813D01*
X151543Y47599D02*Y46813D01*
G54D22*X35730Y31591D02*X41045D01*
G54D25*X28595Y89284D02*Y86922D01*
X40405Y89284D02*Y86922D01*
G54D26*X31906Y66756D02*X33874D01*
X31906Y61244D02*X33874D01*
X18126Y66756D02*X20094D01*
X18126Y61244D02*X20094D01*
G54D25*X15957Y33893D02*Y33107D01*
X23043Y33893D02*Y33107D01*
X15957Y46893D02*Y46107D01*
X23043Y46893D02*Y46107D01*
G54D16*X66500Y82500D03*
G54D27*X38000Y80000D03*
G54D16*X102000Y64000D03*
G54D28*X98000Y99000D03*
G54D27*X43000Y69500D03*
X37000Y55000D03*
G54D16*X16000Y40000D03*
G54D29*X80500Y39500D03*
G54D27*X38500D03*
X20000Y77000D03*
X30000Y96000D03*
X14000Y76000D03*
G54D30*G54D12*G54D30*G54D12*G54D30*G54D12*G54D31*G54D30*G54D31*G54D32*G54D30*G54D32*G54D31*G54D30*G54D31*M02*
