G04 start of page 10 for group -4015 idx -4015 *
G04 Title: (unknown), toppaste *
G04 Creator: pcb 20110918 *
G04 CreationDate: Mon Jun 10 22:15:59 2013 UTC *
G04 For: fosse *
G04 Format: Gerber/RS-274X *
G04 PCB-Dimensions: 200000 148000 *
G04 PCB-Coordinate-Origin: lower left *
%MOIN*%
%FSLAX25Y25*%
%LNTOPPASTE*%
%ADD86R,0.0394X0.0394*%
%ADD85R,0.0512X0.0512*%
%ADD84R,0.0433X0.0433*%
%ADD83R,0.0433X0.0433*%
%ADD82R,0.0551X0.0551*%
%ADD81R,0.0390X0.0390*%
G54D81*X66400Y75650D02*Y74850D01*
X56600Y75650D02*Y74850D01*
X76200Y75650D02*Y74850D01*
G54D82*X62305Y47339D02*X67620D01*
X62305Y39465D02*X67620D01*
X62305Y31591D02*X67620D01*
X35730Y47339D02*X41045D01*
X35730Y31591D02*X41045D01*
G54D83*X82027Y49275D02*X82422D01*
G54D84*X77106Y33134D02*X77500D01*
X86948D02*X87342D01*
G54D85*X144457Y47599D02*Y46813D01*
X151543Y47599D02*Y46813D01*
X28595Y89284D02*Y86922D01*
X40405Y89284D02*Y86922D01*
G54D86*X31906Y66756D02*X33874D01*
X31906Y61244D02*X33874D01*
X18126Y66756D02*X20094D01*
X18126Y61244D02*X20094D01*
G54D85*X15957Y33893D02*Y33107D01*
X23043Y33893D02*Y33107D01*
X15957Y46893D02*Y46107D01*
X23043Y46893D02*Y46107D01*
M02*
