G04 start of page 6 for group -4063 idx -4063 *
G04 Title: (unknown), componentmask *
G04 Creator: pcb 20110918 *
G04 CreationDate: Mon Jun 10 22:15:59 2013 UTC *
G04 For: fosse *
G04 Format: Gerber/RS-274X *
G04 PCB-Dimensions: 200000 148000 *
G04 PCB-Coordinate-Origin: lower left *
%MOIN*%
%FSLAX25Y25*%
%LNTOPMASK*%
%ADD65R,0.0494X0.0494*%
%ADD64R,0.0572X0.0572*%
%ADD63R,0.0493X0.0493*%
%ADD62R,0.0493X0.0493*%
%ADD61R,0.0651X0.0651*%
%ADD60R,0.0490X0.0490*%
%ADD59C,0.0810*%
%ADD58C,0.1510*%
%ADD57C,0.0610*%
%ADD56C,0.0651*%
%ADD55C,0.0660*%
%ADD54C,0.0001*%
G54D54*G36*
X130200Y29300D02*Y22700D01*
X136800D01*
Y29300D01*
X130200D01*
G37*
G54D55*X133500Y36000D03*
Y46000D03*
Y56000D03*
Y66000D03*
Y76000D03*
Y86000D03*
G54D54*G36*
X136904Y121524D02*Y115018D01*
X143410D01*
Y121524D01*
X136904D01*
G37*
G54D56*X145079Y126145D03*
X150000Y118271D03*
X154921Y126145D03*
G54D57*X115500Y134000D03*
G54D55*X163500Y86000D03*
Y76000D03*
Y66000D03*
Y56000D03*
Y46000D03*
Y36000D03*
Y26000D03*
G54D58*X188900Y12100D03*
G54D59*X60500Y65000D03*
X72300D03*
G54D58*X9500Y136500D03*
G54D54*G36*
X16200Y91800D02*Y85200D01*
X22800D01*
Y91800D01*
X16200D01*
G37*
G54D55*X19500Y98500D03*
Y108500D03*
Y118500D03*
X49500D03*
G54D54*G36*
X62450Y137050D02*Y130950D01*
X68550D01*
Y137050D01*
X62450D01*
G37*
G54D55*X49500Y108500D03*
Y98500D03*
Y88500D03*
G54D60*X66400Y75650D02*Y74850D01*
X56600Y75650D02*Y74850D01*
X76200Y75650D02*Y74850D01*
G54D61*X62305Y47339D02*X67620D01*
G54D62*X82027Y49275D02*X82422D01*
G54D61*X62305Y39465D02*X67620D01*
X62305Y31591D02*X67620D01*
G54D63*X77106Y33134D02*X77500D01*
X86948D02*X87342D01*
G54D61*X35730Y47339D02*X41045D01*
G54D64*X144457Y47599D02*Y46813D01*
X151543Y47599D02*Y46813D01*
G54D61*X35730Y31591D02*X41045D01*
G54D64*X28595Y89284D02*Y86922D01*
X40405Y89284D02*Y86922D01*
G54D65*X31906Y66756D02*X33874D01*
X31906Y61244D02*X33874D01*
X18126Y66756D02*X20094D01*
X18126Y61244D02*X20094D01*
G54D64*X15957Y33893D02*Y33107D01*
X23043Y33893D02*Y33107D01*
X15957Y46893D02*Y46107D01*
X23043Y46893D02*Y46107D01*
M02*
