G04 start of page 12 for group -3984 idx -3984 *
G04 Title: (unknown), fab *
G04 Creator: pcb 20110918 *
G04 CreationDate: Mon Jun 10 22:15:59 2013 UTC *
G04 For: fosse *
G04 Format: Gerber/RS-274X *
G04 PCB-Dimensions: 200000 148000 *
G04 PCB-Coordinate-Origin: lower left *
%MOIN*%
%FSLAX25Y25*%
%LNFAB*%
%ADD93C,0.0100*%
%ADD92C,0.0075*%
%ADD91C,0.0060*%
%ADD90R,0.0080X0.0080*%
G54D90*X8700Y136500D02*G75*G03X10300Y136500I800J0D01*G01*
G75*G03X8700Y136500I-800J0D01*G01*
X188100Y12100D02*G75*G03X189700Y12100I800J0D01*G01*
G75*G03X188100Y12100I-800J0D01*G01*
X14200Y159250D02*G75*G03X15800Y159250I800J0D01*G01*
G75*G03X14200Y159250I-800J0D01*G01*
G54D91*X135000Y161500D02*X136500Y158500D01*
X138000Y161500D01*
X136500Y158500D02*Y155500D01*
X139800Y158800D02*X142050D01*
X139800Y155500D02*X142800D01*
X139800Y161500D02*Y155500D01*
Y161500D02*X142800D01*
X147600D02*X148350Y160750D01*
X145350Y161500D02*X147600D01*
X144600Y160750D02*X145350Y161500D01*
X144600Y160750D02*Y159250D01*
X145350Y158500D01*
X147600D01*
X148350Y157750D01*
Y156250D01*
X147600Y155500D02*X148350Y156250D01*
X145350Y155500D02*X147600D01*
X144600Y156250D02*X145350Y155500D01*
X98000Y160750D02*X98750Y161500D01*
X101000D01*
X101750Y160750D01*
Y159250D01*
X98000Y155500D02*X101750Y159250D01*
X98000Y155500D02*X101750D01*
X45000Y156250D02*X45750Y155500D01*
X45000Y160750D02*Y156250D01*
Y160750D02*X45750Y161500D01*
X47250D01*
X48000Y160750D01*
Y156250D01*
X47250Y155500D02*X48000Y156250D01*
X45750Y155500D02*X47250D01*
X45000Y157000D02*X48000Y160000D01*
X49800Y155500D02*X50550D01*
X52350Y160300D02*X53550Y161500D01*
Y155500D01*
X52350D02*X54600D01*
X56400Y160750D02*X57150Y161500D01*
X59400D01*
X60150Y160750D01*
Y159250D01*
X56400Y155500D02*X60150Y159250D01*
X56400Y155500D02*X60150D01*
X61950Y161500D02*X64950D01*
X61950D02*Y158500D01*
X62700Y159250D01*
X64200D01*
X64950Y158500D01*
Y156250D01*
X64200Y155500D02*X64950Y156250D01*
X62700Y155500D02*X64200D01*
X61950Y156250D02*X62700Y155500D01*
X59300Y66200D02*X61700Y63800D01*
X59300D02*X61700Y66200D01*
X71100D02*X73500Y63800D01*
X71100D02*X73500Y66200D01*
X138957Y119471D02*X141357Y117071D01*
X138957D02*X141357Y119471D01*
X143879Y127345D02*X146279Y124945D01*
X143879D02*X146279Y127345D01*
X148800Y119471D02*X151200Y117071D01*
X148800D02*X151200Y119471D01*
X153721Y127345D02*X156121Y124945D01*
X153721D02*X156121Y127345D01*
X64300Y135200D02*X66700Y132800D01*
X64300D02*X66700Y135200D01*
X114300D02*X116700Y132800D01*
X114300D02*X116700Y135200D01*
X100800Y65200D02*X103200Y62800D01*
X100800D02*X103200Y65200D01*
X65300Y83700D02*X67700Y81300D01*
X65300D02*X67700Y83700D01*
X79300Y40700D02*X81700Y38300D01*
X79300D02*X81700Y40700D01*
X14800Y41200D02*X17200Y38800D01*
X14800D02*X17200Y41200D01*
X13800Y175450D02*X16200Y173050D01*
X13800D02*X16200Y175450D01*
X135000Y176500D02*X136500Y173500D01*
X138000Y176500D01*
X136500Y173500D02*Y170500D01*
X139800Y173800D02*X142050D01*
X139800Y170500D02*X142800D01*
X139800Y176500D02*Y170500D01*
Y176500D02*X142800D01*
X147600D02*X148350Y175750D01*
X145350Y176500D02*X147600D01*
X144600Y175750D02*X145350Y176500D01*
X144600Y175750D02*Y174250D01*
X145350Y173500D01*
X147600D01*
X148350Y172750D01*
Y171250D01*
X147600Y170500D02*X148350Y171250D01*
X145350Y170500D02*X147600D01*
X144600Y171250D02*X145350Y170500D01*
X98000Y175300D02*X99200Y176500D01*
Y170500D01*
X98000D02*X100250D01*
X102050Y175750D02*X102800Y176500D01*
X105050D01*
X105800Y175750D01*
Y174250D01*
X102050Y170500D02*X105800Y174250D01*
X102050Y170500D02*X105800D01*
X45000Y171250D02*X45750Y170500D01*
X45000Y175750D02*Y171250D01*
Y175750D02*X45750Y176500D01*
X47250D01*
X48000Y175750D01*
Y171250D01*
X47250Y170500D02*X48000Y171250D01*
X45750Y170500D02*X47250D01*
X45000Y172000D02*X48000Y175000D01*
X49800Y170500D02*X50550D01*
X52350Y171250D02*X53100Y170500D01*
X52350Y175750D02*Y171250D01*
Y175750D02*X53100Y176500D01*
X54600D01*
X55350Y175750D01*
Y171250D01*
X54600Y170500D02*X55350Y171250D01*
X53100Y170500D02*X54600D01*
X52350Y172000D02*X55350Y175000D01*
X57150Y175750D02*X57900Y176500D01*
X59400D01*
X60150Y175750D01*
X59400Y170500D02*X60150Y171250D01*
X57900Y170500D02*X59400D01*
X57150Y171250D02*X57900Y170500D01*
Y173800D02*X59400D01*
X60150Y175750D02*Y174550D01*
Y173050D02*Y171250D01*
Y173050D02*X59400Y173800D01*
X60150Y174550D02*X59400Y173800D01*
X61950Y176500D02*X64950D01*
X61950D02*Y173500D01*
X62700Y174250D01*
X64200D01*
X64950Y173500D01*
Y171250D01*
X64200Y170500D02*X64950Y171250D01*
X62700Y170500D02*X64200D01*
X61950Y171250D02*X62700Y170500D01*
X133500Y27600D02*Y24400D01*
X131900Y26000D02*X135100D01*
X133500Y37600D02*Y34400D01*
X131900Y36000D02*X135100D01*
X133500Y47600D02*Y44400D01*
X131900Y46000D02*X135100D01*
X133500Y57600D02*Y54400D01*
X131900Y56000D02*X135100D01*
X133500Y67600D02*Y64400D01*
X131900Y66000D02*X135100D01*
X133500Y77600D02*Y74400D01*
X131900Y76000D02*X135100D01*
X133500Y87600D02*Y84400D01*
X131900Y86000D02*X135100D01*
X163500Y87600D02*Y84400D01*
X161900Y86000D02*X165100D01*
X163500Y77600D02*Y74400D01*
X161900Y76000D02*X165100D01*
X163500Y67600D02*Y64400D01*
X161900Y66000D02*X165100D01*
X163500Y57600D02*Y54400D01*
X161900Y56000D02*X165100D01*
X163500Y47600D02*Y44400D01*
X161900Y46000D02*X165100D01*
X163500Y37600D02*Y34400D01*
X161900Y36000D02*X165100D01*
X163500Y27600D02*Y24400D01*
X161900Y26000D02*X165100D01*
X19500Y90100D02*Y86900D01*
X17900Y88500D02*X21100D01*
X19500Y100100D02*Y96900D01*
X17900Y98500D02*X21100D01*
X19500Y110100D02*Y106900D01*
X17900Y108500D02*X21100D01*
X19500Y120100D02*Y116900D01*
X17900Y118500D02*X21100D01*
X49500Y120100D02*Y116900D01*
X47900Y118500D02*X51100D01*
X49500Y110100D02*Y106900D01*
X47900Y108500D02*X51100D01*
X49500Y100100D02*Y96900D01*
X47900Y98500D02*X51100D01*
X49500Y90100D02*Y86900D01*
X47900Y88500D02*X51100D01*
X15000Y190850D02*Y187650D01*
X13400Y189250D02*X16600D01*
X135000Y191500D02*X136500Y188500D01*
X138000Y191500D01*
X136500Y188500D02*Y185500D01*
X139800Y188800D02*X142050D01*
X139800Y185500D02*X142800D01*
X139800Y191500D02*Y185500D01*
Y191500D02*X142800D01*
X147600D02*X148350Y190750D01*
X145350Y191500D02*X147600D01*
X144600Y190750D02*X145350Y191500D01*
X144600Y190750D02*Y189250D01*
X145350Y188500D01*
X147600D01*
X148350Y187750D01*
Y186250D01*
X147600Y185500D02*X148350Y186250D01*
X145350Y185500D02*X147600D01*
X144600Y186250D02*X145350Y185500D01*
X98000Y190750D02*X98750Y191500D01*
X101000D01*
X101750Y190750D01*
Y189250D01*
X98000Y185500D02*X101750Y189250D01*
X98000Y185500D02*X101750D01*
X103550Y190750D02*X104300Y191500D01*
X106550D01*
X107300Y190750D01*
Y189250D01*
X103550Y185500D02*X107300Y189250D01*
X103550Y185500D02*X107300D01*
X45000Y186250D02*X45750Y185500D01*
X45000Y190750D02*Y186250D01*
Y190750D02*X45750Y191500D01*
X47250D01*
X48000Y190750D01*
Y186250D01*
X47250Y185500D02*X48000Y186250D01*
X45750Y185500D02*X47250D01*
X45000Y187000D02*X48000Y190000D01*
X49800Y185500D02*X50550D01*
X52350Y186250D02*X53100Y185500D01*
X52350Y190750D02*Y186250D01*
Y190750D02*X53100Y191500D01*
X54600D01*
X55350Y190750D01*
Y186250D01*
X54600Y185500D02*X55350Y186250D01*
X53100Y185500D02*X54600D01*
X52350Y187000D02*X55350Y190000D01*
X57150Y190750D02*X57900Y191500D01*
X60150D01*
X60900Y190750D01*
Y189250D01*
X57150Y185500D02*X60900Y189250D01*
X57150Y185500D02*X60900D01*
X62700Y186250D02*X63450Y185500D01*
X62700Y187450D02*Y186250D01*
Y187450D02*X63750Y188500D01*
X64650D01*
X65700Y187450D01*
Y186250D01*
X64950Y185500D02*X65700Y186250D01*
X63450Y185500D02*X64950D01*
X62700Y189550D02*X63750Y188500D01*
X62700Y190750D02*Y189550D01*
Y190750D02*X63450Y191500D01*
X64950D01*
X65700Y190750D01*
Y189550D01*
X64650Y188500D02*X65700Y189550D01*
X98000Y99000D02*Y97400D01*
Y99000D02*X99387Y99800D01*
X98000Y99000D02*X96613Y99800D01*
X38000Y80000D02*Y78400D01*
Y80000D02*X39387Y80800D01*
X38000Y80000D02*X36613Y80800D01*
X43000Y69500D02*Y67900D01*
Y69500D02*X44387Y70300D01*
X43000Y69500D02*X41613Y70300D01*
X30000Y96000D02*Y94400D01*
Y96000D02*X31387Y96800D01*
X30000Y96000D02*X28613Y96800D01*
X37000Y55000D02*Y53400D01*
Y55000D02*X38387Y55800D01*
X37000Y55000D02*X35613Y55800D01*
X38500Y39500D02*Y37900D01*
Y39500D02*X39887Y40300D01*
X38500Y39500D02*X37113Y40300D01*
X20000Y77000D02*Y75400D01*
Y77000D02*X21387Y77800D01*
X20000Y77000D02*X18613Y77800D01*
X14000Y76000D02*Y74400D01*
Y76000D02*X15387Y76800D01*
X14000Y76000D02*X12613Y76800D01*
X15000Y204250D02*Y202650D01*
Y204250D02*X16387Y205050D01*
X15000Y204250D02*X13613Y205050D01*
X135000Y206500D02*X136500Y203500D01*
X138000Y206500D01*
X136500Y203500D02*Y200500D01*
X139800Y203800D02*X142050D01*
X139800Y200500D02*X142800D01*
X139800Y206500D02*Y200500D01*
Y206500D02*X142800D01*
X147600D02*X148350Y205750D01*
X145350Y206500D02*X147600D01*
X144600Y205750D02*X145350Y206500D01*
X144600Y205750D02*Y204250D01*
X145350Y203500D01*
X147600D01*
X148350Y202750D01*
Y201250D01*
X147600Y200500D02*X148350Y201250D01*
X145350Y200500D02*X147600D01*
X144600Y201250D02*X145350Y200500D01*
X98000Y201250D02*X98750Y200500D01*
X98000Y202450D02*Y201250D01*
Y202450D02*X99050Y203500D01*
X99950D01*
X101000Y202450D01*
Y201250D01*
X100250Y200500D02*X101000Y201250D01*
X98750Y200500D02*X100250D01*
X98000Y204550D02*X99050Y203500D01*
X98000Y205750D02*Y204550D01*
Y205750D02*X98750Y206500D01*
X100250D01*
X101000Y205750D01*
Y204550D01*
X99950Y203500D02*X101000Y204550D01*
X45000Y201250D02*X45750Y200500D01*
X45000Y205750D02*Y201250D01*
Y205750D02*X45750Y206500D01*
X47250D01*
X48000Y205750D01*
Y201250D01*
X47250Y200500D02*X48000Y201250D01*
X45750Y200500D02*X47250D01*
X45000Y202000D02*X48000Y205000D01*
X49800Y200500D02*X50550D01*
X52350Y201250D02*X53100Y200500D01*
X52350Y205750D02*Y201250D01*
Y205750D02*X53100Y206500D01*
X54600D01*
X55350Y205750D01*
Y201250D01*
X54600Y200500D02*X55350Y201250D01*
X53100Y200500D02*X54600D01*
X52350Y202000D02*X55350Y205000D01*
X57150Y205750D02*X57900Y206500D01*
X60150D01*
X60900Y205750D01*
Y204250D01*
X57150Y200500D02*X60900Y204250D01*
X57150Y200500D02*X60900D01*
X62700Y201250D02*X63450Y200500D01*
X62700Y205750D02*Y201250D01*
Y205750D02*X63450Y206500D01*
X64950D01*
X65700Y205750D01*
Y201250D01*
X64950Y200500D02*X65700Y201250D01*
X63450Y200500D02*X64950D01*
X62700Y202000D02*X65700Y205000D01*
X3000Y221500D02*X3750Y220750D01*
X750Y221500D02*X3000D01*
X0Y220750D02*X750Y221500D01*
X0Y220750D02*Y219250D01*
X750Y218500D01*
X3000D01*
X3750Y217750D01*
Y216250D01*
X3000Y215500D02*X3750Y216250D01*
X750Y215500D02*X3000D01*
X0Y216250D02*X750Y215500D01*
X5550Y218500D02*Y216250D01*
X6300Y215500D01*
X8550Y218500D02*Y214000D01*
X7800Y213250D02*X8550Y214000D01*
X6300Y213250D02*X7800D01*
X5550Y214000D02*X6300Y213250D01*
Y215500D02*X7800D01*
X8550Y216250D01*
X11100Y217750D02*Y215500D01*
Y217750D02*X11850Y218500D01*
X12600D01*
X13350Y217750D01*
Y215500D01*
Y217750D02*X14100Y218500D01*
X14850D01*
X15600Y217750D01*
Y215500D01*
X10350Y218500D02*X11100Y217750D01*
X17400Y221500D02*Y215500D01*
Y216250D02*X18150Y215500D01*
X19650D01*
X20400Y216250D01*
Y217750D02*Y216250D01*
X19650Y218500D02*X20400Y217750D01*
X18150Y218500D02*X19650D01*
X17400Y217750D02*X18150Y218500D01*
X22200Y217750D02*Y216250D01*
Y217750D02*X22950Y218500D01*
X24450D01*
X25200Y217750D01*
Y216250D01*
X24450Y215500D02*X25200Y216250D01*
X22950Y215500D02*X24450D01*
X22200Y216250D02*X22950Y215500D01*
X27000Y221500D02*Y216250D01*
X27750Y215500D01*
X0Y212250D02*X29250D01*
X41750Y221500D02*Y215500D01*
X43700Y221500D02*X44750Y220450D01*
Y216550D01*
X43700Y215500D02*X44750Y216550D01*
X41000Y215500D02*X43700D01*
X41000Y221500D02*X43700D01*
G54D92*X46550Y220000D02*Y219850D01*
G54D91*Y217750D02*Y215500D01*
X50300Y218500D02*X51050Y217750D01*
X48800Y218500D02*X50300D01*
X48050Y217750D02*X48800Y218500D01*
X48050Y217750D02*Y216250D01*
X48800Y215500D01*
X51050Y218500D02*Y216250D01*
X51800Y215500D01*
X48800D02*X50300D01*
X51050Y216250D01*
X54350Y217750D02*Y215500D01*
Y217750D02*X55100Y218500D01*
X55850D01*
X56600Y217750D01*
Y215500D01*
Y217750D02*X57350Y218500D01*
X58100D01*
X58850Y217750D01*
Y215500D01*
X53600Y218500D02*X54350Y217750D01*
X60650Y215500D02*X61400D01*
X65900Y216250D02*X66650Y215500D01*
X65900Y220750D02*X66650Y221500D01*
X65900Y220750D02*Y216250D01*
X68450Y221500D02*X69950D01*
X69200D02*Y215500D01*
X68450D02*X69950D01*
X72500Y217750D02*Y215500D01*
Y217750D02*X73250Y218500D01*
X74000D01*
X74750Y217750D01*
Y215500D01*
X71750Y218500D02*X72500Y217750D01*
X77300Y218500D02*X79550D01*
X76550Y217750D02*X77300Y218500D01*
X76550Y217750D02*Y216250D01*
X77300Y215500D01*
X79550D01*
X81350Y221500D02*Y215500D01*
Y217750D02*X82100Y218500D01*
X83600D01*
X84350Y217750D01*
Y215500D01*
X86150Y221500D02*X86900Y220750D01*
Y216250D01*
X86150Y215500D02*X86900Y216250D01*
X41000Y212250D02*X88700D01*
X96050Y215500D02*X98000D01*
X95000Y216550D02*X96050Y215500D01*
X95000Y220450D02*Y216550D01*
Y220450D02*X96050Y221500D01*
X98000D01*
X99800Y217750D02*Y216250D01*
Y217750D02*X100550Y218500D01*
X102050D01*
X102800Y217750D01*
Y216250D01*
X102050Y215500D02*X102800Y216250D01*
X100550Y215500D02*X102050D01*
X99800Y216250D02*X100550Y215500D01*
X104600Y218500D02*Y216250D01*
X105350Y215500D01*
X106850D01*
X107600Y216250D01*
Y218500D02*Y216250D01*
X110150Y217750D02*Y215500D01*
Y217750D02*X110900Y218500D01*
X111650D01*
X112400Y217750D01*
Y215500D01*
X109400Y218500D02*X110150Y217750D01*
X114950Y221500D02*Y216250D01*
X115700Y215500D01*
X114200Y219250D02*X115700D01*
X95000Y212250D02*X117200D01*
X130750Y221500D02*Y215500D01*
X130000Y221500D02*X133000D01*
X133750Y220750D01*
Y219250D01*
X133000Y218500D02*X133750Y219250D01*
X130750Y218500D02*X133000D01*
X135550Y221500D02*Y216250D01*
X136300Y215500D01*
X140050Y218500D02*X140800Y217750D01*
X138550Y218500D02*X140050D01*
X137800Y217750D02*X138550Y218500D01*
X137800Y217750D02*Y216250D01*
X138550Y215500D01*
X140800Y218500D02*Y216250D01*
X141550Y215500D01*
X138550D02*X140050D01*
X140800Y216250D01*
X144100Y221500D02*Y216250D01*
X144850Y215500D01*
X143350Y219250D02*X144850D01*
X147100Y215500D02*X149350D01*
X146350Y216250D02*X147100Y215500D01*
X146350Y217750D02*Y216250D01*
Y217750D02*X147100Y218500D01*
X148600D01*
X149350Y217750D01*
X146350Y217000D02*X149350D01*
Y217750D02*Y217000D01*
X154150Y221500D02*Y215500D01*
X153400D02*X154150Y216250D01*
X151900Y215500D02*X153400D01*
X151150Y216250D02*X151900Y215500D01*
X151150Y217750D02*Y216250D01*
Y217750D02*X151900Y218500D01*
X153400D01*
X154150Y217750D01*
X157450Y218500D02*Y217750D01*
Y216250D02*Y215500D01*
X155950Y220750D02*Y220000D01*
Y220750D02*X156700Y221500D01*
X158200D01*
X158950Y220750D01*
Y220000D01*
X157450Y218500D02*X158950Y220000D01*
X130000Y212250D02*X160750D01*
X0Y236500D02*X3000D01*
X1500D02*Y230500D01*
X4800Y236500D02*Y230500D01*
Y232750D02*X5550Y233500D01*
X7050D01*
X7800Y232750D01*
Y230500D01*
X10350D02*X12600D01*
X9600Y231250D02*X10350Y230500D01*
X9600Y232750D02*Y231250D01*
Y232750D02*X10350Y233500D01*
X11850D01*
X12600Y232750D01*
X9600Y232000D02*X12600D01*
Y232750D02*Y232000D01*
X15150Y232750D02*Y230500D01*
Y232750D02*X15900Y233500D01*
X17400D01*
X14400D02*X15150Y232750D01*
X19950Y230500D02*X22200D01*
X19200Y231250D02*X19950Y230500D01*
X19200Y232750D02*Y231250D01*
Y232750D02*X19950Y233500D01*
X21450D01*
X22200Y232750D01*
X19200Y232000D02*X22200D01*
Y232750D02*Y232000D01*
X28950Y233500D02*X29700Y232750D01*
X27450Y233500D02*X28950D01*
X26700Y232750D02*X27450Y233500D01*
X26700Y232750D02*Y231250D01*
X27450Y230500D01*
X29700Y233500D02*Y231250D01*
X30450Y230500D01*
X27450D02*X28950D01*
X29700Y231250D01*
X33000Y232750D02*Y230500D01*
Y232750D02*X33750Y233500D01*
X35250D01*
X32250D02*X33000Y232750D01*
X37800Y230500D02*X40050D01*
X37050Y231250D02*X37800Y230500D01*
X37050Y232750D02*Y231250D01*
Y232750D02*X37800Y233500D01*
X39300D01*
X40050Y232750D01*
X37050Y232000D02*X40050D01*
Y232750D02*Y232000D01*
X44550Y232750D02*X47550Y236500D01*
X44550Y232750D02*X48300D01*
X47550Y236500D02*Y230500D01*
X55800Y236500D02*Y230500D01*
X55050D02*X55800Y231250D01*
X53550Y230500D02*X55050D01*
X52800Y231250D02*X53550Y230500D01*
X52800Y232750D02*Y231250D01*
Y232750D02*X53550Y233500D01*
X55050D01*
X55800Y232750D01*
G54D92*X57600Y235000D02*Y234850D01*
G54D91*Y232750D02*Y230500D01*
X59850Y235750D02*Y230500D01*
Y235750D02*X60600Y236500D01*
X61350D01*
X59100Y233500D02*X60600D01*
X63600Y235750D02*Y230500D01*
Y235750D02*X64350Y236500D01*
X65100D01*
X62850Y233500D02*X64350D01*
X67350Y230500D02*X69600D01*
X66600Y231250D02*X67350Y230500D01*
X66600Y232750D02*Y231250D01*
Y232750D02*X67350Y233500D01*
X68850D01*
X69600Y232750D01*
X66600Y232000D02*X69600D01*
Y232750D02*Y232000D01*
X72150Y232750D02*Y230500D01*
Y232750D02*X72900Y233500D01*
X74400D01*
X71400D02*X72150Y232750D01*
X76950Y230500D02*X79200D01*
X76200Y231250D02*X76950Y230500D01*
X76200Y232750D02*Y231250D01*
Y232750D02*X76950Y233500D01*
X78450D01*
X79200Y232750D01*
X76200Y232000D02*X79200D01*
Y232750D02*Y232000D01*
X81750Y232750D02*Y230500D01*
Y232750D02*X82500Y233500D01*
X83250D01*
X84000Y232750D01*
Y230500D01*
X81000Y233500D02*X81750Y232750D01*
X86550Y236500D02*Y231250D01*
X87300Y230500D01*
X85800Y234250D02*X87300D01*
X94500Y236500D02*Y230500D01*
X93750D02*X94500Y231250D01*
X92250Y230500D02*X93750D01*
X91500Y231250D02*X92250Y230500D01*
X91500Y232750D02*Y231250D01*
Y232750D02*X92250Y233500D01*
X93750D01*
X94500Y232750D01*
X97050D02*Y230500D01*
Y232750D02*X97800Y233500D01*
X99300D01*
X96300D02*X97050Y232750D01*
G54D92*X101100Y235000D02*Y234850D01*
G54D91*Y232750D02*Y230500D01*
X102600Y236500D02*Y231250D01*
X103350Y230500D01*
X104850Y236500D02*Y231250D01*
X105600Y230500D01*
X110550D02*X112800D01*
X113550Y231250D01*
X112800Y232000D02*X113550Y231250D01*
X110550Y232000D02*X112800D01*
X109800Y232750D02*X110550Y232000D01*
X109800Y232750D02*X110550Y233500D01*
X112800D01*
X113550Y232750D01*
X109800Y231250D02*X110550Y230500D01*
G54D92*X115350Y235000D02*Y234850D01*
G54D91*Y232750D02*Y230500D01*
X116850Y233500D02*X119850D01*
X116850Y230500D02*X119850Y233500D01*
X116850Y230500D02*X119850D01*
X122400D02*X124650D01*
X121650Y231250D02*X122400Y230500D01*
X121650Y232750D02*Y231250D01*
Y232750D02*X122400Y233500D01*
X123900D01*
X124650Y232750D01*
X121650Y232000D02*X124650D01*
Y232750D02*Y232000D01*
X127200Y230500D02*X129450D01*
X130200Y231250D01*
X129450Y232000D02*X130200Y231250D01*
X127200Y232000D02*X129450D01*
X126450Y232750D02*X127200Y232000D01*
X126450Y232750D02*X127200Y233500D01*
X129450D01*
X130200Y232750D01*
X126450Y231250D02*X127200Y230500D01*
X134700Y233500D02*Y231250D01*
X135450Y230500D01*
X136950D01*
X137700Y231250D01*
Y233500D02*Y231250D01*
X140250Y230500D02*X142500D01*
X143250Y231250D01*
X142500Y232000D02*X143250Y231250D01*
X140250Y232000D02*X142500D01*
X139500Y232750D02*X140250Y232000D01*
X139500Y232750D02*X140250Y233500D01*
X142500D01*
X143250Y232750D01*
X139500Y231250D02*X140250Y230500D01*
X145800D02*X148050D01*
X145050Y231250D02*X145800Y230500D01*
X145050Y232750D02*Y231250D01*
Y232750D02*X145800Y233500D01*
X147300D01*
X148050Y232750D01*
X145050Y232000D02*X148050D01*
Y232750D02*Y232000D01*
X152850Y236500D02*Y230500D01*
X152100D02*X152850Y231250D01*
X150600Y230500D02*X152100D01*
X149850Y231250D02*X150600Y230500D01*
X149850Y232750D02*Y231250D01*
Y232750D02*X150600Y233500D01*
X152100D01*
X152850Y232750D01*
G54D92*X157350Y235000D02*Y234850D01*
G54D91*Y232750D02*Y230500D01*
X159600Y232750D02*Y230500D01*
Y232750D02*X160350Y233500D01*
X161100D01*
X161850Y232750D01*
Y230500D01*
X158850Y233500D02*X159600Y232750D01*
X167100Y236500D02*Y231250D01*
X167850Y230500D01*
X166350Y234250D02*X167850D01*
X169350Y236500D02*Y230500D01*
Y232750D02*X170100Y233500D01*
X171600D01*
X172350Y232750D01*
Y230500D01*
G54D92*X174150Y235000D02*Y234850D01*
G54D91*Y232750D02*Y230500D01*
X176400D02*X178650D01*
X179400Y231250D01*
X178650Y232000D02*X179400Y231250D01*
X176400Y232000D02*X178650D01*
X175650Y232750D02*X176400Y232000D01*
X175650Y232750D02*X176400Y233500D01*
X178650D01*
X179400Y232750D01*
X175650Y231250D02*X176400Y230500D01*
X183900Y236500D02*Y231250D01*
X184650Y230500D01*
X188400Y233500D02*X189150Y232750D01*
X186900Y233500D02*X188400D01*
X186150Y232750D02*X186900Y233500D01*
X186150Y232750D02*Y231250D01*
X186900Y230500D01*
X189150Y233500D02*Y231250D01*
X189900Y230500D01*
X186900D02*X188400D01*
X189150Y231250D01*
X191700Y233500D02*Y231250D01*
X192450Y230500D01*
X194700Y233500D02*Y229000D01*
X193950Y228250D02*X194700Y229000D01*
X192450Y228250D02*X193950D01*
X191700Y229000D02*X192450Y228250D01*
Y230500D02*X193950D01*
X194700Y231250D01*
X196500Y232750D02*Y231250D01*
Y232750D02*X197250Y233500D01*
X198750D01*
X199500Y232750D01*
Y231250D01*
X198750Y230500D02*X199500Y231250D01*
X197250Y230500D02*X198750D01*
X196500Y231250D02*X197250Y230500D01*
X201300Y233500D02*Y231250D01*
X202050Y230500D01*
X203550D01*
X204300Y231250D01*
Y233500D02*Y231250D01*
X206850Y236500D02*Y231250D01*
X207600Y230500D01*
X206100Y234250D02*X207600D01*
X209100Y229000D02*X210600Y230500D01*
X215100Y232750D02*X218100Y236500D01*
X215100Y232750D02*X218850D01*
X218100Y236500D02*Y230500D01*
X220650Y232750D02*X223650Y236500D01*
X220650Y232750D02*X224400D01*
X223650Y236500D02*Y230500D01*
X228900Y236500D02*Y230500D01*
Y232750D02*X229650Y233500D01*
X231150D01*
X231900Y232750D01*
Y230500D01*
X233700Y232750D02*Y231250D01*
Y232750D02*X234450Y233500D01*
X235950D01*
X236700Y232750D01*
Y231250D01*
X235950Y230500D02*X236700Y231250D01*
X234450Y230500D02*X235950D01*
X233700Y231250D02*X234450Y230500D01*
X238500Y236500D02*Y231250D01*
X239250Y230500D01*
X241500D02*X243750D01*
X240750Y231250D02*X241500Y230500D01*
X240750Y232750D02*Y231250D01*
Y232750D02*X241500Y233500D01*
X243000D01*
X243750Y232750D01*
X240750Y232000D02*X243750D01*
Y232750D02*Y232000D01*
X246300Y230500D02*X248550D01*
X249300Y231250D01*
X248550Y232000D02*X249300Y231250D01*
X246300Y232000D02*X248550D01*
X245550Y232750D02*X246300Y232000D01*
X245550Y232750D02*X246300Y233500D01*
X248550D01*
X249300Y232750D01*
X245550Y231250D02*X246300Y230500D01*
X254550Y236500D02*Y231250D01*
X255300Y230500D01*
X253800Y234250D02*X255300D01*
X256800Y232750D02*Y231250D01*
Y232750D02*X257550Y233500D01*
X259050D01*
X259800Y232750D01*
Y231250D01*
X259050Y230500D02*X259800Y231250D01*
X257550Y230500D02*X259050D01*
X256800Y231250D02*X257550Y230500D01*
X262350Y236500D02*Y231250D01*
X263100Y230500D01*
X261600Y234250D02*X263100D01*
X266850Y233500D02*X267600Y232750D01*
X265350Y233500D02*X266850D01*
X264600Y232750D02*X265350Y233500D01*
X264600Y232750D02*Y231250D01*
X265350Y230500D01*
X267600Y233500D02*Y231250D01*
X268350Y230500D01*
X265350D02*X266850D01*
X267600Y231250D01*
X270150Y236500D02*Y231250D01*
X270900Y230500D01*
G54D93*X178500Y146000D02*X9000D01*
X196000Y9500D02*Y128500D01*
X19800Y2500D02*X189000D01*
X2200Y139300D02*Y20100D01*
X189000Y2500D02*G75*G03X196000Y9500I0J7000D01*G01*
X178500Y146000D02*G75*G03X196000Y128500I17500J0D01*G01*
X9100Y146000D02*G75*G03X2200Y139100I0J-6900D01*G01*
X2200Y20100D02*G75*G02X19800Y2500I0J-17600D01*G01*
G54D91*X13675Y-9500D02*X16675D01*
X17425Y-8750D01*
Y-6950D02*Y-8750D01*
X16675Y-6200D02*X17425Y-6950D01*
X14425Y-6200D02*X16675D01*
X14425Y-3500D02*Y-9500D01*
X13675Y-3500D02*X16675D01*
X17425Y-4250D01*
Y-5450D01*
X16675Y-6200D02*X17425Y-5450D01*
X19225Y-7250D02*Y-8750D01*
Y-7250D02*X19975Y-6500D01*
X21475D01*
X22225Y-7250D01*
Y-8750D01*
X21475Y-9500D02*X22225Y-8750D01*
X19975Y-9500D02*X21475D01*
X19225Y-8750D02*X19975Y-9500D01*
X26275Y-6500D02*X27025Y-7250D01*
X24775Y-6500D02*X26275D01*
X24025Y-7250D02*X24775Y-6500D01*
X24025Y-7250D02*Y-8750D01*
X24775Y-9500D01*
X27025Y-6500D02*Y-8750D01*
X27775Y-9500D01*
X24775D02*X26275D01*
X27025Y-8750D01*
X30325Y-7250D02*Y-9500D01*
Y-7250D02*X31075Y-6500D01*
X32575D01*
X29575D02*X30325Y-7250D01*
X37375Y-3500D02*Y-9500D01*
X36625D02*X37375Y-8750D01*
X35125Y-9500D02*X36625D01*
X34375Y-8750D02*X35125Y-9500D01*
X34375Y-7250D02*Y-8750D01*
Y-7250D02*X35125Y-6500D01*
X36625D01*
X37375Y-7250D01*
X41875D02*Y-8750D01*
Y-7250D02*X42625Y-6500D01*
X44125D01*
X44875Y-7250D01*
Y-8750D01*
X44125Y-9500D02*X44875Y-8750D01*
X42625Y-9500D02*X44125D01*
X41875Y-8750D02*X42625Y-9500D01*
X46675Y-6500D02*Y-8750D01*
X47425Y-9500D01*
X48925D01*
X49675Y-8750D01*
Y-6500D02*Y-8750D01*
X52225Y-3500D02*Y-8750D01*
X52975Y-9500D01*
X51475Y-5750D02*X52975D01*
X54475Y-3500D02*Y-8750D01*
X55225Y-9500D01*
G54D92*X56725Y-5000D02*Y-5150D01*
G54D91*Y-7250D02*Y-9500D01*
X58975Y-7250D02*Y-9500D01*
Y-7250D02*X59725Y-6500D01*
X60475D01*
X61225Y-7250D01*
Y-9500D01*
X58225Y-6500D02*X58975Y-7250D01*
X63775Y-9500D02*X66025D01*
X63025Y-8750D02*X63775Y-9500D01*
X63025Y-7250D02*Y-8750D01*
Y-7250D02*X63775Y-6500D01*
X65275D01*
X66025Y-7250D01*
X63025Y-8000D02*X66025D01*
Y-7250D02*Y-8000D01*
G54D92*X70525Y-5000D02*Y-5150D01*
G54D91*Y-7250D02*Y-9500D01*
X72775D02*X75025D01*
X75775Y-8750D01*
X75025Y-8000D02*X75775Y-8750D01*
X72775Y-8000D02*X75025D01*
X72025Y-7250D02*X72775Y-8000D01*
X72025Y-7250D02*X72775Y-6500D01*
X75025D01*
X75775Y-7250D01*
X72025Y-8750D02*X72775Y-9500D01*
X81025Y-3500D02*Y-8750D01*
X81775Y-9500D01*
X80275Y-5750D02*X81775D01*
X83275Y-3500D02*Y-9500D01*
Y-7250D02*X84025Y-6500D01*
X85525D01*
X86275Y-7250D01*
Y-9500D01*
X88825D02*X91075D01*
X88075Y-8750D02*X88825Y-9500D01*
X88075Y-7250D02*Y-8750D01*
Y-7250D02*X88825Y-6500D01*
X90325D01*
X91075Y-7250D01*
X88075Y-8000D02*X91075D01*
Y-7250D02*Y-8000D01*
X96325Y-6500D02*X98575D01*
X95575Y-7250D02*X96325Y-6500D01*
X95575Y-7250D02*Y-8750D01*
X96325Y-9500D01*
X98575D01*
X101125D02*X103375D01*
X100375Y-8750D02*X101125Y-9500D01*
X100375Y-7250D02*Y-8750D01*
Y-7250D02*X101125Y-6500D01*
X102625D01*
X103375Y-7250D01*
X100375Y-8000D02*X103375D01*
Y-7250D02*Y-8000D01*
X105925Y-7250D02*Y-9500D01*
Y-7250D02*X106675Y-6500D01*
X107425D01*
X108175Y-7250D01*
Y-9500D01*
X105175Y-6500D02*X105925Y-7250D01*
X110725Y-3500D02*Y-8750D01*
X111475Y-9500D01*
X109975Y-5750D02*X111475D01*
X113725Y-9500D02*X115975D01*
X112975Y-8750D02*X113725Y-9500D01*
X112975Y-7250D02*Y-8750D01*
Y-7250D02*X113725Y-6500D01*
X115225D01*
X115975Y-7250D01*
X112975Y-8000D02*X115975D01*
Y-7250D02*Y-8000D01*
X118525Y-7250D02*Y-9500D01*
Y-7250D02*X119275Y-6500D01*
X120775D01*
X117775D02*X118525Y-7250D01*
X122575Y-3500D02*Y-8750D01*
X123325Y-9500D01*
G54D92*X124825Y-5000D02*Y-5150D01*
G54D91*Y-7250D02*Y-9500D01*
X127075Y-7250D02*Y-9500D01*
Y-7250D02*X127825Y-6500D01*
X128575D01*
X129325Y-7250D01*
Y-9500D01*
X126325Y-6500D02*X127075Y-7250D01*
X131875Y-9500D02*X134125D01*
X131125Y-8750D02*X131875Y-9500D01*
X131125Y-7250D02*Y-8750D01*
Y-7250D02*X131875Y-6500D01*
X133375D01*
X134125Y-7250D01*
X131125Y-8000D02*X134125D01*
Y-7250D02*Y-8000D01*
X138625Y-7250D02*Y-8750D01*
Y-7250D02*X139375Y-6500D01*
X140875D01*
X141625Y-7250D01*
Y-8750D01*
X140875Y-9500D02*X141625Y-8750D01*
X139375Y-9500D02*X140875D01*
X138625Y-8750D02*X139375Y-9500D01*
X144175Y-4250D02*Y-9500D01*
Y-4250D02*X144925Y-3500D01*
X145675D01*
X143425Y-6500D02*X144925D01*
X150625Y-3500D02*Y-8750D01*
X151375Y-9500D01*
X149875Y-5750D02*X151375D01*
X152875Y-3500D02*Y-9500D01*
Y-7250D02*X153625Y-6500D01*
X155125D01*
X155875Y-7250D01*
Y-9500D01*
G54D92*X157675Y-5000D02*Y-5150D01*
G54D91*Y-7250D02*Y-9500D01*
X159925D02*X162175D01*
X162925Y-8750D01*
X162175Y-8000D02*X162925Y-8750D01*
X159925Y-8000D02*X162175D01*
X159175Y-7250D02*X159925Y-8000D01*
X159175Y-7250D02*X159925Y-6500D01*
X162175D01*
X162925Y-7250D01*
X159175Y-8750D02*X159925Y-9500D01*
X168175Y-7250D02*Y-11750D01*
X167425Y-6500D02*X168175Y-7250D01*
X168925Y-6500D01*
X170425D01*
X171175Y-7250D01*
Y-8750D01*
X170425Y-9500D02*X171175Y-8750D01*
X168925Y-9500D02*X170425D01*
X168175Y-8750D02*X168925Y-9500D01*
X175225Y-6500D02*X175975Y-7250D01*
X173725Y-6500D02*X175225D01*
X172975Y-7250D02*X173725Y-6500D01*
X172975Y-7250D02*Y-8750D01*
X173725Y-9500D01*
X175975Y-6500D02*Y-8750D01*
X176725Y-9500D01*
X173725D02*X175225D01*
X175975Y-8750D01*
X179275Y-3500D02*Y-8750D01*
X180025Y-9500D01*
X178525Y-5750D02*X180025D01*
X181525Y-3500D02*Y-9500D01*
Y-7250D02*X182275Y-6500D01*
X183775D01*
X184525Y-7250D01*
Y-9500D01*
X200750Y176500D02*Y170500D01*
X202700Y176500D02*X203750Y175450D01*
Y171550D01*
X202700Y170500D02*X203750Y171550D01*
X200000Y170500D02*X202700D01*
X200000Y176500D02*X202700D01*
X207800Y173500D02*X208550Y172750D01*
X206300Y173500D02*X207800D01*
X205550Y172750D02*X206300Y173500D01*
X205550Y172750D02*Y171250D01*
X206300Y170500D01*
X208550Y173500D02*Y171250D01*
X209300Y170500D01*
X206300D02*X207800D01*
X208550Y171250D01*
X211850Y176500D02*Y171250D01*
X212600Y170500D01*
X211100Y174250D02*X212600D01*
X214850Y170500D02*X217100D01*
X214100Y171250D02*X214850Y170500D01*
X214100Y172750D02*Y171250D01*
Y172750D02*X214850Y173500D01*
X216350D01*
X217100Y172750D01*
X214100Y172000D02*X217100D01*
Y172750D02*Y172000D01*
X218900Y174250D02*X219650D01*
X218900Y172750D02*X219650D01*
X224150Y176500D02*Y170500D01*
Y176500D02*X226400Y173500D01*
X228650Y176500D01*
Y170500D01*
X230450Y172750D02*Y171250D01*
Y172750D02*X231200Y173500D01*
X232700D01*
X233450Y172750D01*
Y171250D01*
X232700Y170500D02*X233450Y171250D01*
X231200Y170500D02*X232700D01*
X230450Y171250D02*X231200Y170500D01*
X236000Y172750D02*Y170500D01*
Y172750D02*X236750Y173500D01*
X237500D01*
X238250Y172750D01*
Y170500D01*
X235250Y173500D02*X236000Y172750D01*
X243800Y176500D02*X245000D01*
Y171250D01*
X244250Y170500D02*X245000Y171250D01*
X243500Y170500D02*X244250D01*
X242750Y171250D02*X243500Y170500D01*
X242750Y172000D02*Y171250D01*
X246800Y173500D02*Y171250D01*
X247550Y170500D01*
X249050D01*
X249800Y171250D01*
Y173500D02*Y171250D01*
X252350Y172750D02*Y170500D01*
Y172750D02*X253100Y173500D01*
X253850D01*
X254600Y172750D01*
Y170500D01*
X251600Y173500D02*X252350Y172750D01*
X259100Y175300D02*X260300Y176500D01*
Y170500D01*
X259100D02*X261350D01*
X263150Y171250D02*X263900Y170500D01*
X263150Y175750D02*Y171250D01*
Y175750D02*X263900Y176500D01*
X265400D01*
X266150Y175750D01*
Y171250D01*
X265400Y170500D02*X266150Y171250D01*
X263900Y170500D02*X265400D01*
X263150Y172000D02*X266150Y175000D01*
X270650Y175750D02*X271400Y176500D01*
X273650D01*
X274400Y175750D01*
Y174250D01*
X270650Y170500D02*X274400Y174250D01*
X270650Y170500D02*X274400D01*
X276200Y175750D02*X276950Y176500D01*
X279200D01*
X279950Y175750D01*
Y174250D01*
X276200Y170500D02*X279950Y174250D01*
X276200Y170500D02*X279950D01*
X281750Y174250D02*X282500D01*
X281750Y172750D02*X282500D01*
X284300Y175300D02*X285500Y176500D01*
Y170500D01*
X284300D02*X286550D01*
X288350Y176500D02*X291350D01*
X288350D02*Y173500D01*
X289100Y174250D01*
X290600D01*
X291350Y173500D01*
Y171250D01*
X290600Y170500D02*X291350Y171250D01*
X289100Y170500D02*X290600D01*
X288350Y171250D02*X289100Y170500D01*
X293150Y174250D02*X293900D01*
X293150Y172750D02*X293900D01*
X295700Y176500D02*X298700D01*
X295700D02*Y173500D01*
X296450Y174250D01*
X297950D01*
X298700Y173500D01*
Y171250D01*
X297950Y170500D02*X298700Y171250D01*
X296450Y170500D02*X297950D01*
X295700Y171250D02*X296450Y170500D01*
X301250D02*X303500Y173500D01*
Y175750D02*Y173500D01*
X302750Y176500D02*X303500Y175750D01*
X301250Y176500D02*X302750D01*
X300500Y175750D02*X301250Y176500D01*
X300500Y175750D02*Y174250D01*
X301250Y173500D01*
X303500D01*
X308000Y175750D02*X308750Y176500D01*
X311000D01*
X311750Y175750D01*
Y174250D01*
X308000Y170500D02*X311750Y174250D01*
X308000Y170500D02*X311750D01*
X313550Y171250D02*X314300Y170500D01*
X313550Y175750D02*Y171250D01*
Y175750D02*X314300Y176500D01*
X315800D01*
X316550Y175750D01*
Y171250D01*
X315800Y170500D02*X316550Y171250D01*
X314300Y170500D02*X315800D01*
X313550Y172000D02*X316550Y175000D01*
X318350Y175300D02*X319550Y176500D01*
Y170500D01*
X318350D02*X320600D01*
X322400Y175750D02*X323150Y176500D01*
X324650D01*
X325400Y175750D01*
X324650Y170500D02*X325400Y171250D01*
X323150Y170500D02*X324650D01*
X322400Y171250D02*X323150Y170500D01*
Y173800D02*X324650D01*
X325400Y175750D02*Y174550D01*
Y173050D02*Y171250D01*
Y173050D02*X324650Y173800D01*
X325400Y174550D02*X324650Y173800D01*
X329900Y176500D02*Y171250D01*
X330650Y170500D01*
X332150D01*
X332900Y171250D01*
Y176500D02*Y171250D01*
X334700Y176500D02*X337700D01*
X336200D02*Y170500D01*
X340550D02*X342500D01*
X339500Y171550D02*X340550Y170500D01*
X339500Y175450D02*Y171550D01*
Y175450D02*X340550Y176500D01*
X342500D01*
X200000Y190000D02*Y185500D01*
Y190000D02*X201050Y191500D01*
X202700D01*
X203750Y190000D01*
Y185500D01*
X200000Y188500D02*X203750D01*
X205550D02*Y186250D01*
X206300Y185500D01*
X207800D01*
X208550Y186250D01*
Y188500D02*Y186250D01*
X211100Y191500D02*Y186250D01*
X211850Y185500D01*
X210350Y189250D02*X211850D01*
X213350Y191500D02*Y185500D01*
Y187750D02*X214100Y188500D01*
X215600D01*
X216350Y187750D01*
Y185500D01*
X218150Y187750D02*Y186250D01*
Y187750D02*X218900Y188500D01*
X220400D01*
X221150Y187750D01*
Y186250D01*
X220400Y185500D02*X221150Y186250D01*
X218900Y185500D02*X220400D01*
X218150Y186250D02*X218900Y185500D01*
X223700Y187750D02*Y185500D01*
Y187750D02*X224450Y188500D01*
X225950D01*
X222950D02*X223700Y187750D01*
X227750Y189250D02*X228500D01*
X227750Y187750D02*X228500D01*
X200000Y206500D02*X203000D01*
X201500D02*Y200500D01*
G54D92*X204800Y205000D02*Y204850D01*
G54D91*Y202750D02*Y200500D01*
X207050Y206500D02*Y201250D01*
X207800Y200500D01*
X206300Y204250D02*X207800D01*
X209300Y206500D02*Y201250D01*
X210050Y200500D01*
X212300D02*X214550D01*
X211550Y201250D02*X212300Y200500D01*
X211550Y202750D02*Y201250D01*
Y202750D02*X212300Y203500D01*
X213800D01*
X214550Y202750D01*
X211550Y202000D02*X214550D01*
Y202750D02*Y202000D01*
X216350Y204250D02*X217100D01*
X216350Y202750D02*X217100D01*
X221600Y201250D02*X222350Y200500D01*
X221600Y205750D02*X222350Y206500D01*
X221600Y205750D02*Y201250D01*
X224150Y203500D02*Y201250D01*
X224900Y200500D01*
X226400D01*
X227150Y201250D01*
Y203500D02*Y201250D01*
X229700Y202750D02*Y200500D01*
Y202750D02*X230450Y203500D01*
X231200D01*
X231950Y202750D01*
Y200500D01*
X228950Y203500D02*X229700Y202750D01*
X233750Y206500D02*Y200500D01*
Y202750D02*X236000Y200500D01*
X233750Y202750D02*X235250Y204250D01*
X238550Y202750D02*Y200500D01*
Y202750D02*X239300Y203500D01*
X240050D01*
X240800Y202750D01*
Y200500D01*
X237800Y203500D02*X238550Y202750D01*
X242600D02*Y201250D01*
Y202750D02*X243350Y203500D01*
X244850D01*
X245600Y202750D01*
Y201250D01*
X244850Y200500D02*X245600Y201250D01*
X243350Y200500D02*X244850D01*
X242600Y201250D02*X243350Y200500D01*
X247400Y203500D02*Y201250D01*
X248150Y200500D01*
X248900D01*
X249650Y201250D01*
Y203500D02*Y201250D01*
X250400Y200500D01*
X251150D01*
X251900Y201250D01*
Y203500D02*Y201250D01*
X254450Y202750D02*Y200500D01*
Y202750D02*X255200Y203500D01*
X255950D01*
X256700Y202750D01*
Y200500D01*
X253700Y203500D02*X254450Y202750D01*
X258500Y206500D02*X259250Y205750D01*
Y201250D01*
X258500Y200500D02*X259250Y201250D01*
X263750Y203500D02*X266750D01*
X271250Y206500D02*Y200500D01*
Y206500D02*X274250D01*
X271250Y203800D02*X273500D01*
X278300Y203500D02*X279050Y202750D01*
X276800Y203500D02*X278300D01*
X276050Y202750D02*X276800Y203500D01*
X276050Y202750D02*Y201250D01*
X276800Y200500D01*
X279050Y203500D02*Y201250D01*
X279800Y200500D01*
X276800D02*X278300D01*
X279050Y201250D01*
X281600Y206500D02*Y200500D01*
Y201250D02*X282350Y200500D01*
X283850D01*
X284600Y201250D01*
Y202750D02*Y201250D01*
X283850Y203500D02*X284600Y202750D01*
X282350Y203500D02*X283850D01*
X281600Y202750D02*X282350Y203500D01*
X287150Y202750D02*Y200500D01*
Y202750D02*X287900Y203500D01*
X289400D01*
X286400D02*X287150Y202750D01*
G54D92*X291200Y205000D02*Y204850D01*
G54D91*Y202750D02*Y200500D01*
X293450Y203500D02*X295700D01*
X292700Y202750D02*X293450Y203500D01*
X292700Y202750D02*Y201250D01*
X293450Y200500D01*
X295700D01*
X299750Y203500D02*X300500Y202750D01*
X298250Y203500D02*X299750D01*
X297500Y202750D02*X298250Y203500D01*
X297500Y202750D02*Y201250D01*
X298250Y200500D01*
X300500Y203500D02*Y201250D01*
X301250Y200500D01*
X298250D02*X299750D01*
X300500Y201250D01*
X303800Y206500D02*Y201250D01*
X304550Y200500D01*
X303050Y204250D02*X304550D01*
G54D92*X306050Y205000D02*Y204850D01*
G54D91*Y202750D02*Y200500D01*
X307550Y202750D02*Y201250D01*
Y202750D02*X308300Y203500D01*
X309800D01*
X310550Y202750D01*
Y201250D01*
X309800Y200500D02*X310550Y201250D01*
X308300Y200500D02*X309800D01*
X307550Y201250D02*X308300Y200500D01*
X313100Y202750D02*Y200500D01*
Y202750D02*X313850Y203500D01*
X314600D01*
X315350Y202750D01*
Y200500D01*
X312350Y203500D02*X313100Y202750D01*
X320600Y206500D02*Y200500D01*
X322550Y206500D02*X323600Y205450D01*
Y201550D01*
X322550Y200500D02*X323600Y201550D01*
X319850Y200500D02*X322550D01*
X319850Y206500D02*X322550D01*
X326150Y202750D02*Y200500D01*
Y202750D02*X326900Y203500D01*
X328400D01*
X325400D02*X326150Y202750D01*
X332450Y203500D02*X333200Y202750D01*
X330950Y203500D02*X332450D01*
X330200Y202750D02*X330950Y203500D01*
X330200Y202750D02*Y201250D01*
X330950Y200500D01*
X333200Y203500D02*Y201250D01*
X333950Y200500D01*
X330950D02*X332450D01*
X333200Y201250D01*
X335750Y203500D02*Y201250D01*
X336500Y200500D01*
X337250D01*
X338000Y201250D01*
Y203500D02*Y201250D01*
X338750Y200500D01*
X339500D01*
X340250Y201250D01*
Y203500D02*Y201250D01*
G54D92*X342050Y205000D02*Y204850D01*
G54D91*Y202750D02*Y200500D01*
X344300Y202750D02*Y200500D01*
Y202750D02*X345050Y203500D01*
X345800D01*
X346550Y202750D01*
Y200500D01*
X343550Y203500D02*X344300Y202750D01*
X350600Y203500D02*X351350Y202750D01*
X349100Y203500D02*X350600D01*
X348350Y202750D02*X349100Y203500D01*
X348350Y202750D02*Y201250D01*
X349100Y200500D01*
X350600D01*
X351350Y201250D01*
X348350Y199000D02*X349100Y198250D01*
X350600D01*
X351350Y199000D01*
Y203500D02*Y199000D01*
M02*
