G04 start of page 9 for group -4078 idx -4078 *
G04 Title: (unknown), bottomsilk *
G04 Creator: pcb 20140316 *
G04 CreationDate: Wed 08 Apr 2015 09:09:57 AM GMT UTC *
G04 For: fosse *
G04 Format: Gerber/RS-274X *
G04 PCB-Dimensions (mil): 2290.00 1790.00 *
G04 PCB-Coordinate-Origin: lower left *
%MOIN*%
%FSLAX25Y25*%
%LNBOTTOMSILK*%
%ADD93C,0.0080*%
%ADD92C,0.0100*%
%ADD91C,0.0060*%
G54D91*X110000Y114500D02*Y118500D01*
X109500Y114500D02*X111500D01*
X112000Y115000D01*
Y116000D01*
X111500Y116500D02*X112000Y116000D01*
X110000Y116500D02*X111500D01*
X113200Y114500D02*Y118000D01*
X113700Y118500D01*
X114700D01*
X115200Y118000D01*
Y114500D02*Y118000D01*
X116400Y114500D02*Y118500D01*
Y114500D02*X117900Y116500D01*
X119400Y114500D01*
Y118500D01*
X121100Y114500D02*Y118500D01*
X120600Y114500D02*X122600D01*
X123100Y115000D01*
Y116000D01*
X122600Y116500D02*X123100Y116000D01*
X121100Y116500D02*X122600D01*
X62500Y145300D02*X64000D01*
X62500Y147500D02*X64500D01*
X62500Y143500D02*Y147500D01*
Y143500D02*X64500D01*
X67200Y145500D02*X67700Y146000D01*
X66200Y145500D02*X67200D01*
X65700Y146000D02*X66200Y145500D01*
X65700Y146000D02*Y147000D01*
X66200Y147500D01*
X67700Y145500D02*Y147000D01*
X68200Y147500D01*
X66200D02*X67200D01*
X67700Y147000D01*
X69900Y143500D02*Y147000D01*
X70400Y147500D01*
X69400Y145000D02*X70400D01*
X71400Y146000D02*Y147000D01*
Y146000D02*X71900Y145500D01*
X72900D01*
X73400Y146000D01*
Y147000D01*
X72900Y147500D02*X73400Y147000D01*
X71900Y147500D02*X72900D01*
X71400Y147000D02*X71900Y147500D01*
X75100Y146000D02*Y147500D01*
Y146000D02*X75600Y145500D01*
X76100D01*
X76600Y146000D01*
Y147500D01*
X74600Y145500D02*X75100Y146000D01*
X80100Y143500D02*Y147500D01*
X79600Y143500D02*X81600D01*
X82100Y144000D01*
Y145000D01*
X81600Y145500D02*X82100Y145000D01*
X80100Y145500D02*X81600D01*
X83800Y147500D02*X85300D01*
X83300Y147000D02*X83800Y147500D01*
X83300Y146000D02*Y147000D01*
Y146000D02*X83800Y145500D01*
X84800D01*
X85300Y146000D01*
X83300Y146500D02*X85300D01*
Y146000D02*Y146500D01*
X88000Y145500D02*X88500Y146000D01*
X87000Y145500D02*X88000D01*
X86500Y146000D02*X87000Y145500D01*
X86500Y146000D02*Y147000D01*
X87000Y147500D01*
X88500Y145500D02*Y147000D01*
X89000Y147500D01*
X87000D02*X88000D01*
X88500Y147000D01*
X90200Y143500D02*Y147500D01*
Y147000D02*X90700Y147500D01*
X91700D01*
X92200Y147000D01*
Y146000D02*Y147000D01*
X91700Y145500D02*X92200Y146000D01*
X90700Y145500D02*X91700D01*
X90200Y146000D02*X90700Y145500D01*
X93400Y146000D02*Y147000D01*
Y146000D02*X93900Y145500D01*
X94900D01*
X95400Y146000D01*
Y147000D01*
X94900Y147500D02*X95400Y147000D01*
X93900Y147500D02*X94900D01*
X93400Y147000D02*X93900Y147500D01*
X98600Y143500D02*Y147500D01*
X98100D02*X98600Y147000D01*
X97100Y147500D02*X98100D01*
X96600Y147000D02*X97100Y147500D01*
X96600Y146000D02*Y147000D01*
Y146000D02*X97100Y145500D01*
X98100D01*
X98600Y146000D01*
X99800Y145500D02*Y147000D01*
X100300Y147500D01*
X101800Y145500D02*Y148500D01*
X101300Y149000D02*X101800Y148500D01*
X100300Y149000D02*X101300D01*
X99800Y148500D02*X100300Y149000D01*
Y147500D02*X101300D01*
X101800Y147000D01*
X104800Y143500D02*Y147500D01*
X106800D01*
X109500Y145500D02*X110000Y146000D01*
X108500Y145500D02*X109500D01*
X108000Y146000D02*X108500Y145500D01*
X108000Y146000D02*Y147000D01*
X108500Y147500D01*
X110000Y145500D02*Y147000D01*
X110500Y147500D01*
X108500D02*X109500D01*
X110000Y147000D01*
X111700Y143500D02*Y147500D01*
Y147000D02*X112200Y147500D01*
X113200D01*
X113700Y147000D01*
Y146000D02*Y147000D01*
X113200Y145500D02*X113700Y146000D01*
X112200Y145500D02*X113200D01*
X111700Y146000D02*X112200Y145500D01*
X62500Y149500D02*X63000Y149000D01*
X64500D01*
X65000Y149500D01*
Y150500D01*
X62500Y153000D02*X65000Y150500D01*
X62500Y153000D02*X65000D01*
X66200Y152500D02*X66700Y153000D01*
X66200Y149500D02*Y152500D01*
Y149500D02*X66700Y149000D01*
X67700D01*
X68200Y149500D01*
Y152500D01*
X67700Y153000D02*X68200Y152500D01*
X66700Y153000D02*X67700D01*
X66200Y152000D02*X68200Y150000D01*
X69400Y149800D02*X70200Y149000D01*
Y153000D01*
X69400D02*X70900D01*
X72100Y149000D02*X74100D01*
X72100D02*Y151000D01*
X72600Y150500D01*
X73600D01*
X74100Y151000D01*
Y152500D01*
X73600Y153000D02*X74100Y152500D01*
X72600Y153000D02*X73600D01*
X72100Y152500D02*X72600Y153000D01*
X75300D02*X75800D01*
X77000Y152500D02*X77500Y153000D01*
X77000Y149500D02*Y152500D01*
Y149500D02*X77500Y149000D01*
X78500D01*
X79000Y149500D01*
Y152500D01*
X78500Y153000D02*X79000Y152500D01*
X77500Y153000D02*X78500D01*
X77000Y152000D02*X79000Y150000D01*
X80200Y151500D02*X82200Y149000D01*
X80200Y151500D02*X82700D01*
X82200Y149000D02*Y153000D01*
X83900D02*X84400D01*
X85600Y152500D02*X86100Y153000D01*
X85600Y149500D02*Y152500D01*
Y149500D02*X86100Y149000D01*
X87100D01*
X87600Y149500D01*
Y152500D01*
X87100Y153000D02*X87600Y152500D01*
X86100Y153000D02*X87100D01*
X85600Y152000D02*X87600Y150000D01*
X89300Y153000D02*X91300Y149000D01*
X88800D02*X91300D01*
X62500Y154500D02*Y158500D01*
Y154500D02*X64000Y156500D01*
X65500Y154500D01*
Y158500D01*
X66700Y155500D02*Y155600D01*
Y157000D02*Y158500D01*
X68200Y156500D02*X69700D01*
X67700Y157000D02*X68200Y156500D01*
X67700Y157000D02*Y158000D01*
X68200Y158500D01*
X69700D01*
X71400Y157000D02*Y158500D01*
Y157000D02*X71900Y156500D01*
X72900D01*
X70900D02*X71400Y157000D01*
X74100D02*Y158000D01*
Y157000D02*X74600Y156500D01*
X75600D01*
X76100Y157000D01*
Y158000D01*
X75600Y158500D02*X76100Y158000D01*
X74600Y158500D02*X75600D01*
X74100Y158000D02*X74600Y158500D01*
X77800Y155000D02*Y158500D01*
Y155000D02*X78300Y154500D01*
X78800D01*
X77300Y156500D02*X78300D01*
X79800Y154500D02*Y158000D01*
X80300Y158500D01*
X81300Y156500D02*Y158000D01*
X81800Y158500D01*
X82800D01*
X83300Y158000D01*
Y156500D02*Y158000D01*
X84500Y155500D02*Y155600D01*
Y157000D02*Y158500D01*
X87500Y154500D02*Y158500D01*
X87000D02*X87500Y158000D01*
X86000Y158500D02*X87000D01*
X85500Y158000D02*X86000Y158500D01*
X85500Y157000D02*Y158000D01*
Y157000D02*X86000Y156500D01*
X87000D01*
X87500Y157000D01*
X88700Y155500D02*Y155600D01*
Y157000D02*Y158500D01*
X90200Y156500D02*X91700D01*
X89700Y157000D02*X90200Y156500D01*
X89700Y157000D02*Y158000D01*
X90200Y158500D01*
X91700D01*
X95200Y154500D02*Y158500D01*
X94700Y154500D02*X96700D01*
X97200Y155000D01*
Y156000D01*
X96700Y156500D02*X97200Y156000D01*
X95200Y156500D02*X96700D01*
X98400D02*Y158000D01*
X98900Y158500D01*
X99900D01*
X100400Y158000D01*
Y156500D02*Y158000D01*
X102100Y157000D02*Y158500D01*
Y157000D02*X102600Y156500D01*
X103100D01*
X103600Y157000D01*
Y158500D01*
Y157000D02*X104100Y156500D01*
X104600D01*
X105100Y157000D01*
Y158500D01*
X101600Y156500D02*X102100Y157000D01*
X106800D02*Y160000D01*
X106300Y156500D02*X106800Y157000D01*
X107300Y156500D01*
X108300D01*
X108800Y157000D01*
Y158000D01*
X108300Y158500D02*X108800Y158000D01*
X107300Y158500D02*X108300D01*
X106800Y158000D02*X107300Y158500D01*
X112300Y154500D02*Y158500D01*
X113600Y154500D02*X114300Y155200D01*
Y157800D01*
X113600Y158500D02*X114300Y157800D01*
X111800Y158500D02*X113600D01*
X111800Y154500D02*X113600D01*
X116000Y157000D02*Y158500D01*
Y157000D02*X116500Y156500D01*
X117500D01*
X115500D02*X116000Y157000D01*
X118700Y155500D02*Y155600D01*
Y157000D02*Y158500D01*
X119700Y156500D02*X120700Y158500D01*
X121700Y156500D02*X120700Y158500D01*
X123400D02*X124900D01*
X122900Y158000D02*X123400Y158500D01*
X122900Y157000D02*Y158000D01*
Y157000D02*X123400Y156500D01*
X124400D01*
X124900Y157000D01*
X122900Y157500D02*X124900D01*
Y157000D02*Y157500D01*
X126600Y157000D02*Y158500D01*
Y157000D02*X127100Y156500D01*
X128100D01*
X126100D02*X126600Y157000D01*
X74000Y33200D02*Y34500D01*
X74700Y32500D02*X74000Y33200D01*
X74700Y32500D02*X77300D01*
X78000Y33200D01*
Y34500D01*
X74000Y35700D02*X78000D01*
X74000Y38200D02*X78000D01*
X76000Y35700D02*Y38200D01*
X78000Y41400D02*X77500Y41900D01*
X78000Y39900D02*Y41400D01*
X77500Y39400D02*X78000Y39900D01*
X74500Y39400D02*X77500D01*
X74500D02*X74000Y39900D01*
Y41400D01*
X74500Y41900D01*
X75500D01*
X76000Y41400D02*X75500Y41900D01*
X76000Y40400D02*Y41400D01*
X78000Y43100D02*Y45100D01*
X77500Y45600D01*
X76500D02*X77500D01*
X76000Y45100D02*X76500Y45600D01*
X76000Y43600D02*Y45100D01*
X74000Y43600D02*X78000D01*
X76000Y44400D02*X74000Y45600D01*
X105500Y23000D02*Y25000D01*
X103500Y26700D02*X107500D01*
Y26200D02*Y28200D01*
X107000Y28700D01*
X106000D02*X107000D01*
X105500Y28200D02*X106000Y28700D01*
X105500Y26700D02*Y28200D01*
Y29900D02*X107500D01*
X105500D02*X103500Y30400D01*
X105500Y31400D01*
X103500Y32400D01*
X105500Y32900D01*
X107500D01*
Y34100D02*Y36100D01*
X107000Y36600D01*
X106000D02*X107000D01*
X105500Y36100D02*X106000Y36600D01*
X105500Y34600D02*Y36100D01*
X103500Y34600D02*X107500D01*
X105500Y35400D02*X103500Y36600D01*
X105500Y37800D02*Y39800D01*
X104500Y38800D02*X106500D01*
G54D92*X95112Y140420D02*Y120735D01*
X137435D01*
X95112Y140420D02*X137435D01*
Y120735D02*Y140420D01*
G54D93*X107990Y67562D02*Y62838D01*
X100510Y67562D02*Y62838D01*
X146885Y52162D02*Y47438D01*
X139405Y52162D02*Y47438D01*
X146400Y70693D02*Y69907D01*
X140890Y70693D02*Y69907D01*
X155483Y29960D02*X160207D01*
X155483Y37440D02*X160207D01*
X146400Y86657D02*Y87443D01*
X140890Y86657D02*Y87443D01*
G54D92*X153845Y115200D02*Y45200D01*
Y115200D02*X193845D01*
Y45200D01*
X153845D02*X168845D01*
X178845D02*X193845D01*
X178845D02*G75*G03X168845Y45200I-5000J0D01*G01*
G54D93*X86990Y36562D02*Y31838D01*
X79510Y36562D02*Y31838D01*
G54D92*X37750Y74200D02*Y114200D01*
X77750D01*
Y74200D01*
X37750D02*X52750D01*
X62750D02*X77750D01*
X62750D02*G75*G03X52750Y74200I-5000J0D01*G01*
G54D93*X68888Y62960D02*X73612D01*
X68888Y70440D02*X73612D01*
X37857Y62945D02*X38643D01*
X37857Y68455D02*X38643D01*
X30505Y79593D02*Y78807D01*
X24995Y79593D02*Y78807D01*
X30505Y108093D02*Y107307D01*
X24995Y108093D02*Y107307D01*
G54D92*X64561Y54869D02*Y7625D01*
X40939Y54869D02*X64561D01*
X40939D02*Y13531D01*
X46451D02*Y7625D01*
X64561D01*
X40939Y13531D02*X64561D01*
G54D91*X109200Y112500D02*X110500D01*
X108500Y111800D02*X109200Y112500D01*
X108500Y109200D02*Y111800D01*
Y109200D02*X109200Y108500D01*
X110500D01*
X111700Y109000D02*Y112000D01*
Y109000D02*X112200Y108500D01*
X113200D01*
X113700Y109000D01*
Y112000D01*
X113200Y112500D02*X113700Y112000D01*
X112200Y112500D02*X113200D01*
X111700Y112000D02*X112200Y112500D01*
X114900Y108500D02*Y112500D01*
Y108500D02*X117400Y112500D01*
Y108500D02*Y112500D01*
X118600Y108500D02*Y112500D01*
Y108500D02*X121100Y112500D01*
Y108500D02*Y112500D01*
X122300Y109300D02*X123100Y108500D01*
Y112500D01*
X122300D02*X123800D01*
X109200Y62950D02*Y64250D01*
X109900Y62250D02*X109200Y62950D01*
X109900Y62250D02*X112500D01*
X113200Y62950D01*
Y64250D01*
X110700Y65450D02*X113200Y67450D01*
X110700Y65450D02*Y67950D01*
X109200Y67450D02*X113200D01*
X155395Y28550D02*X156695D01*
X154695Y27850D02*X155395Y28550D01*
X154695Y25250D02*Y27850D01*
Y25250D02*X155395Y24550D01*
X156695D01*
X157895Y25050D02*X158395Y24550D01*
X159895D01*
X160395Y25050D01*
Y26050D01*
X157895Y28550D02*X160395Y26050D01*
X157895Y28550D02*X160395D01*
X151745Y83950D02*Y85950D01*
X151245Y86450D01*
X150245D02*X151245D01*
X149745Y85950D02*X150245Y86450D01*
X149745Y84450D02*Y85950D01*
X147745Y84450D02*X151745D01*
X149745Y85250D02*X147745Y86450D01*
X151245Y87650D02*X151745Y88150D01*
Y89650D01*
X151245Y90150D01*
X150245D02*X151245D01*
X147745Y87650D02*X150245Y90150D01*
X147745Y87650D02*Y90150D01*
X158845Y39700D02*Y43700D01*
Y39700D02*X160345Y41700D01*
X161845Y39700D01*
Y43700D01*
X163045Y40200D02*Y43200D01*
Y40200D02*X163545Y39700D01*
X164545D01*
X165045Y40200D01*
Y43200D01*
X164545Y43700D02*X165045Y43200D01*
X163545Y43700D02*X164545D01*
X163045Y43200D02*X163545Y43700D01*
X166745Y39700D02*Y43700D01*
X168045Y39700D02*X168745Y40400D01*
Y43000D01*
X168045Y43700D02*X168745Y43000D01*
X166245Y43700D02*X168045D01*
X166245Y39700D02*X168045D01*
X169945Y40500D02*X170745Y39700D01*
Y43700D01*
X169945D02*X171445D01*
X148295Y48350D02*Y49650D01*
X148995Y47650D02*X148295Y48350D01*
X148995Y47650D02*X151595D01*
X152295Y48350D01*
Y49650D01*
X151495Y50850D02*X152295Y51650D01*
X148295D02*X152295D01*
X148295Y50850D02*Y52350D01*
X151795Y67693D02*Y69693D01*
X151295Y70193D01*
X150295D02*X151295D01*
X149795Y69693D02*X150295Y70193D01*
X149795Y68193D02*Y69693D01*
X147795Y68193D02*X151795D01*
X149795Y68993D02*X147795Y70193D01*
X150995Y71393D02*X151795Y72193D01*
X147795D02*X151795D01*
X147795Y71393D02*Y72893D01*
X55250Y68700D02*Y72200D01*
X55750Y72700D01*
X56750D01*
X57250Y72200D01*
Y68700D02*Y72200D01*
X58450Y69500D02*X59250Y68700D01*
Y72700D01*
X58450D02*X59950D01*
X68800Y61550D02*X70100D01*
X68100Y60850D02*X68800Y61550D01*
X68100Y58250D02*Y60850D01*
Y58250D02*X68800Y57550D01*
X70100D01*
X71300Y58050D02*X71800Y57550D01*
X72800D01*
X73300Y58050D01*
X72800Y61550D02*X73300Y61050D01*
X71800Y61550D02*X72800D01*
X71300Y61050D02*X71800Y61550D01*
Y59350D02*X72800D01*
X73300Y58050D02*Y58850D01*
Y59850D02*Y61050D01*
Y59850D02*X72800Y59350D01*
X73300Y58850D02*X72800Y59350D01*
X35900Y75593D02*Y77593D01*
X35400Y78093D01*
X34400D02*X35400D01*
X33900Y77593D02*X34400Y78093D01*
X33900Y76093D02*Y77593D01*
X31900Y76093D02*X35900D01*
X33900Y76893D02*X31900Y78093D01*
X35900Y79293D02*Y81293D01*
X33900Y79293D02*X35900D01*
X33900D02*X34400Y79793D01*
Y80793D01*
X33900Y81293D01*
X32400D02*X33900D01*
X31900Y80793D02*X32400Y81293D01*
X31900Y79793D02*Y80793D01*
X32400Y79293D02*X31900Y79793D01*
X35900Y104007D02*Y106007D01*
X35400Y106507D01*
X34400D02*X35400D01*
X33900Y106007D02*X34400Y106507D01*
X33900Y104507D02*Y106007D01*
X31900Y104507D02*X35900D01*
X33900Y105307D02*X31900Y106507D01*
X33400Y107707D02*X35900Y109707D01*
X33400Y107707D02*Y110207D01*
X31900Y109707D02*X35900D01*
X35600Y58050D02*X37600D01*
X38100Y58550D01*
Y59550D01*
X37600Y60050D02*X38100Y59550D01*
X36100Y60050D02*X37600D01*
X36100Y58050D02*Y62050D01*
X36900Y60050D02*X38100Y62050D01*
X40800Y58050D02*X41300Y58550D01*
X39800Y58050D02*X40800D01*
X39300Y58550D02*X39800Y58050D01*
X39300Y58550D02*Y61550D01*
X39800Y62050D01*
X40800Y59850D02*X41300Y60350D01*
X39300Y59850D02*X40800D01*
X39800Y62050D02*X40800D01*
X41300Y61550D01*
Y60350D02*Y61550D01*
X88400Y32050D02*X92400D01*
Y34050D01*
X90600Y32050D02*Y33550D01*
X91600Y35250D02*X92400Y36050D01*
X88400D02*X92400D01*
X88400Y35250D02*Y36750D01*
X74000Y11700D02*Y13000D01*
X74700Y11000D02*X74000Y11700D01*
X74700Y11000D02*X77300D01*
X78000Y11700D01*
Y13000D01*
X74500Y14200D02*X77500D01*
X78000Y14700D01*
Y15700D01*
X77500Y16200D01*
X74500D02*X77500D01*
X74000Y15700D02*X74500Y16200D01*
X74000Y14700D02*Y15700D01*
X74500Y14200D02*X74000Y14700D01*
Y17400D02*X78000D01*
X74000Y19900D01*
X78000D01*
X74000Y21100D02*X78000D01*
X74000Y23600D01*
X78000D01*
X77500Y24800D02*X78000Y25300D01*
Y26300D01*
X77500Y26800D01*
X74000Y26300D02*X74500Y26800D01*
X74000Y25300D02*Y26300D01*
X74500Y24800D02*X74000Y25300D01*
X76200D02*Y26300D01*
X76700Y26800D02*X77500D01*
X74500D02*X75700D01*
X76200Y26300D01*
X76700Y26800D02*X76200Y26300D01*
M02*
