M48
INCH
T67C0.165
T66C0.125
T65C0.035
T64C0.020
T63C0.032
T62C0.042
T61C0.034
T60C0.043
%
T64
X002775Y009720
X002775Y009020
X002975Y003870
X005625Y009720
X005625Y009070
X005875Y006120
X006575Y013020
X007375Y012720
T63
X010791Y012920
X011283Y013707
X011775Y012920
X012267Y013707
T61
X011925Y006880
X011925Y005700
T65
X008125Y004970
X008302Y001633
X009425Y005920
X010011Y004197
T62
X011900Y003470
X011900Y002470
T60
X005551Y004109
X005551Y002337
T66
X004575Y015320
X009375Y010220
X011525Y008920
X013600Y002970
X018475Y015320
X018475Y002520
T67
X002050Y015850
X002050Y001990
X021000Y015850
X021000Y001990
M30
