G04 start of page 8 for group -4079 idx -4079 *
G04 Title: (unknown), topsilk *
G04 Creator: pcb 20140316 *
G04 CreationDate: Wed 08 Apr 2015 09:09:57 AM GMT UTC *
G04 For: fosse *
G04 Format: Gerber/RS-274X *
G04 PCB-Dimensions (mil): 2290.00 1790.00 *
G04 PCB-Coordinate-Origin: lower left *
%MOIN*%
%FSLAX25Y25*%
%LNTOPSILK*%
%ADD90C,0.0110*%
%ADD89C,0.0150*%
%ADD88C,0.0400*%
%ADD87C,0.0100*%
%ADD86C,0.0060*%
G54D86*X127500Y70800D02*X130500D01*
X127500D02*X127000Y71300D01*
Y72300D02*Y71300D01*
Y72300D02*X127500Y72800D01*
X130500D01*
X131000Y72300D02*X130500Y72800D01*
X131000Y72300D02*Y71300D01*
X130500Y70800D02*X131000Y71300D01*
X127000Y74000D02*X131000D01*
X127000Y76000D02*Y74000D01*
X128800Y75500D02*Y74000D01*
X127000Y77200D02*X131000D01*
X127000Y79200D02*Y77200D01*
X128800Y78700D02*Y77200D01*
X127500Y49300D02*X130500D01*
X127500D02*X127000Y49800D01*
Y50800D02*Y49800D01*
Y50800D02*X127500Y51300D01*
X130500D01*
X131000Y50800D02*X130500Y51300D01*
X131000Y50800D02*Y49800D01*
X130500Y49300D02*X131000Y49800D01*
X127000Y52500D02*X131000D01*
X127000D02*X131000Y55000D01*
X127000D02*X131000D01*
X137091Y48170D02*X138591D01*
X137091Y45970D02*X139091D01*
X137091Y49970D02*Y45970D01*
Y49970D02*X139091D01*
X141791Y47970D02*X142291Y47470D01*
X140791Y47970D02*X141791D01*
X140291Y47470D02*X140791Y47970D01*
X140291Y47470D02*Y46470D01*
X140791Y45970D01*
X142291Y47970D02*Y46470D01*
X142791Y45970D01*
X140791D02*X141791D01*
X142291Y46470D01*
X144491Y49970D02*Y46470D01*
X144991Y45970D01*
X143991Y48470D02*X144991D01*
X145991Y47470D02*Y46470D01*
Y47470D02*X146491Y47970D01*
X147491D01*
X147991Y47470D01*
Y46470D01*
X147491Y45970D02*X147991Y46470D01*
X146491Y45970D02*X147491D01*
X145991Y46470D02*X146491Y45970D01*
X149691Y47470D02*Y45970D01*
Y47470D02*X150191Y47970D01*
X150691D01*
X151191Y47470D01*
Y45970D01*
X149191Y47970D02*X149691Y47470D01*
X154691Y49970D02*Y45970D01*
X154191Y49970D02*X156191D01*
X156691Y49470D01*
Y48470D01*
X156191Y47970D02*X156691Y48470D01*
X154691Y47970D02*X156191D01*
X158391Y45970D02*X159891D01*
X157891Y46470D02*X158391Y45970D01*
X157891Y47470D02*Y46470D01*
Y47470D02*X158391Y47970D01*
X159391D01*
X159891Y47470D01*
X157891Y46970D02*X159891D01*
Y47470D02*Y46970D01*
X162591Y47970D02*X163091Y47470D01*
X161591Y47970D02*X162591D01*
X161091Y47470D02*X161591Y47970D01*
X161091Y47470D02*Y46470D01*
X161591Y45970D01*
X163091Y47970D02*Y46470D01*
X163591Y45970D01*
X161591D02*X162591D01*
X163091Y46470D01*
X164791Y49970D02*Y45970D01*
Y46470D02*X165291Y45970D01*
X166291D01*
X166791Y46470D01*
Y47470D02*Y46470D01*
X166291Y47970D02*X166791Y47470D01*
X165291Y47970D02*X166291D01*
X164791Y47470D02*X165291Y47970D01*
X167991Y47470D02*Y46470D01*
Y47470D02*X168491Y47970D01*
X169491D01*
X169991Y47470D01*
Y46470D01*
X169491Y45970D02*X169991Y46470D01*
X168491Y45970D02*X169491D01*
X167991Y46470D02*X168491Y45970D01*
X173191Y49970D02*Y45970D01*
X172691D02*X173191Y46470D01*
X171691Y45970D02*X172691D01*
X171191Y46470D02*X171691Y45970D01*
X171191Y47470D02*Y46470D01*
Y47470D02*X171691Y47970D01*
X172691D01*
X173191Y47470D01*
X174391Y47970D02*Y46470D01*
X174891Y45970D01*
X176391Y47970D02*Y44970D01*
X175891Y44470D02*X176391Y44970D01*
X174891Y44470D02*X175891D01*
X174391Y44970D02*X174891Y44470D01*
Y45970D02*X175891D01*
X176391Y46470D01*
X179391Y49970D02*Y45970D01*
X181391D01*
X184091Y47970D02*X184591Y47470D01*
X183091Y47970D02*X184091D01*
X182591Y47470D02*X183091Y47970D01*
X182591Y47470D02*Y46470D01*
X183091Y45970D01*
X184591Y47970D02*Y46470D01*
X185091Y45970D01*
X183091D02*X184091D01*
X184591Y46470D01*
X186291Y49970D02*Y45970D01*
Y46470D02*X186791Y45970D01*
X187791D01*
X188291Y46470D01*
Y47470D02*Y46470D01*
X187791Y47970D02*X188291Y47470D01*
X186791Y47970D02*X187791D01*
X186291Y47470D02*X186791Y47970D01*
X137091Y56970D02*X137591Y57470D01*
X139091D01*
X139591Y56970D01*
Y55970D01*
X137091Y53470D02*X139591Y55970D01*
X137091Y53470D02*X139591D01*
X140791Y53970D02*X141291Y53470D01*
X140791Y56970D02*Y53970D01*
Y56970D02*X141291Y57470D01*
X142291D01*
X142791Y56970D01*
Y53970D01*
X142291Y53470D02*X142791Y53970D01*
X141291Y53470D02*X142291D01*
X140791Y54470D02*X142791Y56470D01*
X143991Y56670D02*X144791Y57470D01*
Y53470D01*
X143991D02*X145491D01*
X146691Y57470D02*X148691D01*
X146691D02*Y55470D01*
X147191Y55970D01*
X148191D01*
X148691Y55470D01*
Y53970D01*
X148191Y53470D02*X148691Y53970D01*
X147191Y53470D02*X148191D01*
X146691Y53970D02*X147191Y53470D01*
X149891D02*X150391D01*
X151591Y53970D02*X152091Y53470D01*
X151591Y56970D02*Y53970D01*
Y56970D02*X152091Y57470D01*
X153091D01*
X153591Y56970D01*
Y53970D01*
X153091Y53470D02*X153591Y53970D01*
X152091Y53470D02*X153091D01*
X151591Y54470D02*X153591Y56470D01*
X154791Y54970D02*X156791Y57470D01*
X154791Y54970D02*X157291D01*
X156791Y57470D02*Y53470D01*
X158491D02*X158991D01*
X160191Y53970D02*X160691Y53470D01*
X160191Y56970D02*Y53970D01*
Y56970D02*X160691Y57470D01*
X161691D01*
X162191Y56970D01*
Y53970D01*
X161691Y53470D02*X162191Y53970D01*
X160691Y53470D02*X161691D01*
X160191Y54470D02*X162191Y56470D01*
X163891Y53470D02*X165891Y57470D01*
X163391D02*X165891D01*
X80000Y116500D02*X80500Y117000D01*
X82000D01*
X82500Y116500D01*
Y115500D01*
X80000Y113000D02*X82500Y115500D01*
X80000Y113000D02*X82500D01*
X63000Y116200D02*X63800Y117000D01*
Y113000D01*
X63000D02*X64500D01*
X77500Y143000D02*Y139000D01*
Y143000D02*X79000Y141000D01*
X80500Y143000D01*
Y139000D01*
X81700Y142500D02*Y139500D01*
Y142500D02*X82200Y143000D01*
X83200D01*
X83700Y142500D01*
Y139500D01*
X83200Y139000D02*X83700Y139500D01*
X82200Y139000D02*X83200D01*
X81700Y139500D02*X82200Y139000D01*
X85400Y143000D02*Y139000D01*
X86700Y143000D02*X87400Y142300D01*
Y139700D01*
X86700Y139000D02*X87400Y139700D01*
X84900Y139000D02*X86700D01*
X84900Y143000D02*X86700D01*
X88600Y141200D02*X90100D01*
X88600Y139000D02*X90600D01*
X88600Y143000D02*Y139000D01*
Y143000D02*X90600D01*
X46500Y58500D02*Y54500D01*
X46000Y58500D02*X48000D01*
X48500Y58000D01*
Y57000D01*
X48000Y56500D02*X48500Y57000D01*
X46500Y56500D02*X48000D01*
X49700Y58500D02*X51700D01*
X52200Y58000D01*
Y57000D01*
X51700Y56500D02*X52200Y57000D01*
X50200Y56500D02*X51700D01*
X50200Y58500D02*Y54500D01*
X51000Y56500D02*X52200Y54500D01*
X53400Y58500D02*X54400D01*
X53900D02*Y54500D01*
X53400D02*X54400D01*
X55600Y58500D02*Y54500D01*
Y58500D02*X57100Y56500D01*
X58600Y58500D01*
Y54500D01*
X59800Y56700D02*X61300D01*
X59800Y54500D02*X61800D01*
X59800Y58500D02*Y54500D01*
Y58500D02*X61800D01*
X137091Y71470D02*Y67470D01*
Y71470D02*X138591Y69470D01*
X140091Y71470D01*
Y67470D01*
X141291Y70470D02*Y70370D01*
Y68970D02*Y67470D01*
X142791Y69470D02*X144291D01*
X142291Y68970D02*X142791Y69470D01*
X142291Y68970D02*Y67970D01*
X142791Y67470D01*
X144291D01*
X145991Y68970D02*Y67470D01*
Y68970D02*X146491Y69470D01*
X147491D01*
X145491D02*X145991Y68970D01*
X148691D02*Y67970D01*
Y68970D02*X149191Y69470D01*
X150191D01*
X150691Y68970D01*
Y67970D01*
X150191Y67470D02*X150691Y67970D01*
X149191Y67470D02*X150191D01*
X148691Y67970D02*X149191Y67470D01*
X152391Y70970D02*Y67470D01*
Y70970D02*X152891Y71470D01*
X153391D01*
X151891Y69470D02*X152891D01*
X154391Y71470D02*Y67970D01*
X154891Y67470D01*
X155891Y69470D02*Y67970D01*
X156391Y67470D01*
X157391D01*
X157891Y67970D01*
Y69470D02*Y67970D01*
X159091Y70470D02*Y70370D01*
Y68970D02*Y67470D01*
X162091Y71470D02*Y67470D01*
X161591D02*X162091Y67970D01*
X160591Y67470D02*X161591D01*
X160091Y67970D02*X160591Y67470D01*
X160091Y68970D02*Y67970D01*
Y68970D02*X160591Y69470D01*
X161591D01*
X162091Y68970D01*
X163291Y70470D02*Y70370D01*
Y68970D02*Y67470D01*
X164791Y69470D02*X166291D01*
X164291Y68970D02*X164791Y69470D01*
X164291Y68970D02*Y67970D01*
X164791Y67470D01*
X166291D01*
X169791Y71470D02*Y67470D01*
X169291Y71470D02*X171291D01*
X171791Y70970D01*
Y69970D01*
X171291Y69470D02*X171791Y69970D01*
X169791Y69470D02*X171291D01*
X172991D02*Y67970D01*
X173491Y67470D01*
X174491D01*
X174991Y67970D01*
Y69470D02*Y67970D01*
X176691Y68970D02*Y67470D01*
Y68970D02*X177191Y69470D01*
X177691D01*
X178191Y68970D01*
Y67470D01*
Y68970D02*X178691Y69470D01*
X179191D01*
X179691Y68970D01*
Y67470D01*
X176191Y69470D02*X176691Y68970D01*
X181391D02*Y65970D01*
X180891Y69470D02*X181391Y68970D01*
X181891Y69470D01*
X182891D01*
X183391Y68970D01*
Y67970D01*
X182891Y67470D02*X183391Y67970D01*
X181891Y67470D02*X182891D01*
X181391Y67970D02*X181891Y67470D01*
X186891Y71470D02*Y67470D01*
X188191Y71470D02*X188891Y70770D01*
Y68170D01*
X188191Y67470D02*X188891Y68170D01*
X186391Y67470D02*X188191D01*
X186391Y71470D02*X188191D01*
X190591Y68970D02*Y67470D01*
Y68970D02*X191091Y69470D01*
X192091D01*
X190091D02*X190591Y68970D01*
X193291Y70470D02*Y70370D01*
Y68970D02*Y67470D01*
X194291Y69470D02*X195291Y67470D01*
X196291Y69470D02*X195291Y67470D01*
X197991D02*X199491D01*
X197491Y67970D02*X197991Y67470D01*
X197491Y68970D02*Y67970D01*
Y68970D02*X197991Y69470D01*
X198991D01*
X199491Y68970D01*
X197491Y68470D02*X199491D01*
Y68970D02*Y68470D01*
X201191Y68970D02*Y67470D01*
Y68970D02*X201691Y69470D01*
X202691D01*
X200691D02*X201191Y68970D01*
X34210Y105770D02*X34710Y105270D01*
X32710Y105770D02*X34210D01*
X32210Y105270D02*X32710Y105770D01*
X32210Y105270D02*Y104270D01*
X32710Y103770D01*
X34210D01*
X34710Y103270D01*
Y102270D01*
X34210Y101770D02*X34710Y102270D01*
X32710Y101770D02*X34210D01*
X32210Y102270D02*X32710Y101770D01*
X35910Y105770D02*X37910D01*
X36910D02*Y101770D01*
X39110Y104770D02*Y101770D01*
Y104770D02*X39810Y105770D01*
X40910D01*
X41610Y104770D01*
Y101770D01*
X39110Y103770D02*X41610D01*
X42810Y105770D02*X44810D01*
X43810D02*Y101770D01*
X46010Y105770D02*Y102270D01*
X46510Y101770D01*
X47510D01*
X48010Y102270D01*
Y105770D02*Y102270D01*
X51210Y105770D02*X51710Y105270D01*
X49710Y105770D02*X51210D01*
X49210Y105270D02*X49710Y105770D01*
X49210Y105270D02*Y104270D01*
X49710Y103770D01*
X51210D01*
X51710Y103270D01*
Y102270D01*
X51210Y101770D02*X51710Y102270D01*
X49710Y101770D02*X51210D01*
X49210Y102270D02*X49710Y101770D01*
G54D87*X113350Y77050D02*Y48750D01*
X125150D01*
Y77050D02*Y48750D01*
X113350Y77050D02*X125150D01*
Y57000D02*X129050D01*
Y68800D02*Y57000D01*
X125150Y68800D02*X129050D01*
X125150Y62900D02*X129050D01*
X128829Y45724D02*Y13676D01*
X126861Y45724D02*Y13676D01*
X96939Y45723D02*Y13676D01*
X91034Y45724D02*X128829D01*
X91034D02*Y41787D01*
X96939D01*
X91034Y13676D02*X128829D01*
X91034Y17613D02*Y13676D01*
Y17613D02*X96939D01*
X135470Y141351D02*Y42926D01*
Y141351D02*X214211D01*
Y42926D01*
X135470D02*X214211D01*
X142000Y34700D02*X161700D01*
X129500Y39700D02*X142000D01*
Y34700D01*
Y31200D02*Y28200D01*
G54D88*X153200Y34700D02*X155400D01*
X144200D02*X146400D01*
X135200D02*X137400D01*
X119000D02*X127500D01*
G54D87*X161700D02*Y24700D01*
G54D88*X163200Y34700D02*X166400D01*
G54D89*X142300Y35950D02*X163400D01*
X142300Y23450D02*X163700D01*
G54D88*X163200Y24700D02*X166400D01*
X119000D02*X127500D01*
X135200D02*X137400D01*
X144200D02*X146400D01*
X153200D02*X155400D01*
G54D87*X142000D02*Y19700D01*
X129500D02*X142000D01*
Y24700D02*X161700D01*
X129500Y39700D02*Y19700D01*
X42195Y52901D02*X65817D01*
Y29279D01*
X42195D02*X65817D01*
X42195Y52901D02*Y29279D01*
X59912Y41090D02*G75*G03X54006Y46996I-5906J0D01*G01*
Y35184D02*G75*G03X59912Y41090I0J5906D01*G01*
X48100D02*G75*G03X54006Y35184I5906J0D01*G01*
Y46996D02*G75*G03X48100Y41090I0J-5906D01*G01*
X35451Y88885D02*X48049D01*
X35451Y99515D02*X48049D01*
Y94397D02*Y94003D01*
X35451Y94397D02*Y94003D01*
G54D86*X62907Y137487D02*X82592D01*
Y119771D01*
X62907D01*
Y137487D01*
G54D90*X76687Y124692D02*X68813Y132566D01*
G54D86*X80033Y125874D02*Y125873D01*
X80623Y125283D02*Y124889D01*
X80033Y125873D02*X80623Y125283D01*
X65860Y123708D02*Y125874D01*
X66844Y123708D02*X64876D01*
X65860Y125874D02*X65269Y125283D01*
X80623Y123707D02*X78655D01*
X80623Y124889D02*X78655Y123707D01*
Y125283D02*Y125284D01*
X79245Y125874D01*
X80032D01*
X67434Y134141D02*X68222D01*
Y136306D02*X67434D01*
X66844Y135716D01*
Y134731D01*
X67434Y134141D01*
X68812Y135716D02*X68222Y136306D01*
Y134141D02*X68812Y134731D01*
X78655Y128629D02*G75*G03X72749Y134535I-5906J0D01*G01*
G75*G03X66844Y128630I0J-5905D01*G01*
G75*G03X72750Y122724I5906J0D01*G01*
G75*G03X78655Y128629I0J5905D01*G01*
X101250Y61900D02*X101750Y62400D01*
X101250Y61900D02*Y60400D01*
X101750Y59900D02*X101250Y60400D01*
X101750Y59900D02*X102750D01*
X103250Y60400D01*
Y61900D02*Y60400D01*
Y61900D02*X103750Y62400D01*
X104750D01*
X105250Y61900D02*X104750Y62400D01*
X105250Y61900D02*Y60400D01*
X104750Y59900D02*X105250Y60400D01*
X102050Y63600D02*X101250Y64400D01*
X105250D01*
Y65100D02*Y63600D01*
X178841Y85670D02*Y83670D01*
Y85670D02*X178341Y86170D01*
X177141D02*X178341D01*
X176641Y85670D02*X177141Y86170D01*
X176641Y85670D02*Y84170D01*
X174841D02*X178841D01*
X174841Y85670D02*Y83670D01*
Y85670D02*X175341Y86170D01*
X176141D01*
X176641Y85670D02*X176141Y86170D01*
X175841Y87370D02*X178841D01*
X175841D02*X174841Y88070D01*
Y89170D02*Y88070D01*
Y89170D02*X175841Y89870D01*
X178841D01*
X176841D02*Y87370D01*
X174841Y93070D02*Y91070D01*
Y92070D02*X178841D01*
X175641Y94270D02*X174841Y95070D01*
X178841D01*
Y95770D02*Y94270D01*
X169500Y37100D02*Y35800D01*
X170200Y37800D02*X169500Y37100D01*
X170200Y37800D02*X172800D01*
X173500Y37100D01*
Y35800D01*
X170000Y34600D02*X173000D01*
X173500Y34100D01*
Y33100D01*
X173000Y32600D01*
X170000D02*X173000D01*
X169500Y33100D02*X170000Y32600D01*
X169500Y34100D02*Y33100D01*
X170000Y34600D02*X169500Y34100D01*
Y31400D02*X173500D01*
X169500Y28900D01*
X173500D01*
X169500Y27700D02*X173500D01*
X169500Y25200D01*
X173500D01*
X173000Y24000D02*X173500Y23500D01*
Y22000D01*
X173000Y21500D01*
X172000D02*X173000D01*
X169500Y24000D02*X172000Y21500D01*
X169500Y24000D02*Y21500D01*
X50500Y64000D02*X51000Y63500D01*
X49000Y64000D02*X50500D01*
X48500Y63500D02*X49000Y64000D01*
X48500Y63500D02*Y62500D01*
X49000Y62000D01*
X50500D01*
X51000Y61500D01*
Y60500D01*
X50500Y60000D02*X51000Y60500D01*
X49000Y60000D02*X50500D01*
X48500Y60500D02*X49000Y60000D01*
X52200Y63500D02*X52700Y64000D01*
X54200D01*
X54700Y63500D01*
Y62500D01*
X52200Y60000D02*X54700Y62500D01*
X52200Y60000D02*X54700D01*
X35991Y111302D02*Y107302D01*
X37991D01*
X39191Y109502D02*X40691D01*
X39191Y107302D02*X41191D01*
X39191Y111302D02*Y107302D01*
Y111302D02*X41191D01*
X42891D02*Y107302D01*
X44191Y111302D02*X44891Y110602D01*
Y108002D01*
X44191Y107302D02*X44891Y108002D01*
X42391Y107302D02*X44191D01*
X42391Y111302D02*X44191D01*
X46091Y110502D02*X46891Y111302D01*
Y107302D01*
X46091D02*X47591D01*
X64500Y143000D02*X65000Y142500D01*
X63000Y143000D02*X64500D01*
X62500Y142500D02*X63000Y143000D01*
X62500Y142500D02*Y141500D01*
X63000Y141000D01*
X64500D01*
X65000Y140500D01*
Y139500D01*
X64500Y139000D02*X65000Y139500D01*
X63000Y139000D02*X64500D01*
X62500Y139500D02*X63000Y139000D01*
X66200Y142500D02*X66700Y143000D01*
X67700D01*
X68200Y142500D01*
X67700Y139000D02*X68200Y139500D01*
X66700Y139000D02*X67700D01*
X66200Y139500D02*X66700Y139000D01*
Y141200D02*X67700D01*
X68200Y142500D02*Y141700D01*
Y140700D02*Y139500D01*
Y140700D02*X67700Y141200D01*
X68200Y141700D02*X67700Y141200D01*
X80443Y36402D02*Y35102D01*
X81143Y37102D02*X80443Y36402D01*
X81143Y37102D02*X83743D01*
X84443Y36402D01*
Y35102D01*
X80943Y33902D02*X83943D01*
X84443Y33402D01*
Y32402D01*
X83943Y31902D01*
X80943D02*X83943D01*
X80443Y32402D02*X80943Y31902D01*
X80443Y33402D02*Y32402D01*
X80943Y33902D02*X80443Y33402D01*
Y30702D02*X84443D01*
X80443Y28202D01*
X84443D01*
X80443Y27002D02*X84443D01*
X80443Y24502D01*
X84443D01*
X81943Y23302D02*X84443Y21302D01*
X81943Y23302D02*Y20802D01*
X80443Y21302D02*X84443D01*
M02*
