G04 start of page 2 for group 0 idx 0 *
G04 Title: (unknown), top *
G04 Creator: pcb 20140316 *
G04 CreationDate: Wed 08 Apr 2015 09:09:57 AM GMT UTC *
G04 For: fosse *
G04 Format: Gerber/RS-274X *
G04 PCB-Dimensions (mil): 2290.00 1790.00 *
G04 PCB-Coordinate-Origin: lower left *
%MOIN*%
%FSLAX25Y25*%
%LNTOP*%
%ADD36C,0.0315*%
%ADD35C,0.0420*%
%ADD34C,0.0340*%
%ADD33C,0.0433*%
%ADD32C,0.1650*%
%ADD31C,0.1250*%
%ADD30C,0.0350*%
%ADD29C,0.1900*%
%ADD28C,0.1700*%
%ADD27C,0.1500*%
%ADD26C,0.0360*%
%ADD25R,0.0591X0.0591*%
%ADD24R,0.0394X0.0394*%
%ADD23R,0.0551X0.0551*%
%ADD22R,0.0433X0.0433*%
%ADD21R,0.0433X0.0433*%
%ADD20R,0.0390X0.0390*%
%ADD19R,0.0394X0.0394*%
%ADD18C,0.0600*%
%ADD17C,0.0750*%
%ADD16C,0.0591*%
%ADD15C,0.0060*%
%ADD14C,0.0200*%
%ADD13C,0.0250*%
%ADD12C,0.0400*%
%ADD11C,0.0001*%
G54D11*G36*
X210004Y167991D02*X210405D01*
X211211Y167923D01*
X211593Y167857D01*
X211750Y167700D01*
X212335D01*
X212791Y167581D01*
X213554Y167310D01*
X214290Y166976D01*
X214996Y166580D01*
X215666Y166126D01*
X216294Y165616D01*
X216331Y165587D01*
X216373Y165565D01*
X216392Y165558D01*
X217044Y164906D01*
X217057Y164869D01*
X217080Y164826D01*
X217109Y164788D01*
X217626Y164166D01*
X218080Y163496D01*
X218476Y162790D01*
X218810Y162054D01*
X219081Y161291D01*
X219285Y160508D01*
X219423Y159711D01*
X219491Y158905D01*
Y158095D01*
X219423Y157289D01*
X219285Y156492D01*
X219081Y155709D01*
X218810Y154946D01*
X218476Y154210D01*
X218080Y153504D01*
X217626Y152834D01*
X217116Y152206D01*
X217087Y152169D01*
X217065Y152127D01*
X217049Y152083D01*
X217041Y152036D01*
X217040Y151989D01*
X217047Y151942D01*
X217061Y151897D01*
X217081Y151855D01*
X217108Y151816D01*
X217141Y151782D01*
X217179Y151754D01*
X217221Y151731D01*
X217265Y151716D01*
X217312Y151708D01*
X217359Y151707D01*
X217406Y151714D01*
X217451Y151727D01*
X217493Y151748D01*
X217532Y151775D01*
X217565Y151809D01*
X218115Y152471D01*
X218598Y153184D01*
X219019Y153934D01*
X219375Y154719D01*
X219663Y155530D01*
X219750Y155863D01*
Y22537D01*
X219663Y22870D01*
X219375Y23681D01*
X219019Y24466D01*
X218598Y25216D01*
X218115Y25929D01*
X217572Y26597D01*
X217538Y26632D01*
X217498Y26659D01*
X217454Y26681D01*
X217408Y26695D01*
X217360Y26702D01*
X217311Y26701D01*
X217263Y26692D01*
X217217Y26677D01*
X217174Y26654D01*
X217136Y26625D01*
X217102Y26590D01*
X217074Y26550D01*
X217053Y26506D01*
X217038Y26460D01*
X217032Y26412D01*
X217033Y26363D01*
X217041Y26315D01*
X217057Y26269D01*
X217080Y26226D01*
X217109Y26188D01*
X217626Y25566D01*
X218080Y24896D01*
X218476Y24190D01*
X218810Y23454D01*
X219081Y22691D01*
X219285Y21908D01*
X219423Y21111D01*
X219491Y20305D01*
Y19495D01*
X219423Y18689D01*
X219285Y17892D01*
X219081Y17109D01*
X218810Y16346D01*
X218476Y15610D01*
X218080Y14904D01*
X217626Y14234D01*
X217116Y13606D01*
X217087Y13569D01*
X217065Y13527D01*
X217058Y13508D01*
X216406Y12856D01*
X216369Y12843D01*
X216326Y12820D01*
X216288Y12791D01*
X215666Y12274D01*
X214996Y11820D01*
X214290Y11424D01*
X213554Y11090D01*
X212791Y10819D01*
X212008Y10615D01*
X211211Y10477D01*
X210405Y10409D01*
X210004D01*
Y29391D01*
X210405D01*
X211211Y29323D01*
X212008Y29185D01*
X212791Y28981D01*
X213554Y28710D01*
X214290Y28376D01*
X214996Y27980D01*
X215666Y27526D01*
X216294Y27016D01*
X216331Y26987D01*
X216373Y26965D01*
X216417Y26949D01*
X216464Y26941D01*
X216511Y26940D01*
X216558Y26947D01*
X216603Y26961D01*
X216645Y26981D01*
X216684Y27008D01*
X216718Y27041D01*
X216746Y27079D01*
X216769Y27121D01*
X216784Y27165D01*
X216792Y27212D01*
X216793Y27259D01*
X216786Y27306D01*
X216773Y27351D01*
X216752Y27393D01*
X216725Y27432D01*
X216691Y27465D01*
X216029Y28015D01*
X215316Y28498D01*
X214566Y28919D01*
X213781Y29275D01*
X212970Y29563D01*
X212137Y29781D01*
X211288Y29927D01*
X210431Y30000D01*
X210004D01*
Y58075D01*
X212485Y58076D01*
X212577Y58098D01*
X212664Y58134D01*
X212744Y58183D01*
X212816Y58244D01*
X212878Y58316D01*
X212927Y58397D01*
X212963Y58484D01*
X212985Y58576D01*
X212991Y58670D01*
X212985Y64864D01*
X212963Y64956D01*
X212927Y65043D01*
X212878Y65124D01*
X212816Y65196D01*
X212744Y65257D01*
X212664Y65306D01*
X212577Y65342D01*
X212485Y65364D01*
X212391Y65370D01*
X210004Y65370D01*
Y148400D01*
X210431D01*
X211288Y148473D01*
X212137Y148619D01*
X212970Y148837D01*
X213781Y149125D01*
X214566Y149481D01*
X215316Y149902D01*
X216029Y150385D01*
X216697Y150928D01*
X216732Y150962D01*
X216759Y151002D01*
X216781Y151046D01*
X216795Y151092D01*
X216802Y151140D01*
X216801Y151189D01*
X216792Y151237D01*
X216777Y151283D01*
X216754Y151326D01*
X216725Y151364D01*
X216690Y151398D01*
X216650Y151426D01*
X216606Y151447D01*
X216560Y151462D01*
X216512Y151468D01*
X216463Y151467D01*
X216415Y151459D01*
X216369Y151443D01*
X216326Y151420D01*
X216288Y151391D01*
X215666Y150874D01*
X214996Y150420D01*
X214290Y150024D01*
X213554Y149690D01*
X212791Y149419D01*
X212008Y149215D01*
X211211Y149077D01*
X210405Y149009D01*
X210004D01*
Y167991D01*
G37*
G36*
Y10409D02*X209595D01*
X208789Y10477D01*
X207992Y10615D01*
X207209Y10819D01*
X206446Y11090D01*
X205710Y11424D01*
X205004Y11820D01*
X204334Y12274D01*
X203706Y12784D01*
X203669Y12813D01*
X203627Y12835D01*
X203583Y12851D01*
X203536Y12859D01*
X203489Y12860D01*
X203442Y12853D01*
X203397Y12839D01*
X203355Y12819D01*
X203316Y12792D01*
X203282Y12759D01*
X203254Y12721D01*
X203231Y12679D01*
X203216Y12635D01*
X203208Y12588D01*
X203207Y12541D01*
X203214Y12494D01*
X203227Y12449D01*
X203248Y12407D01*
X203275Y12368D01*
X203309Y12335D01*
X203971Y11785D01*
X204684Y11302D01*
X205434Y10881D01*
X206219Y10525D01*
X207030Y10237D01*
X207171Y10200D01*
X201434D01*
Y14536D01*
X201885Y13871D01*
X202428Y13203D01*
X202462Y13168D01*
X202502Y13141D01*
X202546Y13119D01*
X202592Y13105D01*
X202640Y13098D01*
X202689Y13099D01*
X202737Y13108D01*
X202783Y13123D01*
X202826Y13146D01*
X202864Y13175D01*
X202898Y13210D01*
X202926Y13250D01*
X202947Y13294D01*
X202962Y13340D01*
X202968Y13388D01*
X202967Y13437D01*
X202959Y13485D01*
X202943Y13531D01*
X202920Y13574D01*
X202891Y13612D01*
X202374Y14234D01*
X201920Y14904D01*
X201524Y15610D01*
X201434Y15808D01*
Y23992D01*
X201524Y24190D01*
X201920Y24896D01*
X202374Y25566D01*
X202884Y26194D01*
X202913Y26231D01*
X202935Y26273D01*
X202951Y26317D01*
X202959Y26364D01*
X202960Y26411D01*
X202953Y26458D01*
X202939Y26503D01*
X202919Y26545D01*
X202892Y26584D01*
X202859Y26618D01*
X202821Y26646D01*
X202779Y26669D01*
X202735Y26684D01*
X202688Y26692D01*
X202641Y26693D01*
X202594Y26686D01*
X202549Y26673D01*
X202507Y26652D01*
X202468Y26625D01*
X202435Y26591D01*
X201885Y25929D01*
X201434Y25264D01*
Y58075D01*
X210004Y58075D01*
Y30000D01*
X209569D01*
X208712Y29927D01*
X207863Y29781D01*
X207030Y29563D01*
X206219Y29275D01*
X205434Y28919D01*
X204684Y28498D01*
X203971Y28015D01*
X203303Y27472D01*
X203268Y27438D01*
X203241Y27398D01*
X203219Y27354D01*
X203205Y27308D01*
X203198Y27260D01*
X203199Y27211D01*
X203208Y27163D01*
X203223Y27117D01*
X203246Y27074D01*
X203275Y27036D01*
X203310Y27002D01*
X203350Y26974D01*
X203394Y26953D01*
X203440Y26938D01*
X203488Y26932D01*
X203537Y26933D01*
X203585Y26941D01*
X203631Y26957D01*
X203674Y26980D01*
X203712Y27009D01*
X204334Y27526D01*
X205004Y27980D01*
X205710Y28376D01*
X206446Y28710D01*
X207209Y28981D01*
X207992Y29185D01*
X208789Y29323D01*
X209595Y29391D01*
X210004D01*
Y10409D01*
G37*
G36*
X201434Y15808D02*X201190Y16346D01*
X200919Y17109D01*
X200715Y17892D01*
X200577Y18689D01*
X200509Y19495D01*
Y20305D01*
X200577Y21111D01*
X200715Y21908D01*
X200919Y22691D01*
X201190Y23454D01*
X201434Y23992D01*
Y15808D01*
G37*
G36*
X192466Y28753D02*X192709Y28183D01*
X192944Y27459D01*
X193114Y26716D01*
X193216Y25961D01*
X193250Y25200D01*
X193216Y24439D01*
X193114Y23684D01*
X192944Y22941D01*
X192709Y22217D01*
X192466Y21647D01*
Y28753D01*
G37*
G36*
X201434Y10200D02*X192466D01*
Y20371D01*
X192573Y20533D01*
X192959Y21252D01*
X193280Y22003D01*
X193532Y22779D01*
X193713Y23575D01*
X193823Y24384D01*
X193859Y25200D01*
X193823Y26016D01*
X193713Y26825D01*
X193532Y27621D01*
X193280Y28397D01*
X192959Y29148D01*
X192573Y29867D01*
X192466Y30029D01*
Y58074D01*
X201434Y58075D01*
Y25264D01*
X201402Y25216D01*
X200981Y24466D01*
X200625Y23681D01*
X200337Y22870D01*
X200119Y22037D01*
X199973Y21188D01*
X199900Y20331D01*
Y19469D01*
X199973Y18612D01*
X200119Y17763D01*
X200337Y16930D01*
X200625Y16119D01*
X200981Y15334D01*
X201402Y14584D01*
X201434Y14536D01*
Y10200D01*
G37*
G36*
X192466D02*X184754D01*
Y16091D01*
X185566Y16127D01*
X186375Y16237D01*
X187171Y16418D01*
X187947Y16670D01*
X188698Y16991D01*
X189417Y17377D01*
X190099Y17827D01*
X190737Y18335D01*
X190772Y18369D01*
X190800Y18409D01*
X190821Y18453D01*
X190836Y18499D01*
X190843Y18547D01*
X190842Y18595D01*
X190834Y18643D01*
X190819Y18689D01*
X190796Y18732D01*
X190767Y18771D01*
X190733Y18805D01*
X190693Y18834D01*
X190650Y18855D01*
X190603Y18870D01*
X190555Y18877D01*
X190507Y18876D01*
X190459Y18868D01*
X190413Y18853D01*
X190370Y18830D01*
X190331Y18801D01*
X189741Y18320D01*
X189105Y17900D01*
X188434Y17540D01*
X187733Y17241D01*
X187009Y17006D01*
X186266Y16836D01*
X185511Y16734D01*
X184754Y16700D01*
Y33700D01*
X185511Y33666D01*
X186266Y33564D01*
X187009Y33394D01*
X187733Y33159D01*
X188434Y32860D01*
X189105Y32500D01*
X189741Y32080D01*
X190337Y31606D01*
X190374Y31577D01*
X190416Y31555D01*
X190461Y31540D01*
X190507Y31532D01*
X190555Y31532D01*
X190601Y31539D01*
X190646Y31553D01*
X190689Y31574D01*
X190727Y31601D01*
X190761Y31634D01*
X190789Y31672D01*
X190811Y31714D01*
X190826Y31759D01*
X190834Y31805D01*
X190834Y31853D01*
X190827Y31899D01*
X190813Y31944D01*
X190792Y31987D01*
X190765Y32025D01*
X190731Y32058D01*
X190099Y32573D01*
X189417Y33023D01*
X188698Y33409D01*
X187947Y33730D01*
X187171Y33982D01*
X186375Y34163D01*
X185566Y34273D01*
X184754Y34309D01*
Y58074D01*
X192466Y58074D01*
Y30029D01*
X192123Y30549D01*
X191615Y31187D01*
X191581Y31222D01*
X191541Y31250D01*
X191497Y31271D01*
X191451Y31286D01*
X191403Y31293D01*
X191355Y31292D01*
X191307Y31284D01*
X191261Y31269D01*
X191218Y31246D01*
X191179Y31217D01*
X191145Y31183D01*
X191116Y31143D01*
X191095Y31100D01*
X191080Y31053D01*
X191073Y31005D01*
X191074Y30957D01*
X191082Y30909D01*
X191097Y30863D01*
X191120Y30820D01*
X191149Y30781D01*
X191630Y30191D01*
X192050Y29555D01*
X192410Y28884D01*
X192466Y28753D01*
Y21647D01*
X192410Y21516D01*
X192050Y20845D01*
X191630Y20209D01*
X191156Y19613D01*
X191127Y19576D01*
X191105Y19534D01*
X191090Y19489D01*
X191082Y19443D01*
X191082Y19395D01*
X191089Y19349D01*
X191103Y19304D01*
X191124Y19261D01*
X191151Y19223D01*
X191184Y19189D01*
X191222Y19161D01*
X191264Y19139D01*
X191309Y19124D01*
X191355Y19116D01*
X191403Y19116D01*
X191449Y19123D01*
X191494Y19137D01*
X191537Y19158D01*
X191575Y19185D01*
X191608Y19219D01*
X192123Y19851D01*
X192466Y20371D01*
Y10200D01*
G37*
G36*
X184754D02*X177034D01*
Y20371D01*
X177377Y19851D01*
X177885Y19213D01*
X177919Y19178D01*
X177959Y19150D01*
X178003Y19129D01*
X178049Y19114D01*
X178097Y19107D01*
X178145Y19108D01*
X178193Y19116D01*
X178239Y19131D01*
X178282Y19154D01*
X178321Y19183D01*
X178355Y19217D01*
X178384Y19257D01*
X178405Y19300D01*
X178420Y19347D01*
X178427Y19395D01*
X178426Y19443D01*
X178418Y19491D01*
X178403Y19537D01*
X178380Y19580D01*
X178351Y19619D01*
X177870Y20209D01*
X177450Y20845D01*
X177090Y21516D01*
X177034Y21647D01*
Y28753D01*
X177090Y28884D01*
X177450Y29555D01*
X177870Y30191D01*
X178344Y30787D01*
X178373Y30824D01*
X178395Y30866D01*
X178410Y30911D01*
X178418Y30957D01*
X178418Y31005D01*
X178411Y31051D01*
X178397Y31096D01*
X178376Y31139D01*
X178349Y31177D01*
X178316Y31211D01*
X178278Y31239D01*
X178236Y31261D01*
X178191Y31276D01*
X178145Y31284D01*
X178097Y31284D01*
X178051Y31277D01*
X178006Y31263D01*
X177963Y31242D01*
X177925Y31215D01*
X177892Y31181D01*
X177377Y30549D01*
X177034Y30029D01*
Y58073D01*
X184754Y58074D01*
Y34309D01*
X184750Y34309D01*
X183934Y34273D01*
X183125Y34163D01*
X182329Y33982D01*
X181553Y33730D01*
X180802Y33409D01*
X180083Y33023D01*
X179401Y32573D01*
X178763Y32065D01*
X178728Y32031D01*
X178700Y31991D01*
X178679Y31947D01*
X178664Y31901D01*
X178657Y31853D01*
X178658Y31805D01*
X178666Y31757D01*
X178681Y31711D01*
X178704Y31668D01*
X178733Y31629D01*
X178767Y31595D01*
X178807Y31566D01*
X178850Y31545D01*
X178897Y31530D01*
X178945Y31523D01*
X178993Y31524D01*
X179041Y31532D01*
X179087Y31547D01*
X179130Y31570D01*
X179169Y31599D01*
X179759Y32080D01*
X180395Y32500D01*
X181066Y32860D01*
X181767Y33159D01*
X182491Y33394D01*
X183234Y33564D01*
X183989Y33666D01*
X184750Y33700D01*
X184754Y33700D01*
Y16700D01*
X184750Y16700D01*
X183989Y16734D01*
X183234Y16836D01*
X182491Y17006D01*
X181767Y17241D01*
X181066Y17540D01*
X180395Y17900D01*
X179759Y18320D01*
X179163Y18794D01*
X179126Y18823D01*
X179084Y18845D01*
X179039Y18860D01*
X178993Y18868D01*
X178945Y18868D01*
X178899Y18861D01*
X178854Y18847D01*
X178811Y18826D01*
X178773Y18799D01*
X178739Y18766D01*
X178711Y18728D01*
X178689Y18686D01*
X178674Y18641D01*
X178666Y18595D01*
X178666Y18547D01*
X178673Y18501D01*
X178687Y18456D01*
X178708Y18413D01*
X178735Y18375D01*
X178769Y18342D01*
X179401Y17827D01*
X180083Y17377D01*
X180802Y16991D01*
X181553Y16670D01*
X182329Y16418D01*
X183125Y16237D01*
X183934Y16127D01*
X184750Y16091D01*
X184754Y16091D01*
Y10200D01*
G37*
G36*
X177034Y21647D02*X176791Y22217D01*
X176556Y22941D01*
X176386Y23684D01*
X176284Y24439D01*
X176250Y25200D01*
X176284Y25961D01*
X176386Y26716D01*
X176556Y27459D01*
X176791Y28183D01*
X177034Y28753D01*
Y21647D01*
G37*
G36*
Y10200D02*X174591D01*
Y58073D01*
X177034Y58073D01*
Y30029D01*
X176927Y29867D01*
X176541Y29148D01*
X176220Y28397D01*
X175968Y27621D01*
X175787Y26825D01*
X175677Y26016D01*
X175641Y25200D01*
X175677Y24384D01*
X175787Y23575D01*
X175968Y22779D01*
X176220Y22003D01*
X176541Y21252D01*
X176927Y20533D01*
X177034Y20371D01*
Y10200D01*
G37*
G36*
X201434Y168200D02*X207171D01*
X207030Y168163D01*
X206219Y167875D01*
X205434Y167519D01*
X204684Y167098D01*
X203971Y166615D01*
X203303Y166072D01*
X203268Y166038D01*
X203241Y165998D01*
X203219Y165954D01*
X203205Y165908D01*
X203198Y165860D01*
X203199Y165811D01*
X203208Y165763D01*
X203223Y165717D01*
X203246Y165674D01*
X203275Y165636D01*
X203310Y165602D01*
X203350Y165574D01*
X203394Y165553D01*
X203440Y165538D01*
X203488Y165532D01*
X203537Y165533D01*
X203585Y165541D01*
X203631Y165557D01*
X203674Y165580D01*
X203712Y165609D01*
X204334Y166126D01*
X205004Y166580D01*
X205710Y166976D01*
X206446Y167310D01*
X207209Y167581D01*
X207992Y167785D01*
X208789Y167923D01*
X209595Y167991D01*
X210004D01*
Y149009D01*
X209595D01*
X208789Y149077D01*
X207992Y149215D01*
X207209Y149419D01*
X206446Y149690D01*
X205710Y150024D01*
X205004Y150420D01*
X204334Y150874D01*
X203706Y151384D01*
X203669Y151413D01*
X203627Y151435D01*
X203583Y151451D01*
X203536Y151459D01*
X203489Y151460D01*
X203442Y151453D01*
X203397Y151439D01*
X203355Y151419D01*
X203316Y151392D01*
X203282Y151359D01*
X203254Y151321D01*
X203231Y151279D01*
X203216Y151235D01*
X203208Y151188D01*
X203207Y151141D01*
X203214Y151094D01*
X203227Y151049D01*
X203248Y151007D01*
X203275Y150968D01*
X203309Y150935D01*
X203971Y150385D01*
X204684Y149902D01*
X205434Y149481D01*
X206219Y149125D01*
X207030Y148837D01*
X207863Y148619D01*
X208712Y148473D01*
X209569Y148400D01*
X210004D01*
Y65370D01*
X201434Y65369D01*
Y153136D01*
X201885Y152471D01*
X202428Y151803D01*
X202462Y151768D01*
X202502Y151741D01*
X202546Y151719D01*
X202592Y151705D01*
X202640Y151698D01*
X202689Y151699D01*
X202737Y151708D01*
X202783Y151723D01*
X202826Y151746D01*
X202864Y151775D01*
X202898Y151810D01*
X202926Y151850D01*
X202947Y151894D01*
X202962Y151940D01*
X202968Y151988D01*
X202967Y152037D01*
X202959Y152085D01*
X202943Y152131D01*
X202920Y152174D01*
X202891Y152212D01*
X202374Y152834D01*
X201920Y153504D01*
X201524Y154210D01*
X201434Y154408D01*
Y162592D01*
X201524Y162790D01*
X201920Y163496D01*
X202374Y164166D01*
X202884Y164794D01*
X202913Y164831D01*
X202935Y164873D01*
X202951Y164917D01*
X202959Y164964D01*
X202960Y165011D01*
X202953Y165058D01*
X202939Y165103D01*
X202919Y165145D01*
X202892Y165184D01*
X202859Y165218D01*
X202821Y165246D01*
X202779Y165269D01*
X202735Y165284D01*
X202688Y165292D01*
X202641Y165293D01*
X202594Y165286D01*
X202549Y165273D01*
X202507Y165252D01*
X202468Y165225D01*
X202435Y165191D01*
X201885Y164529D01*
X201434Y163864D01*
Y168200D01*
G37*
G36*
Y154408D02*X201190Y154946D01*
X200919Y155709D01*
X200715Y156492D01*
X200577Y157289D01*
X200509Y158095D01*
Y158905D01*
X200577Y159711D01*
X200715Y160508D01*
X200919Y161291D01*
X201190Y162054D01*
X201434Y162592D01*
Y154408D01*
G37*
G36*
X192466Y156753D02*X192709Y156183D01*
X192944Y155459D01*
X193114Y154716D01*
X193216Y153961D01*
X193250Y153200D01*
X193216Y152439D01*
X193114Y151684D01*
X192944Y150941D01*
X192709Y150217D01*
X192466Y149647D01*
Y156753D01*
G37*
G36*
Y168200D02*X201434D01*
Y163864D01*
X201402Y163816D01*
X200981Y163066D01*
X200625Y162281D01*
X200337Y161470D01*
X200119Y160637D01*
X199973Y159788D01*
X199900Y158931D01*
Y158069D01*
X199973Y157212D01*
X200119Y156363D01*
X200337Y155530D01*
X200625Y154719D01*
X200981Y153934D01*
X201402Y153184D01*
X201434Y153136D01*
Y65369D01*
X192466Y65369D01*
Y148371D01*
X192573Y148533D01*
X192959Y149252D01*
X193280Y150003D01*
X193532Y150779D01*
X193713Y151575D01*
X193823Y152384D01*
X193859Y153200D01*
X193823Y154016D01*
X193713Y154825D01*
X193532Y155621D01*
X193280Y156397D01*
X192959Y157148D01*
X192573Y157867D01*
X192466Y158029D01*
Y168200D01*
G37*
G36*
X184754D02*X192466D01*
Y158029D01*
X192123Y158549D01*
X191615Y159187D01*
X191581Y159222D01*
X191541Y159250D01*
X191497Y159271D01*
X191451Y159286D01*
X191403Y159293D01*
X191355Y159292D01*
X191307Y159284D01*
X191261Y159269D01*
X191218Y159246D01*
X191179Y159217D01*
X191145Y159183D01*
X191116Y159143D01*
X191095Y159100D01*
X191080Y159053D01*
X191073Y159005D01*
X191074Y158957D01*
X191082Y158909D01*
X191097Y158863D01*
X191120Y158820D01*
X191149Y158781D01*
X191630Y158191D01*
X192050Y157555D01*
X192410Y156884D01*
X192466Y156753D01*
Y149647D01*
X192410Y149516D01*
X192050Y148845D01*
X191630Y148209D01*
X191156Y147613D01*
X191127Y147576D01*
X191105Y147534D01*
X191090Y147489D01*
X191082Y147443D01*
X191082Y147395D01*
X191089Y147349D01*
X191103Y147304D01*
X191124Y147261D01*
X191151Y147223D01*
X191184Y147189D01*
X191222Y147161D01*
X191264Y147139D01*
X191309Y147124D01*
X191355Y147116D01*
X191403Y147116D01*
X191449Y147123D01*
X191494Y147137D01*
X191537Y147158D01*
X191575Y147185D01*
X191608Y147219D01*
X192123Y147851D01*
X192466Y148371D01*
Y65369D01*
X184754Y65368D01*
Y144091D01*
X185566Y144127D01*
X186375Y144237D01*
X187171Y144418D01*
X187947Y144670D01*
X188698Y144991D01*
X189417Y145377D01*
X190099Y145827D01*
X190737Y146335D01*
X190772Y146369D01*
X190800Y146409D01*
X190821Y146453D01*
X190836Y146499D01*
X190843Y146547D01*
X190842Y146595D01*
X190834Y146643D01*
X190819Y146689D01*
X190796Y146732D01*
X190767Y146771D01*
X190733Y146805D01*
X190693Y146834D01*
X190650Y146855D01*
X190603Y146870D01*
X190555Y146877D01*
X190507Y146876D01*
X190459Y146868D01*
X190413Y146853D01*
X190370Y146830D01*
X190331Y146801D01*
X189741Y146320D01*
X189105Y145900D01*
X188434Y145540D01*
X187733Y145241D01*
X187009Y145006D01*
X186266Y144836D01*
X185511Y144734D01*
X184754Y144700D01*
Y161700D01*
X185511Y161666D01*
X186266Y161564D01*
X187009Y161394D01*
X187733Y161159D01*
X188434Y160860D01*
X189105Y160500D01*
X189741Y160080D01*
X190337Y159606D01*
X190374Y159577D01*
X190416Y159555D01*
X190461Y159540D01*
X190507Y159532D01*
X190555Y159532D01*
X190601Y159539D01*
X190646Y159553D01*
X190689Y159574D01*
X190727Y159601D01*
X190761Y159634D01*
X190789Y159672D01*
X190811Y159714D01*
X190826Y159759D01*
X190834Y159805D01*
X190834Y159853D01*
X190827Y159899D01*
X190813Y159944D01*
X190792Y159987D01*
X190765Y160025D01*
X190731Y160058D01*
X190099Y160573D01*
X189417Y161023D01*
X188698Y161409D01*
X187947Y161730D01*
X187171Y161982D01*
X186375Y162163D01*
X185566Y162273D01*
X184754Y162309D01*
Y168200D01*
G37*
G36*
X177034D02*X184754D01*
Y162309D01*
X184750Y162309D01*
X183934Y162273D01*
X183125Y162163D01*
X182329Y161982D01*
X181553Y161730D01*
X180802Y161409D01*
X180083Y161023D01*
X179401Y160573D01*
X178763Y160065D01*
X178728Y160031D01*
X178700Y159991D01*
X178679Y159947D01*
X178664Y159901D01*
X178657Y159853D01*
X178658Y159805D01*
X178666Y159757D01*
X178681Y159711D01*
X178704Y159668D01*
X178733Y159629D01*
X178767Y159595D01*
X178807Y159566D01*
X178850Y159545D01*
X178897Y159530D01*
X178945Y159523D01*
X178993Y159524D01*
X179041Y159532D01*
X179087Y159547D01*
X179130Y159570D01*
X179169Y159599D01*
X179759Y160080D01*
X180395Y160500D01*
X181066Y160860D01*
X181767Y161159D01*
X182491Y161394D01*
X183234Y161564D01*
X183989Y161666D01*
X184750Y161700D01*
X184754Y161700D01*
Y144700D01*
X184750Y144700D01*
X183989Y144734D01*
X183234Y144836D01*
X182491Y145006D01*
X181767Y145241D01*
X181066Y145540D01*
X180395Y145900D01*
X179759Y146320D01*
X179163Y146794D01*
X179126Y146823D01*
X179084Y146845D01*
X179039Y146860D01*
X178993Y146868D01*
X178945Y146868D01*
X178899Y146861D01*
X178854Y146847D01*
X178811Y146826D01*
X178773Y146799D01*
X178739Y146766D01*
X178711Y146728D01*
X178689Y146686D01*
X178674Y146641D01*
X178666Y146595D01*
X178666Y146547D01*
X178673Y146501D01*
X178687Y146456D01*
X178708Y146413D01*
X178735Y146375D01*
X178769Y146342D01*
X179401Y145827D01*
X180083Y145377D01*
X180802Y144991D01*
X181553Y144670D01*
X182329Y144418D01*
X183125Y144237D01*
X183934Y144127D01*
X184750Y144091D01*
X184754Y144091D01*
Y65368D01*
X177034Y65367D01*
Y148371D01*
X177377Y147851D01*
X177885Y147213D01*
X177919Y147178D01*
X177959Y147150D01*
X178003Y147129D01*
X178049Y147114D01*
X178097Y147107D01*
X178145Y147108D01*
X178193Y147116D01*
X178239Y147131D01*
X178282Y147154D01*
X178321Y147183D01*
X178355Y147217D01*
X178384Y147257D01*
X178405Y147300D01*
X178420Y147347D01*
X178427Y147395D01*
X178426Y147443D01*
X178418Y147491D01*
X178403Y147537D01*
X178380Y147580D01*
X178351Y147619D01*
X177870Y148209D01*
X177450Y148845D01*
X177090Y149516D01*
X177034Y149647D01*
Y156753D01*
X177090Y156884D01*
X177450Y157555D01*
X177870Y158191D01*
X178344Y158787D01*
X178373Y158824D01*
X178395Y158866D01*
X178410Y158911D01*
X178418Y158957D01*
X178418Y159005D01*
X178411Y159051D01*
X178397Y159096D01*
X178376Y159139D01*
X178349Y159177D01*
X178316Y159211D01*
X178278Y159239D01*
X178236Y159261D01*
X178191Y159276D01*
X178145Y159284D01*
X178097Y159284D01*
X178051Y159277D01*
X178006Y159263D01*
X177963Y159242D01*
X177925Y159215D01*
X177892Y159181D01*
X177377Y158549D01*
X177034Y158029D01*
Y168200D01*
G37*
G36*
Y149647D02*X176791Y150217D01*
X176556Y150941D01*
X176386Y151684D01*
X176284Y152439D01*
X176250Y153200D01*
X176284Y153961D01*
X176386Y154716D01*
X176556Y155459D01*
X176791Y156183D01*
X177034Y156753D01*
Y149647D01*
G37*
G36*
X174591Y168200D02*X177034D01*
Y158029D01*
X176927Y157867D01*
X176541Y157148D01*
X176220Y156397D01*
X175968Y155621D01*
X175787Y154825D01*
X175677Y154016D01*
X175641Y153200D01*
X175677Y152384D01*
X175787Y151575D01*
X175968Y150779D01*
X176220Y150003D01*
X176541Y149252D01*
X176927Y148533D01*
X177034Y148371D01*
Y65367D01*
X174591Y65367D01*
Y168200D01*
G37*
G36*
X122112Y92211D02*X122284Y91802D01*
X122487Y91169D01*
X122633Y90521D01*
X122721Y89863D01*
X122750Y89200D01*
X122721Y88537D01*
X122633Y87879D01*
X122487Y87231D01*
X122284Y86598D01*
X122112Y86189D01*
Y92211D01*
G37*
G36*
X143716Y33253D02*X143959Y32683D01*
X144194Y31959D01*
X144364Y31216D01*
X144466Y30461D01*
X144500Y29700D01*
X144466Y28939D01*
X144364Y28184D01*
X144194Y27441D01*
X143959Y26717D01*
X143716Y26147D01*
Y33253D01*
G37*
G36*
Y58071D02*X174591Y58073D01*
Y10200D01*
X143716D01*
Y24871D01*
X143823Y25033D01*
X144209Y25752D01*
X144530Y26503D01*
X144782Y27279D01*
X144963Y28075D01*
X145073Y28884D01*
X145109Y29700D01*
X145073Y30516D01*
X144963Y31325D01*
X144782Y32121D01*
X144530Y32897D01*
X144209Y33648D01*
X143823Y34367D01*
X143716Y34529D01*
Y58071D01*
G37*
G36*
Y168200D02*X174591D01*
Y65367D01*
X143716Y65365D01*
Y168200D01*
G37*
G36*
X136004D02*X143716D01*
Y65365D01*
X136696Y65364D01*
X136605Y65342D01*
X136517Y65306D01*
X136437Y65257D01*
X136365Y65196D01*
X136304Y65124D01*
X136254Y65043D01*
X136218Y64956D01*
X136196Y64864D01*
X136191Y64770D01*
X136196Y58576D01*
X136218Y58484D01*
X136254Y58397D01*
X136304Y58316D01*
X136365Y58244D01*
X136437Y58183D01*
X136517Y58134D01*
X136605Y58098D01*
X136696Y58076D01*
X136791Y58070D01*
X143716Y58071D01*
Y34529D01*
X143373Y35049D01*
X142865Y35687D01*
X142831Y35722D01*
X142791Y35750D01*
X142747Y35771D01*
X142701Y35786D01*
X142653Y35793D01*
X142605Y35792D01*
X142557Y35784D01*
X142511Y35769D01*
X142468Y35746D01*
X142429Y35717D01*
X142395Y35683D01*
X142366Y35643D01*
X142345Y35600D01*
X142330Y35553D01*
X142323Y35505D01*
X142324Y35457D01*
X142332Y35409D01*
X142347Y35363D01*
X142370Y35320D01*
X142399Y35281D01*
X142880Y34691D01*
X143300Y34055D01*
X143660Y33384D01*
X143716Y33253D01*
Y26147D01*
X143660Y26016D01*
X143300Y25345D01*
X142880Y24709D01*
X142406Y24113D01*
X142377Y24076D01*
X142355Y24034D01*
X142340Y23989D01*
X142332Y23943D01*
X142332Y23895D01*
X142339Y23849D01*
X142353Y23804D01*
X142374Y23761D01*
X142401Y23723D01*
X142434Y23689D01*
X142472Y23661D01*
X142514Y23639D01*
X142559Y23624D01*
X142605Y23616D01*
X142653Y23616D01*
X142699Y23623D01*
X142744Y23637D01*
X142787Y23658D01*
X142825Y23685D01*
X142858Y23719D01*
X143373Y24351D01*
X143716Y24871D01*
Y10200D01*
X136004D01*
Y20591D01*
X136816Y20627D01*
X137625Y20737D01*
X138421Y20918D01*
X139197Y21170D01*
X139948Y21491D01*
X140667Y21877D01*
X141349Y22327D01*
X141987Y22835D01*
X142022Y22869D01*
X142050Y22909D01*
X142071Y22953D01*
X142086Y22999D01*
X142093Y23047D01*
X142092Y23095D01*
X142084Y23143D01*
X142069Y23189D01*
X142046Y23232D01*
X142017Y23271D01*
X141983Y23305D01*
X141943Y23334D01*
X141900Y23355D01*
X141853Y23370D01*
X141805Y23377D01*
X141757Y23376D01*
X141709Y23368D01*
X141663Y23353D01*
X141620Y23330D01*
X141581Y23301D01*
X140991Y22820D01*
X140355Y22400D01*
X139684Y22040D01*
X138983Y21741D01*
X138259Y21506D01*
X137516Y21336D01*
X136761Y21234D01*
X136004Y21200D01*
Y38200D01*
X136761Y38166D01*
X137516Y38064D01*
X138259Y37894D01*
X138983Y37659D01*
X139684Y37360D01*
X140355Y37000D01*
X140991Y36580D01*
X141587Y36106D01*
X141624Y36077D01*
X141666Y36055D01*
X141711Y36040D01*
X141757Y36032D01*
X141805Y36032D01*
X141851Y36039D01*
X141896Y36053D01*
X141939Y36074D01*
X141977Y36101D01*
X142011Y36134D01*
X142039Y36172D01*
X142061Y36214D01*
X142076Y36259D01*
X142084Y36305D01*
X142084Y36353D01*
X142077Y36399D01*
X142063Y36444D01*
X142042Y36487D01*
X142015Y36525D01*
X141981Y36558D01*
X141349Y37073D01*
X140667Y37523D01*
X139948Y37909D01*
X139197Y38230D01*
X138421Y38482D01*
X137625Y38663D01*
X136816Y38773D01*
X136004Y38809D01*
Y168200D01*
G37*
G36*
X128284D02*X136004D01*
Y38809D01*
X136000Y38809D01*
X135184Y38773D01*
X134375Y38663D01*
X133579Y38482D01*
X132803Y38230D01*
X132052Y37909D01*
X131333Y37523D01*
X130651Y37073D01*
X130013Y36565D01*
X129978Y36531D01*
X129950Y36491D01*
X129929Y36447D01*
X129914Y36401D01*
X129907Y36353D01*
X129908Y36305D01*
X129916Y36257D01*
X129931Y36211D01*
X129954Y36168D01*
X129983Y36129D01*
X130017Y36095D01*
X130057Y36066D01*
X130100Y36045D01*
X130147Y36030D01*
X130195Y36023D01*
X130243Y36024D01*
X130291Y36032D01*
X130337Y36047D01*
X130380Y36070D01*
X130419Y36099D01*
X131009Y36580D01*
X131645Y37000D01*
X132316Y37360D01*
X133017Y37659D01*
X133741Y37894D01*
X134484Y38064D01*
X135239Y38166D01*
X136000Y38200D01*
X136004Y38200D01*
Y21200D01*
X136000Y21200D01*
X135239Y21234D01*
X134484Y21336D01*
X133741Y21506D01*
X133017Y21741D01*
X132316Y22040D01*
X131645Y22400D01*
X131009Y22820D01*
X130413Y23294D01*
X130376Y23323D01*
X130334Y23345D01*
X130289Y23360D01*
X130243Y23368D01*
X130195Y23368D01*
X130149Y23361D01*
X130104Y23347D01*
X130061Y23326D01*
X130023Y23299D01*
X129989Y23266D01*
X129961Y23228D01*
X129939Y23186D01*
X129924Y23141D01*
X129916Y23095D01*
X129916Y23047D01*
X129923Y23001D01*
X129937Y22956D01*
X129958Y22913D01*
X129985Y22875D01*
X130019Y22842D01*
X130651Y22327D01*
X131333Y21877D01*
X132052Y21491D01*
X132803Y21170D01*
X133579Y20918D01*
X134375Y20737D01*
X135184Y20627D01*
X136000Y20591D01*
X136004Y20591D01*
Y10200D01*
X128284D01*
Y24871D01*
X128627Y24351D01*
X129135Y23713D01*
X129169Y23678D01*
X129209Y23650D01*
X129253Y23629D01*
X129299Y23614D01*
X129347Y23607D01*
X129395Y23608D01*
X129443Y23616D01*
X129489Y23631D01*
X129532Y23654D01*
X129571Y23683D01*
X129605Y23717D01*
X129634Y23757D01*
X129655Y23800D01*
X129670Y23847D01*
X129677Y23895D01*
X129676Y23943D01*
X129668Y23991D01*
X129653Y24037D01*
X129630Y24080D01*
X129601Y24119D01*
X129120Y24709D01*
X128700Y25345D01*
X128340Y26016D01*
X128284Y26147D01*
Y33253D01*
X128340Y33384D01*
X128700Y34055D01*
X129120Y34691D01*
X129594Y35287D01*
X129623Y35324D01*
X129645Y35366D01*
X129660Y35411D01*
X129668Y35457D01*
X129668Y35505D01*
X129661Y35551D01*
X129647Y35596D01*
X129626Y35639D01*
X129599Y35677D01*
X129566Y35711D01*
X129528Y35739D01*
X129486Y35761D01*
X129441Y35776D01*
X129395Y35784D01*
X129347Y35784D01*
X129301Y35777D01*
X129256Y35763D01*
X129213Y35742D01*
X129175Y35715D01*
X129142Y35681D01*
X128627Y35049D01*
X128284Y34529D01*
Y135069D01*
X128350Y135229D01*
X128569Y136140D01*
X128624Y137074D01*
X128569Y138008D01*
X128350Y138919D01*
X128284Y139079D01*
Y168200D01*
G37*
G36*
Y26147D02*X128041Y26717D01*
X127806Y27441D01*
X127636Y28184D01*
X127534Y28939D01*
X127500Y29700D01*
X127534Y30461D01*
X127636Y31216D01*
X127806Y31959D01*
X128041Y32683D01*
X128284Y33253D01*
Y26147D01*
G37*
G36*
Y10200D02*X122112D01*
Y12567D01*
X122687Y12568D01*
X122840Y12604D01*
X122985Y12665D01*
X123120Y12747D01*
X123239Y12849D01*
X123341Y12969D01*
X123424Y13103D01*
X123484Y13248D01*
X123521Y13401D01*
X123530Y13558D01*
X123521Y19621D01*
X123484Y19774D01*
X123424Y19919D01*
X123341Y20053D01*
X123239Y20173D01*
X123120Y20275D01*
X122985Y20358D01*
X122840Y20418D01*
X122687Y20455D01*
X122530Y20464D01*
X122112Y20463D01*
Y22184D01*
X122246Y22342D01*
X122575Y22878D01*
X122816Y23460D01*
X122963Y24072D01*
X123000Y24700D01*
X122963Y25328D01*
X122816Y25940D01*
X122575Y26522D01*
X122246Y27058D01*
X122112Y27216D01*
Y32385D01*
X122145Y32345D01*
X122205Y32294D01*
X122272Y32253D01*
X122345Y32223D01*
X122422Y32205D01*
X122500Y32198D01*
X122578Y32205D01*
X122655Y32223D01*
X122728Y32253D01*
X122795Y32294D01*
X122855Y32345D01*
X122906Y32405D01*
X122947Y32472D01*
X122977Y32545D01*
X122995Y32622D01*
X123000Y32700D01*
Y36700D01*
X122995Y36778D01*
X122977Y36855D01*
X122947Y36928D01*
X122906Y36995D01*
X122855Y37055D01*
X122795Y37106D01*
X122728Y37147D01*
X122655Y37177D01*
X122578Y37195D01*
X122500Y37202D01*
X122422Y37195D01*
X122345Y37177D01*
X122272Y37147D01*
X122205Y37106D01*
X122145Y37055D01*
X122112Y37015D01*
Y38945D01*
X122687Y38945D01*
X122840Y38982D01*
X122985Y39042D01*
X123120Y39125D01*
X123239Y39227D01*
X123341Y39347D01*
X123424Y39481D01*
X123484Y39626D01*
X123521Y39779D01*
X123530Y39936D01*
X123521Y45999D01*
X123484Y46152D01*
X123424Y46297D01*
X123341Y46431D01*
X123239Y46551D01*
X123120Y46653D01*
X122985Y46735D01*
X122840Y46796D01*
X122687Y46832D01*
X122530Y46842D01*
X122112Y46841D01*
Y53198D01*
X122619Y53631D01*
X123105Y54199D01*
X123495Y54837D01*
X123781Y55528D01*
X123956Y56255D01*
X124000Y57000D01*
X123956Y57745D01*
X123781Y58472D01*
X123495Y59163D01*
X123105Y59801D01*
X122619Y60369D01*
X122112Y60802D01*
Y64998D01*
X122619Y65431D01*
X123105Y65999D01*
X123495Y66637D01*
X123781Y67328D01*
X123956Y68055D01*
X124000Y68800D01*
X123956Y69545D01*
X123781Y70272D01*
X123495Y70963D01*
X123105Y71601D01*
X122619Y72169D01*
X122112Y72602D01*
Y84894D01*
X122240Y85092D01*
X122576Y85726D01*
X122855Y86388D01*
X123073Y87071D01*
X123231Y87771D01*
X123326Y88483D01*
X123358Y89200D01*
X123326Y89917D01*
X123231Y90629D01*
X123073Y91329D01*
X122855Y92012D01*
X122576Y92674D01*
X122240Y93308D01*
X122112Y93506D01*
Y125141D01*
X122581Y125690D01*
X123071Y126489D01*
X123429Y127355D01*
X123648Y128266D01*
X123703Y129200D01*
X123648Y130134D01*
X123429Y131045D01*
X123382Y131159D01*
X123605Y131176D01*
X124516Y131395D01*
X125382Y131753D01*
X126181Y132243D01*
X126893Y132852D01*
X127502Y133564D01*
X127992Y134363D01*
X128284Y135069D01*
Y34529D01*
X128177Y34367D01*
X127791Y33648D01*
X127470Y32897D01*
X127218Y32121D01*
X127037Y31325D01*
X126927Y30516D01*
X126891Y29700D01*
X126927Y28884D01*
X127037Y28075D01*
X127218Y27279D01*
X127470Y26503D01*
X127791Y25752D01*
X128177Y25033D01*
X128284Y24871D01*
Y10200D01*
G37*
G36*
X122112Y168200D02*X128284D01*
Y139079D01*
X127992Y139785D01*
X127502Y140584D01*
X126893Y141296D01*
X126181Y141905D01*
X125382Y142395D01*
X124516Y142753D01*
X123605Y142972D01*
X122671Y143045D01*
X122112Y143001D01*
Y168200D01*
G37*
G36*
Y72602D02*X122051Y72655D01*
X121413Y73045D01*
X120722Y73331D01*
X119995Y73506D01*
X119250Y73565D01*
X118505Y73506D01*
X117778Y73331D01*
X117087Y73045D01*
X116449Y72655D01*
X115881Y72169D01*
X115837Y72118D01*
Y81118D01*
X115967Y81124D01*
X116679Y81219D01*
X117379Y81377D01*
X118062Y81595D01*
X118724Y81874D01*
X119358Y82210D01*
X119960Y82601D01*
X120526Y83043D01*
X120560Y83077D01*
X120588Y83116D01*
X120610Y83160D01*
X120625Y83206D01*
X120633Y83253D01*
X120633Y83302D01*
X120625Y83349D01*
X120610Y83395D01*
X120588Y83439D01*
X120559Y83478D01*
X120525Y83512D01*
X120486Y83540D01*
X120443Y83562D01*
X120397Y83577D01*
X120349Y83584D01*
X120301Y83584D01*
X120253Y83577D01*
X120207Y83562D01*
X120164Y83540D01*
X120125Y83510D01*
X119607Y83096D01*
X119050Y82734D01*
X118464Y82423D01*
X117852Y82166D01*
X117219Y81963D01*
X116571Y81817D01*
X115913Y81729D01*
X115837Y81726D01*
Y96674D01*
X115913Y96671D01*
X116571Y96583D01*
X117219Y96437D01*
X117852Y96234D01*
X118464Y95977D01*
X119050Y95666D01*
X119607Y95304D01*
X120130Y94895D01*
X120168Y94867D01*
X120210Y94845D01*
X120255Y94830D01*
X120301Y94823D01*
X120348Y94823D01*
X120395Y94830D01*
X120440Y94845D01*
X120482Y94866D01*
X120520Y94894D01*
X120554Y94927D01*
X120582Y94965D01*
X120603Y95007D01*
X120618Y95052D01*
X120625Y95099D01*
X120625Y95146D01*
X120618Y95193D01*
X120603Y95238D01*
X120582Y95280D01*
X120554Y95318D01*
X120520Y95351D01*
X119960Y95799D01*
X119358Y96190D01*
X118724Y96526D01*
X118062Y96805D01*
X117379Y97023D01*
X116679Y97181D01*
X115967Y97276D01*
X115837Y97282D01*
Y123549D01*
X115905Y123521D01*
X116816Y123302D01*
X117750Y123229D01*
X118684Y123302D01*
X119595Y123521D01*
X120461Y123879D01*
X121260Y124369D01*
X121972Y124978D01*
X122112Y125141D01*
Y93506D01*
X121849Y93910D01*
X121407Y94476D01*
X121373Y94510D01*
X121334Y94538D01*
X121290Y94560D01*
X121244Y94575D01*
X121197Y94583D01*
X121148Y94583D01*
X121101Y94575D01*
X121055Y94560D01*
X121011Y94538D01*
X120972Y94509D01*
X120938Y94475D01*
X120910Y94436D01*
X120888Y94393D01*
X120873Y94347D01*
X120866Y94299D01*
X120866Y94251D01*
X120873Y94203D01*
X120888Y94157D01*
X120910Y94114D01*
X120940Y94075D01*
X121354Y93557D01*
X121716Y93000D01*
X122027Y92414D01*
X122112Y92211D01*
Y86189D01*
X122027Y85986D01*
X121716Y85400D01*
X121354Y84843D01*
X120945Y84320D01*
X120917Y84282D01*
X120895Y84240D01*
X120880Y84195D01*
X120873Y84149D01*
X120873Y84102D01*
X120880Y84055D01*
X120895Y84010D01*
X120916Y83968D01*
X120944Y83930D01*
X120977Y83896D01*
X121015Y83868D01*
X121057Y83847D01*
X121102Y83832D01*
X121149Y83825D01*
X121196Y83825D01*
X121243Y83832D01*
X121288Y83847D01*
X121330Y83868D01*
X121368Y83896D01*
X121401Y83930D01*
X121849Y84490D01*
X122112Y84894D01*
Y72602D01*
G37*
G36*
Y60802D02*X122051Y60855D01*
X121413Y61245D01*
X120722Y61531D01*
X119995Y61706D01*
X119250Y61765D01*
X118505Y61706D01*
X117778Y61531D01*
X117087Y61245D01*
X116449Y60855D01*
X115881Y60369D01*
X115837Y60318D01*
Y65482D01*
X115881Y65431D01*
X116449Y64945D01*
X117087Y64555D01*
X117778Y64269D01*
X118505Y64094D01*
X119250Y64035D01*
X119995Y64094D01*
X120722Y64269D01*
X121413Y64555D01*
X122051Y64945D01*
X122112Y64998D01*
Y60802D01*
G37*
G36*
Y46841D02*X115837Y46837D01*
Y53682D01*
X115881Y53631D01*
X116449Y53145D01*
X117087Y52755D01*
X117778Y52469D01*
X118505Y52294D01*
X119250Y52235D01*
X119995Y52294D01*
X120722Y52469D01*
X121413Y52755D01*
X122051Y53145D01*
X122112Y53198D01*
Y46841D01*
G37*
G36*
Y37015D02*X122094Y36995D01*
X122053Y36928D01*
X122023Y36855D01*
X122005Y36778D01*
X122000Y36700D01*
Y34818D01*
X121972Y35171D01*
X121862Y35630D01*
X121681Y36066D01*
X121435Y36469D01*
X121128Y36828D01*
X120769Y37135D01*
X120366Y37381D01*
X119930Y37562D01*
X119471Y37672D01*
X119118Y37700D01*
X121000D01*
X121078Y37705D01*
X121155Y37723D01*
X121228Y37753D01*
X121295Y37794D01*
X121355Y37845D01*
X121406Y37905D01*
X121447Y37972D01*
X121477Y38045D01*
X121495Y38122D01*
X121502Y38200D01*
X121495Y38278D01*
X121477Y38355D01*
X121447Y38428D01*
X121406Y38495D01*
X121355Y38555D01*
X121295Y38606D01*
X121228Y38647D01*
X121155Y38677D01*
X121078Y38695D01*
X121000Y38700D01*
X117000D01*
X116922Y38695D01*
X116845Y38677D01*
X116772Y38647D01*
X116705Y38606D01*
X116645Y38555D01*
X116594Y38495D01*
X116553Y38428D01*
X116523Y38355D01*
X116505Y38278D01*
X116498Y38200D01*
X116505Y38122D01*
X116523Y38045D01*
X116553Y37972D01*
X116594Y37905D01*
X116645Y37845D01*
X116705Y37794D01*
X116772Y37753D01*
X116845Y37723D01*
X116922Y37705D01*
X117000Y37700D01*
X118882D01*
X118529Y37672D01*
X118070Y37562D01*
X117634Y37381D01*
X117231Y37135D01*
X116879Y36821D01*
X116693Y36636D01*
X116000D01*
Y36700D01*
X115995Y36778D01*
X115977Y36855D01*
X115947Y36928D01*
X115906Y36995D01*
X115855Y37055D01*
X115837Y37070D01*
Y38941D01*
X122112Y38945D01*
Y37015D01*
G37*
G36*
Y27216D02*X121837Y27537D01*
X121358Y27946D01*
X120822Y28275D01*
X120240Y28516D01*
X119628Y28663D01*
X119000Y28712D01*
X118623Y28683D01*
X118409Y28734D01*
X118409Y28734D01*
X117938Y28771D01*
X117821Y28762D01*
X115837D01*
Y30636D01*
X117818D01*
X117936Y30627D01*
X118406Y30664D01*
X118407Y30664D01*
X118558Y30700D01*
X121000D01*
X121078Y30705D01*
X121155Y30723D01*
X121228Y30753D01*
X121295Y30794D01*
X121355Y30845D01*
X121406Y30905D01*
X121447Y30972D01*
X121477Y31045D01*
X121495Y31122D01*
X121502Y31200D01*
X121495Y31278D01*
X121477Y31355D01*
X121447Y31428D01*
X121406Y31495D01*
X121355Y31555D01*
X121295Y31606D01*
X121228Y31647D01*
X121155Y31677D01*
X121078Y31695D01*
X121000Y31700D01*
X120243D01*
X121121Y32579D01*
X121435Y32931D01*
X121681Y33334D01*
X121862Y33770D01*
X121972Y34229D01*
X122000Y34582D01*
Y32700D01*
X122005Y32622D01*
X122023Y32545D01*
X122053Y32472D01*
X122094Y32405D01*
X122112Y32385D01*
Y27216D01*
G37*
G36*
Y20463D02*X115837Y20459D01*
Y22244D01*
X116163Y21863D01*
X116642Y21454D01*
X117178Y21125D01*
X117760Y20884D01*
X118372Y20737D01*
X119000Y20688D01*
X119628Y20737D01*
X120240Y20884D01*
X120822Y21125D01*
X121358Y21454D01*
X121837Y21863D01*
X122112Y22184D01*
Y20463D01*
G37*
G36*
Y10200D02*X115837D01*
Y12563D01*
X122112Y12567D01*
Y10200D01*
G37*
G36*
X115837Y168200D02*X122112D01*
Y143001D01*
X121737Y142972D01*
X120826Y142753D01*
X119960Y142395D01*
X119161Y141905D01*
X118449Y141296D01*
X117840Y140584D01*
X117750Y140437D01*
X117660Y140584D01*
X117051Y141296D01*
X116339Y141905D01*
X115837Y142212D01*
Y168200D01*
G37*
G36*
X109000Y12567D02*X109144Y12558D01*
X115837Y12563D01*
Y10200D01*
X109000D01*
Y12567D01*
G37*
G36*
Y22762D02*X115496D01*
X115754Y22342D01*
X115837Y22244D01*
Y20459D01*
X109000Y20455D01*
Y22762D01*
G37*
G36*
Y30636D02*X115837D01*
Y28762D01*
X109000D01*
Y30636D01*
G37*
G36*
Y38945D02*X109144Y38936D01*
X115837Y38941D01*
Y37070D01*
X115795Y37106D01*
X115728Y37147D01*
X115655Y37177D01*
X115578Y37195D01*
X115500Y37202D01*
X115422Y37195D01*
X115345Y37177D01*
X115272Y37147D01*
X115205Y37106D01*
X115145Y37055D01*
X115094Y36995D01*
X115053Y36928D01*
X115023Y36855D01*
X115005Y36778D01*
X115000Y36700D01*
Y36636D01*
X109000D01*
Y38945D01*
G37*
G36*
Y123265D02*X111331Y123275D01*
X111790Y123385D01*
X112226Y123566D01*
X112629Y123812D01*
X112988Y124119D01*
X113295Y124478D01*
X113541Y124881D01*
X113567Y124944D01*
X114240Y124369D01*
X115039Y123879D01*
X115837Y123549D01*
Y97282D01*
X115250Y97308D01*
X114533Y97276D01*
X113821Y97181D01*
X113121Y97023D01*
X112438Y96805D01*
X111776Y96526D01*
X111142Y96190D01*
X110540Y95799D01*
X109974Y95357D01*
X109940Y95323D01*
X109912Y95284D01*
X109890Y95240D01*
X109875Y95194D01*
X109867Y95147D01*
X109867Y95098D01*
X109875Y95051D01*
X109890Y95005D01*
X109912Y94961D01*
X109941Y94922D01*
X109975Y94888D01*
X110014Y94860D01*
X110057Y94838D01*
X110103Y94823D01*
X110151Y94816D01*
X110199Y94816D01*
X110247Y94823D01*
X110293Y94838D01*
X110336Y94860D01*
X110375Y94890D01*
X110893Y95304D01*
X111450Y95666D01*
X112036Y95977D01*
X112648Y96234D01*
X113281Y96437D01*
X113929Y96583D01*
X114587Y96671D01*
X115250Y96700D01*
X115837Y96674D01*
Y81726D01*
X115250Y81700D01*
X114587Y81729D01*
X113929Y81817D01*
X113281Y81963D01*
X112648Y82166D01*
X112036Y82423D01*
X111450Y82734D01*
X110893Y83096D01*
X110370Y83505D01*
X110332Y83533D01*
X110290Y83555D01*
X110245Y83570D01*
X110199Y83577D01*
X110152Y83577D01*
X110105Y83570D01*
X110060Y83555D01*
X110018Y83534D01*
X109980Y83506D01*
X109946Y83473D01*
X109918Y83435D01*
X109897Y83393D01*
X109882Y83348D01*
X109875Y83301D01*
X109875Y83254D01*
X109882Y83207D01*
X109897Y83162D01*
X109918Y83120D01*
X109946Y83082D01*
X109980Y83049D01*
X110540Y82601D01*
X111142Y82210D01*
X111776Y81874D01*
X112438Y81595D01*
X113121Y81377D01*
X113821Y81219D01*
X114533Y81124D01*
X115250Y81092D01*
X115837Y81118D01*
Y72118D01*
X115395Y71601D01*
X115005Y70963D01*
X114719Y70272D01*
X114544Y69545D01*
X114485Y68800D01*
X114544Y68055D01*
X114719Y67328D01*
X115005Y66637D01*
X115395Y65999D01*
X115837Y65482D01*
Y60318D01*
X115395Y59801D01*
X115005Y59163D01*
X114719Y58472D01*
X114544Y57745D01*
X114485Y57000D01*
X114544Y56255D01*
X114719Y55528D01*
X115005Y54837D01*
X115395Y54199D01*
X115837Y53682D01*
Y46837D01*
X109000Y46832D01*
Y48857D01*
X110300Y50157D01*
X111507Y50159D01*
X111660Y50196D01*
X111805Y50256D01*
X111940Y50338D01*
X112059Y50441D01*
X112162Y50560D01*
X112244Y50695D01*
X112304Y50840D01*
X112341Y50993D01*
X112350Y51150D01*
X112341Y55207D01*
X112304Y55360D01*
X112244Y55505D01*
X112162Y55640D01*
X112059Y55759D01*
X111940Y55862D01*
X111805Y55944D01*
X111660Y56004D01*
X111507Y56041D01*
X111350Y56050D01*
X109577Y56047D01*
X109471Y56072D01*
X109000Y56109D01*
Y59900D01*
X109471Y59928D01*
X109587Y59956D01*
X111507Y59959D01*
X111660Y59996D01*
X111805Y60056D01*
X111940Y60138D01*
X112059Y60241D01*
X112162Y60360D01*
X112244Y60495D01*
X112304Y60640D01*
X112341Y60793D01*
X112350Y60950D01*
X112341Y65007D01*
X112304Y65160D01*
X112244Y65305D01*
X112162Y65440D01*
X112059Y65559D01*
X111940Y65662D01*
X111805Y65744D01*
X111660Y65804D01*
X111507Y65841D01*
X111350Y65850D01*
X109577Y65847D01*
X109471Y65872D01*
X109000Y65900D01*
Y69754D01*
X111507Y69759D01*
X111660Y69796D01*
X111805Y69856D01*
X111940Y69938D01*
X112059Y70041D01*
X112162Y70160D01*
X112244Y70295D01*
X112304Y70440D01*
X112341Y70593D01*
X112350Y70750D01*
X112341Y74807D01*
X112304Y74960D01*
X112244Y75105D01*
X112162Y75240D01*
X112059Y75359D01*
X111940Y75462D01*
X111805Y75544D01*
X111660Y75604D01*
X111507Y75641D01*
X111350Y75650D01*
X109000Y75646D01*
Y84043D01*
X109093Y83924D01*
X109127Y83890D01*
X109166Y83862D01*
X109210Y83840D01*
X109256Y83825D01*
X109303Y83817D01*
X109352Y83817D01*
X109399Y83825D01*
X109445Y83840D01*
X109489Y83862D01*
X109528Y83891D01*
X109562Y83925D01*
X109590Y83964D01*
X109612Y84007D01*
X109627Y84053D01*
X109634Y84101D01*
X109634Y84149D01*
X109627Y84197D01*
X109612Y84243D01*
X109590Y84286D01*
X109560Y84325D01*
X109146Y84843D01*
X109000Y85067D01*
Y93333D01*
X109146Y93557D01*
X109555Y94080D01*
X109583Y94118D01*
X109605Y94160D01*
X109620Y94205D01*
X109627Y94251D01*
X109627Y94298D01*
X109620Y94345D01*
X109605Y94390D01*
X109584Y94432D01*
X109556Y94470D01*
X109523Y94504D01*
X109485Y94532D01*
X109443Y94553D01*
X109398Y94568D01*
X109351Y94575D01*
X109304Y94575D01*
X109257Y94568D01*
X109212Y94553D01*
X109170Y94532D01*
X109132Y94504D01*
X109099Y94470D01*
X109000Y94347D01*
Y123265D01*
G37*
G36*
Y168200D02*X115837D01*
Y142212D01*
X115540Y142395D01*
X114674Y142753D01*
X113763Y142972D01*
X112829Y143045D01*
X111895Y142972D01*
X110984Y142753D01*
X110118Y142395D01*
X109319Y141905D01*
X109000Y141632D01*
Y168200D01*
G37*
G36*
Y85067D02*X108784Y85400D01*
X108473Y85986D01*
X108216Y86598D01*
X108013Y87231D01*
X107867Y87879D01*
X107779Y88537D01*
X107750Y89200D01*
X107779Y89863D01*
X107867Y90521D01*
X108013Y91169D01*
X108216Y91802D01*
X108473Y92414D01*
X108784Y93000D01*
X109000Y93333D01*
Y85067D01*
G37*
G36*
X93754Y17350D02*X99166Y22762D01*
X109000D01*
Y20455D01*
X108987Y20455D01*
X108834Y20418D01*
X108689Y20358D01*
X108554Y20275D01*
X108435Y20173D01*
X108333Y20053D01*
X108250Y19919D01*
X108190Y19774D01*
X108153Y19621D01*
X108144Y19464D01*
X108153Y13401D01*
X108190Y13248D01*
X108250Y13103D01*
X108333Y12969D01*
X108435Y12849D01*
X108554Y12747D01*
X108689Y12665D01*
X108834Y12604D01*
X108987Y12568D01*
X109000Y12567D01*
Y10200D01*
X93754D01*
Y17350D01*
G37*
G36*
Y30670D02*X97419Y30672D01*
X97453Y30664D01*
X97924Y30636D01*
X109000D01*
Y28762D01*
X98041D01*
X97924Y28771D01*
X97453Y28734D01*
X97417Y28726D01*
X93754Y28724D01*
Y30670D01*
G37*
G36*
Y46590D02*X97110D01*
Y44616D01*
X96864Y44328D01*
X96535Y43792D01*
X96294Y43210D01*
X96147Y42598D01*
X96098Y41970D01*
X96147Y41342D01*
X96294Y40730D01*
X96535Y40148D01*
X96864Y39612D01*
X97273Y39133D01*
X97752Y38724D01*
X98288Y38395D01*
X98870Y38154D01*
X99482Y38007D01*
X100110Y37958D01*
X100738Y38007D01*
X101350Y38154D01*
X101932Y38395D01*
X102468Y38724D01*
X102947Y39133D01*
X103356Y39612D01*
X103685Y40148D01*
X103926Y40730D01*
X104073Y41342D01*
X104110Y41970D01*
X104073Y42598D01*
X103926Y43210D01*
X103685Y43792D01*
X103356Y44328D01*
X103110Y44616D01*
Y46590D01*
X105372D01*
X105490Y46581D01*
X105960Y46618D01*
X105961Y46618D01*
X106420Y46728D01*
X106856Y46909D01*
X107259Y47155D01*
X107618Y47462D01*
X107695Y47552D01*
X109000Y48857D01*
Y46832D01*
X108987Y46832D01*
X108834Y46796D01*
X108689Y46735D01*
X108554Y46653D01*
X108435Y46551D01*
X108333Y46431D01*
X108250Y46297D01*
X108190Y46152D01*
X108153Y45999D01*
X108144Y45842D01*
X108153Y39779D01*
X108190Y39626D01*
X108250Y39481D01*
X108333Y39347D01*
X108435Y39227D01*
X108554Y39125D01*
X108689Y39042D01*
X108834Y38982D01*
X108987Y38945D01*
X109000Y38945D01*
Y36636D01*
X97924D01*
X97453Y36608D01*
X97417Y36600D01*
X93754Y36598D01*
Y46590D01*
G37*
G36*
Y55227D02*X94250Y55188D01*
X94878Y55237D01*
X95490Y55384D01*
X96072Y55625D01*
X96608Y55954D01*
X97087Y56363D01*
X97496Y56842D01*
X97825Y57378D01*
X98066Y57960D01*
X98213Y58572D01*
X98235Y58942D01*
X99193Y59900D01*
X109000D01*
Y56109D01*
X108529Y56072D01*
X108413Y56044D01*
X106493Y56041D01*
X106340Y56004D01*
X106195Y55944D01*
X106060Y55862D01*
X105941Y55759D01*
X105838Y55640D01*
X105756Y55505D01*
X105696Y55360D01*
X105659Y55207D01*
X105650Y55050D01*
X105652Y53995D01*
X104247Y52590D01*
X100228D01*
X100110Y52599D01*
X99992Y52590D01*
X93754D01*
Y55227D01*
G37*
G36*
X101466Y105753D02*X101709Y105183D01*
X101944Y104459D01*
X102114Y103716D01*
X102216Y102961D01*
X102250Y102200D01*
X102216Y101439D01*
X102114Y100684D01*
X101944Y99941D01*
X101709Y99217D01*
X101466Y98647D01*
Y105753D01*
G37*
G36*
Y168200D02*X109000D01*
Y141632D01*
X108607Y141296D01*
X107998Y140584D01*
X107508Y139785D01*
X107150Y138919D01*
X106931Y138008D01*
X106858Y137074D01*
X106931Y136140D01*
X107150Y135229D01*
X107188Y135137D01*
X104483Y135125D01*
X104024Y135015D01*
X103588Y134834D01*
X103185Y134588D01*
X102826Y134281D01*
X102519Y133922D01*
X102273Y133519D01*
X102092Y133083D01*
X101982Y132624D01*
X101954Y132153D01*
X101982Y125776D01*
X102092Y125317D01*
X102273Y124881D01*
X102519Y124478D01*
X102826Y124119D01*
X103185Y123812D01*
X103588Y123566D01*
X104024Y123385D01*
X104483Y123275D01*
X104954Y123247D01*
X109000Y123265D01*
Y94347D01*
X108651Y93910D01*
X108260Y93308D01*
X107924Y92674D01*
X107645Y92012D01*
X107427Y91329D01*
X107269Y90629D01*
X107174Y89917D01*
X107142Y89200D01*
X107174Y88483D01*
X107269Y87771D01*
X107427Y87071D01*
X107645Y86388D01*
X107924Y85726D01*
X108260Y85092D01*
X108651Y84490D01*
X109000Y84043D01*
Y75646D01*
X106493Y75641D01*
X106340Y75604D01*
X106195Y75544D01*
X106060Y75462D01*
X105941Y75359D01*
X105838Y75240D01*
X105756Y75105D01*
X105696Y74960D01*
X105659Y74807D01*
X105650Y74650D01*
X105659Y70593D01*
X105696Y70440D01*
X105756Y70295D01*
X105838Y70160D01*
X105941Y70041D01*
X106060Y69938D01*
X106195Y69856D01*
X106340Y69796D01*
X106493Y69759D01*
X106650Y69750D01*
X109000Y69754D01*
Y65900D01*
X101466D01*
Y97371D01*
X101573Y97533D01*
X101959Y98252D01*
X102280Y99003D01*
X102532Y99779D01*
X102713Y100575D01*
X102823Y101384D01*
X102859Y102200D01*
X102823Y103016D01*
X102713Y103825D01*
X102532Y104621D01*
X102280Y105397D01*
X101959Y106148D01*
X101573Y106867D01*
X101466Y107029D01*
Y168200D01*
G37*
G36*
X93754D02*X101466D01*
Y107029D01*
X101123Y107549D01*
X100615Y108187D01*
X100581Y108222D01*
X100541Y108250D01*
X100497Y108271D01*
X100451Y108286D01*
X100403Y108293D01*
X100355Y108292D01*
X100307Y108284D01*
X100261Y108269D01*
X100218Y108246D01*
X100179Y108217D01*
X100145Y108183D01*
X100116Y108143D01*
X100095Y108100D01*
X100080Y108053D01*
X100073Y108005D01*
X100074Y107957D01*
X100082Y107909D01*
X100097Y107863D01*
X100120Y107820D01*
X100149Y107781D01*
X100630Y107191D01*
X101050Y106555D01*
X101410Y105884D01*
X101466Y105753D01*
Y98647D01*
X101410Y98516D01*
X101050Y97845D01*
X100630Y97209D01*
X100156Y96613D01*
X100127Y96576D01*
X100105Y96534D01*
X100090Y96489D01*
X100082Y96443D01*
X100082Y96395D01*
X100089Y96349D01*
X100103Y96304D01*
X100124Y96261D01*
X100151Y96223D01*
X100184Y96189D01*
X100222Y96161D01*
X100264Y96139D01*
X100309Y96124D01*
X100355Y96116D01*
X100403Y96116D01*
X100449Y96123D01*
X100494Y96137D01*
X100537Y96158D01*
X100575Y96185D01*
X100608Y96219D01*
X101123Y96851D01*
X101466Y97371D01*
Y65900D01*
X98068D01*
X97950Y65909D01*
X97479Y65872D01*
X97020Y65762D01*
X96584Y65581D01*
X96181Y65335D01*
X96181Y65334D01*
X95822Y65028D01*
X95746Y64938D01*
X94000Y63193D01*
X93754Y63173D01*
Y93091D01*
X94566Y93127D01*
X95375Y93237D01*
X96171Y93418D01*
X96947Y93670D01*
X97698Y93991D01*
X98417Y94377D01*
X99099Y94827D01*
X99737Y95335D01*
X99772Y95369D01*
X99800Y95409D01*
X99821Y95453D01*
X99836Y95499D01*
X99843Y95547D01*
X99842Y95595D01*
X99834Y95643D01*
X99819Y95689D01*
X99796Y95732D01*
X99767Y95771D01*
X99733Y95805D01*
X99693Y95834D01*
X99650Y95855D01*
X99603Y95870D01*
X99555Y95877D01*
X99507Y95876D01*
X99459Y95868D01*
X99413Y95853D01*
X99370Y95830D01*
X99331Y95801D01*
X98741Y95320D01*
X98105Y94900D01*
X97434Y94540D01*
X96733Y94241D01*
X96009Y94006D01*
X95266Y93836D01*
X94511Y93734D01*
X93754Y93700D01*
Y110700D01*
X94511Y110666D01*
X95266Y110564D01*
X96009Y110394D01*
X96733Y110159D01*
X97434Y109860D01*
X98105Y109500D01*
X98741Y109080D01*
X99337Y108606D01*
X99374Y108577D01*
X99416Y108555D01*
X99461Y108540D01*
X99507Y108532D01*
X99555Y108532D01*
X99601Y108539D01*
X99646Y108553D01*
X99689Y108574D01*
X99727Y108601D01*
X99761Y108634D01*
X99789Y108672D01*
X99811Y108714D01*
X99826Y108759D01*
X99834Y108805D01*
X99834Y108853D01*
X99827Y108899D01*
X99813Y108944D01*
X99792Y108987D01*
X99765Y109025D01*
X99731Y109058D01*
X99099Y109573D01*
X98417Y110023D01*
X97698Y110409D01*
X96947Y110730D01*
X96171Y110982D01*
X95375Y111163D01*
X94566Y111273D01*
X93754Y111309D01*
Y168200D01*
G37*
G36*
X86034Y13330D02*X88374D01*
X88492Y13321D01*
X88962Y13358D01*
X88962Y13358D01*
X89229Y13422D01*
X89422Y13468D01*
X89422Y13468D01*
X89422D01*
X89858Y13649D01*
X90133Y13818D01*
X90261Y13895D01*
X90261Y13895D01*
X90261Y13895D01*
X90620Y14202D01*
X90696Y14292D01*
X93754Y17350D01*
Y10200D01*
X86034D01*
Y13330D01*
G37*
G36*
Y46590D02*X93754D01*
Y36598D01*
X86940Y36595D01*
X86787Y36558D01*
X86641Y36498D01*
X86507Y36416D01*
X86388Y36314D01*
X86285Y36194D01*
X86203Y36060D01*
X86143Y35914D01*
X86106Y35761D01*
X86097Y35604D01*
X86106Y31510D01*
X86143Y31357D01*
X86203Y31212D01*
X86285Y31078D01*
X86388Y30958D01*
X86507Y30856D01*
X86641Y30774D01*
X86787Y30713D01*
X86940Y30677D01*
X87097Y30667D01*
X93754Y30670D01*
Y28724D01*
X86940Y28721D01*
X86787Y28684D01*
X86641Y28624D01*
X86507Y28542D01*
X86388Y28440D01*
X86285Y28320D01*
X86203Y28186D01*
X86143Y28040D01*
X86106Y27887D01*
X86097Y27730D01*
X86106Y23636D01*
X86143Y23483D01*
X86203Y23338D01*
X86285Y23204D01*
X86388Y23084D01*
X86507Y22982D01*
X86641Y22900D01*
X86787Y22839D01*
X86940Y22803D01*
X87097Y22793D01*
X90714Y22795D01*
X87249Y19330D01*
X86034D01*
Y46590D01*
G37*
G36*
Y168200D02*X93754D01*
Y111309D01*
X93750Y111309D01*
X92934Y111273D01*
X92125Y111163D01*
X91329Y110982D01*
X90553Y110730D01*
X89802Y110409D01*
X89083Y110023D01*
X88401Y109573D01*
X87763Y109065D01*
X87728Y109031D01*
X87700Y108991D01*
X87679Y108947D01*
X87664Y108901D01*
X87657Y108853D01*
X87658Y108805D01*
X87666Y108757D01*
X87681Y108711D01*
X87704Y108668D01*
X87733Y108629D01*
X87767Y108595D01*
X87807Y108566D01*
X87850Y108545D01*
X87897Y108530D01*
X87945Y108523D01*
X87993Y108524D01*
X88041Y108532D01*
X88087Y108547D01*
X88130Y108570D01*
X88169Y108599D01*
X88759Y109080D01*
X89395Y109500D01*
X90066Y109860D01*
X90767Y110159D01*
X91491Y110394D01*
X92234Y110564D01*
X92989Y110666D01*
X93750Y110700D01*
X93754Y110700D01*
Y93700D01*
X93750Y93700D01*
X92989Y93734D01*
X92234Y93836D01*
X91491Y94006D01*
X90767Y94241D01*
X90066Y94540D01*
X89395Y94900D01*
X88759Y95320D01*
X88163Y95794D01*
X88126Y95823D01*
X88084Y95845D01*
X88039Y95860D01*
X87993Y95868D01*
X87945Y95868D01*
X87899Y95861D01*
X87854Y95847D01*
X87811Y95826D01*
X87773Y95799D01*
X87739Y95766D01*
X87711Y95728D01*
X87689Y95686D01*
X87674Y95641D01*
X87666Y95595D01*
X87666Y95547D01*
X87673Y95501D01*
X87687Y95456D01*
X87708Y95413D01*
X87735Y95375D01*
X87769Y95342D01*
X88401Y94827D01*
X89083Y94377D01*
X89802Y93991D01*
X90553Y93670D01*
X91329Y93418D01*
X92125Y93237D01*
X92934Y93127D01*
X93750Y93091D01*
X93754Y93091D01*
Y63173D01*
X93622Y63163D01*
X93010Y63016D01*
X92428Y62775D01*
X91892Y62446D01*
X91413Y62037D01*
X91004Y61558D01*
X90675Y61022D01*
X90434Y60440D01*
X90287Y59828D01*
X90238Y59200D01*
X90287Y58572D01*
X90434Y57960D01*
X90675Y57378D01*
X91004Y56842D01*
X91413Y56363D01*
X91892Y55954D01*
X92428Y55625D01*
X93010Y55384D01*
X93622Y55237D01*
X93754Y55227D01*
Y52590D01*
X86034D01*
Y97371D01*
X86377Y96851D01*
X86885Y96213D01*
X86919Y96178D01*
X86959Y96150D01*
X87003Y96129D01*
X87049Y96114D01*
X87097Y96107D01*
X87145Y96108D01*
X87193Y96116D01*
X87239Y96131D01*
X87282Y96154D01*
X87321Y96183D01*
X87355Y96217D01*
X87384Y96257D01*
X87405Y96300D01*
X87420Y96347D01*
X87427Y96395D01*
X87426Y96443D01*
X87418Y96491D01*
X87403Y96537D01*
X87380Y96580D01*
X87351Y96619D01*
X86870Y97209D01*
X86450Y97845D01*
X86090Y98516D01*
X86034Y98647D01*
Y105753D01*
X86090Y105884D01*
X86450Y106555D01*
X86870Y107191D01*
X87344Y107787D01*
X87373Y107824D01*
X87395Y107866D01*
X87410Y107911D01*
X87418Y107957D01*
X87418Y108005D01*
X87411Y108051D01*
X87397Y108096D01*
X87376Y108139D01*
X87349Y108177D01*
X87316Y108211D01*
X87278Y108239D01*
X87236Y108261D01*
X87191Y108276D01*
X87145Y108284D01*
X87097Y108284D01*
X87051Y108277D01*
X87006Y108263D01*
X86963Y108242D01*
X86925Y108215D01*
X86892Y108181D01*
X86377Y107549D01*
X86034Y107029D01*
Y168200D01*
G37*
G36*
Y98647D02*X85791Y99217D01*
X85556Y99941D01*
X85386Y100684D01*
X85284Y101439D01*
X85250Y102200D01*
X85284Y102961D01*
X85386Y103716D01*
X85556Y104459D01*
X85791Y105183D01*
X86034Y105753D01*
Y98647D01*
G37*
G36*
X75787Y168200D02*X86034D01*
Y107029D01*
X85927Y106867D01*
X85541Y106148D01*
X85220Y105397D01*
X84968Y104621D01*
X84787Y103825D01*
X84677Y103016D01*
X84641Y102200D01*
X84677Y101384D01*
X84787Y100575D01*
X84968Y99779D01*
X85220Y99003D01*
X85541Y98252D01*
X85927Y97533D01*
X86034Y97371D01*
Y52590D01*
X84025D01*
X83608Y52946D01*
X83072Y53275D01*
X82490Y53516D01*
X81878Y53663D01*
X81250Y53712D01*
X80622Y53663D01*
X80010Y53516D01*
X79428Y53275D01*
X78892Y52946D01*
X78413Y52537D01*
X78004Y52058D01*
X77675Y51522D01*
X77434Y50940D01*
X77287Y50328D01*
X77238Y49700D01*
X77287Y49072D01*
X77434Y48460D01*
X77675Y47878D01*
X78004Y47342D01*
X78413Y46863D01*
X78892Y46454D01*
X79428Y46125D01*
X80010Y45884D01*
X80622Y45737D01*
X81250Y45688D01*
X81878Y45737D01*
X82490Y45884D01*
X83072Y46125D01*
X83608Y46454D01*
X83768Y46590D01*
X86034D01*
Y19330D01*
X85666D01*
X85378Y19576D01*
X84842Y19905D01*
X84260Y20146D01*
X83648Y20293D01*
X83020Y20342D01*
X82392Y20293D01*
X81780Y20146D01*
X81198Y19905D01*
X80662Y19576D01*
X80183Y19167D01*
X79774Y18688D01*
X79445Y18152D01*
X79204Y17570D01*
X79057Y16958D01*
X79008Y16330D01*
X79057Y15702D01*
X79204Y15090D01*
X79445Y14508D01*
X79774Y13972D01*
X80183Y13493D01*
X80662Y13084D01*
X81198Y12755D01*
X81780Y12514D01*
X82392Y12367D01*
X83020Y12318D01*
X83648Y12367D01*
X84260Y12514D01*
X84842Y12755D01*
X85378Y13084D01*
X85666Y13330D01*
X86034D01*
Y10200D01*
X75787D01*
Y117794D01*
X80127Y117799D01*
X80219Y117821D01*
X80306Y117857D01*
X80387Y117907D01*
X80458Y117968D01*
X80520Y118040D01*
X80569Y118120D01*
X80605Y118208D01*
X80627Y118299D01*
X80633Y118394D01*
X80627Y122819D01*
X80605Y122911D01*
X80569Y122998D01*
X80520Y123078D01*
X80458Y123150D01*
X80387Y123212D01*
X80306Y123261D01*
X80219Y123297D01*
X80127Y123319D01*
X80033Y123325D01*
X79924Y123325D01*
X79900Y123633D01*
X79817Y123977D01*
X79777Y124073D01*
X79681Y124304D01*
X79567Y124491D01*
X79496Y124606D01*
X79496Y124606D01*
X79266Y124875D01*
X79199Y124933D01*
X76526Y127606D01*
X76524Y127639D01*
X76421Y128068D01*
X76253Y128475D01*
X76022Y128851D01*
X75787Y129126D01*
Y168200D01*
G37*
G36*
X67828D02*X75787D01*
Y129126D01*
X75736Y129186D01*
X75401Y129472D01*
X75025Y129703D01*
X74618Y129871D01*
X74189Y129974D01*
X73750Y130009D01*
X73311Y129974D01*
X72882Y129871D01*
X72475Y129703D01*
X72099Y129472D01*
X71764Y129186D01*
X71478Y128851D01*
X71247Y128475D01*
X71079Y128068D01*
X70976Y127639D01*
X70941Y127200D01*
X70976Y126761D01*
X71079Y126332D01*
X71247Y125925D01*
X71478Y125549D01*
X71764Y125214D01*
X72099Y124928D01*
X72475Y124697D01*
X72882Y124529D01*
X73311Y124426D01*
X73345Y124423D01*
X74771Y122997D01*
X74735Y122911D01*
X74713Y122819D01*
X74708Y122725D01*
X74713Y118299D01*
X74735Y118208D01*
X74772Y118120D01*
X74821Y118040D01*
X74882Y117968D01*
X74954Y117907D01*
X75035Y117857D01*
X75122Y117821D01*
X75214Y117799D01*
X75308Y117794D01*
X75787Y117794D01*
Y10200D01*
X67828D01*
Y29465D01*
X72864Y29469D01*
X73017Y29506D01*
X73162Y29566D01*
X73296Y29648D01*
X73416Y29751D01*
X73518Y29870D01*
X73601Y30005D01*
X73661Y30150D01*
X73698Y30303D01*
X73707Y30460D01*
X73698Y36129D01*
X73661Y36282D01*
X73601Y36427D01*
X73518Y36562D01*
X73416Y36681D01*
X73296Y36783D01*
X73162Y36866D01*
X73017Y36926D01*
X72864Y36963D01*
X72707Y36972D01*
X67828Y36968D01*
Y37339D01*
X72864Y37343D01*
X73017Y37380D01*
X73162Y37440D01*
X73296Y37522D01*
X73416Y37625D01*
X73518Y37744D01*
X73601Y37879D01*
X73661Y38024D01*
X73698Y38177D01*
X73707Y38334D01*
X73698Y44003D01*
X73661Y44156D01*
X73601Y44301D01*
X73518Y44436D01*
X73416Y44555D01*
X73296Y44658D01*
X73162Y44740D01*
X73017Y44800D01*
X72864Y44837D01*
X72707Y44846D01*
X69543Y44843D01*
Y45214D01*
X72864Y45217D01*
X73017Y45254D01*
X73162Y45314D01*
X73296Y45397D01*
X73416Y45499D01*
X73518Y45618D01*
X73601Y45753D01*
X73661Y45898D01*
X73698Y46051D01*
X73707Y46208D01*
X73698Y51877D01*
X73661Y52030D01*
X73601Y52175D01*
X73518Y52310D01*
X73416Y52429D01*
X73296Y52532D01*
X73162Y52614D01*
X73017Y52674D01*
X72864Y52711D01*
X72707Y52720D01*
X67828Y52716D01*
Y117796D01*
X70285Y117799D01*
X70377Y117821D01*
X70464Y117857D01*
X70545Y117907D01*
X70616Y117968D01*
X70678Y118040D01*
X70727Y118120D01*
X70763Y118208D01*
X70785Y118299D01*
X70791Y118394D01*
X70785Y122819D01*
X70763Y122911D01*
X70727Y122998D01*
X70678Y123078D01*
X70616Y123150D01*
X70545Y123212D01*
X70464Y123261D01*
X70377Y123297D01*
X70285Y123319D01*
X70191Y123325D01*
X67828Y123322D01*
Y128322D01*
X68022Y128549D01*
X68253Y128925D01*
X68320Y129088D01*
X73170Y133938D01*
X75207Y133941D01*
X75298Y133963D01*
X75386Y133999D01*
X75466Y134048D01*
X75538Y134110D01*
X75599Y134181D01*
X75649Y134262D01*
X75685Y134349D01*
X75707Y134441D01*
X75712Y134535D01*
X75707Y138959D01*
X75685Y139051D01*
X75649Y139138D01*
X75599Y139219D01*
X75538Y139291D01*
X75466Y139352D01*
X75386Y139401D01*
X75298Y139438D01*
X75207Y139460D01*
X75112Y139465D01*
X70293Y139460D01*
X70201Y139438D01*
X70114Y139401D01*
X70034Y139352D01*
X69962Y139291D01*
X69900Y139219D01*
X69851Y139138D01*
X69815Y139051D01*
X69793Y138959D01*
X69787Y138865D01*
X69790Y136922D01*
X67828Y134960D01*
Y168200D01*
G37*
G36*
X31877Y33391D02*X33581Y31687D01*
X33638Y31620D01*
X33907Y31390D01*
X33907Y31390D01*
X33907Y31390D01*
X34083Y31283D01*
X34209Y31205D01*
X34209Y31205D01*
X34313Y31162D01*
X34314Y30303D01*
X34351Y30150D01*
X34411Y30005D01*
X34493Y29870D01*
X34596Y29751D01*
X34715Y29648D01*
X34850Y29566D01*
X34995Y29506D01*
X35148Y29469D01*
X35305Y29460D01*
X43801Y29467D01*
X46597Y26671D01*
X46654Y26604D01*
X46923Y26374D01*
X46923Y26374D01*
X47225Y26189D01*
X47553Y26054D01*
X47897Y25971D01*
X48250Y25943D01*
X48338Y25950D01*
X52508D01*
X52298Y25704D01*
X51973Y25173D01*
X51735Y24598D01*
X51590Y23993D01*
X51541Y23373D01*
X51590Y22753D01*
X51735Y22148D01*
X51973Y21573D01*
X52298Y21042D01*
X52702Y20569D01*
X53175Y20165D01*
X53706Y19840D01*
X54281Y19602D01*
X54886Y19457D01*
X55506Y19408D01*
X56126Y19457D01*
X56731Y19602D01*
X57306Y19840D01*
X57837Y20165D01*
X58310Y20569D01*
X58714Y21042D01*
X59039Y21573D01*
X59277Y22148D01*
X59422Y22753D01*
X59459Y23373D01*
X59422Y23993D01*
X59277Y24598D01*
X59039Y25173D01*
X58714Y25704D01*
X58504Y25950D01*
X62189D01*
X62278Y25943D01*
X62630Y25971D01*
X62631Y25971D01*
X62631Y25971D01*
X62631Y25971D01*
X62735Y25996D01*
X62975Y26054D01*
X62975Y26054D01*
X62975Y26054D01*
X63042Y26081D01*
X63302Y26189D01*
X63302Y26189D01*
X63302Y26189D01*
X63392Y26244D01*
X63604Y26374D01*
X63604Y26374D01*
X63604Y26374D01*
X63604Y26374D01*
X63873Y26604D01*
X63931Y26671D01*
X66723Y29464D01*
X67828Y29465D01*
Y10200D01*
X31877D01*
Y33391D01*
G37*
G36*
X53722Y156145D02*X53944Y155459D01*
X54114Y154716D01*
X54216Y153961D01*
X54250Y153200D01*
X54216Y152439D01*
X54114Y151684D01*
X53944Y150941D01*
X53722Y150255D01*
Y156145D01*
G37*
G36*
Y46714D02*X58662D01*
X58750Y46707D01*
X58838Y46714D01*
X60888D01*
X60889Y46051D01*
X60926Y45898D01*
X60986Y45753D01*
X61068Y45618D01*
X61171Y45499D01*
X61290Y45397D01*
X61425Y45314D01*
X61570Y45254D01*
X61723Y45217D01*
X61880Y45208D01*
X65043Y45211D01*
Y44840D01*
X61723Y44837D01*
X61570Y44800D01*
X61425Y44740D01*
X61290Y44658D01*
X61171Y44555D01*
X61068Y44436D01*
X60986Y44301D01*
X60926Y44156D01*
X60889Y44003D01*
X60880Y43846D01*
X60889Y38177D01*
X60926Y38024D01*
X60986Y37879D01*
X61068Y37744D01*
X61171Y37625D01*
X61290Y37522D01*
X61425Y37440D01*
X61570Y37380D01*
X61723Y37343D01*
X61880Y37334D01*
X67828Y37339D01*
Y36968D01*
X61723Y36963D01*
X61570Y36926D01*
X61425Y36866D01*
X61290Y36783D01*
X61171Y36681D01*
X61068Y36562D01*
X60986Y36427D01*
X60926Y36282D01*
X60889Y36129D01*
X60880Y35972D01*
X60889Y30450D01*
X53722D01*
Y37550D01*
X54281Y37319D01*
X54886Y37174D01*
X55506Y37125D01*
X56126Y37174D01*
X56731Y37319D01*
X57306Y37557D01*
X57837Y37882D01*
X58310Y38286D01*
X58714Y38759D01*
X59039Y39290D01*
X59277Y39865D01*
X59422Y40470D01*
X59459Y41090D01*
X59422Y41710D01*
X59277Y42315D01*
X59039Y42890D01*
X58714Y43421D01*
X58310Y43894D01*
X57837Y44298D01*
X57306Y44623D01*
X56731Y44861D01*
X56126Y45006D01*
X55506Y45055D01*
X54886Y45006D01*
X54281Y44861D01*
X53722Y44630D01*
Y46714D01*
G37*
G36*
Y168200D02*X67828D01*
Y134960D01*
X65867Y132999D01*
X65750Y133009D01*
X65311Y132974D01*
X64882Y132871D01*
X64475Y132703D01*
X64099Y132472D01*
X63764Y132186D01*
X63478Y131851D01*
X63247Y131475D01*
X63079Y131068D01*
X62976Y130639D01*
X62941Y130200D01*
X62976Y129761D01*
X63079Y129332D01*
X63247Y128925D01*
X63478Y128549D01*
X63764Y128214D01*
X64099Y127928D01*
X64475Y127697D01*
X64882Y127529D01*
X65311Y127426D01*
X65750Y127391D01*
X66189Y127426D01*
X66618Y127529D01*
X67025Y127697D01*
X67401Y127928D01*
X67736Y128214D01*
X67828Y128322D01*
Y123322D01*
X65372Y123319D01*
X65280Y123297D01*
X65193Y123261D01*
X65112Y123212D01*
X65040Y123150D01*
X64979Y123078D01*
X64930Y122998D01*
X64893Y122911D01*
X64871Y122819D01*
X64866Y122725D01*
X64871Y118299D01*
X64893Y118208D01*
X64930Y118120D01*
X64979Y118040D01*
X65040Y117968D01*
X65112Y117907D01*
X65193Y117857D01*
X65280Y117821D01*
X65372Y117799D01*
X65466Y117794D01*
X67828Y117796D01*
Y52716D01*
X61723Y52711D01*
X61570Y52674D01*
X61425Y52614D01*
X61290Y52532D01*
X61171Y52429D01*
X61068Y52310D01*
X61000Y52198D01*
Y59523D01*
X61022Y59549D01*
X61253Y59925D01*
X61421Y60332D01*
X61524Y60761D01*
X61550Y61200D01*
X61524Y61639D01*
X61421Y62068D01*
X61253Y62475D01*
X61022Y62851D01*
X60736Y63186D01*
X60401Y63472D01*
X60025Y63703D01*
X59618Y63871D01*
X59189Y63974D01*
X58750Y64009D01*
X58311Y63974D01*
X57882Y63871D01*
X57475Y63703D01*
X57099Y63472D01*
X56764Y63186D01*
X56478Y62851D01*
X56247Y62475D01*
X56079Y62068D01*
X55976Y61639D01*
X55941Y61200D01*
X55976Y60761D01*
X56079Y60332D01*
X56247Y59925D01*
X56478Y59549D01*
X56500Y59523D01*
Y51214D01*
X53722D01*
Y89487D01*
X53747Y89425D01*
X53978Y89049D01*
X54264Y88714D01*
X54599Y88428D01*
X54975Y88197D01*
X55382Y88029D01*
X55811Y87926D01*
X56250Y87891D01*
X56689Y87926D01*
X57118Y88029D01*
X57525Y88197D01*
X57901Y88428D01*
X58236Y88714D01*
X58522Y89049D01*
X58753Y89425D01*
X58921Y89832D01*
X59024Y90261D01*
X59048Y90670D01*
X62109Y93730D01*
X62169Y93781D01*
X62373Y94020D01*
X62373Y94021D01*
X62538Y94289D01*
X62658Y94580D01*
X62731Y94886D01*
X62756Y95200D01*
X62750Y95278D01*
Y99622D01*
X62756Y99700D01*
X62731Y100014D01*
X62658Y100320D01*
X62538Y100611D01*
X62373Y100879D01*
X62373Y100879D01*
X62169Y101119D01*
X62109Y101170D01*
X59720Y103559D01*
X59669Y103619D01*
X59429Y103823D01*
X59161Y103988D01*
X58870Y104108D01*
X58564Y104181D01*
X58564Y104181D01*
X58250Y104206D01*
X58172Y104200D01*
X54828D01*
X54750Y104206D01*
X54436Y104181D01*
X54130Y104108D01*
X53839Y103988D01*
X53722Y103916D01*
Y148810D01*
X53959Y149252D01*
X54280Y150003D01*
X54532Y150779D01*
X54713Y151575D01*
X54823Y152384D01*
X54859Y153200D01*
X54823Y154016D01*
X54713Y154825D01*
X54532Y155621D01*
X54280Y156397D01*
X53959Y157148D01*
X53722Y157590D01*
Y168200D01*
G37*
G36*
X45754Y45217D02*X46289Y45217D01*
X46442Y45254D01*
X46587Y45314D01*
X46722Y45397D01*
X46841Y45499D01*
X46943Y45618D01*
X47026Y45753D01*
X47086Y45898D01*
X47123Y46051D01*
X47132Y46208D01*
X47131Y46714D01*
X53722D01*
Y44630D01*
X53706Y44623D01*
X53175Y44298D01*
X52702Y43894D01*
X52298Y43421D01*
X51973Y42890D01*
X51735Y42315D01*
X51590Y41710D01*
X51541Y41090D01*
X51590Y40470D01*
X51735Y39865D01*
X51973Y39290D01*
X52298Y38759D01*
X52702Y38286D01*
X53175Y37882D01*
X53706Y37557D01*
X53722Y37550D01*
Y30450D01*
X49182D01*
X47129Y32503D01*
X47123Y36129D01*
X47086Y36282D01*
X47026Y36427D01*
X46943Y36562D01*
X46841Y36681D01*
X46722Y36783D01*
X46587Y36866D01*
X46442Y36926D01*
X46289Y36963D01*
X46132Y36972D01*
X45754Y36972D01*
Y45217D01*
G37*
G36*
Y88476D02*X51749Y88485D01*
X51902Y88522D01*
X52048Y88582D01*
X52182Y88664D01*
X52302Y88766D01*
X52404Y88886D01*
X52486Y89020D01*
X52546Y89166D01*
X52583Y89319D01*
X52593Y89476D01*
X52590Y90711D01*
X53673Y91794D01*
X53579Y91568D01*
X53476Y91139D01*
X53441Y90700D01*
X53476Y90261D01*
X53579Y89832D01*
X53722Y89487D01*
Y51214D01*
X47124D01*
X47123Y51877D01*
X47086Y52030D01*
X47026Y52175D01*
X46943Y52310D01*
X46841Y52429D01*
X46722Y52532D01*
X46587Y52614D01*
X46442Y52674D01*
X46289Y52711D01*
X46132Y52720D01*
X45754Y52720D01*
Y88476D01*
G37*
G36*
Y168200D02*X53722D01*
Y157590D01*
X53573Y157867D01*
X53123Y158549D01*
X52615Y159187D01*
X52581Y159222D01*
X52541Y159250D01*
X52497Y159271D01*
X52451Y159286D01*
X52403Y159293D01*
X52355Y159292D01*
X52307Y159284D01*
X52261Y159269D01*
X52218Y159246D01*
X52179Y159217D01*
X52145Y159183D01*
X52116Y159143D01*
X52095Y159100D01*
X52080Y159053D01*
X52073Y159005D01*
X52074Y158957D01*
X52082Y158909D01*
X52097Y158863D01*
X52120Y158820D01*
X52149Y158781D01*
X52630Y158191D01*
X53050Y157555D01*
X53410Y156884D01*
X53709Y156183D01*
X53722Y156145D01*
Y150255D01*
X53709Y150217D01*
X53410Y149516D01*
X53050Y148845D01*
X52630Y148209D01*
X52156Y147613D01*
X52127Y147576D01*
X52105Y147534D01*
X52090Y147489D01*
X52082Y147443D01*
X52082Y147395D01*
X52089Y147349D01*
X52103Y147304D01*
X52124Y147261D01*
X52151Y147223D01*
X52184Y147189D01*
X52222Y147161D01*
X52264Y147139D01*
X52309Y147124D01*
X52355Y147116D01*
X52403Y147116D01*
X52449Y147123D01*
X52494Y147137D01*
X52537Y147158D01*
X52575Y147185D01*
X52608Y147219D01*
X53123Y147851D01*
X53573Y148533D01*
X53722Y148810D01*
Y103916D01*
X53571Y103823D01*
X53571Y103823D01*
X53331Y103619D01*
X53280Y103559D01*
X49643Y99922D01*
X45754Y99916D01*
Y144091D01*
X46566Y144127D01*
X47375Y144237D01*
X48171Y144418D01*
X48947Y144670D01*
X49698Y144991D01*
X50417Y145377D01*
X51099Y145827D01*
X51737Y146335D01*
X51772Y146369D01*
X51800Y146409D01*
X51821Y146453D01*
X51836Y146499D01*
X51843Y146547D01*
X51842Y146595D01*
X51834Y146643D01*
X51819Y146689D01*
X51796Y146732D01*
X51767Y146771D01*
X51733Y146805D01*
X51693Y146834D01*
X51650Y146855D01*
X51603Y146870D01*
X51555Y146877D01*
X51507Y146876D01*
X51459Y146868D01*
X51413Y146853D01*
X51370Y146830D01*
X51331Y146801D01*
X50741Y146320D01*
X50105Y145900D01*
X49434Y145540D01*
X48733Y145241D01*
X48009Y145006D01*
X47266Y144836D01*
X46511Y144734D01*
X45754Y144700D01*
Y161700D01*
X46511Y161666D01*
X47266Y161564D01*
X48009Y161394D01*
X48733Y161159D01*
X49434Y160860D01*
X50105Y160500D01*
X50741Y160080D01*
X51337Y159606D01*
X51374Y159577D01*
X51416Y159555D01*
X51461Y159540D01*
X51507Y159532D01*
X51555Y159532D01*
X51601Y159539D01*
X51646Y159553D01*
X51689Y159574D01*
X51727Y159601D01*
X51761Y159634D01*
X51789Y159672D01*
X51811Y159714D01*
X51826Y159759D01*
X51834Y159805D01*
X51834Y159853D01*
X51827Y159899D01*
X51813Y159944D01*
X51792Y159987D01*
X51765Y160025D01*
X51731Y160058D01*
X51099Y160573D01*
X50417Y161023D01*
X49698Y161409D01*
X48947Y161730D01*
X48171Y161982D01*
X47375Y162163D01*
X46566Y162273D01*
X45754Y162309D01*
Y168200D01*
G37*
G36*
X38034Y45210D02*X45754Y45217D01*
Y36972D01*
X38034Y36965D01*
Y45210D01*
G37*
G36*
Y168200D02*X45754D01*
Y162309D01*
X45750Y162309D01*
X44934Y162273D01*
X44125Y162163D01*
X43329Y161982D01*
X42553Y161730D01*
X41802Y161409D01*
X41083Y161023D01*
X40401Y160573D01*
X39763Y160065D01*
X39728Y160031D01*
X39700Y159991D01*
X39679Y159947D01*
X39664Y159901D01*
X39657Y159853D01*
X39658Y159805D01*
X39666Y159757D01*
X39681Y159711D01*
X39704Y159668D01*
X39733Y159629D01*
X39767Y159595D01*
X39807Y159566D01*
X39850Y159545D01*
X39897Y159530D01*
X39945Y159523D01*
X39993Y159524D01*
X40041Y159532D01*
X40087Y159547D01*
X40130Y159570D01*
X40169Y159599D01*
X40759Y160080D01*
X41395Y160500D01*
X42066Y160860D01*
X42767Y161159D01*
X43491Y161394D01*
X44234Y161564D01*
X44989Y161666D01*
X45750Y161700D01*
X45754Y161700D01*
Y144700D01*
X45750Y144700D01*
X44989Y144734D01*
X44234Y144836D01*
X43491Y145006D01*
X42767Y145241D01*
X42066Y145540D01*
X41395Y145900D01*
X40759Y146320D01*
X40163Y146794D01*
X40126Y146823D01*
X40084Y146845D01*
X40039Y146860D01*
X39993Y146868D01*
X39945Y146868D01*
X39899Y146861D01*
X39854Y146847D01*
X39811Y146826D01*
X39773Y146799D01*
X39739Y146766D01*
X39711Y146728D01*
X39689Y146686D01*
X39674Y146641D01*
X39666Y146595D01*
X39666Y146547D01*
X39673Y146501D01*
X39687Y146456D01*
X39708Y146413D01*
X39735Y146375D01*
X39769Y146342D01*
X40401Y145827D01*
X41083Y145377D01*
X41802Y144991D01*
X42553Y144670D01*
X43329Y144418D01*
X44125Y144237D01*
X44934Y144127D01*
X45750Y144091D01*
X45754Y144091D01*
Y99916D01*
X45531Y99915D01*
X45378Y99878D01*
X45232Y99818D01*
X45098Y99736D01*
X44978Y99634D01*
X44876Y99514D01*
X44794Y99380D01*
X44734Y99234D01*
X44697Y99081D01*
X44688Y98924D01*
X44697Y94831D01*
X44734Y94678D01*
X44794Y94532D01*
X44876Y94398D01*
X44978Y94278D01*
X45070Y94200D01*
X44978Y94122D01*
X44876Y94002D01*
X44794Y93868D01*
X44734Y93722D01*
X44697Y93569D01*
X44688Y93412D01*
X44697Y89319D01*
X44734Y89166D01*
X44794Y89020D01*
X44876Y88886D01*
X44978Y88766D01*
X45098Y88664D01*
X45232Y88582D01*
X45378Y88522D01*
X45531Y88485D01*
X45688Y88476D01*
X45754Y88476D01*
Y52720D01*
X38034Y52713D01*
Y88500D01*
X38122Y88522D01*
X38268Y88582D01*
X38402Y88664D01*
X38522Y88766D01*
X38624Y88886D01*
X38706Y89020D01*
X38766Y89166D01*
X38803Y89319D01*
X38812Y89476D01*
X38803Y93569D01*
X38766Y93722D01*
X38706Y93868D01*
X38624Y94002D01*
X38522Y94122D01*
X38430Y94200D01*
X38522Y94278D01*
X38624Y94398D01*
X38706Y94532D01*
X38766Y94678D01*
X38803Y94831D01*
X38812Y94988D01*
X38803Y99081D01*
X38766Y99234D01*
X38706Y99380D01*
X38624Y99514D01*
X38522Y99634D01*
X38402Y99736D01*
X38268Y99818D01*
X38122Y99878D01*
X38034Y99900D01*
Y148371D01*
X38377Y147851D01*
X38885Y147213D01*
X38919Y147178D01*
X38959Y147150D01*
X39003Y147129D01*
X39049Y147114D01*
X39097Y147107D01*
X39145Y147108D01*
X39193Y147116D01*
X39239Y147131D01*
X39282Y147154D01*
X39321Y147183D01*
X39355Y147217D01*
X39384Y147257D01*
X39405Y147300D01*
X39420Y147347D01*
X39427Y147395D01*
X39426Y147443D01*
X39418Y147491D01*
X39403Y147537D01*
X39380Y147580D01*
X39351Y147619D01*
X38870Y148209D01*
X38450Y148845D01*
X38090Y149516D01*
X38034Y149647D01*
Y156753D01*
X38090Y156884D01*
X38450Y157555D01*
X38870Y158191D01*
X39344Y158787D01*
X39373Y158824D01*
X39395Y158866D01*
X39410Y158911D01*
X39418Y158957D01*
X39418Y159005D01*
X39411Y159051D01*
X39397Y159096D01*
X39376Y159139D01*
X39349Y159177D01*
X39316Y159211D01*
X39278Y159239D01*
X39236Y159261D01*
X39191Y159276D01*
X39145Y159284D01*
X39097Y159284D01*
X39051Y159277D01*
X39006Y159263D01*
X38963Y159242D01*
X38925Y159215D01*
X38892Y159181D01*
X38377Y158549D01*
X38034Y158029D01*
Y168200D01*
G37*
G36*
Y149647D02*X37791Y150217D01*
X37556Y150941D01*
X37386Y151684D01*
X37284Y152439D01*
X37250Y153200D01*
X37284Y153961D01*
X37386Y154716D01*
X37556Y155459D01*
X37791Y156183D01*
X38034Y156753D01*
Y149647D01*
G37*
G36*
Y52713D02*X35148Y52711D01*
X34995Y52674D01*
X34850Y52614D01*
X34715Y52532D01*
X34596Y52429D01*
X34493Y52310D01*
X34411Y52175D01*
X34351Y52030D01*
X34314Y51877D01*
X34305Y51720D01*
X34314Y46051D01*
X34351Y45898D01*
X34411Y45753D01*
X34493Y45618D01*
X34596Y45499D01*
X34715Y45397D01*
X34850Y45314D01*
X34995Y45254D01*
X35148Y45217D01*
X35305Y45208D01*
X38034Y45210D01*
Y36965D01*
X35148Y36963D01*
X34995Y36926D01*
X34850Y36866D01*
X34798Y36834D01*
X32526Y39106D01*
X32524Y39139D01*
X32421Y39568D01*
X32253Y39975D01*
X32022Y40351D01*
X31877Y40521D01*
Y88477D01*
X31907Y88476D01*
X37969Y88485D01*
X38034Y88500D01*
Y52713D01*
G37*
G36*
X31877Y168200D02*X38034D01*
Y158029D01*
X37927Y157867D01*
X37541Y157148D01*
X37220Y156397D01*
X36968Y155621D01*
X36787Y154825D01*
X36677Y154016D01*
X36641Y153200D01*
X36677Y152384D01*
X36787Y151575D01*
X36968Y150779D01*
X37220Y150003D01*
X37541Y149252D01*
X37927Y148533D01*
X38034Y148371D01*
Y99900D01*
X37969Y99915D01*
X37812Y99924D01*
X31877Y99915D01*
Y168200D01*
G37*
G36*
X29066Y23992D02*X29310Y23454D01*
X29581Y22691D01*
X29785Y21908D01*
X29923Y21111D01*
X29991Y20305D01*
Y19495D01*
X29923Y18689D01*
X29785Y17892D01*
X29581Y17109D01*
X29310Y16346D01*
X29066Y15808D01*
Y23992D01*
G37*
G36*
Y162592D02*X29310Y162054D01*
X29581Y161291D01*
X29785Y160508D01*
X29923Y159711D01*
X29991Y158905D01*
Y158095D01*
X29923Y157289D01*
X29785Y156492D01*
X29581Y155709D01*
X29310Y154946D01*
X29066Y154408D01*
Y162592D01*
G37*
G36*
Y35985D02*X29311Y35926D01*
X29345Y35923D01*
X31877Y33391D01*
Y10200D01*
X29066D01*
Y14536D01*
X29098Y14584D01*
X29519Y15334D01*
X29875Y16119D01*
X30163Y16930D01*
X30381Y17763D01*
X30527Y18612D01*
X30600Y19469D01*
Y20331D01*
X30527Y21188D01*
X30381Y22037D01*
X30163Y22870D01*
X29875Y23681D01*
X29519Y24466D01*
X29098Y25216D01*
X29066Y25264D01*
Y35985D01*
G37*
G36*
Y87722D02*X29401Y87928D01*
X29736Y88214D01*
X30022Y88549D01*
X30253Y88925D01*
X30364Y89194D01*
X30947D01*
X30953Y89166D01*
X31014Y89020D01*
X31096Y88886D01*
X31198Y88766D01*
X31318Y88664D01*
X31452Y88582D01*
X31598Y88522D01*
X31751Y88485D01*
X31877Y88477D01*
Y40521D01*
X31736Y40686D01*
X31401Y40972D01*
X31025Y41203D01*
X30618Y41371D01*
X30189Y41474D01*
X29750Y41509D01*
X29311Y41474D01*
X29066Y41415D01*
Y87722D01*
G37*
G36*
Y94706D02*X30947D01*
X30953Y94678D01*
X31014Y94532D01*
X31096Y94398D01*
X31198Y94278D01*
X31290Y94200D01*
X31198Y94122D01*
X31096Y94002D01*
X31014Y93868D01*
X30953Y93722D01*
X30947Y93694D01*
X29082D01*
X29066Y93695D01*
Y94706D01*
G37*
G36*
Y168200D02*X31877D01*
Y99915D01*
X31751Y99915D01*
X31598Y99878D01*
X31452Y99818D01*
X31318Y99736D01*
X31198Y99634D01*
X31096Y99514D01*
X31014Y99380D01*
X30953Y99234D01*
X30947Y99206D01*
X29713D01*
X29401Y99472D01*
X29066Y99678D01*
Y153136D01*
X29098Y153184D01*
X29519Y153934D01*
X29875Y154719D01*
X30163Y155530D01*
X30381Y156363D01*
X30527Y157212D01*
X30600Y158069D01*
Y158931D01*
X30527Y159788D01*
X30381Y160637D01*
X30163Y161470D01*
X29875Y162281D01*
X29519Y163066D01*
X29098Y163816D01*
X29066Y163864D01*
Y168200D01*
G37*
G36*
X23329D02*X29066D01*
Y163864D01*
X28615Y164529D01*
X28072Y165197D01*
X28038Y165232D01*
X27998Y165259D01*
X27954Y165281D01*
X27908Y165295D01*
X27860Y165302D01*
X27811Y165301D01*
X27763Y165292D01*
X27717Y165277D01*
X27674Y165254D01*
X27636Y165225D01*
X27602Y165190D01*
X27574Y165150D01*
X27553Y165106D01*
X27538Y165060D01*
X27532Y165012D01*
X27533Y164963D01*
X27541Y164915D01*
X27557Y164869D01*
X27580Y164826D01*
X27609Y164788D01*
X28126Y164166D01*
X28580Y163496D01*
X28976Y162790D01*
X29066Y162592D01*
Y154408D01*
X28976Y154210D01*
X28580Y153504D01*
X28126Y152834D01*
X27616Y152206D01*
X27587Y152169D01*
X27565Y152127D01*
X27549Y152083D01*
X27541Y152036D01*
X27540Y151989D01*
X27547Y151942D01*
X27561Y151897D01*
X27581Y151855D01*
X27608Y151816D01*
X27641Y151782D01*
X27679Y151754D01*
X27721Y151731D01*
X27765Y151716D01*
X27812Y151708D01*
X27859Y151707D01*
X27906Y151714D01*
X27951Y151727D01*
X27993Y151748D01*
X28032Y151775D01*
X28065Y151809D01*
X28615Y152471D01*
X29066Y153136D01*
Y99678D01*
X29025Y99703D01*
X28618Y99871D01*
X28189Y99974D01*
X27750Y100009D01*
X27311Y99974D01*
X26882Y99871D01*
X26475Y99703D01*
X26099Y99472D01*
X25764Y99186D01*
X25478Y98851D01*
X25247Y98475D01*
X25079Y98068D01*
X24976Y97639D01*
X24941Y97200D01*
X24976Y96761D01*
X25079Y96332D01*
X25247Y95925D01*
X25478Y95549D01*
X25764Y95214D01*
X26099Y94928D01*
X26475Y94697D01*
X26882Y94529D01*
X27311Y94426D01*
X27750Y94391D01*
X28189Y94426D01*
X28618Y94529D01*
X29025Y94697D01*
X29039Y94706D01*
X29066D01*
Y93695D01*
X28994Y93701D01*
X28641Y93673D01*
X28641Y93673D01*
X28641Y93673D01*
X28641Y93673D01*
X28424Y93621D01*
X28297Y93591D01*
X28297Y93591D01*
X28296Y93591D01*
X28078Y93500D01*
X27969Y93455D01*
X27969Y93455D01*
X27969Y93455D01*
X27748Y93320D01*
X27667Y93270D01*
X27667Y93270D01*
X27667Y93270D01*
X27667Y93270D01*
X27398Y93040D01*
X27344Y92977D01*
X27311Y92974D01*
X26882Y92871D01*
X26475Y92703D01*
X26099Y92472D01*
X25764Y92186D01*
X25478Y91851D01*
X25247Y91475D01*
X25079Y91068D01*
X24976Y90639D01*
X24941Y90200D01*
X24976Y89761D01*
X25079Y89332D01*
X25247Y88925D01*
X25478Y88549D01*
X25764Y88214D01*
X26099Y87928D01*
X26475Y87697D01*
X26882Y87529D01*
X27311Y87426D01*
X27750Y87391D01*
X28189Y87426D01*
X28618Y87529D01*
X29025Y87697D01*
X29066Y87722D01*
Y41415D01*
X28882Y41371D01*
X28475Y41203D01*
X28099Y40972D01*
X27764Y40686D01*
X27478Y40351D01*
X27247Y39975D01*
X27079Y39568D01*
X26976Y39139D01*
X26941Y38700D01*
X26976Y38261D01*
X27079Y37832D01*
X27247Y37425D01*
X27478Y37049D01*
X27764Y36714D01*
X28099Y36428D01*
X28475Y36197D01*
X28882Y36029D01*
X29066Y35985D01*
Y25264D01*
X28615Y25929D01*
X28072Y26597D01*
X28038Y26632D01*
X27998Y26659D01*
X27954Y26681D01*
X27908Y26695D01*
X27860Y26702D01*
X27811Y26701D01*
X27763Y26692D01*
X27717Y26677D01*
X27674Y26654D01*
X27636Y26625D01*
X27602Y26590D01*
X27574Y26550D01*
X27553Y26506D01*
X27538Y26460D01*
X27532Y26412D01*
X27533Y26363D01*
X27541Y26315D01*
X27557Y26269D01*
X27580Y26226D01*
X27609Y26188D01*
X28126Y25566D01*
X28580Y24896D01*
X28976Y24190D01*
X29066Y23992D01*
Y15808D01*
X28976Y15610D01*
X28580Y14904D01*
X28126Y14234D01*
X27616Y13606D01*
X27587Y13569D01*
X27565Y13527D01*
X27549Y13483D01*
X27541Y13436D01*
X27540Y13389D01*
X27547Y13342D01*
X27561Y13297D01*
X27581Y13255D01*
X27608Y13216D01*
X27641Y13182D01*
X27679Y13154D01*
X27721Y13131D01*
X27765Y13116D01*
X27812Y13108D01*
X27859Y13107D01*
X27906Y13114D01*
X27951Y13127D01*
X27993Y13148D01*
X28032Y13175D01*
X28065Y13209D01*
X28615Y13871D01*
X29066Y14536D01*
Y10200D01*
X23329D01*
X23470Y10237D01*
X24281Y10525D01*
X25066Y10881D01*
X25816Y11302D01*
X26529Y11785D01*
X27197Y12328D01*
X27232Y12362D01*
X27259Y12402D01*
X27281Y12446D01*
X27295Y12492D01*
X27302Y12540D01*
X27301Y12589D01*
X27292Y12637D01*
X27277Y12683D01*
X27254Y12726D01*
X27225Y12764D01*
X27190Y12798D01*
X27150Y12826D01*
X27106Y12847D01*
X27060Y12862D01*
X27012Y12868D01*
X26963Y12867D01*
X26915Y12859D01*
X26869Y12843D01*
X26826Y12820D01*
X26788Y12791D01*
X26166Y12274D01*
X25496Y11820D01*
X24790Y11424D01*
X24054Y11090D01*
X23291Y10819D01*
X22508Y10615D01*
X21711Y10477D01*
X20905Y10409D01*
X20504D01*
Y29391D01*
X20905D01*
X21711Y29323D01*
X22508Y29185D01*
X23291Y28981D01*
X24054Y28710D01*
X24790Y28376D01*
X25496Y27980D01*
X26166Y27526D01*
X26794Y27016D01*
X26831Y26987D01*
X26873Y26965D01*
X26917Y26949D01*
X26964Y26941D01*
X27011Y26940D01*
X27058Y26947D01*
X27103Y26961D01*
X27145Y26981D01*
X27184Y27008D01*
X27218Y27041D01*
X27246Y27079D01*
X27269Y27121D01*
X27284Y27165D01*
X27292Y27212D01*
X27293Y27259D01*
X27286Y27306D01*
X27273Y27351D01*
X27252Y27393D01*
X27225Y27432D01*
X27191Y27465D01*
X26529Y28015D01*
X25816Y28498D01*
X25066Y28919D01*
X24281Y29275D01*
X23470Y29563D01*
X22637Y29781D01*
X21788Y29927D01*
X20931Y30000D01*
X20504D01*
Y148400D01*
X20931D01*
X21788Y148473D01*
X22637Y148619D01*
X23470Y148837D01*
X24281Y149125D01*
X25066Y149481D01*
X25816Y149902D01*
X26529Y150385D01*
X27197Y150928D01*
X27232Y150962D01*
X27259Y151002D01*
X27281Y151046D01*
X27295Y151092D01*
X27302Y151140D01*
X27301Y151189D01*
X27292Y151237D01*
X27277Y151283D01*
X27254Y151326D01*
X27225Y151364D01*
X27190Y151398D01*
X27150Y151426D01*
X27106Y151447D01*
X27060Y151462D01*
X27012Y151468D01*
X26963Y151467D01*
X26915Y151459D01*
X26869Y151443D01*
X26826Y151420D01*
X26788Y151391D01*
X26166Y150874D01*
X25496Y150420D01*
X24790Y150024D01*
X24054Y149690D01*
X23291Y149419D01*
X22508Y149215D01*
X21711Y149077D01*
X20905Y149009D01*
X20504D01*
Y167991D01*
X20905D01*
X21711Y167923D01*
X22508Y167785D01*
X23291Y167581D01*
X24054Y167310D01*
X24790Y166976D01*
X25496Y166580D01*
X26166Y166126D01*
X26794Y165616D01*
X26831Y165587D01*
X26873Y165565D01*
X26917Y165549D01*
X26964Y165541D01*
X27011Y165540D01*
X27058Y165547D01*
X27103Y165561D01*
X27145Y165581D01*
X27184Y165608D01*
X27218Y165641D01*
X27246Y165679D01*
X27269Y165721D01*
X27284Y165765D01*
X27292Y165812D01*
X27293Y165859D01*
X27286Y165906D01*
X27273Y165951D01*
X27252Y165993D01*
X27225Y166032D01*
X27191Y166065D01*
X26529Y166615D01*
X25816Y167098D01*
X25066Y167519D01*
X24281Y167875D01*
X23470Y168163D01*
X23329Y168200D01*
G37*
G36*
X20504Y10409D02*X20095D01*
X19289Y10477D01*
X18492Y10615D01*
X17709Y10819D01*
X16946Y11090D01*
X16210Y11424D01*
X15504Y11820D01*
X14834Y12274D01*
X14206Y12784D01*
X14169Y12813D01*
X14127Y12835D01*
X14083Y12851D01*
X14036Y12859D01*
X13989Y12860D01*
X13942Y12853D01*
X13897Y12839D01*
X13855Y12819D01*
X13816Y12792D01*
X13782Y12759D01*
X13754Y12721D01*
X13745Y12705D01*
X13311Y13139D01*
X13326Y13146D01*
X13364Y13175D01*
X13398Y13210D01*
X13426Y13250D01*
X13447Y13294D01*
X13462Y13340D01*
X13468Y13388D01*
X13467Y13437D01*
X13459Y13485D01*
X13443Y13531D01*
X13420Y13574D01*
X13391Y13612D01*
X12874Y14234D01*
X12420Y14904D01*
X12024Y15610D01*
X11690Y16346D01*
X11419Y17109D01*
X11215Y17892D01*
X11077Y18689D01*
X11009Y19495D01*
Y20305D01*
X11077Y21111D01*
X11215Y21908D01*
X11419Y22691D01*
X11690Y23454D01*
X12024Y24190D01*
X12420Y24896D01*
X12874Y25566D01*
X13384Y26194D01*
X13413Y26231D01*
X13435Y26273D01*
X13451Y26317D01*
X13459Y26364D01*
X13460Y26411D01*
X13453Y26458D01*
X13439Y26503D01*
X13419Y26545D01*
X13392Y26584D01*
X13359Y26618D01*
X13321Y26646D01*
X13279Y26669D01*
X13235Y26684D01*
X13188Y26692D01*
X13141Y26693D01*
X13094Y26686D01*
X13049Y26673D01*
X13007Y26652D01*
X12968Y26625D01*
X12935Y26591D01*
X12385Y25929D01*
X11902Y25216D01*
X11481Y24466D01*
X11125Y23681D01*
X10837Y22870D01*
X10619Y22037D01*
X10473Y21188D01*
X10400Y20331D01*
Y20050D01*
X10250Y20200D01*
Y159700D01*
X10501Y159951D01*
X10473Y159788D01*
X10400Y158931D01*
Y158069D01*
X10473Y157212D01*
X10619Y156363D01*
X10837Y155530D01*
X11125Y154719D01*
X11481Y153934D01*
X11902Y153184D01*
X12385Y152471D01*
X12928Y151803D01*
X12962Y151768D01*
X13002Y151741D01*
X13046Y151719D01*
X13092Y151705D01*
X13140Y151698D01*
X13189Y151699D01*
X13237Y151708D01*
X13283Y151723D01*
X13326Y151746D01*
X13364Y151775D01*
X13398Y151810D01*
X13426Y151850D01*
X13447Y151894D01*
X13462Y151940D01*
X13468Y151988D01*
X13467Y152037D01*
X13459Y152085D01*
X13443Y152131D01*
X13420Y152174D01*
X13391Y152212D01*
X12874Y152834D01*
X12420Y153504D01*
X12024Y154210D01*
X11690Y154946D01*
X11419Y155709D01*
X11215Y156492D01*
X11077Y157289D01*
X11009Y158095D01*
Y158905D01*
X11077Y159711D01*
X11215Y160508D01*
X11419Y161291D01*
X11690Y162054D01*
X12024Y162790D01*
X12420Y163496D01*
X12874Y164166D01*
X13384Y164794D01*
X13413Y164831D01*
X13435Y164873D01*
X13451Y164917D01*
X13459Y164964D01*
X13460Y165011D01*
X13453Y165058D01*
X13439Y165103D01*
X13419Y165145D01*
X13392Y165184D01*
X13359Y165218D01*
X13321Y165246D01*
X13305Y165255D01*
X13739Y165689D01*
X13746Y165674D01*
X13775Y165636D01*
X13810Y165602D01*
X13850Y165574D01*
X13894Y165553D01*
X13940Y165538D01*
X13988Y165532D01*
X14037Y165533D01*
X14085Y165541D01*
X14131Y165557D01*
X14174Y165580D01*
X14212Y165609D01*
X14834Y166126D01*
X15504Y166580D01*
X16210Y166976D01*
X16946Y167310D01*
X17709Y167581D01*
X18492Y167785D01*
X19289Y167923D01*
X20095Y167991D01*
X20504D01*
Y149009D01*
X20095D01*
X19289Y149077D01*
X18492Y149215D01*
X17709Y149419D01*
X16946Y149690D01*
X16210Y150024D01*
X15504Y150420D01*
X14834Y150874D01*
X14206Y151384D01*
X14169Y151413D01*
X14127Y151435D01*
X14083Y151451D01*
X14036Y151459D01*
X13989Y151460D01*
X13942Y151453D01*
X13897Y151439D01*
X13855Y151419D01*
X13816Y151392D01*
X13782Y151359D01*
X13754Y151321D01*
X13731Y151279D01*
X13716Y151235D01*
X13708Y151188D01*
X13707Y151141D01*
X13714Y151094D01*
X13727Y151049D01*
X13748Y151007D01*
X13775Y150968D01*
X13809Y150935D01*
X14471Y150385D01*
X15184Y149902D01*
X15934Y149481D01*
X16719Y149125D01*
X17530Y148837D01*
X18363Y148619D01*
X19212Y148473D01*
X20069Y148400D01*
X20504D01*
Y30000D01*
X20069D01*
X19212Y29927D01*
X18363Y29781D01*
X17530Y29563D01*
X16719Y29275D01*
X15934Y28919D01*
X15184Y28498D01*
X14471Y28015D01*
X13803Y27472D01*
X13768Y27438D01*
X13741Y27398D01*
X13719Y27354D01*
X13705Y27308D01*
X13698Y27260D01*
X13699Y27211D01*
X13708Y27163D01*
X13723Y27117D01*
X13746Y27074D01*
X13775Y27036D01*
X13810Y27002D01*
X13850Y26974D01*
X13894Y26953D01*
X13940Y26938D01*
X13988Y26932D01*
X14037Y26933D01*
X14085Y26941D01*
X14131Y26957D01*
X14174Y26980D01*
X14212Y27009D01*
X14834Y27526D01*
X15504Y27980D01*
X16210Y28376D01*
X16946Y28710D01*
X17709Y28981D01*
X18492Y29185D01*
X19289Y29323D01*
X20095Y29391D01*
X20504D01*
Y10409D01*
G37*
G54D12*X94650Y59600D02*X94250Y59200D01*
X81350Y49800D02*X81250Y49700D01*
X81140Y49590D02*X105490D01*
X109000Y53100D01*
G54D13*X40250Y33216D02*X35234D01*
X29750Y38700D01*
X40750Y33216D02*X43234D01*
X48250Y28200D01*
X62278D01*
X67293Y33216D01*
Y41090D02*Y48964D01*
X40719D01*
X58750Y61200D02*Y48964D01*
G54D12*X109000Y62900D02*X97950D01*
X94270Y59220D01*
X100110Y41970D02*Y49590D01*
X97924Y33636D02*X117936D01*
X119000Y34700D01*
X97924Y25762D02*X117938D01*
X119000Y24700D01*
X83020Y16330D02*X88492D01*
X97924Y25762D01*
G54D14*X48640Y96956D02*X49506D01*
X54750Y102200D01*
X58250D01*
X60750Y99700D01*
Y95200D01*
X56250Y90700D01*
G54D13*X77670Y120559D02*Y123280D01*
X73750Y127200D01*
X65750Y130200D02*X66250D01*
X72750Y136700D01*
G54D14*X48640Y91444D02*X50494D01*
G54D13*X34860D02*X28994D01*
X27750Y90200D01*
X34860Y96956D02*X27994D01*
X27750Y97200D01*
G54D14*X50494Y91444D02*X56250Y97200D01*
G54D15*X137091Y60470D02*X139091D01*
X139591Y60970D01*
Y62170D02*Y60970D01*
X139091Y62670D02*X139591Y62170D01*
X137591Y62670D02*X139091D01*
X137591Y64470D02*Y60470D01*
X137091Y64470D02*X139091D01*
X139591Y63970D01*
Y63170D01*
X139091Y62670D02*X139591Y63170D01*
X140791Y62470D02*Y60970D01*
X141291Y60470D01*
X142791Y62470D02*Y59470D01*
X142291Y58970D02*X142791Y59470D01*
X141291Y58970D02*X142291D01*
X140791Y59470D02*X141291Y58970D01*
Y60470D02*X142291D01*
X142791Y60970D01*
X145791Y62670D02*X147291D01*
X145791Y60470D02*X147791D01*
X145791Y64470D02*Y60470D01*
Y64470D02*X147791D01*
X148991Y62470D02*X149991Y60470D01*
X150991Y62470D02*X149991Y60470D01*
X153691Y62470D02*X154191Y61970D01*
X152691Y62470D02*X153691D01*
X152191Y61970D02*X152691Y62470D01*
X152191Y61970D02*Y60970D01*
X152691Y60470D01*
X154191Y62470D02*Y60970D01*
X154691Y60470D01*
X152691D02*X153691D01*
X154191Y60970D01*
X156391Y61970D02*Y60470D01*
Y61970D02*X156891Y62470D01*
X157391D01*
X157891Y61970D01*
Y60470D01*
X155891Y62470D02*X156391Y61970D01*
X160891Y62670D02*X162391D01*
X160891Y60470D02*X162891D01*
X160891Y64470D02*Y60470D01*
Y64470D02*X162891D01*
X164091Y60470D02*X164591D01*
X165791Y64470D02*Y60470D01*
Y64470D02*X167791D01*
X165791Y62670D02*X167291D01*
X168991Y60470D02*X169491D01*
X172491Y60970D02*X172991Y60470D01*
X172491Y63970D02*Y62970D01*
Y63970D02*X172991Y64470D01*
X172491Y61970D02*X173991Y63470D01*
X172991Y60470D02*X173491D01*
X174491Y61470D01*
X172491Y62970D02*X174991Y60470D01*
X172991Y64470D02*X173491D01*
X173991Y63970D01*
Y63470D01*
X172491Y61970D02*Y60970D01*
X177991Y64470D02*X178991D01*
X178491D02*Y60470D01*
X177991D02*X178991D01*
X180691D02*X182191D01*
X182691Y60970D01*
X182191Y61470D02*X182691Y60970D01*
X180691Y61470D02*X182191D01*
X180191Y61970D02*X180691Y61470D01*
X180191Y61970D02*X180691Y62470D01*
X182191D01*
X182691Y61970D01*
X180191Y60970D02*X180691Y60470D01*
X183891Y64470D02*Y60470D01*
Y61970D02*X184391Y62470D01*
X185391D01*
X185891Y61970D01*
Y60470D01*
X187591Y61970D02*Y60470D01*
Y61970D02*X188091Y62470D01*
X188591D01*
X189091Y61970D01*
Y60470D01*
Y61970D02*X189591Y62470D01*
X190091D01*
X190591Y61970D01*
Y60470D01*
X187091Y62470D02*X187591Y61970D01*
X193291Y62470D02*X193791Y61970D01*
X192291Y62470D02*X193291D01*
X191791Y61970D02*X192291Y62470D01*
X191791Y61970D02*Y60970D01*
X192291Y60470D01*
X193791Y62470D02*Y60970D01*
X194291Y60470D01*
X192291D02*X193291D01*
X193791Y60970D01*
X195991Y60470D02*X197491D01*
X195491Y60970D02*X195991Y60470D01*
X195491Y61970D02*Y60970D01*
Y61970D02*X195991Y62470D01*
X196991D01*
X197491Y61970D01*
X195491Y61470D02*X197491D01*
Y61970D02*Y61470D01*
X198691Y64470D02*Y60970D01*
X199191Y60470D01*
X203991Y64470D02*X204491Y63970D01*
X202491Y64470D02*X203991D01*
X201991Y63970D02*X202491Y64470D01*
X201991Y63970D02*Y62970D01*
X202491Y62470D01*
X203991D01*
X204491Y61970D01*
Y60970D01*
X203991Y60470D02*X204491Y60970D01*
X202491Y60470D02*X203991D01*
X201991Y60970D02*X202491Y60470D01*
X205691D02*X206191D01*
X207391Y64470D02*Y62470D01*
X207891Y60470D01*
X208891Y62470D01*
X209891Y60470D01*
X210391Y62470D01*
Y64470D02*Y62470D01*
X211591Y60470D02*X212091D01*
G54D16*X55506Y23373D03*
Y41090D03*
G54D17*X119250Y57000D03*
G54D11*G36*
X116000Y37700D02*Y31700D01*
X122000D01*
Y37700D01*
X116000D01*
G37*
G54D18*X119000Y24700D03*
G54D11*G36*
X104954Y132153D02*Y126247D01*
X110860D01*
Y132153D01*
X104954D01*
G37*
G54D16*X112829Y137074D03*
X117750Y129200D03*
X122671Y137074D03*
G54D17*X119250Y68800D03*
G54D19*X47656Y96956D02*X49624D01*
X47656Y91444D02*X49624D01*
X33876Y96956D02*X35844D01*
X33876Y91444D02*X35844D01*
G54D20*X108600Y62900D02*X109400D01*
X108600Y53100D02*X109400D01*
X108600Y72700D02*X109400D01*
G54D21*X72552Y136700D02*X72947D01*
G54D22*X67631Y120559D02*X68025D01*
X77473D02*X77867D01*
G54D23*X64636Y48964D02*X69951D01*
X64636Y41090D02*X69951D01*
X64636Y33216D02*X69951D01*
X38061Y48964D02*X43376D01*
X38061Y33216D02*X43376D01*
G54D24*X89065Y33636D02*X106782D01*
X89065Y25762D02*X106782D01*
G54D25*X112097Y42889D02*X119577D01*
X112097Y16511D02*X119577D01*
G54D26*X56250Y97200D03*
Y90700D03*
X29750Y38700D03*
X73750Y127200D03*
X58750Y61200D03*
G54D18*X94250Y59200D03*
X81250Y49700D03*
G54D27*X115250Y89200D03*
G54D28*X93750Y102200D03*
G54D18*X100110Y41970D03*
G54D26*X65750Y130200D03*
G54D29*X210000Y158500D03*
G54D28*X184750Y153200D03*
X45750D03*
G54D26*X27750Y97200D03*
G54D29*X20500Y158500D03*
G54D26*X27750Y90200D03*
G54D29*X20500Y19900D03*
X210000D03*
G54D28*X184750Y25200D03*
X136000Y29700D03*
G54D18*X83020Y16330D03*
G54D14*G54D30*G54D31*G54D30*G54D14*G54D32*G54D31*G54D14*G54D32*G54D14*G54D32*G54D31*G54D30*G54D33*G54D34*G54D35*G54D36*G54D34*M02*
